<?xml version="1.0" encoding="UTF-8" standalone="no"?>
<!DOCTYPE svg PUBLIC "-//W3C//DTD SVG 1.1//EN"
 "http://www.w3.org/Graphics/SVG/1.1/DTD/svg11.dtd">
<!-- Generated by graphviz version 2.36.0 (20140111.2315)
 -->
<!-- Title: %3 Pages: 1 -->
<svg width="1026pt" height="592pt"
 viewBox="0.00 0.00 1026.00 592.00" xmlns="http://www.w3.org/2000/svg" xmlns:xlink="http://www.w3.org/1999/xlink">
<g id="graph0" class="graph" transform="scale(1 1) rotate(0) translate(4 588)">
<title>%3</title>
<polygon fill="white" stroke="none" points="-4,4 -4,-588 1022,-588 1022,4 -4,4"/>
<!-- G02 -->
<g id="node1" class="node"><title>G02</title>
<ellipse fill="none" stroke="black" stroke-width="2" cx="260" cy="-559" rx="25.9954" ry="25.9954"/>
<text text-anchor="middle" x="260" y="-555.3" font-family="Times,serif" font-size="14.00">G02</text>
</g>
<!-- G0T -->
<g id="node2" class="node"><title>G0T</title>
<ellipse fill="none" stroke="black" stroke-width="2" cx="883" cy="-400" rx="26.7961" ry="26.7961"/>
<text text-anchor="middle" x="883" y="-396.3" font-family="Times,serif" font-size="14.00">G0T</text>
</g>
<!-- G02&#45;&gt;G0T -->
<g id="edge1" class="edge"><title>G02&#45;&gt;G0T</title>
<path fill="none" stroke="black" stroke-width="4" d="M285.726,-562.682C329.99,-568.945 425.745,-581 507,-581 507,-581 507,-581 633,-581 702.902,-581 726.974,-577.428 784,-537 821.727,-510.254 850.24,-464.273 866.526,-433.027"/>
<polygon fill="black" stroke="black" stroke-width="4" points="869.783,-434.343 871.184,-423.841 863.54,-431.177 869.783,-434.343"/>
</g>
<!-- G08 -->
<g id="node3" class="node"><title>G08</title>
<ellipse fill="none" stroke="black" stroke-width="2" cx="632" cy="-373" rx="25.9954" ry="25.9954"/>
<text text-anchor="middle" x="632" y="-369.3" font-family="Times,serif" font-size="14.00">G08</text>
</g>
<!-- G02&#45;&gt;G08 -->
<g id="edge2" class="edge"><title>G02&#45;&gt;G08</title>
<path fill="none" stroke="black" stroke-width="4" d="M277.502,-539.658C302.673,-510.278 348.726,-457.056 358,-450 406.88,-412.812 423.009,-406.096 482,-389 519.888,-378.02 565.164,-374.434 595.785,-373.335"/>
<polygon fill="black" stroke="black" stroke-width="4" points="596.074,-376.828 605.969,-373.041 595.873,-369.831 596.074,-376.828"/>
</g>
<!-- G09 -->
<g id="node4" class="node"><title>G09</title>
<ellipse fill="none" stroke="black" stroke-width="2" cx="757" cy="-479" rx="25.9954" ry="25.9954"/>
<text text-anchor="middle" x="757" y="-475.3" font-family="Times,serif" font-size="14.00">G09</text>
</g>
<!-- G02&#45;&gt;G09 -->
<g id="edge3" class="edge"><title>G02&#45;&gt;G09</title>
<path fill="none" stroke="#177f00" stroke-width="4" d="M285.325,-553.185C347.652,-543.21 518.025,-524.46 658,-497 679.08,-492.865 702.394,-486.972 720.993,-482.71"/>
<polygon fill="#177f00" stroke="#177f00" stroke-width="4" points="721.793,-486.118 730.796,-480.532 720.274,-479.285 721.793,-486.118"/>
</g>
<!-- G02&#45;&gt;G09 -->
<g id="edge4" class="edge"><title>G02&#45;&gt;G09</title>
<path fill="none" stroke="#007f00" stroke-width="4" d="M286.244,-556.496C349.314,-550.027 518.708,-531.326 658,-504 679.371,-499.807 703.038,-493.809 721.759,-488.739"/>
<polygon fill="#007f00" stroke="#007f00" stroke-width="4" points="722.889,-492.058 731.605,-486.035 721.036,-485.308 722.889,-492.058"/>
</g>
<!-- G02&#45;&gt;G09 -->
<g id="edge5" class="edge"><title>G02&#45;&gt;G09</title>
<path fill="none" stroke="#a2007f" stroke-width="4" d="M286.244,-559.954C349.314,-557.027 518.708,-538.326 658,-511 680.346,-506.616 705.203,-500.258 724.291,-494.141"/>
<polygon fill="#a2007f" stroke="#a2007f" stroke-width="4" points="725.616,-497.387 733.976,-490.878 723.382,-490.754 725.616,-497.387"/>
</g>
<!-- T -->
<g id="node5" class="node"><title>T</title>
<ellipse fill="none" stroke="black" stroke-width="2" cx="1000" cy="-141" rx="18" ry="18"/>
<text text-anchor="middle" x="1000" y="-137.3" font-family="Times,serif" font-size="14.00">T</text>
</g>
<!-- G0T&#45;&gt;T -->
<g id="edge6" class="edge"><title>G0T&#45;&gt;T</title>
<path fill="none" stroke="black" stroke-width="4" d="M894.613,-376.098C916.298,-327.259 965.514,-216.415 987.738,-166.365"/>
<polygon fill="black" stroke="black" stroke-width="4" points="990.947,-167.762 991.806,-157.202 984.549,-164.921 990.947,-167.762"/>
</g>
<!-- G08&#45;&gt;G0T -->
<g id="edge25" class="edge"><title>G08&#45;&gt;G0T</title>
<path fill="none" stroke="black" stroke-width="4" d="M658.246,-375.737C702.686,-380.556 795.003,-390.567 846.075,-396.105"/>
<polygon fill="black" stroke="black" stroke-width="4" points="845.996,-399.616 856.315,-397.215 846.751,-392.657 845.996,-399.616"/>
</g>
<!-- G08&#45;&gt;G09 -->
<g id="edge26" class="edge"><title>G08&#45;&gt;G09</title>
<path fill="none" stroke="#7f4500" stroke-width="4" d="M652.219,-389.562C672.889,-407.376 705.911,-435.833 729.143,-455.855"/>
<polygon fill="#7f4500" stroke="#7f4500" stroke-width="4" points="727.056,-458.677 736.916,-462.554 731.626,-453.374 727.056,-458.677"/>
</g>
<!-- G09&#45;&gt;G0T -->
<g id="edge32" class="edge"><title>G09&#45;&gt;G0T</title>
<path fill="none" stroke="black" stroke-width="4" d="M779.316,-465.419C799.245,-452.723 829.214,-433.63 851.639,-419.343"/>
<polygon fill="black" stroke="black" stroke-width="4" points="853.576,-422.259 860.129,-413.934 849.815,-416.355 853.576,-422.259"/>
</g>
<!-- S -->
<g id="node6" class="node"><title>S</title>
<ellipse fill="none" stroke="black" stroke-width="2" cx="18" cy="-107" rx="18" ry="18"/>
<text text-anchor="middle" x="18" y="-103.3" font-family="Times,serif" font-size="14.00">S</text>
</g>
<!-- G1S -->
<g id="node7" class="node"><title>G1S</title>
<ellipse fill="none" stroke="black" stroke-width="2" cx="135" cy="-107" rx="26.7961" ry="26.7961"/>
<text text-anchor="middle" x="135" y="-103.3" font-family="Times,serif" font-size="14.00">G1S</text>
</g>
<!-- S&#45;&gt;G1S -->
<g id="edge7" class="edge"><title>S&#45;&gt;G1S</title>
<path fill="none" stroke="black" stroke-width="4" d="M36.466,-107C52.7321,-107 77.4837,-107 97.9816,-107"/>
<polygon fill="black" stroke="black" stroke-width="4" points="98.2455,-110.5 108.245,-107 98.2454,-103.5 98.2455,-110.5"/>
</g>
<!-- G0S -->
<g id="node8" class="node"><title>G0S</title>
<ellipse fill="none" stroke="black" stroke-width="2" cx="135" cy="-384" rx="26.7961" ry="26.7961"/>
<text text-anchor="middle" x="135" y="-380.3" font-family="Times,serif" font-size="14.00">G0S</text>
</g>
<!-- S&#45;&gt;G0S -->
<g id="edge8" class="edge"><title>S&#45;&gt;G0S</title>
<path fill="none" stroke="black" stroke-width="4" d="M25.8494,-123.498C44.3085,-167.961 95.3646,-290.939 120.147,-350.633"/>
<polygon fill="black" stroke="black" stroke-width="4" points="116.965,-352.096 124.032,-359.989 123.43,-349.412 116.965,-352.096"/>
</g>
<!-- G2S -->
<g id="node9" class="node"><title>G2S</title>
<ellipse fill="none" stroke="black" stroke-width="2" cx="135" cy="-26" rx="26.7961" ry="26.7961"/>
<text text-anchor="middle" x="135" y="-22.3" font-family="Times,serif" font-size="14.00">G2S</text>
</g>
<!-- S&#45;&gt;G2S -->
<g id="edge9" class="edge"><title>S&#45;&gt;G2S</title>
<path fill="none" stroke="black" stroke-width="4" d="M33.1013,-97.0678C50.758,-84.6313 81.4676,-63.0011 104.382,-46.8611"/>
<polygon fill="black" stroke="black" stroke-width="4" points="106.58,-49.5946 112.74,-40.9747 102.549,-43.8717 106.58,-49.5946"/>
</g>
<!-- G15 -->
<g id="node10" class="node"><title>G15</title>
<ellipse fill="none" stroke="black" stroke-width="2" cx="508" cy="-70" rx="25.9954" ry="25.9954"/>
<text text-anchor="middle" x="508" y="-66.3" font-family="Times,serif" font-size="14.00">G15</text>
</g>
<!-- G1S&#45;&gt;G15 -->
<g id="edge10" class="edge"><title>G1S&#45;&gt;G15</title>
<path fill="none" stroke="#177f00" stroke-width="4" d="M161.567,-103.015C202.8,-96.7339 286.588,-84.5717 358,-78 396.882,-74.4218 441.631,-72.2839 471.859,-71.1306"/>
<polygon fill="#177f00" stroke="#177f00" stroke-width="4" points="472.047,-74.6262 481.912,-70.763 471.791,-67.6308 472.047,-74.6262"/>
</g>
<!-- G13 -->
<g id="node11" class="node"><title>G13</title>
<ellipse fill="none" stroke="black" stroke-width="2" cx="384" cy="-107" rx="25.9954" ry="25.9954"/>
<text text-anchor="middle" x="384" y="-103.3" font-family="Times,serif" font-size="14.00">G13</text>
</g>
<!-- G1S&#45;&gt;G13 -->
<g id="edge11" class="edge"><title>G1S&#45;&gt;G13</title>
<path fill="none" stroke="black" stroke-width="4" d="M161.503,-103.65C205.921,-101.276 297.541,-101.127 347.913,-103.201"/>
<polygon fill="black" stroke="black" stroke-width="4" points="347.85,-106.702 358.004,-103.677 348.18,-99.7094 347.85,-106.702"/>
</g>
<!-- G1S&#45;&gt;G13 -->
<g id="edge12" class="edge"><title>G1S&#45;&gt;G13</title>
<path fill="none" stroke="#7f4500" stroke-width="4" d="M161.966,-107C206.486,-107 297.43,-107 347.677,-107"/>
<polygon fill="#7f4500" stroke="#7f4500" stroke-width="4" points="347.75,-110.5 357.75,-107 347.75,-103.5 347.75,-110.5"/>
</g>
<!-- G1S&#45;&gt;G13 -->
<g id="edge13" class="edge"><title>G1S&#45;&gt;G13</title>
<path fill="none" stroke="#a2007f" stroke-width="4" d="M161.503,-110.35C205.921,-112.724 297.541,-112.873 347.913,-110.799"/>
<polygon fill="#a2007f" stroke="#a2007f" stroke-width="4" points="348.18,-114.291 358.004,-110.323 347.85,-107.298 348.18,-114.291"/>
</g>
<!-- G11 -->
<g id="node12" class="node"><title>G11</title>
<ellipse fill="none" stroke="black" stroke-width="2" cx="260" cy="-150" rx="25.9954" ry="25.9954"/>
<text text-anchor="middle" x="260" y="-146.3" font-family="Times,serif" font-size="14.00">G11</text>
</g>
<!-- G1S&#45;&gt;G11 -->
<g id="edge14" class="edge"><title>G1S&#45;&gt;G11</title>
<path fill="none" stroke="#007f00" stroke-width="4" d="M160.301,-115.495C178.952,-122.016 204.916,-131.093 225.532,-138.3"/>
<polygon fill="#007f00" stroke="#007f00" stroke-width="4" points="224.573,-141.672 235.168,-141.669 226.883,-135.064 224.573,-141.672"/>
</g>
<!-- G12 -->
<g id="node13" class="node"><title>G12</title>
<ellipse fill="none" stroke="black" stroke-width="2" cx="384" cy="-193" rx="25.9954" ry="25.9954"/>
<text text-anchor="middle" x="384" y="-189.3" font-family="Times,serif" font-size="14.00">G12</text>
</g>
<!-- G1S&#45;&gt;G12 -->
<g id="edge15" class="edge"><title>G1S&#45;&gt;G12</title>
<path fill="none" stroke="#00737f" stroke-width="4" d="M155.874,-124.004C174.439,-140.136 203.761,-163.492 234,-175 270.951,-189.063 316.579,-191.711 347.537,-192.173"/>
<polygon fill="#00737f" stroke="#00737f" stroke-width="4" points="347.808,-195.675 357.837,-192.26 347.867,-188.675 347.808,-195.675"/>
</g>
<!-- G1S&#45;&gt;G12 -->
<g id="edge16" class="edge"><title>G1S&#45;&gt;G12</title>
<path fill="none" stroke="#007f73" stroke-width="4" d="M153.069,-126.778C171.395,-144.677 202.19,-169.894 234,-182 271.06,-196.104 316.848,-198.727 347.81,-197.697"/>
<polygon fill="#007f73" stroke="#007f73" stroke-width="4" points="348.288,-201.177 358.105,-197.193 347.945,-194.186 348.288,-201.177"/>
</g>
<!-- G0S&#45;&gt;G02 -->
<g id="edge33" class="edge"><title>G0S&#45;&gt;G02</title>
<path fill="none" stroke="#007f73" stroke-width="4" d="M149.946,-406.092C168.377,-434.94 202.235,-486.739 234,-529 234.756,-530.006 235.534,-531.024 236.327,-532.047"/>
<polygon fill="#007f73" stroke="#007f73" stroke-width="4" points="233.596,-534.235 242.571,-539.865 239.065,-529.867 233.596,-534.235"/>
</g>
<!-- G0S&#45;&gt;G08 -->
<g id="edge35" class="edge"><title>G0S&#45;&gt;G08</title>
<path fill="none" stroke="#7f0045" stroke-width="4" d="M152.206,-363.546C169.828,-343.089 200.056,-312.869 234,-300 358.68,-252.731 407.972,-259.451 534,-303 561.064,-312.352 587.114,-331.937 605.391,-348.018"/>
<polygon fill="#7f0045" stroke="#7f0045" stroke-width="4" points="603.457,-350.989 613.217,-355.111 608.158,-345.802 603.457,-350.989"/>
</g>
<!-- G01 -->
<g id="node16" class="node"><title>G01</title>
<ellipse fill="none" stroke="black" stroke-width="2" cx="508" cy="-418" rx="25.9954" ry="25.9954"/>
<text text-anchor="middle" x="508" y="-414.3" font-family="Times,serif" font-size="14.00">G01</text>
</g>
<!-- G0S&#45;&gt;G01 -->
<g id="edge34" class="edge"><title>G0S&#45;&gt;G01</title>
<path fill="none" stroke="#00737f" stroke-width="4" d="M161.793,-386.364C226.792,-392.321 397.393,-407.955 471.636,-414.759"/>
<polygon fill="#00737f" stroke="#00737f" stroke-width="4" points="471.589,-418.269 481.867,-415.697 472.228,-411.299 471.589,-418.269"/>
</g>
<!-- G06 -->
<g id="node18" class="node"><title>G06</title>
<ellipse fill="none" stroke="black" stroke-width="2" cx="384" cy="-479" rx="25.9954" ry="25.9954"/>
<text text-anchor="middle" x="384" y="-475.3" font-family="Times,serif" font-size="14.00">G06</text>
</g>
<!-- G0S&#45;&gt;G06 -->
<g id="edge36" class="edge"><title>G0S&#45;&gt;G06</title>
<path fill="none" stroke="#7fd000" stroke-width="4" d="M160.133,-393.282C204.63,-410.396 299.648,-446.942 350.039,-466.323"/>
<polygon fill="#7fd000" stroke="#7fd000" stroke-width="4" points="348.904,-469.636 359.494,-469.959 351.417,-463.103 348.904,-469.636"/>
</g>
<!-- G04 -->
<g id="node19" class="node"><title>G04</title>
<ellipse fill="none" stroke="black" stroke-width="2" cx="260" cy="-500" rx="25.9954" ry="25.9954"/>
<text text-anchor="middle" x="260" y="-496.3" font-family="Times,serif" font-size="14.00">G04</text>
</g>
<!-- G0S&#45;&gt;G04 -->
<g id="edge37" class="edge"><title>G0S&#45;&gt;G04</title>
<path fill="none" stroke="#177f00" stroke-width="4" d="M154.949,-401.871C175.897,-421.627 209.764,-453.566 233.141,-475.612"/>
<polygon fill="#177f00" stroke="#177f00" stroke-width="4" points="230.956,-478.363 240.632,-482.678 235.759,-473.27 230.956,-478.363"/>
</g>
<!-- G03 -->
<g id="node20" class="node"><title>G03</title>
<ellipse fill="none" stroke="black" stroke-width="2" cx="260" cy="-329" rx="25.9954" ry="25.9954"/>
<text text-anchor="middle" x="260" y="-325.3" font-family="Times,serif" font-size="14.00">G03</text>
</g>
<!-- G0S&#45;&gt;G03 -->
<g id="edge38" class="edge"><title>G0S&#45;&gt;G03</title>
<path fill="none" stroke="#a2007f" stroke-width="4" d="M159.716,-373.395C178.724,-364.896 205.596,-352.88 226.591,-343.492"/>
<polygon fill="#a2007f" stroke="#a2007f" stroke-width="4" points="228.074,-346.663 235.774,-339.385 225.217,-340.272 228.074,-346.663"/>
</g>
<!-- G07 -->
<g id="node21" class="node"><title>G07</title>
<ellipse fill="none" stroke="black" stroke-width="2" cx="508" cy="-344" rx="25.9954" ry="25.9954"/>
<text text-anchor="middle" x="508" y="-340.3" font-family="Times,serif" font-size="14.00">G07</text>
</g>
<!-- G0S&#45;&gt;G07 -->
<g id="edge39" class="edge"><title>G0S&#45;&gt;G07</title>
<path fill="none" stroke="black" stroke-width="4" d="M161.72,-380.034C210.294,-374.486 318.838,-364.597 410,-354 430.553,-351.611 453.501,-348.553 471.916,-346.326"/>
<polygon fill="black" stroke="black" stroke-width="4" points="472.384,-349.795 481.908,-345.153 471.568,-342.843 472.384,-349.795"/>
</g>
<!-- G0S&#45;&gt;G07 -->
<g id="edge40" class="edge"><title>G0S&#45;&gt;G07</title>
<path fill="none" stroke="#007f00" stroke-width="4" d="M161.72,-384.081C210.294,-381.486 318.838,-371.597 410,-361 430.836,-358.578 454.135,-355.469 472.675,-352.449"/>
<polygon fill="#007f00" stroke="#007f00" stroke-width="4" points="473.443,-355.869 482.713,-350.738 472.266,-348.969 473.443,-355.869"/>
</g>
<!-- G21 -->
<g id="node22" class="node"><title>G21</title>
<ellipse fill="none" stroke="black" stroke-width="2" cx="260" cy="-26" rx="25.9954" ry="25.9954"/>
<text text-anchor="middle" x="260" y="-22.3" font-family="Times,serif" font-size="14.00">G21</text>
</g>
<!-- G2S&#45;&gt;G21 -->
<g id="edge47" class="edge"><title>G2S&#45;&gt;G21</title>
<path fill="none" stroke="#7fd000" stroke-width="4" d="M161.486,-21.6501C179.499,-20.6255 203.877,-20.4756 223.751,-21.2005"/>
<polygon fill="#7fd000" stroke="#7fd000" stroke-width="4" points="223.816,-24.7072 233.968,-21.6762 224.141,-17.7148 223.816,-24.7072"/>
</g>
<!-- G2S&#45;&gt;G21 -->
<g id="edge48" class="edge"><title>G2S&#45;&gt;G21</title>
<path fill="none" stroke="#177f00" stroke-width="4" d="M161.785,-26C179.699,-26 203.799,-26 223.522,-26"/>
<polygon fill="#177f00" stroke="#177f00" stroke-width="4" points="223.67,-29.5001 233.67,-26 223.67,-22.5001 223.67,-29.5001"/>
</g>
<!-- G2S&#45;&gt;G21 -->
<g id="edge49" class="edge"><title>G2S&#45;&gt;G21</title>
<path fill="none" stroke="#7f4500" stroke-width="4" d="M161.486,-30.3499C179.499,-31.3745 203.877,-31.5244 223.751,-30.7995"/>
<polygon fill="#7f4500" stroke="#7f4500" stroke-width="4" points="224.141,-34.2852 233.968,-30.3238 223.816,-27.2928 224.141,-34.2852"/>
</g>
<!-- G16 -->
<g id="node14" class="node"><title>G16</title>
<ellipse fill="none" stroke="black" stroke-width="2" cx="632" cy="-122" rx="25.9954" ry="25.9954"/>
<text text-anchor="middle" x="632" y="-118.3" font-family="Times,serif" font-size="14.00">G16</text>
</g>
<!-- G15&#45;&gt;G16 -->
<g id="edge17" class="edge"><title>G15&#45;&gt;G16</title>
<path fill="none" stroke="#7f0045" stroke-width="4" d="M532.812,-78.3226C551.729,-85.8887 578.362,-97.1811 599.118,-106.406"/>
<polygon fill="#7f0045" stroke="#7f0045" stroke-width="4" points="597.927,-109.708 608.483,-110.611 600.794,-103.322 597.927,-109.708"/>
</g>
<!-- G15&#45;&gt;G16 -->
<g id="edge18" class="edge"><title>G15&#45;&gt;G16</title>
<path fill="none" stroke="black" stroke-width="4" d="M531.093,-81.7902C549.588,-90.3738 576.272,-101.861 597.412,-110.396"/>
<polygon fill="black" stroke="black" stroke-width="4" points="596.398,-113.76 606.983,-114.206 598.987,-107.256 596.398,-113.76"/>
</g>
<!-- G1T -->
<g id="node15" class="node"><title>G1T</title>
<ellipse fill="none" stroke="black" stroke-width="2" cx="757" cy="-141" rx="26.7961" ry="26.7961"/>
<text text-anchor="middle" x="757" y="-137.3" font-family="Times,serif" font-size="14.00">G1T</text>
</g>
<!-- G15&#45;&gt;G1T -->
<g id="edge19" class="edge"><title>G15&#45;&gt;G1T</title>
<path fill="none" stroke="black" stroke-width="4" d="M534.041,-71.5501C564.076,-73.9338 615.673,-79.7068 658,-93 681.348,-100.333 706.086,-112.487 724.866,-122.73"/>
<polygon fill="black" stroke="black" stroke-width="4" points="723.399,-125.919 733.839,-127.725 726.804,-119.803 723.399,-125.919"/>
</g>
<!-- G13&#45;&gt;G16 -->
<g id="edge27" class="edge"><title>G13&#45;&gt;G16</title>
<path fill="none" stroke="#7f0045" stroke-width="4" d="M410.4,-108.549C454.523,-111.239 545.414,-116.781 595.664,-119.845"/>
<polygon fill="#7f0045" stroke="#7f0045" stroke-width="4" points="595.544,-123.344 605.738,-120.46 595.97,-116.357 595.544,-123.344"/>
</g>
<!-- G13&#45;&gt;G1T -->
<g id="edge29" class="edge"><title>G13&#45;&gt;G1T</title>
<path fill="none" stroke="black" stroke-width="4" d="M403.239,-89.5532C421.502,-73.3924 451.243,-50.4716 482,-41 504.088,-34.1983 511.17,-37.4088 534,-41 591.204,-49.9982 605.381,-56.8228 658,-81 681.943,-92.0013 707.267,-107.622 726.173,-120.168"/>
<polygon fill="black" stroke="black" stroke-width="4" points="724.392,-123.187 734.642,-125.866 728.299,-117.38 724.392,-123.187"/>
</g>
<!-- G14 -->
<g id="node17" class="node"><title>G14</title>
<ellipse fill="none" stroke="black" stroke-width="2" cx="508" cy="-159" rx="25.9954" ry="25.9954"/>
<text text-anchor="middle" x="508" y="-155.3" font-family="Times,serif" font-size="14.00">G14</text>
</g>
<!-- G13&#45;&gt;G14 -->
<g id="edge28" class="edge"><title>G13&#45;&gt;G14</title>
<path fill="none" stroke="black" stroke-width="4" d="M408.234,-116.903C426.975,-124.891 453.556,-136.22 474.422,-145.114"/>
<polygon fill="black" stroke="black" stroke-width="4" points="473.28,-148.432 483.852,-149.134 476.025,-141.993 473.28,-148.432"/>
</g>
<!-- G11&#45;&gt;G13 -->
<g id="edge55" class="edge"><title>G11&#45;&gt;G13</title>
<path fill="none" stroke="black" stroke-width="4" d="M284.812,-141.607C303.286,-135.096 329.118,-125.991 349.65,-118.755"/>
<polygon fill="black" stroke="black" stroke-width="4" points="350.98,-121.997 359.248,-115.372 348.653,-115.395 350.98,-121.997"/>
</g>
<!-- G11&#45;&gt;G16 -->
<g id="edge54" class="edge"><title>G11&#45;&gt;G16</title>
<path fill="none" stroke="#7f4500" stroke-width="4" d="M286.165,-147.42C327.156,-143.286 410.913,-135.123 482,-130 520.946,-127.193 565.683,-124.918 595.892,-123.522"/>
<polygon fill="#7f4500" stroke="#7f4500" stroke-width="4" points="596.107,-127.016 605.937,-123.065 595.789,-120.023 596.107,-127.016"/>
</g>
<!-- G11&#45;&gt;G1T -->
<g id="edge56" class="edge"><title>G11&#45;&gt;G1T</title>
<path fill="none" stroke="black" stroke-width="4" d="M278.641,-168.415C296.68,-185.798 326.46,-210.69 358,-221 490.442,-264.292 655.69,-193.006 724.085,-158.292"/>
<polygon fill="black" stroke="black" stroke-width="4" points="725.797,-161.348 733.079,-153.653 722.588,-155.127 725.797,-161.348"/>
</g>
<!-- G12&#45;&gt;G16 -->
<g id="edge57" class="edge"><title>G12&#45;&gt;G16</title>
<path fill="none" stroke="#007f00" stroke-width="4" d="M409.982,-193.923C440.182,-195.816 492.158,-197.649 534,-184 559.737,-175.605 585.019,-158.279 603.317,-144.052"/>
<polygon fill="#007f00" stroke="#007f00" stroke-width="4" points="605.561,-146.74 611.209,-137.776 601.204,-141.261 605.561,-146.74"/>
</g>
<!-- G12&#45;&gt;G16 -->
<g id="edge58" class="edge"><title>G12&#45;&gt;G16</title>
<path fill="none" stroke="#00737f" stroke-width="4" d="M409.451,-198.803C439.57,-202.794 491.912,-204.729 534,-191 561.196,-182.129 587.884,-163.287 606.36,-147.492"/>
<polygon fill="#00737f" stroke="#00737f" stroke-width="4" points="608.836,-149.975 613.998,-140.722 604.193,-144.736 608.836,-149.975"/>
</g>
<!-- G12&#45;&gt;G1T -->
<g id="edge60" class="edge"><title>G12&#45;&gt;G1T</title>
<path fill="none" stroke="black" stroke-width="4" d="M410.096,-195.31C429.664,-196.99 457.534,-199.118 482,-200 505.096,-200.832 511.084,-202.993 534,-200 602.092,-191.106 679.024,-167.483 722.095,-152.969"/>
<polygon fill="black" stroke="black" stroke-width="4" points="723.445,-156.207 731.78,-149.667 721.185,-149.582 723.445,-156.207"/>
</g>
<!-- G12&#45;&gt;G14 -->
<g id="edge59" class="edge"><title>G12&#45;&gt;G14</title>
<path fill="none" stroke="black" stroke-width="4" d="M409.103,-186.283C427.281,-181.217 452.462,-174.199 472.733,-168.55"/>
<polygon fill="black" stroke="black" stroke-width="4" points="473.836,-171.876 482.529,-165.82 471.957,-165.133 473.836,-171.876"/>
</g>
<!-- G16&#45;&gt;G1T -->
<g id="edge20" class="edge"><title>G16&#45;&gt;G1T</title>
<path fill="none" stroke="black" stroke-width="4" d="M657.891,-125.845C675.824,-128.615 700.287,-132.394 720.299,-135.485"/>
<polygon fill="black" stroke="black" stroke-width="4" points="719.882,-138.962 730.299,-137.03 720.951,-132.044 719.882,-138.962"/>
</g>
<!-- G1T&#45;&gt;T -->
<g id="edge61" class="edge"><title>G1T&#45;&gt;T</title>
<path fill="none" stroke="black" stroke-width="4" d="M783.791,-141C829.641,-141 924.911,-141 971.771,-141"/>
<polygon fill="black" stroke="black" stroke-width="4" points="971.795,-144.5 981.795,-141 971.795,-137.5 971.795,-144.5"/>
</g>
<!-- G01&#45;&gt;G0T -->
<g id="edge21" class="edge"><title>G01&#45;&gt;G0T</title>
<path fill="none" stroke="black" stroke-width="4" d="M534.053,-416.791C598.507,-413.681 770.281,-405.391 845.67,-401.753"/>
<polygon fill="black" stroke="black" stroke-width="4" points="846.25,-405.229 856.07,-401.251 845.913,-398.237 846.25,-405.229"/>
</g>
<!-- G01&#45;&gt;G08 -->
<g id="edge22" class="edge"><title>G01&#45;&gt;G08</title>
<path fill="none" stroke="black" stroke-width="4" d="M531.947,-407.732C550.336,-400.447 576.406,-390.753 597.185,-383.435"/>
<polygon fill="black" stroke="black" stroke-width="4" points="598.609,-386.645 606.904,-380.054 596.309,-380.034 598.609,-386.645"/>
</g>
<!-- G01&#45;&gt;G08 -->
<g id="edge23" class="edge"><title>G01&#45;&gt;G08</title>
<path fill="none" stroke="#007f00" stroke-width="4" d="M533.395,-411.458C552.159,-405.177 578.256,-395.626 598.745,-387.579"/>
<polygon fill="#007f00" stroke="#007f00" stroke-width="4" points="600.303,-390.726 608.295,-383.771 597.71,-384.224 600.303,-390.726"/>
</g>
<!-- G01&#45;&gt;G09 -->
<g id="edge24" class="edge"><title>G01&#45;&gt;G09</title>
<path fill="none" stroke="#2e007f" stroke-width="4" d="M533.654,-422.697C563.313,-428.485 614.544,-438.921 658,-450 679.569,-455.499 703.533,-462.573 722.365,-468.357"/>
<polygon fill="#2e007f" stroke="#2e007f" stroke-width="4" points="721.39,-471.719 731.977,-471.335 723.461,-465.033 721.39,-471.719"/>
</g>
<!-- G14&#45;&gt;G16 -->
<g id="edge30" class="edge"><title>G14&#45;&gt;G16</title>
<path fill="none" stroke="#2e007f" stroke-width="4" d="M533.103,-151.69C551.4,-146.141 576.791,-138.44 597.13,-132.272"/>
<polygon fill="#2e007f" stroke="#2e007f" stroke-width="4" points="598.393,-135.546 606.947,-129.295 596.361,-128.848 598.393,-135.546"/>
</g>
<!-- G14&#45;&gt;G1T -->
<g id="edge31" class="edge"><title>G14&#45;&gt;G1T</title>
<path fill="none" stroke="black" stroke-width="4" d="M534.061,-157.726C563.684,-156.164 614.459,-153.314 658,-150 678.603,-148.432 701.611,-146.337 720.153,-144.563"/>
<polygon fill="black" stroke="black" stroke-width="4" points="720.61,-148.035 730.226,-143.589 719.936,-141.068 720.61,-148.035"/>
</g>
<!-- G06&#45;&gt;G0T -->
<g id="edge41" class="edge"><title>G06&#45;&gt;G0T</title>
<path fill="none" stroke="black" stroke-width="4" d="M408.798,-488.049C472.76,-510.861 652.437,-564.908 784,-507 818.855,-491.659 846.719,-457.123 863.694,-431.412"/>
<polygon fill="black" stroke="black" stroke-width="4" points="866.805,-433.043 869.238,-422.732 860.906,-429.276 866.805,-433.043"/>
</g>
<!-- G06&#45;&gt;G09 -->
<g id="edge42" class="edge"><title>G06&#45;&gt;G09</title>
<path fill="none" stroke="#7f0045" stroke-width="4" d="M409.918,-475.005C474.336,-470.548 646.533,-470.342 720.945,-474.385"/>
<polygon fill="#7f0045" stroke="#7f0045" stroke-width="4" points="720.995,-477.894 731.19,-475.012 721.423,-470.907 720.995,-477.894"/>
</g>
<!-- G06&#45;&gt;G09 -->
<g id="edge43" class="edge"><title>G06&#45;&gt;G09</title>
<path fill="none" stroke="#a2007f" stroke-width="4" d="M410.209,-477.795C474.718,-476.467 645.935,-476.405 720.483,-477.608"/>
<polygon fill="#a2007f" stroke="#a2007f" stroke-width="4" points="720.695,-481.112 730.757,-477.795 720.822,-474.113 720.695,-481.112"/>
</g>
<!-- G06&#45;&gt;G09 -->
<g id="edge44" class="edge"><title>G06&#45;&gt;G09</title>
<path fill="none" stroke="#00737f" stroke-width="4" d="M410.209,-480.606C474.718,-482.377 645.935,-482.461 720.483,-480.856"/>
<polygon fill="#00737f" stroke="#00737f" stroke-width="4" points="720.844,-484.348 730.757,-480.607 720.675,-477.35 720.844,-484.348"/>
</g>
<!-- G06&#45;&gt;G09 -->
<g id="edge45" class="edge"><title>G06&#45;&gt;G09</title>
<path fill="none" stroke="#007f73" stroke-width="4" d="M409.63,-483.373C473.799,-488.294 646.305,-488.531 720.87,-484.081"/>
<polygon fill="#007f73" stroke="#007f73" stroke-width="4" points="721.393,-487.554 731.136,-483.391 720.923,-480.57 721.393,-487.554"/>
</g>
<!-- G06&#45;&gt;G07 -->
<g id="edge46" class="edge"><title>G06&#45;&gt;G07</title>
<path fill="none" stroke="black" stroke-width="4" d="M401.964,-460.229C423.087,-436.855 459.295,-396.788 483.19,-370.347"/>
<polygon fill="black" stroke="black" stroke-width="4" points="486.072,-372.378 490.18,-362.612 480.879,-367.684 486.072,-372.378"/>
</g>
<!-- G04&#45;&gt;G0T -->
<g id="edge50" class="edge"><title>G04&#45;&gt;G0T</title>
<path fill="none" stroke="black" stroke-width="4" d="M284.351,-508.954C361.611,-537.007 613.711,-615.844 784,-521 820.654,-500.585 848.884,-460.45 865.433,-432.009"/>
<polygon fill="black" stroke="black" stroke-width="4" points="868.523,-433.655 870.391,-423.226 862.427,-430.214 868.523,-433.655"/>
</g>
<!-- G04&#45;&gt;G09 -->
<g id="edge51" class="edge"><title>G04&#45;&gt;G09</title>
<path fill="none" stroke="#00737f" stroke-width="4" d="M286.096,-499.855C305.664,-500.99 333.534,-503.118 358,-504 491.392,-508.807 525.177,-503.212 658,-490 678.827,-487.928 702.015,-484.66 720.605,-482.125"/>
<polygon fill="#00737f" stroke="#00737f" stroke-width="4" points="721.247,-485.57 730.691,-480.768 720.313,-478.632 721.247,-485.57"/>
</g>
<!-- G04&#45;&gt;G09 -->
<g id="edge52" class="edge"><title>G04&#45;&gt;G09</title>
<path fill="none" stroke="#7f0045" stroke-width="4" d="M285.692,-505.533C305.28,-507.96 333.365,-510.112 358,-511 491.392,-515.807 525.177,-510.212 658,-497 679.356,-494.876 703.196,-491.493 722.015,-488.12"/>
<polygon fill="#7f0045" stroke="#7f0045" stroke-width="4" points="722.727,-491.548 731.906,-486.256 721.43,-484.669 722.727,-491.548"/>
</g>
<!-- G05 -->
<g id="node23" class="node"><title>G05</title>
<ellipse fill="none" stroke="black" stroke-width="2" cx="384" cy="-329" rx="25.9954" ry="25.9954"/>
<text text-anchor="middle" x="384" y="-325.3" font-family="Times,serif" font-size="14.00">G05</text>
</g>
<!-- G04&#45;&gt;G05 -->
<g id="edge53" class="edge"><title>G04&#45;&gt;G05</title>
<path fill="none" stroke="black" stroke-width="4" d="M275.716,-479.373C297.391,-448.992 337.981,-392.1 362.544,-357.673"/>
<polygon fill="black" stroke="black" stroke-width="4" points="365.463,-359.607 368.422,-349.434 359.765,-355.541 365.463,-359.607"/>
</g>
<!-- G03&#45;&gt;G0T -->
<g id="edge62" class="edge"><title>G03&#45;&gt;G0T</title>
<path fill="none" stroke="black" stroke-width="4" d="M282.902,-316.367C324.912,-293.366 420.339,-247 507,-247 507,-247 507,-247 633,-247 728.01,-247 817.253,-328.863 858.331,-372.828"/>
<polygon fill="black" stroke="black" stroke-width="4" points="855.86,-375.311 865.2,-380.311 861.017,-370.577 855.86,-375.311"/>
</g>
<!-- G03&#45;&gt;G08 -->
<g id="edge63" class="edge"><title>G03&#45;&gt;G08</title>
<path fill="none" stroke="#00737f" stroke-width="4" d="M284.482,-319.881C303.862,-312.87 332.26,-303.765 358,-300 401.781,-293.595 529.18,-307.361 534,-309 560.006,-317.845 585.786,-335.384 604.225,-349.868"/>
<polygon fill="#00737f" stroke="#00737f" stroke-width="4" points="602.174,-352.71 612.155,-356.265 606.57,-347.262 602.174,-352.71"/>
</g>
<!-- G03&#45;&gt;G09 -->
<g id="edge64" class="edge"><title>G03&#45;&gt;G09</title>
<path fill="none" stroke="#177f00" stroke-width="4" d="M281.797,-343.406C319.675,-368.845 403.282,-421.358 482,-446 564.775,-471.912 667.497,-477.679 720.563,-478.834"/>
<polygon fill="#177f00" stroke="#177f00" stroke-width="4" points="720.741,-482.338 730.801,-479.012 720.863,-475.339 720.741,-482.338"/>
</g>
<!-- G03&#45;&gt;G05 -->
<g id="edge65" class="edge"><title>G03&#45;&gt;G05</title>
<path fill="none" stroke="black" stroke-width="4" d="M286.278,-329C304.027,-329 328.005,-329 347.646,-329"/>
<polygon fill="black" stroke="black" stroke-width="4" points="347.754,-332.5 357.754,-329 347.754,-325.5 347.754,-332.5"/>
</g>
<!-- G07&#45;&gt;G0T -->
<g id="edge66" class="edge"><title>G07&#45;&gt;G0T</title>
<path fill="none" stroke="black" stroke-width="4" d="M534.16,-342.133C563.876,-340.359 614.739,-338.674 658,-344 726.509,-352.434 804.201,-374.859 847.727,-388.637"/>
<polygon fill="black" stroke="black" stroke-width="4" points="846.923,-392.054 857.514,-391.772 849.058,-385.388 846.923,-392.054"/>
</g>
<!-- G07&#45;&gt;G08 -->
<g id="edge67" class="edge"><title>G07&#45;&gt;G08</title>
<path fill="none" stroke="#2e007f" stroke-width="4" d="M533.689,-348.019C551.915,-351.891 576.941,-357.777 597.05,-362.889"/>
<polygon fill="#2e007f" stroke="#2e007f" stroke-width="4" points="596.207,-366.286 606.765,-365.401 597.959,-359.509 596.207,-366.286"/>
</g>
<!-- G07&#45;&gt;G08 -->
<g id="edge68" class="edge"><title>G07&#45;&gt;G08</title>
<path fill="none" stroke="black" stroke-width="4" d="M532.812,-352.096C550.846,-357.015 575.892,-363.069 596.174,-367.461"/>
<polygon fill="black" stroke="black" stroke-width="4" points="595.482,-370.892 605.989,-369.532 596.927,-364.043 595.482,-370.892"/>
</g>
<!-- G07&#45;&gt;G09 -->
<g id="edge69" class="edge"><title>G07&#45;&gt;G09</title>
<path fill="none" stroke="#007f00" stroke-width="4" d="M530.391,-357C549.924,-368.768 579.68,-386.437 606,-401 646.324,-423.312 693.608,-447.596 724.147,-463.039"/>
<polygon fill="#007f00" stroke="#007f00" stroke-width="4" points="722.939,-466.35 733.444,-467.729 726.092,-460.1 722.939,-466.35"/>
</g>
<!-- G2T -->
<g id="node24" class="node"><title>G2T</title>
<ellipse fill="none" stroke="black" stroke-width="2" cx="883" cy="-52" rx="26.7961" ry="26.7961"/>
<text text-anchor="middle" x="883" y="-48.3" font-family="Times,serif" font-size="14.00">G2T</text>
</g>
<!-- G21&#45;&gt;G2T -->
<g id="edge74" class="edge"><title>G21&#45;&gt;G2T</title>
<path fill="none" stroke="black" stroke-width="4" d="M286.135,-24.6429C330.642,-22.3605 426.239,-18 507,-18 507,-18 507,-18 633,-18 709.824,-18 798.766,-34.0849 846.811,-44.128"/>
<polygon fill="black" stroke="black" stroke-width="4" points="846.196,-47.5754 856.706,-46.2324 847.652,-40.7286 846.196,-47.5754"/>
</g>
<!-- G05&#45;&gt;G0T -->
<g id="edge71" class="edge"><title>G05&#45;&gt;G0T</title>
<path fill="none" stroke="black" stroke-width="4" d="M409.504,-322.507C428.988,-317.695 457.026,-311.548 482,-309 504.992,-306.654 510.993,-306.811 534,-309 646.632,-319.715 675.966,-323.393 784,-357 806.614,-364.035 831.004,-374.724 849.795,-383.685"/>
<polygon fill="black" stroke="black" stroke-width="4" points="848.279,-386.84 858.804,-388.053 851.333,-380.541 848.279,-386.84"/>
</g>
<!-- G05&#45;&gt;G08 -->
<g id="edge72" class="edge"><title>G05&#45;&gt;G08</title>
<path fill="none" stroke="#007f00" stroke-width="4" d="M408.946,-321.554C438.775,-313.453 491.049,-303.138 534,-315 559.471,-322.034 584.987,-337.719 603.452,-351.005"/>
<polygon fill="#007f00" stroke="#007f00" stroke-width="4" points="601.548,-353.951 611.666,-357.094 605.717,-348.327 601.548,-353.951"/>
</g>
<!-- G05&#45;&gt;G07 -->
<g id="edge73" class="edge"><title>G05&#45;&gt;G07</title>
<path fill="none" stroke="black" stroke-width="4" d="M409.983,-332.072C427.829,-334.266 452.082,-337.248 471.874,-339.681"/>
<polygon fill="black" stroke="black" stroke-width="4" points="471.698,-343.186 482.05,-340.932 472.552,-336.238 471.698,-343.186"/>
</g>
<!-- G2T&#45;&gt;T -->
<g id="edge70" class="edge"><title>G2T&#45;&gt;T</title>
<path fill="none" stroke="black" stroke-width="4" d="M904.56,-67.9114C925.001,-83.7315 956.245,-107.911 977.133,-124.077"/>
<polygon fill="black" stroke="black" stroke-width="4" points="975.071,-126.907 985.121,-130.259 979.355,-121.371 975.071,-126.907"/>
</g>
</g>
</svg>
