<?xml version="1.0" encoding="UTF-8" standalone="no"?>
<!DOCTYPE svg PUBLIC "-//W3C//DTD SVG 1.1//EN"
 "http://www.w3.org/Graphics/SVG/1.1/DTD/svg11.dtd">
<!-- Generated by graphviz version 2.36.0 (20140111.2315)
 -->
<!-- Title: %3 Pages: 1 -->
<svg width="566pt" height="528pt"
 viewBox="0.00 0.00 566.00 528.06" xmlns="http://www.w3.org/2000/svg" xmlns:xlink="http://www.w3.org/1999/xlink">
<g id="graph0" class="graph" transform="scale(1 1) rotate(0) translate(4 524.055)">
<title>%3</title>
<polygon fill="white" stroke="none" points="-4,4 -4,-524.055 562,-524.055 562,4 -4,4"/>
<!-- 0 -->
<g id="node1" class="node"><title>0</title>
<ellipse fill="none" stroke="black" stroke-width="2" cx="27" cy="-260.302" rx="27" ry="18"/>
<text text-anchor="middle" x="27" y="-256.602" font-family="Times,serif" font-size="14.00">0</text>
</g>
<!-- 1 -->
<g id="node2" class="node"><title>1</title>
<ellipse fill="none" stroke="black" stroke-width="2" cx="153" cy="-455.302" rx="27" ry="18"/>
<text text-anchor="middle" x="153" y="-451.602" font-family="Times,serif" font-size="14.00">1</text>
</g>
<!-- 0&#45;&gt;1 -->
<g id="edge1" class="edge"><title>0&#45;&gt;1</title>
<path fill="none" stroke="#cc7f00" stroke-width="2" d="M38.5722,-276.927C60.352,-311.178 110.331,-389.774 136.057,-430.23"/>
<polygon fill="#cc7f00" stroke="#cc7f00" stroke-width="2" points="133.135,-432.158 141.455,-438.718 139.042,-428.402 133.135,-432.158"/>
</g>
<!-- 2 -->
<g id="node3" class="node"><title>2</title>
<ellipse fill="none" stroke="black" stroke-width="2" cx="153" cy="-318.302" rx="27" ry="18"/>
<text text-anchor="middle" x="153" y="-314.602" font-family="Times,serif" font-size="14.00">2</text>
</g>
<!-- 0&#45;&gt;2 -->
<g id="edge2" class="edge"><title>0&#45;&gt;2</title>
<path fill="none" stroke="#cb007f" stroke-width="2" d="M49.5992,-270.405C69.3038,-279.621 98.6517,-293.349 120.884,-303.748"/>
<polygon fill="#cb007f" stroke="#cb007f" stroke-width="2" points="119.691,-307.054 130.232,-308.12 122.657,-300.713 119.691,-307.054"/>
</g>
<!-- 3 -->
<g id="node4" class="node"><title>3</title>
<ellipse fill="none" stroke="black" stroke-width="2" cx="153" cy="-260.302" rx="27" ry="18"/>
<text text-anchor="middle" x="153" y="-256.602" font-family="Times,serif" font-size="14.00">3</text>
</g>
<!-- 0&#45;&gt;3 -->
<g id="edge3" class="edge"><title>0&#45;&gt;3</title>
<path fill="none" stroke="#7f9900" stroke-width="2" d="M54.2972,-260.302C72.1346,-260.302 95.9529,-260.302 115.607,-260.302"/>
<polygon fill="#7f9900" stroke="#7f9900" stroke-width="2" points="115.741,-263.802 125.741,-260.302 115.741,-256.802 115.741,-263.802"/>
</g>
<!-- 4 -->
<g id="node5" class="node"><title>4</title>
<ellipse fill="none" stroke="black" stroke-width="2" cx="153" cy="-368.302" rx="27" ry="18"/>
<text text-anchor="middle" x="153" y="-364.602" font-family="Times,serif" font-size="14.00">4</text>
</g>
<!-- 0&#45;&gt;4 -->
<g id="edge4" class="edge"><title>0&#45;&gt;4</title>
<path fill="none" stroke="#00ff7f" stroke-width="2" d="M44.2108,-274.421C65.5618,-293.017 103.281,-325.87 127.959,-347.363"/>
<polygon fill="#00ff7f" stroke="#00ff7f" stroke-width="2" points="125.946,-350.251 135.785,-354.179 130.543,-344.972 125.946,-350.251"/>
</g>
<!-- 5 -->
<g id="node6" class="node"><title>5</title>
<ellipse fill="none" stroke="black" stroke-width="2" cx="153" cy="-206.302" rx="27" ry="18"/>
<text text-anchor="middle" x="153" y="-202.602" font-family="Times,serif" font-size="14.00">5</text>
</g>
<!-- 0&#45;&gt;5 -->
<g id="edge5" class="edge"><title>0&#45;&gt;5</title>
<path fill="none" stroke="#327f00" stroke-width="2" d="M50.1687,-250.648C69.8296,-242.086 98.7577,-229.488 120.762,-219.906"/>
<polygon fill="#327f00" stroke="#327f00" stroke-width="2" points="122.252,-223.074 130.023,-215.872 119.457,-216.656 122.252,-223.074"/>
</g>
<!-- 6 -->
<g id="node7" class="node"><title>6</title>
<ellipse fill="none" stroke="black" stroke-width="2" cx="153" cy="-151.302" rx="27" ry="18"/>
<text text-anchor="middle" x="153" y="-147.602" font-family="Times,serif" font-size="14.00">6</text>
</g>
<!-- 0&#45;&gt;6 -->
<g id="edge6" class="edge"><title>0&#45;&gt;6</title>
<path fill="none" stroke="#7f0000" stroke-width="2" d="M43.2048,-245.398C64.0961,-226.202 101.934,-192.838 127.018,-171.415"/>
<polygon fill="#7f0000" stroke="#7f0000" stroke-width="2" points="129.32,-174.052 134.677,-164.912 124.789,-168.717 129.32,-174.052"/>
</g>
<!-- 0&#45;&gt;6 -->
<g id="edge7" class="edge"><title>0&#45;&gt;6</title>
<path fill="none" stroke="#00657f" stroke-width="2" d="M45.5032,-247.082C67.5754,-228.72 105.55,-195.406 129.685,-173.286"/>
<polygon fill="#00657f" stroke="#00657f" stroke-width="2" points="132.328,-175.609 137.296,-166.251 127.577,-170.468 132.328,-175.609"/>
</g>
<!-- 10 -->
<g id="node8" class="node"><title>10</title>
<ellipse fill="none" stroke="black" stroke-width="2" cx="153" cy="-86.3019" rx="27" ry="18"/>
<text text-anchor="middle" x="153" y="-82.6019" font-family="Times,serif" font-size="14.00">10</text>
</g>
<!-- 0&#45;&gt;10 -->
<g id="edge8" class="edge"><title>0&#45;&gt;10</title>
<path fill="none" stroke="#007f65" stroke-width="2" d="M39.4434,-244.244C61.2204,-213.686 108.745,-146.998 134.527,-110.82"/>
<polygon fill="#007f65" stroke="#007f65" stroke-width="2" points="137.631,-112.496 140.584,-102.321 131.93,-108.433 137.631,-112.496"/>
</g>
<!-- 14 -->
<g id="node9" class="node"><title>14</title>
<ellipse fill="none" stroke="black" stroke-width="2" cx="405" cy="-368.302" rx="27" ry="18"/>
<text text-anchor="middle" x="405" y="-364.602" font-family="Times,serif" font-size="14.00">14</text>
</g>
<!-- 0&#45;&gt;14 -->
<g id="edge9" class="edge"><title>0&#45;&gt;14</title>
<path fill="none" stroke="black" stroke-width="2" stroke-dasharray="5,2" d="M32.0749,-288.57C40.4837,-335.824 64.424,-430.296 126,-477.302 189.981,-526.143 233.895,-533.077 306,-497.302 353.366,-473.801 384.016,-415.247 396.956,-385.798"/>
<polygon fill="black" stroke="black" stroke-width="2" points="35.4813,-287.718 30.3822,-278.431 28.5769,-288.871 35.4813,-287.718"/>
</g>
<!-- 17 -->
<g id="node10" class="node"><title>17</title>
<ellipse fill="none" stroke="black" stroke-width="2" cx="531" cy="-275.302" rx="27" ry="18"/>
<text text-anchor="middle" x="531" y="-271.602" font-family="Times,serif" font-size="14.00">17</text>
</g>
<!-- 0&#45;&gt;17 -->
<g id="edge10" class="edge"><title>0&#45;&gt;17</title>
<path fill="none" stroke="black" stroke-width="2" stroke-dasharray="5,2" d="M30.4826,-288.353C36.6384,-339.448 57.4802,-447.126 126,-498.302 171.105,-531.99 195.777,-508.409 252,-511.302 275.968,-512.535 282.786,-517.392 306,-511.302 368.175,-494.99 386.033,-485.233 432,-440.302 477.746,-395.587 509.998,-325.132 523.265,-292.699"/>
<polygon fill="black" stroke="black" stroke-width="2" points="33.9546,-287.905 29.38,-278.349 26.9967,-288.672 33.9546,-287.905"/>
</g>
<!-- 16 -->
<g id="node11" class="node"><title>16</title>
<ellipse fill="none" stroke="black" stroke-width="2" cx="279" cy="-318.302" rx="27" ry="18"/>
<text text-anchor="middle" x="279" y="-314.602" font-family="Times,serif" font-size="14.00">16</text>
</g>
<!-- 0&#45;&gt;16 -->
<g id="edge11" class="edge"><title>0&#45;&gt;16</title>
<path fill="none" stroke="black" stroke-width="2" stroke-dasharray="5,2" d="M62.8264,-268.382C114.049,-280.265 208.459,-302.168 253.216,-312.552"/>
<polygon fill="black" stroke="black" stroke-width="2" points="63.4172,-264.926 52.8849,-266.075 61.8352,-271.745 63.4172,-264.926"/>
</g>
<!-- 13 -->
<g id="node12" class="node"><title>13</title>
<ellipse fill="none" stroke="black" stroke-width="2" cx="279" cy="-36.3019" rx="27" ry="18"/>
<text text-anchor="middle" x="279" y="-32.6019" font-family="Times,serif" font-size="14.00">13</text>
</g>
<!-- 0&#45;&gt;13 -->
<g id="edge12" class="edge"><title>0&#45;&gt;13</title>
<path fill="none" stroke="black" stroke-width="2" stroke-dasharray="5,2" d="M33.6442,-232.382C43.9448,-189.075 70.0957,-106.331 126,-64.3019 163.104,-36.4064 219.475,-33.4264 252.128,-34.4263"/>
<polygon fill="black" stroke="black" stroke-width="2" points="30.2058,-231.719 31.4117,-242.245 37.0331,-233.264 30.2058,-231.719"/>
</g>
<!-- 15 -->
<g id="node13" class="node"><title>15</title>
<ellipse fill="none" stroke="black" stroke-width="2" cx="405" cy="-21.3019" rx="27" ry="18"/>
<text text-anchor="middle" x="405" y="-17.6019" font-family="Times,serif" font-size="14.00">15</text>
</g>
<!-- 0&#45;&gt;15 -->
<g id="edge13" class="edge"><title>0&#45;&gt;15</title>
<path fill="none" stroke="black" stroke-width="2" stroke-dasharray="5,2" d="M32.0858,-232.262C40.5484,-184.87 64.6153,-89.3149 126,-40.3019 201.041,19.6152 326.852,-1.96263 379.583,-14.6786"/>
<polygon fill="black" stroke="black" stroke-width="2" points="28.5853,-231.973 30.382,-242.415 35.4888,-233.132 28.5853,-231.973"/>
</g>
<!-- 1&#45;&gt;14 -->
<g id="edge19" class="edge"><title>1&#45;&gt;14</title>
<path fill="none" stroke="black" stroke-width="2" stroke-dasharray="5,2" d="M173.624,-467.493C203.493,-484.365 261.579,-510.488 306,-489.302 346.774,-469.856 376.075,-424.238 391.507,-394.903"/>
<polygon fill="black" stroke="black" stroke-width="2" points="394.803,-396.142 396.205,-385.64 388.56,-392.975 394.803,-396.142"/>
</g>
<!-- 1&#45;&gt;17 -->
<g id="edge20" class="edge"><title>1&#45;&gt;17</title>
<path fill="none" stroke="black" stroke-width="2" stroke-dasharray="5,2" d="M172.835,-467.518C201.673,-484.646 258.43,-512.129 306,-497.302 408.355,-465.398 485.182,-352.417 515.65,-301.055"/>
<polygon fill="black" stroke="black" stroke-width="2" points="518.79,-302.618 520.795,-292.215 512.74,-299.097 518.79,-302.618"/>
</g>
<!-- 8 -->
<g id="node14" class="node"><title>8</title>
<ellipse fill="none" stroke="black" stroke-width="2" cx="279" cy="-397.302" rx="27" ry="18"/>
<text text-anchor="middle" x="279" y="-393.602" font-family="Times,serif" font-size="14.00">8</text>
</g>
<!-- 1&#45;&gt;8 -->
<g id="edge14" class="edge"><title>1&#45;&gt;8</title>
<path fill="none" stroke="#7f0000" stroke-width="2" d="M174.199,-444.141C193.654,-434.437 223.389,-420.434 246.055,-410.248"/>
<polygon fill="#7f0000" stroke="#7f0000" stroke-width="2" points="247.573,-413.403 255.286,-406.139 244.727,-407.008 247.573,-413.403"/>
</g>
<!-- 1&#45;&gt;8 -->
<g id="edge15" class="edge"><title>1&#45;&gt;8</title>
<path fill="none" stroke="#00657f" stroke-width="2" d="M177.033,-446.923C197.288,-438.184 226.875,-424.411 248.789,-413.556"/>
<polygon fill="#00657f" stroke="#00657f" stroke-width="2" points="250.591,-416.568 257.959,-408.954 247.451,-410.311 250.591,-416.568"/>
</g>
<!-- 9 -->
<g id="node15" class="node"><title>9</title>
<ellipse fill="none" stroke="black" stroke-width="2" cx="279" cy="-455.302" rx="27" ry="18"/>
<text text-anchor="middle" x="279" y="-451.602" font-family="Times,serif" font-size="14.00">9</text>
</g>
<!-- 1&#45;&gt;9 -->
<g id="edge16" class="edge"><title>1&#45;&gt;9</title>
<path fill="none" stroke="#327f00" stroke-width="2" d="M179.994,-453.43C197.934,-453.002 222.027,-452.937 241.835,-453.235"/>
<polygon fill="#327f00" stroke="#327f00" stroke-width="2" points="241.974,-456.739 252.04,-453.431 242.109,-449.74 241.974,-456.739"/>
</g>
<!-- 1&#45;&gt;9 -->
<g id="edge17" class="edge"><title>1&#45;&gt;9</title>
<path fill="none" stroke="#33007f" stroke-width="2" d="M179.994,-457.797C197.934,-458.368 222.027,-458.455 241.835,-458.057"/>
<polygon fill="#33007f" stroke="#33007f" stroke-width="2" points="242.133,-461.551 252.04,-457.796 241.953,-454.553 242.133,-461.551"/>
</g>
<!-- 12 -->
<g id="node16" class="node"><title>12</title>
<ellipse fill="none" stroke="black" stroke-width="2" cx="405" cy="-243.302" rx="27" ry="18"/>
<text text-anchor="middle" x="405" y="-239.602" font-family="Times,serif" font-size="14.00">12</text>
</g>
<!-- 1&#45;&gt;12 -->
<g id="edge18" class="edge"><title>1&#45;&gt;12</title>
<path fill="none" stroke="#007f65" stroke-width="2" d="M174.636,-466.276C205.826,-481.197 265.614,-503.128 306,-476.302 342.047,-452.358 380.718,-327.015 396.575,-270.722"/>
<polygon fill="#007f65" stroke="#007f65" stroke-width="2" points="399.956,-271.626 399.265,-261.054 393.212,-269.75 399.956,-271.626"/>
</g>
<!-- 2&#45;&gt;16 -->
<g id="edge23" class="edge"><title>2&#45;&gt;16</title>
<path fill="none" stroke="black" stroke-width="2" stroke-dasharray="5,2" d="M180.297,-318.302C198.135,-318.302 221.953,-318.302 241.607,-318.302"/>
<polygon fill="black" stroke="black" stroke-width="2" points="241.741,-321.802 251.741,-318.302 241.741,-314.802 241.741,-321.802"/>
</g>
<!-- 2&#45;&gt;8 -->
<g id="edge21" class="edge"><title>2&#45;&gt;8</title>
<path fill="none" stroke="#00657f" stroke-width="2" d="M173.103,-330.473C193.705,-343.598 226.702,-364.62 250.183,-379.58"/>
<polygon fill="#00657f" stroke="#00657f" stroke-width="2" points="248.356,-382.566 258.671,-384.987 252.118,-376.662 248.356,-382.566"/>
</g>
<!-- 7 -->
<g id="node17" class="node"><title>7</title>
<ellipse fill="none" stroke="black" stroke-width="2" cx="279" cy="-275.302" rx="27" ry="18"/>
<text text-anchor="middle" x="279" y="-271.602" font-family="Times,serif" font-size="14.00">7</text>
</g>
<!-- 2&#45;&gt;7 -->
<g id="edge22" class="edge"><title>2&#45;&gt;7</title>
<path fill="none" stroke="#33007f" stroke-width="2" d="M177.323,-310.214C196.462,-303.577 223.786,-294.102 245.141,-286.697"/>
<polygon fill="#33007f" stroke="#33007f" stroke-width="2" points="246.48,-289.937 254.781,-283.354 244.186,-283.323 246.48,-289.937"/>
</g>
<!-- 3&#45;&gt;16 -->
<g id="edge28" class="edge"><title>3&#45;&gt;16</title>
<path fill="none" stroke="black" stroke-width="2" stroke-dasharray="5,2" d="M175.599,-270.405C195.304,-279.621 224.652,-293.349 246.884,-303.748"/>
<polygon fill="black" stroke="black" stroke-width="2" points="245.691,-307.054 256.232,-308.12 248.657,-300.713 245.691,-307.054"/>
</g>
<!-- 3&#45;&gt;8 -->
<g id="edge24" class="edge"><title>3&#45;&gt;8</title>
<path fill="none" stroke="#cb007f" stroke-width="2" d="M167.744,-275.487C189.438,-299.455 231.76,-346.214 257.193,-374.313"/>
<polygon fill="#cb007f" stroke="#cb007f" stroke-width="2" points="254.889,-376.984 264.194,-382.049 260.079,-372.286 254.889,-376.984"/>
</g>
<!-- 3&#45;&gt;12 -->
<g id="edge25" class="edge"><title>3&#45;&gt;12</title>
<path fill="none" stroke="#7f0000" stroke-width="2" d="M179.813,-257.111C224.537,-253.058 316.543,-246.733 367.691,-244.129"/>
<polygon fill="#7f0000" stroke="#7f0000" stroke-width="2" points="368.134,-247.612 377.953,-243.632 367.795,-240.62 368.134,-247.612"/>
</g>
<!-- 3&#45;&gt;12 -->
<g id="edge26" class="edge"><title>3&#45;&gt;12</title>
<path fill="none" stroke="#00657f" stroke-width="2" d="M180.282,-260.443C225.342,-258.72 317.391,-252.543 368.248,-247.91"/>
<polygon fill="#00657f" stroke="#00657f" stroke-width="2" points="368.817,-251.371 378.443,-246.946 368.158,-244.403 368.817,-251.371"/>
</g>
<!-- 3&#45;&gt;7 -->
<g id="edge27" class="edge"><title>3&#45;&gt;7</title>
<path fill="none" stroke="#33007f" stroke-width="2" d="M179.693,-263.41C197.815,-265.602 222.328,-268.567 242.342,-270.988"/>
<polygon fill="#33007f" stroke="#33007f" stroke-width="2" points="241.992,-274.472 252.34,-272.198 242.833,-267.522 241.992,-274.472"/>
</g>
<!-- 4&#45;&gt;14 -->
<g id="edge34" class="edge"><title>4&#45;&gt;14</title>
<path fill="none" stroke="black" stroke-width="2" stroke-dasharray="5,2" d="M180.282,-368.302C225.108,-368.302 316.436,-368.302 367.452,-368.302"/>
<polygon fill="black" stroke="black" stroke-width="2" points="367.695,-371.802 377.695,-368.302 367.695,-364.802 367.695,-371.802"/>
</g>
<!-- 4&#45;&gt;17 -->
<g id="edge35" class="edge"><title>4&#45;&gt;17</title>
<path fill="none" stroke="black" stroke-width="2" stroke-dasharray="5,2" d="M172.472,-381.109C191.433,-393.414 222.286,-411.16 252,-418.302 298.66,-429.517 431.077,-401.833 432,-401.302 472.319,-378.113 501.894,-331.172 517.482,-301.59"/>
<polygon fill="black" stroke="black" stroke-width="2" points="520.618,-303.146 522.048,-292.648 514.383,-299.963 520.618,-303.146"/>
</g>
<!-- 4&#45;&gt;8 -->
<g id="edge29" class="edge"><title>4&#45;&gt;8</title>
<path fill="none" stroke="#33007f" stroke-width="2" d="M178.795,-374.101C197.296,-378.428 222.812,-384.395 243.332,-389.194"/>
<polygon fill="#33007f" stroke="#33007f" stroke-width="2" points="242.713,-392.644 253.248,-391.513 244.308,-385.828 242.713,-392.644"/>
</g>
<!-- 4&#45;&gt;9 -->
<g id="edge30" class="edge"><title>4&#45;&gt;9</title>
<path fill="none" stroke="#7f9900" stroke-width="2" d="M173.375,-380.208C194.729,-394.502 229.158,-418.602 252.645,-435.656"/>
<polygon fill="#7f9900" stroke="#7f9900" stroke-width="2" points="250.62,-438.512 260.758,-441.59 254.753,-432.862 250.62,-438.512"/>
</g>
<!-- 4&#45;&gt;9 -->
<g id="edge31" class="edge"><title>4&#45;&gt;9</title>
<path fill="none" stroke="#cb007f" stroke-width="2" d="M170.723,-382.163C190.977,-397.366 225.404,-421.666 249.79,-438.072"/>
<polygon fill="#cb007f" stroke="#cb007f" stroke-width="2" points="248.013,-441.093 258.275,-443.727 251.895,-435.269 248.013,-441.093"/>
</g>
<!-- 4&#45;&gt;12 -->
<g id="edge32" class="edge"><title>4&#45;&gt;12</title>
<path fill="none" stroke="#7f0000" stroke-width="2" d="M179.956,-365.747C211.463,-363.343 265.41,-357.527 306,-336.302 338.234,-319.446 366.887,-288.534 384.759,-266.974"/>
<polygon fill="#7f0000" stroke="#7f0000" stroke-width="2" points="387.7,-268.905 391.29,-258.937 382.267,-264.491 387.7,-268.905"/>
</g>
<!-- 4&#45;&gt;12 -->
<g id="edge33" class="edge"><title>4&#45;&gt;12</title>
<path fill="none" stroke="#007f65" stroke-width="2" d="M179.956,-370.679C211.463,-370.343 265.41,-364.527 306,-343.302 340.248,-325.393 370.454,-291.617 387.981,-268.265"/>
<polygon fill="#007f65" stroke="#007f65" stroke-width="2" points="391.024,-270.031 394.06,-259.88 385.357,-265.922 391.024,-270.031"/>
</g>
<!-- 4&#45;&gt;7 -->
<g id="edge36" class="edge"><title>4&#45;&gt;7</title>
<path fill="none" stroke="black" stroke-width="2" stroke-dasharray="5,2" d="M171.503,-355.175C192.524,-339.409 227.968,-312.826 252.145,-294.693"/>
<polygon fill="black" stroke="black" stroke-width="2" points="254.284,-297.464 260.184,-288.664 250.084,-291.864 254.284,-297.464"/>
</g>
<!-- 5&#45;&gt;14 -->
<g id="edge38" class="edge"><title>5&#45;&gt;14</title>
<path fill="none" stroke="black" stroke-width="2" stroke-dasharray="5,2" d="M179.524,-209.946C211.313,-215.429 266.272,-228.086 306,-254.302 341.465,-277.705 371.457,-317.448 388.593,-343.282"/>
<polygon fill="black" stroke="black" stroke-width="2" points="385.731,-345.302 394.107,-351.791 391.606,-341.495 385.731,-345.302"/>
</g>
<!-- 5&#45;&gt;17 -->
<g id="edge39" class="edge"><title>5&#45;&gt;17</title>
<path fill="none" stroke="black" stroke-width="2" stroke-dasharray="5,2" d="M179.947,-203.99C229.903,-200.361 342.422,-196.2 432,-222.302 457.811,-229.823 484.482,-244.8 503.471,-256.92"/>
<polygon fill="black" stroke="black" stroke-width="2" points="501.597,-259.876 511.881,-262.422 505.429,-254.018 501.597,-259.876"/>
</g>
<!-- 5&#45;&gt;12 -->
<g id="edge37" class="edge"><title>5&#45;&gt;12</title>
<path fill="none" stroke="#7f0000" stroke-width="2" d="M179.957,-207.595C210.328,-209.36 262.056,-213.157 306,-220.302 327.395,-223.781 351.063,-229.287 369.779,-234.041"/>
<polygon fill="#7f0000" stroke="#7f0000" stroke-width="2" points="369.063,-237.471 379.621,-236.586 370.816,-230.694 369.063,-237.471"/>
</g>
<!-- 5&#45;&gt;7 -->
<g id="edge40" class="edge"><title>5&#45;&gt;7</title>
<path fill="none" stroke="black" stroke-width="2" stroke-dasharray="5,2" d="M175.599,-216.565C196.334,-227.501 227.748,-244.929 250.311,-257.984"/>
<polygon fill="black" stroke="black" stroke-width="2" points="248.682,-261.085 259.083,-263.103 252.21,-255.04 248.682,-261.085"/>
</g>
<!-- 5&#45;&gt;7 -->
<g id="edge41" class="edge"><title>5&#45;&gt;7</title>
<path fill="none" stroke="#cb007f" stroke-width="2" d="M172.564,-218.846C192.247,-230.679 223.667,-248.303 247.094,-260.74"/>
<polygon fill="#cb007f" stroke="#cb007f" stroke-width="2" points="245.474,-263.843 255.955,-265.393 248.729,-257.645 245.474,-263.843"/>
</g>
<!-- 11 -->
<g id="node18" class="node"><title>11</title>
<ellipse fill="none" stroke="black" stroke-width="2" cx="279" cy="-151.302" rx="27" ry="18"/>
<text text-anchor="middle" x="279" y="-147.602" font-family="Times,serif" font-size="14.00">11</text>
</g>
<!-- 5&#45;&gt;11 -->
<g id="edge42" class="edge"><title>5&#45;&gt;11</title>
<path fill="none" stroke="#7f9900" stroke-width="2" d="M174.755,-195.366C194.093,-186.203 223.23,-173.189 245.624,-163.658"/>
<polygon fill="#7f9900" stroke="#7f9900" stroke-width="2" points="247.213,-166.787 255.07,-159.679 244.496,-160.336 247.213,-166.787"/>
</g>
<!-- 5&#45;&gt;11 -->
<g id="edge43" class="edge"><title>5&#45;&gt;11</title>
<path fill="none" stroke="#33007f" stroke-width="2" d="M177.323,-198.362C197.491,-190.14 226.748,-177.227 248.531,-166.971"/>
<polygon fill="#33007f" stroke="#33007f" stroke-width="2" points="250.139,-170.082 257.656,-162.616 247.124,-163.764 250.139,-170.082"/>
</g>
<!-- 6&#45;&gt;14 -->
<g id="edge45" class="edge"><title>6&#45;&gt;14</title>
<path fill="none" stroke="black" stroke-width="2" stroke-dasharray="5,2" d="M177.46,-159.07C209.25,-170.452 266.558,-194.091 306,-228.302 343.819,-261.104 374.359,-311.488 390.785,-342.026"/>
<polygon fill="black" stroke="black" stroke-width="2" points="387.858,-343.978 395.614,-351.195 394.051,-340.716 387.858,-343.978"/>
</g>
<!-- 6&#45;&gt;17 -->
<g id="edge46" class="edge"><title>6&#45;&gt;17</title>
<path fill="none" stroke="black" stroke-width="2" stroke-dasharray="5,2" d="M176.525,-142.308C196.107,-135.001 225.428,-125.278 252,-121.302 332.686,-109.229 363.669,-112.727 432,-157.302 468.511,-181.119 498.4,-222.726 515.207,-249.633"/>
<polygon fill="black" stroke="black" stroke-width="2" points="512.405,-251.763 520.595,-258.484 518.384,-248.122 512.405,-251.763"/>
</g>
<!-- 6&#45;&gt;13 -->
<g id="edge48" class="edge"><title>6&#45;&gt;13</title>
<path fill="none" stroke="black" stroke-width="2" stroke-dasharray="5,2" d="M169.454,-136.97C190.895,-117.085 229.838,-80.9678 254.784,-57.833"/>
<polygon fill="black" stroke="black" stroke-width="2" points="257.399,-60.1811 262.351,-50.8148 252.639,-55.0486 257.399,-60.1811"/>
</g>
<!-- 6&#45;&gt;12 -->
<g id="edge44" class="edge"><title>6&#45;&gt;12</title>
<path fill="none" stroke="#00657f" stroke-width="2" d="M175.463,-141.265C205.909,-128.557 262.741,-110.558 306,-130.302 344.883,-148.049 374.278,-189.687 390.312,-217.159"/>
<polygon fill="#00657f" stroke="#00657f" stroke-width="2" points="387.461,-219.229 395.42,-226.222 393.559,-215.792 387.461,-219.229"/>
</g>
<!-- 6&#45;&gt;11 -->
<g id="edge47" class="edge"><title>6&#45;&gt;11</title>
<path fill="none" stroke="#33007f" stroke-width="2" d="M180.297,-151.302C198.135,-151.302 221.953,-151.302 241.607,-151.302"/>
<polygon fill="#33007f" stroke="#33007f" stroke-width="2" points="241.741,-154.802 251.741,-151.302 241.741,-147.802 241.741,-154.802"/>
</g>
<!-- 10&#45;&gt;17 -->
<g id="edge52" class="edge"><title>10&#45;&gt;17</title>
<path fill="none" stroke="black" stroke-width="2" stroke-dasharray="5,2" d="M179.67,-83.0755C232.106,-77.8752 353.205,-73.1296 432,-127.302 475.956,-157.522 505.274,-214.538 519.653,-248.297"/>
<polygon fill="black" stroke="black" stroke-width="2" points="516.592,-250.058 523.635,-257.972 523.065,-247.393 516.592,-250.058"/>
</g>
<!-- 10&#45;&gt;13 -->
<g id="edge54" class="edge"><title>10&#45;&gt;13</title>
<path fill="none" stroke="black" stroke-width="2" stroke-dasharray="5,2" d="M176.455,-77.2473C195.823,-69.4379 224.025,-58.0659 245.797,-49.287"/>
<polygon fill="black" stroke="black" stroke-width="2" points="247.327,-52.4439 255.293,-45.4581 244.709,-45.9518 247.327,-52.4439"/>
</g>
<!-- 10&#45;&gt;12 -->
<g id="edge49" class="edge"><title>10&#45;&gt;12</title>
<path fill="none" stroke="#7f9900" stroke-width="2" d="M179.334,-82.2635C211.171,-82.219 266.428,-89.4816 306,-114.302 346.082,-139.442 376.983,-186.837 392.644,-216.777"/>
<polygon fill="#7f9900" stroke="#7f9900" stroke-width="2" points="389.575,-218.464 397.186,-225.834 395.832,-215.326 389.575,-218.464"/>
</g>
<!-- 10&#45;&gt;12 -->
<g id="edge50" class="edge"><title>10&#45;&gt;12</title>
<path fill="none" stroke="#327f00" stroke-width="2" d="M180.17,-87.1777C212.13,-89.3466 266.772,-96.6975 306,-121.302 344.047,-145.166 373.822,-189.083 390.142,-217.203"/>
<polygon fill="#327f00" stroke="#327f00" stroke-width="2" points="387.191,-219.094 395.154,-226.082 393.287,-215.653 387.191,-219.094"/>
</g>
<!-- 10&#45;&gt;12 -->
<g id="edge51" class="edge"><title>10&#45;&gt;12</title>
<path fill="none" stroke="#00657f" stroke-width="2" d="M178.783,-91.9068C210.529,-96.1354 266.198,-103.338 306,-128.302 342.029,-150.9 370.64,-191.48 387.432,-217.999"/>
<polygon fill="#00657f" stroke="#00657f" stroke-width="2" points="384.617,-220.1 392.872,-226.741 390.56,-216.401 384.617,-220.1"/>
</g>
<!-- 10&#45;&gt;11 -->
<g id="edge53" class="edge"><title>10&#45;&gt;11</title>
<path fill="none" stroke="#cb007f" stroke-width="2" d="M174.755,-97.1814C194.873,-107.727 225.594,-123.831 248.298,-135.732"/>
<polygon fill="#cb007f" stroke="#cb007f" stroke-width="2" points="246.696,-138.844 257.177,-140.387 249.946,-132.644 246.696,-138.844"/>
</g>
<!-- 16&#45;&gt;14 -->
<g id="edge62" class="edge"><title>16&#45;&gt;14</title>
<path fill="none" stroke="black" stroke-width="2" stroke-dasharray="5,2" d="M302.455,-327.357C321.823,-335.166 350.025,-346.538 371.797,-355.317"/>
<polygon fill="black" stroke="black" stroke-width="2" points="370.709,-358.652 381.293,-359.146 373.327,-352.16 370.709,-358.652"/>
</g>
<!-- 16&#45;&gt;17 -->
<g id="edge63" class="edge"><title>16&#45;&gt;17</title>
<path fill="none" stroke="black" stroke-width="2" stroke-dasharray="5,2" d="M305.347,-313.942C350.175,-306.232 443.525,-290.176 494.65,-281.382"/>
<polygon fill="black" stroke="black" stroke-width="2" points="495.324,-284.818 504.586,-279.673 494.137,-277.919 495.324,-284.818"/>
</g>
<!-- 13&#45;&gt;15 -->
<g id="edge66" class="edge"><title>13&#45;&gt;15</title>
<path fill="none" stroke="black" stroke-width="2" stroke-dasharray="5,2" d="M305.693,-33.1939C323.815,-31.0017 348.328,-28.0364 368.342,-25.6154"/>
<polygon fill="black" stroke="black" stroke-width="2" points="368.833,-29.0816 378.34,-24.4059 367.992,-22.1323 368.833,-29.0816"/>
</g>
<!-- 8&#45;&gt;14 -->
<g id="edge55" class="edge"><title>8&#45;&gt;14</title>
<path fill="none" stroke="black" stroke-width="2" stroke-dasharray="5,2" d="M304.795,-391.503C323.296,-387.176 348.812,-381.209 369.332,-376.41"/>
<polygon fill="black" stroke="black" stroke-width="2" points="370.308,-379.776 379.248,-374.091 368.713,-372.96 370.308,-379.776"/>
</g>
<!-- 8&#45;&gt;17 -->
<g id="edge56" class="edge"><title>8&#45;&gt;17</title>
<path fill="none" stroke="black" stroke-width="2" stroke-dasharray="5,2" d="M305.18,-401.757C336.613,-406.066 391.206,-409.344 432,-389.302 470.556,-370.36 500.044,-328.65 516.187,-301.28"/>
<polygon fill="black" stroke="black" stroke-width="2" points="519.419,-302.678 521.333,-292.257 513.338,-299.209 519.419,-302.678"/>
</g>
<!-- 9&#45;&gt;14 -->
<g id="edge57" class="edge"><title>9&#45;&gt;14</title>
<path fill="none" stroke="black" stroke-width="2" stroke-dasharray="5,2" d="M298.297,-442.465C319.177,-427.815 353.512,-403.725 377.361,-386.992"/>
<polygon fill="black" stroke="black" stroke-width="2" points="379.452,-389.8 385.628,-381.192 375.432,-384.07 379.452,-389.8"/>
</g>
<!-- 12&#45;&gt;17 -->
<g id="edge58" class="edge"><title>12&#45;&gt;17</title>
<path fill="none" stroke="black" stroke-width="2" stroke-dasharray="5,2" d="M430.498,-249.624C449.18,-254.445 475.139,-261.144 495.857,-266.491"/>
<polygon fill="black" stroke="black" stroke-width="2" points="494.995,-269.883 505.552,-268.993 496.744,-263.105 494.995,-269.883"/>
</g>
<!-- 7&#45;&gt;14 -->
<g id="edge60" class="edge"><title>7&#45;&gt;14</title>
<path fill="none" stroke="black" stroke-width="2" stroke-dasharray="5,2" d="M297.503,-288.429C318.524,-304.195 353.968,-330.778 378.145,-348.91"/>
<polygon fill="black" stroke="black" stroke-width="2" points="376.084,-351.74 386.184,-354.94 380.284,-346.14 376.084,-351.74"/>
</g>
<!-- 7&#45;&gt;17 -->
<g id="edge61" class="edge"><title>7&#45;&gt;17</title>
<path fill="none" stroke="black" stroke-width="2" stroke-dasharray="5,2" d="M306.282,-275.302C351.108,-275.302 442.436,-275.302 493.452,-275.302"/>
<polygon fill="black" stroke="black" stroke-width="2" points="493.695,-278.802 503.695,-275.302 493.695,-271.802 493.695,-278.802"/>
</g>
<!-- 7&#45;&gt;12 -->
<g id="edge59" class="edge"><title>7&#45;&gt;12</title>
<path fill="none" stroke="#00657f" stroke-width="2" d="M304.498,-268.98C323.18,-264.159 349.139,-257.46 369.857,-252.113"/>
<polygon fill="#00657f" stroke="#00657f" stroke-width="2" points="370.744,-255.499 379.552,-249.611 368.995,-248.721 370.744,-255.499"/>
</g>
<!-- 11&#45;&gt;17 -->
<g id="edge65" class="edge"><title>11&#45;&gt;17</title>
<path fill="none" stroke="black" stroke-width="2" stroke-dasharray="5,2" d="M305.991,-150.56C337.533,-150.713 391.514,-154.427 432,-175.302 466.292,-192.983 495.734,-227.181 513.157,-250.617"/>
<polygon fill="black" stroke="black" stroke-width="2" points="510.535,-252.964 519.232,-259.015 516.207,-248.861 510.535,-252.964"/>
</g>
<!-- 11&#45;&gt;12 -->
<g id="edge64" class="edge"><title>11&#45;&gt;12</title>
<path fill="none" stroke="#00657f" stroke-width="2" d="M297.766,-164.483C318.76,-180.06 353.874,-206.111 377.945,-223.971"/>
<polygon fill="#00657f" stroke="#00657f" stroke-width="2" points="376.15,-226.997 386.267,-230.145 380.321,-221.376 376.15,-226.997"/>
</g>
</g>
</svg>
