<?xml version="1.0" encoding="UTF-8" standalone="no"?>
<!DOCTYPE svg PUBLIC "-//W3C//DTD SVG 1.1//EN"
 "http://www.w3.org/Graphics/SVG/1.1/DTD/svg11.dtd">
<!-- Generated by graphviz version 2.36.0 (20140111.2315)
 -->
<!-- Title: %3 Pages: 1 -->
<svg width="496pt" height="576pt"
 viewBox="0.00 0.00 496.00 576.08" xmlns="http://www.w3.org/2000/svg" xmlns:xlink="http://www.w3.org/1999/xlink">
<g id="graph0" class="graph" transform="scale(1 1) rotate(0) translate(4 572.082)">
<title>%3</title>
<polygon fill="white" stroke="none" points="-4,4 -4,-572.082 492,-572.082 492,4 -4,4"/>
<!-- 8 -->
<g id="node1" class="node"><title>8</title>
<ellipse fill="none" stroke="black" stroke-width="2" cx="241" cy="-302.43" rx="18" ry="18"/>
<text text-anchor="middle" x="241" y="-298.73" font-family="Times,serif" font-size="14.00">8</text>
</g>
<!-- T2 -->
<g id="node2" class="node"><title>T2</title>
<ellipse fill="none" stroke="black" stroke-width="2" cx="467" cy="-163.43" rx="20.5982" ry="20.5982"/>
<text text-anchor="middle" x="467" y="-159.73" font-family="Times,serif" font-size="14.00">T2</text>
</g>
<!-- 8&#45;&gt;T2 -->
<g id="edge1" class="edge"><title>8&#45;&gt;T2</title>
<path fill="none" stroke="black" stroke-width="2" stroke-dasharray="5,2" d="M257.344,-294.497C282.267,-281.464 332.899,-254.371 374,-228.43 397.592,-213.539 423.46,-195.06 441.74,-181.615"/>
<polygon fill="black" stroke="black" stroke-width="2" points="444.105,-184.219 450.062,-175.457 439.941,-178.592 444.105,-184.219"/>
</g>
<!-- 13 -->
<g id="node3" class="node"><title>13</title>
<ellipse fill="none" stroke="black" stroke-width="2" cx="354" cy="-391.43" rx="19.4965" ry="19.4965"/>
<text text-anchor="middle" x="354" y="-387.73" font-family="Times,serif" font-size="14.00">13</text>
</g>
<!-- 8&#45;&gt;13 -->
<g id="edge2" class="edge"><title>8&#45;&gt;13</title>
<path fill="none" stroke="#00657f" stroke-width="2" d="M255.611,-313.343C274.193,-328.242 307.755,-355.152 330.209,-373.156"/>
<polygon fill="#00657f" stroke="#00657f" stroke-width="2" points="328.226,-376.052 338.217,-379.577 332.605,-370.59 328.226,-376.052"/>
</g>
<!-- T1 -->
<g id="node4" class="node"><title>T1</title>
<ellipse fill="none" stroke="black" stroke-width="2" cx="467" cy="-301.43" rx="20.5982" ry="20.5982"/>
<text text-anchor="middle" x="467" y="-297.73" font-family="Times,serif" font-size="14.00">T1</text>
</g>
<!-- 8&#45;&gt;T1 -->
<g id="edge3" class="edge"><title>8&#45;&gt;T1</title>
<path fill="none" stroke="black" stroke-width="2" stroke-dasharray="5,2" d="M259.205,-302.353C297.127,-302.183 388.307,-301.776 435.914,-301.564"/>
<polygon fill="black" stroke="black" stroke-width="2" points="436.216,-305.063 446.201,-301.518 436.185,-298.063 436.216,-305.063"/>
</g>
<!-- 13&#45;&gt;T1 -->
<g id="edge10" class="edge"><title>13&#45;&gt;T1</title>
<path fill="none" stroke="black" stroke-width="2" stroke-dasharray="5,2" d="M369.511,-379.664C388.062,-364.623 420.416,-338.389 442.501,-320.483"/>
<polygon fill="black" stroke="black" stroke-width="2" points="444.849,-323.085 450.412,-314.068 440.441,-317.647 444.849,-323.085"/>
</g>
<!-- 11 -->
<g id="node5" class="node"><title>11</title>
<ellipse fill="none" stroke="black" stroke-width="2" cx="128" cy="-457.43" rx="19.4965" ry="19.4965"/>
<text text-anchor="middle" x="128" y="-453.73" font-family="Times,serif" font-size="14.00">11</text>
</g>
<!-- 11&#45;&gt;13 -->
<g id="edge4" class="edge"><title>11&#45;&gt;13</title>
<path fill="none" stroke="#327f00" stroke-width="2" d="M147.124,-453.247C173.182,-450.949 222.447,-449.187 262,-436.43 285.379,-428.889 309.406,-414.84 326.897,-404.271"/>
<polygon fill="#327f00" stroke="#327f00" stroke-width="2" points="329.156,-406.995 335.896,-398.821 325.53,-401.008 329.156,-406.995"/>
</g>
<!-- 11&#45;&gt;13 -->
<g id="edge5" class="edge"><title>11&#45;&gt;13</title>
<path fill="none" stroke="#00657f" stroke-width="2" d="M147.563,-457.856C173.732,-457.929 222.668,-456.116 262,-443.43 286.48,-435.534 311.672,-420.502 329.325,-408.624"/>
<polygon fill="#00657f" stroke="#00657f" stroke-width="2" points="331.586,-411.316 337.826,-402.753 327.608,-405.556 331.586,-411.316"/>
</g>
<!-- 11&#45;&gt;13 -->
<g id="edge6" class="edge"><title>11&#45;&gt;13</title>
<path fill="none" stroke="#7f9900" stroke-width="2" d="M147.124,-462.461C173.182,-464.949 222.447,-463.187 262,-450.43 288.044,-442.029 314.893,-425.553 332.614,-411.969"/>
<polygon fill="#7f9900" stroke="#7f9900" stroke-width="2" points="334.949,-414.582 340.536,-405.581 330.555,-409.133 334.949,-414.582"/>
</g>
<!-- 11&#45;&gt;T1 -->
<g id="edge7" class="edge"><title>11&#45;&gt;T1</title>
<path fill="none" stroke="black" stroke-width="2" stroke-dasharray="5,2" d="M147.314,-460.158C190.99,-465.637 302.914,-473.514 374,-423.43 409.112,-398.691 436.61,-356.444 452.081,-328.731"/>
<polygon fill="black" stroke="black" stroke-width="2" points="455.35,-330.045 457.044,-319.587 449.198,-326.706 455.35,-330.045"/>
</g>
<!-- 12 -->
<g id="node6" class="node"><title>12</title>
<ellipse fill="none" stroke="black" stroke-width="2" cx="241" cy="-421.43" rx="19.4965" ry="19.4965"/>
<text text-anchor="middle" x="241" y="-417.73" font-family="Times,serif" font-size="14.00">12</text>
</g>
<!-- 11&#45;&gt;12 -->
<g id="edge8" class="edge"><title>11&#45;&gt;12</title>
<path fill="none" stroke="#cb007f" stroke-width="2" d="M146.834,-451.645C164.554,-445.898 191.973,-437.006 212.485,-430.353"/>
<polygon fill="#cb007f" stroke="#cb007f" stroke-width="2" points="213.778,-433.614 222.21,-427.199 211.618,-426.955 213.778,-433.614"/>
</g>
<!-- T3 -->
<g id="node7" class="node"><title>T3</title>
<ellipse fill="none" stroke="black" stroke-width="2" cx="241" cy="-510.43" rx="20.5982" ry="20.5982"/>
<text text-anchor="middle" x="241" y="-506.73" font-family="Times,serif" font-size="14.00">T3</text>
</g>
<!-- 11&#45;&gt;T3 -->
<g id="edge9" class="edge"><title>11&#45;&gt;T3</title>
<path fill="none" stroke="black" stroke-width="2" stroke-dasharray="5,2" d="M145.859,-465.479C163.635,-473.967 191.911,-487.468 212.84,-497.461"/>
<polygon fill="black" stroke="black" stroke-width="2" points="211.342,-500.625 221.874,-501.775 214.358,-494.308 211.342,-500.625"/>
</g>
<!-- 12&#45;&gt;13 -->
<g id="edge52" class="edge"><title>12&#45;&gt;13</title>
<path fill="none" stroke="#00657f" stroke-width="2" d="M260.329,-416.476C277.948,-411.714 304.816,-404.452 325.093,-398.972"/>
<polygon fill="#00657f" stroke="#00657f" stroke-width="2" points="326.271,-402.279 335.012,-396.291 324.445,-395.522 326.271,-402.279"/>
</g>
<!-- 12&#45;&gt;T1 -->
<g id="edge53" class="edge"><title>12&#45;&gt;T1</title>
<path fill="none" stroke="black" stroke-width="2" stroke-dasharray="5,2" d="M260.261,-424.699C286.885,-428.537 337.19,-432.213 374,-413.43 410.09,-395.014 437.176,-355.457 452.308,-328.638"/>
<polygon fill="black" stroke="black" stroke-width="2" points="455.446,-330.194 457.157,-319.739 449.299,-326.845 455.446,-330.194"/>
</g>
<!-- 5 -->
<g id="node8" class="node"><title>5</title>
<ellipse fill="none" stroke="black" stroke-width="2" cx="128" cy="-207.43" rx="18" ry="18"/>
<text text-anchor="middle" x="128" y="-203.73" font-family="Times,serif" font-size="14.00">5</text>
</g>
<!-- 5&#45;&gt;8 -->
<g id="edge11" class="edge"><title>5&#45;&gt;8</title>
<path fill="none" stroke="black" stroke-width="2" stroke-dasharray="5,2" d="M142.169,-218.7C161.195,-234.984 196.563,-265.254 219.156,-284.59"/>
<polygon fill="black" stroke="black" stroke-width="2" points="216.975,-287.33 226.848,-291.173 221.526,-282.012 216.975,-287.33"/>
</g>
<!-- 5&#45;&gt;T2 -->
<g id="edge12" class="edge"><title>5&#45;&gt;T2</title>
<path fill="none" stroke="black" stroke-width="2" stroke-dasharray="5,2" d="M146.027,-206.599C186.022,-204.483 289.002,-198.06 374,-184.43 395.23,-181.025 418.872,-175.592 436.874,-171.105"/>
<polygon fill="black" stroke="black" stroke-width="2" points="437.929,-174.448 446.76,-168.595 436.206,-167.663 437.929,-174.448"/>
</g>
<!-- 5&#45;&gt;13 -->
<g id="edge13" class="edge"><title>5&#45;&gt;13</title>
<path fill="none" stroke="#7f0000" stroke-width="2" d="M145.796,-212.271C172.319,-222.301 224.715,-246.466 262,-277.43 293.245,-303.377 321.591,-341.277 338.064,-366.167"/>
<polygon fill="#7f0000" stroke="#7f0000" stroke-width="2" points="335.212,-368.203 343.579,-374.702 341.092,-364.404 335.212,-368.203"/>
</g>
<!-- 5&#45;&gt;13 -->
<g id="edge14" class="edge"><title>5&#45;&gt;13</title>
<path fill="none" stroke="#327f00" stroke-width="2" d="M144.103,-215.865C170.034,-228.253 223.905,-252.793 262,-284.43 291.748,-309.134 318.868,-344.673 335.615,-367.944"/>
<polygon fill="#327f00" stroke="#327f00" stroke-width="2" points="332.856,-370.102 341.51,-376.214 338.556,-366.039 332.856,-370.102"/>
</g>
<!-- 5&#45;&gt;T1 -->
<g id="edge15" class="edge"><title>5&#45;&gt;T1</title>
<path fill="none" stroke="black" stroke-width="2" stroke-dasharray="5,2" d="M145.793,-211C185.709,-219.618 289.261,-242.753 374,-268.43 395.786,-275.031 420.004,-283.776 438.122,-290.605"/>
<polygon fill="black" stroke="black" stroke-width="2" points="436.915,-293.891 447.506,-294.176 439.404,-287.348 436.915,-293.891"/>
</g>
<!-- 9 -->
<g id="node9" class="node"><title>9</title>
<ellipse fill="none" stroke="black" stroke-width="2" cx="354" cy="-163.43" rx="18" ry="18"/>
<text text-anchor="middle" x="354" y="-159.73" font-family="Times,serif" font-size="14.00">9</text>
</g>
<!-- 5&#45;&gt;9 -->
<g id="edge16" class="edge"><title>5&#45;&gt;9</title>
<path fill="none" stroke="#33007f" stroke-width="2" d="M145.732,-203.553C163.957,-199.378 193.987,-192.633 220,-187.43 256.601,-180.108 299.072,-172.618 325.984,-167.996"/>
<polygon fill="#33007f" stroke="#33007f" stroke-width="2" points="326.897,-171.391 336.165,-166.257 325.719,-164.491 326.897,-171.391"/>
</g>
<!-- 10 -->
<g id="node10" class="node"><title>10</title>
<ellipse fill="none" stroke="black" stroke-width="2" cx="241" cy="-117.43" rx="19.4965" ry="19.4965"/>
<text text-anchor="middle" x="241" y="-113.73" font-family="Times,serif" font-size="14.00">10</text>
</g>
<!-- 5&#45;&gt;10 -->
<g id="edge17" class="edge"><title>5&#45;&gt;10</title>
<path fill="none" stroke="#7f9900" stroke-width="2" d="M141.733,-195.607C159.911,-180.015 193.62,-152.556 216.428,-134.662"/>
<polygon fill="#7f9900" stroke="#7f9900" stroke-width="2" points="218.839,-137.221 224.581,-128.317 214.539,-131.697 218.839,-137.221"/>
</g>
<!-- 5&#45;&gt;10 -->
<g id="edge18" class="edge"><title>5&#45;&gt;10</title>
<path fill="none" stroke="#cb007f" stroke-width="2" d="M143.511,-197.766C162.687,-183.297 196.613,-155.896 218.699,-137.123"/>
<polygon fill="#cb007f" stroke="#cb007f" stroke-width="2" points="221.224,-139.567 226.528,-130.395 216.662,-134.258 221.224,-139.567"/>
</g>
<!-- 9&#45;&gt;T2 -->
<g id="edge22" class="edge"><title>9&#45;&gt;T2</title>
<path fill="none" stroke="black" stroke-width="2" stroke-dasharray="5,2" d="M372.344,-163.43C389.375,-163.43 415.696,-163.43 436.103,-163.43"/>
<polygon fill="black" stroke="black" stroke-width="2" points="436.155,-166.93 446.155,-163.43 436.155,-159.93 436.155,-166.93"/>
</g>
<!-- 9&#45;&gt;T1 -->
<g id="edge23" class="edge"><title>9&#45;&gt;T1</title>
<path fill="none" stroke="black" stroke-width="2" stroke-dasharray="5,2" d="M366.049,-177.166C384.915,-200.621 423.556,-248.662 446.879,-277.657"/>
<polygon fill="black" stroke="black" stroke-width="2" points="444.309,-280.047 453.304,-285.645 449.764,-275.66 444.309,-280.047"/>
</g>
<!-- 10&#45;&gt;T2 -->
<g id="edge60" class="edge"><title>10&#45;&gt;T2</title>
<path fill="none" stroke="black" stroke-width="2" stroke-dasharray="5,2" d="M260.603,-117.587C286.379,-118.15 334.273,-120.449 374,-129.43 396.282,-134.467 420.476,-143.562 438.459,-151.078"/>
<polygon fill="black" stroke="black" stroke-width="2" points="437.188,-154.341 447.758,-155.056 439.941,-147.905 437.188,-154.341"/>
</g>
<!-- 3 -->
<g id="node11" class="node"><title>3</title>
<ellipse fill="none" stroke="black" stroke-width="2" cx="241" cy="-43.4295" rx="18" ry="18"/>
<text text-anchor="middle" x="241" y="-39.7295" font-family="Times,serif" font-size="14.00">3</text>
</g>
<!-- 3&#45;&gt;T2 -->
<g id="edge19" class="edge"><title>3&#45;&gt;T2</title>
<path fill="none" stroke="black" stroke-width="2" stroke-dasharray="5,2" d="M257.396,-51.6776C295.033,-71.84 392.062,-123.82 439.329,-149.142"/>
<polygon fill="black" stroke="black" stroke-width="2" points="437.887,-152.339 448.354,-153.977 441.192,-146.169 437.887,-152.339"/>
</g>
<!-- 3&#45;&gt;T1 -->
<g id="edge20" class="edge"><title>3&#45;&gt;T1</title>
<path fill="none" stroke="black" stroke-width="2" stroke-dasharray="5,2" d="M257.025,-51.7714C283.285,-66.9161 338.147,-101.124 374,-141.43 410.343,-182.286 439.115,-239.772 454.26,-273.561"/>
<polygon fill="black" stroke="black" stroke-width="2" points="451.11,-275.092 458.341,-282.835 457.517,-272.272 451.11,-275.092"/>
</g>
<!-- 3&#45;&gt;9 -->
<g id="edge21" class="edge"><title>3&#45;&gt;9</title>
<path fill="none" stroke="#00657f" stroke-width="2" d="M253.879,-56.2716C273.157,-77.1127 311.404,-118.461 334.341,-143.257"/>
<polygon fill="#00657f" stroke="#00657f" stroke-width="2" points="331.847,-145.715 341.206,-150.68 336.985,-140.962 331.847,-145.715"/>
</g>
<!-- 6 -->
<g id="node12" class="node"><title>6</title>
<ellipse fill="none" stroke="black" stroke-width="2" cx="128" cy="-353.43" rx="18" ry="18"/>
<text text-anchor="middle" x="128" y="-349.73" font-family="Times,serif" font-size="14.00">6</text>
</g>
<!-- 6&#45;&gt;8 -->
<g id="edge24" class="edge"><title>6&#45;&gt;8</title>
<path fill="none" stroke="black" stroke-width="2" stroke-dasharray="5,2" d="M143.97,-344.955C162.034,-335.914 192.692,-321.717 214.506,-312.215"/>
<polygon fill="black" stroke="black" stroke-width="2" points="216.02,-315.374 223.83,-308.215 213.26,-308.941 216.02,-315.374"/>
</g>
<!-- 6&#45;&gt;8 -->
<g id="edge25" class="edge"><title>6&#45;&gt;8</title>
<path fill="none" stroke="#cb007f" stroke-width="2" d="M145.378,-348.107C163.996,-340.495 194.563,-326.558 215.901,-316.026"/>
<polygon fill="#cb007f" stroke="#cb007f" stroke-width="2" points="217.617,-319.081 224.98,-311.462 214.473,-312.827 217.617,-319.081"/>
</g>
<!-- 6&#45;&gt;T2 -->
<g id="edge26" class="edge"><title>6&#45;&gt;T2</title>
<path fill="none" stroke="black" stroke-width="2" stroke-dasharray="5,2" d="M146.033,-351.713C171.987,-348.636 222.578,-340.802 262,-323.43 338.201,-289.848 410.808,-221.24 445.217,-185.771"/>
<polygon fill="black" stroke="black" stroke-width="2" points="447.963,-187.964 452.354,-178.321 442.908,-183.121 447.963,-187.964"/>
</g>
<!-- 6&#45;&gt;13 -->
<g id="edge27" class="edge"><title>6&#45;&gt;13</title>
<path fill="none" stroke="#7f0000" stroke-width="2" d="M145.162,-359.608C163.144,-366.197 193.201,-376.365 220,-381.43 255.396,-388.118 296.887,-390.371 323.994,-391.108"/>
<polygon fill="#7f0000" stroke="#7f0000" stroke-width="2" points="324.251,-394.615 334.326,-391.335 324.405,-387.616 324.251,-394.615"/>
</g>
<!-- 6&#45;&gt;T1 -->
<g id="edge28" class="edge"><title>6&#45;&gt;T1</title>
<path fill="none" stroke="black" stroke-width="2" stroke-dasharray="5,2" d="M146.291,-354.292C171.736,-355.307 220.719,-356.295 262,-351.43 312.652,-345.459 324.489,-338.675 374,-326.43 395.186,-321.189 418.954,-314.715 437.024,-309.668"/>
<polygon fill="black" stroke="black" stroke-width="2" points="438.002,-313.029 446.683,-306.955 436.109,-306.29 438.002,-313.029"/>
</g>
<!-- 6&#45;&gt;12 -->
<g id="edge29" class="edge"><title>6&#45;&gt;12</title>
<path fill="none" stroke="#33007f" stroke-width="2" d="M144.434,-361.27C162.99,-371.895 194.341,-391.009 216.049,-404.868"/>
<polygon fill="#33007f" stroke="#33007f" stroke-width="2" points="214.396,-407.966 224.697,-410.445 218.19,-402.084 214.396,-407.966"/>
</g>
<!-- 6&#45;&gt;12 -->
<g id="edge30" class="edge"><title>6&#45;&gt;12</title>
<path fill="none" stroke="#7f9900" stroke-width="2" d="M143.058,-364.119C160.924,-376.095 192.101,-395.361 214.273,-408.246"/>
<polygon fill="#7f9900" stroke="#7f9900" stroke-width="2" points="212.742,-411.403 223.158,-413.338 216.222,-405.329 212.742,-411.403"/>
</g>
<!-- S -->
<g id="node13" class="node"><title>S</title>
<ellipse fill="none" stroke="black" stroke-width="2" cx="18" cy="-287.43" rx="18" ry="18"/>
<text text-anchor="middle" x="18" y="-283.73" font-family="Times,serif" font-size="14.00">S</text>
</g>
<!-- S&#45;&gt;T2 -->
<g id="edge31" class="edge"><title>S&#45;&gt;T2</title>
<path fill="none" stroke="black" stroke-width="2" stroke-dasharray="5,2" d="M21.5233,-259.172C27.4989,-208.902 46.9595,-103.581 108,-43.4295 145.544,-6.43287 168.029,-13.2193 220,-4.42951 289.951,7.40107 316.742,-4.54083 374,-46.4295 411.33,-73.7398 441.436,-120.06 456.169,-145.454"/>
<polygon fill="black" stroke="black" stroke-width="2" points="18.0227,-258.988 20.4146,-269.309 24.9812,-259.749 18.0227,-258.988"/>
</g>
<!-- S&#45;&gt;T1 -->
<g id="edge33" class="edge"><title>S&#45;&gt;T1</title>
<path fill="none" stroke="black" stroke-width="2" stroke-dasharray="5,2" d="M46.1809,-285.121C63.7927,-283.743 87.2357,-282.129 108,-281.43 176.406,-279.126 193.637,-278.086 262,-281.43 329.889,-284.749 410.033,-294.249 446.354,-298.858"/>
<polygon fill="black" stroke="black" stroke-width="2" points="45.731,-281.646 36.0447,-285.938 46.2936,-288.623 45.731,-281.646"/>
</g>
<!-- S&#45;&gt;11 -->
<g id="edge32" class="edge"><title>S&#45;&gt;11</title>
<path fill="none" stroke="#007f65" stroke-width="2" d="M28.3954,-302.219C46.9567,-331.435 88.499,-396.826 111.292,-432.704"/>
<polygon fill="#007f65" stroke="#007f65" stroke-width="2" points="108.607,-435.005 116.924,-441.569 114.516,-431.251 108.607,-435.005"/>
</g>
<!-- S&#45;&gt;T3 -->
<g id="edge42" class="edge"><title>S&#45;&gt;T3</title>
<path fill="none" stroke="black" stroke-width="2" stroke-dasharray="5,2" d="M23.8696,-315.008C32.7964,-357.103 55.8791,-436.961 108,-479.43 125.063,-493.333 187.631,-503.465 220.12,-507.917"/>
<polygon fill="black" stroke="black" stroke-width="2" points="27.2938,-314.282 21.8961,-305.165 20.4304,-315.658 27.2938,-314.282"/>
</g>
<!-- S&#45;&gt;5 -->
<g id="edge34" class="edge"><title>S&#45;&gt;5</title>
<path fill="none" stroke="#00ff7f" stroke-width="2" d="M33.1191,-276.971C51.3108,-263.496 83.146,-239.914 104.643,-223.99"/>
<polygon fill="#00ff7f" stroke="#00ff7f" stroke-width="2" points="106.925,-226.655 112.877,-217.891 102.759,-221.031 106.925,-226.655"/>
</g>
<!-- S&#45;&gt;3 -->
<g id="edge35" class="edge"><title>S&#45;&gt;3</title>
<path fill="none" stroke="#33007f" stroke-width="2" d="M20.1778,-269.499C24.0764,-225.974 40.5027,-114.421 108,-61.4295 137.843,-38.0002 183.641,-37.2065 212.692,-39.6593"/>
<polygon fill="#33007f" stroke="#33007f" stroke-width="2" points="212.631,-43.1716 222.938,-40.7179 213.351,-36.2087 212.631,-43.1716"/>
</g>
<!-- S&#45;&gt;6 -->
<g id="edge36" class="edge"><title>S&#45;&gt;6</title>
<path fill="none" stroke="#327f00" stroke-width="2" d="M34.0169,-296.607C51.9908,-307.591 82.3027,-326.115 103.413,-339.015"/>
<polygon fill="#327f00" stroke="#327f00" stroke-width="2" points="101.753,-342.102 112.111,-344.33 105.403,-336.129 101.753,-342.102"/>
</g>
<!-- 7 -->
<g id="node14" class="node"><title>7</title>
<ellipse fill="none" stroke="black" stroke-width="2" cx="128" cy="-516.43" rx="18" ry="18"/>
<text text-anchor="middle" x="128" y="-512.73" font-family="Times,serif" font-size="14.00">7</text>
</g>
<!-- S&#45;&gt;7 -->
<g id="edge37" class="edge"><title>S&#45;&gt;7</title>
<path fill="none" stroke="#00657f" stroke-width="2" d="M25.1299,-304.071C37.8348,-339.552 69.1258,-424.521 108,-489.43 108.882,-490.903 109.845,-492.386 110.853,-493.86"/>
<polygon fill="#00657f" stroke="#00657f" stroke-width="2" points="108.14,-496.08 116.887,-502.058 113.777,-491.93 108.14,-496.08"/>
</g>
<!-- S&#45;&gt;7 -->
<g id="edge38" class="edge"><title>S&#45;&gt;7</title>
<path fill="none" stroke="#7f0000" stroke-width="2" d="M24.0103,-304.55C35.9164,-341.305 67.9296,-429.524 108,-496.43 108.055,-496.521 108.11,-496.612 108.165,-496.703"/>
<polygon fill="#7f0000" stroke="#7f0000" stroke-width="2" points="105.358,-498.798 113.918,-505.041 111.119,-494.822 105.358,-498.798"/>
</g>
<!-- 2 -->
<g id="node15" class="node"><title>2</title>
<ellipse fill="none" stroke="black" stroke-width="2" cx="128" cy="-162.43" rx="18" ry="18"/>
<text text-anchor="middle" x="128" y="-158.73" font-family="Times,serif" font-size="14.00">2</text>
</g>
<!-- S&#45;&gt;2 -->
<g id="edge39" class="edge"><title>S&#45;&gt;2</title>
<path fill="none" stroke="#cb007f" stroke-width="2" d="M30.5579,-274.052C49.3149,-252.343 86.5279,-209.272 108.845,-183.442"/>
<polygon fill="#cb007f" stroke="#cb007f" stroke-width="2" points="111.636,-185.566 115.525,-175.711 106.339,-180.989 111.636,-185.566"/>
</g>
<!-- 4 -->
<g id="node16" class="node"><title>4</title>
<ellipse fill="none" stroke="black" stroke-width="2" cx="128" cy="-302.43" rx="18" ry="18"/>
<text text-anchor="middle" x="128" y="-298.73" font-family="Times,serif" font-size="14.00">4</text>
</g>
<!-- S&#45;&gt;4 -->
<g id="edge40" class="edge"><title>S&#45;&gt;4</title>
<path fill="none" stroke="#7f9900" stroke-width="2" d="M35.875,-289.773C52.973,-292.148 79.6954,-295.859 99.7895,-298.65"/>
<polygon fill="#7f9900" stroke="#7f9900" stroke-width="2" points="99.5006,-302.144 109.887,-300.053 100.464,-295.21 99.5006,-302.144"/>
</g>
<!-- 1 -->
<g id="node17" class="node"><title>1</title>
<ellipse fill="none" stroke="black" stroke-width="2" cx="128" cy="-83.4295" rx="18" ry="18"/>
<text text-anchor="middle" x="128" y="-79.7295" font-family="Times,serif" font-size="14.00">1</text>
</g>
<!-- S&#45;&gt;1 -->
<g id="edge41" class="edge"><title>S&#45;&gt;1</title>
<path fill="none" stroke="#cc7f00" stroke-width="2" d="M27.2953,-271.761C45.985,-236.458 91.5053,-150.475 113.991,-108.001"/>
<polygon fill="#cc7f00" stroke="#cc7f00" stroke-width="2" points="117.091,-109.627 118.676,-99.1517 110.904,-106.352 117.091,-109.627"/>
</g>
<!-- 7&#45;&gt;T2 -->
<g id="edge43" class="edge"><title>7&#45;&gt;T2</title>
<path fill="none" stroke="black" stroke-width="2" stroke-dasharray="5,2" d="M144.041,-525.241C169.424,-538.879 221.913,-561.713 262,-543.43 279.27,-535.553 364.353,-430.777 374,-414.43 417.732,-340.327 446.374,-241.912 458.846,-193.265"/>
<polygon fill="black" stroke="black" stroke-width="2" points="462.285,-193.941 461.33,-183.389 455.496,-192.233 462.285,-193.941"/>
</g>
<!-- 7&#45;&gt;13 -->
<g id="edge44" class="edge"><title>7&#45;&gt;13</title>
<path fill="none" stroke="#00657f" stroke-width="2" d="M144.453,-524.217C170.443,-536.128 223.804,-555.397 262,-534.43 306.417,-510.047 332.252,-453.771 344.408,-419.536"/>
<polygon fill="#00657f" stroke="#00657f" stroke-width="2" points="347.853,-420.272 347.746,-409.678 341.223,-418.027 347.853,-420.272"/>
</g>
<!-- 7&#45;&gt;T1 -->
<g id="edge45" class="edge"><title>7&#45;&gt;T1</title>
<path fill="none" stroke="black" stroke-width="2" stroke-dasharray="5,2" d="M142.503,-527.784C166.864,-546.809 219.577,-581.278 262,-562.43 365.341,-516.515 430.281,-387.161 454.846,-329.627"/>
<polygon fill="black" stroke="black" stroke-width="2" points="458.078,-330.97 458.704,-320.393 451.619,-328.271 458.078,-330.97"/>
</g>
<!-- 7&#45;&gt;12 -->
<g id="edge46" class="edge"><title>7&#45;&gt;12</title>
<path fill="none" stroke="#33007f" stroke-width="2" d="M142.169,-505.159C160.889,-489.138 195.426,-459.578 218.053,-440.213"/>
<polygon fill="#33007f" stroke="#33007f" stroke-width="2" points="220.477,-442.745 225.799,-433.584 215.926,-437.427 220.477,-442.745"/>
</g>
<!-- 7&#45;&gt;T3 -->
<g id="edge47" class="edge"><title>7&#45;&gt;T3</title>
<path fill="none" stroke="black" stroke-width="2" stroke-dasharray="5,2" d="M146.344,-515.492C163.375,-514.571 189.696,-513.149 210.103,-512.046"/>
<polygon fill="black" stroke="black" stroke-width="2" points="210.359,-515.537 220.155,-511.502 209.981,-508.547 210.359,-515.537"/>
</g>
<!-- 2&#45;&gt;8 -->
<g id="edge48" class="edge"><title>2&#45;&gt;8</title>
<path fill="none" stroke="#33007f" stroke-width="2" d="M140.307,-176.006C142.852,-179.093 145.53,-182.365 148,-185.43 174.574,-218.399 204.825,-257.102 223.156,-280.688"/>
<polygon fill="#33007f" stroke="#33007f" stroke-width="2" points="220.445,-282.903 229.342,-288.655 225.974,-278.61 220.445,-282.903"/>
</g>
<!-- 2&#45;&gt;T2 -->
<g id="edge49" class="edge"><title>2&#45;&gt;T2</title>
<path fill="none" stroke="black" stroke-width="2" stroke-dasharray="5,2" d="M145.67,-158.847C185.319,-150.81 288.336,-132.777 374,-142.43 395.366,-144.837 419.005,-150.295 436.971,-155.044"/>
<polygon fill="black" stroke="black" stroke-width="2" points="436.264,-158.479 446.833,-157.729 438.104,-151.725 436.264,-158.479"/>
</g>
<!-- 2&#45;&gt;T1 -->
<g id="edge50" class="edge"><title>2&#45;&gt;T1</title>
<path fill="none" stroke="black" stroke-width="2" stroke-dasharray="5,2" d="M145.225,-168.234C184.746,-182.479 288.992,-220.684 374,-257.43 396.179,-267.017 420.857,-278.886 439.066,-287.881"/>
<polygon fill="black" stroke="black" stroke-width="2" points="437.692,-291.106 448.205,-292.421 440.806,-284.837 437.692,-291.106"/>
</g>
<!-- 2&#45;&gt;3 -->
<g id="edge51" class="edge"><title>2&#45;&gt;3</title>
<path fill="none" stroke="black" stroke-width="2" stroke-dasharray="5,2" d="M140.879,-149.694C160.056,-129.135 198.004,-88.4526 220.979,-63.8211"/>
<polygon fill="black" stroke="black" stroke-width="2" points="223.608,-66.1338 227.87,-56.4338 218.49,-61.359 223.608,-66.1338"/>
</g>
<!-- 4&#45;&gt;8 -->
<g id="edge54" class="edge"><title>4&#45;&gt;8</title>
<path fill="none" stroke="black" stroke-width="2" stroke-dasharray="5,2" d="M146.344,-300.742C164.102,-300.102 191.96,-300.008 212.683,-300.46"/>
<polygon fill="black" stroke="black" stroke-width="2" points="212.683,-303.962 222.778,-300.746 212.881,-296.964 212.683,-303.962"/>
</g>
<!-- 4&#45;&gt;8 -->
<g id="edge55" class="edge"><title>4&#45;&gt;8</title>
<path fill="none" stroke="#33007f" stroke-width="2" d="M146.344,-304.68C164.102,-305.533 191.96,-305.658 212.683,-305.055"/>
<polygon fill="#33007f" stroke="#33007f" stroke-width="2" points="212.917,-308.549 222.778,-304.674 212.653,-301.554 212.917,-308.549"/>
</g>
<!-- 4&#45;&gt;T2 -->
<g id="edge56" class="edge"><title>4&#45;&gt;T2</title>
<path fill="none" stroke="black" stroke-width="2" stroke-dasharray="5,2" d="M144.802,-295.912C197.778,-274.061 369.576,-203.201 437.748,-175.082"/>
<polygon fill="black" stroke="black" stroke-width="2" points="439.488,-178.151 447.398,-171.102 436.819,-171.68 439.488,-178.151"/>
</g>
<!-- 4&#45;&gt;13 -->
<g id="edge57" class="edge"><title>4&#45;&gt;13</title>
<path fill="none" stroke="#7f0000" stroke-width="2" d="M145.11,-308.83C183.147,-323.943 278.864,-361.974 325.966,-380.689"/>
<polygon fill="#7f0000" stroke="#7f0000" stroke-width="2" points="324.922,-384.04 335.508,-384.479 327.507,-377.534 324.922,-384.04"/>
</g>
<!-- 4&#45;&gt;T1 -->
<g id="edge58" class="edge"><title>4&#45;&gt;T1</title>
<path fill="none" stroke="black" stroke-width="2" stroke-dasharray="5,2" d="M145.574,-307.451C163.664,-312.648 193.58,-320.421 220,-323.43 298.061,-332.32 390.4,-317.214 436.589,-307.907"/>
<polygon fill="black" stroke="black" stroke-width="2" points="437.432,-311.307 446.515,-305.852 436.013,-304.453 437.432,-311.307"/>
</g>
<!-- 4&#45;&gt;9 -->
<g id="edge59" class="edge"><title>4&#45;&gt;9</title>
<path fill="none" stroke="#cb007f" stroke-width="2" d="M142.323,-290.968C159.583,-276.409 190.916,-250.954 220,-232.43 256.15,-209.404 300.861,-187.435 328.138,-174.701"/>
<polygon fill="#cb007f" stroke="#cb007f" stroke-width="2" points="329.742,-177.815 337.35,-170.442 326.804,-171.461 329.742,-177.815"/>
</g>
<!-- 1&#45;&gt;T2 -->
<g id="edge61" class="edge"><title>1&#45;&gt;T2</title>
<path fill="none" stroke="black" stroke-width="2" stroke-dasharray="5,2" d="M140.212,-69.7814C155.882,-51.9047 186.229,-21.4274 220,-9.42951 237.59,-3.1804 244.301,-3.49889 262,-9.42951 340.04,-35.5784 412.08,-104.673 445.85,-140.759"/>
<polygon fill="black" stroke="black" stroke-width="2" points="443.492,-143.364 452.842,-148.347 448.64,-138.621 443.492,-143.364"/>
</g>
<!-- 1&#45;&gt;13 -->
<g id="edge62" class="edge"><title>1&#45;&gt;13</title>
<path fill="none" stroke="#007f65" stroke-width="2" d="M146.042,-82.6922C177.853,-81.6743 244.621,-81.3399 262,-95.4295 344.141,-162.025 353.78,-301.021 353.837,-361.852"/>
<polygon fill="#007f65" stroke="#007f65" stroke-width="2" points="350.336,-361.903 353.757,-371.931 357.336,-361.959 350.336,-361.903"/>
</g>
<!-- 1&#45;&gt;T1 -->
<g id="edge63" class="edge"><title>1&#45;&gt;T1</title>
<path fill="none" stroke="black" stroke-width="2" stroke-dasharray="5,2" d="M141.089,-71.0564C164.008,-49.1637 215.641,-7.2728 262,-22.4295 291.319,-32.0152 354.416,-80.5974 374,-104.43 416.75,-156.452 444.593,-231.627 457.546,-272.429"/>
<polygon fill="black" stroke="black" stroke-width="2" points="454.217,-273.51 460.519,-282.027 460.904,-271.44 454.217,-273.51"/>
</g>
<!-- 1&#45;&gt;9 -->
<g id="edge65" class="edge"><title>1&#45;&gt;9</title>
<path fill="none" stroke="#7f0000" stroke-width="2" d="M145.643,-79.5654C171.514,-74.3684 222.507,-67.3989 262,-82.4295 292.788,-94.147 319.797,-121.589 336.229,-141.284"/>
<polygon fill="#7f0000" stroke="#7f0000" stroke-width="2" points="333.599,-143.599 342.604,-149.183 339.046,-139.203 333.599,-143.599"/>
</g>
<!-- 1&#45;&gt;10 -->
<g id="edge66" class="edge"><title>1&#45;&gt;10</title>
<path fill="none" stroke="#327f00" stroke-width="2" d="M145.859,-86.9236C163.683,-91.7242 192.065,-100.32 213.01,-107.2"/>
<polygon fill="#327f00" stroke="#327f00" stroke-width="2" points="212.022,-110.56 222.616,-110.416 214.244,-103.922 212.022,-110.56"/>
</g>
<!-- 1&#45;&gt;10 -->
<g id="edge67" class="edge"><title>1&#45;&gt;10</title>
<path fill="none" stroke="#33007f" stroke-width="2" d="M144.904,-90.4789C162.316,-96.7173 190.579,-105.532 211.776,-111.436"/>
<polygon fill="#33007f" stroke="#33007f" stroke-width="2" points="210.969,-114.843 221.536,-114.076 212.797,-108.086 210.969,-114.843"/>
</g>
<!-- 1&#45;&gt;3 -->
<g id="edge64" class="edge"><title>1&#45;&gt;3</title>
<path fill="none" stroke="black" stroke-width="2" stroke-dasharray="5,2" d="M145.378,-77.5274C163.517,-70.9909 192.999,-60.3666 214.237,-52.7133"/>
<polygon fill="black" stroke="black" stroke-width="2" points="215.694,-55.9088 223.915,-49.2258 213.321,-49.3233 215.694,-55.9088"/>
</g>
</g>
</svg>
