<?xml version="1.0" encoding="UTF-8" standalone="no"?>
<!DOCTYPE svg PUBLIC "-//W3C//DTD SVG 1.1//EN"
 "http://www.w3.org/Graphics/SVG/1.1/DTD/svg11.dtd">
<!-- Generated by graphviz version 2.36.0 (20140111.2315)
 -->
<!-- Title: %3 Pages: 1 -->
<svg width="1002pt" height="568pt"
 viewBox="0.00 0.00 1002.00 568.50" xmlns="http://www.w3.org/2000/svg" xmlns:xlink="http://www.w3.org/1999/xlink">
<g id="graph0" class="graph" transform="scale(1 1) rotate(0) translate(4 564.497)">
<title>%3</title>
<polygon fill="white" stroke="none" points="-4,4 -4,-564.497 998,-564.497 998,4 -4,4"/>
<!-- V4 -->
<g id="node1" class="node"><title>V4</title>
<ellipse fill="none" stroke="black" stroke-width="2" cx="246" cy="-244.497" rx="21.3963" ry="21.3963"/>
<text text-anchor="middle" x="246" y="-240.797" font-family="Times,serif" font-size="14.00">V4</text>
</g>
<!-- G0T -->
<g id="node2" class="node"><title>G0T</title>
<ellipse fill="none" stroke="black" stroke-width="2" cx="859" cy="-308.497" rx="26.7961" ry="26.7961"/>
<text text-anchor="middle" x="859" y="-304.797" font-family="Times,serif" font-size="14.00">G0T</text>
</g>
<!-- V4&#45;&gt;G0T -->
<g id="edge1" class="edge"><title>V4&#45;&gt;G0T</title>
<path fill="none" stroke="black" stroke-width="4" d="M266.874,-239.339C307.033,-229.384 400.849,-208.497 481,-208.497 481,-208.497 481,-208.497 608,-208.497 692.801,-208.497 782.954,-258.711 828.292,-287.974"/>
<polygon fill="black" stroke="black" stroke-width="4" points="826.467,-290.962 836.747,-293.526 830.309,-285.111 826.467,-290.962"/>
</g>
<!-- V12 -->
<g id="node3" class="node"><title>V12</title>
<ellipse fill="none" stroke="black" stroke-width="2" cx="733" cy="-345.497" rx="25.9954" ry="25.9954"/>
<text text-anchor="middle" x="733" y="-341.797" font-family="Times,serif" font-size="14.00">V12</text>
</g>
<!-- V4&#45;&gt;V12 -->
<g id="edge2" class="edge"><title>V4&#45;&gt;V12</title>
<path fill="none" stroke="#a27f00" stroke-width="4" d="M267.444,-246.442C325.585,-252.28 496.545,-271.57 634,-308.497 656.434,-314.524 680.879,-323.748 699.743,-331.478"/>
<polygon fill="#a27f00" stroke="#a27f00" stroke-width="4" points="698.482,-334.744 709.059,-335.36 701.174,-328.283 698.482,-334.744"/>
</g>
<!-- V8 -->
<g id="node4" class="node"><title>V8</title>
<ellipse fill="none" stroke="black" stroke-width="2" cx="482" cy="-161.497" rx="21.3963" ry="21.3963"/>
<text text-anchor="middle" x="482" y="-157.797" font-family="Times,serif" font-size="14.00">V8</text>
</g>
<!-- V4&#45;&gt;V8 -->
<g id="edge3" class="edge"><title>V4&#45;&gt;V8</title>
<path fill="none" stroke="#177f00" stroke-width="4" d="M263.544,-232.043C281.452,-219.179 311.31,-199.48 340,-188.497 376.486,-174.529 421.154,-167.544 450.305,-164.227"/>
<polygon fill="#177f00" stroke="#177f00" stroke-width="4" points="450.725,-167.702 460.299,-163.164 449.985,-160.741 450.725,-167.702"/>
</g>
<!-- V5 -->
<g id="node5" class="node"><title>V5</title>
<ellipse fill="none" stroke="black" stroke-width="2" cx="362" cy="-110.497" rx="21.3963" ry="21.3963"/>
<text text-anchor="middle" x="362" y="-106.797" font-family="Times,serif" font-size="14.00">V5</text>
</g>
<!-- V4&#45;&gt;V5 -->
<g id="edge4" class="edge"><title>V4&#45;&gt;V5</title>
<path fill="none" stroke="black" stroke-width="4" d="M260.525,-228.599C280.408,-205.227 317.669,-161.43 340.802,-134.238"/>
<polygon fill="black" stroke="black" stroke-width="4" points="343.679,-136.258 347.493,-126.374 338.347,-131.722 343.679,-136.258"/>
</g>
<!-- G1T -->
<g id="node6" class="node"><title>G1T</title>
<ellipse fill="none" stroke="black" stroke-width="2" cx="607" cy="-161.497" rx="26.7961" ry="26.7961"/>
<text text-anchor="middle" x="607" y="-157.797" font-family="Times,serif" font-size="14.00">G1T</text>
</g>
<!-- V4&#45;&gt;G1T -->
<g id="edge5" class="edge"><title>V4&#45;&gt;G1T</title>
<path fill="none" stroke="black" stroke-width="4" d="M265.263,-234.416C283.583,-224.799 312.894,-210.736 340,-203.497 412.551,-184.12 434.033,-198.457 508,-185.497 529.255,-181.773 552.746,-176.075 571.4,-171.166"/>
<polygon fill="black" stroke="black" stroke-width="4" points="572.466,-174.504 581.221,-168.537 570.656,-167.742 572.466,-174.504"/>
</g>
<!-- V7 -->
<g id="node7" class="node"><title>V7</title>
<ellipse fill="none" stroke="black" stroke-width="2" cx="362" cy="-342.497" rx="21.3963" ry="21.3963"/>
<text text-anchor="middle" x="362" y="-338.797" font-family="Times,serif" font-size="14.00">V7</text>
</g>
<!-- V4&#45;&gt;V7 -->
<g id="edge6" class="edge"><title>V4&#45;&gt;V7</title>
<path fill="none" stroke="black" stroke-width="4" d="M262.851,-258.123C282.249,-274.799 315.261,-303.177 337.587,-322.369"/>
<polygon fill="black" stroke="black" stroke-width="4" points="335.419,-325.121 345.283,-328.986 339.982,-319.813 335.419,-325.121"/>
</g>
<!-- V11 -->
<g id="node8" class="node"><title>V11</title>
<ellipse fill="none" stroke="black" stroke-width="2" cx="607" cy="-345.497" rx="25.9954" ry="25.9954"/>
<text text-anchor="middle" x="607" y="-341.797" font-family="Times,serif" font-size="14.00">V11</text>
</g>
<!-- V4&#45;&gt;V11 -->
<g id="edge7" class="edge"><title>V4&#45;&gt;V11</title>
<path fill="none" stroke="#00e77f" stroke-width="4" d="M266.813,-250.071C325.355,-266.541 498.055,-315.128 571.892,-335.901"/>
<polygon fill="#00e77f" stroke="#00e77f" stroke-width="4" points="571.058,-339.302 581.632,-338.641 572.954,-332.564 571.058,-339.302"/>
</g>
<!-- T -->
<g id="node9" class="node"><title>T</title>
<ellipse fill="none" stroke="black" stroke-width="2" cx="976" cy="-308.497" rx="18" ry="18"/>
<text text-anchor="middle" x="976" y="-304.797" font-family="Times,serif" font-size="14.00">T</text>
</g>
<!-- G0T&#45;&gt;T -->
<g id="edge8" class="edge"><title>G0T&#45;&gt;T</title>
<path fill="none" stroke="black" stroke-width="4" d="M885.808,-308.497C904.187,-308.497 928.848,-308.497 947.58,-308.497"/>
<polygon fill="black" stroke="black" stroke-width="4" points="947.832,-311.997 957.832,-308.497 947.832,-304.997 947.832,-311.997"/>
</g>
<!-- V12&#45;&gt;G0T -->
<g id="edge31" class="edge"><title>V12&#45;&gt;G0T</title>
<path fill="none" stroke="black" stroke-width="4" d="M758.203,-338.275C776.737,-332.745 802.559,-325.04 823.293,-318.853"/>
<polygon fill="black" stroke="black" stroke-width="4" points="824.426,-322.167 833.008,-315.954 822.425,-315.459 824.426,-322.167"/>
</g>
<!-- V8&#45;&gt;G1T -->
<g id="edge39" class="edge"><title>V8&#45;&gt;G1T</title>
<path fill="none" stroke="black" stroke-width="4" d="M503.587,-161.497C521.689,-161.497 548.445,-161.497 570.07,-161.497"/>
<polygon fill="black" stroke="black" stroke-width="4" points="570.213,-164.997 580.213,-161.497 570.213,-157.997 570.213,-164.997"/>
</g>
<!-- V5&#45;&gt;V8 -->
<g id="edge44" class="edge"><title>V5&#45;&gt;V8</title>
<path fill="none" stroke="#007f73" stroke-width="4" d="M381.959,-118.691C401.054,-126.944 430.745,-139.776 452.642,-149.24"/>
<polygon fill="#007f73" stroke="#007f73" stroke-width="4" points="451.52,-152.568 462.088,-153.323 454.298,-146.143 451.52,-152.568"/>
</g>
<!-- V5&#45;&gt;G1T -->
<g id="edge45" class="edge"><title>V5&#45;&gt;G1T</title>
<path fill="none" stroke="black" stroke-width="4" d="M383.264,-113.655C411.38,-118.145 463.761,-126.901 508,-136.497 529.139,-141.082 552.626,-147.043 571.306,-151.994"/>
<polygon fill="black" stroke="black" stroke-width="4" points="570.58,-155.423 581.145,-154.626 572.389,-148.661 570.58,-155.423"/>
</g>
<!-- G1T&#45;&gt;T -->
<g id="edge46" class="edge"><title>G1T&#45;&gt;T</title>
<path fill="none" stroke="black" stroke-width="4" d="M633.2,-166.952C663.727,-173.903 716.473,-187.016 760,-203.497 831.806,-230.684 912.003,-273.349 951.041,-294.969"/>
<polygon fill="black" stroke="black" stroke-width="4" points="949.61,-298.178 960.049,-299.99 953.018,-292.064 949.61,-298.178"/>
</g>
<!-- V7&#45;&gt;G0T -->
<g id="edge47" class="edge"><title>V7&#45;&gt;G0T</title>
<path fill="none" stroke="black" stroke-width="4" d="M383.299,-339.626C421.651,-334.3 507.427,-322.854 580,-316.497 635.872,-311.603 649.941,-311.237 706,-309.497 745.639,-308.266 791.12,-308.136 821.924,-308.238"/>
<polygon fill="black" stroke="black" stroke-width="4" points="822.159,-311.739 832.174,-308.282 822.189,-304.739 822.159,-311.739"/>
</g>
<!-- V7&#45;&gt;V11 -->
<g id="edge49" class="edge"><title>V7&#45;&gt;V11</title>
<path fill="none" stroke="#007f00" stroke-width="4" d="M383.66,-340.494C402.489,-338.776 431.083,-336.433 456,-335.497 479.095,-334.629 484.919,-334.322 508,-335.497 528.943,-336.562 552.307,-338.901 570.967,-341.049"/>
<polygon fill="#007f00" stroke="#007f00" stroke-width="4" points="570.738,-344.547 581.08,-342.247 571.561,-337.595 570.738,-344.547"/>
</g>
<!-- V10 -->
<g id="node12" class="node"><title>V10</title>
<ellipse fill="none" stroke="black" stroke-width="2" cx="482" cy="-426.497" rx="25.9954" ry="25.9954"/>
<text text-anchor="middle" x="482" y="-422.797" font-family="Times,serif" font-size="14.00">V10</text>
</g>
<!-- V7&#45;&gt;V10 -->
<g id="edge48" class="edge"><title>V7&#45;&gt;V10</title>
<path fill="none" stroke="black" stroke-width="4" d="M379.907,-354.532C398.78,-367.967 429.645,-389.939 452.313,-406.076"/>
<polygon fill="black" stroke="black" stroke-width="4" points="450.381,-408.996 460.558,-411.944 454.441,-403.294 450.381,-408.996"/>
</g>
<!-- V11&#45;&gt;G0T -->
<g id="edge63" class="edge"><title>V11&#45;&gt;G0T</title>
<path fill="none" stroke="black" stroke-width="4" d="M631.79,-336.742C651.409,-329.941 680.119,-320.943 706,-316.497 745.255,-309.752 790.978,-308.177 821.944,-308.021"/>
<polygon fill="black" stroke="black" stroke-width="4" points="822.248,-311.521 832.247,-308.019 822.246,-304.521 822.248,-311.521"/>
</g>
<!-- V11&#45;&gt;V12 -->
<g id="edge64" class="edge"><title>V11&#45;&gt;V12</title>
<path fill="none" stroke="#7f4500" stroke-width="4" d="M633.093,-345.497C651.413,-345.497 676.493,-345.497 696.813,-345.497"/>
<polygon fill="#7f4500" stroke="#7f4500" stroke-width="4" points="696.944,-348.997 706.944,-345.497 696.944,-341.997 696.944,-348.997"/>
</g>
<!-- V9 -->
<g id="node10" class="node"><title>V9</title>
<ellipse fill="none" stroke="black" stroke-width="2" cx="362" cy="-472.497" rx="21.3963" ry="21.3963"/>
<text text-anchor="middle" x="362" y="-468.797" font-family="Times,serif" font-size="14.00">V9</text>
</g>
<!-- V9&#45;&gt;G0T -->
<g id="edge9" class="edge"><title>V9&#45;&gt;G0T</title>
<path fill="none" stroke="black" stroke-width="4" d="M383.683,-473.069C402.528,-473.56 431.131,-474.229 456,-474.497 479.11,-474.745 485.13,-477.828 508,-474.497 623.635,-457.654 658.523,-457.44 760,-399.497 788.835,-383.032 816.038,-356.562 834.433,-336.406"/>
<polygon fill="black" stroke="black" stroke-width="4" points="837.221,-338.538 841.276,-328.75 832.002,-333.873 837.221,-338.538"/>
</g>
<!-- V9&#45;&gt;V12 -->
<g id="edge11" class="edge"><title>V9&#45;&gt;V12</title>
<path fill="none" stroke="#2e007f" stroke-width="4" d="M382.642,-465.674C410.908,-461.45 464.445,-458.2 508,-445.497 580.115,-424.464 657.298,-381.462 699.604,-359.005"/>
<polygon fill="#2e007f" stroke="#2e007f" stroke-width="4" points="701.365,-362.033 708.587,-354.281 698.107,-355.838 701.365,-362.033"/>
</g>
<!-- V9&#45;&gt;V12 -->
<g id="edge12" class="edge"><title>V9&#45;&gt;V12</title>
<path fill="none" stroke="#177f00" stroke-width="4" d="M383.599,-470.219C412.103,-468.376 464.932,-465.058 508,-452.497 581.041,-431.193 659.282,-387.353 701.217,-362.89"/>
<polygon fill="#177f00" stroke="#177f00" stroke-width="4" points="702.986,-365.91 709.845,-357.835 699.448,-359.87 702.986,-365.91"/>
</g>
<!-- V9&#45;&gt;V12 -->
<g id="edge13" class="edge"><title>V9&#45;&gt;V12</title>
<path fill="none" stroke="#7f0045" stroke-width="4" d="M383.599,-474.906C412.103,-475.376 464.932,-472.058 508,-459.497 582.398,-437.798 662.19,-392.718 703.515,-366.16"/>
<polygon fill="#7f0045" stroke="#7f0045" stroke-width="4" points="705.519,-369.032 711.973,-360.63 701.688,-363.173 705.519,-369.032"/>
</g>
<!-- V9&#45;&gt;V12 -->
<g id="edge14" class="edge"><title>V9&#45;&gt;V12</title>
<path fill="none" stroke="#00e77f" stroke-width="4" d="M382.642,-479.495C410.908,-482.45 464.445,-479.2 508,-466.497 583.754,-444.402 665.101,-398.066 705.736,-369.205"/>
<polygon fill="#00e77f" stroke="#00e77f" stroke-width="4" points="708.005,-371.883 714.005,-363.151 703.869,-366.235 708.005,-371.883"/>
</g>
<!-- G2T -->
<g id="node11" class="node"><title>G2T</title>
<ellipse fill="none" stroke="black" stroke-width="2" cx="733" cy="-534.497" rx="26.7961" ry="26.7961"/>
<text text-anchor="middle" x="733" y="-530.797" font-family="Times,serif" font-size="14.00">G2T</text>
</g>
<!-- V9&#45;&gt;G2T -->
<g id="edge10" class="edge"><title>V9&#45;&gt;G2T</title>
<path fill="none" stroke="black" stroke-width="4" d="M382.318,-479.662C400.938,-486.296 430.034,-495.945 456,-501.497 540.988,-519.668 642.991,-528.604 696.009,-532.306"/>
<polygon fill="black" stroke="black" stroke-width="4" points="696.035,-535.816 706.248,-532.998 696.507,-528.832 696.035,-535.816"/>
</g>
<!-- V9&#45;&gt;V10 -->
<g id="edge15" class="edge"><title>V9&#45;&gt;V10</title>
<path fill="none" stroke="black" stroke-width="4" d="M382.221,-465.004C399.924,-458.103 426.569,-447.715 447.727,-439.468"/>
<polygon fill="black" stroke="black" stroke-width="4" points="449.262,-442.626 457.308,-435.732 446.72,-436.104 449.262,-442.626"/>
</g>
<!-- G2T&#45;&gt;T -->
<g id="edge16" class="edge"><title>G2T&#45;&gt;T</title>
<path fill="none" stroke="black" stroke-width="4" d="M752.911,-516.763C797.504,-474.945 908.918,-370.466 954.784,-327.454"/>
<polygon fill="black" stroke="black" stroke-width="4" points="957.408,-329.792 962.308,-320.399 952.62,-324.686 957.408,-329.792"/>
</g>
<!-- V10&#45;&gt;G0T -->
<g id="edge50" class="edge"><title>V10&#45;&gt;G0T</title>
<path fill="none" stroke="black" stroke-width="4" d="M508.241,-427.007C558.374,-427.125 673.149,-422.88 760,-385.497 787.65,-373.595 814.191,-351.888 832.662,-334.548"/>
<polygon fill="black" stroke="black" stroke-width="4" points="835.285,-336.881 840.063,-327.425 830.431,-331.838 835.285,-336.881"/>
</g>
<!-- V10&#45;&gt;V12 -->
<g id="edge51" class="edge"><title>V10&#45;&gt;V12</title>
<path fill="none" stroke="#007f00" stroke-width="4" d="M507.171,-419.517C537.081,-410.791 589.507,-395.21 634,-380.497 655.664,-373.333 679.806,-364.718 698.707,-357.829"/>
<polygon fill="#007f00" stroke="#007f00" stroke-width="4" points="700.158,-361.024 708.345,-354.299 697.751,-354.451 700.158,-361.024"/>
</g>
<!-- V10&#45;&gt;V11 -->
<g id="edge52" class="edge"><title>V10&#45;&gt;V11</title>
<path fill="none" stroke="#007f73" stroke-width="4" d="M503.311,-411.399C522.948,-397.861 552.955,-378.016 575.469,-363.628"/>
<polygon fill="#007f73" stroke="#007f73" stroke-width="4" points="577.43,-366.529 583.997,-358.214 573.678,-360.619 577.43,-366.529"/>
</g>
<!-- V10&#45;&gt;V11 -->
<g id="edge53" class="edge"><title>V10&#45;&gt;V11</title>
<path fill="none" stroke="black" stroke-width="4" d="M504.99,-414.378C525.243,-401.812 555.409,-382.018 577.502,-366.841"/>
<polygon fill="black" stroke="black" stroke-width="4" points="579.605,-369.642 585.831,-361.069 575.618,-363.888 579.605,-369.642"/>
</g>
<!-- S -->
<g id="node13" class="node"><title>S</title>
<ellipse fill="none" stroke="black" stroke-width="2" cx="18" cy="-339.497" rx="18" ry="18"/>
<text text-anchor="middle" x="18" y="-335.797" font-family="Times,serif" font-size="14.00">S</text>
</g>
<!-- S&#45;&gt;V4 -->
<g id="edge17" class="edge"><title>S&#45;&gt;V4</title>
<path fill="none" stroke="black" stroke-width="4" d="M33.8285,-330.495C70.5921,-312.072 166.495,-271.454 215.397,-253.258"/>
<polygon fill="black" stroke="black" stroke-width="4" points="216.882,-256.442 225.08,-249.731 214.486,-249.865 216.882,-256.442"/>
</g>
<!-- S&#45;&gt;V4 -->
<g id="edge18" class="edge"><title>S&#45;&gt;V4</title>
<path fill="none" stroke="#7f0045" stroke-width="4" d="M34.8919,-332.816C72.6938,-316.926 168.395,-276.698 216.49,-256.481"/>
<polygon fill="#7f0045" stroke="#7f0045" stroke-width="4" points="218.13,-259.588 225.992,-252.487 215.417,-253.135 218.13,-259.588"/>
</g>
<!-- S&#45;&gt;V4 -->
<g id="edge19" class="edge"><title>S&#45;&gt;V4</title>
<path fill="none" stroke="#7f4500" stroke-width="4" d="M35.6183,-335.419C74.3374,-322.036 170.843,-281.683 218.086,-259.358"/>
<polygon fill="#7f4500" stroke="#7f4500" stroke-width="4" points="219.62,-262.504 227.114,-255.015 216.585,-256.196 219.62,-262.504"/>
</g>
<!-- S&#45;&gt;V11 -->
<g id="edge29" class="edge"><title>S&#45;&gt;V11</title>
<path fill="none" stroke="#177f00" stroke-width="4" d="M35.7922,-343.074C87.7276,-353.638 250.302,-382.956 384,-366.497 416.738,-362.467 423.304,-352.854 456,-348.497 495.031,-343.295 540.273,-343.191 570.779,-343.977"/>
<polygon fill="#177f00" stroke="#177f00" stroke-width="4" points="570.819,-347.48 580.921,-344.286 571.032,-340.483 570.819,-347.48"/>
</g>
<!-- S&#45;&gt;V9 -->
<g id="edge20" class="edge"><title>S&#45;&gt;V9</title>
<path fill="none" stroke="#7f4500" stroke-width="4" d="M31.6673,-351.792C47.2757,-369.709 75.724,-401.859 108,-418.497 181.62,-456.447 281.3,-464.08 330.682,-468.062"/>
<polygon fill="#7f4500" stroke="#7f4500" stroke-width="4" points="330.456,-471.556 340.71,-468.891 331.032,-464.579 330.456,-471.556"/>
</g>
<!-- S&#45;&gt;V9 -->
<g id="edge21" class="edge"><title>S&#45;&gt;V9</title>
<path fill="none" stroke="#7fd000" stroke-width="4" d="M29.2843,-353.702C44.2565,-373.24 74.0052,-407.973 108,-425.497 181.435,-463.352 280.799,-471.042 330.309,-472.394"/>
<polygon fill="#7fd000" stroke="#7fd000" stroke-width="4" points="330.303,-475.894 340.372,-472.598 330.446,-468.896 330.303,-475.894"/>
</g>
<!-- S&#45;&gt;V9 -->
<g id="edge22" class="edge"><title>S&#45;&gt;V9</title>
<path fill="none" stroke="#a27f00" stroke-width="4" d="M27.1279,-355.131C41.2591,-376.684 72.2863,-414.086 108,-432.497 181.62,-470.447 281.3,-478.08 330.682,-476.745"/>
<polygon fill="#a27f00" stroke="#a27f00" stroke-width="4" points="330.869,-480.24 340.71,-476.315 330.569,-473.247 330.869,-480.24"/>
</g>
<!-- S&#45;&gt;V10 -->
<g id="edge25" class="edge"><title>S&#45;&gt;V10</title>
<path fill="none" stroke="#007f00" stroke-width="4" d="M33.9018,-347.992C50.9249,-358.762 80.0488,-376.777 108,-385.497 227.736,-422.85 378.547,-425.501 445.816,-425.807"/>
<polygon fill="#007f00" stroke="#007f00" stroke-width="4" points="445.866,-429.307 455.877,-425.841 445.889,-422.307 445.866,-429.307"/>
</g>
<!-- S&#45;&gt;V10 -->
<g id="edge26" class="edge"><title>S&#45;&gt;V10</title>
<path fill="none" stroke="black" stroke-width="4" d="M31.8138,-351.509C48.4666,-364.227 78.8702,-383.409 108,-392.497 227.736,-429.85 378.547,-432.501 445.816,-429.822"/>
<polygon fill="black" stroke="black" stroke-width="4" points="446.052,-433.315 455.877,-429.351 445.724,-426.322 446.052,-433.315"/>
</g>
<!-- V6 -->
<g id="node14" class="node"><title>V6</title>
<ellipse fill="none" stroke="black" stroke-width="2" cx="246" cy="-300.497" rx="21.3963" ry="21.3963"/>
<text text-anchor="middle" x="246" y="-296.797" font-family="Times,serif" font-size="14.00">V6</text>
</g>
<!-- S&#45;&gt;V6 -->
<g id="edge23" class="edge"><title>S&#45;&gt;V6</title>
<path fill="none" stroke="#a27f00" stroke-width="4" d="M35.9867,-336.565C73.9703,-330.011 166.216,-314.092 214.457,-305.767"/>
<polygon fill="#a27f00" stroke="#a27f00" stroke-width="4" points="215.346,-309.166 224.605,-304.016 214.155,-302.268 215.346,-309.166"/>
</g>
<!-- V2 -->
<g id="node15" class="node"><title>V2</title>
<ellipse fill="none" stroke="black" stroke-width="2" cx="482" cy="-372.497" rx="21.3963" ry="21.3963"/>
<text text-anchor="middle" x="482" y="-368.797" font-family="Times,serif" font-size="14.00">V2</text>
</g>
<!-- S&#45;&gt;V2 -->
<g id="edge24" class="edge"><title>S&#45;&gt;V2</title>
<path fill="none" stroke="#00e77f" stroke-width="4" d="M33.7615,-348.489C50.8924,-358.351 80.3384,-373.566 108,-379.497 232.521,-406.193 385.804,-387.751 450.208,-377.76"/>
<polygon fill="#00e77f" stroke="#00e77f" stroke-width="4" points="451.148,-381.154 460.47,-376.121 450.044,-374.242 451.148,-381.154"/>
</g>
<!-- V3 -->
<g id="node16" class="node"><title>V3</title>
<ellipse fill="none" stroke="black" stroke-width="2" cx="246" cy="-78.4967" rx="21.3963" ry="21.3963"/>
<text text-anchor="middle" x="246" y="-74.7967" font-family="Times,serif" font-size="14.00">V3</text>
</g>
<!-- S&#45;&gt;V3 -->
<g id="edge27" class="edge"><title>S&#45;&gt;V3</title>
<path fill="none" stroke="#2e007f" stroke-width="4" d="M27.6774,-324.124C42.8718,-299.545 75.7556,-250.472 108,-212.497 144.658,-169.323 192.361,-123.675 220.722,-98.3389"/>
<polygon fill="#2e007f" stroke="#2e007f" stroke-width="4" points="223.344,-100.693 228.526,-91.4515 218.712,-95.4445 223.344,-100.693"/>
</g>
<!-- S&#45;&gt;V3 -->
<g id="edge28" class="edge"><title>S&#45;&gt;V3</title>
<path fill="none" stroke="#00e77f" stroke-width="4" d="M29.7118,-325.423C45.6693,-302.389 77.1277,-255.856 108,-219.497 145.81,-174.966 195.371,-127.803 223.338,-100.825"/>
<polygon fill="#00e77f" stroke="#00e77f" stroke-width="4" points="225.875,-103.24 230.626,-93.7699 221.006,-98.2107 225.875,-103.24"/>
</g>
<!-- V1 -->
<g id="node17" class="node"><title>V1</title>
<ellipse fill="none" stroke="black" stroke-width="2" cx="130" cy="-240.497" rx="21.3963" ry="21.3963"/>
<text text-anchor="middle" x="130" y="-236.797" font-family="Times,serif" font-size="14.00">V1</text>
</g>
<!-- S&#45;&gt;V1 -->
<g id="edge30" class="edge"><title>S&#45;&gt;V1</title>
<path fill="none" stroke="#007f00" stroke-width="4" d="M32.0504,-327.751C50.2753,-311.349 83.6302,-281.33 106.058,-261.144"/>
<polygon fill="#007f00" stroke="#007f00" stroke-width="4" points="108.401,-263.744 113.493,-254.453 103.719,-258.541 108.401,-263.744"/>
</g>
<!-- V6&#45;&gt;G0T -->
<g id="edge32" class="edge"><title>V6&#45;&gt;G0T</title>
<path fill="none" stroke="black" stroke-width="4" d="M267.68,-299.638C286.524,-298.902 315.126,-297.898 340,-297.497 359.553,-297.181 364.446,-297.27 384,-297.497 547.511,-299.394 742.685,-304.971 821.918,-307.374"/>
<polygon fill="black" stroke="black" stroke-width="4" points="822.211,-310.884 832.313,-307.691 822.425,-303.887 822.211,-310.884"/>
</g>
<!-- V6&#45;&gt;V12 -->
<g id="edge33" class="edge"><title>V6&#45;&gt;V12</title>
<path fill="none" stroke="#00e77f" stroke-width="4" d="M267.741,-298.194C325.963,-294.362 495.687,-290.535 634,-313.497 656.404,-317.216 680.903,-324.466 699.802,-331.161"/>
<polygon fill="#00e77f" stroke="#00e77f" stroke-width="4" points="698.81,-334.525 709.404,-334.693 701.227,-327.956 698.81,-334.525"/>
</g>
<!-- V6&#45;&gt;V12 -->
<g id="edge34" class="edge"><title>V6&#45;&gt;V12</title>
<path fill="none" stroke="#177f00" stroke-width="4" d="M267.741,-301.412C325.963,-301.362 495.687,-297.535 634,-320.497 655.562,-324.076 679.065,-330.926 697.648,-336.624"/>
<polygon fill="#177f00" stroke="#177f00" stroke-width="4" points="696.835,-340.036 707.423,-339.643 698.901,-333.348 696.835,-340.036"/>
</g>
<!-- V6&#45;&gt;V8 -->
<g id="edge35" class="edge"><title>V6&#45;&gt;V8</title>
<path fill="none" stroke="#177f00" stroke-width="4" d="M264.207,-289.03C304.563,-263.809 405.549,-203.737 454.102,-175.975"/>
<polygon fill="#177f00" stroke="#177f00" stroke-width="4" points="455.842,-179.012 462.807,-171.028 452.383,-172.926 455.842,-179.012"/>
</g>
<!-- V6&#45;&gt;V8 -->
<g id="edge36" class="edge"><title>V6&#45;&gt;V8</title>
<path fill="none" stroke="black" stroke-width="4" d="M265.362,-291.298C306.861,-268.282 407.961,-208.309 455.501,-178.6"/>
<polygon fill="black" stroke="black" stroke-width="4" points="457.398,-181.542 463.995,-173.251 453.668,-175.619 457.398,-181.542"/>
</g>
<!-- V6&#45;&gt;G1T -->
<g id="edge37" class="edge"><title>V6&#45;&gt;G1T</title>
<path fill="none" stroke="black" stroke-width="4" d="M266.301,-293.023C324.444,-270.511 498.446,-203.14 572.279,-174.553"/>
<polygon fill="black" stroke="black" stroke-width="4" points="573.948,-177.66 582.01,-170.785 571.421,-171.132 573.948,-177.66"/>
</g>
<!-- V6&#45;&gt;V7 -->
<g id="edge38" class="edge"><title>V6&#45;&gt;V7</title>
<path fill="none" stroke="black" stroke-width="4" d="M266.339,-307.621C284.354,-314.259 311.454,-324.243 332.048,-331.83"/>
<polygon fill="black" stroke="black" stroke-width="4" points="330.973,-335.164 341.567,-335.337 333.393,-328.596 330.973,-335.164"/>
</g>
<!-- V2&#45;&gt;G0T -->
<g id="edge40" class="edge"><title>V2&#45;&gt;G0T</title>
<path fill="none" stroke="black" stroke-width="4" d="M503.16,-376.833C549.819,-385.968 668.262,-403.956 760,-373.497 786.212,-364.794 812.088,-347.137 830.663,-332.421"/>
<polygon fill="black" stroke="black" stroke-width="4" points="833.115,-334.938 838.658,-325.909 828.694,-329.51 833.115,-334.938"/>
</g>
<!-- V2&#45;&gt;V12 -->
<g id="edge41" class="edge"><title>V2&#45;&gt;V12</title>
<path fill="none" stroke="#007f73" stroke-width="4" d="M503.641,-374.521C532.836,-376.957 587.787,-379.969 634,-373.497 655.984,-370.418 679.956,-363.632 698.688,-357.512"/>
<polygon fill="#007f73" stroke="#007f73" stroke-width="4" points="699.875,-360.806 708.239,-354.303 697.645,-354.171 699.875,-360.806"/>
</g>
<!-- V2&#45;&gt;V11 -->
<g id="edge42" class="edge"><title>V2&#45;&gt;V11</title>
<path fill="none" stroke="#007f00" stroke-width="4" d="M502.762,-366.454C521.17,-361.83 549.024,-355.6 571.162,-351.094"/>
<polygon fill="#007f00" stroke="#007f00" stroke-width="4" points="572.067,-354.482 581.19,-349.095 570.699,-347.617 572.067,-354.482"/>
</g>
<!-- V2&#45;&gt;V11 -->
<g id="edge43" class="edge"><title>V2&#45;&gt;V11</title>
<path fill="none" stroke="black" stroke-width="4" d="M503.587,-370.285C522.244,-366.948 550.093,-360.97 572.042,-355.666"/>
<polygon fill="black" stroke="black" stroke-width="4" points="573.101,-359.009 581.967,-353.209 571.419,-352.214 573.101,-359.009"/>
</g>
<!-- V3&#45;&gt;G0T -->
<g id="edge54" class="edge"><title>V3&#45;&gt;G0T</title>
<path fill="none" stroke="black" stroke-width="4" d="M266.031,-70.5711C305.418,-54.9091 399.047,-21.4967 481,-21.4967 481,-21.4967 481,-21.4967 608,-21.4967 740.488,-21.4967 818.797,-197.541 846.525,-273.876"/>
<polygon fill="black" stroke="black" stroke-width="4" points="843.308,-275.278 849.954,-283.529 849.905,-272.935 843.308,-275.278"/>
</g>
<!-- V3&#45;&gt;V12 -->
<g id="edge55" class="edge"><title>V3&#45;&gt;V12</title>
<path fill="none" stroke="#a27f00" stroke-width="4" d="M266.554,-71.1029C329.929,-53.7563 531.483,-21.7785 634,-124.497 686.441,-177.041 713.806,-262.78 725.275,-310.641"/>
<polygon fill="#a27f00" stroke="#a27f00" stroke-width="4" points="721.898,-311.573 727.547,-320.536 728.721,-310.007 721.898,-311.573"/>
</g>
<!-- V3&#45;&gt;V12 -->
<g id="edge56" class="edge"><title>V3&#45;&gt;V12</title>
<path fill="none" stroke="#7f0045" stroke-width="4" d="M267,-73.9207C330.871,-60.6077 531.722,-29.0185 634,-131.497 684.721,-182.318 711.984,-264.191 724.095,-310.548"/>
<polygon fill="#7f0045" stroke="#7f0045" stroke-width="4" points="720.747,-311.587 726.587,-320.428 727.535,-309.875 720.747,-311.587"/>
</g>
<!-- V3&#45;&gt;V12 -->
<g id="edge57" class="edge"><title>V3&#45;&gt;V12</title>
<path fill="none" stroke="#007f00" stroke-width="4" d="M267.451,-76.7949C331.811,-67.4604 531.962,-36.2585 634,-138.497 683.142,-187.735 710.263,-266.122 722.919,-311.057"/>
<polygon fill="#007f00" stroke="#007f00" stroke-width="4" points="719.602,-312.197 725.617,-320.919 726.354,-310.35 719.602,-312.197"/>
</g>
<!-- V3&#45;&gt;V8 -->
<g id="edge58" class="edge"><title>V3&#45;&gt;V8</title>
<path fill="none" stroke="#00e77f" stroke-width="4" d="M264.545,-89.3998C282.55,-101.536 311.838,-120.716 340,-131.497 376.694,-145.543 421.662,-152.529 450.801,-156.523"/>
<polygon fill="#00e77f" stroke="#00e77f" stroke-width="4" points="450.397,-160.001 460.775,-157.867 451.332,-153.063 450.397,-160.001"/>
</g>
<!-- V3&#45;&gt;V8 -->
<g id="edge59" class="edge"><title>V3&#45;&gt;V8</title>
<path fill="none" stroke="#007f00" stroke-width="4" d="M262.247,-92.9053C279.985,-106.842 310.606,-127.244 340,-138.497 376.486,-152.464 421.154,-159.45 450.305,-161.848"/>
<polygon fill="#007f00" stroke="#007f00" stroke-width="4" points="450.085,-165.341 460.299,-162.529 450.56,-158.358 450.085,-165.341"/>
</g>
<!-- V3&#45;&gt;V5 -->
<g id="edge60" class="edge"><title>V3&#45;&gt;V5</title>
<path fill="none" stroke="black" stroke-width="4" d="M266.857,-84.0707C284.648,-89.0645 310.989,-96.4585 331.287,-102.156"/>
<polygon fill="black" stroke="black" stroke-width="4" points="330.414,-105.546 340.988,-104.879 332.306,-98.8068 330.414,-105.546"/>
</g>
<!-- V3&#45;&gt;G1T -->
<g id="edge61" class="edge"><title>V3&#45;&gt;G1T</title>
<path fill="none" stroke="black" stroke-width="4" d="M267.253,-74.8358C312.415,-67.6009 423.999,-54.9158 508,-88.4967 535.235,-99.3842 561.635,-119.802 580.159,-136.282"/>
<polygon fill="black" stroke="black" stroke-width="4" points="577.848,-138.911 587.595,-143.064 582.565,-133.739 577.848,-138.911"/>
</g>
<!-- V3&#45;&gt;V11 -->
<g id="edge62" class="edge"><title>V3&#45;&gt;V11</title>
<path fill="none" stroke="black" stroke-width="4" d="M267.487,-76.5723C316.155,-73.2022 439.727,-71.8901 508,-136.497 559.147,-184.897 586.251,-265.317 598.221,-311"/>
<polygon fill="black" stroke="black" stroke-width="4" points="594.838,-311.902 600.681,-320.741 601.625,-310.188 594.838,-311.902"/>
</g>
<!-- V1&#45;&gt;V4 -->
<g id="edge65" class="edge"><title>V1&#45;&gt;V4</title>
<path fill="none" stroke="black" stroke-width="4" d="M151.645,-241.221C169.158,-241.836 194.529,-242.726 214.404,-243.423"/>
<polygon fill="black" stroke="black" stroke-width="4" points="214.392,-246.925 224.509,-243.778 214.638,-239.929 214.392,-246.925"/>
</g>
<!-- V1&#45;&gt;V8 -->
<g id="edge66" class="edge"><title>V1&#45;&gt;V8</title>
<path fill="none" stroke="#7f4500" stroke-width="4" d="M150.25,-233.061C186.687,-219.315 268.5,-190.009 340,-175.497 377.41,-167.904 421.274,-164.372 450.023,-162.768"/>
<polygon fill="#7f4500" stroke="#7f4500" stroke-width="4" points="450.448,-166.251 460.256,-162.243 450.09,-159.26 450.448,-166.251"/>
</g>
<!-- V1&#45;&gt;G1T -->
<g id="edge67" class="edge"><title>V1&#45;&gt;G1T</title>
<path fill="none" stroke="black" stroke-width="4" d="M134.2,-219.423C141.628,-178.831 164.204,-90.5415 224,-53.4967 271.487,-24.0779 200.437,59.235 508,-73.4967 538.211,-86.5348 565.423,-112.72 583.462,-133.152"/>
<polygon fill="black" stroke="black" stroke-width="4" points="580.977,-135.632 590.146,-140.941 586.289,-131.073 580.977,-135.632"/>
</g>
</g>
</svg>
