<?xml version="1.0" encoding="UTF-8" standalone="no"?>
<!DOCTYPE svg PUBLIC "-//W3C//DTD SVG 1.1//EN"
 "http://www.w3.org/Graphics/SVG/1.1/DTD/svg11.dtd">
<!-- Generated by graphviz version 2.36.0 (20140111.2315)
 -->
<!-- Title: %3 Pages: 1 -->
<svg width="566pt" height="620pt"
 viewBox="0.00 0.00 566.00 620.38" xmlns="http://www.w3.org/2000/svg" xmlns:xlink="http://www.w3.org/1999/xlink">
<g id="graph0" class="graph" transform="scale(1 1) rotate(0) translate(4 616.38)">
<title>%3</title>
<polygon fill="white" stroke="none" points="-4,4 -4,-616.38 562,-616.38 562,4 -4,4"/>
<!-- 0 -->
<g id="node1" class="node"><title>0</title>
<ellipse fill="none" stroke="black" stroke-width="2" cx="27" cy="-284.559" rx="27" ry="18"/>
<text text-anchor="middle" x="27" y="-280.859" font-family="Times,serif" font-size="14.00">0</text>
</g>
<!-- 1 -->
<g id="node2" class="node"><title>1</title>
<ellipse fill="none" stroke="black" stroke-width="2" cx="153" cy="-532.559" rx="27" ry="18"/>
<text text-anchor="middle" x="153" y="-528.859" font-family="Times,serif" font-size="14.00">1</text>
</g>
<!-- 0&#45;&gt;1 -->
<g id="edge1" class="edge"><title>0&#45;&gt;1</title>
<path fill="none" stroke="#cc7f00" stroke-width="2" d="M36.523,-301.605C57.8043,-344.167 113.389,-455.337 138.881,-506.32"/>
<polygon fill="#cc7f00" stroke="#cc7f00" stroke-width="2" points="135.815,-508.014 143.417,-515.393 142.076,-504.884 135.815,-508.014"/>
</g>
<!-- 2 -->
<g id="node3" class="node"><title>2</title>
<ellipse fill="none" stroke="black" stroke-width="2" cx="153" cy="-342.559" rx="27" ry="18"/>
<text text-anchor="middle" x="153" y="-338.859" font-family="Times,serif" font-size="14.00">2</text>
</g>
<!-- 0&#45;&gt;2 -->
<g id="edge2" class="edge"><title>0&#45;&gt;2</title>
<path fill="none" stroke="#cb007f" stroke-width="2" d="M49.5992,-294.662C69.3038,-303.878 98.6517,-317.605 120.884,-328.005"/>
<polygon fill="#cb007f" stroke="#cb007f" stroke-width="2" points="119.691,-331.31 130.232,-332.377 122.657,-324.97 119.691,-331.31"/>
</g>
<!-- 3 -->
<g id="node4" class="node"><title>3</title>
<ellipse fill="none" stroke="black" stroke-width="2" cx="279" cy="-460.559" rx="27" ry="18"/>
<text text-anchor="middle" x="279" y="-456.859" font-family="Times,serif" font-size="14.00">3</text>
</g>
<!-- 0&#45;&gt;3 -->
<g id="edge3" class="edge"><title>0&#45;&gt;3</title>
<path fill="none" stroke="#33007f" stroke-width="2" d="M35.3578,-302.158C48.7714,-331.999 80.1147,-392.319 126,-423.559 160.742,-447.212 209.025,-455.789 241.782,-458.874"/>
<polygon fill="#33007f" stroke="#33007f" stroke-width="2" points="241.584,-462.369 251.835,-459.694 242.153,-455.392 241.584,-462.369"/>
</g>
<!-- 4 -->
<g id="node5" class="node"><title>4</title>
<ellipse fill="none" stroke="black" stroke-width="2" cx="153" cy="-299.559" rx="27" ry="18"/>
<text text-anchor="middle" x="153" y="-295.859" font-family="Times,serif" font-size="14.00">4</text>
</g>
<!-- 0&#45;&gt;4 -->
<g id="edge4" class="edge"><title>0&#45;&gt;4</title>
<path fill="none" stroke="#7f9900" stroke-width="2" d="M53.6929,-287.667C71.8154,-289.859 96.3279,-292.824 116.342,-295.245"/>
<polygon fill="#7f9900" stroke="#7f9900" stroke-width="2" points="115.992,-298.728 126.34,-296.455 116.833,-291.779 115.992,-298.728"/>
</g>
<!-- 5 -->
<g id="node6" class="node"><title>5</title>
<ellipse fill="none" stroke="black" stroke-width="2" cx="153" cy="-401.559" rx="27" ry="18"/>
<text text-anchor="middle" x="153" y="-397.859" font-family="Times,serif" font-size="14.00">5</text>
</g>
<!-- 0&#45;&gt;5 -->
<g id="edge5" class="edge"><title>0&#45;&gt;5</title>
<path fill="none" stroke="#00ff7f" stroke-width="2" d="M43.454,-299.14C65.0123,-319.482 104.265,-356.518 129.192,-380.038"/>
<polygon fill="#00ff7f" stroke="#00ff7f" stroke-width="2" points="127.065,-382.844 136.741,-387.161 131.869,-377.752 127.065,-382.844"/>
</g>
<!-- 6 -->
<g id="node7" class="node"><title>6</title>
<ellipse fill="none" stroke="black" stroke-width="2" cx="153" cy="-247.559" rx="27" ry="18"/>
<text text-anchor="middle" x="153" y="-243.859" font-family="Times,serif" font-size="14.00">6</text>
</g>
<!-- 0&#45;&gt;6 -->
<g id="edge6" class="edge"><title>0&#45;&gt;6</title>
<path fill="none" stroke="#327f00" stroke-width="2" d="M51.9084,-277.425C70.7782,-271.794 97.3339,-263.87 118.351,-257.599"/>
<polygon fill="#327f00" stroke="#327f00" stroke-width="2" points="119.583,-260.884 128.165,-254.671 117.582,-254.176 119.583,-260.884"/>
</g>
<!-- 7 -->
<g id="node8" class="node"><title>7</title>
<ellipse fill="none" stroke="black" stroke-width="2" cx="153" cy="-159.559" rx="27" ry="18"/>
<text text-anchor="middle" x="153" y="-155.859" font-family="Times,serif" font-size="14.00">7</text>
</g>
<!-- 0&#45;&gt;7 -->
<g id="edge7" class="edge"><title>0&#45;&gt;7</title>
<path fill="none" stroke="#7f0000" stroke-width="2" d="M41.7439,-269.226C62.7733,-247.12 103.186,-206.273 128.809,-181.137"/>
<polygon fill="#7f0000" stroke="#7f0000" stroke-width="2" points="131.535,-183.367 136.248,-173.878 126.646,-178.357 131.535,-183.367"/>
</g>
<!-- 0&#45;&gt;7 -->
<g id="edge8" class="edge"><title>0&#45;&gt;7</title>
<path fill="none" stroke="#00657f" stroke-width="2" d="M44.2108,-270.32C66.5803,-248.896 106.917,-208.3 131.398,-182.628"/>
<polygon fill="#00657f" stroke="#00657f" stroke-width="2" points="134.118,-184.846 138.449,-175.178 129.033,-180.035 134.118,-184.846"/>
</g>
<!-- 11 -->
<g id="node9" class="node"><title>11</title>
<ellipse fill="none" stroke="black" stroke-width="2" cx="153" cy="-65.5587" rx="27" ry="18"/>
<text text-anchor="middle" x="153" y="-61.8587" font-family="Times,serif" font-size="14.00">11</text>
</g>
<!-- 0&#45;&gt;11 -->
<g id="edge9" class="edge"><title>0&#45;&gt;11</title>
<path fill="none" stroke="#007f65" stroke-width="2" d="M37.3992,-267.727C54.7849,-236.625 93.1871,-168.077 126,-110.559 129.605,-104.24 133.518,-97.4379 137.187,-91.0836"/>
<polygon fill="#007f65" stroke="#007f65" stroke-width="2" points="140.347,-92.6112 142.325,-82.2027 134.288,-89.1057 140.347,-92.6112"/>
</g>
<!-- 14 -->
<g id="node10" class="node"><title>14</title>
<ellipse fill="none" stroke="black" stroke-width="2" cx="531" cy="-430.559" rx="27" ry="18"/>
<text text-anchor="middle" x="531" y="-426.859" font-family="Times,serif" font-size="14.00">14</text>
</g>
<!-- 0&#45;&gt;14 -->
<g id="edge10" class="edge"><title>0&#45;&gt;14</title>
<path fill="none" stroke="black" stroke-width="2" stroke-dasharray="5,2" d="M29.9621,-312.782C35.3187,-367.594 54.9801,-488.822 126,-554.559 225.927,-647.052 320.248,-617.353 432,-539.559 469.593,-513.389 502.771,-470.132 519.157,-446.755"/>
<polygon fill="black" stroke="black" stroke-width="2" points="33.4414,-312.392 29.0705,-302.741 26.4688,-313.011 33.4414,-312.392"/>
</g>
<!-- 15 -->
<g id="node11" class="node"><title>15</title>
<ellipse fill="none" stroke="black" stroke-width="2" cx="531" cy="-277.559" rx="27" ry="18"/>
<text text-anchor="middle" x="531" y="-273.859" font-family="Times,serif" font-size="14.00">15</text>
</g>
<!-- 0&#45;&gt;15 -->
<g id="edge11" class="edge"><title>0&#45;&gt;15</title>
<path fill="none" stroke="black" stroke-width="2" stroke-dasharray="5,2" d="M29.7967,-256.243C34.8365,-203.7 53.9305,-92.0526 126,-43.5587 239.747,32.9791 322.897,0.465252 432,-82.5587 492.002,-128.218 517.937,-220.723 526.512,-259.653"/>
<polygon fill="black" stroke="black" stroke-width="2" points="26.2832,-256.253 28.9205,-266.514 33.2579,-256.848 26.2832,-256.253"/>
</g>
<!-- 16 -->
<g id="node12" class="node"><title>16</title>
<ellipse fill="none" stroke="black" stroke-width="2" cx="279" cy="-100.559" rx="27" ry="18"/>
<text text-anchor="middle" x="279" y="-96.8587" font-family="Times,serif" font-size="14.00">16</text>
</g>
<!-- 0&#45;&gt;16 -->
<g id="edge12" class="edge"><title>0&#45;&gt;16</title>
<path fill="none" stroke="black" stroke-width="2" stroke-dasharray="5,2" d="M38.7225,-257.346C53.3355,-223.895 82.7351,-167.848 126,-137.559 164.268,-110.768 219.729,-103.275 252.005,-101.242"/>
<polygon fill="black" stroke="black" stroke-width="2" points="35.3331,-256.376 34.6631,-266.949 41.7807,-259.101 35.3331,-256.376"/>
</g>
<!-- 1&#45;&gt;3 -->
<g id="edge13" class="edge"><title>1&#45;&gt;3</title>
<path fill="none" stroke="black" stroke-width="2" stroke-dasharray="5,2" d="M173.923,-520.991C194.351,-509.129 226.318,-490.568 249.436,-477.144"/>
<polygon fill="black" stroke="black" stroke-width="2" points="251.236,-480.146 258.127,-472.098 247.721,-474.093 251.236,-480.146"/>
</g>
<!-- 1&#45;&gt;14 -->
<g id="edge18" class="edge"><title>1&#45;&gt;14</title>
<path fill="none" stroke="black" stroke-width="2" stroke-dasharray="5,2" d="M172.472,-545.366C191.433,-557.671 222.286,-575.416 252,-582.559 275.335,-588.168 282.878,-588.992 306,-582.559 390.541,-559.036 470.922,-488.966 508.238,-452.762"/>
<polygon fill="black" stroke="black" stroke-width="2" points="510.862,-455.09 515.533,-445.58 505.951,-450.102 510.862,-455.09"/>
</g>
<!-- 1&#45;&gt;15 -->
<g id="edge19" class="edge"><title>1&#45;&gt;15</title>
<path fill="none" stroke="black" stroke-width="2" stroke-dasharray="5,2" d="M174.762,-543.435C204.601,-557.54 260.975,-578.447 306,-561.559 340.801,-548.505 408.541,-480.39 432,-451.559 470.502,-404.239 502.374,-339.766 518.541,-304.075"/>
<polygon fill="black" stroke="black" stroke-width="2" points="521.797,-305.368 522.677,-294.809 515.405,-302.514 521.797,-305.368"/>
</g>
<!-- 9 -->
<g id="node13" class="node"><title>9</title>
<ellipse fill="none" stroke="black" stroke-width="2" cx="405" cy="-430.559" rx="27" ry="18"/>
<text text-anchor="middle" x="405" y="-426.859" font-family="Times,serif" font-size="14.00">9</text>
</g>
<!-- 1&#45;&gt;9 -->
<g id="edge14" class="edge"><title>1&#45;&gt;9</title>
<path fill="none" stroke="#7f0000" stroke-width="2" d="M175.445,-542.738C206.115,-555.724 263.492,-574.075 306,-552.559 354.221,-528.15 341.978,-494.851 378,-454.559 378.852,-453.606 379.738,-452.649 380.645,-451.695"/>
<polygon fill="#7f0000" stroke="#7f0000" stroke-width="2" points="383.207,-454.084 387.856,-444.563 378.285,-449.107 383.207,-454.084"/>
</g>
<!-- 10 -->
<g id="node14" class="node"><title>10</title>
<ellipse fill="none" stroke="black" stroke-width="2" cx="279" cy="-518.559" rx="27" ry="18"/>
<text text-anchor="middle" x="279" y="-514.859" font-family="Times,serif" font-size="14.00">10</text>
</g>
<!-- 1&#45;&gt;10 -->
<g id="edge15" class="edge"><title>1&#45;&gt;10</title>
<path fill="none" stroke="#327f00" stroke-width="2" d="M179.093,-527.876C197.052,-525.403 221.505,-522.568 241.604,-520.598"/>
<polygon fill="#327f00" stroke="#327f00" stroke-width="2" points="242.032,-524.073 251.66,-519.653 241.376,-517.104 242.032,-524.073"/>
</g>
<!-- 1&#45;&gt;10 -->
<g id="edge16" class="edge"><title>1&#45;&gt;10</title>
<path fill="none" stroke="#33007f" stroke-width="2" d="M179.994,-532.119C198.258,-530.638 222.901,-527.935 242.906,-525.254"/>
<polygon fill="#33007f" stroke="#33007f" stroke-width="2" points="243.467,-528.71 252.887,-523.861 242.499,-521.777 243.467,-528.71"/>
</g>
<!-- 13 -->
<g id="node15" class="node"><title>13</title>
<ellipse fill="none" stroke="black" stroke-width="2" cx="405" cy="-247.559" rx="27" ry="18"/>
<text text-anchor="middle" x="405" y="-243.859" font-family="Times,serif" font-size="14.00">13</text>
</g>
<!-- 1&#45;&gt;13 -->
<g id="edge17" class="edge"><title>1&#45;&gt;13</title>
<path fill="none" stroke="#007f65" stroke-width="2" d="M176.563,-541.571C208.593,-552.745 267.611,-567.168 306,-539.559 350.104,-507.839 385.934,-342.521 398.84,-275.662"/>
<polygon fill="#007f65" stroke="#007f65" stroke-width="2" points="402.352,-275.929 400.779,-265.452 395.475,-274.623 402.352,-275.929"/>
</g>
<!-- 2&#45;&gt;3 -->
<g id="edge20" class="edge"><title>2&#45;&gt;3</title>
<path fill="none" stroke="black" stroke-width="2" stroke-dasharray="5,2" d="M169.205,-357.028C190.773,-377.552 230.403,-415.265 255.414,-439.066"/>
<polygon fill="black" stroke="black" stroke-width="2" points="253.014,-441.613 262.671,-445.971 257.839,-436.542 253.014,-441.613"/>
</g>
<!-- 2&#45;&gt;14 -->
<g id="edge21" class="edge"><title>2&#45;&gt;14</title>
<path fill="none" stroke="black" stroke-width="2" stroke-dasharray="5,2" d="M178.67,-348.333C243.739,-363.561 420.159,-404.851 495.326,-422.444"/>
<polygon fill="black" stroke="black" stroke-width="2" points="494.704,-425.893 505.239,-424.764 496.299,-419.077 494.704,-425.893"/>
</g>
<!-- 2&#45;&gt;15 -->
<g id="edge22" class="edge"><title>2&#45;&gt;15</title>
<path fill="none" stroke="black" stroke-width="2" stroke-dasharray="5,2" d="M179.942,-340.96C210.298,-338.868 262.013,-334.612 306,-327.559 373.93,-316.667 452.122,-297.723 495.834,-286.543"/>
<polygon fill="black" stroke="black" stroke-width="2" points="496.849,-289.896 505.659,-284.012 495.102,-283.117 496.849,-289.896"/>
</g>
<!-- 8 -->
<g id="node16" class="node"><title>8</title>
<ellipse fill="none" stroke="black" stroke-width="2" cx="279" cy="-306.559" rx="27" ry="18"/>
<text text-anchor="middle" x="279" y="-302.859" font-family="Times,serif" font-size="14.00">8</text>
</g>
<!-- 2&#45;&gt;8 -->
<g id="edge23" class="edge"><title>2&#45;&gt;8</title>
<path fill="none" stroke="#33007f" stroke-width="2" d="M178.203,-335.532C196.979,-330.081 223.235,-322.458 244.103,-316.4"/>
<polygon fill="#33007f" stroke="#33007f" stroke-width="2" points="245.231,-319.717 253.858,-313.568 243.279,-312.995 245.231,-319.717"/>
</g>
<!-- 3&#45;&gt;14 -->
<g id="edge25" class="edge"><title>3&#45;&gt;14</title>
<path fill="none" stroke="black" stroke-width="2" stroke-dasharray="5,2" d="M306.216,-460.514C336.61,-460.154 388.15,-458.591 432,-452.559 453.426,-449.611 477.095,-444.356 495.803,-439.72"/>
<polygon fill="black" stroke="black" stroke-width="2" points="496.807,-443.077 505.641,-437.228 495.088,-436.291 496.807,-443.077"/>
</g>
<!-- 3&#45;&gt;15 -->
<g id="edge26" class="edge"><title>3&#45;&gt;15</title>
<path fill="none" stroke="black" stroke-width="2" stroke-dasharray="5,2" d="M297.979,-447.398C341.584,-415.479 453.105,-333.845 503.987,-296.6"/>
<polygon fill="black" stroke="black" stroke-width="2" points="506.182,-299.331 512.184,-290.6 502.047,-293.683 506.182,-299.331"/>
</g>
<!-- 3&#45;&gt;9 -->
<g id="edge24" class="edge"><title>3&#45;&gt;9</title>
<path fill="none" stroke="#00657f" stroke-width="2" d="M304.498,-454.632C322.975,-450.162 348.568,-443.97 369.171,-438.985"/>
<polygon fill="#00657f" stroke="#00657f" stroke-width="2" points="370.232,-442.33 379.128,-436.576 368.585,-435.526 370.232,-442.33"/>
</g>
<!-- 4&#45;&gt;14 -->
<g id="edge29" class="edge"><title>4&#45;&gt;14</title>
<path fill="none" stroke="black" stroke-width="2" stroke-dasharray="5,2" d="M177.494,-307.386C225.45,-323.408 338.017,-361.243 432,-394.559 453.968,-402.346 478.592,-411.393 497.662,-418.469"/>
<polygon fill="black" stroke="black" stroke-width="2" points="496.491,-421.768 507.084,-421.973 498.931,-415.207 496.491,-421.768"/>
</g>
<!-- 4&#45;&gt;15 -->
<g id="edge30" class="edge"><title>4&#45;&gt;15</title>
<path fill="none" stroke="black" stroke-width="2" stroke-dasharray="5,2" d="M179.291,-295.143C199.028,-291.892 227.17,-287.683 252,-285.559 338.414,-278.167 440.429,-277.209 493.607,-277.296"/>
<polygon fill="black" stroke="black" stroke-width="2" points="493.871,-280.797 503.881,-277.327 493.892,-273.797 493.871,-280.797"/>
</g>
<!-- 4&#45;&gt;9 -->
<g id="edge27" class="edge"><title>4&#45;&gt;9</title>
<path fill="none" stroke="#cb007f" stroke-width="2" d="M173.699,-311.285C193.349,-322.87 224.491,-340.929 252,-355.559 293.261,-377.501 341.826,-401.083 372.753,-415.825"/>
<polygon fill="#cb007f" stroke="#cb007f" stroke-width="2" points="371.608,-419.156 382.143,-420.288 374.613,-412.834 371.608,-419.156"/>
</g>
<!-- 4&#45;&gt;13 -->
<g id="edge28" class="edge"><title>4&#45;&gt;13</title>
<path fill="none" stroke="#7f0000" stroke-width="2" d="M177.987,-292.185C197.72,-286.305 226.488,-278.155 252,-272.559 291.374,-263.922 337.076,-256.789 368.004,-252.383"/>
<polygon fill="#7f0000" stroke="#7f0000" stroke-width="2" points="368.876,-255.795 378.293,-250.94 367.904,-248.863 368.876,-255.795"/>
</g>
<!-- 4&#45;&gt;8 -->
<g id="edge31" class="edge"><title>4&#45;&gt;8</title>
<path fill="none" stroke="black" stroke-width="2" stroke-dasharray="5,2" d="M179.994,-299.155C197.934,-299.739 222.027,-301.034 241.835,-302.451"/>
<polygon fill="black" stroke="black" stroke-width="2" points="241.804,-305.958 252.04,-303.223 242.332,-298.978 241.804,-305.958"/>
</g>
<!-- 4&#45;&gt;8 -->
<g id="edge32" class="edge"><title>4&#45;&gt;8</title>
<path fill="none" stroke="#33007f" stroke-width="2" d="M179.392,-303.468C197.373,-305.071 221.753,-306.54 241.773,-307.27"/>
<polygon fill="#33007f" stroke="#33007f" stroke-width="2" points="241.683,-310.769 251.787,-307.581 241.9,-303.772 241.683,-310.769"/>
</g>
<!-- 5&#45;&gt;14 -->
<g id="edge38" class="edge"><title>5&#45;&gt;14</title>
<path fill="none" stroke="black" stroke-width="2" stroke-dasharray="5,2" d="M166.938,-417.312C184.037,-436.754 216.208,-468.805 252,-481.559 338.848,-512.506 447.965,-470.553 499.879,-446.039"/>
<polygon fill="black" stroke="black" stroke-width="2" points="501.703,-449.045 509.183,-441.541 498.656,-442.743 501.703,-449.045"/>
</g>
<!-- 5&#45;&gt;15 -->
<g id="edge39" class="edge"><title>5&#45;&gt;15</title>
<path fill="none" stroke="black" stroke-width="2" stroke-dasharray="5,2" d="M177.887,-394.205C226.093,-379.299 338.398,-344.247 432,-312.559 454.004,-305.109 478.628,-296.313 497.689,-289.403"/>
<polygon fill="black" stroke="black" stroke-width="2" points="498.904,-292.685 507.106,-285.978 496.512,-286.106 498.904,-292.685"/>
</g>
<!-- 5&#45;&gt;9 -->
<g id="edge33" class="edge"><title>5&#45;&gt;9</title>
<path fill="none" stroke="#33007f" stroke-width="2" d="M178.809,-407.64C198.522,-412.224 226.862,-418.266 252,-421.559 291.273,-426.702 336.644,-428.908 367.521,-429.853"/>
<polygon fill="#33007f" stroke="#33007f" stroke-width="2" points="367.711,-433.359 377.804,-430.137 367.905,-426.362 367.711,-433.359"/>
</g>
<!-- 5&#45;&gt;10 -->
<g id="edge34" class="edge"><title>5&#45;&gt;10</title>
<path fill="none" stroke="#7f9900" stroke-width="2" d="M170.58,-415.274C190.016,-432.995 223.23,-464.632 252,-491.559 253.64,-493.094 255.342,-494.679 257.054,-496.279"/>
<polygon fill="#7f9900" stroke="#7f9900" stroke-width="2" points="254.794,-498.959 264.473,-503.268 259.594,-493.863 254.794,-498.959"/>
</g>
<!-- 5&#45;&gt;10 -->
<g id="edge35" class="edge"><title>5&#45;&gt;10</title>
<path fill="none" stroke="#cb007f" stroke-width="2" d="M167.26,-416.908C186.046,-436.212 221.518,-470.029 252,-498.559 252.157,-498.706 252.315,-498.853 252.473,-499.001"/>
<polygon fill="#cb007f" stroke="#cb007f" stroke-width="2" points="250.069,-501.545 259.787,-505.764 254.821,-496.405 250.069,-501.545"/>
</g>
<!-- 5&#45;&gt;13 -->
<g id="edge36" class="edge"><title>5&#45;&gt;13</title>
<path fill="none" stroke="#7f0000" stroke-width="2" d="M175.255,-391.299C205.451,-378.102 261.985,-353.723 306,-325.559 332.843,-308.383 360.579,-284.817 379.662,-268.071"/>
<polygon fill="#7f0000" stroke="#7f0000" stroke-width="2" points="382.099,-270.589 387.284,-261.349 377.468,-265.339 382.099,-270.589"/>
</g>
<!-- 5&#45;&gt;13 -->
<g id="edge37" class="edge"><title>5&#45;&gt;13</title>
<path fill="none" stroke="#327f00" stroke-width="2" d="M178.12,-394.887C208.923,-383.596 263.341,-359.855 306,-332.559 334.761,-314.156 364.545,-288.418 383.616,-270.047"/>
<polygon fill="#327f00" stroke="#327f00" stroke-width="2" points="386.191,-272.423 390.857,-262.911 381.278,-267.437 386.191,-272.423"/>
</g>
<!-- 5&#45;&gt;8 -->
<g id="edge40" class="edge"><title>5&#45;&gt;8</title>
<path fill="none" stroke="black" stroke-width="2" stroke-dasharray="5,2" d="M171.503,-388.149C192.643,-371.953 228.371,-344.581 252.556,-326.052"/>
<polygon fill="black" stroke="black" stroke-width="2" points="254.776,-328.76 260.586,-319.9 250.519,-323.204 254.776,-328.76"/>
</g>
<!-- 6&#45;&gt;14 -->
<g id="edge42" class="edge"><title>6&#45;&gt;14</title>
<path fill="none" stroke="black" stroke-width="2" stroke-dasharray="5,2" d="M179.27,-252.065C209.867,-257.93 262.682,-269.378 306,-285.559 364.839,-307.537 379.474,-315.119 432,-349.559 459.297,-367.456 487.757,-391.704 506.929,-408.994"/>
<polygon fill="black" stroke="black" stroke-width="2" points="504.799,-411.788 514.547,-415.939 509.515,-406.615 504.799,-411.788"/>
</g>
<!-- 6&#45;&gt;15 -->
<g id="edge43" class="edge"><title>6&#45;&gt;15</title>
<path fill="none" stroke="black" stroke-width="2" stroke-dasharray="5,2" d="M178.215,-240.73C227.009,-228.055 340.321,-204.131 432,-226.559 457.777,-232.865 484.317,-247.252 503.266,-259.143"/>
<polygon fill="black" stroke="black" stroke-width="2" points="501.622,-262.248 511.921,-264.733 505.42,-256.367 501.622,-262.248"/>
</g>
<!-- 6&#45;&gt;13 -->
<g id="edge41" class="edge"><title>6&#45;&gt;13</title>
<path fill="none" stroke="#7f0000" stroke-width="2" d="M180.191,-245.859C199.922,-244.667 227.646,-243.18 252,-242.559 275.992,-241.947 282.008,-241.947 306,-242.559 326.453,-243.08 349.284,-244.213 367.761,-245.268"/>
<polygon fill="#7f0000" stroke="#7f0000" stroke-width="2" points="367.621,-248.766 377.809,-245.859 368.032,-241.778 367.621,-248.766"/>
</g>
<!-- 6&#45;&gt;8 -->
<g id="edge44" class="edge"><title>6&#45;&gt;8</title>
<path fill="none" stroke="black" stroke-width="2" stroke-dasharray="5,2" d="M176.744,-256.592C196.964,-265.655 226.648,-279.726 248.653,-290.649"/>
<polygon fill="black" stroke="black" stroke-width="2" points="247.354,-293.913 257.862,-295.265 250.49,-287.655 247.354,-293.913"/>
</g>
<!-- 6&#45;&gt;8 -->
<g id="edge45" class="edge"><title>6&#45;&gt;8</title>
<path fill="none" stroke="#cb007f" stroke-width="2" d="M173.648,-259.169C193.008,-269.203 222.923,-283.572 245.767,-293.891"/>
<polygon fill="#cb007f" stroke="#cb007f" stroke-width="2" points="244.515,-297.165 255.074,-298.041 247.366,-290.772 244.515,-297.165"/>
</g>
<!-- 12 -->
<g id="node17" class="node"><title>12</title>
<ellipse fill="none" stroke="black" stroke-width="2" cx="279" cy="-188.559" rx="27" ry="18"/>
<text text-anchor="middle" x="279" y="-184.859" font-family="Times,serif" font-size="14.00">12</text>
</g>
<!-- 6&#45;&gt;12 -->
<g id="edge46" class="edge"><title>6&#45;&gt;12</title>
<path fill="none" stroke="#7f9900" stroke-width="2" d="M174.199,-236.234C193.654,-226.374 223.389,-212.131 246.055,-201.762"/>
<polygon fill="#7f9900" stroke="#7f9900" stroke-width="2" points="247.622,-204.895 255.286,-197.579 244.733,-198.519 247.622,-204.895"/>
</g>
<!-- 6&#45;&gt;12 -->
<g id="edge47" class="edge"><title>6&#45;&gt;12</title>
<path fill="none" stroke="#33007f" stroke-width="2" d="M177.033,-238.994C197.41,-230.038 227.232,-215.911 249.185,-204.849"/>
<polygon fill="#33007f" stroke="#33007f" stroke-width="2" points="251.042,-207.83 258.357,-200.166 247.859,-201.596 251.042,-207.83"/>
</g>
<!-- 7&#45;&gt;14 -->
<g id="edge49" class="edge"><title>7&#45;&gt;14</title>
<path fill="none" stroke="black" stroke-width="2" stroke-dasharray="5,2" d="M180.196,-158.199C199.929,-157.245 227.655,-156.055 252,-155.559 275.995,-155.069 282.786,-149.468 306,-155.559 368.175,-171.87 388.056,-179.647 432,-226.559 481.154,-279.032 510.11,-360.724 522.628,-403.051"/>
<polygon fill="black" stroke="black" stroke-width="2" points="519.338,-404.274 525.459,-412.922 526.067,-402.344 519.338,-404.274"/>
</g>
<!-- 7&#45;&gt;15 -->
<g id="edge50" class="edge"><title>7&#45;&gt;15</title>
<path fill="none" stroke="black" stroke-width="2" stroke-dasharray="5,2" d="M178.357,-153.164C198.06,-148.338 226.603,-142.124 252,-139.559 331.595,-131.52 360.917,-102.855 432,-139.559 476.958,-162.773 505.773,-217.19 519.822,-250.334"/>
<polygon fill="black" stroke="black" stroke-width="2" points="516.696,-251.938 523.709,-259.879 523.179,-249.297 516.696,-251.938"/>
</g>
<!-- 7&#45;&gt;16 -->
<g id="edge52" class="edge"><title>7&#45;&gt;16</title>
<path fill="none" stroke="black" stroke-width="2" stroke-dasharray="5,2" d="M175.316,-149.416C195.19,-139.96 225.048,-125.754 247.452,-115.094"/>
<polygon fill="black" stroke="black" stroke-width="2" points="249.021,-118.223 256.547,-110.766 246.013,-111.902 249.021,-118.223"/>
</g>
<!-- 7&#45;&gt;13 -->
<g id="edge48" class="edge"><title>7&#45;&gt;13</title>
<path fill="none" stroke="#00657f" stroke-width="2" d="M179.748,-156.181C210.816,-153.156 264.094,-151.372 306,-167.559 337.152,-179.591 365.87,-205.552 384.057,-224.652"/>
<polygon fill="#00657f" stroke="#00657f" stroke-width="2" points="381.591,-227.14 390.953,-232.101 386.728,-222.385 381.591,-227.14"/>
</g>
<!-- 7&#45;&gt;12 -->
<g id="edge51" class="edge"><title>7&#45;&gt;12</title>
<path fill="none" stroke="#33007f" stroke-width="2" d="M178.795,-165.358C197.296,-169.684 222.812,-175.652 243.332,-180.451"/>
<polygon fill="#33007f" stroke="#33007f" stroke-width="2" points="242.713,-183.901 253.248,-182.77 244.308,-177.085 242.713,-183.901"/>
</g>
<!-- 11&#45;&gt;15 -->
<g id="edge56" class="edge"><title>11&#45;&gt;15</title>
<path fill="none" stroke="black" stroke-width="2" stroke-dasharray="5,2" d="M180.191,-63.8591C199.922,-62.667 227.646,-61.1796 252,-60.5587 275.992,-59.9471 282.607,-55.194 306,-60.5587 366.643,-74.4662 385.653,-80.0501 432,-121.559 473.201,-158.459 503.457,-216.691 518.755,-250.597"/>
<polygon fill="black" stroke="black" stroke-width="2" points="515.611,-252.141 522.844,-259.883 522.017,-249.32 515.611,-252.141"/>
</g>
<!-- 11&#45;&gt;16 -->
<g id="edge58" class="edge"><title>11&#45;&gt;16</title>
<path fill="none" stroke="black" stroke-width="2" stroke-dasharray="5,2" d="M178.203,-72.3902C196.979,-77.69 223.235,-85.1009 244.103,-90.991"/>
<polygon fill="black" stroke="black" stroke-width="2" points="243.283,-94.3964 253.858,-93.7445 245.185,-87.6596 243.283,-94.3964"/>
</g>
<!-- 11&#45;&gt;13 -->
<g id="edge53" class="edge"><title>11&#45;&gt;13</title>
<path fill="none" stroke="#7f9900" stroke-width="2" d="M176.921,-56.904C208.597,-50.327 266.329,-47.2829 306,-72.5587 358.918,-106.275 386.648,-179.562 397.874,-219.885"/>
<polygon fill="#7f9900" stroke="#7f9900" stroke-width="2" points="394.506,-220.839 400.437,-229.618 401.275,-219.057 394.506,-220.839"/>
</g>
<!-- 11&#45;&gt;13 -->
<g id="edge54" class="edge"><title>11&#45;&gt;13</title>
<path fill="none" stroke="#327f00" stroke-width="2" d="M179.38,-61.2506C211.513,-57.1909 267.335,-54.9237 306,-79.5587 356.889,-111.982 384.484,-181 396.51,-219.725"/>
<polygon fill="#327f00" stroke="#327f00" stroke-width="2" points="393.296,-221.197 399.495,-229.788 400.006,-219.206 393.296,-221.197"/>
</g>
<!-- 11&#45;&gt;13 -->
<g id="edge55" class="edge"><title>11&#45;&gt;13</title>
<path fill="none" stroke="#00657f" stroke-width="2" d="M180.221,-66.0409C212.48,-64.1536 267.67,-62.1373 306,-86.5587 355.067,-117.821 382.478,-183.105 395.158,-220.317"/>
<polygon fill="#00657f" stroke="#00657f" stroke-width="2" points="391.899,-221.612 398.349,-230.017 398.548,-219.424 391.899,-221.612"/>
</g>
<!-- 11&#45;&gt;12 -->
<g id="edge57" class="edge"><title>11&#45;&gt;12</title>
<path fill="none" stroke="#cb007f" stroke-width="2" d="M169.205,-80.6409C190.89,-102.151 230.834,-141.773 255.821,-166.558"/>
<polygon fill="#cb007f" stroke="#cb007f" stroke-width="2" points="253.494,-169.18 263.058,-173.737 258.423,-164.21 253.494,-169.18"/>
</g>
<!-- 9&#45;&gt;14 -->
<g id="edge59" class="edge"><title>9&#45;&gt;14</title>
<path fill="none" stroke="black" stroke-width="2" stroke-dasharray="5,2" d="M432.297,-430.559C450.135,-430.559 473.953,-430.559 493.607,-430.559"/>
<polygon fill="black" stroke="black" stroke-width="2" points="493.741,-434.059 503.741,-430.559 493.741,-427.059 493.741,-434.059"/>
</g>
<!-- 9&#45;&gt;15 -->
<g id="edge60" class="edge"><title>9&#45;&gt;15</title>
<path fill="none" stroke="black" stroke-width="2" stroke-dasharray="5,2" d="M418.803,-414.761C440.615,-387.848 485.1,-332.959 510.7,-301.372"/>
<polygon fill="black" stroke="black" stroke-width="2" points="513.503,-303.472 517.081,-293.499 508.065,-299.065 513.503,-303.472"/>
</g>
<!-- 10&#45;&gt;14 -->
<g id="edge61" class="edge"><title>10&#45;&gt;14</title>
<path fill="none" stroke="black" stroke-width="2" stroke-dasharray="5,2" d="M306.135,-517.749C337.12,-516.045 389.866,-510.783 432,-494.559 459.134,-484.11 486.551,-465.348 505.459,-450.83"/>
<polygon fill="black" stroke="black" stroke-width="2" points="507.812,-453.432 513.515,-444.503 503.489,-447.926 507.812,-453.432"/>
</g>
<!-- 13&#45;&gt;15 -->
<g id="edge62" class="edge"><title>13&#45;&gt;15</title>
<path fill="none" stroke="black" stroke-width="2" stroke-dasharray="5,2" d="M430.498,-253.486C448.975,-257.956 474.568,-264.148 495.171,-269.132"/>
<polygon fill="black" stroke="black" stroke-width="2" points="494.585,-272.592 505.128,-271.541 496.232,-265.788 494.585,-272.592"/>
</g>
<!-- 8&#45;&gt;14 -->
<g id="edge64" class="edge"><title>8&#45;&gt;14</title>
<path fill="none" stroke="black" stroke-width="2" stroke-dasharray="5,2" d="M301.84,-316.273C331.539,-329.594 386.213,-354.509 432,-377.559 455.459,-389.368 481.602,-403.56 500.983,-414.285"/>
<polygon fill="black" stroke="black" stroke-width="2" points="499.471,-417.449 509.912,-419.246 502.87,-411.33 499.471,-417.449"/>
</g>
<!-- 8&#45;&gt;15 -->
<g id="edge65" class="edge"><title>8&#45;&gt;15</title>
<path fill="none" stroke="black" stroke-width="2" stroke-dasharray="5,2" d="M305.813,-303.564C350.654,-298.363 443.023,-287.648 494.089,-281.724"/>
<polygon fill="black" stroke="black" stroke-width="2" points="494.798,-285.166 504.328,-280.537 493.991,-278.212 494.798,-285.166"/>
</g>
<!-- 8&#45;&gt;13 -->
<g id="edge63" class="edge"><title>8&#45;&gt;13</title>
<path fill="none" stroke="#00657f" stroke-width="2" d="M301.316,-296.416C321.19,-286.96 351.048,-272.754 373.452,-262.094"/>
<polygon fill="#00657f" stroke="#00657f" stroke-width="2" points="375.021,-265.223 382.547,-257.766 372.013,-258.902 375.021,-265.223"/>
</g>
<!-- 12&#45;&gt;15 -->
<g id="edge67" class="edge"><title>12&#45;&gt;15</title>
<path fill="none" stroke="black" stroke-width="2" stroke-dasharray="5,2" d="M306.155,-189.317C337.159,-190.97 389.924,-196.185 432,-212.559 459.224,-223.153 486.631,-242.211 505.511,-256.961"/>
<polygon fill="black" stroke="black" stroke-width="2" points="503.558,-259.88 513.555,-263.389 507.928,-254.412 503.558,-259.88"/>
</g>
<!-- 12&#45;&gt;13 -->
<g id="edge66" class="edge"><title>12&#45;&gt;13</title>
<path fill="none" stroke="#00657f" stroke-width="2" d="M301.316,-198.701C321.19,-208.157 351.048,-222.364 373.452,-233.024"/>
<polygon fill="#00657f" stroke="#00657f" stroke-width="2" points="372.013,-236.215 382.547,-237.351 375.021,-229.894 372.013,-236.215"/>
</g>
</g>
</svg>
