<?xml version="1.0" encoding="UTF-8" standalone="no"?>
<!DOCTYPE svg PUBLIC "-//W3C//DTD SVG 1.1//EN"
 "http://www.w3.org/Graphics/SVG/1.1/DTD/svg11.dtd">
<!-- Generated by graphviz version 2.36.0 (20140111.2315)
 -->
<!-- Title: %3 Pages: 1 -->
<svg width="498pt" height="535pt"
 viewBox="0.00 0.00 498.00 535.18" xmlns="http://www.w3.org/2000/svg" xmlns:xlink="http://www.w3.org/1999/xlink">
<g id="graph0" class="graph" transform="scale(1 1) rotate(0) translate(4 531.176)">
<title>%3</title>
<polygon fill="white" stroke="none" points="-4,4 -4,-531.176 494,-531.176 494,4 -4,4"/>
<!-- 8 -->
<g id="node1" class="node"><title>8</title>
<ellipse fill="none" stroke="black" stroke-width="2" cx="241" cy="-408" rx="18" ry="18"/>
<text text-anchor="middle" x="241" y="-404.3" font-family="Times,serif" font-size="14.00">8</text>
</g>
<!-- T2 -->
<g id="node2" class="node"><title>T2</title>
<ellipse fill="none" stroke="black" stroke-width="2" cx="355" cy="-376" rx="20.5982" ry="20.5982"/>
<text text-anchor="middle" x="355" y="-372.3" font-family="Times,serif" font-size="14.00">T2</text>
</g>
<!-- 8&#45;&gt;T2 -->
<g id="edge1" class="edge"><title>8&#45;&gt;T2</title>
<path fill="none" stroke="black" stroke-width="2" stroke-dasharray="5,2" d="M258.526,-403.278C275.992,-398.288 303.88,-390.32 325.016,-384.281"/>
<polygon fill="black" stroke="black" stroke-width="2" points="326.121,-387.606 334.774,-381.493 324.198,-380.875 326.121,-387.606"/>
</g>
<!-- T1 -->
<g id="node3" class="node"><title>T1</title>
<ellipse fill="none" stroke="black" stroke-width="2" cx="469" cy="-280" rx="20.5982" ry="20.5982"/>
<text text-anchor="middle" x="469" y="-276.3" font-family="Times,serif" font-size="14.00">T1</text>
</g>
<!-- 8&#45;&gt;T1 -->
<g id="edge2" class="edge"><title>8&#45;&gt;T1</title>
<path fill="none" stroke="black" stroke-width="2" stroke-dasharray="5,2" d="M258.853,-411.055C285.481,-415.004 338.143,-419.186 376,-399 413.679,-378.909 440.758,-335.934 455.407,-307.505"/>
<polygon fill="black" stroke="black" stroke-width="2" points="458.578,-308.989 459.895,-298.476 452.31,-305.873 458.578,-308.989"/>
</g>
<!-- T5 -->
<g id="node4" class="node"><title>T5</title>
<ellipse fill="none" stroke="black" stroke-width="2" cx="241" cy="-326" rx="20.5982" ry="20.5982"/>
<text text-anchor="middle" x="241" y="-322.3" font-family="Times,serif" font-size="14.00">T5</text>
</g>
<!-- T5&#45;&gt;T2 -->
<g id="edge3" class="edge"><title>T5&#45;&gt;T2</title>
<path fill="none" stroke="black" stroke-width="2" stroke-dasharray="5,2" d="M260.495,-334.256C278.516,-342.302 306.129,-354.629 326.682,-363.805"/>
<polygon fill="black" stroke="black" stroke-width="2" points="325.291,-367.017 335.85,-367.897 328.145,-360.625 325.291,-367.017"/>
</g>
<!-- T5&#45;&gt;T1 -->
<g id="edge4" class="edge"><title>T5&#45;&gt;T1</title>
<path fill="none" stroke="black" stroke-width="2" stroke-dasharray="5,2" d="M261.661,-321.998C301.497,-313.89 391.919,-295.486 438.717,-285.96"/>
<polygon fill="black" stroke="black" stroke-width="2" points="439.445,-289.384 448.546,-283.96 438.049,-282.525 439.445,-289.384"/>
</g>
<!-- 5 -->
<g id="node5" class="node"><title>5</title>
<ellipse fill="none" stroke="black" stroke-width="2" cx="128" cy="-212" rx="18" ry="18"/>
<text text-anchor="middle" x="128" y="-208.3" font-family="Times,serif" font-size="14.00">5</text>
</g>
<!-- 5&#45;&gt;T2 -->
<g id="edge5" class="edge"><title>5&#45;&gt;T2</title>
<path fill="none" stroke="black" stroke-width="2" stroke-dasharray="5,2" d="M145.966,-214.664C172.723,-219.527 225.432,-231.851 262,-258 296.023,-282.329 323.642,-322.735 339.454,-349.369"/>
<polygon fill="black" stroke="black" stroke-width="2" points="336.507,-351.265 344.546,-358.166 342.566,-347.758 336.507,-351.265"/>
</g>
<!-- 5&#45;&gt;T1 -->
<g id="edge6" class="edge"><title>5&#45;&gt;T1</title>
<path fill="none" stroke="black" stroke-width="2" stroke-dasharray="5,2" d="M145.955,-210.146C186.683,-206.275 292.818,-199.66 376,-225 401.241,-232.689 426.746,-248.734 444.479,-261.52"/>
<polygon fill="black" stroke="black" stroke-width="2" points="442.406,-264.34 452.524,-267.484 446.575,-258.717 442.406,-264.34"/>
</g>
<!-- 12 -->
<g id="node6" class="node"><title>12</title>
<ellipse fill="none" stroke="black" stroke-width="2" cx="355" cy="-248" rx="19.4965" ry="19.4965"/>
<text text-anchor="middle" x="355" y="-244.3" font-family="Times,serif" font-size="14.00">12</text>
</g>
<!-- 5&#45;&gt;12 -->
<g id="edge7" class="edge"><title>5&#45;&gt;12</title>
<path fill="none" stroke="#7f0000" stroke-width="2" d="M146.326,-212.876C171.814,-214.349 220.85,-217.885 262,-225 283.936,-228.793 308.365,-234.995 326.535,-240.004"/>
<polygon fill="#7f0000" stroke="#7f0000" stroke-width="2" points="325.612,-243.38 336.186,-242.714 327.504,-236.641 325.612,-243.38"/>
</g>
<!-- 7 -->
<g id="node7" class="node"><title>7</title>
<ellipse fill="none" stroke="black" stroke-width="2" cx="241" cy="-280" rx="18" ry="18"/>
<text text-anchor="middle" x="241" y="-276.3" font-family="Times,serif" font-size="14.00">7</text>
</g>
<!-- 5&#45;&gt;7 -->
<g id="edge8" class="edge"><title>5&#45;&gt;7</title>
<path fill="none" stroke="black" stroke-width="2" stroke-dasharray="5,2" d="M144.434,-219.84C163.303,-230.644 195.401,-250.226 217.138,-264.134"/>
<polygon fill="black" stroke="black" stroke-width="2" points="215.454,-267.213 225.751,-269.705 219.256,-261.335 215.454,-267.213"/>
</g>
<!-- 5&#45;&gt;7 -->
<g id="edge9" class="edge"><title>5&#45;&gt;7</title>
<path fill="none" stroke="#cb007f" stroke-width="2" d="M143.058,-222.689C161.23,-234.871 193.173,-254.594 215.405,-267.474"/>
<polygon fill="#cb007f" stroke="#cb007f" stroke-width="2" points="213.849,-270.616 224.269,-272.532 217.319,-264.536 213.849,-270.616"/>
</g>
<!-- 11 -->
<g id="node8" class="node"><title>11</title>
<ellipse fill="none" stroke="black" stroke-width="2" cx="241" cy="-155" rx="19.4965" ry="19.4965"/>
<text text-anchor="middle" x="241" y="-151.3" font-family="Times,serif" font-size="14.00">11</text>
</g>
<!-- 5&#45;&gt;11 -->
<g id="edge10" class="edge"><title>5&#45;&gt;11</title>
<path fill="none" stroke="#33007f" stroke-width="2" d="M143.97,-202.717C161.806,-192.825 191.92,-177.244 213.676,-166.57"/>
<polygon fill="#33007f" stroke="#33007f" stroke-width="2" points="215.246,-169.699 222.719,-162.189 212.194,-163.4 215.246,-169.699"/>
</g>
<!-- 5&#45;&gt;11 -->
<g id="edge11" class="edge"><title>5&#45;&gt;11</title>
<path fill="none" stroke="#7f9900" stroke-width="2" d="M145.378,-205.792C163.87,-197.232 194.149,-181.796 215.466,-170.138"/>
<polygon fill="#7f9900" stroke="#7f9900" stroke-width="2" points="217.231,-173.161 224.273,-165.245 213.832,-167.042 217.231,-173.161"/>
</g>
<!-- 12&#45;&gt;T1 -->
<g id="edge20" class="edge"><title>12&#45;&gt;T1</title>
<path fill="none" stroke="black" stroke-width="2" stroke-dasharray="5,2" d="M373.995,-253.141C391.557,-258.159 418.562,-265.875 439.129,-271.751"/>
<polygon fill="black" stroke="black" stroke-width="2" points="438.349,-275.168 448.925,-274.55 440.272,-268.437 438.349,-275.168"/>
</g>
<!-- 7&#45;&gt;T2 -->
<g id="edge28" class="edge"><title>7&#45;&gt;T2</title>
<path fill="none" stroke="black" stroke-width="2" stroke-dasharray="5,2" d="M255.288,-291.389C273.866,-307.314 307.886,-336.474 330.723,-356.048"/>
<polygon fill="black" stroke="black" stroke-width="2" points="328.711,-358.933 338.581,-362.784 333.266,-353.618 328.711,-358.933"/>
</g>
<!-- 7&#45;&gt;T1 -->
<g id="edge29" class="edge"><title>7&#45;&gt;T1</title>
<path fill="none" stroke="black" stroke-width="2" stroke-dasharray="5,2" d="M259.359,-280C297.7,-280 390.001,-280 437.949,-280"/>
<polygon fill="black" stroke="black" stroke-width="2" points="438.024,-283.5 448.024,-280 438.024,-276.5 438.024,-283.5"/>
</g>
<!-- 7&#45;&gt;12 -->
<g id="edge30" class="edge"><title>7&#45;&gt;12</title>
<path fill="none" stroke="#00657f" stroke-width="2" d="M258.526,-275.278C276.305,-270.198 304.885,-262.033 326.149,-255.958"/>
<polygon fill="#00657f" stroke="#00657f" stroke-width="2" points="327.266,-259.278 335.92,-253.166 325.343,-252.548 327.266,-259.278"/>
</g>
<!-- 11&#45;&gt;T1 -->
<g id="edge38" class="edge"><title>11&#45;&gt;T1</title>
<path fill="none" stroke="black" stroke-width="2" stroke-dasharray="5,2" d="M260.565,-154.845C287.626,-155.387 338.735,-159.363 376,-180 408.207,-197.836 435.337,-231.089 451.61,-254.334"/>
<polygon fill="black" stroke="black" stroke-width="2" points="448.784,-256.402 457.303,-262.7 454.571,-252.463 448.784,-256.402"/>
</g>
<!-- 11&#45;&gt;12 -->
<g id="edge39" class="edge"><title>11&#45;&gt;12</title>
<path fill="none" stroke="#00657f" stroke-width="2" d="M256.642,-167.158C275.675,-182.962 309.11,-210.725 331.407,-229.24"/>
<polygon fill="#00657f" stroke="#00657f" stroke-width="2" points="329.425,-232.143 339.354,-235.839 333.897,-226.758 329.425,-232.143"/>
</g>
<!-- 4 -->
<g id="node9" class="node"><title>4</title>
<ellipse fill="none" stroke="black" stroke-width="2" cx="128" cy="-379" rx="18" ry="18"/>
<text text-anchor="middle" x="128" y="-375.3" font-family="Times,serif" font-size="14.00">4</text>
</g>
<!-- 4&#45;&gt;8 -->
<g id="edge12" class="edge"><title>4&#45;&gt;8</title>
<path fill="none" stroke="#33007f" stroke-width="2" d="M145.859,-383.404C163.81,-388.094 192.469,-395.582 213.455,-401.065"/>
<polygon fill="#33007f" stroke="#33007f" stroke-width="2" points="212.787,-404.508 223.347,-403.649 214.556,-397.735 212.787,-404.508"/>
</g>
<!-- 4&#45;&gt;T2 -->
<g id="edge13" class="edge"><title>4&#45;&gt;T2</title>
<path fill="none" stroke="black" stroke-width="2" stroke-dasharray="5,2" d="M146.282,-378.77C184.453,-378.261 276.346,-377.035 324.082,-376.399"/>
<polygon fill="black" stroke="black" stroke-width="2" points="324.16,-379.898 334.112,-376.265 324.066,-372.899 324.16,-379.898"/>
</g>
<!-- 4&#45;&gt;T1 -->
<g id="edge14" class="edge"><title>4&#45;&gt;T1</title>
<path fill="none" stroke="black" stroke-width="2" stroke-dasharray="5,2" d="M142.86,-389.558C159.928,-401.833 190.317,-421.382 220,-429 263.197,-440.086 370.305,-414.551 376,-411 415.154,-386.585 442.218,-338.737 456.406,-308.121"/>
<polygon fill="black" stroke="black" stroke-width="2" points="459.67,-309.395 460.558,-298.837 453.28,-306.536 459.67,-309.395"/>
</g>
<!-- 4&#45;&gt;12 -->
<g id="edge15" class="edge"><title>4&#45;&gt;12</title>
<path fill="none" stroke="#007f65" stroke-width="2" d="M146.143,-376.483C172.684,-373.753 224.559,-367.783 262,-346 293.673,-327.573 320.624,-294.603 337.016,-272.014"/>
<polygon fill="#007f65" stroke="#007f65" stroke-width="2" points="340.037,-273.805 342.973,-263.625 334.329,-269.752 340.037,-273.805"/>
</g>
<!-- 4&#45;&gt;12 -->
<g id="edge16" class="edge"><title>4&#45;&gt;12</title>
<path fill="none" stroke="#7f0000" stroke-width="2" d="M146.143,-380.926C172.684,-380.753 224.559,-374.783 262,-353 295.449,-333.539 323.632,-297.859 339.674,-273.503"/>
<polygon fill="#7f0000" stroke="#7f0000" stroke-width="2" points="342.807,-275.098 345.213,-264.781 336.898,-271.346 342.807,-275.098"/>
</g>
<!-- 4&#45;&gt;7 -->
<g id="edge17" class="edge"><title>4&#45;&gt;7</title>
<path fill="none" stroke="black" stroke-width="2" stroke-dasharray="5,2" d="M142.169,-367.255C161.195,-350.285 196.563,-318.741 219.156,-298.59"/>
<polygon fill="black" stroke="black" stroke-width="2" points="221.715,-300.998 226.848,-291.73 217.055,-295.774 221.715,-300.998"/>
</g>
<!-- 9 -->
<g id="node10" class="node"><title>9</title>
<ellipse fill="none" stroke="black" stroke-width="2" cx="241" cy="-466" rx="18" ry="18"/>
<text text-anchor="middle" x="241" y="-462.3" font-family="Times,serif" font-size="14.00">9</text>
</g>
<!-- 4&#45;&gt;9 -->
<g id="edge18" class="edge"><title>4&#45;&gt;9</title>
<path fill="none" stroke="#7f9900" stroke-width="2" d="M143.511,-388.797C162.791,-403.095 196.982,-429.817 219.058,-447.78"/>
<polygon fill="#7f9900" stroke="#7f9900" stroke-width="2" points="216.918,-450.552 226.869,-454.191 221.36,-445.141 216.918,-450.552"/>
</g>
<!-- 4&#45;&gt;9 -->
<g id="edge19" class="edge"><title>4&#45;&gt;9</title>
<path fill="none" stroke="#cb007f" stroke-width="2" d="M141.733,-390.977C160.113,-406.534 194.371,-433.545 217.184,-450.596"/>
<polygon fill="#cb007f" stroke="#cb007f" stroke-width="2" points="215.187,-453.473 225.31,-456.599 219.346,-447.842 215.187,-453.473"/>
</g>
<!-- 9&#45;&gt;T2 -->
<g id="edge31" class="edge"><title>9&#45;&gt;T2</title>
<path fill="none" stroke="black" stroke-width="2" stroke-dasharray="5,2" d="M255.733,-454.964C274.358,-439.998 307.894,-413.049 330.548,-394.846"/>
<polygon fill="black" stroke="black" stroke-width="2" points="332.75,-397.566 338.353,-388.573 328.366,-392.109 332.75,-397.566"/>
</g>
<!-- 1 -->
<g id="node11" class="node"><title>1</title>
<ellipse fill="none" stroke="black" stroke-width="2" cx="128" cy="-466" rx="18" ry="18"/>
<text text-anchor="middle" x="128" y="-462.3" font-family="Times,serif" font-size="14.00">1</text>
</g>
<!-- 1&#45;&gt;8 -->
<g id="edge21" class="edge"><title>1&#45;&gt;8</title>
<path fill="none" stroke="#7f0000" stroke-width="2" d="M143.511,-456.84C161.633,-446.607 192.926,-430.143 214.952,-419.171"/>
<polygon fill="#7f0000" stroke="#7f0000" stroke-width="2" points="216.618,-422.252 224.048,-414.7 213.53,-415.97 216.618,-422.252"/>
</g>
<!-- 1&#45;&gt;8 -->
<g id="edge22" class="edge"><title>1&#45;&gt;8</title>
<path fill="none" stroke="#00657f" stroke-width="2" d="M145.378,-459.644C164.29,-450.72 195.532,-434.491 216.905,-422.557"/>
<polygon fill="#00657f" stroke="#00657f" stroke-width="2" points="218.705,-425.559 225.673,-417.578 215.249,-419.472 218.705,-425.559"/>
</g>
<!-- 1&#45;&gt;T2 -->
<g id="edge23" class="edge"><title>1&#45;&gt;T2</title>
<path fill="none" stroke="black" stroke-width="2" stroke-dasharray="5,2" d="M143.293,-475.929C168.446,-492.067 221.764,-520.249 262,-500 301.54,-480.102 328.349,-434.281 342.4,-404.259"/>
<polygon fill="black" stroke="black" stroke-width="2" points="345.6,-405.675 346.513,-395.119 339.217,-402.802 345.6,-405.675"/>
</g>
<!-- 1&#45;&gt;T1 -->
<g id="edge24" class="edge"><title>1&#45;&gt;T1</title>
<path fill="none" stroke="black" stroke-width="2" stroke-dasharray="5,2" d="M143.03,-476.376C167.34,-493.029 218.834,-522.456 262,-508 360.339,-475.067 428.116,-360.674 455.039,-307.53"/>
<polygon fill="black" stroke="black" stroke-width="2" points="458.283,-308.867 459.589,-298.353 452.011,-305.758 458.283,-308.867"/>
</g>
<!-- 1&#45;&gt;12 -->
<g id="edge25" class="edge"><title>1&#45;&gt;12</title>
<path fill="none" stroke="#007f65" stroke-width="2" d="M144.077,-474.701C170.442,-488.644 225.577,-512.008 262,-487 298.058,-462.243 333.034,-334.364 347.292,-276.499"/>
<polygon fill="#007f65" stroke="#007f65" stroke-width="2" points="350.749,-277.094 349.709,-266.55 343.947,-275.442 350.749,-277.094"/>
</g>
<!-- 1&#45;&gt;9 -->
<g id="edge26" class="edge"><title>1&#45;&gt;9</title>
<path fill="none" stroke="#33007f" stroke-width="2" d="M146.344,-464.312C164.102,-463.673 191.96,-463.579 212.683,-464.031"/>
<polygon fill="#33007f" stroke="#33007f" stroke-width="2" points="212.683,-467.532 222.778,-464.317 212.881,-460.535 212.683,-467.532"/>
</g>
<!-- 1&#45;&gt;9 -->
<g id="edge27" class="edge"><title>1&#45;&gt;9</title>
<path fill="none" stroke="#327f00" stroke-width="2" d="M146.344,-468.25C164.102,-469.103 191.96,-469.228 212.683,-468.626"/>
<polygon fill="#327f00" stroke="#327f00" stroke-width="2" points="212.917,-472.119 222.778,-468.244 212.653,-465.124 212.917,-472.119"/>
</g>
<!-- T3 -->
<g id="node12" class="node"><title>T3</title>
<ellipse fill="none" stroke="black" stroke-width="2" cx="241" cy="-36" rx="20.5982" ry="20.5982"/>
<text text-anchor="middle" x="241" y="-32.3" font-family="Times,serif" font-size="14.00">T3</text>
</g>
<!-- T4 -->
<g id="node13" class="node"><title>T4</title>
<ellipse fill="none" stroke="black" stroke-width="2" cx="355" cy="-20" rx="20.5982" ry="20.5982"/>
<text text-anchor="middle" x="355" y="-16.3" font-family="Times,serif" font-size="14.00">T4</text>
</g>
<!-- T3&#45;&gt;T4 -->
<g id="edge32" class="edge"><title>T3&#45;&gt;T4</title>
<path fill="none" stroke="black" stroke-width="2" stroke-dasharray="5,2" d="M261.766,-33.1764C279.013,-30.7125 304.296,-27.1006 324.031,-24.2813"/>
<polygon fill="black" stroke="black" stroke-width="2" points="324.651,-27.7284 334.055,-22.8492 323.661,-20.7987 324.651,-27.7284"/>
</g>
<!-- 6 -->
<g id="node14" class="node"><title>6</title>
<ellipse fill="none" stroke="black" stroke-width="2" cx="128" cy="-155" rx="18" ry="18"/>
<text text-anchor="middle" x="128" y="-151.3" font-family="Times,serif" font-size="14.00">6</text>
</g>
<!-- 6&#45;&gt;T2 -->
<g id="edge33" class="edge"><title>6&#45;&gt;T2</title>
<path fill="none" stroke="black" stroke-width="2" stroke-dasharray="5,2" d="M144.854,-161.825C171.434,-173.843 225.643,-200.871 262,-236 296.726,-269.554 325.106,-318.472 340.765,-348.712"/>
<polygon fill="black" stroke="black" stroke-width="2" points="337.747,-350.498 345.394,-357.831 343.988,-347.33 337.747,-350.498"/>
</g>
<!-- 6&#45;&gt;T1 -->
<g id="edge34" class="edge"><title>6&#45;&gt;T1</title>
<path fill="none" stroke="black" stroke-width="2" stroke-dasharray="5,2" d="M144.724,-148.107C162.567,-140.693 192.735,-129.378 220,-125 290.563,-113.669 317.625,-122.769 376,-164 409.617,-187.744 437.173,-227.167 453.098,-253.366"/>
<polygon fill="black" stroke="black" stroke-width="2" points="450.127,-255.217 458.237,-262.034 456.148,-251.647 450.127,-255.217"/>
</g>
<!-- 6&#45;&gt;12 -->
<g id="edge35" class="edge"><title>6&#45;&gt;12</title>
<path fill="none" stroke="#00657f" stroke-width="2" d="M144.181,-146.935C169.769,-134.519 222.554,-114.041 262,-133 299.93,-151.23 327.117,-193.557 341.696,-221.458"/>
<polygon fill="#00657f" stroke="#00657f" stroke-width="2" points="338.705,-223.301 346.324,-230.663 344.959,-220.156 338.705,-223.301"/>
</g>
<!-- 6&#45;&gt;11 -->
<g id="edge37" class="edge"><title>6&#45;&gt;11</title>
<path fill="none" stroke="#33007f" stroke-width="2" d="M146.344,-155C163.686,-155 190.662,-155 211.217,-155"/>
<polygon fill="#33007f" stroke="#33007f" stroke-width="2" points="211.296,-158.5 221.296,-155 211.296,-151.5 211.296,-158.5"/>
</g>
<!-- 6&#45;&gt;T3 -->
<g id="edge36" class="edge"><title>6&#45;&gt;T3</title>
<path fill="none" stroke="black" stroke-width="2" stroke-dasharray="5,2" d="M140.879,-142.265C159.551,-122.247 196.019,-83.1503 219.135,-58.3689"/>
<polygon fill="black" stroke="black" stroke-width="2" points="221.87,-60.5683 226.131,-50.8683 216.751,-55.7936 221.87,-60.5683"/>
</g>
<!-- S -->
<g id="node15" class="node"><title>S</title>
<ellipse fill="none" stroke="black" stroke-width="2" cx="18" cy="-268" rx="18" ry="18"/>
<text text-anchor="middle" x="18" y="-264.3" font-family="Times,serif" font-size="14.00">S</text>
</g>
<!-- S&#45;&gt;T2 -->
<g id="edge40" class="edge"><title>S&#45;&gt;T2</title>
<path fill="none" stroke="black" stroke-width="2" stroke-dasharray="5,2" d="M21.9173,-296.264C28.3881,-343.562 48.442,-438.336 108,-487 161.492,-530.707 200.762,-539.963 262,-508 307.812,-484.088 335.457,-425.802 347.267,-395.31"/>
<polygon fill="black" stroke="black" stroke-width="2" points="25.3619,-295.605 20.6401,-286.12 18.4168,-296.479 25.3619,-295.605"/>
</g>
<!-- S&#45;&gt;T1 -->
<g id="edge41" class="edge"><title>S&#45;&gt;T1</title>
<path fill="none" stroke="black" stroke-width="2" stroke-dasharray="5,2" d="M20.5909,-296.464C25.0874,-347.379 42.2819,-453.608 108,-506 147.27,-537.307 169.889,-517.659 220,-521 238.625,-522.242 244.036,-526.075 262,-521 319.216,-504.836 335.175,-494.224 376,-451 419.865,-404.557 449.2,-333.173 461.481,-299.22"/>
<polygon fill="black" stroke="black" stroke-width="2" points="24.057,-295.891 19.792,-286.193 17.0781,-296.434 24.057,-295.891"/>
</g>
<!-- S&#45;&gt;T5 -->
<g id="edge42" class="edge"><title>S&#45;&gt;T5</title>
<path fill="none" stroke="black" stroke-width="2" stroke-dasharray="5,2" d="M45.5264,-274.962C90.6018,-286.791 181.102,-310.543 220.702,-320.935"/>
<polygon fill="black" stroke="black" stroke-width="2" points="46.1719,-271.513 35.6109,-272.359 44.3949,-278.283 46.1719,-271.513"/>
</g>
<!-- S&#45;&gt;5 -->
<g id="edge43" class="edge"><title>S&#45;&gt;5</title>
<path fill="none" stroke="#327f00" stroke-width="2" d="M34.4738,-259.977C52.2778,-250.745 81.7405,-235.468 102.632,-224.635"/>
<polygon fill="#327f00" stroke="#327f00" stroke-width="2" points="104.289,-227.719 111.555,-220.009 101.066,-221.505 104.289,-227.719"/>
</g>
<!-- S&#45;&gt;4 -->
<g id="edge44" class="edge"><title>S&#45;&gt;4</title>
<path fill="none" stroke="#00ff7f" stroke-width="2" d="M31.389,-280.733C50.0246,-299.886 85.4365,-336.282 107.541,-359.001"/>
<polygon fill="#00ff7f" stroke="#00ff7f" stroke-width="2" points="105.273,-361.689 114.756,-366.415 110.29,-356.807 105.273,-361.689"/>
</g>
<!-- S&#45;&gt;1 -->
<g id="edge45" class="edge"><title>S&#45;&gt;1</title>
<path fill="none" stroke="#cc7f00" stroke-width="2" d="M27.4746,-283.537C46.2046,-317.875 91.24,-400.44 113.74,-441.69"/>
<polygon fill="#cc7f00" stroke="#cc7f00" stroke-width="2" points="110.704,-443.432 118.565,-450.535 116.849,-440.08 110.704,-443.432"/>
</g>
<!-- S&#45;&gt;T3 -->
<g id="edge46" class="edge"><title>S&#45;&gt;T3</title>
<path fill="none" stroke="black" stroke-width="2" stroke-dasharray="5,2" d="M23.1495,-240.247C31.2387,-196.296 53.3741,-111.051 108,-66 140.454,-39.2347 192.059,-35.2318 220.166,-35.2452"/>
<polygon fill="black" stroke="black" stroke-width="2" points="19.6783,-239.781 21.4248,-250.231 26.5761,-240.973 19.6783,-239.781"/>
</g>
<!-- S&#45;&gt;T4 -->
<g id="edge47" class="edge"><title>S&#45;&gt;T4</title>
<path fill="none" stroke="black" stroke-width="2" stroke-dasharray="5,2" d="M22.3065,-239.877C29.3565,-192.694 50.249,-97.6048 108,-45 172.265,13.5386 288.784,-4.89005 334.679,-15.1493"/>
<polygon fill="black" stroke="black" stroke-width="2" points="18.8112,-239.601 20.9001,-249.988 25.7445,-240.565 18.8112,-239.601"/>
</g>
<!-- S&#45;&gt;6 -->
<g id="edge48" class="edge"><title>S&#45;&gt;6</title>
<path fill="none" stroke="#00657f" stroke-width="2" d="M30.5579,-254.45C48.8426,-234.388 84.6655,-196.795 107.131,-173.999"/>
<polygon fill="#00657f" stroke="#00657f" stroke-width="2" points="109.634,-176.445 114.194,-166.881 104.665,-171.515 109.634,-176.445"/>
</g>
<!-- S&#45;&gt;6 -->
<g id="edge49" class="edge"><title>S&#45;&gt;6</title>
<path fill="none" stroke="#7f0000" stroke-width="2" d="M32.2429,-256.195C51.5743,-237.147 87.5662,-199.57 109.197,-175.922"/>
<polygon fill="#7f0000" stroke="#7f0000" stroke-width="2" points="111.816,-178.244 115.937,-168.483 106.629,-173.544 111.816,-178.244"/>
</g>
<!-- 2 -->
<g id="node16" class="node"><title>2</title>
<ellipse fill="none" stroke="black" stroke-width="2" cx="128" cy="-326" rx="18" ry="18"/>
<text text-anchor="middle" x="128" y="-322.3" font-family="Times,serif" font-size="14.00">2</text>
</g>
<!-- S&#45;&gt;2 -->
<g id="edge50" class="edge"><title>S&#45;&gt;2</title>
<path fill="none" stroke="#cb007f" stroke-width="2" d="M34.4738,-276.31C52.379,-285.926 82.0757,-301.874 102.987,-313.104"/>
<polygon fill="#cb007f" stroke="#cb007f" stroke-width="2" points="101.437,-316.245 111.903,-317.892 104.749,-310.078 101.437,-316.245"/>
</g>
<!-- 10 -->
<g id="node17" class="node"><title>10</title>
<ellipse fill="none" stroke="black" stroke-width="2" cx="128" cy="-89" rx="19.4965" ry="19.4965"/>
<text text-anchor="middle" x="128" y="-85.3" font-family="Times,serif" font-size="14.00">10</text>
</g>
<!-- S&#45;&gt;10 -->
<g id="edge51" class="edge"><title>S&#45;&gt;10</title>
<path fill="none" stroke="#007f65" stroke-width="2" d="M28.0223,-253.046C46.5297,-222.372 88.9641,-152.041 111.796,-114.199"/>
<polygon fill="#007f65" stroke="#007f65" stroke-width="2" points="114.983,-115.693 117.152,-105.322 108.989,-112.076 114.983,-115.693"/>
</g>
<!-- 3 -->
<g id="node18" class="node"><title>3</title>
<ellipse fill="none" stroke="black" stroke-width="2" cx="128" cy="-268" rx="18" ry="18"/>
<text text-anchor="middle" x="128" y="-264.3" font-family="Times,serif" font-size="14.00">3</text>
</g>
<!-- S&#45;&gt;3 -->
<g id="edge52" class="edge"><title>S&#45;&gt;3</title>
<path fill="none" stroke="#7f9900" stroke-width="2" d="M36.3521,-268C53.4357,-268 79.785,-268 99.6805,-268"/>
<polygon fill="#7f9900" stroke="#7f9900" stroke-width="2" points="99.691,-271.5 109.691,-268 99.691,-264.5 99.691,-271.5"/>
</g>
<!-- 2&#45;&gt;8 -->
<g id="edge53" class="edge"><title>2&#45;&gt;8</title>
<path fill="none" stroke="#00657f" stroke-width="2" d="M143.058,-336.385C161.907,-350.31 195.574,-375.18 217.849,-391.636"/>
<polygon fill="#00657f" stroke="#00657f" stroke-width="2" points="215.933,-394.572 226.056,-397.699 220.092,-388.942 215.933,-394.572"/>
</g>
<!-- 2&#45;&gt;T5 -->
<g id="edge54" class="edge"><title>2&#45;&gt;T5</title>
<path fill="none" stroke="black" stroke-width="2" stroke-dasharray="5,2" d="M146.344,-326C163.375,-326 189.696,-326 210.103,-326"/>
<polygon fill="black" stroke="black" stroke-width="2" points="210.155,-329.5 220.155,-326 210.155,-322.5 210.155,-329.5"/>
</g>
<!-- 2&#45;&gt;7 -->
<g id="edge55" class="edge"><title>2&#45;&gt;7</title>
<path fill="none" stroke="#33007f" stroke-width="2" d="M144.904,-319.409C163.12,-311.86 193.211,-299.39 214.664,-290.499"/>
<polygon fill="#33007f" stroke="#33007f" stroke-width="2" points="216.228,-293.64 224.126,-286.578 213.548,-287.174 216.228,-293.64"/>
</g>
<!-- 10&#45;&gt;T1 -->
<g id="edge56" class="edge"><title>10&#45;&gt;T1</title>
<path fill="none" stroke="black" stroke-width="2" stroke-dasharray="5,2" d="M147.542,-87.6094C191.746,-85.2774 304.931,-85.2138 376,-138 415.536,-167.365 442.746,-219.172 456.818,-251.431"/>
<polygon fill="black" stroke="black" stroke-width="2" points="453.647,-252.918 460.763,-260.768 460.095,-250.194 453.647,-252.918"/>
</g>
<!-- 10&#45;&gt;12 -->
<g id="edge57" class="edge"><title>10&#45;&gt;12</title>
<path fill="none" stroke="#7f9900" stroke-width="2" d="M147.334,-85.6708C174.525,-85.7531 226.179,-93.6788 262,-118 300.057,-143.839 328.598,-190.704 343.168,-220.668"/>
<polygon fill="#7f9900" stroke="#7f9900" stroke-width="2" points="340.177,-222.535 347.567,-230.127 346.524,-219.584 340.177,-222.535"/>
</g>
<!-- 10&#45;&gt;12 -->
<g id="edge58" class="edge"><title>10&#45;&gt;12</title>
<path fill="none" stroke="#327f00" stroke-width="2" d="M147.787,-90.2396C175.096,-92.8412 226.377,-100.813 262,-125 298.471,-149.763 326.203,-193.835 341.275,-221.952"/>
<polygon fill="#327f00" stroke="#327f00" stroke-width="2" points="338.172,-223.572 345.895,-230.825 344.381,-220.339 338.172,-223.572"/>
</g>
<!-- 10&#45;&gt;12 -->
<g id="edge59" class="edge"><title>10&#45;&gt;12</title>
<path fill="none" stroke="#00657f" stroke-width="2" d="M146.886,-94.6395C173.954,-99.6661 225.981,-107.544 262,-132 296.734,-155.583 323.541,-196.68 339.035,-223.201"/>
<polygon fill="#00657f" stroke="#00657f" stroke-width="2" points="336.026,-224.989 344.038,-231.921 342.097,-221.506 336.026,-224.989"/>
</g>
<!-- 10&#45;&gt;11 -->
<g id="edge61" class="edge"><title>10&#45;&gt;11</title>
<path fill="none" stroke="#cb007f" stroke-width="2" d="M145.378,-98.7385C163.765,-109.671 193.806,-127.533 215.102,-140.196"/>
<polygon fill="#cb007f" stroke="#cb007f" stroke-width="2" points="213.531,-143.334 223.915,-145.436 217.109,-137.317 213.531,-143.334"/>
</g>
<!-- 10&#45;&gt;T3 -->
<g id="edge60" class="edge"><title>10&#45;&gt;T3</title>
<path fill="none" stroke="black" stroke-width="2" stroke-dasharray="5,2" d="M145.859,-80.9504C163.635,-72.4625 191.911,-58.9612 212.84,-48.9684"/>
<polygon fill="black" stroke="black" stroke-width="2" points="214.358,-52.1219 221.874,-44.6546 211.342,-45.805 214.358,-52.1219"/>
</g>
<!-- 3&#45;&gt;8 -->
<g id="edge62" class="edge"><title>3&#45;&gt;8</title>
<path fill="none" stroke="#cb007f" stroke-width="2" d="M139.845,-281.679C159.11,-305.976 199.446,-356.85 222.622,-386.081"/>
<polygon fill="#cb007f" stroke="#cb007f" stroke-width="2" points="219.991,-388.397 228.946,-394.058 225.476,-384.048 219.991,-388.397"/>
</g>
<!-- 3&#45;&gt;T5 -->
<g id="edge63" class="edge"><title>3&#45;&gt;T5</title>
<path fill="none" stroke="black" stroke-width="2" stroke-dasharray="5,2" d="M144.434,-276.065C162.181,-285.338 191.63,-300.726 213.156,-311.973"/>
<polygon fill="black" stroke="black" stroke-width="2" points="211.643,-315.132 222.127,-316.661 214.885,-308.928 211.643,-315.132"/>
</g>
<!-- 3&#45;&gt;12 -->
<g id="edge64" class="edge"><title>3&#45;&gt;12</title>
<path fill="none" stroke="#7f0000" stroke-width="2" d="M145.764,-264.046C164.016,-261.38 194.07,-258.346 220,-256 256.165,-252.727 297.859,-249.37 325.008,-247.913"/>
<polygon fill="#7f0000" stroke="#7f0000" stroke-width="2" points="325.525,-251.392 335.349,-247.424 325.195,-244.4 325.525,-251.392"/>
</g>
<!-- 3&#45;&gt;12 -->
<g id="edge65" class="edge"><title>3&#45;&gt;12</title>
<path fill="none" stroke="#00657f" stroke-width="2" d="M146.099,-269.19C164.383,-268.343 194.228,-265.332 220,-263 256.531,-259.694 298.704,-256.302 325.828,-253.25"/>
<polygon fill="#00657f" stroke="#00657f" stroke-width="2" points="326.274,-256.722 335.786,-252.054 325.439,-249.772 326.274,-256.722"/>
</g>
<!-- 3&#45;&gt;7 -->
<g id="edge66" class="edge"><title>3&#45;&gt;7</title>
<path fill="none" stroke="#33007f" stroke-width="2" d="M146.344,-269.875C164.102,-271.795 191.96,-274.807 212.683,-277.047"/>
<polygon fill="#33007f" stroke="#33007f" stroke-width="2" points="212.46,-280.543 222.778,-278.138 213.212,-273.584 212.46,-280.543"/>
</g>
</g>
</svg>
