<?xml version="1.0" encoding="UTF-8" standalone="no"?>
<!DOCTYPE svg PUBLIC "-//W3C//DTD SVG 1.1//EN"
 "http://www.w3.org/Graphics/SVG/1.1/DTD/svg11.dtd">
<!-- Generated by graphviz version 2.36.0 (20140111.2315)
 -->
<!-- Title: %3 Pages: 1 -->
<svg width="1268pt" height="630pt"
 viewBox="0.00 0.00 1268.00 629.51" xmlns="http://www.w3.org/2000/svg" xmlns:xlink="http://www.w3.org/1999/xlink">
<g id="graph0" class="graph" transform="scale(1 1) rotate(0) translate(4 625.508)">
<title>%3</title>
<polygon fill="white" stroke="none" points="-4,4 -4,-625.508 1264,-625.508 1264,4 -4,4"/>
<!-- 14 -->
<g id="node1" class="node"><title>14</title>
<ellipse fill="none" stroke="black" stroke-width="2" cx="572" cy="-440.962" rx="19.4965" ry="19.4965"/>
<text text-anchor="middle" x="572" y="-437.262" font-family="Times,serif" font-size="14.00">14</text>
</g>
<!-- 21 -->
<g id="node2" class="node"><title>21</title>
<ellipse fill="none" stroke="black" stroke-width="2" cx="796" cy="-365.962" rx="19.4965" ry="19.4965"/>
<text text-anchor="middle" x="796" y="-362.262" font-family="Times,serif" font-size="14.00">21</text>
</g>
<!-- 14&#45;&gt;21 -->
<g id="edge1" class="edge"><title>14&#45;&gt;21</title>
<path fill="none" stroke="#7f006d" stroke-width="4" d="M586.004,-427.49C602.453,-411.45 632.461,-385.397 664,-373.962 697.661,-361.758 739.357,-361.522 766.541,-363.16"/>
<polygon fill="#7f006d" stroke="#7f006d" stroke-width="4" points="766.318,-366.653 776.546,-363.888 766.826,-359.671 766.318,-366.653"/>
</g>
<!-- T -->
<g id="node3" class="node"><title>T</title>
<ellipse fill="none" stroke="black" stroke-width="2" cx="1242" cy="-395.962" rx="18" ry="18"/>
<text text-anchor="middle" x="1242" y="-392.262" font-family="Times,serif" font-size="14.00">T</text>
</g>
<!-- 14&#45;&gt;T -->
<g id="edge2" class="edge"><title>14&#45;&gt;T</title>
<path fill="none" stroke="black" stroke-width="4" d="M591.71,-441.492C617.178,-442.353 664.154,-444.437 704,-448.962 736.234,-452.623 743.795,-457.057 776,-460.962 833.967,-467.991 848.608,-470.962 907,-470.962 907,-470.962 907,-470.962 1021,-470.962 1079.39,-470.962 1097.22,-481.176 1152,-460.962 1178.69,-451.115 1204.39,-430.783 1221.26,-415.465"/>
<polygon fill="black" stroke="black" stroke-width="4" points="1223.88,-417.804 1228.79,-408.416 1219.1,-412.692 1223.88,-417.804"/>
</g>
<!-- 15 -->
<g id="node4" class="node"><title>15</title>
<ellipse fill="none" stroke="black" stroke-width="2" cx="684" cy="-470.962" rx="19.4965" ry="19.4965"/>
<text text-anchor="middle" x="684" y="-467.262" font-family="Times,serif" font-size="14.00">15</text>
</g>
<!-- 14&#45;&gt;15 -->
<g id="edge3" class="edge"><title>14&#45;&gt;15</title>
<path fill="none" stroke="#b6007f" stroke-width="4" d="M591.164,-445.916C608.52,-450.649 634.933,-457.853 654.985,-463.322"/>
<polygon fill="#b6007f" stroke="#b6007f" stroke-width="4" points="654.24,-466.746 664.809,-466.001 656.082,-459.993 654.24,-466.746"/>
</g>
<!-- 21&#45;&gt;T -->
<g id="edge4" class="edge"><title>21&#45;&gt;T</title>
<path fill="none" stroke="black" stroke-width="4" d="M811.699,-377.619C828.854,-390.41 858.631,-410.163 888,-417.962 1006.69,-449.482 1155.37,-418.327 1214.75,-403.187"/>
<polygon fill="black" stroke="black" stroke-width="4" points="1215.66,-406.565 1224.45,-400.65 1213.89,-399.793 1215.66,-406.565"/>
</g>
<!-- 26 -->
<g id="node5" class="node"><title>26</title>
<ellipse fill="none" stroke="black" stroke-width="2" cx="1020" cy="-195.962" rx="19.4965" ry="19.4965"/>
<text text-anchor="middle" x="1020" y="-192.262" font-family="Times,serif" font-size="14.00">26</text>
</g>
<!-- 21&#45;&gt;26 -->
<g id="edge5" class="edge"><title>21&#45;&gt;26</title>
<path fill="none" stroke="#7f006d" stroke-width="4" d="M811.911,-354.544C849.904,-325.45 950.554,-248.376 996.072,-213.52"/>
<polygon fill="#7f006d" stroke="#7f006d" stroke-width="4" points="998.343,-216.189 1004.15,-207.331 994.087,-210.632 998.343,-216.189"/>
</g>
<!-- 24 -->
<g id="node6" class="node"><title>24</title>
<ellipse fill="none" stroke="black" stroke-width="2" cx="908" cy="-395.962" rx="19.4965" ry="19.4965"/>
<text text-anchor="middle" x="908" y="-392.262" font-family="Times,serif" font-size="14.00">24</text>
</g>
<!-- 21&#45;&gt;24 -->
<g id="edge6" class="edge"><title>21&#45;&gt;24</title>
<path fill="none" stroke="#b6007f" stroke-width="4" d="M815.164,-370.916C832.52,-375.649 858.933,-382.853 878.985,-388.322"/>
<polygon fill="#b6007f" stroke="#b6007f" stroke-width="4" points="878.24,-391.746 888.809,-391.001 880.082,-384.993 878.24,-391.746"/>
</g>
<!-- 27 -->
<g id="node7" class="node"><title>27</title>
<ellipse fill="none" stroke="black" stroke-width="2" cx="1132" cy="-305.962" rx="19.4965" ry="19.4965"/>
<text text-anchor="middle" x="1132" y="-302.262" font-family="Times,serif" font-size="14.00">27</text>
</g>
<!-- 21&#45;&gt;27 -->
<g id="edge7" class="edge"><title>21&#45;&gt;27</title>
<path fill="none" stroke="#00247f" stroke-width="4" d="M815.028,-361.585C855.403,-353.847 956.126,-337.788 1040,-321.962 1060.98,-318.003 1084.58,-313.062 1102.49,-309.625"/>
<polygon fill="#00247f" stroke="#00247f" stroke-width="4" points="1103.38,-313.02 1112.57,-307.748 1102.1,-306.138 1103.38,-313.02"/>
</g>
<!-- 21&#45;&gt;27 -->
<g id="edge8" class="edge"><title>21&#45;&gt;27</title>
<path fill="none" stroke="#7f6d00" stroke-width="4" d="M815.64,-365.204C856.412,-360.686 956.547,-344.709 1040,-328.962 1061.48,-324.91 1085.7,-319.828 1103.75,-315.348"/>
<polygon fill="#7f6d00" stroke="#7f6d00" stroke-width="4" points="1104.79,-318.692 1113.59,-312.792 1103.04,-311.916 1104.79,-318.692"/>
</g>
<!-- 15&#45;&gt;21 -->
<g id="edge97" class="edge"><title>15&#45;&gt;21</title>
<path fill="none" stroke="#b6007f" stroke-width="4" d="M698.932,-457.664C717.859,-439.597 751.862,-407.139 773.921,-386.083"/>
<polygon fill="#b6007f" stroke="#b6007f" stroke-width="4" points="776.365,-388.589 781.182,-379.153 771.531,-383.526 776.365,-388.589"/>
</g>
<!-- 15&#45;&gt;T -->
<g id="edge98" class="edge"><title>15&#45;&gt;T</title>
<path fill="none" stroke="black" stroke-width="4" d="M703.391,-473.048C741.377,-477.169 831.286,-485.962 907,-485.962 907,-485.962 907,-485.962 1021,-485.962 1079.39,-485.962 1098.31,-498.926 1152,-475.962 1181.45,-463.364 1207.71,-436.922 1223.94,-417.882"/>
<polygon fill="black" stroke="black" stroke-width="4" points="1226.79,-419.923 1230.46,-409.984 1221.4,-415.465 1226.79,-419.923"/>
</g>
<!-- 15&#45;&gt;24 -->
<g id="edge99" class="edge"><title>15&#45;&gt;24</title>
<path fill="none" stroke="#7f006d" stroke-width="4" d="M702.792,-464.951C741.532,-451.863 833.731,-420.715 879.811,-405.148"/>
<polygon fill="#7f006d" stroke="#7f006d" stroke-width="4" points="881.078,-408.414 889.432,-401.897 878.837,-401.782 881.078,-408.414"/>
</g>
<!-- 26&#45;&gt;T -->
<g id="edge34" class="edge"><title>26&#45;&gt;T</title>
<path fill="none" stroke="black" stroke-width="4" d="M1039.43,-199.702C1066.68,-206.018 1118.15,-221.035 1152,-249.962 1190.69,-283.028 1217.48,-337.287 1230.95,-369.523"/>
<polygon fill="black" stroke="black" stroke-width="4" points="1227.85,-371.206 1234.85,-379.16 1234.34,-368.578 1227.85,-371.206"/>
</g>
<!-- 26&#45;&gt;27 -->
<g id="edge35" class="edge"><title>26&#45;&gt;27</title>
<path fill="none" stroke="#b6007f" stroke-width="4" d="M1034.49,-209.45C1053.48,-228.438 1088.25,-263.208 1110.46,-285.42"/>
<polygon fill="#b6007f" stroke="#b6007f" stroke-width="4" points="1108.2,-288.111 1117.75,-292.707 1113.15,-283.161 1108.2,-288.111"/>
</g>
<!-- 24&#45;&gt;T -->
<g id="edge58" class="edge"><title>24&#45;&gt;T</title>
<path fill="none" stroke="black" stroke-width="4" d="M927.801,-395.962C983.43,-395.962 1147.43,-395.962 1213.22,-395.962"/>
<polygon fill="black" stroke="black" stroke-width="4" points="1213.62,-399.462 1223.62,-395.962 1213.62,-392.462 1213.62,-399.462"/>
</g>
<!-- 24&#45;&gt;26 -->
<g id="edge59" class="edge"><title>24&#45;&gt;26</title>
<path fill="none" stroke="#b6007f" stroke-width="4" d="M918.189,-379.254C937.447,-344.241 982.139,-262.983 1004.99,-221.429"/>
<polygon fill="#b6007f" stroke="#b6007f" stroke-width="4" points="1008.16,-222.931 1009.91,-212.482 1002.03,-219.557 1008.16,-222.931"/>
</g>
<!-- 24&#45;&gt;27 -->
<g id="edge60" class="edge"><title>24&#45;&gt;27</title>
<path fill="none" stroke="#7f006d" stroke-width="4" d="M927.212,-391.669C952.903,-385.33 1001,-372.421 1040,-355.962 1063.34,-346.113 1088.47,-332.013 1106.4,-321.296"/>
<polygon fill="#7f006d" stroke="#7f006d" stroke-width="4" points="1108.33,-324.217 1115.07,-316.04 1104.7,-318.231 1108.33,-324.217"/>
</g>
<!-- 27&#45;&gt;T -->
<g id="edge61" class="edge"><title>27&#45;&gt;T</title>
<path fill="none" stroke="black" stroke-width="4" d="M1147.57,-318.1C1166.17,-333.603 1198.5,-360.548 1219.83,-378.319"/>
<polygon fill="black" stroke="black" stroke-width="4" points="1217.76,-381.15 1227.68,-384.863 1222.24,-375.772 1217.76,-381.15"/>
</g>
<!-- 17 -->
<g id="node8" class="node"><title>17</title>
<ellipse fill="none" stroke="black" stroke-width="2" cx="684" cy="-113.962" rx="19.4965" ry="19.4965"/>
<text text-anchor="middle" x="684" y="-110.262" font-family="Times,serif" font-size="14.00">17</text>
</g>
<!-- 17&#45;&gt;21 -->
<g id="edge9" class="edge"><title>17&#45;&gt;21</title>
<path fill="none" stroke="black" stroke-width="4" d="M690.296,-132.221C702.25,-171.99 733.62,-268.743 776,-341.962 776.24,-342.376 776.486,-342.791 776.738,-343.205"/>
<polygon fill="black" stroke="black" stroke-width="4" points="774.064,-345.492 782.634,-351.722 779.82,-341.508 774.064,-345.492"/>
</g>
<!-- 17&#45;&gt;T -->
<g id="edge11" class="edge"><title>17&#45;&gt;T</title>
<path fill="none" stroke="black" stroke-width="4" d="M703.391,-111.876C741.377,-107.755 831.286,-98.9622 907,-98.9622 907,-98.9622 907,-98.9622 1021,-98.9622 1085.41,-98.9622 1108.31,-113.629 1152,-160.962 1207.71,-221.315 1229.61,-319.991 1237.3,-367.986"/>
<polygon fill="black" stroke="black" stroke-width="4" points="1233.86,-368.603 1238.81,-377.967 1240.78,-367.556 1233.86,-368.603"/>
</g>
<!-- 25 -->
<g id="node9" class="node"><title>25</title>
<ellipse fill="none" stroke="black" stroke-width="2" cx="908" cy="-143.962" rx="19.4965" ry="19.4965"/>
<text text-anchor="middle" x="908" y="-140.262" font-family="Times,serif" font-size="14.00">25</text>
</g>
<!-- 17&#45;&gt;25 -->
<g id="edge10" class="edge"><title>17&#45;&gt;25</title>
<path fill="none" stroke="#7f006d" stroke-width="4" d="M703.546,-116.468C742.411,-121.72 832.607,-133.909 878.732,-140.142"/>
<polygon fill="#7f006d" stroke="#7f006d" stroke-width="4" points="878.284,-143.613 888.663,-141.484 879.222,-136.676 878.284,-143.613"/>
</g>
<!-- 25&#45;&gt;T -->
<g id="edge12" class="edge"><title>25&#45;&gt;T</title>
<path fill="none" stroke="black" stroke-width="4" d="M927.78,-142.597C953.729,-141.33 1001.68,-141.24 1040,-153.962 1095.93,-172.535 1112.14,-181.552 1152,-224.962 1191.87,-268.376 1219,-332.987 1232.06,-369.083"/>
<polygon fill="black" stroke="black" stroke-width="4" points="1228.89,-370.62 1235.51,-378.891 1235.49,-368.296 1228.89,-370.62"/>
</g>
<!-- 25&#45;&gt;26 -->
<g id="edge13" class="edge"><title>25&#45;&gt;26</title>
<path fill="none" stroke="black" stroke-width="4" d="M926.188,-152.087C944.027,-160.521 972.155,-173.817 992.773,-183.564"/>
<polygon fill="black" stroke="black" stroke-width="4" points="991.397,-186.785 1001.93,-187.894 994.388,-180.456 991.397,-186.785"/>
</g>
<!-- 25&#45;&gt;27 -->
<g id="edge14" class="edge"><title>25&#45;&gt;27</title>
<path fill="none" stroke="#7f006d" stroke-width="4" d="M927.596,-143.905C954.609,-144.685 1005.26,-149.485 1040,-172.962 1078.91,-199.255 1105.91,-248.239 1119.9,-278.859"/>
<polygon fill="#7f006d" stroke="#7f006d" stroke-width="4" points="1116.74,-280.37 1123.98,-288.104 1123.14,-277.542 1116.74,-280.37"/>
</g>
<!-- 2 -->
<g id="node10" class="node"><title>2</title>
<ellipse fill="none" stroke="black" stroke-width="2" cx="236" cy="-472.962" rx="18" ry="18"/>
<text text-anchor="middle" x="236" y="-469.262" font-family="Times,serif" font-size="14.00">2</text>
</g>
<!-- 2&#45;&gt;T -->
<g id="edge15" class="edge"><title>2&#45;&gt;T</title>
<path fill="none" stroke="black" stroke-width="4" d="M249.268,-485.146C280.991,-515.295 369.522,-590.962 459,-590.962 459,-590.962 459,-590.962 1021,-590.962 1079.55,-590.962 1104.01,-610.512 1152,-576.962 1204.14,-540.509 1227.1,-464.632 1236.04,-423.65"/>
<polygon fill="black" stroke="black" stroke-width="4" points="1239.48,-424.289 1238.06,-413.79 1232.62,-422.881 1239.48,-424.289"/>
</g>
<!-- 6 -->
<g id="node11" class="node"><title>6</title>
<ellipse fill="none" stroke="black" stroke-width="2" cx="348" cy="-473.962" rx="18" ry="18"/>
<text text-anchor="middle" x="348" y="-470.262" font-family="Times,serif" font-size="14.00">6</text>
</g>
<!-- 2&#45;&gt;6 -->
<g id="edge16" class="edge"><title>2&#45;&gt;6</title>
<path fill="none" stroke="black" stroke-width="4" d="M254.188,-473.118C271.785,-473.278 299.393,-473.529 319.929,-473.716"/>
<polygon fill="black" stroke="black" stroke-width="4" points="319.902,-477.216 329.933,-473.807 319.965,-470.216 319.902,-477.216"/>
</g>
<!-- 9 -->
<g id="node12" class="node"><title>9</title>
<ellipse fill="none" stroke="black" stroke-width="2" cx="460" cy="-414.962" rx="18" ry="18"/>
<text text-anchor="middle" x="460" y="-411.262" font-family="Times,serif" font-size="14.00">9</text>
</g>
<!-- 2&#45;&gt;9 -->
<g id="edge17" class="edge"><title>2&#45;&gt;9</title>
<path fill="none" stroke="#7f6d00" stroke-width="4" d="M253.686,-468.603C291.948,-458.606 386.263,-433.966 432.534,-421.877"/>
<polygon fill="#7f6d00" stroke="#7f6d00" stroke-width="4" points="433.633,-425.207 442.423,-419.293 431.863,-418.435 433.633,-425.207"/>
</g>
<!-- 8 -->
<g id="node13" class="node"><title>8</title>
<ellipse fill="none" stroke="black" stroke-width="2" cx="460" cy="-472.962" rx="18" ry="18"/>
<text text-anchor="middle" x="460" y="-469.262" font-family="Times,serif" font-size="14.00">8</text>
</g>
<!-- 2&#45;&gt;8 -->
<g id="edge18" class="edge"><title>2&#45;&gt;8</title>
<path fill="none" stroke="#7f006d" stroke-width="4" d="M253.555,-478.222C271.629,-483.666 301.531,-491.808 328,-494.962 364.591,-499.322 406.541,-489.668 432.904,-481.796"/>
<polygon fill="#7f006d" stroke="#7f006d" stroke-width="4" points="434.026,-485.112 442.529,-478.792 431.941,-478.43 434.026,-485.112"/>
</g>
<!-- 6&#45;&gt;14 -->
<g id="edge36" class="edge"><title>6&#45;&gt;14</title>
<path fill="none" stroke="#7f006d" stroke-width="4" d="M365.616,-469.131C383.741,-464.053 413.686,-456.222 440,-451.962 474.851,-446.32 515.415,-443.48 542.063,-442.116"/>
<polygon fill="#7f006d" stroke="#7f006d" stroke-width="4" points="542.411,-445.604 552.234,-441.633 542.079,-438.612 542.411,-445.604"/>
</g>
<!-- 6&#45;&gt;T -->
<g id="edge37" class="edge"><title>6&#45;&gt;T</title>
<path fill="none" stroke="black" stroke-width="4" d="M360.289,-487.556C376.045,-505.436 406.49,-536.196 440,-549.962 494.044,-572.164 512.573,-560.962 571,-560.962 571,-560.962 571,-560.962 1021,-560.962 1079.39,-560.962 1102.62,-582.121 1152,-550.962 1198.22,-521.8 1222.97,-459.404 1233.91,-423.303"/>
<polygon fill="black" stroke="black" stroke-width="4" points="1237.35,-424.016 1236.76,-413.438 1230.62,-422.076 1237.35,-424.016"/>
</g>
<!-- 7 -->
<g id="node20" class="node"><title>7</title>
<ellipse fill="none" stroke="black" stroke-width="2" cx="460" cy="-515.962" rx="18" ry="18"/>
<text text-anchor="middle" x="460" y="-512.262" font-family="Times,serif" font-size="14.00">7</text>
</g>
<!-- 6&#45;&gt;7 -->
<g id="edge38" class="edge"><title>6&#45;&gt;7</title>
<path fill="none" stroke="#b6007f" stroke-width="4" d="M365.231,-480.159C383.104,-486.984 412.089,-498.051 433.108,-506.076"/>
<polygon fill="#b6007f" stroke="#b6007f" stroke-width="4" points="432.112,-509.442 442.703,-509.739 434.609,-502.903 432.112,-509.442"/>
</g>
<!-- 9&#45;&gt;14 -->
<g id="edge81" class="edge"><title>9&#45;&gt;14</title>
<path fill="none" stroke="black" stroke-width="4" d="M477.707,-418.911C494.982,-422.994 522.264,-429.443 542.872,-434.314"/>
<polygon fill="black" stroke="black" stroke-width="4" points="542.129,-437.734 552.666,-436.629 543.739,-430.922 542.129,-437.734"/>
</g>
<!-- 9&#45;&gt;T -->
<g id="edge82" class="edge"><title>9&#45;&gt;T</title>
<path fill="none" stroke="black" stroke-width="4" d="M475.649,-424.009C493.239,-434.556 523.895,-451.947 552,-462.962 653.774,-502.853 685.687,-500.962 795,-500.962 795,-500.962 795,-500.962 1021,-500.962 1079.55,-500.962 1099.31,-512.509 1152,-486.962 1183.46,-471.709 1210.02,-440.555 1225.73,-418.978"/>
<polygon fill="black" stroke="black" stroke-width="4" points="1228.69,-420.861 1231.59,-410.672 1222.97,-416.827 1228.69,-420.861"/>
</g>
<!-- 20 -->
<g id="node17" class="node"><title>20</title>
<ellipse fill="none" stroke="black" stroke-width="2" cx="684" cy="-221.962" rx="19.4965" ry="19.4965"/>
<text text-anchor="middle" x="684" y="-218.262" font-family="Times,serif" font-size="14.00">20</text>
</g>
<!-- 9&#45;&gt;20 -->
<g id="edge83" class="edge"><title>9&#45;&gt;20</title>
<path fill="none" stroke="#7f6d00" stroke-width="4" d="M474.222,-403.467C511.118,-371.391 615.477,-280.665 661.145,-240.962"/>
<polygon fill="#7f6d00" stroke="#7f6d00" stroke-width="4" points="663.458,-243.589 668.709,-234.386 658.866,-238.306 663.458,-243.589"/>
</g>
<!-- 16 -->
<g id="node27" class="node"><title>16</title>
<ellipse fill="none" stroke="black" stroke-width="2" cx="684" cy="-395.962" rx="19.4965" ry="19.4965"/>
<text text-anchor="middle" x="684" y="-392.262" font-family="Times,serif" font-size="14.00">16</text>
</g>
<!-- 9&#45;&gt;16 -->
<g id="edge84" class="edge"><title>9&#45;&gt;16</title>
<path fill="none" stroke="#7f006d" stroke-width="4" d="M478.051,-413.503C515.917,-410.262 607.363,-402.436 654.24,-398.424"/>
<polygon fill="#7f006d" stroke="#7f006d" stroke-width="4" points="654.672,-401.9 664.337,-397.559 654.075,-394.925 654.672,-401.9"/>
</g>
<!-- 8&#45;&gt;14 -->
<g id="edge106" class="edge"><title>8&#45;&gt;14</title>
<path fill="none" stroke="black" stroke-width="4" d="M477.707,-468.102C495.085,-463.047 522.589,-455.045 543.24,-449.038"/>
<polygon fill="black" stroke="black" stroke-width="4" points="544.413,-452.342 553.038,-446.188 542.458,-445.62 544.413,-452.342"/>
</g>
<!-- 8&#45;&gt;T -->
<g id="edge107" class="edge"><title>8&#45;&gt;T</title>
<path fill="none" stroke="black" stroke-width="4" d="M477.933,-476.703C526.82,-487.165 672.516,-515.962 795,-515.962 795,-515.962 795,-515.962 1021,-515.962 1079.71,-515.962 1100.3,-526.78 1152,-498.962 1185.59,-480.891 1212.2,-444.671 1227.28,-420.366"/>
<polygon fill="black" stroke="black" stroke-width="4" points="1230.34,-422.072 1232.48,-411.697 1224.34,-418.468 1230.34,-422.072"/>
</g>
<!-- 8&#45;&gt;15 -->
<g id="edge108" class="edge"><title>8&#45;&gt;15</title>
<path fill="none" stroke="#7f006d" stroke-width="4" d="M478.051,-472.809C515.917,-472.467 607.363,-471.644 654.24,-471.221"/>
<polygon fill="#7f006d" stroke="#7f006d" stroke-width="4" points="654.369,-474.72 664.337,-471.13 654.306,-467.721 654.369,-474.72"/>
</g>
<!-- 13 -->
<g id="node14" class="node"><title>13</title>
<ellipse fill="none" stroke="black" stroke-width="2" cx="460" cy="-337.962" rx="19.4965" ry="19.4965"/>
<text text-anchor="middle" x="460" y="-334.262" font-family="Times,serif" font-size="14.00">13</text>
</g>
<!-- 13&#45;&gt;14 -->
<g id="edge19" class="edge"><title>13&#45;&gt;14</title>
<path fill="none" stroke="black" stroke-width="4" d="M474.932,-351.007C493.776,-368.653 527.565,-400.292 549.632,-420.954"/>
<polygon fill="black" stroke="black" stroke-width="4" points="547.49,-423.743 557.182,-428.023 552.274,-418.633 547.49,-423.743"/>
</g>
<!-- 13&#45;&gt;21 -->
<g id="edge20" class="edge"><title>13&#45;&gt;21</title>
<path fill="none" stroke="#00247f" stroke-width="4" d="M479.914,-339.548C535.602,-344.216 699.236,-357.934 766.067,-363.537"/>
<polygon fill="#00247f" stroke="#00247f" stroke-width="4" points="766.036,-367.046 776.293,-364.394 766.621,-360.071 766.036,-367.046"/>
</g>
<!-- 13&#45;&gt;T -->
<g id="edge21" class="edge"><title>13&#45;&gt;T</title>
<path fill="none" stroke="black" stroke-width="4" d="M477.943,-346.126C512.245,-362.316 592.716,-398.597 664,-417.962 769.489,-446.62 797.687,-455.962 907,-455.962 907,-455.962 907,-455.962 1021,-455.962 1079.97,-455.962 1095.43,-451.596 1152,-434.962 1174.67,-428.297 1199.17,-417.251 1216.72,-408.613"/>
<polygon fill="black" stroke="black" stroke-width="4" points="1218.33,-411.72 1225.7,-404.105 1215.19,-405.465 1218.33,-411.72"/>
</g>
<!-- 23 -->
<g id="node15" class="node"><title>23</title>
<ellipse fill="none" stroke="black" stroke-width="2" cx="796" cy="-319.962" rx="19.4965" ry="19.4965"/>
<text text-anchor="middle" x="796" y="-316.262" font-family="Times,serif" font-size="14.00">23</text>
</g>
<!-- 13&#45;&gt;23 -->
<g id="edge22" class="edge"><title>13&#45;&gt;23</title>
<path fill="none" stroke="#da7f00" stroke-width="4" d="M479.914,-336.943C535.602,-333.942 699.236,-325.123 766.067,-321.521"/>
<polygon fill="#da7f00" stroke="#da7f00" stroke-width="4" points="766.496,-325.003 776.293,-320.97 766.119,-318.014 766.496,-325.003"/>
</g>
<!-- 22 -->
<g id="node16" class="node"><title>22</title>
<ellipse fill="none" stroke="black" stroke-width="2" cx="796" cy="-273.962" rx="19.4965" ry="19.4965"/>
<text text-anchor="middle" x="796" y="-270.262" font-family="Times,serif" font-size="14.00">22</text>
</g>
<!-- 13&#45;&gt;22 -->
<g id="edge23" class="edge"><title>13&#45;&gt;22</title>
<path fill="none" stroke="#7f4800" stroke-width="4" d="M479.433,-334.43C534.749,-323.831 699.613,-292.24 766.415,-279.44"/>
<polygon fill="#7f4800" stroke="#7f4800" stroke-width="4" points="767.461,-282.803 776.624,-277.483 766.144,-275.928 767.461,-282.803"/>
</g>
<!-- 13&#45;&gt;20 -->
<g id="edge24" class="edge"><title>13&#45;&gt;20</title>
<path fill="none" stroke="#7f6d00" stroke-width="4" d="M477.686,-329.243C516.19,-309.124 611.456,-259.345 657.405,-235.336"/>
<polygon fill="#7f6d00" stroke="#7f6d00" stroke-width="4" points="659.181,-238.357 666.423,-230.624 655.939,-232.153 659.181,-238.357"/>
</g>
<!-- 23&#45;&gt;T -->
<g id="edge25" class="edge"><title>23&#45;&gt;T</title>
<path fill="none" stroke="black" stroke-width="4" d="M815.513,-323.131C885.095,-335.041 1131.19,-377.166 1213.76,-391.299"/>
<polygon fill="black" stroke="black" stroke-width="4" points="1213.41,-394.791 1223.86,-393.029 1214.6,-387.891 1213.41,-394.791"/>
</g>
<!-- 23&#45;&gt;24 -->
<g id="edge26" class="edge"><title>23&#45;&gt;24</title>
<path fill="none" stroke="black" stroke-width="4" d="M812.76,-330.851C831.161,-343.565 861.79,-364.726 883.116,-379.461"/>
<polygon fill="black" stroke="black" stroke-width="4" points="881.407,-382.534 891.624,-385.338 885.386,-376.775 881.407,-382.534"/>
</g>
<!-- 23&#45;&gt;27 -->
<g id="edge27" class="edge"><title>23&#45;&gt;27</title>
<path fill="none" stroke="#00247f" stroke-width="4" d="M815.433,-315.522C870.749,-308.361 1035.61,-301.197 1102.41,-302.731"/>
<polygon fill="#00247f" stroke="#00247f" stroke-width="4" points="1102.51,-306.236 1112.62,-303.07 1102.75,-299.24 1102.51,-306.236"/>
</g>
<!-- 23&#45;&gt;27 -->
<g id="edge28" class="edge"><title>23&#45;&gt;27</title>
<path fill="none" stroke="#7f4800" stroke-width="4" d="M815.433,-318.089C870.619,-314.327 1034.84,-307.364 1101.94,-305.842"/>
<polygon fill="#7f4800" stroke="#7f4800" stroke-width="4" points="1102.28,-309.336 1112.21,-305.64 1102.15,-302.338 1102.28,-309.336"/>
</g>
<!-- 23&#45;&gt;27 -->
<g id="edge29" class="edge"><title>23&#45;&gt;27</title>
<path fill="none" stroke="#da7f00" stroke-width="4" d="M815.914,-320.653C871.602,-320.236 1035.24,-313.476 1102.07,-308.956"/>
<polygon fill="#da7f00" stroke="#da7f00" stroke-width="4" points="1102.57,-312.429 1112.29,-308.223 1102.07,-305.447 1102.57,-312.429"/>
</g>
<!-- 23&#45;&gt;27 -->
<g id="edge30" class="edge"><title>23&#45;&gt;27</title>
<path fill="none" stroke="#7f6d00" stroke-width="4" d="M815.433,-323.224C870.878,-326.239 1036.39,-319.569 1102.88,-311.979"/>
<polygon fill="#7f6d00" stroke="#7f6d00" stroke-width="4" points="1103.55,-315.423 1113.03,-310.704 1102.67,-308.478 1103.55,-315.423"/>
</g>
<!-- 22&#45;&gt;T -->
<g id="edge52" class="edge"><title>22&#45;&gt;T</title>
<path fill="none" stroke="black" stroke-width="4" d="M815.27,-269.297C869.948,-256.361 1035.7,-224.687 1152,-282.962 1188.95,-301.475 1215.32,-343.274 1229.35,-370.517"/>
<polygon fill="black" stroke="black" stroke-width="4" points="1226.21,-372.078 1233.79,-379.483 1232.49,-368.969 1226.21,-372.078"/>
</g>
<!-- 22&#45;&gt;26 -->
<g id="edge53" class="edge"><title>22&#45;&gt;26</title>
<path fill="none" stroke="#7f006d" stroke-width="4" d="M814.792,-267.711C853.532,-254.099 945.731,-221.705 991.811,-205.515"/>
<polygon fill="#7f006d" stroke="#7f006d" stroke-width="4" points="993.157,-208.752 1001.43,-202.135 990.837,-202.148 993.157,-208.752"/>
</g>
<!-- 22&#45;&gt;24 -->
<g id="edge54" class="edge"><title>22&#45;&gt;24</title>
<path fill="none" stroke="black" stroke-width="4" d="M809.618,-287.957C828.663,-309.079 864.91,-349.28 887.408,-374.233"/>
<polygon fill="black" stroke="black" stroke-width="4" points="884.894,-376.671 894.19,-381.755 890.093,-371.984 884.894,-376.671"/>
</g>
<!-- 22&#45;&gt;27 -->
<g id="edge55" class="edge"><title>22&#45;&gt;27</title>
<path fill="none" stroke="#7f6d00" stroke-width="4" d="M815.914,-273.178C871.733,-275.162 1036,-290.735 1102.54,-300.14"/>
<polygon fill="#7f6d00" stroke="#7f6d00" stroke-width="4" points="1102.3,-303.643 1112.7,-301.65 1103.33,-296.719 1102.3,-303.643"/>
</g>
<!-- 22&#45;&gt;27 -->
<g id="edge56" class="edge"><title>22&#45;&gt;27</title>
<path fill="none" stroke="#7f4800" stroke-width="4" d="M815.433,-275.728C870.619,-281.015 1034.84,-296.749 1101.94,-303.178"/>
<polygon fill="#7f4800" stroke="#7f4800" stroke-width="4" points="1101.92,-306.692 1112.21,-304.162 1102.59,-299.724 1101.92,-306.692"/>
</g>
<!-- 22&#45;&gt;27 -->
<g id="edge57" class="edge"><title>22&#45;&gt;27</title>
<path fill="none" stroke="#00247f" stroke-width="4" d="M815.433,-278.295C870.619,-286.964 1034.84,-302.883 1101.94,-306.3"/>
<polygon fill="#00247f" stroke="#00247f" stroke-width="4" points="1102.07,-309.809 1112.21,-306.751 1102.38,-302.815 1102.07,-309.809"/>
</g>
<!-- 20&#45;&gt;21 -->
<g id="edge62" class="edge"><title>20&#45;&gt;21</title>
<path fill="none" stroke="black" stroke-width="4" d="M696.391,-237.194C713.525,-260.056 747.013,-304.554 776,-341.962 776.366,-342.435 776.737,-342.912 777.111,-343.393"/>
<polygon fill="black" stroke="black" stroke-width="4" points="774.37,-345.569 783.296,-351.277 779.877,-341.249 774.37,-345.569"/>
</g>
<!-- 20&#45;&gt;T -->
<g id="edge63" class="edge"><title>20&#45;&gt;T</title>
<path fill="none" stroke="black" stroke-width="4" d="M700.366,-211.274C733.043,-189.273 812.622,-139.521 888,-121.962 954.543,-106.462 974.349,-126.037 1040,-144.962 1091.08,-159.687 1113.59,-150.203 1152,-186.962 1204.64,-237.346 1227.66,-323.872 1236.39,-368.124"/>
<polygon fill="black" stroke="black" stroke-width="4" points="1232.99,-368.978 1238.27,-378.164 1239.87,-367.691 1232.99,-368.978"/>
</g>
<!-- 20&#45;&gt;26 -->
<g id="edge64" class="edge"><title>20&#45;&gt;26</title>
<path fill="none" stroke="#7f6d00" stroke-width="4" d="M703.468,-220.264C721.849,-218.591 750.866,-215.998 776,-213.962 853.486,-207.687 944.944,-201.145 990.386,-197.954"/>
<polygon fill="#7f6d00" stroke="#7f6d00" stroke-width="4" points="990.666,-201.443 1000.4,-197.253 990.177,-194.46 990.666,-201.443"/>
</g>
<!-- 20&#45;&gt;27 -->
<g id="edge65" class="edge"><title>20&#45;&gt;27</title>
<path fill="none" stroke="#00247f" stroke-width="4" d="M703.596,-224.493C773.318,-235.987 1019.47,-282.282 1103.02,-299.528"/>
<polygon fill="#00247f" stroke="#00247f" stroke-width="4" points="1102.31,-302.956 1112.82,-301.576 1103.74,-296.104 1102.31,-302.956"/>
</g>
<!-- 20&#45;&gt;27 -->
<g id="edge66" class="edge"><title>20&#45;&gt;27</title>
<path fill="none" stroke="#7f4800" stroke-width="4" d="M703.036,-226.636C771.801,-241.783 1017.89,-288.229 1102.32,-302.13"/>
<polygon fill="#7f4800" stroke="#7f4800" stroke-width="4" points="1101.82,-305.593 1112.24,-303.73 1102.93,-298.682 1101.82,-305.593"/>
</g>
<!-- 18 -->
<g id="node18" class="node"><title>18</title>
<ellipse fill="none" stroke="black" stroke-width="2" cx="460" cy="-188.962" rx="19.4965" ry="19.4965"/>
<text text-anchor="middle" x="460" y="-185.262" font-family="Times,serif" font-size="14.00">18</text>
</g>
<!-- 18&#45;&gt;T -->
<g id="edge31" class="edge"><title>18&#45;&gt;T</title>
<path fill="none" stroke="black" stroke-width="4" d="M474.17,-175.662C506.581,-144.418 594.062,-68.9622 683,-68.9622 683,-68.9622 683,-68.9622 1021,-68.9622 1080.27,-68.9622 1108.08,-54.1534 1152,-93.9622 1232.06,-166.537 1241.55,-307.123 1241.71,-367.396"/>
<polygon fill="black" stroke="black" stroke-width="4" points="1238.21,-367.66 1241.65,-377.681 1245.21,-367.703 1238.21,-367.66"/>
</g>
<!-- 18&#45;&gt;26 -->
<g id="edge32" class="edge"><title>18&#45;&gt;26</title>
<path fill="none" stroke="#7f4800" stroke-width="4" d="M479.391,-186.876C517.377,-182.755 607.286,-173.962 683,-173.962 683,-173.962 683,-173.962 797,-173.962 866.833,-173.962 948.422,-184.875 990.566,-191.329"/>
<polygon fill="#7f4800" stroke="#7f4800" stroke-width="4" points="990.221,-194.818 1000.64,-192.903 991.302,-187.902 990.221,-194.818"/>
</g>
<!-- 19 -->
<g id="node19" class="node"><title>19</title>
<ellipse fill="none" stroke="black" stroke-width="2" cx="572" cy="-203.962" rx="19.4965" ry="19.4965"/>
<text text-anchor="middle" x="572" y="-200.262" font-family="Times,serif" font-size="14.00">19</text>
</g>
<!-- 18&#45;&gt;19 -->
<g id="edge33" class="edge"><title>18&#45;&gt;19</title>
<path fill="none" stroke="black" stroke-width="4" d="M479.66,-191.507C496.91,-193.859 522.792,-197.388 542.606,-200.09"/>
<polygon fill="black" stroke="black" stroke-width="4" points="542.234,-203.572 552.616,-201.455 543.18,-196.636 542.234,-203.572"/>
</g>
<!-- 19&#45;&gt;T -->
<g id="edge94" class="edge"><title>19&#45;&gt;T</title>
<path fill="none" stroke="black" stroke-width="4" d="M581.249,-186.522C594.56,-160.62 623.445,-112.805 664,-91.9622 715.88,-65.299 736.669,-83.9622 795,-83.9622 795,-83.9622 795,-83.9622 1021,-83.9622 1081.75,-83.9622 1108.49,-80.5645 1152,-122.962 1221.28,-190.481 1236.67,-312.513 1240.06,-367.61"/>
<polygon fill="black" stroke="black" stroke-width="4" points="1236.57,-367.899 1240.59,-377.701 1243.56,-367.532 1236.57,-367.899"/>
</g>
<!-- 19&#45;&gt;26 -->
<g id="edge95" class="edge"><title>19&#45;&gt;26</title>
<path fill="none" stroke="#00247f" stroke-width="4" d="M591.464,-202.696C609.841,-201.495 638.855,-199.759 664,-198.962 784.917,-195.131 929.108,-195.411 989.8,-195.75"/>
<polygon fill="#00247f" stroke="#00247f" stroke-width="4" points="990.115,-199.252 1000.14,-195.813 990.157,-192.252 990.115,-199.252"/>
</g>
<!-- 19&#45;&gt;20 -->
<g id="edge96" class="edge"><title>19&#45;&gt;20</title>
<path fill="none" stroke="black" stroke-width="4" d="M591.66,-207.016C608.91,-209.838 634.792,-214.074 654.606,-217.316"/>
<polygon fill="black" stroke="black" stroke-width="4" points="654.182,-220.793 664.616,-218.954 655.312,-213.885 654.182,-220.793"/>
</g>
<!-- 7&#45;&gt;14 -->
<g id="edge39" class="edge"><title>7&#45;&gt;14</title>
<path fill="none" stroke="#b6007f" stroke-width="4" d="M475.381,-506.157C493.602,-493.733 525.263,-472.147 547.132,-457.236"/>
<polygon fill="#b6007f" stroke="#b6007f" stroke-width="4" points="549.262,-460.02 555.553,-451.494 545.319,-454.236 549.262,-460.02"/>
</g>
<!-- 7&#45;&gt;T -->
<g id="edge40" class="edge"><title>7&#45;&gt;T</title>
<path fill="none" stroke="black" stroke-width="4" d="M477.963,-517.892C515.081,-521.944 606.32,-530.962 683,-530.962 683,-530.962 683,-530.962 1021,-530.962 1079.83,-530.962 1101.25,-541.713 1152,-511.962 1188.24,-490.719 1214.82,-448.467 1229.08,-421.244"/>
<polygon fill="black" stroke="black" stroke-width="4" points="1232.21,-422.804 1233.61,-412.301 1225.97,-419.642 1232.21,-422.804"/>
</g>
<!-- 7&#45;&gt;15 -->
<g id="edge41" class="edge"><title>7&#45;&gt;15</title>
<path fill="none" stroke="#7f006d" stroke-width="4" d="M477.686,-512.58C515.466,-504.922 607.896,-486.186 654.763,-476.686"/>
<polygon fill="#7f006d" stroke="#7f006d" stroke-width="4" points="655.466,-480.115 664.571,-474.698 654.075,-473.254 655.466,-480.115"/>
</g>
<!-- 5 -->
<g id="node21" class="node"><title>5</title>
<ellipse fill="none" stroke="black" stroke-width="2" cx="236" cy="-337.962" rx="18" ry="18"/>
<text text-anchor="middle" x="236" y="-334.262" font-family="Times,serif" font-size="14.00">5</text>
</g>
<!-- 5&#45;&gt;T -->
<g id="edge42" class="edge"><title>5&#45;&gt;T</title>
<path fill="none" stroke="black" stroke-width="4" d="M250.573,-348.797C274.999,-368.527 327.582,-412.064 368,-452.962 402.563,-487.936 395.716,-515.592 440,-536.962 537.334,-583.931 574.926,-545.962 683,-545.962 683,-545.962 683,-545.962 1021,-545.962 1079.9,-545.962 1102.13,-557.297 1152,-525.962 1191.12,-501.383 1217.36,-452.646 1230.69,-422.329"/>
<polygon fill="black" stroke="black" stroke-width="4" points="1234.04,-423.389 1234.71,-412.816 1227.59,-420.662 1234.04,-423.389"/>
</g>
<!-- 5&#45;&gt;6 -->
<g id="edge45" class="edge"><title>5&#45;&gt;6</title>
<path fill="none" stroke="black" stroke-width="4" d="M247.949,-351.5C266.959,-375.002 306.23,-423.555 329.202,-451.957"/>
<polygon fill="black" stroke="black" stroke-width="4" points="326.757,-454.501 335.767,-460.075 332.2,-450.098 326.757,-454.501"/>
</g>
<!-- 5&#45;&gt;13 -->
<g id="edge43" class="edge"><title>5&#45;&gt;13</title>
<path fill="none" stroke="#da7f00" stroke-width="4" d="M254.051,-336.693C291.917,-335.495 383.363,-335.395 430.24,-336.391"/>
<polygon fill="#da7f00" stroke="#da7f00" stroke-width="4" points="430.252,-339.892 440.337,-336.643 430.428,-332.894 430.252,-339.892"/>
</g>
<!-- 5&#45;&gt;13 -->
<g id="edge44" class="edge"><title>5&#45;&gt;13</title>
<path fill="none" stroke="#7f6d00" stroke-width="4" d="M254.051,-339.655C291.917,-341.251 383.363,-341.386 430.24,-340.058"/>
<polygon fill="#7f6d00" stroke="#7f6d00" stroke-width="4" points="430.459,-343.552 440.337,-339.721 430.226,-336.556 430.459,-343.552"/>
</g>
<!-- 12 -->
<g id="node22" class="node"><title>12</title>
<ellipse fill="none" stroke="black" stroke-width="2" cx="348" cy="-252.962" rx="19.4965" ry="19.4965"/>
<text text-anchor="middle" x="348" y="-249.262" font-family="Times,serif" font-size="14.00">12</text>
</g>
<!-- 5&#45;&gt;12 -->
<g id="edge46" class="edge"><title>5&#45;&gt;12</title>
<path fill="none" stroke="#7f4800" stroke-width="4" d="M250.05,-326.36C268.037,-311.632 300.759,-286.222 323.171,-269.484"/>
<polygon fill="#7f4800" stroke="#7f4800" stroke-width="4" points="325.539,-272.085 331.493,-263.321 321.374,-266.46 325.539,-272.085"/>
</g>
<!-- 5&#45;&gt;12 -->
<g id="edge47" class="edge"><title>5&#45;&gt;12</title>
<path fill="none" stroke="#00247f" stroke-width="4" d="M251.835,-328.627C270.68,-315.107 303.356,-289.965 325.079,-272.354"/>
<polygon fill="#00247f" stroke="#00247f" stroke-width="4" points="327.579,-274.831 333.093,-265.784 323.141,-269.418 327.579,-274.831"/>
</g>
<!-- 12&#45;&gt;T -->
<g id="edge48" class="edge"><title>12&#45;&gt;T</title>
<path fill="none" stroke="black" stroke-width="4" d="M361.357,-238.651C402.207,-193.022 538.554,-53.9622 683,-53.9622 683,-53.9622 683,-53.9622 1021,-53.9622 1079.65,-53.9622 1107.63,-31.5996 1152,-69.9622 1197.7,-109.471 1227.47,-296.363 1237.36,-367.961"/>
<polygon fill="black" stroke="black" stroke-width="4" points="1233.92,-368.601 1238.73,-378.04 1240.85,-367.661 1233.92,-368.601"/>
</g>
<!-- 12&#45;&gt;13 -->
<g id="edge49" class="edge"><title>12&#45;&gt;13</title>
<path fill="none" stroke="black" stroke-width="4" d="M363.835,-264.426C382.369,-278.747 414.283,-303.408 435.996,-320.186"/>
<polygon fill="black" stroke="black" stroke-width="4" points="433.996,-323.064 444.049,-326.409 438.276,-317.525 433.996,-323.064"/>
</g>
<!-- 12&#45;&gt;20 -->
<g id="edge50" class="edge"><title>12&#45;&gt;20</title>
<path fill="none" stroke="#7f4800" stroke-width="4" d="M367.433,-251.251C422.619,-246.129 586.841,-230.887 653.944,-224.659"/>
<polygon fill="#7f4800" stroke="#7f4800" stroke-width="4" points="654.578,-228.115 664.212,-223.706 653.932,-221.145 654.578,-228.115"/>
</g>
<!-- 12&#45;&gt;19 -->
<g id="edge51" class="edge"><title>12&#45;&gt;19</title>
<path fill="none" stroke="#00247f" stroke-width="4" d="M367.167,-248.952C405.884,-240.407 496.747,-220.351 542.954,-210.153"/>
<polygon fill="#00247f" stroke="#00247f" stroke-width="4" points="543.883,-213.532 552.893,-207.959 542.374,-206.696 543.883,-213.532"/>
</g>
<!-- S -->
<g id="node23" class="node"><title>S</title>
<ellipse fill="none" stroke="black" stroke-width="2" cx="18" cy="-443.962" rx="18" ry="18"/>
<text text-anchor="middle" x="18" y="-440.262" font-family="Times,serif" font-size="14.00">S</text>
</g>
<!-- S&#45;&gt;2 -->
<g id="edge67" class="edge"><title>S&#45;&gt;2</title>
<path fill="none" stroke="#7f6d00" stroke-width="4" d="M35.9492,-446.238C73.3303,-451.257 163.101,-463.309 208.195,-469.363"/>
<polygon fill="#7f6d00" stroke="#7f6d00" stroke-width="4" points="207.753,-472.835 218.13,-470.697 208.684,-465.898 207.753,-472.835"/>
</g>
<!-- S&#45;&gt;5 -->
<g id="edge68" class="edge"><title>S&#45;&gt;5</title>
<path fill="none" stroke="#da7f00" stroke-width="4" d="M34.5342,-436.339C71.6635,-418.118 165.788,-371.927 210.585,-349.944"/>
<polygon fill="#da7f00" stroke="#da7f00" stroke-width="4" points="212.171,-353.064 219.607,-345.516 209.087,-346.78 212.171,-353.064"/>
</g>
<!-- 3 -->
<g id="node24" class="node"><title>3</title>
<ellipse fill="none" stroke="black" stroke-width="2" cx="236" cy="-414.962" rx="18" ry="18"/>
<text text-anchor="middle" x="236" y="-411.262" font-family="Times,serif" font-size="14.00">3</text>
</g>
<!-- S&#45;&gt;3 -->
<g id="edge69" class="edge"><title>S&#45;&gt;3</title>
<path fill="none" stroke="#00247f" stroke-width="4" d="M35.9492,-441.687C73.3303,-436.668 163.101,-424.615 208.195,-418.561"/>
<polygon fill="#00247f" stroke="#00247f" stroke-width="4" points="208.684,-422.027 218.13,-417.227 207.753,-415.089 208.684,-422.027"/>
</g>
<!-- 1 -->
<g id="node25" class="node"><title>1</title>
<ellipse fill="none" stroke="black" stroke-width="2" cx="236" cy="-515.962" rx="18" ry="18"/>
<text text-anchor="middle" x="236" y="-512.262" font-family="Times,serif" font-size="14.00">1</text>
</g>
<!-- S&#45;&gt;1 -->
<g id="edge70" class="edge"><title>S&#45;&gt;1</title>
<path fill="none" stroke="#7f006d" stroke-width="4" d="M35.5905,-448.223C73.0747,-459.499 164.521,-489.899 209.36,-505.897"/>
<polygon fill="#7f006d" stroke="#7f006d" stroke-width="4" points="208.348,-509.253 218.942,-509.358 210.726,-502.669 208.348,-509.253"/>
</g>
<!-- S&#45;&gt;1 -->
<g id="edge71" class="edge"><title>S&#45;&gt;1</title>
<path fill="none" stroke="#b6007f" stroke-width="4" d="M34.883,-450.918C71.6702,-464.824 163.036,-495.409 208.472,-509.172"/>
<polygon fill="#b6007f" stroke="#b6007f" stroke-width="4" points="207.623,-512.571 218.206,-512.066 209.618,-505.861 207.623,-512.571"/>
</g>
<!-- 4 -->
<g id="node26" class="node"><title>4</title>
<ellipse fill="none" stroke="black" stroke-width="2" cx="126" cy="-252.962" rx="18" ry="18"/>
<text text-anchor="middle" x="126" y="-249.262" font-family="Times,serif" font-size="14.00">4</text>
</g>
<!-- S&#45;&gt;4 -->
<g id="edge72" class="edge"><title>S&#45;&gt;4</title>
<path fill="none" stroke="#7f4800" stroke-width="4" d="M27.4952,-428.655C45.8698,-395.546 89.4305,-317.054 111.575,-277.152"/>
<polygon fill="#7f4800" stroke="#7f4800" stroke-width="4" points="114.672,-278.785 116.464,-268.343 108.551,-275.388 114.672,-278.785"/>
</g>
<!-- 3&#45;&gt;T -->
<g id="edge73" class="edge"><title>3&#45;&gt;T</title>
<path fill="none" stroke="black" stroke-width="4" d="M246.84,-429.534C274.902,-469.165 359.733,-575.962 459,-575.962 459,-575.962 459,-575.962 1021,-575.962 1079.47,-575.962 1103.34,-596.368 1152,-563.962 1201.22,-531.186 1225.14,-462.006 1235.06,-423.427"/>
<polygon fill="black" stroke="black" stroke-width="4" points="1238.53,-423.957 1237.5,-413.413 1231.73,-422.301 1238.53,-423.957"/>
</g>
<!-- 3&#45;&gt;6 -->
<g id="edge75" class="edge"><title>3&#45;&gt;6</title>
<path fill="none" stroke="black" stroke-width="4" d="M252.295,-423.166C270.602,-432.985 301.475,-449.544 322.976,-461.077"/>
<polygon fill="black" stroke="black" stroke-width="4" points="321.368,-464.186 331.835,-465.828 324.677,-458.017 321.368,-464.186"/>
</g>
<!-- 3&#45;&gt;9 -->
<g id="edge77" class="edge"><title>3&#45;&gt;9</title>
<path fill="none" stroke="#7f006d" stroke-width="4" d="M254.051,-414.962C292.308,-414.962 385.253,-414.962 431.675,-414.962"/>
<polygon fill="#7f006d" stroke="#7f006d" stroke-width="4" points="431.891,-418.462 441.891,-414.962 431.891,-411.462 431.891,-418.462"/>
</g>
<!-- 3&#45;&gt;13 -->
<g id="edge74" class="edge"><title>3&#45;&gt;13</title>
<path fill="none" stroke="#7f6d00" stroke-width="4" d="M253.324,-409.3C291.199,-396.163 385.364,-363.502 431.979,-347.334"/>
<polygon fill="#7f6d00" stroke="#7f6d00" stroke-width="4" points="433.13,-350.64 441.431,-344.056 430.836,-344.026 433.13,-350.64"/>
</g>
<!-- 3&#45;&gt;12 -->
<g id="edge76" class="edge"><title>3&#45;&gt;12</title>
<path fill="none" stroke="#00247f" stroke-width="4" d="M246.956,-400.3C265.889,-372.416 307.259,-311.489 330.432,-277.362"/>
<polygon fill="#00247f" stroke="#00247f" stroke-width="4" points="333.457,-279.137 336.179,-268.898 327.666,-275.205 333.457,-279.137"/>
</g>
<!-- 1&#45;&gt;T -->
<g id="edge78" class="edge"><title>1&#45;&gt;T</title>
<path fill="none" stroke="black" stroke-width="4" d="M250.477,-527.6C283.57,-554.938 372.45,-620.962 459,-620.962 459,-620.962 459,-620.962 1021,-620.962 1080.83,-620.962 1105.72,-627.886 1152,-589.962 1204.58,-546.873 1227.51,-465.915 1236.28,-423.49"/>
<polygon fill="black" stroke="black" stroke-width="4" points="1239.73,-424.066 1238.21,-413.581 1232.86,-422.725 1239.73,-424.066"/>
</g>
<!-- 1&#45;&gt;6 -->
<g id="edge79" class="edge"><title>1&#45;&gt;6</title>
<path fill="none" stroke="#b6007f" stroke-width="4" d="M253.231,-509.765C271.104,-502.941 300.089,-491.874 321.108,-483.848"/>
<polygon fill="#b6007f" stroke="#b6007f" stroke-width="4" points="322.609,-487.022 330.703,-480.185 320.112,-480.482 322.609,-487.022"/>
</g>
<!-- 1&#45;&gt;7 -->
<g id="edge80" class="edge"><title>1&#45;&gt;7</title>
<path fill="none" stroke="#7f006d" stroke-width="4" d="M254.051,-515.962C292.308,-515.962 385.253,-515.962 431.675,-515.962"/>
<polygon fill="#7f006d" stroke="#7f006d" stroke-width="4" points="431.891,-519.462 441.891,-515.962 431.891,-512.462 431.891,-519.462"/>
</g>
<!-- 4&#45;&gt;T -->
<g id="edge85" class="edge"><title>4&#45;&gt;T</title>
<path fill="none" stroke="black" stroke-width="4" d="M132.685,-236.191C152.546,-181.065 224.369,-8.96216 347,-8.96216 347,-8.96216 347,-8.96216 1021,-8.96216 1079.47,-8.96216 1107.84,17.3498 1152,-20.9622 1204.86,-66.8177 1230.75,-288.074 1238.46,-367.502"/>
<polygon fill="black" stroke="black" stroke-width="4" points="1235,-368.109 1239.43,-377.735 1241.97,-367.45 1235,-368.109"/>
</g>
<!-- 4&#45;&gt;6 -->
<g id="edge87" class="edge"><title>4&#45;&gt;6</title>
<path fill="none" stroke="black" stroke-width="4" d="M130.522,-270.496C138.765,-306.921 162.779,-391.114 216,-435.962 224.076,-442.768 284.508,-458.541 320.407,-467.479"/>
<polygon fill="black" stroke="black" stroke-width="4" points="319.7,-470.909 330.247,-469.911 321.379,-464.114 319.7,-470.909"/>
</g>
<!-- 4&#45;&gt;13 -->
<g id="edge86" class="edge"><title>4&#45;&gt;13</title>
<path fill="none" stroke="#7f6d00" stroke-width="4" d="M143.92,-257.294C197.604,-271.038 364.474,-313.761 431.106,-330.821"/>
<polygon fill="#7f6d00" stroke="#7f6d00" stroke-width="4" points="430.351,-334.24 440.907,-333.33 432.088,-327.459 430.351,-334.24"/>
</g>
<!-- 4&#45;&gt;12 -->
<g id="edge88" class="edge"><title>4&#45;&gt;12</title>
<path fill="none" stroke="#00247f" stroke-width="4" d="M144.263,-252.962C181.868,-252.962 271.525,-252.962 317.982,-252.962"/>
<polygon fill="#00247f" stroke="#00247f" stroke-width="4" points="318.273,-256.462 328.273,-252.962 318.273,-249.462 318.273,-256.462"/>
</g>
<!-- 11 -->
<g id="node28" class="node"><title>11</title>
<ellipse fill="none" stroke="black" stroke-width="2" cx="236" cy="-207.962" rx="19.4965" ry="19.4965"/>
<text text-anchor="middle" x="236" y="-204.262" font-family="Times,serif" font-size="14.00">11</text>
</g>
<!-- 4&#45;&gt;11 -->
<g id="edge89" class="edge"><title>4&#45;&gt;11</title>
<path fill="none" stroke="#7f4800" stroke-width="4" d="M142.936,-246.322C160.08,-239.179 187.64,-227.696 208.143,-219.152"/>
<polygon fill="#7f4800" stroke="#7f4800" stroke-width="4" points="209.681,-222.304 217.565,-215.227 206.988,-215.842 209.681,-222.304"/>
</g>
<!-- 10 -->
<g id="node29" class="node"><title>10</title>
<ellipse fill="none" stroke="black" stroke-width="2" cx="460" cy="-53.9622" rx="19.4965" ry="19.4965"/>
<text text-anchor="middle" x="460" y="-50.2622" font-family="Times,serif" font-size="14.00">10</text>
</g>
<!-- 4&#45;&gt;10 -->
<g id="edge90" class="edge"><title>4&#45;&gt;10</title>
<path fill="none" stroke="#7f006d" stroke-width="4" d="M140.384,-241.664C157.386,-227.566 187.904,-203.107 216,-184.962 291.768,-136.03 387.457,-88.2469 432.833,-66.3668"/>
<polygon fill="#7f006d" stroke="#7f006d" stroke-width="4" points="434.478,-69.4594 441.981,-61.9786 431.451,-63.148 434.478,-69.4594"/>
</g>
<!-- 16&#45;&gt;21 -->
<g id="edge103" class="edge"><title>16&#45;&gt;21</title>
<path fill="none" stroke="black" stroke-width="4" d="M703.164,-391.008C720.52,-386.275 746.933,-379.071 766.985,-373.603"/>
<polygon fill="black" stroke="black" stroke-width="4" points="768.082,-376.931 776.809,-370.923 766.24,-370.178 768.082,-376.931"/>
</g>
<!-- 16&#45;&gt;T -->
<g id="edge104" class="edge"><title>16&#45;&gt;T</title>
<path fill="none" stroke="black" stroke-width="4" d="M703.029,-400.405C765.723,-415.164 979.798,-459.753 1152,-425.962 1174.07,-421.631 1198.19,-413.259 1215.75,-406.457"/>
<polygon fill="black" stroke="black" stroke-width="4" points="1217.26,-409.621 1225.27,-402.676 1214.68,-403.116 1217.26,-409.621"/>
</g>
<!-- 16&#45;&gt;24 -->
<g id="edge105" class="edge"><title>16&#45;&gt;24</title>
<path fill="none" stroke="#7f006d" stroke-width="4" d="M703.546,-395.962C742.232,-395.962 831.78,-395.962 878.094,-395.962"/>
<polygon fill="#7f006d" stroke="#7f006d" stroke-width="4" points="878.351,-399.462 888.351,-395.962 878.351,-392.462 878.351,-399.462"/>
</g>
<!-- 11&#45;&gt;T -->
<g id="edge91" class="edge"><title>11&#45;&gt;T</title>
<path fill="none" stroke="black" stroke-width="4" d="M248.434,-192.793C276.432,-157.01 352.553,-67.6663 440,-31.9622 494.003,-9.91314 512.669,-23.9622 571,-23.9622 571,-23.9622 571,-23.9622 1021,-23.9622 1050.17,-23.9622 1129.62,-13.2628 1152,-31.9622 1204.09,-75.4839 1230.4,-289.931 1238.34,-367.715"/>
<polygon fill="black" stroke="black" stroke-width="4" points="1234.87,-368.148 1239.34,-377.752 1241.83,-367.454 1234.87,-368.148"/>
</g>
<!-- 11&#45;&gt;18 -->
<g id="edge92" class="edge"><title>11&#45;&gt;18</title>
<path fill="none" stroke="#7f4800" stroke-width="4" d="M255.546,-206.375C294.314,-203.057 384.158,-195.368 430.387,-191.411"/>
<polygon fill="#7f4800" stroke="#7f4800" stroke-width="4" points="430.686,-194.898 440.351,-190.558 430.089,-187.924 430.686,-194.898"/>
</g>
<!-- 11&#45;&gt;12 -->
<g id="edge93" class="edge"><title>11&#45;&gt;12</title>
<path fill="none" stroke="black" stroke-width="4" d="M254.188,-214.993C271.843,-222.216 299.574,-233.561 320.131,-241.97"/>
<polygon fill="black" stroke="black" stroke-width="4" points="318.989,-245.285 329.57,-245.832 321.64,-238.806 318.989,-245.285"/>
</g>
<!-- 10&#45;&gt;14 -->
<g id="edge100" class="edge"><title>10&#45;&gt;14</title>
<path fill="none" stroke="black" stroke-width="4" d="M466.232,-72.3676C483.929,-134.632 541.639,-337.663 562.975,-412.729"/>
<polygon fill="black" stroke="black" stroke-width="4" points="559.636,-413.782 565.736,-422.444 566.369,-411.868 559.636,-413.782"/>
</g>
<!-- 10&#45;&gt;T -->
<g id="edge102" class="edge"><title>10&#45;&gt;T</title>
<path fill="none" stroke="black" stroke-width="4" d="M479.391,-51.8765C517.377,-47.7549 607.286,-38.9622 683,-38.9622 683,-38.9622 683,-38.9622 1021,-38.9622 1079.39,-38.9622 1107.26,-11.4366 1152,-48.9622 1201.5,-90.4857 1229.28,-293.197 1237.99,-368.087"/>
<polygon fill="black" stroke="black" stroke-width="4" points="1234.53,-368.634 1239.13,-378.175 1241.48,-367.843 1234.53,-368.634"/>
</g>
<!-- 10&#45;&gt;17 -->
<g id="edge101" class="edge"><title>10&#45;&gt;17</title>
<path fill="none" stroke="#7f006d" stroke-width="4" d="M479.167,-58.8722C517.884,-69.3362 608.747,-93.8938 654.954,-106.382"/>
<polygon fill="#7f006d" stroke="#7f006d" stroke-width="4" points="654.326,-109.838 664.893,-109.068 656.153,-103.08 654.326,-109.838"/>
</g>
</g>
</svg>
