<?xml version="1.0" encoding="UTF-8" standalone="no"?>
<!DOCTYPE svg PUBLIC "-//W3C//DTD SVG 1.1//EN"
 "http://www.w3.org/Graphics/SVG/1.1/DTD/svg11.dtd">
<!-- Generated by graphviz version 2.36.0 (20140111.2315)
 -->
<!-- Title: %3 Pages: 1 -->
<svg width="684pt" height="210pt"
 viewBox="0.00 0.00 684.00 209.60" xmlns="http://www.w3.org/2000/svg" xmlns:xlink="http://www.w3.org/1999/xlink">
<g id="graph0" class="graph" transform="scale(1 1) rotate(0) translate(4 205.6)">
<title>%3</title>
<polygon fill="white" stroke="none" points="-4,4 -4,-205.6 680,-205.6 680,4 -4,4"/>
<!-- G15 -->
<g id="node1" class="node"><title>G15</title>
<ellipse fill="none" stroke="black" stroke-width="2" cx="152" cy="-90.5998" rx="25.9954" ry="25.9954"/>
<text text-anchor="middle" x="152" y="-86.8998" font-family="Times,serif" font-size="14.00">G15</text>
</g>
<!-- G16 -->
<g id="node2" class="node"><title>G16</title>
<ellipse fill="none" stroke="black" stroke-width="2" cx="524" cy="-87.5998" rx="25.9954" ry="25.9954"/>
<text text-anchor="middle" x="524" y="-83.8998" font-family="Times,serif" font-size="14.00">G16</text>
</g>
<!-- G15&#45;&gt;G16 -->
<g id="edge1" class="edge"><title>G15&#45;&gt;G16</title>
<path fill="none" stroke="#54007f" stroke-width="4" d="M178.141,-89.1914C242.477,-87.3414 413.232,-85.8944 487.579,-86.495"/>
<polygon fill="#54007f" stroke="#54007f" stroke-width="4" points="487.79,-89.9972 497.825,-86.5986 487.861,-82.9975 487.79,-89.9972"/>
</g>
<!-- G15&#45;&gt;G16 -->
<g id="edge2" class="edge"><title>G15&#45;&gt;G16</title>
<path fill="none" stroke="black" stroke-width="4" d="M178.141,-92.002C242.477,-93.2515 413.232,-91.9503 487.579,-89.743"/>
<polygon fill="black" stroke="black" stroke-width="4" points="487.943,-93.2331 497.825,-89.411 487.717,-86.2368 487.943,-93.2331"/>
</g>
<!-- G1T -->
<g id="node3" class="node"><title>G1T</title>
<ellipse fill="none" stroke="black" stroke-width="2" cx="649" cy="-65.5998" rx="26.7961" ry="26.7961"/>
<text text-anchor="middle" x="649" y="-61.8998" font-family="Times,serif" font-size="14.00">G1T</text>
</g>
<!-- G15&#45;&gt;G1T -->
<g id="edge3" class="edge"><title>G15&#45;&gt;G1T</title>
<path fill="none" stroke="black" stroke-width="4" d="M171.395,-73.242C189.773,-57.0007 219.596,-33.5082 250,-21.5998 301.741,-1.33418 318.546,-9.16268 374,-5.59979 452.163,-0.577816 474.643,6.75542 550,-14.5998 574.105,-21.4307 599.125,-34.5689 617.852,-45.7993"/>
<polygon fill="black" stroke="black" stroke-width="4" points="616.156,-48.8653 626.507,-51.1232 619.823,-42.9028 616.156,-48.8653"/>
</g>
<!-- G16&#45;&gt;G1T -->
<g id="edge4" class="edge"><title>G16&#45;&gt;G1T</title>
<path fill="none" stroke="black" stroke-width="4" d="M549.891,-83.1478C567.944,-79.9188 592.613,-75.5063 612.698,-71.9139"/>
<polygon fill="black" stroke="black" stroke-width="4" points="613.496,-75.3268 622.724,-70.1207 612.264,-68.4361 613.496,-75.3268"/>
</g>
<!-- G11 -->
<g id="node4" class="node"><title>G11</title>
<ellipse fill="none" stroke="black" stroke-width="2" cx="152" cy="-176.6" rx="25.9954" ry="25.9954"/>
<text text-anchor="middle" x="152" y="-172.9" font-family="Times,serif" font-size="14.00">G11</text>
</g>
<!-- G11&#45;&gt;G16 -->
<g id="edge5" class="edge"><title>G11&#45;&gt;G16</title>
<path fill="none" stroke="#00557f" stroke-width="4" d="M178.046,-175.779C207.868,-174.413 259.043,-170.833 302,-161.6 370.628,-146.849 447.735,-118.106 490.311,-101.11"/>
<polygon fill="#00557f" stroke="#00557f" stroke-width="4" points="491.643,-104.347 499.612,-97.3642 489.028,-97.8536 491.643,-104.347"/>
</g>
<!-- G11&#45;&gt;G1T -->
<g id="edge7" class="edge"><title>G11&#45;&gt;G1T</title>
<path fill="none" stroke="black" stroke-width="4" d="M178.171,-177.539C242.484,-179.082 417.132,-177.849 550,-126.6 574.971,-116.968 600.558,-100.785 619.323,-87.5074"/>
<polygon fill="black" stroke="black" stroke-width="4" points="621.382,-90.3381 627.438,-81.645 617.282,-84.6638 621.382,-90.3381"/>
</g>
<!-- G13 -->
<g id="node5" class="node"><title>G13</title>
<ellipse fill="none" stroke="black" stroke-width="2" cx="276" cy="-133.6" rx="25.9954" ry="25.9954"/>
<text text-anchor="middle" x="276" y="-129.9" font-family="Times,serif" font-size="14.00">G13</text>
</g>
<!-- G11&#45;&gt;G13 -->
<g id="edge6" class="edge"><title>G11&#45;&gt;G13</title>
<path fill="none" stroke="black" stroke-width="4" d="M176.812,-168.207C195.286,-161.696 221.118,-152.591 241.65,-145.354"/>
<polygon fill="black" stroke="black" stroke-width="4" points="242.98,-148.597 251.248,-141.972 240.653,-141.995 242.98,-148.597"/>
</g>
<!-- G13&#45;&gt;G16 -->
<g id="edge19" class="edge"><title>G13&#45;&gt;G16</title>
<path fill="none" stroke="#54007f" stroke-width="4" d="M301.846,-129.797C331.476,-125.177 382.467,-116.959 426,-108.6 446.748,-104.615 469.874,-99.6302 488.34,-95.5169"/>
<polygon fill="#54007f" stroke="#54007f" stroke-width="4" points="489.356,-98.8761 498.347,-93.2718 487.823,-92.0459 489.356,-98.8761"/>
</g>
<!-- G13&#45;&gt;G1T -->
<g id="edge21" class="edge"><title>G13&#45;&gt;G1T</title>
<path fill="none" stroke="black" stroke-width="4" d="M302.026,-135.27C350.762,-137.802 461.391,-140.01 550,-115.6 574.054,-108.974 599.076,-96.0915 617.815,-85.0629"/>
<polygon fill="black" stroke="black" stroke-width="4" points="619.726,-87.9978 626.478,-79.8333 616.108,-82.0051 619.726,-87.9978"/>
</g>
<!-- G14 -->
<g id="node8" class="node"><title>G14</title>
<ellipse fill="none" stroke="black" stroke-width="2" cx="400" cy="-39.5998" rx="25.9954" ry="25.9954"/>
<text text-anchor="middle" x="400" y="-35.8998" font-family="Times,serif" font-size="14.00">G14</text>
</g>
<!-- G13&#45;&gt;G14 -->
<g id="edge20" class="edge"><title>G13&#45;&gt;G14</title>
<path fill="none" stroke="black" stroke-width="4" d="M296.873,-118.288C316.99,-102.788 348.276,-78.682 370.921,-61.2343"/>
<polygon fill="black" stroke="black" stroke-width="4" points="373.35,-63.7811 379.136,-54.9052 369.078,-58.2361 373.35,-63.7811"/>
</g>
<!-- G1S -->
<g id="node6" class="node"><title>G1S</title>
<ellipse fill="none" stroke="black" stroke-width="2" cx="27" cy="-133.6" rx="26.7961" ry="26.7961"/>
<text text-anchor="middle" x="27" y="-129.9" font-family="Times,serif" font-size="14.00">G1S</text>
</g>
<!-- G1S&#45;&gt;G15 -->
<g id="edge8" class="edge"><title>G1S&#45;&gt;G15</title>
<path fill="none" stroke="#7f0000" stroke-width="4" d="M52.3008,-125.104C70.9524,-118.584 96.9158,-109.507 117.532,-102.3"/>
<polygon fill="#7f0000" stroke="#7f0000" stroke-width="4" points="118.883,-105.535 127.168,-98.9312 116.573,-98.9275 118.883,-105.535"/>
</g>
<!-- G1S&#45;&gt;G11 -->
<g id="edge9" class="edge"><title>G1S&#45;&gt;G11</title>
<path fill="none" stroke="#7f5500" stroke-width="4" d="M52.3008,-142.095C70.9524,-148.616 96.9158,-157.692 117.532,-164.9"/>
<polygon fill="#7f5500" stroke="#7f5500" stroke-width="4" points="116.573,-168.272 127.168,-168.268 118.883,-161.664 116.573,-168.272"/>
</g>
<!-- G1S&#45;&gt;G13 -->
<g id="edge12" class="edge"><title>G1S&#45;&gt;G13</title>
<path fill="none" stroke="black" stroke-width="4" d="M53.503,-130.25C97.9211,-127.876 189.541,-127.727 239.913,-129.801"/>
<polygon fill="black" stroke="black" stroke-width="4" points="239.85,-133.301 250.004,-130.277 240.18,-126.309 239.85,-133.301"/>
</g>
<!-- G1S&#45;&gt;G13 -->
<g id="edge13" class="edge"><title>G1S&#45;&gt;G13</title>
<path fill="none" stroke="#00557f" stroke-width="4" d="M53.9665,-133.6C98.4859,-133.6 189.43,-133.6 239.677,-133.6"/>
<polygon fill="#00557f" stroke="#00557f" stroke-width="4" points="239.75,-137.1 249.75,-133.6 239.75,-130.1 239.75,-137.1"/>
</g>
<!-- G1S&#45;&gt;G13 -->
<g id="edge14" class="edge"><title>G1S&#45;&gt;G13</title>
<path fill="none" stroke="#00007f" stroke-width="4" d="M53.503,-136.95C97.9211,-139.323 189.541,-139.473 239.913,-137.399"/>
<polygon fill="#00007f" stroke="#00007f" stroke-width="4" points="240.18,-140.89 250.004,-136.923 239.85,-133.898 240.18,-140.89"/>
</g>
<!-- G12 -->
<g id="node7" class="node"><title>G12</title>
<ellipse fill="none" stroke="black" stroke-width="2" cx="276" cy="-50.5998" rx="25.9954" ry="25.9954"/>
<text text-anchor="middle" x="276" y="-46.8998" font-family="Times,serif" font-size="14.00">G12</text>
</g>
<!-- G1S&#45;&gt;G12 -->
<g id="edge10" class="edge"><title>G1S&#45;&gt;G12</title>
<path fill="none" stroke="#7f0054" stroke-width="4" d="M45.2971,-113.823C63.5727,-95.8146 94.1131,-70.3719 126,-58.5998 163.112,-44.8985 208.89,-43.6185 239.836,-45.4569"/>
<polygon fill="#7f0054" stroke="#7f0054" stroke-width="4" points="239.892,-48.9707 250.124,-46.2219 240.411,-41.9899 239.892,-48.9707"/>
</g>
<!-- G1S&#45;&gt;G12 -->
<g id="edge11" class="edge"><title>G1S&#45;&gt;G12</title>
<path fill="none" stroke="#547f00" stroke-width="4" d="M47.7496,-116.91C66.2309,-100.628 95.4995,-76.8601 126,-65.5998 163.003,-51.9387 208.622,-50.6261 239.563,-50.9735"/>
<polygon fill="#547f00" stroke="#547f00" stroke-width="4" points="239.799,-54.4779 249.857,-51.1481 239.918,-47.4789 239.799,-54.4779"/>
</g>
<!-- G12&#45;&gt;G16 -->
<g id="edge15" class="edge"><title>G12&#45;&gt;G16</title>
<path fill="none" stroke="#7f5500" stroke-width="4" d="M302.077,-52.8242C321.635,-55.8597 349.501,-60.8103 374,-64.5998 413.109,-70.6491 458.159,-76.5485 488.394,-80.9768"/>
<polygon fill="#7f5500" stroke="#7f5500" stroke-width="4" points="488.028,-84.4611 498.436,-82.4797 489.065,-77.5381 488.028,-84.4611"/>
</g>
<!-- G12&#45;&gt;G16 -->
<g id="edge16" class="edge"><title>G12&#45;&gt;G16</title>
<path fill="none" stroke="#7f0054" stroke-width="4" d="M300.874,-58.2857C320.481,-62.6543 348.994,-67.7319 374,-71.5998 412.878,-77.6134 457.628,-83.4789 487.857,-86.4695"/>
<polygon fill="#7f0054" stroke="#7f0054" stroke-width="4" points="487.63,-89.9634 497.911,-87.403 488.277,-82.9934 487.63,-89.9634"/>
</g>
<!-- G12&#45;&gt;G1T -->
<g id="edge18" class="edge"><title>G12&#45;&gt;G1T</title>
<path fill="none" stroke="black" stroke-width="4" d="M299.333,-38.4362C318.501,-28.7297 347.197,-15.9093 374,-10.5998 461.188,6.6717 563.903,-28.9402 615.276,-50.5934"/>
<polygon fill="black" stroke="black" stroke-width="4" points="613.982,-53.8469 624.551,-54.5881 616.751,-47.4178 613.982,-53.8469"/>
</g>
<!-- G12&#45;&gt;G14 -->
<g id="edge17" class="edge"><title>G12&#45;&gt;G14</title>
<path fill="none" stroke="black" stroke-width="4" d="M301.983,-48.3472C319.829,-46.7382 344.082,-44.5514 363.874,-42.7669"/>
<polygon fill="black" stroke="black" stroke-width="4" points="364.405,-46.2333 374.05,-41.8493 363.777,-39.2616 364.405,-46.2333"/>
</g>
<!-- G14&#45;&gt;G16 -->
<g id="edge22" class="edge"><title>G14&#45;&gt;G16</title>
<path fill="none" stroke="#007f00" stroke-width="4" d="M424.523,-48.8547C443.173,-56.1923 469.453,-66.5322 490.175,-74.685"/>
<polygon fill="#007f00" stroke="#007f00" stroke-width="4" points="488.962,-77.969 499.549,-78.3733 491.525,-71.455 488.962,-77.969"/>
</g>
<!-- G14&#45;&gt;G1T -->
<g id="edge23" class="edge"><title>G14&#45;&gt;G1T</title>
<path fill="none" stroke="black" stroke-width="4" d="M426.043,-42.2359C470.011,-46.8642 561.227,-56.4657 611.968,-61.8069"/>
<polygon fill="black" stroke="black" stroke-width="4" points="611.838,-65.3125 622.15,-62.8787 612.571,-58.351 611.838,-65.3125"/>
</g>
</g>
</svg>
