<?xml version="1.0" encoding="UTF-8" standalone="no"?>
<!DOCTYPE svg PUBLIC "-//W3C//DTD SVG 1.1//EN"
 "http://www.w3.org/Graphics/SVG/1.1/DTD/svg11.dtd">
<!-- Generated by graphviz version 2.36.0 (20140111.2315)
 -->
<!-- Title: %3 Pages: 1 -->
<svg width="312pt" height="60pt"
 viewBox="0.00 0.00 312.00 60.00" xmlns="http://www.w3.org/2000/svg" xmlns:xlink="http://www.w3.org/1999/xlink">
<g id="graph0" class="graph" transform="scale(1 1) rotate(0) translate(4 56)">
<title>%3</title>
<polygon fill="white" stroke="none" points="-4,4 -4,-56 308,-56 308,4 -4,4"/>
<!-- G2S -->
<g id="node1" class="node"><title>G2S</title>
<ellipse fill="none" stroke="black" stroke-width="2" cx="27" cy="-26" rx="26.7961" ry="26.7961"/>
<text text-anchor="middle" x="27" y="-22.3" font-family="Times,serif" font-size="14.00">G2S</text>
</g>
<!-- G21 -->
<g id="node2" class="node"><title>G21</title>
<ellipse fill="none" stroke="black" stroke-width="2" cx="152" cy="-26" rx="25.9954" ry="25.9954"/>
<text text-anchor="middle" x="152" y="-22.3" font-family="Times,serif" font-size="14.00">G21</text>
</g>
<!-- G2S&#45;&gt;G21 -->
<g id="edge1" class="edge"><title>G2S&#45;&gt;G21</title>
<path fill="none" stroke="#bf7f00" stroke-width="4" d="M53.4857,-21.6501C71.4989,-20.6255 95.8765,-20.4756 115.751,-21.2005"/>
<polygon fill="#bf7f00" stroke="#bf7f00" stroke-width="4" points="115.816,-24.7072 125.968,-21.6762 116.141,-17.7148 115.816,-24.7072"/>
</g>
<!-- G2S&#45;&gt;G21 -->
<g id="edge2" class="edge"><title>G2S&#45;&gt;G21</title>
<path fill="none" stroke="#3f007f" stroke-width="4" d="M53.7848,-26C71.6986,-26 95.7993,-26 115.522,-26"/>
<polygon fill="#3f007f" stroke="#3f007f" stroke-width="4" points="115.67,-29.5001 125.67,-26 115.67,-22.5001 115.67,-29.5001"/>
</g>
<!-- G2S&#45;&gt;G21 -->
<g id="edge3" class="edge"><title>G2S&#45;&gt;G21</title>
<path fill="none" stroke="#7fbf00" stroke-width="4" d="M53.4857,-30.3499C71.4989,-31.3745 95.8765,-31.5244 115.751,-30.7995"/>
<polygon fill="#7fbf00" stroke="#7fbf00" stroke-width="4" points="116.141,-34.2852 125.968,-30.3238 115.816,-27.2928 116.141,-34.2852"/>
</g>
<!-- G2T -->
<g id="node3" class="node"><title>G2T</title>
<ellipse fill="none" stroke="black" stroke-width="2" cx="277" cy="-26" rx="26.7961" ry="26.7961"/>
<text text-anchor="middle" x="277" y="-22.3" font-family="Times,serif" font-size="14.00">G2T</text>
</g>
<!-- G21&#45;&gt;G2T -->
<g id="edge4" class="edge"><title>G21&#45;&gt;G2T</title>
<path fill="none" stroke="black" stroke-width="4" d="M178.188,-26C195.941,-26 219.985,-26 239.791,-26"/>
<polygon fill="black" stroke="black" stroke-width="4" points="239.998,-29.5001 249.998,-26 239.998,-22.5001 239.998,-29.5001"/>
</g>
</g>
</svg>
