<?xml version="1.0" encoding="UTF-8" standalone="no"?>
<!DOCTYPE svg PUBLIC "-//W3C//DTD SVG 1.1//EN"
 "http://www.w3.org/Graphics/SVG/1.1/DTD/svg11.dtd">
<!-- Generated by graphviz version 2.36.0 (20140111.2315)
 -->
<!-- Title: %3 Pages: 1 -->
<svg width="808pt" height="349pt"
 viewBox="0.00 0.00 808.00 349.00" xmlns="http://www.w3.org/2000/svg" xmlns:xlink="http://www.w3.org/1999/xlink">
<g id="graph0" class="graph" transform="scale(1 1) rotate(0) translate(4 345)">
<title>%3</title>
<polygon fill="white" stroke="none" points="-4,4 -4,-345 804,-345 804,4 -4,4"/>
<!-- G02 -->
<g id="node1" class="node"><title>G02</title>
<ellipse fill="none" stroke="black" stroke-width="2" cx="152" cy="-305" rx="25.9954" ry="25.9954"/>
<text text-anchor="middle" x="152" y="-301.3" font-family="Times,serif" font-size="14.00">G02</text>
</g>
<!-- G0T -->
<g id="node2" class="node"><title>G0T</title>
<ellipse fill="none" stroke="black" stroke-width="2" cx="773" cy="-169" rx="26.7961" ry="26.7961"/>
<text text-anchor="middle" x="773" y="-165.3" font-family="Times,serif" font-size="14.00">G0T</text>
</g>
<!-- G02&#45;&gt;G0T -->
<g id="edge1" class="edge"><title>G02&#45;&gt;G0T</title>
<path fill="none" stroke="black" stroke-width="4" d="M177.617,-311.026C221.71,-321.274 317.206,-341 399,-341 399,-341 399,-341 525,-341 623.794,-341 711.383,-247.188 750.433,-198.129"/>
<polygon fill="black" stroke="black" stroke-width="4" points="753.315,-200.125 756.716,-190.091 747.8,-195.814 753.315,-200.125"/>
</g>
<!-- G08 -->
<g id="node3" class="node"><title>G08</title>
<ellipse fill="none" stroke="black" stroke-width="2" cx="524" cy="-132" rx="25.9954" ry="25.9954"/>
<text text-anchor="middle" x="524" y="-128.3" font-family="Times,serif" font-size="14.00">G08</text>
</g>
<!-- G02&#45;&gt;G08 -->
<g id="edge2" class="edge"><title>G02&#45;&gt;G08</title>
<path fill="none" stroke="black" stroke-width="4" d="M176.45,-295.842C205.991,-284.168 258.194,-263.084 302,-243 370.578,-211.558 449.131,-170.985 491.657,-148.628"/>
<polygon fill="black" stroke="black" stroke-width="4" points="493.453,-151.638 500.668,-143.88 490.19,-145.445 493.453,-151.638"/>
</g>
<!-- G09 -->
<g id="node4" class="node"><title>G09</title>
<ellipse fill="none" stroke="black" stroke-width="2" cx="648" cy="-216" rx="25.9954" ry="25.9954"/>
<text text-anchor="middle" x="648" y="-212.3" font-family="Times,serif" font-size="14.00">G09</text>
</g>
<!-- G02&#45;&gt;G09 -->
<g id="edge3" class="edge"><title>G02&#45;&gt;G09</title>
<path fill="none" stroke="#e57f00" stroke-width="4" d="M178.115,-301.848C226.546,-299.997 336.019,-300.212 426,-283 494.249,-269.945 570.384,-241.105 613.111,-225.645"/>
<polygon fill="#e57f00" stroke="#e57f00" stroke-width="4" points="614.49,-228.869 622.722,-222.2 612.128,-222.28 614.49,-228.869"/>
</g>
<!-- G02&#45;&gt;G09 -->
<g id="edge4" class="edge"><title>G02&#45;&gt;G09</title>
<path fill="none" stroke="#7f4c00" stroke-width="4" d="M178.115,-305.849C226.546,-306.997 336.019,-307.212 426,-290 495.13,-276.777 572.351,-247.357 614.75,-229.857"/>
<polygon fill="#7f4c00" stroke="#7f4c00" stroke-width="4" points="616.121,-233.077 624.004,-225.998 613.427,-226.617 616.121,-233.077"/>
</g>
<!-- G02&#45;&gt;G09 -->
<g id="edge5" class="edge"><title>G02&#45;&gt;G09</title>
<path fill="none" stroke="#7f007f" stroke-width="4" d="M177.739,-309.817C225.979,-313.996 335.786,-314.256 426,-297 496.052,-283.6 574.412,-253.57 616.427,-233.878"/>
<polygon fill="#7f007f" stroke="#7f007f" stroke-width="4" points="618.073,-236.971 625.563,-229.478 615.035,-230.664 618.073,-236.971"/>
</g>
<!-- G08&#45;&gt;G0T -->
<g id="edge10" class="edge"><title>G08&#45;&gt;G0T</title>
<path fill="none" stroke="black" stroke-width="4" d="M550.043,-135.751C594.126,-142.355 685.702,-156.073 736.364,-163.662"/>
<polygon fill="black" stroke="black" stroke-width="4" points="736.113,-167.163 746.521,-165.183 737.15,-160.24 736.113,-167.163"/>
</g>
<!-- G08&#45;&gt;G09 -->
<g id="edge11" class="edge"><title>G08&#45;&gt;G09</title>
<path fill="none" stroke="#7fe500" stroke-width="4" d="M545.696,-146.249C565.501,-159.886 595.566,-180.587 617.803,-195.897"/>
<polygon fill="#7fe500" stroke="#7fe500" stroke-width="4" points="615.981,-198.892 626.203,-201.681 619.951,-193.127 615.981,-198.892"/>
</g>
<!-- G09&#45;&gt;G0T -->
<g id="edge30" class="edge"><title>G09&#45;&gt;G0T</title>
<path fill="none" stroke="black" stroke-width="4" d="M672.425,-207.049C691.078,-199.921 717.436,-189.85 738.348,-181.859"/>
<polygon fill="black" stroke="black" stroke-width="4" points="739.73,-185.078 747.822,-178.239 737.231,-178.539 739.73,-185.078"/>
</g>
<!-- G01 -->
<g id="node5" class="node"><title>G01</title>
<ellipse fill="none" stroke="black" stroke-width="2" cx="400" cy="-262" rx="25.9954" ry="25.9954"/>
<text text-anchor="middle" x="400" y="-258.3" font-family="Times,serif" font-size="14.00">G01</text>
</g>
<!-- G01&#45;&gt;G0T -->
<g id="edge6" class="edge"><title>G01&#45;&gt;G0T</title>
<path fill="none" stroke="black" stroke-width="4" d="M426.104,-265.049C475.441,-270.041 587.744,-276.421 674,-244 701.901,-233.513 728.42,-212.273 746.819,-195.066"/>
<polygon fill="black" stroke="black" stroke-width="4" points="749.404,-197.435 754.187,-187.981 744.553,-192.389 749.404,-197.435"/>
</g>
<!-- G01&#45;&gt;G08 -->
<g id="edge7" class="edge"><title>G01&#45;&gt;G08</title>
<path fill="none" stroke="black" stroke-width="4" d="M417.453,-242.871C438.084,-220.118 473.66,-182.119 497.747,-157.045"/>
<polygon fill="black" stroke="black" stroke-width="4" points="500.399,-159.337 504.824,-149.71 495.362,-154.477 500.399,-159.337"/>
</g>
<!-- G01&#45;&gt;G08 -->
<g id="edge8" class="edge"><title>G01&#45;&gt;G08</title>
<path fill="none" stroke="#e57f00" stroke-width="4" d="M419.265,-244.752C440.71,-222.875 476.318,-185 499.725,-159.218"/>
<polygon fill="#e57f00" stroke="#e57f00" stroke-width="4" points="502.466,-161.405 506.568,-151.636 497.27,-156.715 502.466,-161.405"/>
</g>
<!-- G01&#45;&gt;G09 -->
<g id="edge9" class="edge"><title>G01&#45;&gt;G09</title>
<path fill="none" stroke="#007fb2" stroke-width="4" d="M425.942,-257.336C470.074,-249.084 562,-231.894 612.291,-222.49"/>
<polygon fill="#007fb2" stroke="#007fb2" stroke-width="4" points="613.172,-225.886 622.358,-220.608 611.885,-219.006 613.172,-225.886"/>
</g>
<!-- G0S -->
<g id="node6" class="node"><title>G0S</title>
<ellipse fill="none" stroke="black" stroke-width="2" cx="27" cy="-150" rx="26.7961" ry="26.7961"/>
<text text-anchor="middle" x="27" y="-146.3" font-family="Times,serif" font-size="14.00">G0S</text>
</g>
<!-- G0S&#45;&gt;G02 -->
<g id="edge12" class="edge"><title>G0S&#45;&gt;G02</title>
<path fill="none" stroke="#7f7f00" stroke-width="4" d="M44.0801,-170.264C65.7462,-197.566 104.405,-246.283 128.822,-277.052"/>
<polygon fill="#7f7f00" stroke="#7f7f00" stroke-width="4" points="126.347,-279.564 135.305,-285.222 131.83,-275.213 126.347,-279.564"/>
</g>
<!-- G0S&#45;&gt;G08 -->
<g id="edge14" class="edge"><title>G0S&#45;&gt;G08</title>
<path fill="none" stroke="#00197f" stroke-width="4" d="M53.7452,-146.794C73.4833,-144.476 101.418,-141.499 126,-140 259.244,-131.873 418.059,-131.463 487.525,-131.746"/>
<polygon fill="#00197f" stroke="#00197f" stroke-width="4" points="487.872,-135.248 497.889,-131.796 487.906,-128.248 487.872,-135.248"/>
</g>
<!-- G0S&#45;&gt;G01 -->
<g id="edge13" class="edge"><title>G0S&#45;&gt;G01</title>
<path fill="none" stroke="#19007f" stroke-width="4" d="M49.324,-164.827C68.6211,-177.698 98.1954,-196.088 126,-208 206.771,-242.603 310.568,-255.294 363.905,-259.743"/>
<polygon fill="#19007f" stroke="#19007f" stroke-width="4" points="363.635,-263.232 373.878,-260.527 364.183,-256.254 363.635,-263.232"/>
</g>
<!-- G06 -->
<g id="node7" class="node"><title>G06</title>
<ellipse fill="none" stroke="black" stroke-width="2" cx="276" cy="-215" rx="25.9954" ry="25.9954"/>
<text text-anchor="middle" x="276" y="-211.3" font-family="Times,serif" font-size="14.00">G06</text>
</g>
<!-- G0S&#45;&gt;G06 -->
<g id="edge15" class="edge"><title>G0S&#45;&gt;G06</title>
<path fill="none" stroke="#7f004c" stroke-width="4" d="M50.1301,-163.209C69.4656,-174.106 98.6462,-189.024 126,-197 163.928,-208.059 209.196,-212.332 239.805,-213.978"/>
<polygon fill="#7f004c" stroke="#7f004c" stroke-width="4" points="239.831,-217.483 249.984,-214.458 240.16,-210.491 239.831,-217.483"/>
</g>
<!-- G04 -->
<g id="node8" class="node"><title>G04</title>
<ellipse fill="none" stroke="black" stroke-width="2" cx="152" cy="-25" rx="25.9954" ry="25.9954"/>
<text text-anchor="middle" x="152" y="-21.3" font-family="Times,serif" font-size="14.00">G04</text>
</g>
<!-- G0S&#45;&gt;G04 -->
<g id="edge16" class="edge"><title>G0S&#45;&gt;G04</title>
<path fill="none" stroke="#7f007f" stroke-width="4" d="M46.1491,-131.556C67.2538,-110.108 102.217,-74.5766 125.911,-50.4968"/>
<polygon fill="#7f007f" stroke="#7f007f" stroke-width="4" points="128.657,-52.6962 133.176,-43.1135 123.668,-47.7865 128.657,-52.6962"/>
</g>
<!-- G03 -->
<g id="node9" class="node"><title>G03</title>
<ellipse fill="none" stroke="black" stroke-width="2" cx="152" cy="-169" rx="25.9954" ry="25.9954"/>
<text text-anchor="middle" x="152" y="-165.3" font-family="Times,serif" font-size="14.00">G03</text>
</g>
<!-- G0S&#45;&gt;G03 -->
<g id="edge17" class="edge"><title>G0S&#45;&gt;G03</title>
<path fill="none" stroke="#7f4c00" stroke-width="4" d="M53.4857,-153.937C71.5819,-156.732 96.1013,-160.52 116.026,-163.597"/>
<polygon fill="#7f4c00" stroke="#7f4c00" stroke-width="4" points="115.551,-167.066 125.968,-165.133 116.619,-160.148 115.551,-167.066"/>
</g>
<!-- G07 -->
<g id="node10" class="node"><title>G07</title>
<ellipse fill="none" stroke="black" stroke-width="2" cx="400" cy="-95" rx="25.9954" ry="25.9954"/>
<text text-anchor="middle" x="400" y="-91.3" font-family="Times,serif" font-size="14.00">G07</text>
</g>
<!-- G0S&#45;&gt;G07 -->
<g id="edge18" class="edge"><title>G0S&#45;&gt;G07</title>
<path fill="none" stroke="black" stroke-width="4" d="M52.408,-141.023C72.1389,-135.363 100.696,-128.437 126,-124 210.649,-109.155 311.305,-99.3601 363.555,-95.9009"/>
<polygon fill="black" stroke="black" stroke-width="4" points="363.878,-99.3876 373.643,-95.2766 363.446,-92.401 363.878,-99.3876"/>
</g>
<!-- G0S&#45;&gt;G07 -->
<g id="edge19" class="edge"><title>G0S&#45;&gt;G07</title>
<path fill="none" stroke="#e57f00" stroke-width="4" d="M53.6269,-146.429C73.3032,-142.081 101.213,-135.347 126,-131 210.869,-116.117 311.828,-106.309 363.961,-100.418"/>
<polygon fill="#e57f00" stroke="#e57f00" stroke-width="4" points="364.487,-103.881 374.019,-99.2557 363.683,-96.9268 364.487,-103.881"/>
</g>
<!-- G06&#45;&gt;G0T -->
<g id="edge20" class="edge"><title>G06&#45;&gt;G0T</title>
<path fill="none" stroke="black" stroke-width="4" d="M293.761,-233.743C311.563,-252.115 341.567,-278.924 374,-290 395.871,-297.469 402.936,-291.482 426,-290 536.965,-282.871 573.113,-303.754 674,-257 703.671,-243.249 730.776,-217.398 748.921,-197.258"/>
<polygon fill="black" stroke="black" stroke-width="4" points="751.693,-199.406 755.659,-189.581 746.432,-194.788 751.693,-199.406"/>
</g>
<!-- G06&#45;&gt;G09 -->
<g id="edge21" class="edge"><title>G06&#45;&gt;G09</title>
<path fill="none" stroke="#00197f" stroke-width="4" d="M301.851,-211.072C366.096,-206.789 537.828,-207.047 612.04,-211.29"/>
<polygon fill="#00197f" stroke="#00197f" stroke-width="4" points="612.053,-214.798 622.257,-211.945 612.501,-207.813 612.053,-214.798"/>
</g>
<!-- G06&#45;&gt;G09 -->
<g id="edge22" class="edge"><title>G06&#45;&gt;G09</title>
<path fill="none" stroke="#7f4c00" stroke-width="4" d="M302.141,-213.863C366.477,-212.709 537.232,-213.108 611.579,-214.512"/>
<polygon fill="#7f4c00" stroke="#7f4c00" stroke-width="4" points="611.754,-218.017 621.825,-214.727 611.9,-211.018 611.754,-218.017"/>
</g>
<!-- G06&#45;&gt;G09 -->
<g id="edge23" class="edge"><title>G06&#45;&gt;G09</title>
<path fill="none" stroke="#19007f" stroke-width="4" d="M302.141,-216.674C366.477,-218.619 537.232,-219.164 611.579,-217.76"/>
<polygon fill="#19007f" stroke="#19007f" stroke-width="4" points="611.903,-221.254 621.825,-217.539 611.751,-214.256 611.903,-221.254"/>
</g>
<!-- G06&#45;&gt;G09 -->
<g id="edge24" class="edge"><title>G06&#45;&gt;G09</title>
<path fill="none" stroke="#7f7f00" stroke-width="4" d="M301.851,-219.462C366.096,-224.538 537.828,-225.229 612.04,-220.982"/>
<polygon fill="#7f7f00" stroke="#7f7f00" stroke-width="4" points="612.504,-224.459 622.257,-220.32 612.051,-217.474 612.504,-224.459"/>
</g>
<!-- G06&#45;&gt;G07 -->
<g id="edge25" class="edge"><title>G06&#45;&gt;G07</title>
<path fill="none" stroke="black" stroke-width="4" d="M295.002,-197.294C315.815,-176.821 350.217,-142.983 373.711,-119.874"/>
<polygon fill="black" stroke="black" stroke-width="4" points="376.25,-122.287 380.925,-112.779 371.341,-117.296 376.25,-122.287"/>
</g>
<!-- G04&#45;&gt;G0T -->
<g id="edge26" class="edge"><title>G04&#45;&gt;G0T</title>
<path fill="none" stroke="black" stroke-width="4" d="M178.099,-21.9465C222.551,-16.8111 318.065,-7 399,-7 399,-7 399,-7 525,-7 621.272,-7 709.173,-94.1155 749.21,-140.58"/>
<polygon fill="black" stroke="black" stroke-width="4" points="746.764,-143.109 755.895,-148.483 752.108,-138.588 746.764,-143.109"/>
</g>
<!-- G04&#45;&gt;G09 -->
<g id="edge27" class="edge"><title>G04&#45;&gt;G09</title>
<path fill="none" stroke="#19007f" stroke-width="4" d="M177.829,-20.9446C244.326,-13.5815 429.56,-6.13394 550,-86 586.93,-110.489 615.535,-153.854 631.829,-183.739"/>
<polygon fill="#19007f" stroke="#19007f" stroke-width="4" points="628.917,-185.719 636.681,-192.927 635.106,-182.45 628.917,-185.719"/>
</g>
<!-- G04&#45;&gt;G09 -->
<g id="edge28" class="edge"><title>G04&#45;&gt;G09</title>
<path fill="none" stroke="#00197f" stroke-width="4" d="M178.313,-24.2173C245.221,-20.5461 429.851,-13.3269 550,-93 585.261,-116.382 612.932,-156.972 629.545,-185.127"/>
<polygon fill="#00197f" stroke="#00197f" stroke-width="4" points="626.516,-186.881 634.545,-193.794 632.579,-183.383 626.516,-186.881"/>
</g>
<!-- G05 -->
<g id="node11" class="node"><title>G05</title>
<ellipse fill="none" stroke="black" stroke-width="2" cx="276" cy="-65" rx="25.9954" ry="25.9954"/>
<text text-anchor="middle" x="276" y="-61.3" font-family="Times,serif" font-size="14.00">G05</text>
</g>
<!-- G04&#45;&gt;G05 -->
<g id="edge29" class="edge"><title>G04&#45;&gt;G05</title>
<path fill="none" stroke="black" stroke-width="4" d="M176.812,-32.8074C195.167,-38.8252 220.785,-47.2247 241.252,-53.935"/>
<polygon fill="black" stroke="black" stroke-width="4" points="240.238,-57.2859 250.831,-57.0756 242.419,-50.6342 240.238,-57.2859"/>
</g>
<!-- G03&#45;&gt;G0T -->
<g id="edge31" class="edge"><title>G03&#45;&gt;G0T</title>
<path fill="none" stroke="black" stroke-width="4" d="M178.032,-169C274.552,-169 622.788,-169 736.098,-169"/>
<polygon fill="black" stroke="black" stroke-width="4" points="736.314,-172.5 746.314,-169 736.314,-165.5 736.314,-172.5"/>
</g>
<!-- G03&#45;&gt;G08 -->
<g id="edge32" class="edge"><title>G03&#45;&gt;G08</title>
<path fill="none" stroke="#19007f" stroke-width="4" d="M178.097,-165.673C197.667,-163.133 225.537,-159.633 250,-157 335.222,-147.829 435.645,-139.189 487.706,-134.872"/>
<polygon fill="#19007f" stroke="#19007f" stroke-width="4" points="488.078,-138.353 497.756,-134.042 487.502,-131.377 488.078,-138.353"/>
</g>
<!-- G03&#45;&gt;G09 -->
<g id="edge33" class="edge"><title>G03&#45;&gt;G09</title>
<path fill="none" stroke="#7f007f" stroke-width="4" d="M178.177,-171.395C259.774,-179.159 517.112,-203.642 611.684,-212.64"/>
<polygon fill="#7f007f" stroke="#7f007f" stroke-width="4" points="611.587,-216.147 621.874,-213.609 612.25,-209.178 611.587,-216.147"/>
</g>
<!-- G03&#45;&gt;G05 -->
<g id="edge34" class="edge"><title>G03&#45;&gt;G05</title>
<path fill="none" stroke="black" stroke-width="4" d="M172.062,-152.75C192.445,-135.375 224.935,-107.678 247.956,-88.0537"/>
<polygon fill="black" stroke="black" stroke-width="4" points="250.329,-90.63 255.669,-81.4791 245.788,-85.3029 250.329,-90.63"/>
</g>
<!-- G07&#45;&gt;G0T -->
<g id="edge35" class="edge"><title>G07&#45;&gt;G0T</title>
<path fill="none" stroke="black" stroke-width="4" d="M426.103,-93.0203C445.675,-91.5801 473.547,-89.7556 498,-89 521.1,-88.2862 527.234,-85.0231 550,-89 620.013,-101.23 697.087,-133.624 739.498,-153.236"/>
<polygon fill="black" stroke="black" stroke-width="4" points="738.218,-156.501 748.758,-157.571 741.185,-150.161 738.218,-156.501"/>
</g>
<!-- G07&#45;&gt;G08 -->
<g id="edge36" class="edge"><title>G07&#45;&gt;G08</title>
<path fill="none" stroke="#007fb2" stroke-width="4" d="M425.395,-100.556C443.92,-105.701 469.593,-113.426 489.959,-119.954"/>
<polygon fill="#007fb2" stroke="#007fb2" stroke-width="4" points="488.884,-123.285 499.476,-123.046 491.047,-116.627 488.884,-123.285"/>
</g>
<!-- G07&#45;&gt;G08 -->
<g id="edge37" class="edge"><title>G07&#45;&gt;G08</title>
<path fill="none" stroke="black" stroke-width="4" d="M424.234,-104.462C442.332,-110.601 467.742,-118.415 488.255,-124.201"/>
<polygon fill="black" stroke="black" stroke-width="4" points="487.604,-127.652 498.175,-126.942 489.468,-120.905 487.604,-127.652"/>
</g>
<!-- G07&#45;&gt;G09 -->
<g id="edge38" class="edge"><title>G07&#45;&gt;G09</title>
<path fill="none" stroke="#e57f00" stroke-width="4" d="M425.687,-90.6612C456.506,-86.4718 510.026,-83.3172 550,-103 585.636,-120.547 613.434,-157.73 629.968,-184.662"/>
<polygon fill="#e57f00" stroke="#e57f00" stroke-width="4" points="627.02,-186.552 635.138,-193.359 633.037,-182.975 627.02,-186.552"/>
</g>
<!-- G05&#45;&gt;G0T -->
<g id="edge39" class="edge"><title>G05&#45;&gt;G0T</title>
<path fill="none" stroke="black" stroke-width="4" d="M302.087,-62.3606C321.652,-60.4405 349.519,-58.0078 374,-57 509.132,-51.437 548.391,-57.8607 674,-108 698.857,-117.922 724.449,-134.092 743.245,-147.292"/>
<polygon fill="black" stroke="black" stroke-width="4" points="741.207,-150.138 751.375,-153.114 745.283,-144.446 741.207,-150.138"/>
</g>
<!-- G05&#45;&gt;G08 -->
<g id="edge40" class="edge"><title>G05&#45;&gt;G08</title>
<path fill="none" stroke="#e57f00" stroke-width="4" d="M301.668,-60.869C331.78,-56.7913 383.891,-52.878 426,-66 452.645,-74.3031 478.554,-92.6245 496.883,-107.862"/>
<polygon fill="#e57f00" stroke="#e57f00" stroke-width="4" points="494.875,-110.75 504.747,-114.599 499.43,-105.434 494.875,-110.75"/>
</g>
<!-- G05&#45;&gt;G07 -->
<g id="edge41" class="edge"><title>G05&#45;&gt;G07</title>
<path fill="none" stroke="black" stroke-width="4" d="M301.395,-70.9988C319.598,-75.4749 344.702,-81.648 364.892,-86.6127"/>
<polygon fill="black" stroke="black" stroke-width="4" points="364.1,-90.0223 374.647,-89.0116 365.772,-83.2248 364.1,-90.0223"/>
</g>
</g>
</svg>
