<?xml version="1.0" encoding="UTF-8" standalone="no"?>
<!DOCTYPE svg PUBLIC "-//W3C//DTD SVG 1.1//EN"
 "http://www.w3.org/Graphics/SVG/1.1/DTD/svg11.dtd">
<!-- Generated by graphviz version 2.36.0 (20140111.2315)
 -->
<!-- Title: %3 Pages: 1 -->
<svg width="1240pt" height="948pt"
 viewBox="0.00 0.00 1240.00 948.16" xmlns="http://www.w3.org/2000/svg" xmlns:xlink="http://www.w3.org/1999/xlink">
<g id="graph0" class="graph" transform="scale(1 1) rotate(0) translate(4 944.159)">
<title>%3</title>
<polygon fill="white" stroke="none" points="-4,4 -4,-944.159 1236,-944.159 1236,4 -4,4"/>
<!-- G0S -->
<g id="node1" class="node"><title>G0S</title>
<ellipse fill="none" stroke="black" stroke-width="2" cx="27" cy="-454.938" rx="26.7961" ry="26.7961"/>
<text text-anchor="middle" x="27" y="-451.238" font-family="Times,serif" font-size="14.00">G0S</text>
</g>
<!-- G07 -->
<g id="node2" class="node"><title>G07</title>
<ellipse fill="none" stroke="black" stroke-width="2" cx="405" cy="-633.938" rx="25.9954" ry="25.9954"/>
<text text-anchor="middle" x="405" y="-630.238" font-family="Times,serif" font-size="14.00">G07</text>
</g>
<!-- G0S&#45;&gt;G07 -->
<g id="edge1" class="edge"><title>G0S&#45;&gt;G07</title>
<path fill="none" stroke="#5f007f" stroke-width="4" d="M51.2802,-466.794C71.0831,-476.826 100.314,-491.514 126,-503.938 214.542,-546.767 319.946,-595.427 371.852,-619.237"/>
<polygon fill="#5f007f" stroke="#5f007f" stroke-width="4" points="370.653,-622.538 381.202,-623.523 373.57,-616.175 370.653,-622.538"/>
</g>
<!-- G03 -->
<g id="node3" class="node"><title>G03</title>
<ellipse fill="none" stroke="black" stroke-width="2" cx="152" cy="-291.938" rx="25.9954" ry="25.9954"/>
<text text-anchor="middle" x="152" y="-288.238" font-family="Times,serif" font-size="14.00">G03</text>
</g>
<!-- G0S&#45;&gt;G03 -->
<g id="edge2" class="edge"><title>G0S&#45;&gt;G03</title>
<path fill="none" stroke="#7f00df" stroke-width="4" d="M43.578,-434.294C65.3561,-405.434 104.984,-352.919 129.542,-320.374"/>
<polygon fill="#7f00df" stroke="#7f00df" stroke-width="4" points="132.512,-322.25 135.741,-312.159 126.924,-318.033 132.512,-322.25"/>
</g>
<!-- G019 -->
<g id="node4" class="node"><title>G019</title>
<ellipse fill="none" stroke="black" stroke-width="2" cx="673" cy="-480.938" rx="30.5947" ry="30.5947"/>
<text text-anchor="middle" x="673" y="-477.238" font-family="Times,serif" font-size="14.00">G019</text>
</g>
<!-- G0S&#45;&gt;G019 -->
<g id="edge3" class="edge"><title>G0S&#45;&gt;G019</title>
<path fill="none" stroke="#9f7f00" stroke-width="4" d="M53.6329,-452.582C147.104,-444.229 469.419,-417.604 570,-437.938 593.31,-442.651 617.919,-452.855 637.124,-462.141"/>
<polygon fill="#9f7f00" stroke="#9f7f00" stroke-width="4" points="635.576,-465.28 646.088,-466.597 638.692,-459.012 635.576,-465.28"/>
</g>
<!-- G022 -->
<g id="node5" class="node"><title>G022</title>
<ellipse fill="none" stroke="black" stroke-width="2" cx="1075" cy="-300.938" rx="30.5947" ry="30.5947"/>
<text text-anchor="middle" x="1075" y="-297.238" font-family="Times,serif" font-size="14.00">G022</text>
</g>
<!-- G0S&#45;&gt;G022 -->
<g id="edge4" class="edge"><title>G0S&#45;&gt;G022</title>
<path fill="none" stroke="#007fdf" stroke-width="4" d="M30.107,-428.62C39.5257,-334.062 86.0272,-17.9383 275,-17.9383 275,-17.9383 275,-17.9383 808,-17.9383 940.902,-17.9383 1028.33,-185.905 1060.35,-263.096"/>
<polygon fill="#007fdf" stroke="#007fdf" stroke-width="4" points="1057.15,-264.528 1064.15,-272.482 1063.64,-261.899 1057.15,-264.528"/>
</g>
<!-- G0S&#45;&gt;G022 -->
<g id="edge5" class="edge"><title>G0S&#45;&gt;G022</title>
<path fill="none" stroke="#007f1f" stroke-width="4" d="M30.3738,-428.687C40.3849,-335.328 87.7491,-24.9383 275,-24.9383 275,-24.9383 275,-24.9383 808,-24.9383 938.88,-24.9383 1025.66,-187.832 1058.85,-263.336"/>
<polygon fill="#007f1f" stroke="#007f1f" stroke-width="4" points="1055.82,-265.157 1063,-272.955 1062.25,-262.386 1055.82,-265.157"/>
</g>
<!-- G0S&#45;&gt;G022 -->
<g id="edge6" class="edge"><title>G0S&#45;&gt;G022</title>
<path fill="none" stroke="#009f7f" stroke-width="4" d="M30.6966,-428.56C41.3798,-335.939 89.6861,-31.9383 275,-31.9383 275,-31.9383 275,-31.9383 808,-31.9383 937.129,-31.9383 1023.33,-190.502 1057.49,-264.211"/>
<polygon fill="#009f7f" stroke="#009f7f" stroke-width="4" points="1054.44,-265.959 1061.77,-273.604 1060.81,-263.053 1054.44,-265.959"/>
</g>
<!-- G04 -->
<g id="node6" class="node"><title>G04</title>
<ellipse fill="none" stroke="black" stroke-width="2" cx="276" cy="-399.938" rx="25.9954" ry="25.9954"/>
<text text-anchor="middle" x="276" y="-396.238" font-family="Times,serif" font-size="14.00">G04</text>
</g>
<!-- G0S&#45;&gt;G04 -->
<g id="edge7" class="edge"><title>G0S&#45;&gt;G04</title>
<path fill="none" stroke="#007f9f" stroke-width="4" d="M53.3511,-448.849C73.1197,-444.135 101.276,-437.494 126,-431.938 165.14,-423.143 210.185,-413.541 240.41,-407.173"/>
<polygon fill="#007f9f" stroke="#007f9f" stroke-width="4" points="241.383,-410.545 250.448,-405.062 239.942,-403.695 241.383,-410.545"/>
</g>
<!-- G09 -->
<g id="node7" class="node"><title>G09</title>
<ellipse fill="none" stroke="black" stroke-width="2" cx="539" cy="-673.938" rx="25.9954" ry="25.9954"/>
<text text-anchor="middle" x="539" y="-670.238" font-family="Times,serif" font-size="14.00">G09</text>
</g>
<!-- G0S&#45;&gt;G09 -->
<g id="edge8" class="edge"><title>G0S&#45;&gt;G09</title>
<path fill="none" stroke="black" stroke-width="4" d="M38.862,-478.529C54.2584,-509.665 85.1606,-564.441 126,-597.938 238.121,-689.903 425.492,-684.72 502.899,-677.927"/>
<polygon fill="black" stroke="black" stroke-width="4" points="503.445,-681.391 513.073,-676.968 502.788,-674.422 503.445,-681.391"/>
</g>
<!-- G018 -->
<g id="node8" class="node"><title>G018</title>
<ellipse fill="none" stroke="black" stroke-width="2" cx="539" cy="-471.938" rx="30.5947" ry="30.5947"/>
<text text-anchor="middle" x="539" y="-468.238" font-family="Times,serif" font-size="14.00">G018</text>
</g>
<!-- G0S&#45;&gt;G018 -->
<g id="edge9" class="edge"><title>G0S&#45;&gt;G018</title>
<path fill="none" stroke="#df7f00" stroke-width="4" d="M53.9921,-454.742C137.312,-456.011 398.124,-464.633 498.282,-469.337"/>
<polygon fill="#df7f00" stroke="#df7f00" stroke-width="4" points="498.14,-472.835 508.297,-469.822 498.478,-465.843 498.14,-472.835"/>
</g>
<!-- G0S&#45;&gt;G018 -->
<g id="edge10" class="edge"><title>G0S&#45;&gt;G018</title>
<path fill="none" stroke="#7f1f00" stroke-width="4" d="M53.6405,-457.201C136.552,-461.984 397.836,-470.792 498.198,-472.316"/>
<polygon fill="#7f1f00" stroke="#7f1f00" stroke-width="4" points="498.188,-475.816 508.233,-472.45 498.281,-468.816 498.188,-475.816"/>
</g>
<!-- G015 -->
<g id="node9" class="node"><title>G015</title>
<ellipse fill="none" stroke="black" stroke-width="2" cx="539" cy="-824.938" rx="30.5947" ry="30.5947"/>
<text text-anchor="middle" x="539" y="-821.238" font-family="Times,serif" font-size="14.00">G015</text>
</g>
<!-- G0S&#45;&gt;G015 -->
<g id="edge11" class="edge"><title>G0S&#45;&gt;G015</title>
<path fill="none" stroke="#5f7f00" stroke-width="4" d="M30.2638,-481.199C36.1885,-533.295 56.8583,-650.097 126,-712.938 233.354,-810.51 417.363,-824.354 498.076,-825.463"/>
<polygon fill="#5f7f00" stroke="#5f7f00" stroke-width="4" points="498.28,-828.965 508.307,-825.542 498.334,-821.965 498.28,-828.965"/>
</g>
<!-- G01 -->
<g id="node10" class="node"><title>G01</title>
<ellipse fill="none" stroke="black" stroke-width="2" cx="276" cy="-622.938" rx="25.9954" ry="25.9954"/>
<text text-anchor="middle" x="276" y="-619.238" font-family="Times,serif" font-size="14.00">G01</text>
</g>
<!-- G0S&#45;&gt;G01 -->
<g id="edge12" class="edge"><title>G0S&#45;&gt;G01</title>
<path fill="none" stroke="#7f9f00" stroke-width="4" d="M41.6908,-477.51C58.2017,-504.293 88.4713,-548.442 126,-573.938 160.806,-597.585 208.273,-609.475 240.196,-615.838"/>
<polygon fill="#7f9f00" stroke="#7f9f00" stroke-width="4" points="239.905,-619.346 250.386,-617.793 241.224,-612.472 239.905,-619.346"/>
</g>
<!-- G0S&#45;&gt;G01 -->
<g id="edge13" class="edge"><title>G0S&#45;&gt;G01</title>
<path fill="none" stroke="#007f5f" stroke-width="4" d="M39.4134,-478.549C55.3183,-507.02 86.6735,-554.221 126,-580.938 160.605,-604.448 207.725,-616.337 239.641,-621.188"/>
<polygon fill="#007f5f" stroke="#007f5f" stroke-width="4" points="239.463,-624.695 249.842,-622.569 240.402,-617.759 239.463,-624.695"/>
</g>
<!-- G012 -->
<g id="node11" class="node"><title>G012</title>
<ellipse fill="none" stroke="black" stroke-width="2" cx="405" cy="-159.938" rx="30.5947" ry="30.5947"/>
<text text-anchor="middle" x="405" y="-156.238" font-family="Times,serif" font-size="14.00">G012</text>
</g>
<!-- G0S&#45;&gt;G012 -->
<g id="edge14" class="edge"><title>G0S&#45;&gt;G012</title>
<path fill="none" stroke="#7fdf00" stroke-width="4" d="M33.34,-429.224C43.6435,-385.979 70.343,-298.653 126,-249.938 195.141,-189.421 305.607,-169.486 364.311,-163.001"/>
<polygon fill="#7fdf00" stroke="#7fdf00" stroke-width="4" points="364.716,-166.478 374.305,-161.973 363.999,-159.515 364.716,-166.478"/>
</g>
<!-- G02 -->
<g id="node12" class="node"><title>G02</title>
<ellipse fill="none" stroke="black" stroke-width="2" cx="276" cy="-494.938" rx="25.9954" ry="25.9954"/>
<text text-anchor="middle" x="276" y="-491.238" font-family="Times,serif" font-size="14.00">G02</text>
</g>
<!-- G0S&#45;&gt;G02 -->
<g id="edge15" class="edge"><title>G0S&#45;&gt;G02</title>
<path fill="none" stroke="#1f7f00" stroke-width="4" d="M53.9665,-457.697C98.7172,-463.933 190.377,-478.72 240.457,-487.726"/>
<polygon fill="#1f7f00" stroke="#1f7f00" stroke-width="4" points="240.014,-491.203 250.48,-489.555 241.271,-484.316 240.014,-491.203"/>
</g>
<!-- G0S&#45;&gt;G02 -->
<g id="edge16" class="edge"><title>G0S&#45;&gt;G02</title>
<path fill="none" stroke="#7f009f" stroke-width="4" d="M53.043,-460.894C97.2404,-469.42 189.178,-484.4 239.757,-491.406"/>
<polygon fill="#7f009f" stroke="#7f009f" stroke-width="4" points="239.512,-494.904 249.891,-492.774 240.449,-487.967 239.512,-494.904"/>
</g>
<!-- G011 -->
<g id="node13" class="node"><title>G011</title>
<ellipse fill="none" stroke="black" stroke-width="2" cx="539" cy="-255.938" rx="30.5947" ry="30.5947"/>
<text text-anchor="middle" x="539" y="-252.238" font-family="Times,serif" font-size="14.00">G011</text>
</g>
<!-- G0S&#45;&gt;G011 -->
<g id="edge17" class="edge"><title>G0S&#45;&gt;G011</title>
<path fill="none" stroke="#7f005f" stroke-width="4" d="M32.5082,-429.034C41.5709,-385.816 66.4701,-300.088 126,-262.938 244.633,-188.905 422.308,-223.849 499.693,-244.512"/>
<polygon fill="#7f005f" stroke="#7f005f" stroke-width="4" points="498.926,-247.931 509.495,-247.197 500.776,-241.179 498.926,-247.931"/>
</g>
<!-- G06 -->
<g id="node14" class="node"><title>G06</title>
<ellipse fill="none" stroke="black" stroke-width="2" cx="405" cy="-529.938" rx="25.9954" ry="25.9954"/>
<text text-anchor="middle" x="405" y="-526.238" font-family="Times,serif" font-size="14.00">G06</text>
</g>
<!-- G0S&#45;&gt;G06 -->
<g id="edge18" class="edge"><title>G0S&#45;&gt;G06</title>
<path fill="none" stroke="#1f007f" stroke-width="4" d="M52.1472,-464.543C92.406,-480.051 176.123,-510.156 250,-522.938 290.397,-529.928 337.589,-531.059 368.98,-530.84"/>
<polygon fill="#1f007f" stroke="#1f007f" stroke-width="4" points="369.029,-534.34 378.987,-530.721 368.946,-527.341 369.029,-534.34"/>
</g>
<!-- G05 -->
<g id="node15" class="node"><title>G05</title>
<ellipse fill="none" stroke="black" stroke-width="2" cx="405" cy="-722.938" rx="25.9954" ry="25.9954"/>
<text text-anchor="middle" x="405" y="-719.238" font-family="Times,serif" font-size="14.00">G05</text>
</g>
<!-- G0S&#45;&gt;G05 -->
<g id="edge19" class="edge"><title>G0S&#45;&gt;G05</title>
<path fill="none" stroke="#005f7f" stroke-width="4" d="M30.6584,-481.237C37.086,-530.667 58.3338,-636.934 126,-687.938 198.132,-742.309 312.128,-734.582 369.13,-727.428"/>
<polygon fill="#005f7f" stroke="#005f7f" stroke-width="4" points="369.631,-730.893 379.087,-726.114 368.715,-723.953 369.631,-730.893"/>
</g>
<!-- G0S&#45;&gt;G05 -->
<g id="edge20" class="edge"><title>G0S&#45;&gt;G05</title>
<path fill="none" stroke="#7f5f00" stroke-width="4" d="M30.1835,-481.333C36.0053,-532.065 56.5624,-642.599 126,-694.938 198.497,-749.584 313.284,-741.503 369.991,-731.597"/>
<polygon fill="#7f5f00" stroke="#7f5f00" stroke-width="4" points="370.698,-735.026 379.881,-729.741 369.407,-728.146 370.698,-735.026"/>
</g>
<!-- G08 -->
<g id="node16" class="node"><title>G08</title>
<ellipse fill="none" stroke="black" stroke-width="2" cx="405" cy="-399.938" rx="25.9954" ry="25.9954"/>
<text text-anchor="middle" x="405" y="-396.238" font-family="Times,serif" font-size="14.00">G08</text>
</g>
<!-- G0S&#45;&gt;G08 -->
<g id="edge21" class="edge"><title>G0S&#45;&gt;G08</title>
<path fill="none" stroke="#df007f" stroke-width="4" d="M50.8526,-443.099C90.2351,-423.437 173.995,-384.837 250,-370.938 291.898,-363.277 340.146,-375.832 371.307,-386.742"/>
<polygon fill="#df007f" stroke="#df007f" stroke-width="4" points="370.2,-390.064 380.794,-390.199 372.597,-383.487 370.2,-390.064"/>
</g>
<!-- G07&#45;&gt;G019 -->
<g id="edge22" class="edge"><title>G07&#45;&gt;G019</title>
<path fill="none" stroke="#007f5f" stroke-width="4" d="M427.768,-621.418C473.842,-594.916 581.549,-532.965 637.256,-500.923"/>
<polygon fill="#007f5f" stroke="#007f5f" stroke-width="4" points="639.133,-503.881 646.056,-495.861 635.643,-497.813 639.133,-503.881"/>
</g>
<!-- G07&#45;&gt;G022 -->
<g id="edge23" class="edge"><title>G07&#45;&gt;G022</title>
<path fill="none" stroke="#005f7f" stroke-width="4" d="M430.665,-629.028C490.068,-619.394 645.798,-598.198 776,-581.938 819.516,-576.504 937.289,-585.74 972,-558.938 1040.84,-505.786 1063.27,-399.595 1070.55,-341.38"/>
<polygon fill="#005f7f" stroke="#005f7f" stroke-width="4" points="1074.02,-341.771 1071.7,-331.435 1067.07,-340.965 1074.02,-341.771"/>
</g>
<!-- G07&#45;&gt;G022 -->
<g id="edge24" class="edge"><title>G07&#45;&gt;G022</title>
<path fill="none" stroke="#007f9f" stroke-width="4" d="M431.107,-632.517C490.837,-626.289 646.119,-605.158 776,-588.938 819.516,-583.504 937.289,-592.74 972,-565.938 1042.65,-511.383 1064.43,-400.954 1071.09,-341.297"/>
<polygon fill="#007f9f" stroke="#007f9f" stroke-width="4" points="1074.6,-341.428 1072.14,-331.123 1067.63,-340.713 1074.6,-341.428"/>
</g>
<!-- G07&#45;&gt;G09 -->
<g id="edge25" class="edge"><title>G07&#45;&gt;G09</title>
<path fill="none" stroke="black" stroke-width="4" d="M430.211,-641.275C450.958,-647.562 481.064,-656.685 504.188,-663.692"/>
<polygon fill="black" stroke="black" stroke-width="4" points="503.357,-667.098 513.943,-666.648 505.387,-660.398 503.357,-667.098"/>
</g>
<!-- G07&#45;&gt;G018 -->
<g id="edge28" class="edge"><title>G07&#45;&gt;G018</title>
<path fill="none" stroke="#7f9f00" stroke-width="4" d="M421.922,-614.397C444.426,-586.779 485.773,-536.035 512.561,-503.159"/>
<polygon fill="#7f9f00" stroke="#7f9f00" stroke-width="4" points="515.434,-505.174 519.037,-495.211 510.007,-500.752 515.434,-505.174"/>
</g>
<!-- G021 -->
<g id="node17" class="node"><title>G021</title>
<ellipse fill="none" stroke="black" stroke-width="2" cx="941" cy="-528.938" rx="30.5947" ry="30.5947"/>
<text text-anchor="middle" x="941" y="-525.238" font-family="Times,serif" font-size="14.00">G021</text>
</g>
<!-- G07&#45;&gt;G021 -->
<g id="edge26" class="edge"><title>G07&#45;&gt;G021</title>
<path fill="none" stroke="#1f7f00" stroke-width="4" d="M425.616,-649.929C444.902,-665.874 476.02,-689.255 508,-698.938 555.574,-713.343 791.259,-676.416 838,-648.938 873.067,-628.323 901.426,-590.971 919.257,-563.382"/>
<polygon fill="#1f7f00" stroke="#1f7f00" stroke-width="4" points="922.295,-565.126 924.672,-554.801 916.375,-561.39 922.295,-565.126"/>
</g>
<!-- G07&#45;&gt;G021 -->
<g id="edge27" class="edge"><title>G07&#45;&gt;G021</title>
<path fill="none" stroke="#7f00df" stroke-width="4" d="M422.762,-652.678C441.733,-670.455 474.39,-695.762 508,-705.938 555.574,-720.343 791.259,-683.416 838,-655.938 874.844,-634.279 904.284,-594.142 921.887,-564.74"/>
<polygon fill="#7f00df" stroke="#7f00df" stroke-width="4" points="924.972,-566.398 926.965,-555.992 918.918,-562.883 924.972,-566.398"/>
</g>
<!-- G0T -->
<g id="node18" class="node"><title>G0T</title>
<ellipse fill="none" stroke="black" stroke-width="2" cx="1205" cy="-591.938" rx="26.7961" ry="26.7961"/>
<text text-anchor="middle" x="1205" y="-588.238" font-family="Times,serif" font-size="14.00">G0T</text>
</g>
<!-- G07&#45;&gt;G0T -->
<g id="edge29" class="edge"><title>G07&#45;&gt;G0T</title>
<path fill="none" stroke="black" stroke-width="4" d="M417.681,-656.244C423.415,-667.454 430.298,-681.307 436,-693.938 471.11,-771.719 438.727,-822.1 508,-871.938 537.639,-893.262 635.488,-881.938 672,-881.938 672,-881.938 672,-881.938 942,-881.938 978.512,-881.938 1076.88,-893.963 1106,-871.938 1183.08,-813.644 1199.82,-690.372 1203.26,-628.698"/>
<polygon fill="black" stroke="black" stroke-width="4" points="1206.76,-628.79 1203.73,-618.637 1199.76,-628.462 1206.76,-628.79"/>
</g>
<!-- G016 -->
<g id="node19" class="node"><title>G016</title>
<ellipse fill="none" stroke="black" stroke-width="2" cx="673" cy="-735.938" rx="30.5947" ry="30.5947"/>
<text text-anchor="middle" x="673" y="-732.238" font-family="Times,serif" font-size="14.00">G016</text>
</g>
<!-- G07&#45;&gt;G016 -->
<g id="edge30" class="edge"><title>G07&#45;&gt;G016</title>
<path fill="none" stroke="#7f5f00" stroke-width="4" d="M417.503,-656.47C433.429,-684.87 465.152,-732.339 508,-751.938 548.489,-770.458 600.363,-760.546 634.814,-749.927"/>
<polygon fill="#7f5f00" stroke="#7f5f00" stroke-width="4" points="636.049,-753.206 644.479,-746.789 633.887,-746.548 636.049,-753.206"/>
</g>
<!-- G020 -->
<g id="node20" class="node"><title>G020</title>
<ellipse fill="none" stroke="black" stroke-width="2" cx="807" cy="-375.938" rx="30.5947" ry="30.5947"/>
<text text-anchor="middle" x="807" y="-372.238" font-family="Times,serif" font-size="14.00">G020</text>
</g>
<!-- G07&#45;&gt;G020 -->
<g id="edge31" class="edge"><title>G07&#45;&gt;G020</title>
<path fill="none" stroke="#7f009f" stroke-width="4" d="M430.896,-630.371C485.468,-621.489 617.63,-594.069 704,-526.938 743.156,-496.504 772.605,-446.722 789.553,-412.699"/>
<polygon fill="#7f009f" stroke="#7f009f" stroke-width="4" points="792.776,-414.074 793.999,-403.55 786.48,-411.014 792.776,-414.074"/>
</g>
<!-- G03&#45;&gt;G04 -->
<g id="edge34" class="edge"><title>G03&#45;&gt;G04</title>
<path fill="none" stroke="black" stroke-width="4" d="M171.795,-308.577C192.243,-326.678 225.102,-355.767 248.24,-376.249"/>
<polygon fill="black" stroke="black" stroke-width="4" points="246.175,-379.095 255.983,-383.103 250.815,-373.854 246.175,-379.095"/>
</g>
<!-- G03&#45;&gt;G012 -->
<g id="edge36" class="edge"><title>G03&#45;&gt;G012</title>
<path fill="none" stroke="#007f5f" stroke-width="4" d="M175.275,-280.224C218.963,-257.248 316.201,-206.112 368.721,-178.492"/>
<polygon fill="#007f5f" stroke="#007f5f" stroke-width="4" points="370.454,-181.534 377.676,-173.782 367.196,-175.339 370.454,-181.534"/>
</g>
<!-- G03&#45;&gt;G0T -->
<g id="edge35" class="edge"><title>G03&#45;&gt;G0T</title>
<path fill="none" stroke="black" stroke-width="4" d="M160.738,-267.879C184.666,-198.661 264.388,-3.93831 404,-3.93831 404,-3.93831 404,-3.93831 942,-3.93831 1016.44,-3.93831 1054.14,15.4643 1106,-37.9383 1178.18,-112.269 1198.03,-443.887 1202.71,-555.296"/>
<polygon fill="black" stroke="black" stroke-width="4" points="1199.22,-555.523 1203.12,-565.374 1206.21,-555.241 1199.22,-555.523"/>
</g>
<!-- G014 -->
<g id="node21" class="node"><title>G014</title>
<ellipse fill="none" stroke="black" stroke-width="2" cx="673" cy="-303.938" rx="30.5947" ry="30.5947"/>
<text text-anchor="middle" x="673" y="-300.238" font-family="Times,serif" font-size="14.00">G014</text>
</g>
<!-- G03&#45;&gt;G014 -->
<g id="edge32" class="edge"><title>G03&#45;&gt;G014</title>
<path fill="none" stroke="#7f009f" stroke-width="4" d="M178.032,-291.481C261.44,-291.872 530.373,-298.013 632.32,-301.754"/>
<polygon fill="#7f009f" stroke="#7f009f" stroke-width="4" points="632.374,-305.258 642.5,-302.142 632.641,-298.263 632.374,-305.258"/>
</g>
<!-- G03&#45;&gt;G014 -->
<g id="edge33" class="edge"><title>G03&#45;&gt;G014</title>
<path fill="none" stroke="#1f7f00" stroke-width="4" d="M178.032,-293.899C261.343,-297.872 529.743,-304.183 631.961,-304.708"/>
<polygon fill="#1f7f00" stroke="#1f7f00" stroke-width="4" points="632.162,-308.209 642.173,-304.742 632.185,-301.209 632.162,-308.209"/>
</g>
<!-- G019&#45;&gt;G022 -->
<g id="edge43" class="edge"><title>G019&#45;&gt;G022</title>
<path fill="none" stroke="#00df7f" stroke-width="4" d="M701.753,-469.526C754.702,-447.62 873.634,-397.778 972,-351.938 994.208,-341.589 1018.78,-329.328 1038.24,-319.422"/>
<polygon fill="#00df7f" stroke="#00df7f" stroke-width="4" points="1040.04,-322.434 1047.35,-314.767 1036.85,-316.2 1040.04,-322.434"/>
</g>
<!-- G019&#45;&gt;G0T -->
<g id="edge44" class="edge"><title>G019&#45;&gt;G0T</title>
<path fill="none" stroke="black" stroke-width="4" d="M681.632,-510.087C693.923,-550.353 722.345,-621.468 776,-651.938 907.708,-726.735 1097.83,-646.264 1172.35,-608.886"/>
<polygon fill="black" stroke="black" stroke-width="4" points="1173.94,-612.002 1181.26,-604.342 1170.76,-605.766 1173.94,-612.002"/>
</g>
<!-- G019&#45;&gt;G020 -->
<g id="edge45" class="edge"><title>G019&#45;&gt;G020</title>
<path fill="none" stroke="black" stroke-width="4" d="M697.295,-462.408C718.746,-445.345 750.744,-419.892 774.475,-401.015"/>
<polygon fill="black" stroke="black" stroke-width="4" points="776.847,-403.601 782.494,-394.636 772.489,-398.123 776.847,-403.601"/>
</g>
<!-- G022&#45;&gt;G0T -->
<g id="edge46" class="edge"><title>G022&#45;&gt;G0T</title>
<path fill="none" stroke="black" stroke-width="4" d="M1088.04,-328.315C1111.63,-381.948 1163.85,-500.669 1189.38,-558.701"/>
<polygon fill="black" stroke="black" stroke-width="4" points="1186.3,-560.395 1193.53,-568.139 1192.71,-557.576 1186.3,-560.395"/>
</g>
<!-- G04&#45;&gt;G09 -->
<g id="edge47" class="edge"><title>G04&#45;&gt;G09</title>
<path fill="none" stroke="black" stroke-width="4" d="M287.319,-422.982C306.539,-464.971 348.202,-551.503 374,-571.938 396.492,-589.755 410.626,-576.542 436,-589.938 465.192,-605.35 493.794,-629.976 513.246,-648.589"/>
<polygon fill="black" stroke="black" stroke-width="4" points="510.884,-651.174 520.489,-655.647 515.77,-646.161 510.884,-651.174"/>
</g>
<!-- G04&#45;&gt;G015 -->
<g id="edge52" class="edge"><title>G04&#45;&gt;G015</title>
<path fill="none" stroke="#7f009f" stroke-width="4" d="M287.55,-422.988C292.297,-434.813 297.772,-449.497 302,-462.938 341.204,-587.564 290.116,-647.779 374,-747.938 405.898,-786.026 461.463,-805.351 498.975,-815.244"/>
<polygon fill="#7f009f" stroke="#7f009f" stroke-width="4" points="498.488,-818.732 509.042,-817.793 500.206,-811.946 498.488,-818.732"/>
</g>
<!-- G04&#45;&gt;G015 -->
<g id="edge53" class="edge"><title>G04&#45;&gt;G015</title>
<path fill="none" stroke="#1f7f00" stroke-width="4" d="M285.498,-423.984C290.652,-437.445 297.147,-454.51 302,-469.938 341.204,-594.564 290.116,-654.779 374,-754.938 405.715,-792.807 460.825,-812.128 498.326,-820.423"/>
<polygon fill="#1f7f00" stroke="#1f7f00" stroke-width="4" points="497.905,-823.909 508.402,-822.476 499.303,-817.05 497.905,-823.909"/>
</g>
<!-- G04&#45;&gt;G08 -->
<g id="edge54" class="edge"><title>G04&#45;&gt;G08</title>
<path fill="none" stroke="#7f5f00" stroke-width="4" d="M302.091,-399.938C321.138,-399.938 347.57,-399.938 368.742,-399.938"/>
<polygon fill="#7f5f00" stroke="#7f5f00" stroke-width="4" points="368.961,-403.438 378.961,-399.938 368.961,-396.438 368.961,-403.438"/>
</g>
<!-- G04&#45;&gt;G0T -->
<g id="edge49" class="edge"><title>G04&#45;&gt;G0T</title>
<path fill="none" stroke="black" stroke-width="4" d="M279.584,-374.404C286.16,-321.763 307.978,-199.921 374,-125.938 427.998,-65.43 456.901,-45.9383 538,-45.9383 538,-45.9383 538,-45.9383 942,-45.9383 1015.54,-45.9383 1052.68,-17.2935 1106,-67.9383 1176.87,-135.247 1197.51,-448.191 1202.56,-555.621"/>
<polygon fill="black" stroke="black" stroke-width="4" points="1199.06,-555.822 1203.01,-565.653 1206.06,-555.505 1199.06,-555.822"/>
</g>
<!-- G017 -->
<g id="node22" class="node"><title>G017</title>
<ellipse fill="none" stroke="black" stroke-width="2" cx="807" cy="-618.938" rx="30.5947" ry="30.5947"/>
<text text-anchor="middle" x="807" y="-615.238" font-family="Times,serif" font-size="14.00">G017</text>
</g>
<!-- G04&#45;&gt;G017 -->
<g id="edge48" class="edge"><title>G04&#45;&gt;G017</title>
<path fill="none" stroke="#7f00df" stroke-width="4" d="M287.918,-422.686C307.382,-462.261 348.427,-541.175 374,-557.938 406.579,-579.294 665.766,-605.719 766.322,-615.275"/>
<polygon fill="#7f00df" stroke="#7f00df" stroke-width="4" points="766.1,-618.769 776.385,-616.225 766.758,-611.8 766.1,-618.769"/>
</g>
<!-- G013 -->
<g id="node23" class="node"><title>G013</title>
<ellipse fill="none" stroke="black" stroke-width="2" cx="539" cy="-159.938" rx="30.5947" ry="30.5947"/>
<text text-anchor="middle" x="539" y="-156.238" font-family="Times,serif" font-size="14.00">G013</text>
</g>
<!-- G04&#45;&gt;G013 -->
<g id="edge50" class="edge"><title>G04&#45;&gt;G013</title>
<path fill="none" stroke="#007f5f" stroke-width="4" d="M294.47,-381.457C313.584,-361.435 345.33,-328.759 374,-301.938 419.005,-259.837 473.481,-213.541 506.933,-185.614"/>
<polygon fill="#007f5f" stroke="#007f5f" stroke-width="4" points="509.522,-188.012 514.966,-178.923 505.042,-182.634 509.522,-188.012"/>
</g>
<!-- G010 -->
<g id="node24" class="node"><title>G010</title>
<ellipse fill="none" stroke="black" stroke-width="2" cx="405" cy="-335.938" rx="30.5947" ry="30.5947"/>
<text text-anchor="middle" x="405" y="-332.238" font-family="Times,serif" font-size="14.00">G010</text>
</g>
<!-- G04&#45;&gt;G010 -->
<g id="edge51" class="edge"><title>G04&#45;&gt;G010</title>
<path fill="none" stroke="#7f9f00" stroke-width="4" d="M299.413,-388.644C318.479,-379.036 346.206,-365.063 368.321,-353.918"/>
<polygon fill="#7f9f00" stroke="#7f9f00" stroke-width="4" points="370.059,-356.962 377.414,-349.336 366.909,-350.711 370.059,-356.962"/>
</g>
<!-- G09&#45;&gt;G019 -->
<g id="edge55" class="edge"><title>G09&#45;&gt;G019</title>
<path fill="none" stroke="#7f5f00" stroke-width="4" d="M554.378,-652.917C577.286,-619.421 622.255,-553.671 649.469,-513.882"/>
<polygon fill="#7f5f00" stroke="#7f5f00" stroke-width="4" points="652.4,-515.796 655.156,-505.566 646.622,-511.844 652.4,-515.796"/>
</g>
<!-- G09&#45;&gt;G0T -->
<g id="edge58" class="edge"><title>G09&#45;&gt;G0T</title>
<path fill="none" stroke="black" stroke-width="4" d="M551.845,-696.348C568.142,-724.821 600.265,-773.225 642,-797.938 705.828,-835.734 731.82,-828.938 806,-828.938 806,-828.938 806,-828.938 942,-828.938 978.512,-828.938 1076.12,-839.917 1106,-818.938 1169.27,-774.521 1192.02,-680.257 1199.95,-628.261"/>
<polygon fill="black" stroke="black" stroke-width="4" points="1203.45,-628.539 1201.39,-618.146 1196.51,-627.555 1203.45,-628.539"/>
</g>
<!-- G09&#45;&gt;G017 -->
<g id="edge56" class="edge"><title>G09&#45;&gt;G017</title>
<path fill="none" stroke="#00df7f" stroke-width="4" d="M564.22,-667.391C596.258,-660.439 654.462,-649.354 704,-638.938 724.685,-634.589 747.654,-629.438 766.551,-625.397"/>
<polygon fill="#00df7f" stroke="#00df7f" stroke-width="4" points="767.528,-628.768 776.59,-623.278 766.083,-621.919 767.528,-628.768"/>
</g>
<!-- G09&#45;&gt;G017 -->
<g id="edge57" class="edge"><title>G09&#45;&gt;G017</title>
<path fill="none" stroke="black" stroke-width="4" d="M565.052,-672.05C597.258,-667.248 654.888,-656.265 704,-645.938 725.232,-641.474 748.872,-636.165 768.043,-631.366"/>
<polygon fill="black" stroke="black" stroke-width="4" points="769.09,-634.711 777.907,-628.836 767.351,-627.93 769.09,-634.711"/>
</g>
<!-- G018&#45;&gt;G019 -->
<g id="edge61" class="edge"><title>G018&#45;&gt;G019</title>
<path fill="none" stroke="black" stroke-width="4" d="M569.623,-473.958C588.136,-475.22 612.201,-476.861 632.348,-478.235"/>
<polygon fill="black" stroke="black" stroke-width="4" points="632.261,-481.737 642.475,-478.925 632.737,-474.753 632.261,-481.737"/>
</g>
<!-- G018&#45;&gt;G022 -->
<g id="edge62" class="edge"><title>G018&#45;&gt;G022</title>
<path fill="none" stroke="#7f5f00" stroke-width="4" d="M564.428,-454.466C605.785,-425.839 693.192,-369.39 776,-341.938 823.032,-326.347 964.074,-311.342 1033.92,-304.621"/>
<polygon fill="#7f5f00" stroke="#7f5f00" stroke-width="4" points="1034.46,-308.085 1044.09,-303.653 1033.8,-301.117 1034.46,-308.085"/>
</g>
<!-- G018&#45;&gt;G0T -->
<g id="edge63" class="edge"><title>G018&#45;&gt;G0T</title>
<path fill="none" stroke="black" stroke-width="4" d="M545.667,-501.482C559.493,-570.111 597.129,-736.905 642,-768.938 819.438,-895.611 1090.95,-688.692 1176.92,-615.829"/>
<polygon fill="black" stroke="black" stroke-width="4" points="1179.33,-618.374 1184.65,-609.212 1174.78,-613.056 1179.33,-618.374"/>
</g>
<!-- G015&#45;&gt;G022 -->
<g id="edge86" class="edge"><title>G015&#45;&gt;G022</title>
<path fill="none" stroke="#007f5f" stroke-width="4" d="M569.554,-820.826C649.166,-810.225 869.03,-773.785 972,-639.938 1042.11,-548.806 1064.17,-410.086 1071.01,-341.8"/>
<polygon fill="#007f5f" stroke="#007f5f" stroke-width="4" points="1074.53,-341.747 1071.98,-331.463 1067.56,-341.092 1074.53,-341.747"/>
</g>
<!-- G015&#45;&gt;G022 -->
<g id="edge87" class="edge"><title>G015&#45;&gt;G022</title>
<path fill="none" stroke="#7f9f00" stroke-width="4" d="M569.554,-824.098C649.166,-817.225 869.03,-780.785 972,-646.938 1043.69,-553.75 1065.14,-410.803 1071.45,-341.436"/>
<polygon fill="#7f9f00" stroke="#7f9f00" stroke-width="4" points="1074.94,-341.612 1072.3,-331.352 1067.97,-341.02 1074.94,-341.612"/>
</g>
<!-- G015&#45;&gt;G021 -->
<g id="edge88" class="edge"><title>G015&#45;&gt;G021</title>
<path fill="none" stroke="#7f5f00" stroke-width="4" d="M569.128,-819.471C627.136,-807.22 758.346,-772.509 838,-696.938 877.652,-659.319 907.618,-603.001 924.494,-566.114"/>
<polygon fill="#7f5f00" stroke="#7f5f00" stroke-width="4" points="927.809,-567.275 928.702,-556.718 921.421,-564.414 927.809,-567.275"/>
</g>
<!-- G015&#45;&gt;G0T -->
<g id="edge89" class="edge"><title>G015&#45;&gt;G0T</title>
<path fill="none" stroke="black" stroke-width="4" d="M569.473,-828.423C618.486,-833.908 719.885,-843.938 806,-843.938 806,-843.938 806,-843.938 942,-843.938 1015.12,-843.938 1046.94,-874.038 1106,-830.938 1171.89,-782.86 1193.62,-682.464 1200.68,-628.355"/>
<polygon fill="black" stroke="black" stroke-width="4" points="1204.19,-628.526 1201.91,-618.18 1197.24,-627.689 1204.19,-628.526"/>
</g>
<!-- G015&#45;&gt;G016 -->
<g id="edge90" class="edge"><title>G015&#45;&gt;G016</title>
<path fill="none" stroke="black" stroke-width="4" d="M564.828,-808.198C585.754,-794.089 615.875,-773.78 638.858,-758.284"/>
<polygon fill="black" stroke="black" stroke-width="4" points="640.948,-761.096 647.283,-752.603 637.035,-755.292 640.948,-761.096"/>
</g>
<!-- G01&#45;&gt;G07 -->
<g id="edge91" class="edge"><title>G01&#45;&gt;G07</title>
<path fill="none" stroke="#7f9f00" stroke-width="4" d="M302.091,-625.112C321.138,-626.761 347.57,-629.051 368.742,-630.884"/>
<polygon fill="#7f9f00" stroke="#7f9f00" stroke-width="4" points="368.696,-634.394 378.961,-631.77 369.3,-627.42 368.696,-634.394"/>
</g>
<!-- G01&#45;&gt;G09 -->
<g id="edge92" class="edge"><title>G01&#45;&gt;G09</title>
<path fill="none" stroke="black" stroke-width="4" d="M299.477,-634.3C318.733,-643.46 347.477,-655.793 374,-661.938 417.541,-672.026 469.162,-674.263 502.696,-674.479"/>
<polygon fill="black" stroke="black" stroke-width="4" points="502.913,-677.979 512.915,-674.486 502.917,-670.979 502.913,-677.979"/>
</g>
<!-- G01&#45;&gt;G06 -->
<g id="edge94" class="edge"><title>G01&#45;&gt;G06</title>
<path fill="none" stroke="#7f5f00" stroke-width="4" d="M297.405,-607.996C318.512,-592.54 351.648,-568.275 375.371,-550.903"/>
<polygon fill="#7f5f00" stroke="#7f5f00" stroke-width="4" points="377.646,-553.575 383.646,-544.843 373.51,-547.928 377.646,-553.575"/>
</g>
<!-- G01&#45;&gt;G0T -->
<g id="edge93" class="edge"><title>G01&#45;&gt;G0T</title>
<path fill="none" stroke="black" stroke-width="4" d="M277.616,-648.569C280.446,-704.291 295.538,-836.686 374,-901.938 430.689,-949.083 464.269,-926.938 538,-926.938 538,-926.938 538,-926.938 942,-926.938 1015.02,-926.938 1048.74,-962.252 1106,-916.938 1151.9,-880.615 1185.58,-704.958 1198.36,-628.086"/>
<polygon fill="black" stroke="black" stroke-width="4" points="1201.86,-628.354 1200.03,-617.92 1194.96,-627.223 1201.86,-628.354"/>
</g>
<!-- G012&#45;&gt;G022 -->
<g id="edge95" class="edge"><title>G012&#45;&gt;G022</title>
<path fill="none" stroke="#7f009f" stroke-width="4" d="M428.491,-140.579C448.52,-127.666 479.051,-112.287 508,-105.938 711.168,-61.3813 793.139,-60.7711 972,-166.938 1010.51,-189.798 1040.41,-232.977 1057.61,-264.244"/>
<polygon fill="#7f009f" stroke="#7f009f" stroke-width="4" points="1054.55,-265.936 1062.33,-273.124 1060.73,-262.651 1054.55,-265.936"/>
</g>
<!-- G012&#45;&gt;G022 -->
<g id="edge96" class="edge"><title>G012&#45;&gt;G022</title>
<path fill="none" stroke="#007f5f" stroke-width="4" d="M431.324,-144.508C451.329,-133.269 480.384,-118.995 508,-112.938 711.168,-68.3813 793.139,-67.7711 972,-173.938 1008.8,-195.784 1037.74,-236.187 1055.25,-265.57"/>
<polygon fill="#007f5f" stroke="#007f5f" stroke-width="4" points="1052.27,-267.407 1060.31,-274.302 1058.32,-263.896 1052.27,-267.407"/>
</g>
<!-- G012&#45;&gt;G022 -->
<g id="edge97" class="edge"><title>G012&#45;&gt;G022</title>
<path fill="none" stroke="#1f7f00" stroke-width="4" d="M433.853,-148.978C453.731,-139.101 481.527,-125.744 508,-119.938 711.168,-75.3813 793.139,-74.7711 972,-180.938 1007,-201.713 1034.88,-239.27 1052.59,-266.928"/>
<polygon fill="#1f7f00" stroke="#1f7f00" stroke-width="4" points="1049.7,-268.911 1057.98,-275.527 1055.64,-265.195 1049.7,-268.911"/>
</g>
<!-- G012&#45;&gt;G021 -->
<g id="edge98" class="edge"><title>G012&#45;&gt;G021</title>
<path fill="none" stroke="#7f9f00" stroke-width="4" d="M421.214,-185.607C439.052,-213.928 470.937,-259.399 508,-288.938 635.014,-390.168 700.697,-359.174 838,-445.938 863.953,-462.339 890.785,-484.411 910.411,-501.671"/>
<polygon fill="#7f9f00" stroke="#7f9f00" stroke-width="4" points="908.294,-504.472 918.092,-508.504 912.947,-499.242 908.294,-504.472"/>
</g>
<!-- G012&#45;&gt;G0T -->
<g id="edge99" class="edge"><title>G012&#45;&gt;G0T</title>
<path fill="none" stroke="black" stroke-width="4" d="M430.55,-143.053C450.603,-129.934 480.093,-112.144 508,-100.938 577.623,-72.983 596.974,-60.9383 672,-60.9383 672,-60.9383 672,-60.9383 942,-60.9383 1018.33,-60.9383 1054.79,-55.3308 1106,-111.938 1165.52,-177.74 1193.12,-455.132 1201.29,-555.499"/>
<polygon fill="black" stroke="black" stroke-width="4" points="1197.82,-556.056 1202.11,-565.747 1204.8,-555.5 1197.82,-556.056"/>
</g>
<!-- G012&#45;&gt;G013 -->
<g id="edge100" class="edge"><title>G012&#45;&gt;G013</title>
<path fill="none" stroke="black" stroke-width="4" d="M435.623,-159.938C454.006,-159.938 477.865,-159.938 497.924,-159.938"/>
<polygon fill="black" stroke="black" stroke-width="4" points="498.019,-163.438 508.019,-159.938 498.019,-156.438 498.019,-163.438"/>
</g>
<!-- G02&#45;&gt;G07 -->
<g id="edge101" class="edge"><title>G02&#45;&gt;G07</title>
<path fill="none" stroke="#7f5f00" stroke-width="4" d="M294.076,-513.967C313.378,-535.431 345.788,-571.336 374,-601.938 375.936,-604.038 377.948,-606.209 379.973,-608.386"/>
<polygon fill="#7f5f00" stroke="#7f5f00" stroke-width="4" points="377.43,-610.791 386.813,-615.711 382.547,-606.014 377.43,-610.791"/>
</g>
<!-- G02&#45;&gt;G09 -->
<g id="edge102" class="edge"><title>G02&#45;&gt;G09</title>
<path fill="none" stroke="black" stroke-width="4" d="M292.785,-514.706C310.459,-535.57 340.981,-568 374,-586.938 398.89,-601.214 410.023,-592.752 436,-604.938 462.928,-617.571 490.713,-636.852 510.47,-651.824"/>
<polygon fill="black" stroke="black" stroke-width="4" points="508.361,-654.618 518.42,-657.945 512.632,-649.071 508.361,-654.618"/>
</g>
<!-- G02&#45;&gt;G012 -->
<g id="edge105" class="edge"><title>G02&#45;&gt;G012</title>
<path fill="none" stroke="#7f009f" stroke-width="4" d="M286.032,-471.114C307.799,-413.698 363.301,-267.294 389.67,-197.738"/>
<polygon fill="#7f009f" stroke="#7f009f" stroke-width="4" points="393.07,-198.644 393.342,-188.052 386.524,-196.162 393.07,-198.644"/>
</g>
<!-- G02&#45;&gt;G08 -->
<g id="edge106" class="edge"><title>G02&#45;&gt;G08</title>
<path fill="none" stroke="#7f9f00" stroke-width="4" d="M297.124,-479.885C318.178,-464.136 351.421,-439.269 375.241,-421.451"/>
<polygon fill="#7f9f00" stroke="#7f9f00" stroke-width="4" points="377.639,-424.028 383.55,-415.235 373.446,-418.423 377.639,-424.028"/>
</g>
<!-- G02&#45;&gt;G0T -->
<g id="edge103" class="edge"><title>G02&#45;&gt;G0T</title>
<path fill="none" stroke="black" stroke-width="4" d="M283.599,-519.581C300.176,-580.461 344.36,-736.266 374,-780.938 418.036,-847.308 434.626,-868.95 508,-899.938 575.326,-928.372 598.916,-911.938 672,-911.938 672,-911.938 672,-911.938 942,-911.938 978.597,-911.938 1077.44,-919.823 1106,-896.938 1188.64,-830.718 1202.56,-694.285 1204.27,-628.712"/>
<polygon fill="black" stroke="black" stroke-width="4" points="1207.78,-628.504 1204.45,-618.443 1200.78,-628.38 1207.78,-628.504"/>
</g>
<!-- G02&#45;&gt;G010 -->
<g id="edge104" class="edge"><title>G02&#45;&gt;G010</title>
<path fill="none" stroke="#007f5f" stroke-width="4" d="M292.186,-474.964C311.055,-450.276 344.386,-407.097 374,-370.938 375.255,-369.406 376.548,-367.843 377.859,-366.269"/>
<polygon fill="#007f5f" stroke="#007f5f" stroke-width="4" points="380.718,-368.308 384.485,-358.406 375.364,-363.798 380.718,-368.308"/>
</g>
<!-- G011&#45;&gt;G019 -->
<g id="edge108" class="edge"><title>G011&#45;&gt;G019</title>
<path fill="none" stroke="#7f5f00" stroke-width="4" d="M555.142,-281.749C578.9,-322.245 624.966,-400.767 651.614,-446.19"/>
<polygon fill="#7f5f00" stroke="#7f5f00" stroke-width="4" points="648.753,-448.229 656.832,-455.083 654.79,-444.687 648.753,-448.229"/>
</g>
<!-- G011&#45;&gt;G022 -->
<g id="edge109" class="edge"><title>G011&#45;&gt;G022</title>
<path fill="none" stroke="#7f009f" stroke-width="4" d="M568.77,-248.895C601.543,-246.534 656.685,-247.664 704,-250.938 825.448,-259.342 968.557,-277.044 1035.65,-289.791"/>
<polygon fill="#7f009f" stroke="#7f009f" stroke-width="4" points="1035.26,-293.282 1045.75,-291.793 1036.62,-286.416 1035.26,-293.282"/>
</g>
<!-- G011&#45;&gt;G022 -->
<g id="edge110" class="edge"><title>G011&#45;&gt;G022</title>
<path fill="none" stroke="#7f00df" stroke-width="4" d="M569.661,-253.958C602.536,-253.555 657.111,-254.694 704,-257.938 824.837,-266.3 967.116,-283.866 1034.63,-293.849"/>
<polygon fill="#7f00df" stroke="#7f00df" stroke-width="4" points="1034.4,-297.354 1044.81,-295.384 1035.44,-290.432 1034.4,-297.354"/>
</g>
<!-- G011&#45;&gt;G022 -->
<g id="edge111" class="edge"><title>G011&#45;&gt;G022</title>
<path fill="none" stroke="#007f5f" stroke-width="4" d="M569.661,-259.084C602.536,-260.555 657.111,-261.694 704,-264.938 824.531,-273.278 966.395,-290.777 1034.12,-298.045"/>
<polygon fill="#007f5f" stroke="#007f5f" stroke-width="4" points="1034.02,-301.555 1044.33,-299.121 1034.76,-294.593 1034.02,-301.555"/>
</g>
<!-- G011&#45;&gt;G022 -->
<g id="edge112" class="edge"><title>G011&#45;&gt;G022</title>
<path fill="none" stroke="#1f7f00" stroke-width="4" d="M568.475,-264.087C601.212,-267.527 656.543,-268.655 704,-271.938 824.531,-280.278 966.395,-297.777 1034.12,-302.317"/>
<polygon fill="#1f7f00" stroke="#1f7f00" stroke-width="4" points="1034.14,-305.825 1044.33,-302.931 1034.56,-298.837 1034.14,-305.825"/>
</g>
<!-- G011&#45;&gt;G021 -->
<g id="edge113" class="edge"><title>G011&#45;&gt;G021</title>
<path fill="none" stroke="#7f9f00" stroke-width="4" d="M569.611,-256.465C602.672,-257.515 657.63,-260.643 704,-269.938 765.327,-282.232 790.98,-271.693 838,-312.938 891.555,-359.916 919.164,-441.106 931.534,-489.441"/>
<polygon fill="#7f9f00" stroke="#7f9f00" stroke-width="4" points="928.156,-490.36 933.946,-499.232 934.953,-488.685 928.156,-490.36"/>
</g>
<!-- G011&#45;&gt;G0T -->
<g id="edge114" class="edge"><title>G011&#45;&gt;G0T</title>
<path fill="none" stroke="black" stroke-width="4" d="M564.894,-239.812C610.669,-211.759 712.131,-156.938 806,-156.938 806,-156.938 806,-156.938 942,-156.938 1022.9,-156.938 1054.17,-173.813 1106,-235.938 1185.29,-330.986 1200.72,-485.18 1203.52,-555.226"/>
<polygon fill="black" stroke="black" stroke-width="4" points="1200.02,-555.452 1203.86,-565.329 1207.02,-555.218 1200.02,-555.452"/>
</g>
<!-- G011&#45;&gt;G014 -->
<g id="edge107" class="edge"><title>G011&#45;&gt;G014</title>
<path fill="none" stroke="black" stroke-width="4" d="M567.994,-266.118C587.332,-273.15 613.274,-282.583 634.411,-290.27"/>
<polygon fill="black" stroke="black" stroke-width="4" points="633.452,-293.645 644.047,-293.773 635.845,-287.067 633.452,-293.645"/>
</g>
<!-- G06&#45;&gt;G019 -->
<g id="edge116" class="edge"><title>G06&#45;&gt;G019</title>
<path fill="none" stroke="#1f7f00" stroke-width="4" d="M430.556,-524.76C462.717,-519.588 520.799,-511.461 570,-501.938 590.893,-497.895 613.989,-492.535 632.913,-488.193"/>
<polygon fill="#1f7f00" stroke="#1f7f00" stroke-width="4" points="633.705,-491.603 642.674,-485.964 632.146,-484.778 633.705,-491.603"/>
</g>
<!-- G06&#45;&gt;G019 -->
<g id="edge117" class="edge"><title>G06&#45;&gt;G019</title>
<path fill="none" stroke="#7f009f" stroke-width="4" d="M431.113,-529.51C463.384,-526.495 521.082,-518.406 570,-508.938 591.347,-504.807 614.994,-499.302 634.141,-494.199"/>
<polygon fill="#7f009f" stroke="#7f009f" stroke-width="4" points="635.271,-497.519 643.989,-491.497 633.419,-490.768 635.271,-497.519"/>
</g>
<!-- G06&#45;&gt;G09 -->
<g id="edge118" class="edge"><title>G06&#45;&gt;G09</title>
<path fill="none" stroke="black" stroke-width="4" d="M422.986,-548.469C446.027,-573.604 487.324,-618.655 513.657,-647.382"/>
<polygon fill="black" stroke="black" stroke-width="4" points="511.322,-650.015 520.66,-655.021 516.482,-645.285 511.322,-650.015"/>
</g>
<!-- G06&#45;&gt;G018 -->
<g id="edge121" class="edge"><title>G06&#45;&gt;G018</title>
<path fill="none" stroke="#007f5f" stroke-width="4" d="M428.993,-519.835C448.988,-511.05 478.312,-498.165 501.51,-487.972"/>
<polygon fill="#007f5f" stroke="#007f5f" stroke-width="4" points="502.962,-491.157 510.71,-483.93 500.146,-484.748 502.962,-491.157"/>
</g>
<!-- G06&#45;&gt;G021 -->
<g id="edge119" class="edge"><title>G06&#45;&gt;G021</title>
<path fill="none" stroke="#007f9f" stroke-width="4" d="M431.11,-530.354C451.731,-531.954 481.715,-534.781 508,-535.938 652.414,-542.297 824.174,-533.418 900.299,-529.917"/>
<polygon fill="#007f9f" stroke="#007f9f" stroke-width="4" points="900.561,-533.409 910.393,-529.461 900.245,-526.416 900.561,-533.409"/>
</g>
<!-- G06&#45;&gt;G021 -->
<g id="edge120" class="edge"><title>G06&#45;&gt;G021</title>
<path fill="none" stroke="#005f7f" stroke-width="4" d="M430.693,-535.941C451.326,-538.915 481.538,-541.773 508,-542.938 652.593,-549.305 824.6,-540.396 900.582,-533.908"/>
<polygon fill="#005f7f" stroke="#005f7f" stroke-width="4" points="901.003,-537.384 910.653,-533.01 900.381,-530.412 901.003,-537.384"/>
</g>
<!-- G06&#45;&gt;G0T -->
<g id="edge123" class="edge"><title>G06&#45;&gt;G0T</title>
<path fill="none" stroke="black" stroke-width="4" d="M416.089,-553.35C422.232,-568.026 430.021,-587.419 436,-604.938 473.76,-715.582 416.668,-784.957 508,-857.938 536.514,-880.723 635.501,-866.938 672,-866.938 672,-866.938 672,-866.938 942,-866.938 1015.38,-866.938 1048.05,-892.942 1106,-847.938 1175.18,-794.219 1195.54,-685.426 1201.52,-628.511"/>
<polygon fill="black" stroke="black" stroke-width="4" points="1205.01,-628.801 1202.48,-618.513 1198.04,-628.133 1205.01,-628.801"/>
</g>
<!-- G06&#45;&gt;G020 -->
<g id="edge124" class="edge"><title>G06&#45;&gt;G020</title>
<path fill="none" stroke="#7f00df" stroke-width="4" d="M431.202,-531.284C494.277,-534.23 657.242,-539.117 704,-513.938 744.706,-492.019 773.542,-445.965 789.941,-413.091"/>
<polygon fill="#7f00df" stroke="#7f00df" stroke-width="4" points="793.241,-414.304 794.433,-403.777 786.936,-411.263 793.241,-414.304"/>
</g>
<!-- G06&#45;&gt;G014 -->
<g id="edge115" class="edge"><title>G06&#45;&gt;G014</title>
<path fill="none" stroke="#7f5f00" stroke-width="4" d="M424.555,-512.704C444.812,-494.007 478.327,-463.416 508,-437.938 553.389,-398.966 607.333,-355.402 640.62,-328.827"/>
<polygon fill="#7f5f00" stroke="#7f5f00" stroke-width="4" points="642.982,-331.42 648.62,-322.45 638.619,-325.946 642.982,-331.42"/>
</g>
<!-- G06&#45;&gt;G017 -->
<g id="edge122" class="edge"><title>G06&#45;&gt;G017</title>
<path fill="none" stroke="#7f9f00" stroke-width="4" d="M429.688,-538.009C450.222,-544.795 480.827,-554.407 508,-560.938 594.039,-581.618 617.262,-578.424 704,-595.938 724.965,-600.172 748.239,-605.38 767.255,-609.77"/>
<polygon fill="#7f9f00" stroke="#7f9f00" stroke-width="4" points="766.524,-613.193 777.057,-612.047 768.108,-606.375 766.524,-613.193"/>
</g>
<!-- G05&#45;&gt;G09 -->
<g id="edge126" class="edge"><title>G05&#45;&gt;G09</title>
<path fill="none" stroke="#7f5f00" stroke-width="4" d="M428.993,-712.648C449.804,-704.354 480.721,-692.799 504.319,-684.451"/>
<polygon fill="#7f5f00" stroke="#7f5f00" stroke-width="4" points="505.649,-687.693 513.933,-681.088 503.338,-681.086 505.649,-687.693"/>
</g>
<!-- G05&#45;&gt;G09 -->
<g id="edge127" class="edge"><title>G05&#45;&gt;G09</title>
<path fill="none" stroke="black" stroke-width="4" d="M430.211,-716.335C451.442,-709.188 482.473,-697.747 505.794,-688.512"/>
<polygon fill="black" stroke="black" stroke-width="4" points="507.291,-691.683 515.266,-684.709 504.682,-685.187 507.291,-691.683"/>
</g>
<!-- G05&#45;&gt;G018 -->
<g id="edge128" class="edge"><title>G05&#45;&gt;G018</title>
<path fill="none" stroke="#007f9f" stroke-width="4" d="M417.714,-700.664C440.63,-657.088 491.562,-560.241 519.232,-507.627"/>
<polygon fill="#007f9f" stroke="#007f9f" stroke-width="4" points="522.396,-509.129 523.953,-498.649 516.2,-505.871 522.396,-509.129"/>
</g>
<!-- G05&#45;&gt;G011 -->
<g id="edge133" class="edge"><title>G05&#45;&gt;G011</title>
<path fill="none" stroke="#7f9f00" stroke-width="4" d="M418.275,-700.84C424.226,-689.468 431.123,-675.234 436,-661.938 483.833,-531.549 517.091,-369.586 530.88,-295.847"/>
<polygon fill="#7f9f00" stroke="#7f9f00" stroke-width="4" points="534.394,-296.092 532.773,-285.622 527.511,-294.818 534.394,-296.092"/>
</g>
<!-- G05&#45;&gt;G0T -->
<g id="edge130" class="edge"><title>G05&#45;&gt;G0T</title>
<path fill="none" stroke="black" stroke-width="4" d="M413.502,-747.119C426.304,-783.835 456.145,-852.672 508,-883.938 570.616,-921.693 598.882,-896.938 672,-896.938 672,-896.938 672,-896.938 942,-896.938 978.559,-896.938 1077.19,-906.441 1106,-883.938 1185.68,-821.71 1201.12,-692.134 1203.75,-628.626"/>
<polygon fill="black" stroke="black" stroke-width="4" points="1207.25,-628.402 1204.08,-618.293 1200.26,-628.174 1207.25,-628.402"/>
</g>
<!-- G05&#45;&gt;G016 -->
<g id="edge131" class="edge"><title>G05&#45;&gt;G016</title>
<path fill="none" stroke="#7f009f" stroke-width="4" d="M429.008,-733.716C449.118,-743.799 479.48,-758.049 508,-763.938 551.205,-772.86 601.027,-760.205 634.313,-749.113"/>
<polygon fill="#7f009f" stroke="#7f009f" stroke-width="4" points="635.772,-752.313 644.087,-745.747 633.492,-745.694 635.772,-752.313"/>
</g>
<!-- G05&#45;&gt;G016 -->
<g id="edge132" class="edge"><title>G05&#45;&gt;G016</title>
<path fill="none" stroke="#1f7f00" stroke-width="4" d="M426.279,-737.696C446.298,-749.46 478.158,-764.776 508,-770.938 552.166,-780.058 603.246,-766.631 636.509,-753.803"/>
<polygon fill="#1f7f00" stroke="#1f7f00" stroke-width="4" points="637.854,-757.034 645.815,-750.043 635.232,-750.544 637.854,-757.034"/>
</g>
<!-- G05&#45;&gt;G014 -->
<g id="edge125" class="edge"><title>G05&#45;&gt;G014</title>
<path fill="none" stroke="#007f5f" stroke-width="4" d="M431.264,-723.054C472.068,-722.707 549.941,-719.661 570,-701.938 583.714,-689.822 640.997,-441.325 663.176,-343.251"/>
<polygon fill="#007f5f" stroke="#007f5f" stroke-width="4" points="666.607,-343.946 665.396,-333.421 659.779,-342.405 666.607,-343.946"/>
</g>
<!-- G05&#45;&gt;G017 -->
<g id="edge129" class="edge"><title>G05&#45;&gt;G017</title>
<path fill="none" stroke="#7f00df" stroke-width="4" d="M431.073,-724.532C463.545,-725.993 521.708,-726.551 570,-715.938 644.524,-699.562 725.604,-661.309 770.679,-638.033"/>
<polygon fill="#7f00df" stroke="#7f00df" stroke-width="4" points="772.489,-641.036 779.735,-633.306 769.251,-634.83 772.489,-641.036"/>
</g>
<!-- G08&#45;&gt;G022 -->
<g id="edge134" class="edge"><title>G08&#45;&gt;G022</title>
<path fill="none" stroke="#7f00df" stroke-width="4" d="M421.048,-379.679C426.177,-374.138 431.696,-368.067 436,-361.938 477.808,-302.403 447.968,-256.031 508,-214.938 568.366,-173.617 598.846,-200.938 672,-200.938 672,-200.938 672,-200.938 808,-200.938 896.656,-200.938 993.09,-247.542 1041.86,-277.251"/>
<polygon fill="#7f00df" stroke="#7f00df" stroke-width="4" points="1040.07,-280.256 1050.4,-282.587 1043.78,-274.32 1040.07,-280.256"/>
</g>
<!-- G08&#45;&gt;G022 -->
<g id="edge135" class="edge"><title>G08&#45;&gt;G022</title>
<path fill="none" stroke="#005f7f" stroke-width="4" d="M424.473,-382.752C428.546,-378.464 432.643,-373.719 436,-368.938 477.808,-309.403 447.968,-263.031 508,-221.938 568.366,-180.617 598.846,-207.938 672,-207.938 672,-207.938 672,-207.938 808,-207.938 895.323,-207.938 990.192,-253.151 1039.63,-280.527"/>
<polygon fill="#005f7f" stroke="#005f7f" stroke-width="4" points="1038.18,-283.726 1048.61,-285.581 1041.61,-277.626 1038.18,-283.726"/>
</g>
<!-- G08&#45;&gt;G022 -->
<g id="edge136" class="edge"><title>G08&#45;&gt;G022</title>
<path fill="none" stroke="#007f9f" stroke-width="4" d="M427.287,-386.626C430.398,-383.272 433.418,-379.616 436,-375.938 477.808,-316.403 447.968,-270.031 508,-228.938 568.366,-187.617 598.846,-214.938 672,-214.938 672,-214.938 672,-214.938 808,-214.938 894.174,-214.938 987.697,-258.969 1037.66,-284.157"/>
<polygon fill="#007f9f" stroke="#007f9f" stroke-width="4" points="1036.26,-287.372 1046.76,-288.776 1039.43,-281.13 1036.26,-287.372"/>
</g>
<!-- G08&#45;&gt;G09 -->
<g id="edge137" class="edge"><title>G08&#45;&gt;G09</title>
<path fill="none" stroke="black" stroke-width="4" d="M417.027,-422.828C440.515,-471.584 495.535,-585.791 522.521,-641.807"/>
<polygon fill="black" stroke="black" stroke-width="4" points="519.418,-643.431 526.911,-650.921 525.724,-640.393 519.418,-643.431"/>
</g>
<!-- G08&#45;&gt;G018 -->
<g id="edge140" class="edge"><title>G08&#45;&gt;G018</title>
<path fill="none" stroke="#7f9f00" stroke-width="4" d="M428.094,-411.989C448.439,-423.087 478.97,-439.74 502.694,-452.681"/>
<polygon fill="#7f9f00" stroke="#7f9f00" stroke-width="4" points="501.287,-455.9 511.742,-457.616 504.639,-449.755 501.287,-455.9"/>
</g>
<!-- G08&#45;&gt;G021 -->
<g id="edge138" class="edge"><title>G08&#45;&gt;G021</title>
<path fill="none" stroke="#7f009f" stroke-width="4" d="M430.778,-395.041C462.935,-390.875 520.762,-386.564 570,-390.938 630.266,-396.293 646.352,-396.572 704,-414.938 779.273,-438.92 861.567,-481.774 906.346,-507.585"/>
<polygon fill="#7f009f" stroke="#7f009f" stroke-width="4" points="904.651,-510.648 915.052,-512.665 908.179,-504.602 904.651,-510.648"/>
</g>
<!-- G08&#45;&gt;G021 -->
<g id="edge139" class="edge"><title>G08&#45;&gt;G021</title>
<path fill="none" stroke="#1f7f00" stroke-width="4" d="M431.057,-399.845C463.268,-397.85 520.903,-393.576 570,-397.938 630.266,-403.293 646.352,-403.572 704,-421.938 778.109,-445.549 859.024,-487.453 904.242,-511.26"/>
<polygon fill="#1f7f00" stroke="#1f7f00" stroke-width="4" points="902.856,-514.486 913.334,-516.053 906.12,-508.294 902.856,-514.486"/>
</g>
<!-- G08&#45;&gt;G0T -->
<g id="edge142" class="edge"><title>G08&#45;&gt;G0T</title>
<path fill="none" stroke="black" stroke-width="4" d="M425.069,-383.135C429.118,-378.831 433.054,-373.983 436,-368.938 492.801,-271.667 417.743,-193.331 508,-125.938 534.631,-106.054 1080.59,-121.519 1106,-142.938 1169.29,-196.279 1194.36,-458.069 1201.59,-555.403"/>
<polygon fill="black" stroke="black" stroke-width="4" points="1198.12,-555.915 1202.33,-565.636 1205.1,-555.41 1198.12,-555.915"/>
</g>
<!-- G08&#45;&gt;G020 -->
<g id="edge143" class="edge"><title>G08&#45;&gt;G020</title>
<path fill="none" stroke="#007f5f" stroke-width="4" d="M429.992,-392.012C450.457,-385.69 480.801,-377.35 508,-373.938 599.821,-362.42 708.81,-367.974 766.15,-372.366"/>
<polygon fill="#007f5f" stroke="#007f5f" stroke-width="4" points="765.994,-375.865 776.24,-373.168 766.549,-368.887 765.994,-375.865"/>
</g>
<!-- G08&#45;&gt;G017 -->
<g id="edge141" class="edge"><title>G08&#45;&gt;G017</title>
<path fill="none" stroke="#7f5f00" stroke-width="4" d="M430.94,-397.149C485.6,-392.364 617.926,-388.162 704,-446.938 751.013,-479.042 779.649,-540.589 794.161,-580.688"/>
<polygon fill="#7f5f00" stroke="#7f5f00" stroke-width="4" points="790.861,-581.856 797.464,-590.141 797.469,-579.546 790.861,-581.856"/>
</g>
<!-- G021&#45;&gt;G022 -->
<g id="edge59" class="edge"><title>G021&#45;&gt;G022</title>
<path fill="none" stroke="#001f7f" stroke-width="4" d="M958.813,-503.824C963.197,-497.097 967.852,-489.79 972,-482.938 1002.35,-432.807 1035.08,-373.348 1055.06,-336.374"/>
<polygon fill="#001f7f" stroke="#001f7f" stroke-width="4" points="1058.19,-337.941 1059.85,-327.478 1052.03,-334.62 1058.19,-337.941"/>
</g>
<!-- G021&#45;&gt;G0T -->
<g id="edge60" class="edge"><title>G021&#45;&gt;G0T</title>
<path fill="none" stroke="black" stroke-width="4" d="M970.788,-535.861C1019.27,-547.518 1117,-571.019 1169.23,-583.578"/>
<polygon fill="black" stroke="black" stroke-width="4" points="1168.5,-587.002 1179.04,-585.937 1170.14,-580.196 1168.5,-587.002"/>
</g>
<!-- G016&#45;&gt;G022 -->
<g id="edge70" class="edge"><title>G016&#45;&gt;G022</title>
<path fill="none" stroke="#7f9f00" stroke-width="4" d="M703.455,-731.086C764.481,-721.358 904.637,-693.065 972,-604.938 1033.91,-523.952 1059.3,-403.485 1068.84,-341.298"/>
<polygon fill="#7f9f00" stroke="#7f9f00" stroke-width="4" points="1072.35,-341.512 1070.34,-331.109 1065.42,-340.493 1072.35,-341.512"/>
</g>
<!-- G016&#45;&gt;G022 -->
<g id="edge71" class="edge"><title>G016&#45;&gt;G022</title>
<path fill="none" stroke="#7f5f00" stroke-width="4" d="M703.922,-734.846C765.192,-728.214 904.808,-699.842 972,-611.938 1035.49,-528.882 1060.58,-404.303 1069.54,-340.956"/>
<polygon fill="#7f5f00" stroke="#7f5f00" stroke-width="4" points="1073.02,-341.342 1070.89,-330.963 1066.08,-340.404 1073.02,-341.342"/>
</g>
<!-- G016&#45;&gt;G021 -->
<g id="edge72" class="edge"><title>G016&#45;&gt;G021</title>
<path fill="none" stroke="#00df7f" stroke-width="4" d="M703.261,-730.611C738.238,-723.072 797.157,-706.542 838,-674.938 875.949,-645.575 905.37,-598.162 922.658,-565.372"/>
<polygon fill="#00df7f" stroke="#00df7f" stroke-width="4" points="925.955,-566.614 927.42,-556.121 919.731,-563.411 925.955,-566.614"/>
</g>
<!-- G016&#45;&gt;G0T -->
<g id="edge74" class="edge"><title>G016&#45;&gt;G0T</title>
<path fill="none" stroke="black" stroke-width="4" d="M703.545,-734.737C775.31,-730.914 963.392,-715.419 1106,-654.938 1131.03,-644.323 1156.79,-627.487 1175.62,-613.889"/>
<polygon fill="black" stroke="black" stroke-width="4" points="1177.77,-616.65 1183.75,-607.903 1173.62,-611.012 1177.77,-616.65"/>
</g>
<!-- G016&#45;&gt;G017 -->
<g id="edge73" class="edge"><title>G016&#45;&gt;G017</title>
<path fill="none" stroke="black" stroke-width="4" d="M696.392,-716.091C718.295,-696.677 751.795,-666.984 775.995,-645.534"/>
<polygon fill="black" stroke="black" stroke-width="4" points="778.336,-648.135 783.498,-638.883 773.693,-642.897 778.336,-648.135"/>
</g>
<!-- G020&#45;&gt;G022 -->
<g id="edge79" class="edge"><title>G020&#45;&gt;G022</title>
<path fill="none" stroke="#9f007f" stroke-width="4" d="M837.338,-370.559C870.39,-364.213 925.561,-352.759 972,-338.938 994.002,-332.39 1018.09,-323.5 1037.33,-315.965"/>
<polygon fill="#9f007f" stroke="#9f007f" stroke-width="4" points="1038.63,-319.217 1046.63,-312.28 1036.05,-312.709 1038.63,-319.217"/>
</g>
<!-- G020&#45;&gt;G021 -->
<g id="edge80" class="edge"><title>G020&#45;&gt;G021</title>
<path fill="none" stroke="black" stroke-width="4" d="M827.477,-398.514C850.289,-424.955 888.188,-468.884 913.623,-498.365"/>
<polygon fill="black" stroke="black" stroke-width="4" points="911.261,-500.985 920.443,-506.27 916.561,-496.412 911.261,-500.985"/>
</g>
<!-- G020&#45;&gt;G0T -->
<g id="edge81" class="edge"><title>G020&#45;&gt;G0T</title>
<path fill="none" stroke="black" stroke-width="4" d="M834.289,-390.278C904.363,-428.5 1095.47,-532.742 1171.84,-574.398"/>
<polygon fill="black" stroke="black" stroke-width="4" points="1170.54,-577.674 1180.99,-579.389 1173.89,-571.528 1170.54,-577.674"/>
</g>
<!-- G014&#45;&gt;G022 -->
<g id="edge37" class="edge"><title>G014&#45;&gt;G022</title>
<path fill="none" stroke="#007f5f" stroke-width="4" d="M703.738,-302.463C774.695,-300.657 953.96,-299.258 1034.15,-299.822"/>
<polygon fill="#007f5f" stroke="#007f5f" stroke-width="4" points="1034.31,-303.324 1044.34,-299.91 1034.37,-296.324 1034.31,-303.324"/>
</g>
<!-- G014&#45;&gt;G022 -->
<g id="edge38" class="edge"><title>G014&#45;&gt;G022</title>
<path fill="none" stroke="#7f9f00" stroke-width="4" d="M703.738,-305.385C774.695,-306.551 953.96,-305.279 1034.15,-303.124"/>
<polygon fill="#7f9f00" stroke="#7f9f00" stroke-width="4" points="1034.44,-306.617 1044.34,-302.828 1034.24,-299.62 1034.44,-306.617"/>
</g>
<!-- G014&#45;&gt;G021 -->
<g id="edge39" class="edge"><title>G014&#45;&gt;G021</title>
<path fill="none" stroke="#7f5f00" stroke-width="4" d="M703.693,-303.748C739.096,-304.99 798.434,-311.887 838,-341.938 887.042,-379.187 915.441,-447.104 929.302,-490.029"/>
<polygon fill="#7f5f00" stroke="#7f5f00" stroke-width="4" points="925.962,-491.073 932.28,-499.578 932.645,-488.989 925.962,-491.073"/>
</g>
<!-- G014&#45;&gt;G0T -->
<g id="edge41" class="edge"><title>G014&#45;&gt;G0T</title>
<path fill="none" stroke="black" stroke-width="4" d="M700.612,-290.676C773.682,-256.349 980.318,-173.565 1106,-266.938 1152.99,-301.848 1186.06,-478.285 1198.52,-555.577"/>
<polygon fill="black" stroke="black" stroke-width="4" points="1195.12,-556.472 1200.14,-565.801 1202.04,-555.376 1195.12,-556.472"/>
</g>
<!-- G014&#45;&gt;G020 -->
<g id="edge42" class="edge"><title>G014&#45;&gt;G020</title>
<path fill="none" stroke="#00df7f" stroke-width="4" d="M700.079,-318.163C720.418,-329.257 748.859,-344.771 771.149,-356.929"/>
<polygon fill="#00df7f" stroke="#00df7f" stroke-width="4" points="769.52,-360.027 779.975,-361.743 772.872,-353.882 769.52,-360.027"/>
</g>
<!-- G014&#45;&gt;G017 -->
<g id="edge40" class="edge"><title>G014&#45;&gt;G017</title>
<path fill="none" stroke="black" stroke-width="4" d="M685.598,-331.616C709.355,-388.307 763.561,-517.664 790.38,-581.664"/>
<polygon fill="black" stroke="black" stroke-width="4" points="787.193,-583.114 794.286,-590.985 793.649,-580.409 787.193,-583.114"/>
</g>
<!-- G017&#45;&gt;G022 -->
<g id="edge64" class="edge"><title>G017&#45;&gt;G022</title>
<path fill="none" stroke="#7f9f00" stroke-width="4" d="M837.532,-615.427C873.603,-613.389 934.441,-608.03 972,-574.938 1041.43,-513.767 1063.63,-401.5 1070.7,-341.347"/>
<polygon fill="#7f9f00" stroke="#7f9f00" stroke-width="4" points="1074.22,-341.419 1071.82,-331.098 1067.26,-340.659 1074.22,-341.419"/>
</g>
<!-- G017&#45;&gt;G022 -->
<g id="edge65" class="edge"><title>G017&#45;&gt;G022</title>
<path fill="none" stroke="#00df7f" stroke-width="4" d="M837.532,-620.322C873.603,-620.389 934.441,-615.03 972,-581.938 1043.23,-519.181 1064.74,-402.644 1071.22,-341.221"/>
<polygon fill="#00df7f" stroke="#00df7f" stroke-width="4" points="1074.72,-341.427 1072.2,-331.136 1067.75,-340.75 1074.72,-341.427"/>
</g>
<!-- G017&#45;&gt;G022 -->
<g id="edge66" class="edge"><title>G017&#45;&gt;G022</title>
<path fill="none" stroke="#7f5f00" stroke-width="4" d="M836.904,-625.179C872.892,-627.451 934.222,-622.223 972,-588.938 1044.7,-524.883 1065.61,-404.803 1071.61,-341.769"/>
<polygon fill="#7f5f00" stroke="#7f5f00" stroke-width="4" points="1075.13,-341.689 1072.5,-331.423 1068.15,-341.083 1075.13,-341.689"/>
</g>
<!-- G017&#45;&gt;G021 -->
<g id="edge67" class="edge"><title>G017&#45;&gt;G021</title>
<path fill="none" stroke="#9f007f" stroke-width="4" d="M831.904,-600.86C852.59,-586.213 882.744,-565.581 905.952,-550.156"/>
<polygon fill="#9f007f" stroke="#9f007f" stroke-width="4" points="908.061,-552.957 914.472,-544.522 904.2,-547.118 908.061,-552.957"/>
</g>
<!-- G017&#45;&gt;G021 -->
<g id="edge68" class="edge"><title>G017&#45;&gt;G021</title>
<path fill="none" stroke="black" stroke-width="4" d="M833.764,-603.808C855.054,-589.981 885.375,-569.366 908.178,-553.244"/>
<polygon fill="black" stroke="black" stroke-width="4" points="910.398,-555.96 916.515,-547.309 906.339,-550.257 910.398,-555.96"/>
</g>
<!-- G017&#45;&gt;G0T -->
<g id="edge69" class="edge"><title>G017&#45;&gt;G0T</title>
<path fill="none" stroke="black" stroke-width="4" d="M837.628,-616.968C870.474,-614.78 925.024,-611.134 972,-607.938 1041.36,-603.22 1122.38,-597.61 1167.99,-594.443"/>
<polygon fill="black" stroke="black" stroke-width="4" points="1168.52,-597.915 1178.25,-593.73 1168.03,-590.931 1168.52,-597.915"/>
</g>
<!-- G013&#45;&gt;G022 -->
<g id="edge76" class="edge"><title>G013&#45;&gt;G022</title>
<path fill="none" stroke="#7f9f00" stroke-width="4" d="M569.303,-155.764C641.711,-146.818 833.254,-131.573 972,-196.938 1004.95,-212.461 1033.11,-243.434 1051.44,-267.56"/>
<polygon fill="#7f9f00" stroke="#7f9f00" stroke-width="4" points="1048.75,-269.807 1057.5,-275.771 1054.38,-265.648 1048.75,-269.807"/>
</g>
<!-- G013&#45;&gt;G0T -->
<g id="edge77" class="edge"><title>G013&#45;&gt;G0T</title>
<path fill="none" stroke="black" stroke-width="4" d="M569.478,-156.637C618.499,-151.44 719.908,-141.938 806,-141.938 806,-141.938 806,-141.938 942,-141.938 1016.72,-141.938 1052.87,-126.396 1106,-178.938 1159.74,-232.086 1190.28,-465.229 1200.29,-555.79"/>
<polygon fill="black" stroke="black" stroke-width="4" points="1196.83,-556.292 1201.39,-565.856 1203.79,-555.536 1196.83,-556.292"/>
</g>
<!-- G013&#45;&gt;G020 -->
<g id="edge78" class="edge"><title>G013&#45;&gt;G020</title>
<path fill="none" stroke="#7f5f00" stroke-width="4" d="M565.917,-174.941C599.292,-194.782 658.418,-231.723 704,-269.938 731.714,-293.174 759.978,-323.138 779.704,-345.277"/>
<polygon fill="#7f5f00" stroke="#7f5f00" stroke-width="4" points="777.326,-347.872 786.568,-353.053 782.574,-343.239 777.326,-347.872"/>
</g>
<!-- G013&#45;&gt;G014 -->
<g id="edge75" class="edge"><title>G013&#45;&gt;G014</title>
<path fill="none" stroke="black" stroke-width="4" d="M560.336,-182.123C582.978,-206.824 619.685,-246.867 644.788,-274.252"/>
<polygon fill="black" stroke="black" stroke-width="4" points="642.52,-276.958 651.858,-281.965 647.681,-272.228 642.52,-276.958"/>
</g>
<!-- G010&#45;&gt;G018 -->
<g id="edge83" class="edge"><title>G010&#45;&gt;G018</title>
<path fill="none" stroke="#7f5f00" stroke-width="4" d="M426.916,-357.488C449.412,-380.666 485.294,-417.635 510.163,-443.258"/>
<polygon fill="#7f5f00" stroke="#7f5f00" stroke-width="4" points="507.706,-445.751 517.182,-450.49 512.729,-440.876 507.706,-445.751"/>
</g>
<!-- G010&#45;&gt;G0T -->
<g id="edge84" class="edge"><title>G010&#45;&gt;G0T</title>
<path fill="none" stroke="black" stroke-width="4" d="M410.002,-305.817C418.334,-256.616 442.562,-160.256 508,-117.938 563.807,-81.8483 1055.78,-87.4061 1106,-130.938 1170.35,-186.721 1194.85,-456.6 1201.75,-555.509"/>
<polygon fill="black" stroke="black" stroke-width="4" points="1198.27,-555.881 1202.44,-565.621 1205.26,-555.407 1198.27,-555.881"/>
</g>
<!-- G010&#45;&gt;G020 -->
<g id="edge85" class="edge"><title>G010&#45;&gt;G020</title>
<path fill="none" stroke="#7f9f00" stroke-width="4" d="M435.413,-338.88C506.207,-345.959 686.147,-363.953 766.362,-371.974"/>
<polygon fill="#7f9f00" stroke="#7f9f00" stroke-width="4" points="766.245,-375.48 776.544,-372.993 766.942,-368.515 766.245,-375.48"/>
</g>
<!-- G010&#45;&gt;G014 -->
<g id="edge82" class="edge"><title>G010&#45;&gt;G014</title>
<path fill="none" stroke="black" stroke-width="4" d="M435.483,-332.391C483.418,-326.625 578.303,-315.21 632.182,-308.728"/>
<polygon fill="black" stroke="black" stroke-width="4" points="632.875,-312.17 642.385,-307.501 632.038,-305.221 632.875,-312.17"/>
</g>
</g>
</svg>
