<?xml version="1.0" encoding="UTF-8" standalone="no"?>
<!DOCTYPE svg PUBLIC "-//W3C//DTD SVG 1.1//EN"
 "http://www.w3.org/Graphics/SVG/1.1/DTD/svg11.dtd">
<!-- Generated by graphviz version 2.36.0 (20140111.2315)
 -->
<!-- Title: %3 Pages: 1 -->
<svg width="436pt" height="78pt"
 viewBox="0.00 0.00 436.00 78.00" xmlns="http://www.w3.org/2000/svg" xmlns:xlink="http://www.w3.org/1999/xlink">
<g id="graph0" class="graph" transform="scale(1 1) rotate(0) translate(4 74)">
<title>%3</title>
<polygon fill="white" stroke="none" points="-4,4 -4,-74 432,-74 432,4 -4,4"/>
<!-- G01 -->
<g id="node1" class="node"><title>G01</title>
<ellipse fill="none" stroke="black" stroke-width="2" cx="152" cy="-26" rx="25.9954" ry="25.9954"/>
<text text-anchor="middle" x="152" y="-22.3" font-family="Times,serif" font-size="14.00">G01</text>
</g>
<!-- G02 -->
<g id="node2" class="node"><title>G02</title>
<ellipse fill="none" stroke="black" stroke-width="2" cx="276" cy="-45" rx="25.9954" ry="25.9954"/>
<text text-anchor="middle" x="276" y="-41.3" font-family="Times,serif" font-size="14.00">G02</text>
</g>
<!-- G01&#45;&gt;G02 -->
<g id="edge1" class="edge"><title>G01&#45;&gt;G02</title>
<path fill="none" stroke="#bf7f00" stroke-width="4" d="M177.983,-29.8908C195.911,-32.6829 220.306,-36.482 240.148,-39.5722"/>
<polygon fill="#bf7f00" stroke="#bf7f00" stroke-width="4" points="239.631,-43.0338 250.05,-41.1144 240.708,-36.1172 239.631,-43.0338"/>
</g>
<!-- G0T -->
<g id="node3" class="node"><title>G0T</title>
<ellipse fill="none" stroke="black" stroke-width="2" cx="401" cy="-26" rx="26.7961" ry="26.7961"/>
<text text-anchor="middle" x="401" y="-22.3" font-family="Times,serif" font-size="14.00">G0T</text>
</g>
<!-- G01&#45;&gt;G0T -->
<g id="edge2" class="edge"><title>G01&#45;&gt;G0T</title>
<path fill="none" stroke="black" stroke-width="4" d="M178.068,-22.7011C197.621,-20.3011 225.485,-17.2603 250,-16 273.081,-14.8134 278.919,-14.8254 302,-16 322.656,-17.0512 345.667,-19.3409 364.198,-21.4644"/>
<polygon fill="black" stroke="black" stroke-width="4" points="363.922,-24.956 374.263,-22.6513 364.742,-18.0042 363.922,-24.956"/>
</g>
<!-- G02&#45;&gt;G0T -->
<g id="edge3" class="edge"><title>G02&#45;&gt;G0T</title>
<path fill="none" stroke="black" stroke-width="4" d="M301.891,-41.1551C319.824,-38.3849 344.287,-34.6061 364.299,-31.5149"/>
<polygon fill="black" stroke="black" stroke-width="4" points="364.951,-34.9557 374.299,-29.97 363.882,-28.0377 364.951,-34.9557"/>
</g>
<!-- G0S -->
<g id="node4" class="node"><title>G0S</title>
<ellipse fill="none" stroke="black" stroke-width="2" cx="27" cy="-26" rx="26.7961" ry="26.7961"/>
<text text-anchor="middle" x="27" y="-22.3" font-family="Times,serif" font-size="14.00">G0S</text>
</g>
<!-- G0S&#45;&gt;G01 -->
<g id="edge4" class="edge"><title>G0S&#45;&gt;G01</title>
<path fill="none" stroke="#3f007f" stroke-width="4" d="M53.4857,-21.6501C71.4989,-20.6255 95.8765,-20.4756 115.751,-21.2005"/>
<polygon fill="#3f007f" stroke="#3f007f" stroke-width="4" points="115.816,-24.7072 125.968,-21.6762 116.141,-17.7148 115.816,-24.7072"/>
</g>
<!-- G0S&#45;&gt;G01 -->
<g id="edge5" class="edge"><title>G0S&#45;&gt;G01</title>
<path fill="none" stroke="#7fbf00" stroke-width="4" d="M53.7848,-26C71.6986,-26 95.7993,-26 115.522,-26"/>
<polygon fill="#7fbf00" stroke="#7fbf00" stroke-width="4" points="115.67,-29.5001 125.67,-26 115.67,-22.5001 115.67,-29.5001"/>
</g>
<!-- G0S&#45;&gt;G01 -->
<g id="edge6" class="edge"><title>G0S&#45;&gt;G01</title>
<path fill="none" stroke="black" stroke-width="4" d="M53.4857,-30.3499C71.4989,-31.3745 95.8765,-31.5244 115.751,-30.7995"/>
<polygon fill="black" stroke="black" stroke-width="4" points="116.141,-34.2852 125.968,-30.3238 115.816,-27.2928 116.141,-34.2852"/>
</g>
</g>
</svg>
