<?xml version="1.0" encoding="UTF-8" standalone="no"?>
<!DOCTYPE svg PUBLIC "-//W3C//DTD SVG 1.1//EN"
 "http://www.w3.org/Graphics/SVG/1.1/DTD/svg11.dtd">
<!-- Generated by graphviz version 2.36.0 (20140111.2315)
 -->
<!-- Title: %3 Pages: 1 -->
<svg width="652pt" height="156pt"
 viewBox="0.00 0.00 652.00 156.00" xmlns="http://www.w3.org/2000/svg" xmlns:xlink="http://www.w3.org/1999/xlink">
<g id="graph0" class="graph" transform="scale(1 1) rotate(0) translate(4 152)">
<title>%3</title>
<polygon fill="white" stroke="none" points="-4,4 -4,-152 648,-152 648,4 -4,4"/>
<!-- G01 -->
<g id="node1" class="node"><title>G01</title>
<ellipse fill="none" stroke="black" stroke-width="2" cx="260" cy="-26" rx="25.9954" ry="25.9954"/>
<text text-anchor="middle" x="260" y="-22.3" font-family="Times,serif" font-size="14.00">G01</text>
</g>
<!-- G02 -->
<g id="node2" class="node"><title>G02</title>
<ellipse fill="none" stroke="black" stroke-width="2" cx="384" cy="-38" rx="25.9954" ry="25.9954"/>
<text text-anchor="middle" x="384" y="-34.3" font-family="Times,serif" font-size="14.00">G02</text>
</g>
<!-- G01&#45;&gt;G02 -->
<g id="edge1" class="edge"><title>G01&#45;&gt;G02</title>
<path fill="none" stroke="#007f00" stroke-width="4" d="M285.983,-28.4573C303.829,-30.2127 328.082,-32.5982 347.874,-34.545"/>
<polygon fill="#007f00" stroke="#007f00" stroke-width="4" points="347.756,-38.0502 358.05,-35.546 348.441,-31.0838 347.756,-38.0502"/>
</g>
<!-- G0T -->
<g id="node3" class="node"><title>G0T</title>
<ellipse fill="none" stroke="black" stroke-width="2" cx="509" cy="-32" rx="26.7961" ry="26.7961"/>
<text text-anchor="middle" x="509" y="-28.3" font-family="Times,serif" font-size="14.00">G0T</text>
</g>
<!-- G01&#45;&gt;G0T -->
<g id="edge2" class="edge"><title>G01&#45;&gt;G0T</title>
<path fill="none" stroke="black" stroke-width="4" d="M285.262,-19.8101C314.754,-13.0766 366.033,-3.90973 410,-9 431.386,-11.4759 454.882,-16.8947 473.506,-21.8509"/>
<polygon fill="black" stroke="black" stroke-width="4" points="472.737,-25.2693 483.307,-24.5351 474.586,-18.5179 472.737,-25.2693"/>
</g>
<!-- G02&#45;&gt;G0T -->
<g id="edge3" class="edge"><title>G02&#45;&gt;G0T</title>
<path fill="none" stroke="black" stroke-width="4" d="M410.188,-36.7713C427.941,-35.9053 451.985,-34.7324 471.791,-33.7663"/>
<polygon fill="black" stroke="black" stroke-width="4" points="472.181,-37.2515 481.998,-33.2684 471.84,-30.2599 472.181,-37.2515"/>
</g>
<!-- T -->
<g id="node8" class="node"><title>T</title>
<ellipse fill="none" stroke="black" stroke-width="2" cx="626" cy="-62" rx="18" ry="18"/>
<text text-anchor="middle" x="626" y="-58.3" font-family="Times,serif" font-size="14.00">T</text>
</g>
<!-- G0T&#45;&gt;T -->
<g id="edge11" class="edge"><title>G0T&#45;&gt;T</title>
<path fill="none" stroke="black" stroke-width="4" d="M534.953,-38.5096C553.681,-43.3951 579.277,-50.0723 598.394,-55.0592"/>
<polygon fill="black" stroke="black" stroke-width="4" points="597.703,-58.4961 608.263,-57.6337 599.47,-51.7228 597.703,-58.4961"/>
</g>
<!-- G1S -->
<g id="node4" class="node"><title>G1S</title>
<ellipse fill="none" stroke="black" stroke-width="2" cx="135" cy="-86" rx="26.7961" ry="26.7961"/>
<text text-anchor="middle" x="135" y="-82.3" font-family="Times,serif" font-size="14.00">G1S</text>
</g>
<!-- G11 -->
<g id="node5" class="node"><title>G11</title>
<ellipse fill="none" stroke="black" stroke-width="2" cx="260" cy="-86" rx="25.9954" ry="25.9954"/>
<text text-anchor="middle" x="260" y="-82.3" font-family="Times,serif" font-size="14.00">G11</text>
</g>
<!-- G1S&#45;&gt;G11 -->
<g id="edge4" class="edge"><title>G1S&#45;&gt;G11</title>
<path fill="none" stroke="black" stroke-width="4" d="M161.785,-84.1285C179.699,-83.6976 203.799,-83.6346 223.522,-83.9395"/>
<polygon fill="black" stroke="black" stroke-width="4" points="223.603,-87.4417 233.67,-84.1396 223.741,-80.4431 223.603,-87.4417"/>
</g>
<!-- G1S&#45;&gt;G11 -->
<g id="edge5" class="edge"><title>G1S&#45;&gt;G11</title>
<path fill="none" stroke="#66007f" stroke-width="4" d="M161.785,-88.4953C179.818,-89.0737 204.121,-89.1549 223.916,-88.7391"/>
<polygon fill="#66007f" stroke="#66007f" stroke-width="4" points="224.187,-92.2332 234.089,-88.4667 223.999,-85.2357 224.187,-92.2332"/>
</g>
<!-- G12 -->
<g id="node6" class="node"><title>G12</title>
<ellipse fill="none" stroke="black" stroke-width="2" cx="384" cy="-123" rx="25.9954" ry="25.9954"/>
<text text-anchor="middle" x="384" y="-119.3" font-family="Times,serif" font-size="14.00">G12</text>
</g>
<!-- G1S&#45;&gt;G12 -->
<g id="edge6" class="edge"><title>G1S&#45;&gt;G12</title>
<path fill="none" stroke="#327f00" stroke-width="4" d="M160.191,-94.8858C179.799,-101.665 208.296,-110.57 234,-115 272.479,-121.632 317.3,-123.228 347.655,-123.419"/>
<polygon fill="#327f00" stroke="#327f00" stroke-width="4" points="347.749,-126.919 357.755,-123.433 347.76,-119.919 347.749,-126.919"/>
</g>
<!-- G11&#45;&gt;G12 -->
<g id="edge7" class="edge"><title>G11&#45;&gt;G12</title>
<path fill="none" stroke="#007f00" stroke-width="4" d="M285.103,-93.31C303.4,-98.8591 328.791,-106.56 349.13,-112.728"/>
<polygon fill="#007f00" stroke="#007f00" stroke-width="4" points="348.361,-116.152 358.947,-115.705 350.393,-109.454 348.361,-116.152"/>
</g>
<!-- G1T -->
<g id="node7" class="node"><title>G1T</title>
<ellipse fill="none" stroke="black" stroke-width="2" cx="509" cy="-92" rx="26.7961" ry="26.7961"/>
<text text-anchor="middle" x="509" y="-88.3" font-family="Times,serif" font-size="14.00">G1T</text>
</g>
<!-- G11&#45;&gt;G1T -->
<g id="edge8" class="edge"><title>G11&#45;&gt;G1T</title>
<path fill="none" stroke="black" stroke-width="4" d="M286.043,-86.6083C330.011,-87.6764 421.227,-89.8921 471.968,-91.1247"/>
<polygon fill="black" stroke="black" stroke-width="4" points="472.068,-94.6281 482.15,-91.3721 472.238,-87.6302 472.068,-94.6281"/>
</g>
<!-- G12&#45;&gt;G1T -->
<g id="edge9" class="edge"><title>G12&#45;&gt;G1T</title>
<path fill="none" stroke="black" stroke-width="4" d="M409.301,-116.875C427.508,-112.287 452.683,-105.942 473.051,-100.808"/>
<polygon fill="black" stroke="black" stroke-width="4" points="474.064,-104.163 482.905,-98.3247 472.353,-97.3748 474.064,-104.163"/>
</g>
<!-- G1T&#45;&gt;T -->
<g id="edge10" class="edge"><title>G1T&#45;&gt;T</title>
<path fill="none" stroke="black" stroke-width="4" d="M534.953,-85.4904C553.681,-80.6049 579.277,-73.9277 598.394,-68.9408"/>
<polygon fill="black" stroke="black" stroke-width="4" points="599.47,-72.2772 608.263,-66.3663 597.703,-65.5039 599.47,-72.2772"/>
</g>
<!-- G0S -->
<g id="node9" class="node"><title>G0S</title>
<ellipse fill="none" stroke="black" stroke-width="2" cx="135" cy="-26" rx="26.7961" ry="26.7961"/>
<text text-anchor="middle" x="135" y="-22.3" font-family="Times,serif" font-size="14.00">G0S</text>
</g>
<!-- G0S&#45;&gt;G01 -->
<g id="edge12" class="edge"><title>G0S&#45;&gt;G01</title>
<path fill="none" stroke="#66007f" stroke-width="4" d="M161.486,-21.6501C179.499,-20.6255 203.877,-20.4756 223.751,-21.2005"/>
<polygon fill="#66007f" stroke="#66007f" stroke-width="4" points="223.816,-24.7072 233.968,-21.6762 224.141,-17.7148 223.816,-24.7072"/>
</g>
<!-- G0S&#45;&gt;G01 -->
<g id="edge13" class="edge"><title>G0S&#45;&gt;G01</title>
<path fill="none" stroke="#327f00" stroke-width="4" d="M161.785,-26C179.699,-26 203.799,-26 223.522,-26"/>
<polygon fill="#327f00" stroke="#327f00" stroke-width="4" points="223.67,-29.5001 233.67,-26 223.67,-22.5001 223.67,-29.5001"/>
</g>
<!-- G0S&#45;&gt;G01 -->
<g id="edge14" class="edge"><title>G0S&#45;&gt;G01</title>
<path fill="none" stroke="black" stroke-width="4" d="M161.486,-30.3499C179.499,-31.3745 203.877,-31.5244 223.751,-30.7995"/>
<polygon fill="black" stroke="black" stroke-width="4" points="224.141,-34.2852 233.968,-30.3238 223.816,-27.2928 224.141,-34.2852"/>
</g>
<!-- S -->
<g id="node10" class="node"><title>S</title>
<ellipse fill="none" stroke="black" stroke-width="2" cx="18" cy="-56" rx="18" ry="18"/>
<text text-anchor="middle" x="18" y="-52.3" font-family="Times,serif" font-size="14.00">S</text>
</g>
<!-- S&#45;&gt;G1S -->
<g id="edge15" class="edge"><title>S&#45;&gt;G1S</title>
<path fill="none" stroke="black" stroke-width="4" d="M35.9686,-60.4266C52.506,-64.7407 78.1443,-71.4289 99.0539,-76.8836"/>
<polygon fill="black" stroke="black" stroke-width="4" points="98.3186,-80.3089 108.878,-79.4465 100.086,-73.5355 98.3186,-80.3089"/>
</g>
<!-- S&#45;&gt;G0S -->
<g id="edge16" class="edge"><title>S&#45;&gt;G0S</title>
<path fill="none" stroke="black" stroke-width="4" d="M35.9686,-51.5734C52.506,-47.2593 78.1443,-40.5711 99.0539,-35.1164"/>
<polygon fill="black" stroke="black" stroke-width="4" points="100.086,-38.4645 108.878,-32.5535 98.3186,-31.6911 100.086,-38.4645"/>
</g>
</g>
</svg>
