<?xml version="1.0" encoding="UTF-8" standalone="no"?>
<!DOCTYPE svg PUBLIC "-//W3C//DTD SVG 1.1//EN"
 "http://www.w3.org/Graphics/SVG/1.1/DTD/svg11.dtd">
<!-- Generated by graphviz version 2.36.0 (20140111.2315)
 -->
<!-- Title: %3 Pages: 1 -->
<svg width="636pt" height="125pt"
 viewBox="0.00 0.00 636.00 125.00" xmlns="http://www.w3.org/2000/svg" xmlns:xlink="http://www.w3.org/1999/xlink">
<g id="graph0" class="graph" transform="scale(1 1) rotate(0) translate(4 121)">
<title>%3</title>
<polygon fill="white" stroke="none" points="-4,4 -4,-121 632,-121 632,4 -4,4"/>
<!-- V2 -->
<g id="node1" class="node"><title>V2</title>
<ellipse fill="none" stroke="black" stroke-width="2" cx="246" cy="-64" rx="21.3963" ry="21.3963"/>
<text text-anchor="middle" x="246" y="-60.3" font-family="Times,serif" font-size="14.00">V2</text>
</g>
<!-- V3 -->
<g id="node2" class="node"><title>V3</title>
<ellipse fill="none" stroke="black" stroke-width="2" cx="367" cy="-96" rx="21.3963" ry="21.3963"/>
<text text-anchor="middle" x="367" y="-92.3" font-family="Times,serif" font-size="14.00">V3</text>
</g>
<!-- V2&#45;&gt;V3 -->
<g id="edge1" class="edge"><title>V2&#45;&gt;V3</title>
<path fill="none" stroke="#66007f" stroke-width="4" d="M266.918,-69.3561C285.881,-74.4555 314.662,-82.1949 336.327,-88.0206"/>
<polygon fill="#66007f" stroke="#66007f" stroke-width="4" points="335.451,-91.4095 346.017,-90.6264 337.269,-84.6496 335.451,-91.4095"/>
</g>
<!-- G1T -->
<g id="node3" class="node"><title>G1T</title>
<ellipse fill="none" stroke="black" stroke-width="2" cx="367" cy="-26" rx="26.7961" ry="26.7961"/>
<text text-anchor="middle" x="367" y="-22.3" font-family="Times,serif" font-size="14.00">G1T</text>
</g>
<!-- V2&#45;&gt;G1T -->
<g id="edge2" class="edge"><title>V2&#45;&gt;G1T</title>
<path fill="none" stroke="black" stroke-width="4" d="M266.65,-57.7251C284.317,-52.0836 310.658,-43.6722 331.779,-36.9277"/>
<polygon fill="black" stroke="black" stroke-width="4" points="332.904,-40.2426 341.366,-33.8664 330.775,-33.5743 332.904,-40.2426"/>
</g>
<!-- G0T -->
<g id="node4" class="node"><title>G0T</title>
<ellipse fill="none" stroke="black" stroke-width="2" cx="493" cy="-64" rx="26.7961" ry="26.7961"/>
<text text-anchor="middle" x="493" y="-60.3" font-family="Times,serif" font-size="14.00">G0T</text>
</g>
<!-- V2&#45;&gt;G0T -->
<g id="edge3" class="edge"><title>V2&#45;&gt;G0T</title>
<path fill="none" stroke="black" stroke-width="4" d="M267.467,-64C309.106,-64 404.133,-64 456.221,-64"/>
<polygon fill="black" stroke="black" stroke-width="4" points="456.344,-67.5001 466.344,-64 456.344,-60.5001 456.344,-67.5001"/>
</g>
<!-- V3&#45;&gt;G0T -->
<g id="edge4" class="edge"><title>V3&#45;&gt;G0T</title>
<path fill="none" stroke="black" stroke-width="4" d="M387.923,-90.8586C406.564,-86.0479 434.815,-78.7574 457.182,-72.9854"/>
<polygon fill="black" stroke="black" stroke-width="4" points="458.18,-76.3424 466.988,-70.4546 456.431,-69.5645 458.18,-76.3424"/>
</g>
<!-- T -->
<g id="node6" class="node"><title>T</title>
<ellipse fill="none" stroke="black" stroke-width="2" cx="610" cy="-45" rx="18" ry="18"/>
<text text-anchor="middle" x="610" y="-41.3" font-family="Times,serif" font-size="14.00">T</text>
</g>
<!-- G1T&#45;&gt;T -->
<g id="edge7" class="edge"><title>G1T&#45;&gt;T</title>
<path fill="none" stroke="black" stroke-width="4" d="M393.858,-26.8064C424.135,-27.879 475.776,-30.1081 520,-34 540.806,-35.831 564.247,-38.7639 581.848,-41.1408"/>
<polygon fill="black" stroke="black" stroke-width="4" points="581.592,-44.6386 591.976,-42.5342 582.546,-37.7039 581.592,-44.6386"/>
</g>
<!-- G0T&#45;&gt;T -->
<g id="edge8" class="edge"><title>G0T&#45;&gt;T</title>
<path fill="none" stroke="black" stroke-width="4" d="M519.522,-59.7833C538.084,-56.7166 563.164,-52.5728 582.049,-49.4527"/>
<polygon fill="black" stroke="black" stroke-width="4" points="582.794,-52.8773 592.089,-47.7939 581.652,-45.9709 582.794,-52.8773"/>
</g>
<!-- V1 -->
<g id="node5" class="node"><title>V1</title>
<ellipse fill="none" stroke="black" stroke-width="2" cx="130" cy="-26" rx="21.3963" ry="21.3963"/>
<text text-anchor="middle" x="130" y="-22.3" font-family="Times,serif" font-size="14.00">V1</text>
</g>
<!-- V1&#45;&gt;V2 -->
<g id="edge5" class="edge"><title>V1&#45;&gt;V2</title>
<path fill="none" stroke="#66007f" stroke-width="4" d="M150.597,-32.5324C168.46,-38.4867 195.097,-47.3657 215.526,-54.1754"/>
<polygon fill="#66007f" stroke="#66007f" stroke-width="4" points="214.683,-57.5837 225.277,-57.4256 216.897,-50.9429 214.683,-57.5837"/>
</g>
<!-- V1&#45;&gt;G1T -->
<g id="edge6" class="edge"><title>V1&#45;&gt;G1T</title>
<path fill="none" stroke="black" stroke-width="4" d="M151.855,-26C191.936,-26 280.158,-26 329.955,-26"/>
<polygon fill="black" stroke="black" stroke-width="4" points="330.261,-29.5001 340.261,-26 330.261,-22.5001 330.261,-29.5001"/>
</g>
<!-- S -->
<g id="node7" class="node"><title>S</title>
<ellipse fill="none" stroke="black" stroke-width="2" cx="18" cy="-64" rx="18" ry="18"/>
<text text-anchor="middle" x="18" y="-60.3" font-family="Times,serif" font-size="14.00">S</text>
</g>
<!-- S&#45;&gt;V2 -->
<g id="edge9" class="edge"><title>S&#45;&gt;V2</title>
<path fill="none" stroke="#00cb7f" stroke-width="4" d="M35.9867,-61.0651C73.9703,-58.27 166.216,-58.0059 214.457,-60.2726"/>
<polygon fill="#00cb7f" stroke="#00cb7f" stroke-width="4" points="214.428,-63.7762 224.605,-60.8303 214.812,-56.7867 214.428,-63.7762"/>
</g>
<!-- S&#45;&gt;V2 -->
<g id="edge10" class="edge"><title>S&#45;&gt;V2</title>
<path fill="none" stroke="#327f00" stroke-width="4" d="M36.3586,-64C74.5076,-64 166.077,-64 214.224,-64"/>
<polygon fill="#327f00" stroke="#327f00" stroke-width="4" points="214.361,-67.5001 224.361,-64 214.361,-60.5001 214.361,-67.5001"/>
</g>
<!-- S&#45;&gt;V2 -->
<g id="edge11" class="edge"><title>S&#45;&gt;V2</title>
<path fill="none" stroke="black" stroke-width="4" d="M35.9867,-66.9349C73.9703,-69.73 166.216,-69.9941 214.457,-67.7274"/>
<polygon fill="black" stroke="black" stroke-width="4" points="214.812,-71.2133 224.605,-67.1697 214.428,-64.2238 214.812,-71.2133"/>
</g>
<!-- S&#45;&gt;V1 -->
<g id="edge12" class="edge"><title>S&#45;&gt;V1</title>
<path fill="none" stroke="#00cb7f" stroke-width="4" d="M34.7603,-56.922C51.6075,-50.4395 78.7042,-40.9503 99.5274,-34.1624"/>
<polygon fill="#00cb7f" stroke="#00cb7f" stroke-width="4" points="100.718,-37.4563 109.173,-31.0721 98.5823,-30.79 100.718,-37.4563"/>
</g>
<!-- S&#45;&gt;V1 -->
<g id="edge13" class="edge"><title>S&#45;&gt;V1</title>
<path fill="none" stroke="black" stroke-width="4" d="M35.7066,-60.455C52.9577,-55.354 80.187,-46.0915 100.785,-38.4053"/>
<polygon fill="black" stroke="black" stroke-width="4" points="102.192,-41.6146 110.291,-34.7838 99.7004,-35.0732 102.192,-41.6146"/>
</g>
</g>
</svg>
