<?xml version="1.0" encoding="UTF-8" standalone="no"?>
<!DOCTYPE svg PUBLIC "-//W3C//DTD SVG 1.1//EN"
 "http://www.w3.org/Graphics/SVG/1.1/DTD/svg11.dtd">
<!-- Generated by graphviz version 2.36.0 (20140111.2315)
 -->
<!-- Title: %3 Pages: 1 -->
<svg width="566pt" height="605pt"
 viewBox="0.00 0.00 566.00 604.95" xmlns="http://www.w3.org/2000/svg" xmlns:xlink="http://www.w3.org/1999/xlink">
<g id="graph0" class="graph" transform="scale(1 1) rotate(0) translate(4 600.951)">
<title>%3</title>
<polygon fill="white" stroke="none" points="-4,4 -4,-600.951 562,-600.951 562,4 -4,4"/>
<!-- 1 -->
<g id="node1" class="node"><title>1</title>
<ellipse fill="none" stroke="black" stroke-width="2" cx="153" cy="-507.818" rx="27" ry="18"/>
<text text-anchor="middle" x="153" y="-504.118" font-family="Times,serif" font-size="14.00">1</text>
</g>
<!-- 3 -->
<g id="node2" class="node"><title>3</title>
<ellipse fill="none" stroke="black" stroke-width="2" cx="279" cy="-559.818" rx="27" ry="18"/>
<text text-anchor="middle" x="279" y="-556.118" font-family="Times,serif" font-size="14.00">3</text>
</g>
<!-- 1&#45;&gt;3 -->
<g id="edge1" class="edge"><title>1&#45;&gt;3</title>
<path fill="none" stroke="black" stroke-width="2" stroke-dasharray="5,2" d="M176.169,-517.114C195.708,-525.308 224.401,-537.341 246.354,-546.547"/>
<polygon fill="black" stroke="black" stroke-width="2" points="245.03,-549.787 255.605,-550.426 247.737,-543.331 245.03,-549.787"/>
</g>
<!-- 9 -->
<g id="node3" class="node"><title>9</title>
<ellipse fill="none" stroke="black" stroke-width="2" cx="405" cy="-471.818" rx="27" ry="18"/>
<text text-anchor="middle" x="405" y="-468.118" font-family="Times,serif" font-size="14.00">9</text>
</g>
<!-- 1&#45;&gt;9 -->
<g id="edge2" class="edge"><title>1&#45;&gt;9</title>
<path fill="none" stroke="#7f0000" stroke-width="2" d="M178.3,-514.543C208.6,-521.873 261.793,-531.253 306,-520.818 331.456,-514.808 357.838,-501.119 376.808,-489.732"/>
<polygon fill="#7f0000" stroke="#7f0000" stroke-width="2" points="378.819,-492.604 385.489,-484.372 375.141,-486.648 378.819,-492.604"/>
</g>
<!-- 10 -->
<g id="node4" class="node"><title>10</title>
<ellipse fill="none" stroke="black" stroke-width="2" cx="279" cy="-471.818" rx="27" ry="18"/>
<text text-anchor="middle" x="279" y="-468.118" font-family="Times,serif" font-size="14.00">10</text>
</g>
<!-- 1&#45;&gt;10 -->
<g id="edge3" class="edge"><title>1&#45;&gt;10</title>
<path fill="none" stroke="#327f00" stroke-width="2" d="M177.033,-499.335C195.571,-493.448 221.926,-485.712 243.061,-479.914"/>
<polygon fill="#327f00" stroke="#327f00" stroke-width="2" points="244.22,-483.226 252.96,-477.239 242.394,-476.469 244.22,-483.226"/>
</g>
<!-- 1&#45;&gt;10 -->
<g id="edge4" class="edge"><title>1&#45;&gt;10</title>
<path fill="none" stroke="#33007f" stroke-width="2" d="M179.093,-502.999C198.311,-498.055 224.967,-490.384 245.765,-483.845"/>
<polygon fill="#33007f" stroke="#33007f" stroke-width="2" points="246.991,-487.128 255.446,-480.743 244.855,-480.461 246.991,-487.128"/>
</g>
<!-- 13 -->
<g id="node5" class="node"><title>13</title>
<ellipse fill="none" stroke="black" stroke-width="2" cx="405" cy="-242.818" rx="27" ry="18"/>
<text text-anchor="middle" x="405" y="-239.118" font-family="Times,serif" font-size="14.00">13</text>
</g>
<!-- 1&#45;&gt;13 -->
<g id="edge5" class="edge"><title>1&#45;&gt;13</title>
<path fill="none" stroke="#007f65" stroke-width="2" d="M180.251,-508.435C218.427,-508.809 286.811,-507.339 306,-492.818 377.644,-438.604 396.958,-324.331 402.129,-271.152"/>
<polygon fill="#007f65" stroke="#007f65" stroke-width="2" points="405.626,-271.337 403.009,-261.071 398.653,-270.729 405.626,-271.337"/>
</g>
<!-- T1 -->
<g id="node6" class="node"><title>T1</title>
<ellipse fill="none" stroke="black" stroke-width="2" cx="531" cy="-271.818" rx="27" ry="18"/>
<text text-anchor="middle" x="531" y="-268.118" font-family="Times,serif" font-size="14.00">T1</text>
</g>
<!-- 1&#45;&gt;T1 -->
<g id="edge6" class="edge"><title>1&#45;&gt;T1</title>
<path fill="none" stroke="black" stroke-width="2" stroke-dasharray="5,2" d="M179.206,-512.759C210.429,-517.653 264.563,-522.056 306,-503.818 357.682,-481.07 466.986,-350.138 511.023,-295.626"/>
<polygon fill="black" stroke="black" stroke-width="2" points="513.969,-297.547 517.511,-287.561 508.516,-293.158 513.969,-297.547"/>
</g>
<!-- T2 -->
<g id="node7" class="node"><title>T2</title>
<ellipse fill="none" stroke="black" stroke-width="2" cx="531" cy="-427.818" rx="27" ry="18"/>
<text text-anchor="middle" x="531" y="-424.118" font-family="Times,serif" font-size="14.00">T2</text>
</g>
<!-- 1&#45;&gt;T2 -->
<g id="edge7" class="edge"><title>1&#45;&gt;T2</title>
<path fill="none" stroke="black" stroke-width="2" stroke-dasharray="5,2" d="M168.158,-523.155C185.783,-541.001 217.766,-569.469 252,-580.818 274.781,-588.37 282.257,-584.32 306,-580.818 363.865,-572.282 383.041,-574.822 432,-542.818 467.746,-519.45 497.661,-479.294 514.705,-453.153"/>
<polygon fill="black" stroke="black" stroke-width="2" points="517.769,-454.857 520.185,-444.541 511.863,-451.099 517.769,-454.857"/>
</g>
<!-- 3&#45;&gt;9 -->
<g id="edge8" class="edge"><title>3&#45;&gt;9</title>
<path fill="none" stroke="#00657f" stroke-width="2" d="M298.031,-547.022C318.969,-532.162 353.691,-507.521 377.652,-490.516"/>
<polygon fill="#00657f" stroke="#00657f" stroke-width="2" points="379.818,-493.271 385.948,-484.629 375.767,-487.562 379.818,-493.271"/>
</g>
<!-- 3&#45;&gt;T1 -->
<g id="edge9" class="edge"><title>3&#45;&gt;T1</title>
<path fill="none" stroke="black" stroke-width="2" stroke-dasharray="5,2" d="M305.015,-554.902C338.043,-547.221 396.19,-529.411 432,-493.818 487.72,-438.435 514.263,-345.944 524.571,-299.792"/>
<polygon fill="black" stroke="black" stroke-width="2" points="528.02,-300.4 526.69,-289.889 521.175,-298.935 528.02,-300.4"/>
</g>
<!-- 3&#45;&gt;T2 -->
<g id="edge10" class="edge"><title>3&#45;&gt;T2</title>
<path fill="none" stroke="black" stroke-width="2" stroke-dasharray="5,2" d="M306.06,-559.132C337.671,-557.296 391.72,-550.866 432,-528.818 466.017,-510.197 495.525,-475.841 513.038,-452.419"/>
<polygon fill="black" stroke="black" stroke-width="2" points="516.088,-454.177 519.147,-444.034 510.43,-450.055 516.088,-454.177"/>
</g>
<!-- 9&#45;&gt;T1 -->
<g id="edge11" class="edge"><title>9&#45;&gt;T1</title>
<path fill="none" stroke="black" stroke-width="2" stroke-dasharray="5,2" d="M422.476,-458.091C425.83,-454.902 429.189,-451.39 432,-447.818 470.056,-399.458 502.095,-334.43 518.41,-298.493"/>
<polygon fill="black" stroke="black" stroke-width="2" points="521.694,-299.724 522.587,-289.166 515.306,-296.863 521.694,-299.724"/>
</g>
<!-- 9&#45;&gt;T2 -->
<g id="edge12" class="edge"><title>9&#45;&gt;T2</title>
<path fill="none" stroke="black" stroke-width="2" stroke-dasharray="5,2" d="M429.323,-463.542C448.462,-456.751 475.786,-447.055 497.141,-439.477"/>
<polygon fill="black" stroke="black" stroke-width="2" points="498.527,-442.699 506.781,-436.057 496.186,-436.102 498.527,-442.699"/>
</g>
<!-- 10&#45;&gt;T2 -->
<g id="edge13" class="edge"><title>10&#45;&gt;T2</title>
<path fill="none" stroke="black" stroke-width="2" stroke-dasharray="5,2" d="M302.616,-480.836C332.725,-491.52 387.365,-506.275 432,-492.818 460.436,-484.245 488.199,-464.426 506.873,-448.91"/>
<polygon fill="black" stroke="black" stroke-width="2" points="509.212,-451.514 514.538,-442.355 504.663,-446.194 509.212,-451.514"/>
</g>
<!-- 13&#45;&gt;T1 -->
<g id="edge14" class="edge"><title>13&#45;&gt;T1</title>
<path fill="none" stroke="black" stroke-width="2" stroke-dasharray="5,2" d="M430.795,-248.617C449.296,-252.943 474.812,-258.911 495.332,-263.71"/>
<polygon fill="black" stroke="black" stroke-width="2" points="494.713,-267.159 505.248,-266.029 496.308,-260.343 494.713,-267.159"/>
</g>
<!-- 2 -->
<g id="node8" class="node"><title>2</title>
<ellipse fill="none" stroke="black" stroke-width="2" cx="153" cy="-346.818" rx="27" ry="18"/>
<text text-anchor="middle" x="153" y="-343.118" font-family="Times,serif" font-size="14.00">2</text>
</g>
<!-- 2&#45;&gt;3 -->
<g id="edge15" class="edge"><title>2&#45;&gt;3</title>
<path fill="none" stroke="black" stroke-width="2" stroke-dasharray="5,2" d="M168.182,-361.856C172.225,-366.483 176.483,-371.708 180,-376.818 216.143,-429.324 249.124,-496.631 266.059,-533.224"/>
<polygon fill="black" stroke="black" stroke-width="2" points="263.05,-535.06 270.399,-542.692 269.414,-532.143 263.05,-535.06"/>
</g>
<!-- 2&#45;&gt;T1 -->
<g id="edge16" class="edge"><title>2&#45;&gt;T1</title>
<path fill="none" stroke="black" stroke-width="2" stroke-dasharray="5,2" d="M179.665,-343.808C209.977,-340.09 261.863,-333.216 306,-324.818 373.783,-311.92 452.026,-292.311 495.787,-280.911"/>
<polygon fill="black" stroke="black" stroke-width="2" points="496.837,-284.254 505.624,-278.335 495.064,-277.482 496.837,-284.254"/>
</g>
<!-- 2&#45;&gt;T2 -->
<g id="edge17" class="edge"><title>2&#45;&gt;T2</title>
<path fill="none" stroke="black" stroke-width="2" stroke-dasharray="5,2" d="M178.809,-352.713C220.068,-362.463 305.435,-382.399 378,-397.818 418.067,-406.331 464.252,-415.332 495.099,-421.227"/>
<polygon fill="black" stroke="black" stroke-width="2" points="494.462,-424.669 504.941,-423.102 495.772,-417.793 494.462,-424.669"/>
</g>
<!-- 8 -->
<g id="node9" class="node"><title>8</title>
<ellipse fill="none" stroke="black" stroke-width="2" cx="279" cy="-302.818" rx="27" ry="18"/>
<text text-anchor="middle" x="279" y="-299.118" font-family="Times,serif" font-size="14.00">8</text>
</g>
<!-- 2&#45;&gt;8 -->
<g id="edge18" class="edge"><title>2&#45;&gt;8</title>
<path fill="none" stroke="#33007f" stroke-width="2" d="M177.323,-338.542C196.462,-331.751 223.786,-322.055 245.141,-314.477"/>
<polygon fill="#33007f" stroke="#33007f" stroke-width="2" points="246.527,-317.699 254.781,-311.057 244.186,-311.102 246.527,-317.699"/>
</g>
<!-- 8&#45;&gt;13 -->
<g id="edge19" class="edge"><title>8&#45;&gt;13</title>
<path fill="none" stroke="#00657f" stroke-width="2" d="M301.316,-292.503C321.19,-282.887 351.048,-268.44 373.452,-257.599"/>
<polygon fill="#00657f" stroke="#00657f" stroke-width="2" points="375.07,-260.704 382.547,-253.198 372.021,-254.403 375.07,-260.704"/>
</g>
<!-- 8&#45;&gt;T1 -->
<g id="edge20" class="edge"><title>8&#45;&gt;T1</title>
<path fill="none" stroke="black" stroke-width="2" stroke-dasharray="5,2" d="M305.813,-299.617C350.654,-294.057 443.023,-282.603 494.089,-276.271"/>
<polygon fill="black" stroke="black" stroke-width="2" points="494.834,-279.705 504.328,-275.001 493.973,-272.758 494.834,-279.705"/>
</g>
<!-- 8&#45;&gt;T2 -->
<g id="edge21" class="edge"><title>8&#45;&gt;T2</title>
<path fill="none" stroke="black" stroke-width="2" stroke-dasharray="5,2" d="M301.315,-313.475C345.779,-335.707 448.54,-387.087 499.794,-412.715"/>
<polygon fill="black" stroke="black" stroke-width="2" points="498.23,-415.845 508.739,-417.187 501.36,-409.584 498.23,-415.845"/>
</g>
<!-- 4 -->
<g id="node10" class="node"><title>4</title>
<ellipse fill="none" stroke="black" stroke-width="2" cx="153" cy="-302.818" rx="27" ry="18"/>
<text text-anchor="middle" x="153" y="-299.118" font-family="Times,serif" font-size="14.00">4</text>
</g>
<!-- 4&#45;&gt;9 -->
<g id="edge22" class="edge"><title>4&#45;&gt;9</title>
<path fill="none" stroke="#cb007f" stroke-width="2" d="M172.791,-315.52C216.604,-345.138 325.684,-418.876 376.782,-453.418"/>
<polygon fill="#cb007f" stroke="#cb007f" stroke-width="2" points="375.088,-456.497 385.332,-459.198 379.008,-450.698 375.088,-456.497"/>
</g>
<!-- 4&#45;&gt;13 -->
<g id="edge23" class="edge"><title>4&#45;&gt;13</title>
<path fill="none" stroke="#7f0000" stroke-width="2" d="M172.985,-290.493C192.093,-278.788 222.834,-261.825 252,-253.818 290.457,-243.259 336.321,-241.321 367.539,-241.512"/>
<polygon fill="#7f0000" stroke="#7f0000" stroke-width="2" points="367.886,-245.017 377.934,-241.658 367.984,-238.018 367.886,-245.017"/>
</g>
<!-- 4&#45;&gt;T1 -->
<g id="edge24" class="edge"><title>4&#45;&gt;T1</title>
<path fill="none" stroke="black" stroke-width="2" stroke-dasharray="5,2" d="M178.365,-296.352C198.071,-291.426 226.617,-284.969 252,-281.818 338.089,-271.129 440.235,-270.517 493.52,-271.103"/>
<polygon fill="black" stroke="black" stroke-width="2" points="493.771,-274.606 503.816,-271.238 493.863,-267.607 493.771,-274.606"/>
</g>
<!-- 4&#45;&gt;T2 -->
<g id="edge25" class="edge"><title>4&#45;&gt;T2</title>
<path fill="none" stroke="black" stroke-width="2" stroke-dasharray="5,2" d="M177.52,-310.637C242.012,-332.077 421.807,-391.849 496.648,-416.73"/>
<polygon fill="black" stroke="black" stroke-width="2" points="495.895,-420.168 506.488,-420.001 498.103,-413.525 495.895,-420.168"/>
</g>
<!-- 4&#45;&gt;8 -->
<g id="edge26" class="edge"><title>4&#45;&gt;8</title>
<path fill="none" stroke="black" stroke-width="2" stroke-dasharray="5,2" d="M179.994,-300.946C197.934,-300.518 222.027,-300.453 241.835,-300.751"/>
<polygon fill="black" stroke="black" stroke-width="2" points="241.974,-304.254 252.04,-300.947 242.109,-297.256 241.974,-304.254"/>
</g>
<!-- 4&#45;&gt;8 -->
<g id="edge27" class="edge"><title>4&#45;&gt;8</title>
<path fill="none" stroke="#33007f" stroke-width="2" d="M179.994,-305.313C197.934,-305.884 222.027,-305.97 241.835,-305.573"/>
<polygon fill="#33007f" stroke="#33007f" stroke-width="2" points="242.133,-309.067 252.04,-305.312 241.953,-302.069 242.133,-309.067"/>
</g>
<!-- 5 -->
<g id="node11" class="node"><title>5</title>
<ellipse fill="none" stroke="black" stroke-width="2" cx="153" cy="-397.818" rx="27" ry="18"/>
<text text-anchor="middle" x="153" y="-394.118" font-family="Times,serif" font-size="14.00">5</text>
</g>
<!-- 5&#45;&gt;9 -->
<g id="edge28" class="edge"><title>5&#45;&gt;9</title>
<path fill="none" stroke="#33007f" stroke-width="2" d="M176.77,-406.621C196.506,-414.09 225.915,-424.832 252,-432.818 291.905,-445.035 338.477,-456.595 369.45,-463.91"/>
<polygon fill="#33007f" stroke="#33007f" stroke-width="2" points="368.789,-467.35 379.324,-466.223 370.386,-460.534 368.789,-467.35"/>
</g>
<!-- 5&#45;&gt;10 -->
<g id="edge29" class="edge"><title>5&#45;&gt;10</title>
<path fill="none" stroke="#7f9900" stroke-width="2" d="M175.035,-408.632C195.897,-420.459 227.959,-439.539 250.758,-453.66"/>
<polygon fill="#7f9900" stroke="#7f9900" stroke-width="2" points="248.963,-456.666 259.3,-458.992 252.67,-450.728 248.963,-456.666"/>
</g>
<!-- 5&#45;&gt;10 -->
<g id="edge30" class="edge"><title>5&#45;&gt;10</title>
<path fill="none" stroke="#cb007f" stroke-width="2" d="M172.031,-410.768C191.836,-423.497 223.976,-442.82 247.674,-456.34"/>
<polygon fill="#cb007f" stroke="#cb007f" stroke-width="2" points="246.188,-459.521 256.616,-461.389 249.629,-453.425 246.188,-459.521"/>
</g>
<!-- 5&#45;&gt;13 -->
<g id="edge31" class="edge"><title>5&#45;&gt;13</title>
<path fill="none" stroke="#7f0000" stroke-width="2" d="M175.279,-387.594C205.502,-374.442 262.07,-350.114 306,-321.818 332.926,-304.474 360.651,-280.612 379.71,-263.638"/>
<polygon fill="#7f0000" stroke="#7f0000" stroke-width="2" points="382.204,-266.103 387.319,-256.825 377.535,-260.888 382.204,-266.103"/>
</g>
<!-- 5&#45;&gt;13 -->
<g id="edge32" class="edge"><title>5&#45;&gt;13</title>
<path fill="none" stroke="#327f00" stroke-width="2" d="M178.146,-391.187C208.976,-379.939 263.423,-356.243 306,-328.818 334.849,-310.235 364.616,-284.17 383.658,-265.567"/>
<polygon fill="#327f00" stroke="#327f00" stroke-width="2" points="386.288,-267.887 390.887,-258.342 381.34,-262.935 386.288,-267.887"/>
</g>
<!-- 5&#45;&gt;T1 -->
<g id="edge33" class="edge"><title>5&#45;&gt;T1</title>
<path fill="none" stroke="black" stroke-width="2" stroke-dasharray="5,2" d="M177.904,-390.424C226.14,-375.428 338.497,-340.113 432,-307.818 454.03,-300.209 478.654,-291.161 497.708,-284.039"/>
<polygon fill="black" stroke="black" stroke-width="2" points="498.987,-287.298 507.121,-280.509 496.529,-280.744 498.987,-287.298"/>
</g>
<!-- 5&#45;&gt;T2 -->
<g id="edge34" class="edge"><title>5&#45;&gt;T2</title>
<path fill="none" stroke="black" stroke-width="2" stroke-dasharray="5,2" d="M178.385,-403.964C198.103,-408.65 226.653,-414.796 252,-417.818 338.14,-428.085 440.265,-428.867 493.534,-428.42"/>
<polygon fill="black" stroke="black" stroke-width="2" points="493.864,-431.917 503.827,-428.313 493.791,-424.917 493.864,-431.917"/>
</g>
<!-- 5&#45;&gt;8 -->
<g id="edge35" class="edge"><title>5&#45;&gt;8</title>
<path fill="none" stroke="black" stroke-width="2" stroke-dasharray="5,2" d="M171.503,-384.408C192.643,-368.212 228.371,-340.84 252.556,-322.311"/>
<polygon fill="black" stroke="black" stroke-width="2" points="254.776,-325.019 260.586,-316.159 250.519,-319.462 254.776,-325.019"/>
</g>
<!-- 6 -->
<g id="node12" class="node"><title>6</title>
<ellipse fill="none" stroke="black" stroke-width="2" cx="153" cy="-243.818" rx="27" ry="18"/>
<text text-anchor="middle" x="153" y="-240.118" font-family="Times,serif" font-size="14.00">6</text>
</g>
<!-- 6&#45;&gt;13 -->
<g id="edge36" class="edge"><title>6&#45;&gt;13</title>
<path fill="none" stroke="#7f0000" stroke-width="2" d="M180.191,-242.118C199.922,-240.926 227.646,-239.438 252,-238.818 291.54,-237.81 336.865,-239.352 367.658,-240.804"/>
<polygon fill="#7f0000" stroke="#7f0000" stroke-width="2" points="367.751,-244.313 377.911,-241.31 368.096,-237.322 367.751,-244.313"/>
</g>
<!-- 6&#45;&gt;T1 -->
<g id="edge37" class="edge"><title>6&#45;&gt;T1</title>
<path fill="none" stroke="black" stroke-width="2" stroke-dasharray="5,2" d="M178.195,-236.907C226.954,-224.067 340.206,-199.754 432,-221.818 457.536,-227.955 483.912,-241.924 502.86,-253.541"/>
<polygon fill="black" stroke="black" stroke-width="2" points="501.203,-256.634 511.528,-259.01 504.938,-250.714 501.203,-256.634"/>
</g>
<!-- 6&#45;&gt;T2 -->
<g id="edge38" class="edge"><title>6&#45;&gt;T2</title>
<path fill="none" stroke="black" stroke-width="2" stroke-dasharray="5,2" d="M179.392,-248.008C210.108,-253.564 263.041,-264.706 306,-281.818 365.716,-305.604 378.346,-317.42 432,-352.818 458.015,-369.981 486.11,-391.856 505.519,-407.546"/>
<polygon fill="black" stroke="black" stroke-width="2" points="503.566,-410.47 513.531,-414.07 507.986,-405.042 503.566,-410.47"/>
</g>
<!-- 6&#45;&gt;8 -->
<g id="edge39" class="edge"><title>6&#45;&gt;8</title>
<path fill="none" stroke="black" stroke-width="2" stroke-dasharray="5,2" d="M176.744,-252.851C196.964,-261.914 226.648,-275.985 248.653,-286.908"/>
<polygon fill="black" stroke="black" stroke-width="2" points="247.354,-290.172 257.862,-291.524 250.49,-283.914 247.354,-290.172"/>
</g>
<!-- 6&#45;&gt;8 -->
<g id="edge40" class="edge"><title>6&#45;&gt;8</title>
<path fill="none" stroke="#cb007f" stroke-width="2" d="M173.648,-255.428C193.008,-265.462 222.923,-279.831 245.767,-290.15"/>
<polygon fill="#cb007f" stroke="#cb007f" stroke-width="2" points="244.515,-293.424 255.074,-294.3 247.366,-287.03 244.515,-293.424"/>
</g>
<!-- 12 -->
<g id="node13" class="node"><title>12</title>
<ellipse fill="none" stroke="black" stroke-width="2" cx="279" cy="-169.818" rx="27" ry="18"/>
<text text-anchor="middle" x="279" y="-166.118" font-family="Times,serif" font-size="14.00">12</text>
</g>
<!-- 6&#45;&gt;12 -->
<g id="edge41" class="edge"><title>6&#45;&gt;12</title>
<path fill="none" stroke="#7f9900" stroke-width="2" d="M172.564,-231.078C192.605,-218.446 224.813,-199.128 248.364,-185.552"/>
<polygon fill="#7f9900" stroke="#7f9900" stroke-width="2" points="250.293,-188.481 257.236,-180.478 246.818,-182.404 250.293,-188.481"/>
</g>
<!-- 6&#45;&gt;12 -->
<g id="edge42" class="edge"><title>6&#45;&gt;12</title>
<path fill="none" stroke="#33007f" stroke-width="2" d="M175.316,-233.426C196.345,-221.703 228.554,-202.544 251.281,-188.281"/>
<polygon fill="#33007f" stroke="#33007f" stroke-width="2" points="253.213,-191.2 259.782,-182.888 249.463,-185.289 253.213,-191.2"/>
</g>
<!-- 12&#45;&gt;13 -->
<g id="edge43" class="edge"><title>12&#45;&gt;13</title>
<path fill="none" stroke="#00657f" stroke-width="2" d="M299.923,-181.546C320.351,-193.573 352.318,-212.392 375.436,-226.002"/>
<polygon fill="#00657f" stroke="#00657f" stroke-width="2" points="373.733,-229.061 384.127,-231.118 377.285,-223.029 373.733,-229.061"/>
</g>
<!-- 12&#45;&gt;T1 -->
<g id="edge44" class="edge"><title>12&#45;&gt;T1</title>
<path fill="none" stroke="black" stroke-width="2" stroke-dasharray="5,2" d="M305.563,-173.796C336.448,-179.18 389.547,-190.303 432,-208.818 458.367,-220.317 485.684,-238.483 504.757,-252.359"/>
<polygon fill="black" stroke="black" stroke-width="2" points="502.788,-255.256 512.907,-258.394 506.953,-249.631 502.788,-255.256"/>
</g>
<!-- 7 -->
<g id="node14" class="node"><title>7</title>
<ellipse fill="none" stroke="black" stroke-width="2" cx="153" cy="-169.818" rx="27" ry="18"/>
<text text-anchor="middle" x="153" y="-166.118" font-family="Times,serif" font-size="14.00">7</text>
</g>
<!-- 7&#45;&gt;13 -->
<g id="edge45" class="edge"><title>7&#45;&gt;13</title>
<path fill="none" stroke="#00657f" stroke-width="2" d="M177.971,-176.817C222.77,-189.898 319.278,-218.079 370.492,-233.033"/>
<polygon fill="#00657f" stroke="#00657f" stroke-width="2" points="369.521,-236.396 380.102,-235.839 371.483,-229.677 369.521,-236.396"/>
</g>
<!-- 7&#45;&gt;T1 -->
<g id="edge46" class="edge"><title>7&#45;&gt;T1</title>
<path fill="none" stroke="black" stroke-width="2" stroke-dasharray="5,2" d="M175.087,-159.398C204.381,-146.229 259.083,-126.352 306,-135.818 365.553,-147.833 380.221,-157.04 432,-188.818 460.433,-206.267 489.107,-231.673 508.027,-249.773"/>
<polygon fill="black" stroke="black" stroke-width="2" points="505.897,-252.583 515.51,-257.039 510.774,-247.561 505.897,-252.583"/>
</g>
<!-- 7&#45;&gt;T2 -->
<g id="edge47" class="edge"><title>7&#45;&gt;T2</title>
<path fill="none" stroke="black" stroke-width="2" stroke-dasharray="5,2" d="M178.336,-163.104C198.027,-158.037 226.564,-151.512 252,-148.818 337.848,-139.723 373.48,-158.351 432,-221.818 481.232,-275.211 510.218,-357.814 522.701,-400.382"/>
<polygon fill="black" stroke="black" stroke-width="2" points="519.351,-401.396 525.454,-410.056 526.083,-399.48 519.351,-401.396"/>
</g>
<!-- 7&#45;&gt;12 -->
<g id="edge48" class="edge"><title>7&#45;&gt;12</title>
<path fill="none" stroke="#33007f" stroke-width="2" d="M180.297,-169.818C198.135,-169.818 221.953,-169.818 241.607,-169.818"/>
<polygon fill="#33007f" stroke="#33007f" stroke-width="2" points="241.741,-173.318 251.741,-169.818 241.741,-166.318 241.741,-173.318"/>
</g>
<!-- T3 -->
<g id="node15" class="node"><title>T3</title>
<ellipse fill="none" stroke="black" stroke-width="2" cx="279" cy="-96.8176" rx="27" ry="18"/>
<text text-anchor="middle" x="279" y="-93.1176" font-family="Times,serif" font-size="14.00">T3</text>
</g>
<!-- 7&#45;&gt;T3 -->
<g id="edge49" class="edge"><title>7&#45;&gt;T3</title>
<path fill="none" stroke="black" stroke-width="2" stroke-dasharray="5,2" d="M173.923,-158.089C194.351,-146.063 226.318,-127.243 249.436,-113.634"/>
<polygon fill="black" stroke="black" stroke-width="2" points="251.285,-116.607 258.127,-108.517 247.733,-110.574 251.285,-116.607"/>
</g>
<!-- 11 -->
<g id="node16" class="node"><title>11</title>
<ellipse fill="none" stroke="black" stroke-width="2" cx="153" cy="-61.8176" rx="27" ry="18"/>
<text text-anchor="middle" x="153" y="-58.1176" font-family="Times,serif" font-size="14.00">11</text>
</g>
<!-- 11&#45;&gt;13 -->
<g id="edge50" class="edge"><title>11&#45;&gt;13</title>
<path fill="none" stroke="#7f9900" stroke-width="2" d="M176.912,-53.1774C208.577,-46.6176 266.297,-43.5934 306,-68.8176 358.727,-102.316 386.543,-175.174 397.831,-215.279"/>
<polygon fill="#7f9900" stroke="#7f9900" stroke-width="2" points="394.454,-216.198 400.409,-224.96 401.218,-214.396 394.454,-216.198"/>
</g>
<!-- 11&#45;&gt;13 -->
<g id="edge51" class="edge"><title>11&#45;&gt;13</title>
<path fill="none" stroke="#327f00" stroke-width="2" d="M179.37,-57.5254C211.492,-53.4824 267.303,-51.2329 306,-75.8176 356.705,-108.031 384.373,-176.645 396.459,-215.145"/>
<polygon fill="#327f00" stroke="#327f00" stroke-width="2" points="393.235,-216.577 399.461,-225.15 399.94,-214.566 393.235,-216.577"/>
</g>
<!-- 11&#45;&gt;13 -->
<g id="edge52" class="edge"><title>11&#45;&gt;13</title>
<path fill="none" stroke="#00657f" stroke-width="2" d="M180.211,-62.3161C212.459,-60.4454 267.639,-58.4461 306,-82.8176 354.76,-113.795 382.216,-178.434 394.999,-215.467"/>
<polygon fill="#00657f" stroke="#00657f" stroke-width="2" points="391.737,-216.75 398.221,-225.13 398.378,-214.536 391.737,-216.75"/>
</g>
<!-- 11&#45;&gt;T1 -->
<g id="edge53" class="edge"><title>11&#45;&gt;T1</title>
<path fill="none" stroke="black" stroke-width="2" stroke-dasharray="5,2" d="M178.776,-55.9269C209.562,-49.7748 263.25,-42.9151 306,-57.8176 404.762,-92.2463 482.736,-197.856 514.515,-246.637"/>
<polygon fill="black" stroke="black" stroke-width="2" points="511.737,-248.791 520.076,-255.326 517.633,-245.017 511.737,-248.791"/>
</g>
<!-- 11&#45;&gt;12 -->
<g id="edge54" class="edge"><title>11&#45;&gt;12</title>
<path fill="none" stroke="#cb007f" stroke-width="2" d="M170.211,-75.9367C191.562,-94.5327 229.281,-127.385 253.959,-148.879"/>
<polygon fill="#cb007f" stroke="#cb007f" stroke-width="2" points="251.946,-151.766 261.785,-155.695 256.543,-146.488 251.946,-151.766"/>
</g>
<!-- 11&#45;&gt;T3 -->
<g id="edge55" class="edge"><title>11&#45;&gt;T3</title>
<path fill="none" stroke="black" stroke-width="2" stroke-dasharray="5,2" d="M178.203,-68.6491C196.979,-73.9489 223.235,-81.3598 244.103,-87.2499"/>
<polygon fill="black" stroke="black" stroke-width="2" points="243.283,-90.6553 253.858,-90.0034 245.185,-83.9185 243.283,-90.6553"/>
</g>
<!-- S -->
<g id="node17" class="node"><title>S</title>
<ellipse fill="none" stroke="black" stroke-width="2" cx="27" cy="-272.818" rx="27" ry="18"/>
<text text-anchor="middle" x="27" y="-269.118" font-family="Times,serif" font-size="14.00">S</text>
</g>
<!-- S&#45;&gt;1 -->
<g id="edge56" class="edge"><title>S&#45;&gt;1</title>
<path fill="none" stroke="#cc7f00" stroke-width="2" d="M36.9178,-289.718C58.3147,-330.269 112.684,-433.307 138.279,-481.815"/>
<polygon fill="#cc7f00" stroke="#cc7f00" stroke-width="2" points="135.234,-483.543 142.996,-490.754 141.425,-480.277 135.234,-483.543"/>
</g>
<!-- S&#45;&gt;3 -->
<g id="edge57" class="edge"><title>S&#45;&gt;3</title>
<path fill="none" stroke="#33007f" stroke-width="2" d="M29.1206,-290.797C33.0851,-338.01 50.6238,-466.242 126,-529.818 158.189,-556.968 207.855,-562.13 241.583,-562.044"/>
<polygon fill="#33007f" stroke="#33007f" stroke-width="2" points="241.998,-565.537 251.931,-561.853 241.868,-558.539 241.998,-565.537"/>
</g>
<!-- S&#45;&gt;T1 -->
<g id="edge58" class="edge"><title>S&#45;&gt;T1</title>
<path fill="none" stroke="black" stroke-width="2" stroke-dasharray="5,2" d="M30.2074,-244.663C35.9114,-193.502 56.0401,-86.2886 126,-39.8176 241.234,36.7265 327.282,-6.41869 432,-96.8176 483.399,-141.189 513.356,-219.501 524.714,-254.302"/>
<polygon fill="black" stroke="black" stroke-width="2" points="26.7176,-244.386 29.1964,-254.687 33.6823,-245.088 26.7176,-244.386"/>
</g>
<!-- S&#45;&gt;T2 -->
<g id="edge59" class="edge"><title>S&#45;&gt;T2</title>
<path fill="none" stroke="black" stroke-width="2" stroke-dasharray="5,2" d="M30.085,-301.177C35.6574,-356.306 55.6799,-478.501 126,-546.818 168.239,-587.853 193.837,-578.593 252,-587.818 331.896,-600.49 364.045,-604.705 432,-560.818 477.055,-531.72 508.579,-474.165 522.299,-445.254"/>
<polygon fill="black" stroke="black" stroke-width="2" points="33.5575,-300.716 29.1526,-291.081 26.5872,-301.36 33.5575,-300.716"/>
</g>
<!-- S&#45;&gt;2 -->
<g id="edge60" class="edge"><title>S&#45;&gt;2</title>
<path fill="none" stroke="#cb007f" stroke-width="2" d="M47.6482,-284.543C68.1459,-296.776 100.474,-316.068 123.717,-329.939"/>
<polygon fill="#cb007f" stroke="#cb007f" stroke-width="2" points="122.063,-333.028 132.444,-335.147 125.65,-327.017 122.063,-333.028"/>
</g>
<!-- S&#45;&gt;4 -->
<g id="edge61" class="edge"><title>S&#45;&gt;4</title>
<path fill="none" stroke="#7f9900" stroke-width="2" d="M52.4984,-278.745C70.9746,-283.215 96.568,-289.407 117.171,-294.391"/>
<polygon fill="#7f9900" stroke="#7f9900" stroke-width="2" points="116.585,-297.85 127.128,-296.8 118.232,-291.047 116.585,-297.85"/>
</g>
<!-- S&#45;&gt;5 -->
<g id="edge62" class="edge"><title>S&#45;&gt;5</title>
<path fill="none" stroke="#00ff7f" stroke-width="2" d="M42.7114,-287.648C64.3389,-309.45 104.868,-350.305 130.03,-375.67"/>
<polygon fill="#00ff7f" stroke="#00ff7f" stroke-width="2" points="127.78,-378.372 137.308,-383.007 132.75,-373.443 127.78,-378.372"/>
</g>
<!-- S&#45;&gt;6 -->
<g id="edge63" class="edge"><title>S&#45;&gt;6</title>
<path fill="none" stroke="#327f00" stroke-width="2" d="M52.7952,-267.019C71.2965,-262.692 96.8117,-256.725 117.332,-251.925"/>
<polygon fill="#327f00" stroke="#327f00" stroke-width="2" points="118.308,-255.292 127.248,-249.606 116.713,-248.476 118.308,-255.292"/>
</g>
<!-- S&#45;&gt;7 -->
<g id="edge64" class="edge"><title>S&#45;&gt;7</title>
<path fill="none" stroke="#7f0000" stroke-width="2" d="M43.454,-258.433C64.2191,-240.369 101.4,-209.38 126.383,-189.234"/>
<polygon fill="#7f0000" stroke="#7f0000" stroke-width="2" points="128.732,-191.836 134.347,-182.851 124.355,-186.374 128.732,-191.836"/>
</g>
<!-- S&#45;&gt;7 -->
<g id="edge65" class="edge"><title>S&#45;&gt;7</title>
<path fill="none" stroke="#00657f" stroke-width="2" d="M46.0307,-260.031C67.9974,-242.793 105.136,-212.01 129.102,-191.227"/>
<polygon fill="#00657f" stroke="#00657f" stroke-width="2" points="131.461,-193.814 136.684,-184.596 126.853,-188.545 131.461,-193.814"/>
</g>
<!-- S&#45;&gt;T3 -->
<g id="edge66" class="edge"><title>S&#45;&gt;T3</title>
<path fill="none" stroke="black" stroke-width="2" stroke-dasharray="5,2" d="M42.1619,-246.771C58.751,-218.571 88.7613,-174.112 126,-147.818 165.223,-120.123 220.601,-106.595 252.555,-100.716"/>
<polygon fill="black" stroke="black" stroke-width="2" points="39.0017,-245.246 37.0595,-255.661 45.0729,-248.731 39.0017,-245.246"/>
</g>
<!-- S&#45;&gt;11 -->
<g id="edge67" class="edge"><title>S&#45;&gt;11</title>
<path fill="none" stroke="#007f65" stroke-width="2" d="M37.7301,-256.261C59.3174,-219.528 111.339,-131.006 137.072,-87.2194"/>
<polygon fill="#007f65" stroke="#007f65" stroke-width="2" points="140.094,-88.9843 142.144,-78.5895 134.059,-85.4376 140.094,-88.9843"/>
</g>
</g>
</svg>
