<?xml version="1.0" encoding="UTF-8" standalone="no"?>
<!DOCTYPE svg PUBLIC "-//W3C//DTD SVG 1.1//EN"
 "http://www.w3.org/Graphics/SVG/1.1/DTD/svg11.dtd">
<!-- Generated by graphviz version 2.36.0 (20140111.2315)
 -->
<!-- Title: %3 Pages: 1 -->
<svg width="436pt" height="96pt"
 viewBox="0.00 0.00 436.00 96.00" xmlns="http://www.w3.org/2000/svg" xmlns:xlink="http://www.w3.org/1999/xlink">
<g id="graph0" class="graph" transform="scale(1 1) rotate(0) translate(4 92)">
<title>%3</title>
<polygon fill="white" stroke="none" points="-4,4 -4,-92 432,-92 432,4 -4,4"/>
<!-- G1S -->
<g id="node1" class="node"><title>G1S</title>
<ellipse fill="none" stroke="black" stroke-width="2" cx="27" cy="-26" rx="26.7961" ry="26.7961"/>
<text text-anchor="middle" x="27" y="-22.3" font-family="Times,serif" font-size="14.00">G1S</text>
</g>
<!-- G11 -->
<g id="node2" class="node"><title>G11</title>
<ellipse fill="none" stroke="black" stroke-width="2" cx="152" cy="-26" rx="25.9954" ry="25.9954"/>
<text text-anchor="middle" x="152" y="-22.3" font-family="Times,serif" font-size="14.00">G11</text>
</g>
<!-- G1S&#45;&gt;G11 -->
<g id="edge1" class="edge"><title>G1S&#45;&gt;G11</title>
<path fill="none" stroke="black" stroke-width="4" d="M53.7848,-24.1285C71.6986,-23.6976 95.7993,-23.6346 115.522,-23.9395"/>
<polygon fill="black" stroke="black" stroke-width="4" points="115.603,-27.4417 125.67,-24.1396 115.741,-20.4431 115.603,-27.4417"/>
</g>
<!-- G1S&#45;&gt;G11 -->
<g id="edge2" class="edge"><title>G1S&#45;&gt;G11</title>
<path fill="none" stroke="#bf7f00" stroke-width="4" d="M53.7848,-28.4953C71.8181,-29.0737 96.1209,-29.1549 115.916,-28.7391"/>
<polygon fill="#bf7f00" stroke="#bf7f00" stroke-width="4" points="116.187,-32.2332 126.089,-28.4667 115.999,-25.2357 116.187,-32.2332"/>
</g>
<!-- G12 -->
<g id="node3" class="node"><title>G12</title>
<ellipse fill="none" stroke="black" stroke-width="2" cx="276" cy="-63" rx="25.9954" ry="25.9954"/>
<text text-anchor="middle" x="276" y="-59.3" font-family="Times,serif" font-size="14.00">G12</text>
</g>
<!-- G1S&#45;&gt;G12 -->
<g id="edge3" class="edge"><title>G1S&#45;&gt;G12</title>
<path fill="none" stroke="#3f007f" stroke-width="4" d="M52.2256,-34.5219C71.8533,-41.0352 100.361,-49.6169 126,-54 164.503,-60.5821 209.319,-62.5334 239.667,-63.0251"/>
<polygon fill="#3f007f" stroke="#3f007f" stroke-width="4" points="239.724,-66.5259 249.764,-63.1433 239.806,-59.5264 239.724,-66.5259"/>
</g>
<!-- G11&#45;&gt;G12 -->
<g id="edge4" class="edge"><title>G11&#45;&gt;G12</title>
<path fill="none" stroke="#003f7f" stroke-width="4" d="M177.103,-33.31C195.4,-38.8591 220.791,-46.5597 241.13,-52.7279"/>
<polygon fill="#003f7f" stroke="#003f7f" stroke-width="4" points="240.361,-56.1522 250.947,-55.7052 242.393,-49.4535 240.361,-56.1522"/>
</g>
<!-- G1T -->
<g id="node4" class="node"><title>G1T</title>
<ellipse fill="none" stroke="black" stroke-width="2" cx="401" cy="-44" rx="26.7961" ry="26.7961"/>
<text text-anchor="middle" x="401" y="-40.3" font-family="Times,serif" font-size="14.00">G1T</text>
</g>
<!-- G11&#45;&gt;G1T -->
<g id="edge5" class="edge"><title>G11&#45;&gt;G1T</title>
<path fill="none" stroke="black" stroke-width="4" d="M178.069,-26.978C207.699,-28.219 258.481,-30.6133 302,-34 322.621,-35.6047 345.629,-37.925 364.168,-39.9266"/>
<polygon fill="black" stroke="black" stroke-width="4" points="363.917,-43.42 374.238,-41.0298 364.679,-36.4616 363.917,-43.42"/>
</g>
<!-- G12&#45;&gt;G1T -->
<g id="edge6" class="edge"><title>G12&#45;&gt;G1T</title>
<path fill="none" stroke="black" stroke-width="4" d="M301.891,-59.1551C319.824,-56.3849 344.287,-52.6061 364.299,-49.5149"/>
<polygon fill="black" stroke="black" stroke-width="4" points="364.951,-52.9557 374.299,-47.97 363.882,-46.0377 364.951,-52.9557"/>
</g>
</g>
</svg>
