<?xml version="1.0" encoding="UTF-8" standalone="no"?>
<!DOCTYPE svg PUBLIC "-//W3C//DTD SVG 1.1//EN"
 "http://www.w3.org/Graphics/SVG/1.1/DTD/svg11.dtd">
<!-- Generated by graphviz version 2.36.0 (20140111.2315)
 -->
<!-- Title: %3 Pages: 1 -->
<svg width="566pt" height="527pt"
 viewBox="0.00 0.00 566.00 527.17" xmlns="http://www.w3.org/2000/svg" xmlns:xlink="http://www.w3.org/1999/xlink">
<g id="graph0" class="graph" transform="scale(1 1) rotate(0) translate(4 523.175)">
<title>%3</title>
<polygon fill="white" stroke="none" points="-4,4 -4,-523.175 562,-523.175 562,4 -4,4"/>
<!-- 1 -->
<g id="node1" class="node"><title>1</title>
<ellipse fill="none" stroke="black" stroke-width="2" cx="153" cy="-454.421" rx="27" ry="18"/>
<text text-anchor="middle" x="153" y="-450.721" font-family="Times,serif" font-size="14.00">1</text>
</g>
<!-- 8 -->
<g id="node2" class="node"><title>8</title>
<ellipse fill="none" stroke="black" stroke-width="2" cx="279" cy="-396.421" rx="27" ry="18"/>
<text text-anchor="middle" x="279" y="-392.721" font-family="Times,serif" font-size="14.00">8</text>
</g>
<!-- 1&#45;&gt;8 -->
<g id="edge1" class="edge"><title>1&#45;&gt;8</title>
<path fill="none" stroke="#7f0000" stroke-width="2" d="M174.199,-443.26C193.654,-433.556 223.389,-419.554 246.055,-409.367"/>
<polygon fill="#7f0000" stroke="#7f0000" stroke-width="2" points="247.573,-412.522 255.286,-405.258 244.727,-406.127 247.573,-412.522"/>
</g>
<!-- 1&#45;&gt;8 -->
<g id="edge2" class="edge"><title>1&#45;&gt;8</title>
<path fill="none" stroke="#00657f" stroke-width="2" d="M177.033,-446.042C197.288,-437.304 226.875,-423.53 248.789,-412.675"/>
<polygon fill="#00657f" stroke="#00657f" stroke-width="2" points="250.591,-415.687 257.959,-408.074 247.451,-409.431 250.591,-415.687"/>
</g>
<!-- 9 -->
<g id="node3" class="node"><title>9</title>
<ellipse fill="none" stroke="black" stroke-width="2" cx="279" cy="-454.421" rx="27" ry="18"/>
<text text-anchor="middle" x="279" y="-450.721" font-family="Times,serif" font-size="14.00">9</text>
</g>
<!-- 1&#45;&gt;9 -->
<g id="edge3" class="edge"><title>1&#45;&gt;9</title>
<path fill="none" stroke="#327f00" stroke-width="2" d="M179.994,-452.55C197.934,-452.122 222.027,-452.057 241.835,-452.355"/>
<polygon fill="#327f00" stroke="#327f00" stroke-width="2" points="241.974,-455.858 252.04,-452.551 242.109,-448.859 241.974,-455.858"/>
</g>
<!-- 1&#45;&gt;9 -->
<g id="edge4" class="edge"><title>1&#45;&gt;9</title>
<path fill="none" stroke="#33007f" stroke-width="2" d="M179.994,-456.917C197.934,-457.487 222.027,-457.574 241.835,-457.177"/>
<polygon fill="#33007f" stroke="#33007f" stroke-width="2" points="242.133,-460.67 252.04,-456.916 241.953,-453.673 242.133,-460.67"/>
</g>
<!-- 12 -->
<g id="node4" class="node"><title>12</title>
<ellipse fill="none" stroke="black" stroke-width="2" cx="405" cy="-242.421" rx="27" ry="18"/>
<text text-anchor="middle" x="405" y="-238.721" font-family="Times,serif" font-size="14.00">12</text>
</g>
<!-- 1&#45;&gt;12 -->
<g id="edge5" class="edge"><title>1&#45;&gt;12</title>
<path fill="none" stroke="#007f65" stroke-width="2" d="M174.636,-465.396C205.826,-480.316 265.614,-502.248 306,-475.421 342.047,-451.477 380.718,-326.134 396.575,-269.841"/>
<polygon fill="#007f65" stroke="#007f65" stroke-width="2" points="399.956,-270.746 399.265,-260.173 393.212,-268.869 399.956,-270.746"/>
</g>
<!-- T1 -->
<g id="node5" class="node"><title>T1</title>
<ellipse fill="none" stroke="black" stroke-width="2" cx="531" cy="-274.421" rx="27" ry="18"/>
<text text-anchor="middle" x="531" y="-270.721" font-family="Times,serif" font-size="14.00">T1</text>
</g>
<!-- 1&#45;&gt;T1 -->
<g id="edge6" class="edge"><title>1&#45;&gt;T1</title>
<path fill="none" stroke="black" stroke-width="2" stroke-dasharray="5,2" d="M172.835,-466.637C201.673,-483.765 258.43,-511.249 306,-496.421 408.355,-464.518 485.182,-351.536 515.65,-300.174"/>
<polygon fill="black" stroke="black" stroke-width="2" points="518.79,-301.738 520.795,-291.334 512.74,-298.216 518.79,-301.738"/>
</g>
<!-- T2 -->
<g id="node6" class="node"><title>T2</title>
<ellipse fill="none" stroke="black" stroke-width="2" cx="405" cy="-367.421" rx="27" ry="18"/>
<text text-anchor="middle" x="405" y="-363.721" font-family="Times,serif" font-size="14.00">T2</text>
</g>
<!-- 1&#45;&gt;T2 -->
<g id="edge7" class="edge"><title>1&#45;&gt;T2</title>
<path fill="none" stroke="black" stroke-width="2" stroke-dasharray="5,2" d="M173.624,-466.612C203.493,-483.485 261.579,-509.607 306,-488.421 346.774,-468.975 376.075,-423.357 391.507,-394.022"/>
<polygon fill="black" stroke="black" stroke-width="2" points="394.803,-395.261 396.205,-384.76 388.56,-392.095 394.803,-395.261"/>
</g>
<!-- 8&#45;&gt;T1 -->
<g id="edge8" class="edge"><title>8&#45;&gt;T1</title>
<path fill="none" stroke="black" stroke-width="2" stroke-dasharray="5,2" d="M305.18,-400.876C336.613,-405.185 391.206,-408.463 432,-388.421 470.556,-369.479 500.044,-327.769 516.187,-300.399"/>
<polygon fill="black" stroke="black" stroke-width="2" points="519.419,-301.797 521.333,-291.377 513.338,-298.329 519.419,-301.797"/>
</g>
<!-- 8&#45;&gt;T2 -->
<g id="edge9" class="edge"><title>8&#45;&gt;T2</title>
<path fill="none" stroke="black" stroke-width="2" stroke-dasharray="5,2" d="M304.795,-390.622C323.296,-386.296 348.812,-380.328 369.332,-375.529"/>
<polygon fill="black" stroke="black" stroke-width="2" points="370.308,-378.896 379.248,-373.21 368.713,-372.079 370.308,-378.896"/>
</g>
<!-- 9&#45;&gt;T2 -->
<g id="edge10" class="edge"><title>9&#45;&gt;T2</title>
<path fill="none" stroke="black" stroke-width="2" stroke-dasharray="5,2" d="M298.297,-441.584C319.177,-426.934 353.512,-402.844 377.361,-386.112"/>
<polygon fill="black" stroke="black" stroke-width="2" points="379.452,-388.92 385.628,-380.311 375.432,-383.189 379.452,-388.92"/>
</g>
<!-- 12&#45;&gt;T1 -->
<g id="edge11" class="edge"><title>12&#45;&gt;T1</title>
<path fill="none" stroke="black" stroke-width="2" stroke-dasharray="5,2" d="M430.498,-248.743C449.18,-253.565 475.139,-260.264 495.857,-265.61"/>
<polygon fill="black" stroke="black" stroke-width="2" points="494.995,-269.002 505.552,-268.112 496.744,-262.224 494.995,-269.002"/>
</g>
<!-- 2 -->
<g id="node7" class="node"><title>2</title>
<ellipse fill="none" stroke="black" stroke-width="2" cx="153" cy="-317.421" rx="27" ry="18"/>
<text text-anchor="middle" x="153" y="-313.721" font-family="Times,serif" font-size="14.00">2</text>
</g>
<!-- 2&#45;&gt;8 -->
<g id="edge12" class="edge"><title>2&#45;&gt;8</title>
<path fill="none" stroke="#00657f" stroke-width="2" d="M173.103,-329.592C193.705,-342.717 226.702,-363.739 250.183,-378.699"/>
<polygon fill="#00657f" stroke="#00657f" stroke-width="2" points="248.356,-381.685 258.671,-384.107 252.118,-375.782 248.356,-381.685"/>
</g>
<!-- 7 -->
<g id="node8" class="node"><title>7</title>
<ellipse fill="none" stroke="black" stroke-width="2" cx="279" cy="-274.421" rx="27" ry="18"/>
<text text-anchor="middle" x="279" y="-270.721" font-family="Times,serif" font-size="14.00">7</text>
</g>
<!-- 2&#45;&gt;7 -->
<g id="edge13" class="edge"><title>2&#45;&gt;7</title>
<path fill="none" stroke="#33007f" stroke-width="2" d="M177.323,-309.333C196.462,-302.697 223.786,-293.221 245.141,-285.816"/>
<polygon fill="#33007f" stroke="#33007f" stroke-width="2" points="246.48,-289.056 254.781,-282.473 244.186,-282.443 246.48,-289.056"/>
</g>
<!-- T5 -->
<g id="node9" class="node"><title>T5</title>
<ellipse fill="none" stroke="black" stroke-width="2" cx="279" cy="-317.421" rx="27" ry="18"/>
<text text-anchor="middle" x="279" y="-313.721" font-family="Times,serif" font-size="14.00">T5</text>
</g>
<!-- 2&#45;&gt;T5 -->
<g id="edge14" class="edge"><title>2&#45;&gt;T5</title>
<path fill="none" stroke="black" stroke-width="2" stroke-dasharray="5,2" d="M180.297,-317.421C198.135,-317.421 221.953,-317.421 241.607,-317.421"/>
<polygon fill="black" stroke="black" stroke-width="2" points="241.741,-320.921 251.741,-317.421 241.741,-313.921 241.741,-320.921"/>
</g>
<!-- 7&#45;&gt;12 -->
<g id="edge15" class="edge"><title>7&#45;&gt;12</title>
<path fill="none" stroke="#00657f" stroke-width="2" d="M304.498,-268.099C323.18,-263.278 349.139,-256.579 369.857,-251.232"/>
<polygon fill="#00657f" stroke="#00657f" stroke-width="2" points="370.744,-254.618 379.552,-248.73 368.995,-247.84 370.744,-254.618"/>
</g>
<!-- 7&#45;&gt;T1 -->
<g id="edge16" class="edge"><title>7&#45;&gt;T1</title>
<path fill="none" stroke="black" stroke-width="2" stroke-dasharray="5,2" d="M306.282,-274.421C351.108,-274.421 442.436,-274.421 493.452,-274.421"/>
<polygon fill="black" stroke="black" stroke-width="2" points="493.695,-277.921 503.695,-274.421 493.695,-270.921 493.695,-277.921"/>
</g>
<!-- 7&#45;&gt;T2 -->
<g id="edge17" class="edge"><title>7&#45;&gt;T2</title>
<path fill="none" stroke="black" stroke-width="2" stroke-dasharray="5,2" d="M297.503,-287.549C318.524,-303.314 353.968,-329.897 378.145,-348.03"/>
<polygon fill="black" stroke="black" stroke-width="2" points="376.084,-350.86 386.184,-354.06 380.284,-345.26 376.084,-350.86"/>
</g>
<!-- T5&#45;&gt;T1 -->
<g id="edge18" class="edge"><title>T5&#45;&gt;T1</title>
<path fill="none" stroke="black" stroke-width="2" stroke-dasharray="5,2" d="M305.347,-313.062C350.175,-305.351 443.525,-289.295 494.65,-280.501"/>
<polygon fill="black" stroke="black" stroke-width="2" points="495.324,-283.937 504.586,-278.793 494.137,-277.038 495.324,-283.937"/>
</g>
<!-- T5&#45;&gt;T2 -->
<g id="edge19" class="edge"><title>T5&#45;&gt;T2</title>
<path fill="none" stroke="black" stroke-width="2" stroke-dasharray="5,2" d="M302.455,-326.476C321.823,-334.285 350.025,-345.657 371.797,-354.436"/>
<polygon fill="black" stroke="black" stroke-width="2" points="370.709,-357.771 381.293,-358.265 373.327,-351.279 370.709,-357.771"/>
</g>
<!-- 3 -->
<g id="node10" class="node"><title>3</title>
<ellipse fill="none" stroke="black" stroke-width="2" cx="153" cy="-259.421" rx="27" ry="18"/>
<text text-anchor="middle" x="153" y="-255.721" font-family="Times,serif" font-size="14.00">3</text>
</g>
<!-- 3&#45;&gt;8 -->
<g id="edge20" class="edge"><title>3&#45;&gt;8</title>
<path fill="none" stroke="#cb007f" stroke-width="2" d="M167.744,-274.606C189.438,-298.574 231.76,-345.333 257.193,-373.433"/>
<polygon fill="#cb007f" stroke="#cb007f" stroke-width="2" points="254.889,-376.103 264.194,-381.168 260.079,-371.406 254.889,-376.103"/>
</g>
<!-- 3&#45;&gt;12 -->
<g id="edge21" class="edge"><title>3&#45;&gt;12</title>
<path fill="none" stroke="#7f0000" stroke-width="2" d="M179.813,-256.23C224.537,-252.177 316.543,-245.852 367.691,-243.248"/>
<polygon fill="#7f0000" stroke="#7f0000" stroke-width="2" points="368.134,-246.731 377.953,-242.751 367.795,-239.739 368.134,-246.731"/>
</g>
<!-- 3&#45;&gt;12 -->
<g id="edge22" class="edge"><title>3&#45;&gt;12</title>
<path fill="none" stroke="#00657f" stroke-width="2" d="M180.282,-259.563C225.342,-257.839 317.391,-251.662 368.248,-247.029"/>
<polygon fill="#00657f" stroke="#00657f" stroke-width="2" points="368.817,-250.491 378.443,-246.066 368.158,-243.522 368.817,-250.491"/>
</g>
<!-- 3&#45;&gt;7 -->
<g id="edge23" class="edge"><title>3&#45;&gt;7</title>
<path fill="none" stroke="#33007f" stroke-width="2" d="M179.693,-262.529C197.815,-264.722 222.328,-267.687 242.342,-270.108"/>
<polygon fill="#33007f" stroke="#33007f" stroke-width="2" points="241.992,-273.591 252.34,-271.317 242.833,-266.642 241.992,-273.591"/>
</g>
<!-- 3&#45;&gt;T5 -->
<g id="edge24" class="edge"><title>3&#45;&gt;T5</title>
<path fill="none" stroke="black" stroke-width="2" stroke-dasharray="5,2" d="M175.599,-269.524C195.304,-278.741 224.652,-292.468 246.884,-302.867"/>
<polygon fill="black" stroke="black" stroke-width="2" points="245.691,-306.173 256.232,-307.24 248.657,-299.832 245.691,-306.173"/>
</g>
<!-- 4 -->
<g id="node11" class="node"><title>4</title>
<ellipse fill="none" stroke="black" stroke-width="2" cx="153" cy="-367.421" rx="27" ry="18"/>
<text text-anchor="middle" x="153" y="-363.721" font-family="Times,serif" font-size="14.00">4</text>
</g>
<!-- 4&#45;&gt;8 -->
<g id="edge25" class="edge"><title>4&#45;&gt;8</title>
<path fill="none" stroke="#33007f" stroke-width="2" d="M178.795,-373.22C197.296,-377.547 222.812,-383.514 243.332,-388.314"/>
<polygon fill="#33007f" stroke="#33007f" stroke-width="2" points="242.713,-391.763 253.248,-390.632 244.308,-384.947 242.713,-391.763"/>
</g>
<!-- 4&#45;&gt;9 -->
<g id="edge26" class="edge"><title>4&#45;&gt;9</title>
<path fill="none" stroke="#7f9900" stroke-width="2" d="M173.375,-379.328C194.729,-393.621 229.158,-417.721 252.645,-434.776"/>
<polygon fill="#7f9900" stroke="#7f9900" stroke-width="2" points="250.62,-437.631 260.758,-440.709 254.753,-431.981 250.62,-437.631"/>
</g>
<!-- 4&#45;&gt;9 -->
<g id="edge27" class="edge"><title>4&#45;&gt;9</title>
<path fill="none" stroke="#cb007f" stroke-width="2" d="M170.723,-381.283C190.977,-396.486 225.404,-420.785 249.79,-437.191"/>
<polygon fill="#cb007f" stroke="#cb007f" stroke-width="2" points="248.013,-440.213 258.275,-442.847 251.895,-434.388 248.013,-440.213"/>
</g>
<!-- 4&#45;&gt;12 -->
<g id="edge28" class="edge"><title>4&#45;&gt;12</title>
<path fill="none" stroke="#7f0000" stroke-width="2" d="M179.956,-364.867C211.463,-362.463 265.41,-356.646 306,-335.421 338.234,-318.566 366.887,-287.654 384.759,-266.093"/>
<polygon fill="#7f0000" stroke="#7f0000" stroke-width="2" points="387.7,-268.025 391.29,-258.056 382.267,-263.61 387.7,-268.025"/>
</g>
<!-- 4&#45;&gt;12 -->
<g id="edge29" class="edge"><title>4&#45;&gt;12</title>
<path fill="none" stroke="#007f65" stroke-width="2" d="M179.956,-369.799C211.463,-369.463 265.41,-363.646 306,-342.421 340.248,-324.513 370.454,-290.736 387.981,-267.384"/>
<polygon fill="#007f65" stroke="#007f65" stroke-width="2" points="391.024,-269.15 394.06,-259 385.357,-265.042 391.024,-269.15"/>
</g>
<!-- 4&#45;&gt;T1 -->
<g id="edge30" class="edge"><title>4&#45;&gt;T1</title>
<path fill="none" stroke="black" stroke-width="2" stroke-dasharray="5,2" d="M172.472,-380.228C191.433,-392.533 222.286,-410.279 252,-417.421 298.66,-428.637 431.077,-400.952 432,-400.421 472.319,-377.233 501.894,-330.292 517.482,-300.71"/>
<polygon fill="black" stroke="black" stroke-width="2" points="520.618,-302.265 522.048,-291.767 514.383,-299.082 520.618,-302.265"/>
</g>
<!-- 4&#45;&gt;T2 -->
<g id="edge31" class="edge"><title>4&#45;&gt;T2</title>
<path fill="none" stroke="black" stroke-width="2" stroke-dasharray="5,2" d="M180.282,-367.421C225.108,-367.421 316.436,-367.421 367.452,-367.421"/>
<polygon fill="black" stroke="black" stroke-width="2" points="367.695,-370.921 377.695,-367.421 367.695,-363.921 367.695,-370.921"/>
</g>
<!-- 4&#45;&gt;7 -->
<g id="edge32" class="edge"><title>4&#45;&gt;7</title>
<path fill="none" stroke="black" stroke-width="2" stroke-dasharray="5,2" d="M171.503,-354.294C192.524,-338.528 227.968,-311.945 252.145,-293.813"/>
<polygon fill="black" stroke="black" stroke-width="2" points="254.284,-296.583 260.184,-287.783 250.084,-290.983 254.284,-296.583"/>
</g>
<!-- 5 -->
<g id="node12" class="node"><title>5</title>
<ellipse fill="none" stroke="black" stroke-width="2" cx="153" cy="-205.421" rx="27" ry="18"/>
<text text-anchor="middle" x="153" y="-201.721" font-family="Times,serif" font-size="14.00">5</text>
</g>
<!-- 5&#45;&gt;12 -->
<g id="edge33" class="edge"><title>5&#45;&gt;12</title>
<path fill="none" stroke="#7f0000" stroke-width="2" d="M179.957,-206.714C210.328,-208.48 262.056,-212.276 306,-219.421 327.395,-222.9 351.063,-228.407 369.779,-233.16"/>
<polygon fill="#7f0000" stroke="#7f0000" stroke-width="2" points="369.063,-236.59 379.621,-235.705 370.816,-229.813 369.063,-236.59"/>
</g>
<!-- 5&#45;&gt;T1 -->
<g id="edge34" class="edge"><title>5&#45;&gt;T1</title>
<path fill="none" stroke="black" stroke-width="2" stroke-dasharray="5,2" d="M179.966,-203.045C229.954,-199.306 342.526,-194.966 432,-221.421 457.781,-229.044 484.455,-244.012 503.452,-256.103"/>
<polygon fill="black" stroke="black" stroke-width="2" points="501.579,-259.059 511.867,-261.59 505.403,-253.196 501.579,-259.059"/>
</g>
<!-- 5&#45;&gt;T2 -->
<g id="edge35" class="edge"><title>5&#45;&gt;T2</title>
<path fill="none" stroke="black" stroke-width="2" stroke-dasharray="5,2" d="M179.524,-209.066C211.313,-214.549 266.272,-227.205 306,-253.421 341.465,-276.825 371.457,-316.567 388.593,-342.402"/>
<polygon fill="black" stroke="black" stroke-width="2" points="385.731,-344.421 394.107,-350.91 391.606,-340.614 385.731,-344.421"/>
</g>
<!-- 5&#45;&gt;7 -->
<g id="edge36" class="edge"><title>5&#45;&gt;7</title>
<path fill="none" stroke="black" stroke-width="2" stroke-dasharray="5,2" d="M175.599,-215.685C196.334,-226.62 227.748,-244.048 250.311,-257.104"/>
<polygon fill="black" stroke="black" stroke-width="2" points="248.682,-260.205 259.083,-262.222 252.21,-254.159 248.682,-260.205"/>
</g>
<!-- 5&#45;&gt;7 -->
<g id="edge37" class="edge"><title>5&#45;&gt;7</title>
<path fill="none" stroke="#cb007f" stroke-width="2" d="M172.564,-217.966C192.247,-229.799 223.667,-247.423 247.094,-259.86"/>
<polygon fill="#cb007f" stroke="#cb007f" stroke-width="2" points="245.474,-262.962 255.955,-264.512 248.729,-256.765 245.474,-262.962"/>
</g>
<!-- 11 -->
<g id="node13" class="node"><title>11</title>
<ellipse fill="none" stroke="black" stroke-width="2" cx="279" cy="-150.421" rx="27" ry="18"/>
<text text-anchor="middle" x="279" y="-146.721" font-family="Times,serif" font-size="14.00">11</text>
</g>
<!-- 5&#45;&gt;11 -->
<g id="edge38" class="edge"><title>5&#45;&gt;11</title>
<path fill="none" stroke="#7f9900" stroke-width="2" d="M174.755,-194.485C194.093,-185.323 223.23,-172.308 245.624,-162.777"/>
<polygon fill="#7f9900" stroke="#7f9900" stroke-width="2" points="247.213,-165.906 255.07,-158.799 244.496,-159.455 247.213,-165.906"/>
</g>
<!-- 5&#45;&gt;11 -->
<g id="edge39" class="edge"><title>5&#45;&gt;11</title>
<path fill="none" stroke="#33007f" stroke-width="2" d="M177.323,-197.481C197.491,-189.259 226.748,-176.346 248.531,-166.09"/>
<polygon fill="#33007f" stroke="#33007f" stroke-width="2" points="250.139,-169.201 257.656,-161.735 247.124,-162.883 250.139,-169.201"/>
</g>
<!-- 11&#45;&gt;12 -->
<g id="edge40" class="edge"><title>11&#45;&gt;12</title>
<path fill="none" stroke="#00657f" stroke-width="2" d="M297.766,-163.603C318.76,-179.179 353.874,-205.231 377.945,-223.09"/>
<polygon fill="#00657f" stroke="#00657f" stroke-width="2" points="376.15,-226.117 386.267,-229.264 380.321,-220.495 376.15,-226.117"/>
</g>
<!-- 11&#45;&gt;T1 -->
<g id="edge41" class="edge"><title>11&#45;&gt;T1</title>
<path fill="none" stroke="black" stroke-width="2" stroke-dasharray="5,2" d="M305.991,-149.679C337.533,-149.832 391.514,-153.547 432,-174.421 466.292,-192.103 495.734,-226.3 513.157,-249.736"/>
<polygon fill="black" stroke="black" stroke-width="2" points="510.535,-252.083 519.232,-258.135 516.207,-247.981 510.535,-252.083"/>
</g>
<!-- 6 -->
<g id="node14" class="node"><title>6</title>
<ellipse fill="none" stroke="black" stroke-width="2" cx="153" cy="-150.421" rx="27" ry="18"/>
<text text-anchor="middle" x="153" y="-146.721" font-family="Times,serif" font-size="14.00">6</text>
</g>
<!-- 6&#45;&gt;12 -->
<g id="edge42" class="edge"><title>6&#45;&gt;12</title>
<path fill="none" stroke="#00657f" stroke-width="2" d="M175.463,-140.384C205.909,-127.676 262.741,-109.677 306,-129.421 344.883,-147.169 374.278,-188.806 390.312,-216.278"/>
<polygon fill="#00657f" stroke="#00657f" stroke-width="2" points="387.461,-218.348 395.42,-225.342 393.559,-214.912 387.461,-218.348"/>
</g>
<!-- 6&#45;&gt;T1 -->
<g id="edge43" class="edge"><title>6&#45;&gt;T1</title>
<path fill="none" stroke="black" stroke-width="2" stroke-dasharray="5,2" d="M176.495,-141.129C196.059,-133.579 225.37,-123.533 252,-119.421 332.629,-106.973 363.762,-110.705 432,-155.421 468.805,-179.539 498.757,-221.763 515.478,-248.887"/>
<polygon fill="black" stroke="black" stroke-width="2" points="512.479,-250.693 520.632,-257.459 518.478,-247.086 512.479,-250.693"/>
</g>
<!-- 6&#45;&gt;T2 -->
<g id="edge44" class="edge"><title>6&#45;&gt;T2</title>
<path fill="none" stroke="black" stroke-width="2" stroke-dasharray="5,2" d="M177.46,-158.189C209.25,-169.572 266.558,-193.211 306,-227.421 343.819,-260.224 374.359,-310.608 390.785,-341.145"/>
<polygon fill="black" stroke="black" stroke-width="2" points="387.858,-343.097 395.614,-350.315 394.051,-339.836 387.858,-343.097"/>
</g>
<!-- 6&#45;&gt;11 -->
<g id="edge45" class="edge"><title>6&#45;&gt;11</title>
<path fill="none" stroke="#33007f" stroke-width="2" d="M180.297,-150.421C198.135,-150.421 221.953,-150.421 241.607,-150.421"/>
<polygon fill="#33007f" stroke="#33007f" stroke-width="2" points="241.741,-153.921 251.741,-150.421 241.741,-146.921 241.741,-153.921"/>
</g>
<!-- T3 -->
<g id="node15" class="node"><title>T3</title>
<ellipse fill="none" stroke="black" stroke-width="2" cx="279" cy="-35.4213" rx="27" ry="18"/>
<text text-anchor="middle" x="279" y="-31.7213" font-family="Times,serif" font-size="14.00">T3</text>
</g>
<!-- 6&#45;&gt;T3 -->
<g id="edge46" class="edge"><title>6&#45;&gt;T3</title>
<path fill="none" stroke="black" stroke-width="2" stroke-dasharray="5,2" d="M169.454,-136.089C190.895,-116.204 229.838,-80.0872 254.784,-56.9524"/>
<polygon fill="black" stroke="black" stroke-width="2" points="257.399,-59.3005 262.351,-49.9342 252.639,-54.168 257.399,-59.3005"/>
</g>
<!-- T4 -->
<g id="node16" class="node"><title>T4</title>
<ellipse fill="none" stroke="black" stroke-width="2" cx="405" cy="-21.4213" rx="27" ry="18"/>
<text text-anchor="middle" x="405" y="-17.7213" font-family="Times,serif" font-size="14.00">T4</text>
</g>
<!-- T3&#45;&gt;T4 -->
<g id="edge47" class="edge"><title>T3&#45;&gt;T4</title>
<path fill="none" stroke="black" stroke-width="2" stroke-dasharray="5,2" d="M305.693,-32.5205C323.815,-30.4744 348.328,-27.7069 368.342,-25.4472"/>
<polygon fill="black" stroke="black" stroke-width="2" points="368.796,-28.9183 378.34,-24.3184 368.01,-21.9625 368.796,-28.9183"/>
</g>
<!-- 10 -->
<g id="node17" class="node"><title>10</title>
<ellipse fill="none" stroke="black" stroke-width="2" cx="153" cy="-85.4213" rx="27" ry="18"/>
<text text-anchor="middle" x="153" y="-81.7213" font-family="Times,serif" font-size="14.00">10</text>
</g>
<!-- 10&#45;&gt;12 -->
<g id="edge48" class="edge"><title>10&#45;&gt;12</title>
<path fill="none" stroke="#7f9900" stroke-width="2" d="M179.343,-81.1587C211.189,-80.8448 266.456,-87.6812 306,-112.421 346.31,-137.641 377.129,-185.47 392.715,-215.679"/>
<polygon fill="#7f9900" stroke="#7f9900" stroke-width="2" points="389.663,-217.405 397.232,-224.818 395.938,-214.302 389.663,-217.405"/>
</g>
<!-- 10&#45;&gt;12 -->
<g id="edge49" class="edge"><title>10&#45;&gt;12</title>
<path fill="none" stroke="#327f00" stroke-width="2" d="M180.179,-86.0659C212.149,-87.965 266.8,-94.8963 306,-119.421 344.472,-143.491 374.298,-188.155 390.488,-216.525"/>
<polygon fill="#327f00" stroke="#327f00" stroke-width="2" points="387.537,-218.421 395.448,-225.468 393.659,-215.025 387.537,-218.421"/>
</g>
<!-- 10&#45;&gt;12 -->
<g id="edge50" class="edge"><title>10&#45;&gt;12</title>
<path fill="none" stroke="#00657f" stroke-width="2" d="M178.791,-90.8067C210.547,-94.7661 266.226,-101.538 306,-126.421 342.442,-149.22 371.126,-190.497 387.811,-217.273"/>
<polygon fill="#00657f" stroke="#00657f" stroke-width="2" points="384.999,-219.384 393.205,-226.086 390.97,-215.729 384.999,-219.384"/>
</g>
<!-- 10&#45;&gt;T1 -->
<g id="edge51" class="edge"><title>10&#45;&gt;T1</title>
<path fill="none" stroke="black" stroke-width="2" stroke-dasharray="5,2" d="M179.71,-81.8859C232.222,-76.0791 353.452,-70.0617 432,-124.421 476.466,-155.194 505.732,-213.343 519.937,-247.497"/>
<polygon fill="black" stroke="black" stroke-width="2" points="516.724,-248.889 523.704,-256.86 523.219,-246.277 516.724,-248.889"/>
</g>
<!-- 10&#45;&gt;11 -->
<g id="edge52" class="edge"><title>10&#45;&gt;11</title>
<path fill="none" stroke="#cb007f" stroke-width="2" d="M174.755,-96.3008C194.873,-106.847 225.594,-122.95 248.298,-134.852"/>
<polygon fill="#cb007f" stroke="#cb007f" stroke-width="2" points="246.696,-137.963 257.177,-139.506 249.946,-131.764 246.696,-137.963"/>
</g>
<!-- 10&#45;&gt;T3 -->
<g id="edge53" class="edge"><title>10&#45;&gt;T3</title>
<path fill="none" stroke="black" stroke-width="2" stroke-dasharray="5,2" d="M176.455,-76.3667C195.823,-68.5573 224.025,-57.1852 245.797,-48.4064"/>
<polygon fill="black" stroke="black" stroke-width="2" points="247.327,-51.5633 255.293,-44.5775 244.709,-45.0712 247.327,-51.5633"/>
</g>
<!-- S -->
<g id="node18" class="node"><title>S</title>
<ellipse fill="none" stroke="black" stroke-width="2" cx="27" cy="-259.421" rx="27" ry="18"/>
<text text-anchor="middle" x="27" y="-255.721" font-family="Times,serif" font-size="14.00">S</text>
</g>
<!-- S&#45;&gt;1 -->
<g id="edge54" class="edge"><title>S&#45;&gt;1</title>
<path fill="none" stroke="#cc7f00" stroke-width="2" d="M38.5722,-276.047C60.352,-310.297 110.331,-388.894 136.057,-429.349"/>
<polygon fill="#cc7f00" stroke="#cc7f00" stroke-width="2" points="133.135,-431.277 141.455,-437.838 139.042,-427.521 133.135,-431.277"/>
</g>
<!-- S&#45;&gt;T1 -->
<g id="edge55" class="edge"><title>S&#45;&gt;T1</title>
<path fill="none" stroke="black" stroke-width="2" stroke-dasharray="5,2" d="M30.4826,-287.472C36.6384,-338.567 57.4802,-446.245 126,-497.421 171.105,-531.109 195.777,-507.529 252,-510.421 275.968,-511.654 282.786,-516.512 306,-510.421 368.175,-494.11 386.033,-484.352 432,-439.421 477.746,-394.707 509.998,-324.252 523.265,-291.819"/>
<polygon fill="black" stroke="black" stroke-width="2" points="33.9546,-287.025 29.38,-277.468 26.9967,-287.792 33.9546,-287.025"/>
</g>
<!-- S&#45;&gt;T2 -->
<g id="edge56" class="edge"><title>S&#45;&gt;T2</title>
<path fill="none" stroke="black" stroke-width="2" stroke-dasharray="5,2" d="M32.0749,-287.689C40.4837,-334.943 64.424,-429.415 126,-476.421 189.981,-525.263 233.895,-532.196 306,-496.421 353.366,-472.921 384.016,-414.366 396.956,-384.917"/>
<polygon fill="black" stroke="black" stroke-width="2" points="35.4813,-286.838 30.3822,-277.551 28.5769,-287.991 35.4813,-286.838"/>
</g>
<!-- S&#45;&gt;2 -->
<g id="edge57" class="edge"><title>S&#45;&gt;2</title>
<path fill="none" stroke="#cb007f" stroke-width="2" d="M49.5992,-269.524C69.3038,-278.741 98.6517,-292.468 120.884,-302.867"/>
<polygon fill="#cb007f" stroke="#cb007f" stroke-width="2" points="119.691,-306.173 130.232,-307.24 122.657,-299.832 119.691,-306.173"/>
</g>
<!-- S&#45;&gt;T5 -->
<g id="edge58" class="edge"><title>S&#45;&gt;T5</title>
<path fill="none" stroke="black" stroke-width="2" stroke-dasharray="5,2" d="M62.8264,-267.501C114.049,-279.385 208.459,-301.288 253.216,-311.671"/>
<polygon fill="black" stroke="black" stroke-width="2" points="63.4172,-264.045 52.8849,-265.195 61.8352,-270.864 63.4172,-264.045"/>
</g>
<!-- S&#45;&gt;3 -->
<g id="edge59" class="edge"><title>S&#45;&gt;3</title>
<path fill="none" stroke="#7f9900" stroke-width="2" d="M54.2972,-259.421C72.1346,-259.421 95.9529,-259.421 115.607,-259.421"/>
<polygon fill="#7f9900" stroke="#7f9900" stroke-width="2" points="115.741,-262.921 125.741,-259.421 115.741,-255.921 115.741,-262.921"/>
</g>
<!-- S&#45;&gt;4 -->
<g id="edge60" class="edge"><title>S&#45;&gt;4</title>
<path fill="none" stroke="#00ff7f" stroke-width="2" d="M44.2108,-273.54C65.5618,-292.136 103.281,-324.989 127.959,-346.482"/>
<polygon fill="#00ff7f" stroke="#00ff7f" stroke-width="2" points="125.946,-349.37 135.785,-353.299 130.543,-344.092 125.946,-349.37"/>
</g>
<!-- S&#45;&gt;5 -->
<g id="edge61" class="edge"><title>S&#45;&gt;5</title>
<path fill="none" stroke="#327f00" stroke-width="2" d="M50.1687,-249.767C69.8296,-241.205 98.7577,-228.607 120.762,-219.025"/>
<polygon fill="#327f00" stroke="#327f00" stroke-width="2" points="122.252,-222.193 130.023,-214.992 119.457,-215.776 122.252,-222.193"/>
</g>
<!-- S&#45;&gt;6 -->
<g id="edge62" class="edge"><title>S&#45;&gt;6</title>
<path fill="none" stroke="#7f0000" stroke-width="2" d="M43.2048,-244.518C64.0961,-225.322 101.934,-191.958 127.018,-170.534"/>
<polygon fill="#7f0000" stroke="#7f0000" stroke-width="2" points="129.32,-173.172 134.677,-164.031 124.789,-167.836 129.32,-173.172"/>
</g>
<!-- S&#45;&gt;6 -->
<g id="edge63" class="edge"><title>S&#45;&gt;6</title>
<path fill="none" stroke="#00657f" stroke-width="2" d="M45.5032,-246.201C67.5754,-227.839 105.55,-194.526 129.685,-172.405"/>
<polygon fill="#00657f" stroke="#00657f" stroke-width="2" points="132.328,-174.728 137.296,-165.37 127.577,-169.587 132.328,-174.728"/>
</g>
<!-- S&#45;&gt;T3 -->
<g id="edge64" class="edge"><title>S&#45;&gt;T3</title>
<path fill="none" stroke="black" stroke-width="2" stroke-dasharray="5,2" d="M33.72,-231.682C44.1242,-188.65 70.414,-106.399 126,-64.4213 162.981,-36.4936 219.139,-33.0355 251.839,-33.7509"/>
<polygon fill="black" stroke="black" stroke-width="2" points="30.2967,-230.952 31.463,-241.482 37.1181,-232.523 30.2967,-230.952"/>
</g>
<!-- S&#45;&gt;T4 -->
<g id="edge66" class="edge"><title>S&#45;&gt;T4</title>
<path fill="none" stroke="black" stroke-width="2" stroke-dasharray="5,2" d="M32.2299,-231.205C40.8694,-183.979 65.1437,-89.3085 126,-40.4213 200.863,19.718 326.772,-1.98222 379.556,-14.7644"/>
<polygon fill="black" stroke="black" stroke-width="2" points="28.7337,-230.884 30.4857,-241.333 35.6322,-232.072 28.7337,-230.884"/>
</g>
<!-- S&#45;&gt;10 -->
<g id="edge65" class="edge"><title>S&#45;&gt;10</title>
<path fill="none" stroke="#007f65" stroke-width="2" d="M39.4434,-243.364C61.2204,-212.806 108.745,-146.117 134.527,-109.94"/>
<polygon fill="#007f65" stroke="#007f65" stroke-width="2" points="137.631,-111.615 140.584,-101.44 131.93,-107.553 137.631,-111.615"/>
</g>
</g>
</svg>
