<?xml version="1.0" encoding="UTF-8" standalone="no"?>
<!DOCTYPE svg PUBLIC "-//W3C//DTD SVG 1.1//EN"
 "http://www.w3.org/Graphics/SVG/1.1/DTD/svg11.dtd">
<!-- Generated by graphviz version 2.36.0 (20140111.2315)
 -->
<!-- Title: %3 Pages: 1 -->
<svg width="488pt" height="102pt"
 viewBox="0.00 0.00 488.00 102.42" xmlns="http://www.w3.org/2000/svg" xmlns:xlink="http://www.w3.org/1999/xlink">
<g id="graph0" class="graph" transform="scale(1 1) rotate(0) translate(4 98.4233)">
<title>%3</title>
<polygon fill="white" stroke="none" points="-4,4 -4,-98.4233 484,-98.4233 484,4 -4,4"/>
<!-- S -->
<g id="node1" class="node"><title>S</title>
<ellipse fill="none" stroke="black" stroke-width="2" cx="18" cy="-45.4233" rx="18" ry="18"/>
<text text-anchor="middle" x="18" y="-41.7233" font-family="Times,serif" font-size="14.00">S</text>
</g>
<!-- T2 -->
<g id="node2" class="node"><title>T2</title>
<ellipse fill="none" stroke="black" stroke-width="2" cx="345" cy="-74.4233" rx="20.5982" ry="20.5982"/>
<text text-anchor="middle" x="345" y="-70.7233" font-family="Times,serif" font-size="14.00">T2</text>
</g>
<!-- S&#45;&gt;T2 -->
<g id="edge1" class="edge"><title>S&#45;&gt;T2</title>
<path fill="none" stroke="black" stroke-width="2" stroke-dasharray="5,2" d="M45.6217,-53.1625C63.1736,-57.902 86.759,-63.5858 108,-66.4233 187.441,-77.0356 283.182,-76.1048 323.998,-75.0722"/>
<polygon fill="black" stroke="black" stroke-width="2" points="46.1195,-49.6685 35.5478,-50.3674 44.248,-56.4136 46.1195,-49.6685"/>
</g>
<!-- 1 -->
<g id="node3" class="node"><title>1</title>
<ellipse fill="none" stroke="black" stroke-width="2" cx="126" cy="-45.4233" rx="18" ry="18"/>
<text text-anchor="middle" x="126" y="-41.7233" font-family="Times,serif" font-size="14.00">1</text>
</g>
<!-- S&#45;&gt;1 -->
<g id="edge2" class="edge"><title>S&#45;&gt;1</title>
<path fill="none" stroke="black" stroke-width="2" stroke-dasharray="5,2" d="M36.0307,-43.7183C52.7207,-43.1047 78.4212,-43.0092 97.9161,-43.4318"/>
<polygon fill="black" stroke="black" stroke-width="2" points="97.9157,-46.9331 108.012,-43.7199 98.1155,-39.936 97.9157,-46.9331"/>
</g>
<!-- S&#45;&gt;1 -->
<g id="edge3" class="edge"><title>S&#45;&gt;1</title>
<path fill="none" stroke="#7f7f00" stroke-width="2" d="M36.0307,-47.6965C52.7207,-48.5147 78.4212,-48.6421 97.9161,-48.0786"/>
<polygon fill="#7f7f00" stroke="#7f7f00" stroke-width="2" points="98.1519,-51.5722 108.012,-47.6945 97.8857,-44.5773 98.1519,-51.5722"/>
</g>
<!-- 2 -->
<g id="node4" class="node"><title>2</title>
<ellipse fill="none" stroke="black" stroke-width="2" cx="234" cy="-28.4233" rx="18" ry="18"/>
<text text-anchor="middle" x="234" y="-24.7233" font-family="Times,serif" font-size="14.00">2</text>
</g>
<!-- S&#45;&gt;2 -->
<g id="edge4" class="edge"><title>S&#45;&gt;2</title>
<path fill="none" stroke="#7f0000" stroke-width="2" d="M35.5263,-40.307C53.243,-35.1104 82.2961,-27.4147 108,-24.4233 141.591,-20.514 180.577,-22.8421 205.96,-25.265"/>
<polygon fill="#7f0000" stroke="#7f0000" stroke-width="2" points="205.645,-28.751 215.95,-26.2913 206.36,-21.7876 205.645,-28.751"/>
</g>
<!-- T1 -->
<g id="node5" class="node"><title>T1</title>
<ellipse fill="none" stroke="black" stroke-width="2" cx="459" cy="-28.4233" rx="20.5982" ry="20.5982"/>
<text text-anchor="middle" x="459" y="-24.7233" font-family="Times,serif" font-size="14.00">T1</text>
</g>
<!-- S&#45;&gt;T1 -->
<g id="edge5" class="edge"><title>S&#45;&gt;T1</title>
<path fill="none" stroke="black" stroke-width="2" stroke-dasharray="5,2" d="M45.1619,-37.3724C62.7787,-32.1982 86.6124,-25.6732 108,-21.4233 220.633,0.957978 251.887,5.43514 366,-7.42329 391.56,-10.3034 420.371,-17.5493 438.833,-22.7228"/>
<polygon fill="black" stroke="black" stroke-width="2" points="44.1539,-34.0206 35.5732,-40.2354 46.1566,-40.728 44.1539,-34.0206"/>
</g>
<!-- T2&#45;&gt;T1 -->
<g id="edge6" class="edge"><title>T2&#45;&gt;T1</title>
<path fill="none" stroke="black" stroke-width="2" stroke-dasharray="5,2" d="M364.495,-66.8273C382.328,-59.5028 409.553,-48.321 430.036,-39.9087"/>
<polygon fill="black" stroke="black" stroke-width="2" points="431.558,-43.0674 439.478,-36.0305 428.898,-36.5922 431.558,-43.0674"/>
</g>
<!-- 1&#45;&gt;T2 -->
<g id="edge7" class="edge"><title>1&#45;&gt;T2</title>
<path fill="none" stroke="black" stroke-width="2" stroke-dasharray="5,2" d="M144.028,-47.6989C180.827,-52.6167 268.163,-64.2884 314.285,-70.4522"/>
<polygon fill="black" stroke="black" stroke-width="2" points="313.894,-73.931 324.27,-71.7865 314.822,-66.9927 313.894,-73.931"/>
</g>
<!-- 1&#45;&gt;2 -->
<g id="edge8" class="edge"><title>1&#45;&gt;2</title>
<path fill="none" stroke="#00ff7f" stroke-width="2" d="M144.031,-42.6919C160.721,-40.0152 186.421,-35.8935 205.916,-32.7669"/>
<polygon fill="#00ff7f" stroke="#00ff7f" stroke-width="2" points="206.692,-36.1873 216.012,-31.1479 205.583,-29.2756 206.692,-36.1873"/>
</g>
<!-- 2&#45;&gt;T2 -->
<g id="edge9" class="edge"><title>2&#45;&gt;T2</title>
<path fill="none" stroke="black" stroke-width="2" stroke-dasharray="5,2" d="M251.083,-35.2107C268.261,-42.4599 295.797,-54.0808 316.442,-62.7933"/>
<polygon fill="black" stroke="black" stroke-width="2" points="315.09,-66.0214 325.664,-66.685 317.811,-59.5722 315.09,-66.0214"/>
</g>
<!-- 3 -->
<g id="node6" class="node"><title>3</title>
<ellipse fill="none" stroke="black" stroke-width="2" cx="345" cy="-28.4233" rx="18" ry="18"/>
<text text-anchor="middle" x="345" y="-24.7233" font-family="Times,serif" font-size="14.00">3</text>
</g>
<!-- 2&#45;&gt;3 -->
<g id="edge10" class="edge"><title>2&#45;&gt;3</title>
<path fill="none" stroke="#00ff7f" stroke-width="2" d="M252.031,-28.4233C269.288,-28.4233 296.257,-28.4233 316.538,-28.4233"/>
<polygon fill="#00ff7f" stroke="#00ff7f" stroke-width="2" points="316.729,-31.9234 326.729,-28.4233 316.729,-24.9234 316.729,-31.9234"/>
</g>
<!-- 3&#45;&gt;T1 -->
<g id="edge11" class="edge"><title>3&#45;&gt;T1</title>
<path fill="none" stroke="black" stroke-width="2" stroke-dasharray="5,2" d="M363.01,-28.4233C380.207,-28.4233 407.142,-28.4233 427.945,-28.4233"/>
<polygon fill="black" stroke="black" stroke-width="2" points="428.18,-31.9234 438.18,-28.4233 428.18,-24.9234 428.18,-31.9234"/>
</g>
</g>
</svg>
