<?xml version="1.0" encoding="UTF-8" standalone="no"?>
<!DOCTYPE svg PUBLIC "-//W3C//DTD SVG 1.1//EN"
 "http://www.w3.org/Graphics/SVG/1.1/DTD/svg11.dtd">
<!-- Generated by graphviz version 2.26.3 (20100126.1600)
 -->
<!-- Title: _anonymous_0 Pages: 1 -->
<svg width="1388pt" height="1024pt"
 viewBox="0.00 0.00 1388.00 1024.14" xmlns="http://www.w3.org/2000/svg" xmlns:xlink="http://www.w3.org/1999/xlink">
<g id="graph1" class="graph" transform="scale(1 1) rotate(0) translate(4 1020.14)">
<title>_anonymous_0</title>
<polygon fill="white" stroke="white" points="-4,5 -4,-1020.14 1385,-1020.14 1385,5 -4,5"/>
<!-- G0S -->
<g id="node1" class="node"><title>G0S</title>
<ellipse fill="none" stroke="black" stroke-width="2" cx="33" cy="-494.143" rx="32.0265" ry="32.5269"/>
<text text-anchor="middle" x="33" y="-490.543" font-family="Times Roman,serif" font-size="14.00">G0S</text>
</g>
<!-- G06 -->
<g id="node3" class="node"><title>G06</title>
<ellipse fill="none" stroke="black" stroke-width="2" cx="453" cy="-832.143" rx="32.0265" ry="32.5269"/>
<text text-anchor="middle" x="453" y="-828.543" font-family="Times Roman,serif" font-size="14.00">G06</text>
</g>
<!-- G0S&#45;&gt;G06 -->
<g id="edge2" class="edge"><title>G0S&#45;&gt;G06</title>
<path fill="none" stroke="#4d007f" stroke-width="4" d="M61.3648,-510.593C82.1579,-522.256 111.299,-537.787 138,-549.143 148.993,-553.819 333.3,-608.956 342,-617.143 404.446,-675.91 365.306,-725.56 414,-796.143 415.936,-798.95 418.127,-801.697 420.459,-804.343"/>
<polygon fill="#4d007f" stroke="#4d007f" points="418.309,-807.157 427.763,-811.939 423.355,-802.305 418.309,-807.157"/>
</g>
<!-- G019 -->
<g id="node5" class="node"><title>G019</title>
<ellipse fill="none" stroke="black" stroke-width="2" cx="753" cy="-785.143" rx="38.8909" ry="38.8909"/>
<text text-anchor="middle" x="753" y="-781.543" font-family="Times Roman,serif" font-size="14.00">G019</text>
</g>
<!-- G0S&#45;&gt;G019 -->
<g id="edge4" class="edge"><title>G0S&#45;&gt;G019</title>
<path fill="none" stroke="#907f00" stroke-width="4" d="M65.5801,-493.339C188.485,-490.436 618.266,-481.52 642,-498.143 717.33,-550.904 680.209,-606.607 714,-692.143 720.121,-707.638 727.08,-724.463 733.408,-739.489"/>
<polygon fill="#907f00" stroke="#907f00" points="730.342,-741.224 737.461,-749.071 736.789,-738.497 730.342,-741.224"/>
</g>
<!-- G04 -->
<g id="node7" class="node"><title>G04</title>
<ellipse fill="none" stroke="black" stroke-width="2" cx="309" cy="-365.143" rx="32.0265" ry="32.5269"/>
<text text-anchor="middle" x="309" y="-361.543" font-family="Times Roman,serif" font-size="14.00">G04</text>
</g>
<!-- G0S&#45;&gt;G04 -->
<g id="edge6" class="edge"><title>G0S&#45;&gt;G04</title>
<path fill="none" stroke="#007f00" stroke-width="4" d="M62.5368,-480.338C112.622,-456.928 214.202,-409.451 270.045,-383.351"/>
<polygon fill="#007f00" stroke="#007f00" points="271.681,-386.449 279.258,-379.044 268.717,-380.108 271.681,-386.449"/>
</g>
<!-- G02 -->
<g id="node9" class="node"><title>G02</title>
<ellipse fill="none" stroke="black" stroke-width="2" cx="309" cy="-436.143" rx="32.0265" ry="32.5269"/>
<text text-anchor="middle" x="309" y="-432.543" font-family="Times Roman,serif" font-size="14.00">G02</text>
</g>
<!-- G0S&#45;&gt;G02 -->
<g id="edge8" class="edge"><title>G0S&#45;&gt;G02</title>
<path fill="none" stroke="#7f0021" stroke-width="4" d="M64.6607,-485.992C114.514,-474.574 211.347,-454.168 266.972,-443.304"/>
<polygon fill="#7f0021" stroke="#7f0021" points="267.706,-446.727 276.858,-441.391 266.376,-439.854 267.706,-446.727"/>
</g>
<!-- G0S&#45;&gt;G02 -->
<g id="edge10" class="edge"><title>G0S&#45;&gt;G02</title>
<path fill="none" stroke="#007f37" stroke-width="4" d="M65.2009,-489.387C115.401,-480.085 212.281,-459.794 267.603,-447.059"/>
<polygon fill="#007f37" stroke="#007f37" points="268.482,-450.448 277.429,-444.773 266.896,-443.63 268.482,-450.448"/>
</g>
<!-- G012 -->
<g id="node12" class="node"><title>G012</title>
<ellipse fill="none" stroke="black" stroke-width="2" cx="453" cy="-131.143" rx="38.8909" ry="38.8909"/>
<text text-anchor="middle" x="453" y="-127.543" font-family="Times Roman,serif" font-size="14.00">G012</text>
</g>
<!-- G0S&#45;&gt;G012 -->
<g id="edge12" class="edge"><title>G0S&#45;&gt;G012</title>
<path fill="none" stroke="#007fbc" stroke-width="4" d="M39.0084,-462.494C50.072,-412.435 78.2255,-314.772 138,-257.143 213.522,-184.332 336.431,-151.845 404.234,-138.817"/>
<polygon fill="#007fbc" stroke="#007fbc" points="405.034,-142.229 414.226,-136.962 403.756,-135.346 405.034,-142.229"/>
</g>
<!-- G022 -->
<g id="node14" class="node"><title>G022</title>
<ellipse fill="none" stroke="black" stroke-width="2" cx="1203" cy="-428.143" rx="38.8909" ry="38.8909"/>
<text text-anchor="middle" x="1203" y="-424.543" font-family="Times Roman,serif" font-size="14.00">G022</text>
</g>
<!-- G0S&#45;&gt;G022 -->
<g id="edge14" class="edge"><title>G0S&#45;&gt;G022</title>
<path fill="none" stroke="#00f37f" stroke-width="4" d="M36.8714,-462.057C51.6898,-359.371 114.133,-46.1433 309,-46.1433 309,-46.1433 309,-46.1433 453,-46.1433 748.173,-46.1433 869.828,-32.8063 1092,-227.143 1139.48,-268.677 1171.42,-335.696 1188.41,-380.874"/>
<polygon fill="#00f37f" stroke="#00f37f" points="1185.19,-382.256 1191.91,-390.448 1191.76,-379.854 1185.19,-382.256"/>
</g>
<!-- G0S&#45;&gt;G022 -->
<g id="edge16" class="edge"><title>G0S&#45;&gt;G022</title>
<path fill="none" stroke="#d2007f" stroke-width="4" d="M37.2959,-462.072C52.8589,-360.591 115.94,-53.1433 309,-53.1433 309,-53.1433 309,-53.1433 453,-53.1433 748.173,-53.1433 869.828,-39.8063 1092,-234.143 1137.89,-274.283 1169.26,-338.227 1186.65,-381.637"/>
<polygon fill="#d2007f" stroke="#d2007f" points="1183.46,-383.076 1190.36,-391.114 1189.97,-380.526 1183.46,-383.076"/>
</g>
<!-- G0S&#45;&gt;G022 -->
<g id="edge18" class="edge"><title>G0S&#45;&gt;G022</title>
<path fill="none" stroke="#d27f00" stroke-width="4" d="M37.7453,-462.209C54.0507,-361.864 117.746,-60.1433 309,-60.1433 309,-60.1433 309,-60.1433 453,-60.1433 748.173,-60.1433 869.828,-46.8063 1092,-241.143 1136.17,-279.777 1166.89,-340.461 1184.63,-382.222"/>
<polygon fill="#d27f00" stroke="#d27f00" points="1181.47,-383.731 1188.55,-391.617 1187.93,-381.04 1181.47,-383.731"/>
</g>
<!-- G07 -->
<g id="node18" class="node"><title>G07</title>
<ellipse fill="none" stroke="black" stroke-width="2" cx="453" cy="-629.143" rx="32.0265" ry="32.5269"/>
<text text-anchor="middle" x="453" y="-625.543" font-family="Times Roman,serif" font-size="14.00">G07</text>
</g>
<!-- G0S&#45;&gt;G07 -->
<g id="edge20" class="edge"><title>G0S&#45;&gt;G07</title>
<path fill="none" stroke="#7fa600" stroke-width="4" d="M63.1189,-506.269C83.9981,-514.515 112.519,-525.46 138,-534.143 235.109,-567.237 351.011,-600.657 411.535,-617.655"/>
<polygon fill="#7fa600" stroke="#7fa600" points="410.895,-621.11 421.468,-620.437 412.783,-614.37 410.895,-621.11"/>
</g>
<!-- G03 -->
<g id="node20" class="node"><title>G03</title>
<ellipse fill="none" stroke="black" stroke-width="2" cx="171" cy="-319.143" rx="32.0265" ry="32.5269"/>
<text text-anchor="middle" x="171" y="-315.543" font-family="Times Roman,serif" font-size="14.00">G03</text>
</g>
<!-- G0S&#45;&gt;G03 -->
<g id="edge22" class="edge"><title>G0S&#45;&gt;G03</title>
<path fill="none" stroke="#00bc7f" stroke-width="4" d="M53.0664,-468.697C77.1862,-438.11 117.742,-386.681 144.439,-352.826"/>
<polygon fill="#00bc7f" stroke="#00bc7f" points="147.466,-354.64 150.909,-344.62 141.969,-350.306 147.466,-354.64"/>
</g>
<!-- G01 -->
<g id="node22" class="node"><title>G01</title>
<ellipse fill="none" stroke="black" stroke-width="2" cx="309" cy="-652.143" rx="32.0265" ry="32.5269"/>
<text text-anchor="middle" x="309" y="-648.543" font-family="Times Roman,serif" font-size="14.00">G01</text>
</g>
<!-- G0S&#45;&gt;G01 -->
<g id="edge24" class="edge"><title>G0S&#45;&gt;G01</title>
<path fill="none" stroke="#90007f" stroke-width="4" d="M51.4482,-520.954C70.0373,-547.174 101.189,-586.21 138,-608.143 177.624,-631.753 230.039,-641.776 266.345,-646.642"/>
<polygon fill="#90007f" stroke="#90007f" points="266.238,-650.156 276.598,-647.94 267.117,-643.212 266.238,-650.156"/>
</g>
<!-- G0S&#45;&gt;G01 -->
<g id="edge26" class="edge"><title>G0S&#45;&gt;G01</title>
<path fill="none" stroke="#7f00a6" stroke-width="4" d="M48.7054,-522.175C66.8773,-550.151 99.3137,-592.092 138,-615.143 177.505,-638.682 229.723,-648.715 266.017,-652.172"/>
<polygon fill="#7f00a6" stroke="#7f00a6" points="266.02,-655.684 276.271,-653.01 266.59,-648.707 266.02,-655.684"/>
</g>
<!-- G011 -->
<g id="node25" class="node"><title>G011</title>
<ellipse fill="none" stroke="black" stroke-width="2" cx="603" cy="-936.143" rx="38.8909" ry="38.8909"/>
<text text-anchor="middle" x="603" y="-932.543" font-family="Times Roman,serif" font-size="14.00">G011</text>
</g>
<!-- G0S&#45;&gt;G011 -->
<g id="edge28" class="edge"><title>G0S&#45;&gt;G011</title>
<path fill="none" stroke="#007f79" stroke-width="4" d="M38.2856,-525.956C48.5591,-578.48 75.9086,-683.811 138,-747.143 255.899,-867.398 460.787,-913.798 554.139,-929.32"/>
<polygon fill="#007f79" stroke="#007f79" points="553.727,-932.798 564.157,-930.937 554.843,-925.888 553.727,-932.798"/>
</g>
<!-- G08 -->
<g id="node27" class="node"><title>G08</title>
<ellipse fill="none" stroke="black" stroke-width="2" cx="453" cy="-273.143" rx="32.0265" ry="32.5269"/>
<text text-anchor="middle" x="453" y="-269.543" font-family="Times Roman,serif" font-size="14.00">G08</text>
</g>
<!-- G0S&#45;&gt;G08 -->
<g id="edge30" class="edge"><title>G0S&#45;&gt;G08</title>
<path fill="none" stroke="#7fe800" stroke-width="4" d="M38.3704,-462.319C48.4014,-414.023 74.9758,-323.575 138,-283.143 222.369,-229.019 347.302,-247.239 411.535,-261.978"/>
<polygon fill="#7fe800" stroke="#7fe800" points="410.769,-265.394 421.307,-264.302 412.388,-258.583 410.769,-265.394"/>
</g>
<!-- G018 -->
<g id="node29" class="node"><title>G018</title>
<ellipse fill="none" stroke="black" stroke-width="2" cx="603" cy="-540.143" rx="38.8909" ry="38.8909"/>
<text text-anchor="middle" x="603" y="-536.543" font-family="Times Roman,serif" font-size="14.00">G018</text>
</g>
<!-- G0S&#45;&gt;G018 -->
<g id="edge32" class="edge"><title>G0S&#45;&gt;G018</title>
<path fill="none" stroke="#7f6300" stroke-width="4" d="M65.6929,-495.663C161.237,-501.939 440.399,-524.398 554.029,-534.86"/>
<polygon fill="#7f6300" stroke="#7f6300" points="553.895,-538.363 564.177,-535.804 554.544,-531.393 553.895,-538.363"/>
</g>
<!-- G0S&#45;&gt;G018 -->
<g id="edge34" class="edge"><title>G0S&#45;&gt;G018</title>
<path fill="none" stroke="#0b7f00" stroke-width="4" d="M65.2788,-498.232C160.284,-507.816 439.392,-530.44 553.514,-537.932"/>
<polygon fill="#0b7f00" stroke="#0b7f00" points="553.505,-541.438 563.709,-538.588 553.955,-534.453 553.505,-541.438"/>
</g>
<!-- G015 -->
<g id="node32" class="node"><title>G015</title>
<ellipse fill="none" stroke="black" stroke-width="2" cx="603" cy="-425.143" rx="38.8909" ry="38.8909"/>
<text text-anchor="middle" x="603" y="-421.543" font-family="Times Roman,serif" font-size="14.00">G015</text>
</g>
<!-- G0S&#45;&gt;G015 -->
<g id="edge36" class="edge"><title>G0S&#45;&gt;G015</title>
<path fill="none" stroke="#7f2100" stroke-width="4" d="M65.5539,-492.556C121.971,-489.617 241.514,-482.569 342,-471.143 409.014,-463.523 425.623,-460.101 492,-448.143 512.699,-444.414 535.461,-439.791 554.955,-435.669"/>
<polygon fill="#7f2100" stroke="#7f2100" points="555.773,-439.073 564.824,-433.566 554.314,-432.227 555.773,-439.073"/>
</g>
<!-- G09 -->
<g id="node34" class="node"><title>G09</title>
<ellipse fill="none" stroke="black" stroke-width="2" cx="603" cy="-720.143" rx="32.0265" ry="32.5269"/>
<text text-anchor="middle" x="603" y="-716.543" font-family="Times Roman,serif" font-size="14.00">G09</text>
</g>
<!-- G0S&#45;&gt;G09 -->
<g id="edge38" class="edge"><title>G0S&#45;&gt;G09</title>
<path fill="none" stroke="black" stroke-width="4" d="M48.4977,-522.362C66.4878,-552.837 98.7659,-601.051 138,-631.143 266.322,-729.564 472.067,-729.271 560.428,-723.864"/>
<polygon fill="black" stroke="black" points="560.864,-727.343 570.609,-723.185 560.398,-720.358 560.864,-727.343"/>
</g>
<!-- G05 -->
<g id="node36" class="node"><title>G05</title>
<ellipse fill="none" stroke="black" stroke-width="2" cx="453" cy="-761.143" rx="32.0265" ry="32.5269"/>
<text text-anchor="middle" x="453" y="-757.543" font-family="Times Roman,serif" font-size="14.00">G05</text>
</g>
<!-- G0S&#45;&gt;G05 -->
<g id="edge40" class="edge"><title>G0S&#45;&gt;G05</title>
<path fill="none" stroke="#00377f" stroke-width="4" d="M37.9735,-525.972C47.4734,-576.214 73.3488,-672.959 138,-720.143 219.302,-779.48 345.024,-773.471 410.334,-766.261"/>
<polygon fill="#00377f" stroke="#00377f" points="410.753,-769.736 420.281,-765.103 409.944,-762.783 410.753,-769.736"/>
</g>
<!-- G0S&#45;&gt;G05 -->
<g id="edge42" class="edge"><title>G0S&#45;&gt;G05</title>
<path fill="none" stroke="#00797f" stroke-width="4" d="M37.231,-526.187C46.0884,-577.89 71.5824,-678.669 138,-727.143 219.724,-786.788 346.331,-780.407 411.347,-770.563"/>
<polygon fill="#00797f" stroke="#00797f" points="411.924,-774.015 421.237,-768.963 410.806,-767.105 411.924,-774.015"/>
</g>
<!-- G06&#45;&gt;G019 -->
<g id="edge234" class="edge"><title>G06&#45;&gt;G019</title>
<path fill="none" stroke="#7f0021" stroke-width="4" d="M485.723,-829.99C523.634,-828.639 587.829,-826.166 642,-816.143 663.362,-812.191 686.413,-805.539 705.945,-799.386"/>
<polygon fill="#7f0021" stroke="#7f0021" points="707.058,-802.704 715.517,-796.325 704.926,-796.037 707.058,-802.704"/>
</g>
<!-- G06&#45;&gt;G019 -->
<g id="edge236" class="edge"><title>G06&#45;&gt;G019</title>
<path fill="none" stroke="#007f37" stroke-width="4" d="M485.384,-835.024C523.251,-835.653 587.667,-833.196 642,-823.143 664.141,-819.047 688.096,-812.051 708.066,-805.133"/>
<polygon fill="#007f37" stroke="#007f37" points="709.283,-808.415 717.524,-801.757 706.93,-801.823 709.283,-808.415"/>
</g>
<!-- G06&#45;&gt;G018 -->
<g id="edge244" class="edge"><title>G06&#45;&gt;G018</title>
<path fill="none" stroke="#7f00a6" stroke-width="4" d="M478.529,-811.469C483.395,-806.768 488.16,-801.553 492,-796.143 538.852,-730.133 571.833,-641.226 589.089,-587.437"/>
<polygon fill="#7f00a6" stroke="#7f00a6" points="592.454,-588.405 592.128,-577.815 585.779,-586.297 592.454,-588.405"/>
</g>
<!-- G06&#45;&gt;G09 -->
<g id="edge248" class="edge"><title>G06&#45;&gt;G09</title>
<path fill="none" stroke="black" stroke-width="4" d="M479.128,-812.634C504.002,-794.062 541.58,-766.003 568.823,-745.662"/>
<polygon fill="black" stroke="black" points="571.001,-748.404 576.92,-739.616 566.813,-742.795 571.001,-748.404"/>
</g>
<!-- G0T -->
<g id="node39" class="node"><title>G0T</title>
<ellipse fill="none" stroke="black" stroke-width="2" cx="1347" cy="-506.143" rx="32.0265" ry="32.5269"/>
<text text-anchor="middle" x="1347" y="-502.543" font-family="Times Roman,serif" font-size="14.00">G0T</text>
</g>
<!-- G06&#45;&gt;G0T -->
<g id="edge232" class="edge"><title>G06&#45;&gt;G0T</title>
<path fill="none" stroke="black" stroke-width="4" d="M464.539,-862.071C480.616,-899.183 513.582,-960.982 564,-989.143 637.483,-1030.19 668.831,-1001.14 753,-1001.14 753,-1001.14 753,-1001.14 1053,-1001.14 1117.83,-1001.14 1217.98,-950.186 1242,-921.143 1289.54,-863.664 1327.08,-641.185 1341.08,-547.791"/>
<polygon fill="black" stroke="black" points="1344.55,-548.253 1342.55,-537.848 1337.62,-547.226 1344.55,-548.253"/>
</g>
<!-- G021 -->
<g id="node42" class="node"><title>G021</title>
<ellipse fill="none" stroke="black" stroke-width="2" cx="1053" cy="-564.143" rx="38.8909" ry="38.8909"/>
<text text-anchor="middle" x="1053" y="-560.543" font-family="Times Roman,serif" font-size="14.00">G021</text>
</g>
<!-- G06&#45;&gt;G021 -->
<g id="edge238" class="edge"><title>G06&#45;&gt;G021</title>
<path fill="none" stroke="#007f00" stroke-width="4" d="M483.317,-843.79C505.202,-852.708 535.75,-864.209 564,-869.143 664.01,-886.613 703.154,-904.271 792,-855.143 838.053,-829.678 825.427,-796.942 864,-761.143 894.359,-732.967 911.83,-738.521 942,-710.143 975.29,-678.831 1005.73,-636.54 1026.28,-605.521"/>
<polygon fill="#007f00" stroke="#007f00" points="1029.25,-607.372 1031.81,-597.09 1023.4,-603.534 1029.25,-607.372"/>
</g>
<!-- G06&#45;&gt;G021 -->
<g id="edge240" class="edge"><title>G06&#45;&gt;G021</title>
<path fill="none" stroke="#00377f" stroke-width="4" d="M481.006,-848.573C503.017,-858.878 534.741,-871.032 564,-876.143 664.01,-893.613 703.154,-911.271 792,-862.143 838.053,-836.678 825.427,-803.942 864,-768.143 894.359,-739.967 911.83,-745.521 942,-717.143 976.686,-684.518 1008.28,-639.974 1028.81,-607.338"/>
<polygon fill="#00377f" stroke="#00377f" points="1032.01,-608.813 1034.3,-598.469 1026.06,-605.128 1032.01,-608.813"/>
</g>
<!-- G020 -->
<g id="node50" class="node"><title>G020</title>
<ellipse fill="none" stroke="black" stroke-width="2" cx="903" cy="-460.143" rx="38.8909" ry="38.8909"/>
<text text-anchor="middle" x="903" y="-456.543" font-family="Times Roman,serif" font-size="14.00">G020</text>
</g>
<!-- G06&#45;&gt;G020 -->
<g id="edge246" class="edge"><title>G06&#45;&gt;G020</title>
<path fill="none" stroke="#00bc7f" stroke-width="4" d="M485.734,-833.834C566.05,-837.679 768.078,-845.4 792,-827.143 817.911,-807.369 869.149,-603.024 891.792,-508.111"/>
<polygon fill="#00bc7f" stroke="#00bc7f" points="895.243,-508.724 894.15,-498.186 888.433,-507.105 895.243,-508.724"/>
</g>
<!-- G014 -->
<g id="node56" class="node"><title>G014</title>
<ellipse fill="none" stroke="black" stroke-width="2" cx="753" cy="-513.143" rx="38.8909" ry="38.8909"/>
<text text-anchor="middle" x="753" y="-509.543" font-family="Times Roman,serif" font-size="14.00">G014</text>
</g>
<!-- G06&#45;&gt;G014 -->
<g id="edge242" class="edge"><title>G06&#45;&gt;G014</title>
<path fill="none" stroke="#00797f" stroke-width="4" d="M485.445,-828.758C526.662,-822.856 597.741,-807.099 642,-766.143 650.143,-758.608 704.511,-629.775 734.023,-558.939"/>
<polygon fill="#00797f" stroke="#00797f" points="737.403,-559.924 738.014,-549.347 730.941,-557.235 737.403,-559.924"/>
</g>
<!-- G017 -->
<g id="node59" class="node"><title>G017</title>
<ellipse fill="none" stroke="black" stroke-width="2" cx="903" cy="-670.143" rx="38.8909" ry="38.8909"/>
<text text-anchor="middle" x="903" y="-666.543" font-family="Times Roman,serif" font-size="14.00">G017</text>
</g>
<!-- G06&#45;&gt;G017 -->
<g id="edge230" class="edge"><title>G06&#45;&gt;G017</title>
<path fill="none" stroke="#90007f" stroke-width="4" d="M483.886,-843.13C547.061,-863.54 693.391,-900.061 792,-840.143 816.8,-825.074 855.617,-759.062 880.161,-713.873"/>
<polygon fill="#90007f" stroke="#90007f" points="883.359,-715.317 885.022,-704.853 877.197,-711.996 883.359,-715.317"/>
</g>
<!-- G019&#45;&gt;G022 -->
<g id="edge88" class="edge"><title>G019&#45;&gt;G022</title>
<path fill="none" stroke="#7f0063" stroke-width="4" d="M791.699,-779.434C860.261,-767.467 1004.1,-733.782 1092,-652.143 1144.03,-603.824 1174.89,-525.786 1190.39,-475.744"/>
<polygon fill="#7f0063" stroke="#7f0063" points="1193.75,-476.71 1193.29,-466.126 1187.05,-474.691 1193.75,-476.71"/>
</g>
<!-- G019&#45;&gt;G0T -->
<g id="edge86" class="edge"><title>G019&#45;&gt;G0T</title>
<path fill="none" stroke="black" stroke-width="4" d="M790.318,-797.211C878.195,-823.149 1101.33,-874.282 1242,-776.143 1280.74,-749.113 1319.17,-616.363 1336.88,-547.605"/>
<polygon fill="black" stroke="black" points="1340.36,-548.1 1339.44,-537.545 1333.58,-546.373 1340.36,-548.1"/>
</g>
<!-- G019&#45;&gt;G020 -->
<g id="edge90" class="edge"><title>G019&#45;&gt;G020</title>
<path fill="none" stroke="black" stroke-width="4" d="M769.482,-749.433C796.974,-689.867 852.135,-570.35 882.238,-505.128"/>
<polygon fill="black" stroke="black" points="885.478,-506.459 886.491,-495.913 879.123,-503.526 885.478,-506.459"/>
</g>
<!-- G04&#45;&gt;G08 -->
<g id="edge100" class="edge"><title>G04&#45;&gt;G08</title>
<path fill="none" stroke="#00797f" stroke-width="4" d="M336.424,-347.622C359.345,-332.978 392.202,-311.987 417.195,-296.019"/>
<polygon fill="#00797f" stroke="#00797f" points="419.135,-298.932 425.678,-290.599 415.366,-293.034 419.135,-298.932"/>
</g>
<!-- G04&#45;&gt;G015 -->
<g id="edge102" class="edge"><title>G04&#45;&gt;G015</title>
<path fill="none" stroke="#007f37" stroke-width="4" d="M338.204,-379.915C358.675,-390.638 387.084,-404.346 414,-411.143 460.315,-422.84 514.958,-424.801 553.545,-424.86"/>
<polygon fill="#007f37" stroke="#007f37" points="553.992,-428.359 563.983,-424.833 553.973,-421.359 553.992,-428.359"/>
</g>
<!-- G04&#45;&gt;G015 -->
<g id="edge104" class="edge"><title>G04&#45;&gt;G015</title>
<path fill="none" stroke="#7f0021" stroke-width="4" d="M335.58,-384.288C356.202,-396.433 385.914,-411.05 414,-418.143 460.315,-429.84 514.958,-431.801 553.545,-430.579"/>
<polygon fill="#7f0021" stroke="#7f0021" points="554.133,-434.058 563.983,-430.156 553.849,-427.064 554.133,-434.058"/>
</g>
<!-- G04&#45;&gt;G09 -->
<g id="edge108" class="edge"><title>G04&#45;&gt;G09</title>
<path fill="none" stroke="black" stroke-width="4" d="M332.421,-387.5C336.006,-391.766 339.379,-396.392 342,-401.143 400.744,-507.634 325.298,-581.938 414,-665.143 439.81,-689.354 457.895,-671.701 492,-681.143 515.961,-687.777 542.231,-696.92 563.197,-704.685"/>
<polygon fill="black" stroke="black" points="562.137,-708.026 572.729,-708.256 564.593,-701.471 562.137,-708.026"/>
</g>
<!-- G04&#45;&gt;G0T -->
<g id="edge96" class="edge"><title>G04&#45;&gt;G0T</title>
<path fill="none" stroke="black" stroke-width="4" d="M311.126,-333.134C316.846,-274.586 337.798,-150.537 414,-88.1433 532.155,8.60033 600.291,-32.1433 753,-32.1433 753,-32.1433 753,-32.1433 1053,-32.1433 1138.35,-32.1433 1179.98,-7.51431 1242,-66.1433 1299.88,-120.852 1331.95,-365.06 1342.78,-464.155"/>
<polygon fill="black" stroke="black" points="1339.3,-464.547 1343.85,-474.116 1346.26,-463.799 1339.3,-464.547"/>
</g>
<!-- G04&#45;&gt;G017 -->
<g id="edge94" class="edge"><title>G04&#45;&gt;G017</title>
<path fill="none" stroke="#00bc7f" stroke-width="4" d="M335.564,-383.593C356.178,-397.213 385.886,-415.356 414,-427.143 477.63,-453.821 497.042,-450.495 564,-467.143 598.527,-475.728 611.458,-466.897 642,-485.143 683.635,-510.017 675.747,-537.329 714,-567.143 744.729,-591.093 757.718,-588.635 792,-607.143 814.76,-619.431 839.841,-633.611 860.396,-645.403"/>
<polygon fill="#00bc7f" stroke="#00bc7f" points="858.788,-648.516 869.201,-650.467 862.278,-642.448 858.788,-648.516"/>
</g>
<!-- G013 -->
<g id="node72" class="node"><title>G013</title>
<ellipse fill="none" stroke="black" stroke-width="2" cx="603" cy="-196.143" rx="38.8909" ry="38.8909"/>
<text text-anchor="middle" x="603" y="-192.543" font-family="Times Roman,serif" font-size="14.00">G013</text>
</g>
<!-- G04&#45;&gt;G013 -->
<g id="edge98" class="edge"><title>G04&#45;&gt;G013</title>
<path fill="none" stroke="#7f00a6" stroke-width="4" d="M324.515,-336.686C342.195,-307.068 373.905,-261.655 414,-237.143 456.56,-211.125 513.376,-201.497 553.567,-197.998"/>
<polygon fill="#7f00a6" stroke="#7f00a6" points="553.964,-201.478 563.664,-197.217 553.424,-194.499 553.964,-201.478"/>
</g>
<!-- G010 -->
<g id="node77" class="node"><title>G010</title>
<ellipse fill="none" stroke="black" stroke-width="2" cx="453" cy="-372.143" rx="38.8909" ry="38.8909"/>
<text text-anchor="middle" x="453" y="-368.543" font-family="Times Roman,serif" font-size="14.00">G010</text>
</g>
<!-- G04&#45;&gt;G010 -->
<g id="edge106" class="edge"><title>G04&#45;&gt;G010</title>
<path fill="none" stroke="#90007f" stroke-width="4" d="M341.676,-366.732C359.991,-367.622 383.202,-368.75 403.685,-369.746"/>
<polygon fill="#90007f" stroke="#90007f" points="403.639,-373.248 413.797,-370.238 403.979,-366.256 403.639,-373.248"/>
</g>
<!-- G02&#45;&gt;G012 -->
<g id="edge204" class="edge"><title>G02&#45;&gt;G012</title>
<path fill="none" stroke="#007f37" stroke-width="4" d="M332.269,-413.096C335.788,-408.977 339.178,-404.578 342,-400.143 366.442,-361.728 411.493,-244.054 436.014,-177.775"/>
<polygon fill="#007f37" stroke="#007f37" points="439.446,-178.585 439.623,-167.992 432.878,-176.163 439.446,-178.585"/>
</g>
<!-- G02&#45;&gt;G07 -->
<g id="edge206" class="edge"><title>G02&#45;&gt;G07</title>
<path fill="none" stroke="#00797f" stroke-width="4" d="M328.42,-462.172C354.043,-496.513 399.198,-557.034 427.533,-595.011"/>
<polygon fill="#00797f" stroke="#00797f" points="424.872,-597.297 433.658,-603.219 430.483,-593.111 424.872,-597.297"/>
</g>
<!-- G02&#45;&gt;G08 -->
<g id="edge208" class="edge"><title>G02&#45;&gt;G08</title>
<path fill="none" stroke="#90007f" stroke-width="4" d="M331.091,-412.203C334.751,-408.191 338.494,-404.06 342,-400.143 370.673,-368.11 402.965,-331.05 425.296,-305.263"/>
<polygon fill="#90007f" stroke="#90007f" points="427.995,-307.493 431.891,-297.64 422.701,-302.913 427.995,-307.493"/>
</g>
<!-- G02&#45;&gt;G09 -->
<g id="edge212" class="edge"><title>G02&#45;&gt;G09</title>
<path fill="none" stroke="black" stroke-width="4" d="M313.45,-467.945C322.506,-520.183 348.128,-623.771 414,-678.143 415.441,-679.333 506.177,-699.157 561.387,-711.139"/>
<polygon fill="black" stroke="black" points="560.739,-714.579 571.253,-713.278 562.222,-707.738 560.739,-714.579"/>
</g>
<!-- G02&#45;&gt;G0T -->
<g id="edge202" class="edge"><title>G02&#45;&gt;G0T</title>
<path fill="none" stroke="black" stroke-width="4" d="M341.626,-435.375C378.671,-433.822 440.63,-429.152 492,-415.143 525.784,-405.93 531.268,-395.588 564,-383.143 711.806,-326.948 744.872,-275.143 903,-275.143 903,-275.143 903,-275.143 1053,-275.143 1177.61,-275.143 1280.66,-405.041 1324.41,-470.02"/>
<polygon fill="black" stroke="black" points="1321.75,-472.334 1330.19,-478.737 1327.58,-468.468 1321.75,-472.334"/>
</g>
<!-- G02&#45;&gt;G010 -->
<g id="edge210" class="edge"><title>G02&#45;&gt;G010</title>
<path fill="none" stroke="#7f00a6" stroke-width="4" d="M338.837,-422.882C358.804,-414.008 385.45,-402.165 407.977,-392.153"/>
<polygon fill="#7f00a6" stroke="#7f00a6" points="409.632,-395.248 417.348,-387.989 406.789,-388.852 409.632,-395.248"/>
</g>
<!-- G012&#45;&gt;G022 -->
<g id="edge196" class="edge"><title>G012&#45;&gt;G022</title>
<path fill="none" stroke="#007f37" stroke-width="4" d="M491.329,-123.023C529.739,-119.31 590.41,-118.298 642,-127.143 849.925,-162.794 919.966,-156.043 1092,-278.143 1130.58,-305.528 1162.17,-350.158 1181.65,-383.703"/>
<polygon fill="#007f37" stroke="#007f37" points="1178.61,-385.432 1186.58,-392.411 1184.7,-381.984 1178.61,-385.432"/>
</g>
<!-- G012&#45;&gt;G022 -->
<g id="edge198" class="edge"><title>G012&#45;&gt;G022</title>
<path fill="none" stroke="#7f00a6" stroke-width="4" d="M492.054,-128.292C530.499,-126.298 590.734,-125.353 642,-134.143 849.925,-169.794 919.966,-163.043 1092,-285.143 1128.9,-311.33 1159.4,-353.288 1179.03,-384.997"/>
<polygon fill="#7f00a6" stroke="#7f00a6" points="1176.1,-386.911 1184.27,-393.647 1182.08,-383.282 1176.1,-386.911"/>
</g>
<!-- G012&#45;&gt;G022 -->
<g id="edge200" class="edge"><title>G012&#45;&gt;G022</title>
<path fill="none" stroke="#7f0021" stroke-width="4" d="M492.054,-133.631C530.499,-133.298 590.734,-132.353 642,-141.143 849.925,-176.794 919.966,-170.043 1092,-292.143 1127.22,-317.142 1156.62,-356.514 1176.29,-386.538"/>
<polygon fill="#7f0021" stroke="#7f0021" points="1173.47,-388.622 1181.83,-395.133 1179.35,-384.831 1173.47,-388.622"/>
</g>
<!-- G012&#45;&gt;G0T -->
<g id="edge190" class="edge"><title>G012&#45;&gt;G0T</title>
<path fill="none" stroke="black" stroke-width="4" d="M490.452,-119.333C546.807,-102.637 657.043,-74.1433 753,-74.1433 753,-74.1433 753,-74.1433 1053,-74.1433 1137.85,-74.1433 1178.74,-44.5885 1242,-101.143 1296.28,-149.673 1329.94,-370.583 1341.99,-464.112"/>
<polygon fill="black" stroke="black" points="1338.52,-464.598 1343.25,-474.078 1345.46,-463.717 1338.52,-464.598"/>
</g>
<!-- G012&#45;&gt;G021 -->
<g id="edge194" class="edge"><title>G012&#45;&gt;G021</title>
<path fill="none" stroke="#90007f" stroke-width="4" d="M492.128,-129.748C531.419,-129.695 592.997,-133.337 642,-153.143 679.334,-168.233 681.124,-184.891 714,-208.143 812.832,-278.044 860.189,-267.92 942,-357.143 985.648,-404.746 1017.77,-472.677 1035.93,-517.564"/>
<polygon fill="#90007f" stroke="#90007f" points="1032.75,-519.053 1039.7,-527.055 1039.26,-516.47 1032.75,-519.053"/>
</g>
<!-- G012&#45;&gt;G013 -->
<g id="edge192" class="edge"><title>G012&#45;&gt;G013</title>
<path fill="none" stroke="black" stroke-width="4" d="M488.929,-146.712C509.633,-155.684 535.848,-167.044 557.925,-176.611"/>
<polygon fill="black" stroke="black" points="556.538,-179.824 567.105,-180.589 559.321,-173.401 556.538,-179.824"/>
</g>
<!-- G022&#45;&gt;G0T -->
<g id="edge92" class="edge"><title>G022&#45;&gt;G0T</title>
<path fill="none" stroke="black" stroke-width="4" d="M1237.49,-446.826C1259.14,-458.551 1287.06,-473.676 1309.29,-485.718"/>
<polygon fill="black" stroke="black" points="1307.66,-488.817 1318.12,-490.502 1311,-482.662 1307.66,-488.817"/>
</g>
<!-- G07&#45;&gt;G019 -->
<g id="edge46" class="edge"><title>G07&#45;&gt;G019</title>
<path fill="none" stroke="#7f00a6" stroke-width="4" d="M483.829,-640.653C505.955,-648.678 536.581,-659.309 564,-667.143 598.209,-676.918 610.444,-668.712 642,-685.143 672.046,-700.788 700.325,-726.496 720.82,-747.929"/>
<polygon fill="#7f00a6" stroke="#7f00a6" points="718.343,-750.404 727.735,-755.308 723.451,-745.618 718.343,-750.404"/>
</g>
<!-- G07&#45;&gt;G022 -->
<g id="edge54" class="edge"><title>G07&#45;&gt;G022</title>
<path fill="none" stroke="#00377f" stroke-width="4" d="M484.595,-620.179C536.742,-607.086 635.734,-584.029 642,-579.143 695.624,-537.329 659.292,-484.529 714,-444.143 782.617,-393.49 1044.38,-410.602 1154.13,-421.79"/>
<polygon fill="#00377f" stroke="#00377f" points="1153.95,-425.29 1164.26,-422.851 1154.68,-418.328 1153.95,-425.29"/>
</g>
<!-- G07&#45;&gt;G022 -->
<g id="edge56" class="edge"><title>G07&#45;&gt;G022</title>
<path fill="none" stroke="#007f00" stroke-width="4" d="M485.431,-624.241C537.793,-613.842 635.767,-591.003 642,-586.143 695.624,-544.329 659.292,-491.529 714,-451.143 782.535,-400.551 1043.75,-417.561 1153.73,-425.385"/>
<polygon fill="#007f00" stroke="#007f00" points="1153.66,-428.889 1163.89,-426.11 1154.16,-421.907 1153.66,-428.889"/>
</g>
<!-- G07&#45;&gt;G018 -->
<g id="edge58" class="edge"><title>G07&#45;&gt;G018</title>
<path fill="none" stroke="#90007f" stroke-width="4" d="M480.862,-612.612C503.22,-599.346 534.976,-580.504 560.503,-565.358"/>
<polygon fill="#90007f" stroke="#90007f" points="562.433,-568.283 569.247,-560.17 558.861,-562.263 562.433,-568.283"/>
</g>
<!-- G07&#45;&gt;G09 -->
<g id="edge62" class="edge"><title>G07&#45;&gt;G09</title>
<path fill="none" stroke="black" stroke-width="4" d="M480.862,-646.046C505.068,-660.731 540.291,-682.1 566.698,-698.12"/>
<polygon fill="black" stroke="black" points="564.922,-701.136 575.287,-703.331 568.553,-695.151 564.922,-701.136"/>
</g>
<!-- G07&#45;&gt;G0T -->
<g id="edge44" class="edge"><title>G07&#45;&gt;G0T</title>
<path fill="none" stroke="black" stroke-width="4" d="M484.96,-635.235C522.696,-642.622 587.256,-655.868 642,-670.143 674.378,-678.586 681.477,-684.277 714,-692.143 779.839,-708.068 796.53,-713.119 864,-719.143 898.529,-722.226 907.442,-721.89 942,-719.143 1009.3,-713.793 1027.03,-713.496 1092,-695.143 1161.42,-675.534 1183.96,-675.988 1242,-633.143 1275.89,-608.12 1305.54,-569.86 1324.61,-541.872"/>
<polygon fill="black" stroke="black" points="1327.53,-543.8 1330.18,-533.542 1321.71,-539.909 1327.53,-543.8"/>
</g>
<!-- G07&#45;&gt;G021 -->
<g id="edge48" class="edge"><title>G07&#45;&gt;G021</title>
<path fill="none" stroke="#7f0021" stroke-width="4" d="M485.482,-625.068C523.169,-621.891 587.157,-617.574 642,-612.143 711.225,-605.289 910.608,-579.66 1003.84,-568.849"/>
<polygon fill="#7f0021" stroke="#7f0021" points="1004.33,-572.316 1013.87,-567.697 1003.53,-565.361 1004.33,-572.316"/>
</g>
<!-- G07&#45;&gt;G021 -->
<g id="edge50" class="edge"><title>G07&#45;&gt;G021</title>
<path fill="none" stroke="#00bc7f" stroke-width="4" d="M485.821,-630.096C523.551,-628.866 587.32,-624.558 642,-619.143 711.397,-612.272 911.602,-586.532 1004.54,-572.723"/>
<polygon fill="#00bc7f" stroke="#00bc7f" points="1005.16,-576.17 1014.52,-571.222 1004.11,-569.247 1005.16,-576.17"/>
</g>
<!-- G016 -->
<g id="node45" class="node"><title>G016</title>
<ellipse fill="none" stroke="black" stroke-width="2" cx="753" cy="-649.143" rx="38.8909" ry="38.8909"/>
<text text-anchor="middle" x="753" y="-645.543" font-family="Times Roman,serif" font-size="14.00">G016</text>
</g>
<!-- G07&#45;&gt;G016 -->
<g id="edge52" class="edge"><title>G07&#45;&gt;G016</title>
<path fill="none" stroke="#00797f" stroke-width="4" d="M485.537,-631.562C507.658,-633.188 537.591,-635.353 564,-637.143 611.375,-640.354 665.449,-643.762 703.585,-646.122"/>
<polygon fill="#00797f" stroke="#00797f" points="703.704,-649.636 713.9,-646.758 704.135,-642.649 703.704,-649.636"/>
</g>
<!-- G07&#45;&gt;G020 -->
<g id="edge60" class="edge"><title>G07&#45;&gt;G020</title>
<path fill="none" stroke="#007f37" stroke-width="4" d="M485.808,-627.745C533.063,-625.16 617.327,-618.243 642,-601.143 696.285,-563.521 658.096,-506.315 714,-471.143 755.932,-444.762 814.005,-445.633 854.676,-450.81"/>
<polygon fill="#007f37" stroke="#007f37" points="854.232,-454.282 864.621,-452.205 855.204,-447.35 854.232,-454.282"/>
</g>
<!-- G03&#45;&gt;G04 -->
<g id="edge66" class="edge"><title>G03&#45;&gt;G04</title>
<path fill="none" stroke="black" stroke-width="4" d="M201.97,-329.467C221.59,-336.007 247.176,-344.535 268.412,-351.614"/>
<polygon fill="black" stroke="black" points="267.54,-355.012 278.133,-354.854 269.753,-348.372 267.54,-355.012"/>
</g>
<!-- G03&#45;&gt;G012 -->
<g id="edge68" class="edge"><title>G03&#45;&gt;G012</title>
<path fill="none" stroke="#7f00a6" stroke-width="4" d="M198.039,-301.117C247.605,-268.074 353.286,-197.619 411.828,-158.591"/>
<polygon fill="#7f00a6" stroke="#7f00a6" points="414.078,-161.298 420.457,-152.838 410.195,-155.473 414.078,-161.298"/>
</g>
<!-- G03&#45;&gt;G0T -->
<g id="edge64" class="edge"><title>G03&#45;&gt;G0T</title>
<path fill="none" stroke="black" stroke-width="4" d="M182.159,-289.082C212.675,-212.695 305.226,-17.1433 453,-17.1433 453,-17.1433 453,-17.1433 1053,-17.1433 1137.12,-17.1433 1177.88,27.2992 1242,-27.1433 1308.65,-83.7343 1335.94,-357.899 1344.13,-464.048"/>
<polygon fill="black" stroke="black" points="1340.64,-464.37 1344.88,-474.079 1347.62,-463.845 1340.64,-464.37"/>
</g>
<!-- G03&#45;&gt;G014 -->
<g id="edge70" class="edge"><title>G03&#45;&gt;G014</title>
<path fill="none" stroke="#007f37" stroke-width="4" d="M203.569,-316.059C261.806,-313.052 387.478,-311.621 492,-327.143 560.248,-337.278 584.502,-329.005 642,-367.143 680.543,-392.708 711.454,-436.137 730.77,-469.013"/>
<polygon fill="#007f37" stroke="#007f37" points="727.9,-471.044 735.908,-477.982 733.974,-467.565 727.9,-471.044"/>
</g>
<!-- G03&#45;&gt;G014 -->
<g id="edge72" class="edge"><title>G03&#45;&gt;G014</title>
<path fill="none" stroke="#7f0021" stroke-width="4" d="M203.569,-320.22C261.806,-320.052 387.478,-318.621 492,-334.143 560.248,-344.278 584.502,-336.005 642,-374.143 678.829,-398.571 708.689,-439.31 728.124,-470.406"/>
<polygon fill="#7f0021" stroke="#7f0021" points="725.367,-472.605 733.572,-479.308 731.338,-468.952 725.367,-472.605"/>
</g>
<!-- G01&#45;&gt;G06 -->
<g id="edge184" class="edge"><title>G01&#45;&gt;G06</title>
<path fill="none" stroke="#00797f" stroke-width="4" d="M326.498,-679.344C346.239,-709.222 380.043,-758.023 414,-796.143 416.206,-798.62 418.564,-801.112 420.985,-803.567"/>
<polygon fill="#00797f" stroke="#00797f" points="418.757,-806.283 428.359,-810.762 423.646,-801.273 418.757,-806.283"/>
</g>
<!-- G01&#45;&gt;G07 -->
<g id="edge186" class="edge"><title>G01&#45;&gt;G07</title>
<path fill="none" stroke="#90007f" stroke-width="4" d="M341.316,-646.982C361.79,-643.712 388.488,-639.447 410.648,-635.908"/>
<polygon fill="#90007f" stroke="#90007f" points="411.469,-639.321 420.791,-634.288 410.365,-632.409 411.469,-639.321"/>
</g>
<!-- G01&#45;&gt;G09 -->
<g id="edge188" class="edge"><title>G01&#45;&gt;G09</title>
<path fill="none" stroke="black" stroke-width="4" d="M338.712,-665.869C359.41,-674.899 387.881,-686.277 414,-693.143 463.226,-706.085 521.402,-713.216 560.078,-716.85"/>
<polygon fill="black" stroke="black" points="560.172,-720.373 570.446,-717.784 560.8,-713.401 560.172,-720.373"/>
</g>
<!-- G01&#45;&gt;G0T -->
<g id="edge182" class="edge"><title>G01&#45;&gt;G0T</title>
<path fill="none" stroke="black" stroke-width="4" d="M317.543,-683.178C343.858,-771.203 432.411,-1016.14 603,-1016.14 603,-1016.14 603,-1016.14 1053,-1016.14 1110.02,-1016.14 1204.61,-992.531 1242,-950.143 1295.08,-889.965 1329.91,-646.911 1342.13,-548.161"/>
<polygon fill="black" stroke="black" points="1345.64,-548.307 1343.38,-537.957 1338.69,-547.459 1345.64,-548.307"/>
</g>
<!-- G011&#45;&gt;G019 -->
<g id="edge216" class="edge"><title>G011&#45;&gt;G019</title>
<path fill="none" stroke="#00797f" stroke-width="4" d="M630.512,-908.448C655.174,-883.621 691.473,-847.081 718.155,-820.22"/>
<polygon fill="#00797f" stroke="#00797f" points="720.844,-822.48 725.409,-812.919 715.878,-817.547 720.844,-822.48"/>
</g>
<!-- G011&#45;&gt;G022 -->
<g id="edge220" class="edge"><title>G011&#45;&gt;G022</title>
<path fill="none" stroke="#007f37" stroke-width="4" d="M641.131,-926.955C680.178,-921.709 742.056,-914.417 792,-895.143 946.747,-835.425 992.504,-805.859 1092,-673.143 1138.39,-611.263 1170.18,-526.989 1187.49,-475.019"/>
<polygon fill="#007f37" stroke="#007f37" points="1190.85,-475.981 1190.65,-465.388 1184.2,-473.796 1190.85,-475.981"/>
</g>
<!-- G011&#45;&gt;G022 -->
<g id="edge222" class="edge"><title>G011&#45;&gt;G022</title>
<path fill="none" stroke="#00bc7f" stroke-width="4" d="M641.862,-932.148C680.946,-928.618 742.366,-921.297 792,-902.143 946.747,-842.425 992.504,-812.859 1092,-680.143 1139.75,-616.449 1172.04,-529.027 1188.97,-475.662"/>
<polygon fill="#00bc7f" stroke="#00bc7f" points="1192.42,-476.372 1192.05,-465.784 1185.73,-474.287 1192.42,-476.372"/>
</g>
<!-- G011&#45;&gt;G022 -->
<g id="edge224" class="edge"><title>G011&#45;&gt;G022</title>
<path fill="none" stroke="#7f00a6" stroke-width="4" d="M642.229,-937.422C681.33,-935.572 742.521,-928.238 792,-909.143 946.747,-849.425 992.504,-819.859 1092,-687.143 1141.21,-621.498 1174,-530.65 1190.48,-475.809"/>
<polygon fill="#7f00a6" stroke="#7f00a6" points="1193.9,-476.584 1193.37,-466.002 1187.19,-474.606 1193.9,-476.584"/>
</g>
<!-- G011&#45;&gt;G022 -->
<g id="edge226" class="edge"><title>G011&#45;&gt;G022</title>
<path fill="none" stroke="#7f0021" stroke-width="4" d="M641.496,-942.731C680.563,-942.664 742.211,-935.357 792,-916.143 946.747,-856.425 992.504,-826.859 1092,-694.143 1142.55,-626.722 1175.76,-532.715 1191.79,-476.22"/>
<polygon fill="#7f0021" stroke="#7f0021" points="1195.19,-477.035 1194.49,-466.463 1188.45,-475.167 1195.19,-477.035"/>
</g>
<!-- G011&#45;&gt;G0T -->
<g id="edge214" class="edge"><title>G011&#45;&gt;G0T</title>
<path fill="none" stroke="black" stroke-width="4" d="M642.289,-938.932C699.58,-942.752 809.423,-949.143 903,-949.143 903,-949.143 903,-949.143 1053,-949.143 1153.22,-949.143 1180.91,-905.596 1242,-826.143 1307.46,-741.005 1333.04,-613.309 1342.27,-547.95"/>
<polygon fill="black" stroke="black" points="1345.74,-548.391 1343.61,-538.012 1338.8,-547.453 1345.74,-548.391"/>
</g>
<!-- G011&#45;&gt;G021 -->
<g id="edge218" class="edge"><title>G011&#45;&gt;G021</title>
<path fill="none" stroke="#90007f" stroke-width="4" d="M641.297,-927.516C694.552,-915.447 785.247,-894.607 792,-891.143 870.497,-850.882 886.192,-829.467 942,-761.143 980.672,-713.798 1013.37,-651.159 1033.05,-609.35"/>
<polygon fill="#90007f" stroke="#90007f" points="1036.24,-610.781 1037.29,-600.237 1029.9,-607.828 1036.24,-610.781"/>
</g>
<!-- G011&#45;&gt;G014 -->
<g id="edge228" class="edge"><title>G011&#45;&gt;G014</title>
<path fill="none" stroke="black" stroke-width="4" d="M614.671,-898.849C634.06,-837.543 674.677,-711.823 714,-607.143 720.02,-591.118 727.07,-573.758 733.507,-558.369"/>
<polygon fill="black" stroke="black" points="736.767,-559.646 737.422,-549.072 730.316,-556.93 736.767,-559.646"/>
</g>
<!-- G08&#45;&gt;G022 -->
<g id="edge276" class="edge"><title>G08&#45;&gt;G022</title>
<path fill="none" stroke="#00bc7f" stroke-width="4" d="M485.079,-267.981C581.244,-259.031 873.945,-252.592 1092,-342.143 1120.33,-353.776 1148.39,-373.847 1169.21,-391.752"/>
<polygon fill="#00bc7f" stroke="#00bc7f" points="1167.02,-394.481 1176.82,-398.485 1171.65,-389.238 1167.02,-394.481"/>
</g>
<!-- G08&#45;&gt;G022 -->
<g id="edge278" class="edge"><title>G08&#45;&gt;G022</title>
<path fill="none" stroke="#00377f" stroke-width="4" d="M485.766,-271.026C582.631,-266.001 874.461,-259.804 1092,-349.143 1118.85,-360.17 1145.46,-378.777 1165.9,-395.164"/>
<polygon fill="#00377f" stroke="#00377f" points="1163.74,-397.921 1173.69,-401.549 1168.18,-392.505 1163.74,-397.921"/>
</g>
<!-- G08&#45;&gt;G022 -->
<g id="edge280" class="edge"><title>G08&#45;&gt;G022</title>
<path fill="none" stroke="#007f00" stroke-width="4" d="M485.766,-274.134C582.631,-273.001 874.461,-266.804 1092,-356.143 1117.58,-366.647 1142.94,-384.03 1162.95,-399.153"/>
<polygon fill="#007f00" stroke="#007f00" points="1160.84,-401.944 1170.9,-405.252 1165.1,-396.389 1160.84,-401.944"/>
</g>
<!-- G08&#45;&gt;G018 -->
<g id="edge282" class="edge"><title>G08&#45;&gt;G018</title>
<path fill="none" stroke="#90007f" stroke-width="4" d="M471.923,-299.392C478.53,-308.915 485.83,-319.862 492,-330.143 527.595,-389.462 531.525,-407.06 564,-468.143 568.956,-477.465 574.319,-487.438 579.435,-496.899"/>
<polygon fill="#90007f" stroke="#90007f" points="576.403,-498.65 584.244,-505.776 582.558,-495.316 576.403,-498.65"/>
</g>
<!-- G08&#45;&gt;G09 -->
<g id="edge286" class="edge"><title>G08&#45;&gt;G09</title>
<path fill="none" stroke="black" stroke-width="4" d="M472.922,-298.469C479.701,-307.994 486.856,-319.179 492,-330.143 492,-330.143 562.984,-579.546 591.422,-679.465"/>
<polygon fill="black" stroke="black" points="588.093,-680.555 594.197,-689.215 594.826,-678.638 588.093,-680.555"/>
</g>
<!-- G08&#45;&gt;G0T -->
<g id="edge270" class="edge"><title>G08&#45;&gt;G0T</title>
<path fill="none" stroke="black" stroke-width="4" d="M467.263,-244.319C485.033,-211.846 518.672,-160.437 564,-136.143 697.387,-64.6554 751.664,-104.143 903,-104.143 903,-104.143 903,-104.143 1053,-104.143 1138.51,-104.143 1178.84,-82.4962 1242,-140.143 1290.21,-184.145 1326.52,-378.041 1340.6,-464.4"/>
<polygon fill="black" stroke="black" points="1337.17,-465.064 1342.21,-474.381 1344.08,-463.952 1337.17,-465.064"/>
</g>
<!-- G08&#45;&gt;G021 -->
<g id="edge272" class="edge"><title>G08&#45;&gt;G021</title>
<path fill="none" stroke="#007f37" stroke-width="4" d="M485.749,-271.079C523.683,-270.885 587.899,-273.636 642,-284.143 784.822,-311.881 831.957,-319.968 942,-415.143 977.221,-445.606 1008.43,-488.913 1028.71,-521.006"/>
<polygon fill="#007f37" stroke="#007f37" points="1025.89,-523.092 1034.13,-529.74 1031.83,-519.399 1025.89,-523.092"/>
</g>
<!-- G08&#45;&gt;G021 -->
<g id="edge274" class="edge"><title>G08&#45;&gt;G021</title>
<path fill="none" stroke="#7f0021" stroke-width="4" d="M485.41,-276.103C523.299,-277.869 587.738,-280.605 642,-291.143 784.822,-318.881 831.957,-326.968 942,-422.143 975.646,-451.244 1005.63,-492.065 1025.92,-522.497"/>
<polygon fill="#7f0021" stroke="#7f0021" points="1023.22,-524.757 1031.64,-531.184 1029.07,-520.907 1023.22,-524.757"/>
</g>
<!-- G08&#45;&gt;G020 -->
<g id="edge284" class="edge"><title>G08&#45;&gt;G020</title>
<path fill="none" stroke="#7f00a6" stroke-width="4" d="M485.578,-275.143C523.903,-278.25 589.021,-285.912 642,-304.143 713.843,-328.866 726.995,-346.811 792,-386.143 815.86,-400.58 841.831,-417.807 862.65,-432.006"/>
<polygon fill="#7f00a6" stroke="#7f00a6" points="860.714,-434.923 870.942,-437.687 864.67,-429.148 860.714,-434.923"/>
</g>
<!-- G08&#45;&gt;G017 -->
<g id="edge268" class="edge"><title>G08&#45;&gt;G017</title>
<path fill="none" stroke="#00797f" stroke-width="4" d="M484.103,-282.452C522.683,-294.704 589.748,-318.347 642,-349.143 716.032,-392.776 736.746,-405.329 792,-471.143 831.728,-518.465 864.297,-582.118 883.655,-624.56"/>
<polygon fill="#00797f" stroke="#00797f" points="880.522,-626.127 887.817,-633.809 886.905,-623.254 880.522,-626.127"/>
</g>
<!-- G018&#45;&gt;G019 -->
<g id="edge124" class="edge"><title>G018&#45;&gt;G019</title>
<path fill="none" stroke="black" stroke-width="4" d="M623.386,-573.44C650.307,-617.411 697.733,-694.874 727.145,-742.913"/>
<polygon fill="black" stroke="black" points="724.212,-744.825 732.418,-751.526 730.182,-741.17 724.212,-744.825"/>
</g>
<!-- G018&#45;&gt;G022 -->
<g id="edge126" class="edge"><title>G018&#45;&gt;G022</title>
<path fill="none" stroke="#00797f" stroke-width="4" d="M625.607,-508.041C645.742,-481.998 677.593,-446.536 714,-427.143 862.683,-347.946 924.913,-377.677 1092,-399.143 1113.46,-401.901 1136.7,-407.541 1156.34,-413.12"/>
<polygon fill="#00797f" stroke="#00797f" points="1155.38,-416.486 1165.96,-415.929 1157.34,-409.767 1155.38,-416.486"/>
</g>
<!-- G018&#45;&gt;G0T -->
<g id="edge122" class="edge"><title>G018&#45;&gt;G0T</title>
<path fill="none" stroke="black" stroke-width="4" d="M623.459,-506.664C648.352,-467.114 690.019,-404.928 714,-391.143 772.169,-357.708 797.013,-377.927 864,-374.143 983.815,-367.375 1223.87,-377.478 1242,-386.143 1278.73,-403.706 1307.92,-440.699 1326.1,-468.998"/>
<polygon fill="black" stroke="black" points="1323.36,-471.209 1331.61,-477.845 1329.3,-467.507 1323.36,-471.209"/>
</g>
<!-- G015&#45;&gt;G022 -->
<g id="edge178" class="edge"><title>G015&#45;&gt;G022</title>
<path fill="none" stroke="#7f00a6" stroke-width="4" d="M638.941,-409.656C720.757,-378.54 926.611,-315.282 1092,-360.143 1118.21,-367.254 1144.57,-382.28 1165.02,-396.416"/>
<polygon fill="#7f00a6" stroke="#7f00a6" points="1163.24,-399.439 1173.41,-402.395 1167.3,-393.74 1163.24,-399.439"/>
</g>
<!-- G015&#45;&gt;G022 -->
<g id="edge180" class="edge"><title>G015&#45;&gt;G022</title>
<path fill="none" stroke="#90007f" stroke-width="4" d="M640.176,-412.887C722.812,-384.911 927.437,-322.506 1092,-367.143 1116.97,-373.916 1142.07,-387.872 1162.08,-400.751"/>
<polygon fill="#90007f" stroke="#90007f" points="1160.33,-403.79 1170.6,-406.371 1164.18,-397.945 1160.33,-403.79"/>
</g>
<!-- G015&#45;&gt;G0T -->
<g id="edge172" class="edge"><title>G015&#45;&gt;G0T</title>
<path fill="none" stroke="black" stroke-width="4" d="M622.53,-391.043C664.421,-322.848 769.996,-176.143 903,-176.143 903,-176.143 903,-176.143 1053,-176.143 1146.82,-176.143 1177.1,-202.398 1242,-270.143 1295.51,-326.004 1324.58,-413.738 1337.85,-465.028"/>
<polygon fill="black" stroke="black" points="1334.47,-465.932 1340.3,-474.78 1341.26,-464.229 1334.47,-465.932"/>
</g>
<!-- G015&#45;&gt;G021 -->
<g id="edge174" class="edge"><title>G015&#45;&gt;G021</title>
<path fill="none" stroke="#00797f" stroke-width="4" d="M628.642,-454.633C633.105,-459.794 637.695,-465.119 642,-470.143 674.213,-507.74 669.361,-533.73 714,-555.143 763.761,-579.014 922.455,-572.748 1003.84,-567.684"/>
<polygon fill="#00797f" stroke="#00797f" points="1004.09,-571.176 1013.84,-567.043 1003.64,-564.19 1004.09,-571.176"/>
</g>
<!-- G015&#45;&gt;G016 -->
<g id="edge176" class="edge"><title>G015&#45;&gt;G016</title>
<path fill="none" stroke="black" stroke-width="4" d="M624.811,-457.715C651.473,-497.529 696.61,-564.934 725.592,-608.214"/>
<polygon fill="black" stroke="black" points="722.69,-610.171 731.162,-616.532 728.506,-606.276 722.69,-610.171"/>
</g>
<!-- G09&#45;&gt;G019 -->
<g id="edge116" class="edge"><title>G09&#45;&gt;G019</title>
<path fill="none" stroke="#00797f" stroke-width="4" d="M632.994,-733.141C654.354,-742.397 683.443,-755.002 707.631,-765.483"/>
<polygon fill="#00797f" stroke="#00797f" points="706.408,-768.768 716.975,-769.532 709.191,-762.345 706.408,-768.768"/>
</g>
<!-- G09&#45;&gt;G0T -->
<g id="edge114" class="edge"><title>G09&#45;&gt;G0T</title>
<path fill="none" stroke="black" stroke-width="4" d="M621.73,-746.523C641.501,-772.102 675.148,-809.672 714,-828.143 790.375,-864.454 818.433,-850.143 903,-850.143 903,-850.143 903,-850.143 1053,-850.143 1140,-850.143 1178.05,-858.138 1242,-799.143 1314.42,-732.331 1336.95,-612.04 1343.91,-548.354"/>
<polygon fill="black" stroke="black" points="1347.41,-548.566 1344.94,-538.264 1340.44,-547.859 1347.41,-548.566"/>
</g>
<!-- G09&#45;&gt;G017 -->
<g id="edge110" class="edge"><title>G09&#45;&gt;G017</title>
<path fill="none" stroke="#7f0063" stroke-width="4" d="M634.823,-713.46C672.43,-707.162 736.867,-697.585 792,-688.143 812.401,-684.649 834.845,-680.467 854.181,-676.969"/>
<polygon fill="#7f0063" stroke="#7f0063" points="855.051,-680.368 864.275,-675.156 853.814,-673.478 855.051,-680.368"/>
</g>
<!-- G09&#45;&gt;G017 -->
<g id="edge112" class="edge"><title>G09&#45;&gt;G017</title>
<path fill="none" stroke="black" stroke-width="4" d="M635.496,-718.387C673.195,-714.048 737.194,-704.529 792,-695.143 812.906,-691.563 835.959,-687.26 855.613,-683.182"/>
<polygon fill="black" stroke="black" points="856.495,-686.573 865.551,-681.075 855.043,-679.725 856.495,-686.573"/>
</g>
<!-- G05&#45;&gt;G011 -->
<g id="edge260" class="edge"><title>G05&#45;&gt;G011</title>
<path fill="none" stroke="#90007f" stroke-width="4" d="M477.475,-782.676C482.417,-787.315 487.48,-792.287 492,-797.143 521.589,-828.929 552.163,-867.735 573.713,-896.258"/>
<polygon fill="#90007f" stroke="#90007f" points="571.016,-898.495 579.821,-904.388 576.612,-894.291 571.016,-898.495"/>
</g>
<!-- G05&#45;&gt;G018 -->
<g id="edge262" class="edge"><title>G05&#45;&gt;G018</title>
<path fill="none" stroke="#007f00" stroke-width="4" d="M471.094,-734.486C497.007,-696.306 544.909,-625.731 575.301,-580.953"/>
<polygon fill="#007f00" stroke="#007f00" points="578.229,-582.872 580.949,-572.632 572.437,-578.941 578.229,-582.872"/>
</g>
<!-- G05&#45;&gt;G09 -->
<g id="edge264" class="edge"><title>G05&#45;&gt;G09</title>
<path fill="none" stroke="#00797f" stroke-width="4" d="M484.08,-750.784C506.48,-744.213 536.951,-735.827 561.44,-729.465"/>
<polygon fill="#00797f" stroke="#00797f" points="562.37,-732.84 571.185,-726.961 560.628,-726.06 562.37,-732.84"/>
</g>
<!-- G05&#45;&gt;G09 -->
<g id="edge266" class="edge"><title>G05&#45;&gt;G09</title>
<path fill="none" stroke="black" stroke-width="4" d="M485.179,-754.862C507.877,-749.239 538.444,-740.944 562.755,-733.837"/>
<polygon fill="black" stroke="black" points="563.816,-737.173 572.411,-730.977 561.828,-730.461 563.816,-737.173"/>
</g>
<!-- G05&#45;&gt;G0T -->
<g id="edge252" class="edge"><title>G05&#45;&gt;G0T</title>
<path fill="none" stroke="black" stroke-width="4" d="M478.253,-781.336C483.251,-786.144 488.139,-791.523 492,-797.143 541.026,-868.5 493.4,-928.034 564,-978.143 598.281,-1002.47 710.962,-986.143 753,-986.143 753,-986.143 753,-986.143 1053,-986.143 1150.42,-986.143 1182.39,-952.19 1242,-875.143 1318.92,-775.728 1339.49,-622.358 1344.99,-548.609"/>
<polygon fill="black" stroke="black" points="1348.51,-548.538 1345.7,-538.321 1341.52,-548.058 1348.51,-548.538"/>
</g>
<!-- G05&#45;&gt;G016 -->
<g id="edge254" class="edge"><title>G05&#45;&gt;G016</title>
<path fill="none" stroke="#007f37" stroke-width="4" d="M484.983,-768.32C523.869,-776.947 590.658,-787.463 642,-765.143 677.186,-749.847 706.278,-717.292 725.839,-690.541"/>
<polygon fill="#007f37" stroke="#007f37" points="728.907,-692.266 731.851,-682.089 723.202,-688.209 728.907,-692.266"/>
</g>
<!-- G05&#45;&gt;G016 -->
<g id="edge256" class="edge"><title>G05&#45;&gt;G016</title>
<path fill="none" stroke="#7f0021" stroke-width="4" d="M483.291,-772.781C521.907,-783.632 589.905,-794.79 642,-772.143 678.982,-756.066 709.232,-720.923 728.759,-692.28"/>
<polygon fill="#7f0021" stroke="#7f0021" points="731.883,-693.901 734.471,-683.627 726.041,-690.045 731.883,-693.901"/>
</g>
<!-- G05&#45;&gt;G014 -->
<g id="edge258" class="edge"><title>G05&#45;&gt;G014</title>
<path fill="none" stroke="#7f00a6" stroke-width="4" d="M485.398,-764.102C532.553,-767.752 617.182,-771.625 642,-755.143 650.86,-749.259 704.377,-626.696 733.743,-558.306"/>
<polygon fill="#7f00a6" stroke="#7f00a6" points="736.995,-559.603 737.72,-549.033 730.562,-556.844 736.995,-559.603"/>
</g>
<!-- G05&#45;&gt;G017 -->
<g id="edge250" class="edge"><title>G05&#45;&gt;G017</title>
<path fill="none" stroke="#00bc7f" stroke-width="4" d="M483.905,-771.234C521.717,-782.065 587.435,-795.972 642,-782.143 677.278,-773.203 680.958,-758.397 714,-743.143 761.547,-721.193 817.715,-700.083 856.395,-686.261"/>
<polygon fill="#00bc7f" stroke="#00bc7f" points="857.584,-689.553 865.836,-682.908 855.241,-682.956 857.584,-689.553"/>
</g>
<!-- G021&#45;&gt;G022 -->
<g id="edge120" class="edge"><title>G021&#45;&gt;G022</title>
<path fill="none" stroke="#4d7f00" stroke-width="4" d="M1081.92,-537.921C1106.02,-516.073 1140.48,-484.829 1166.48,-461.257"/>
<polygon fill="#4d7f00" stroke="#4d7f00" points="1168.85,-463.826 1173.91,-454.517 1164.15,-458.641 1168.85,-463.826"/>
</g>
<!-- G021&#45;&gt;G0T -->
<g id="edge118" class="edge"><title>G021&#45;&gt;G0T</title>
<path fill="none" stroke="black" stroke-width="4" d="M1091.44,-556.561C1146.53,-545.692 1247.6,-525.754 1304.73,-514.481"/>
<polygon fill="black" stroke="black" points="1305.74,-517.851 1314.87,-512.481 1304.38,-510.983 1305.74,-517.851"/>
</g>
<!-- G016&#45;&gt;G022 -->
<g id="edge146" class="edge"><title>G016&#45;&gt;G022</title>
<path fill="none" stroke="#90007f" stroke-width="4" d="M790.62,-638.508C812.047,-633.813 839.438,-628.644 864,-625.143 914.393,-617.96 1048.73,-629.953 1092,-603.143 1139.43,-573.754 1169.85,-515.783 1186.63,-474.614"/>
<polygon fill="#90007f" stroke="#90007f" points="1189.98,-475.646 1190.4,-465.06 1183.47,-473.074 1189.98,-475.646"/>
</g>
<!-- G016&#45;&gt;G022 -->
<g id="edge148" class="edge"><title>G016&#45;&gt;G022</title>
<path fill="none" stroke="#00797f" stroke-width="4" d="M791.897,-644.434C813.129,-640.609 839.924,-635.575 864,-632.143 914.393,-624.96 1048.73,-636.953 1092,-610.143 1141.22,-579.649 1172.11,-518.384 1188.46,-475.368"/>
<polygon fill="#00797f" stroke="#00797f" points="1191.76,-476.536 1191.92,-465.942 1185.19,-474.123 1191.76,-476.536"/>
</g>
<!-- G016&#45;&gt;G0T -->
<g id="edge142" class="edge"><title>G016&#45;&gt;G0T</title>
<path fill="none" stroke="black" stroke-width="4" d="M784.567,-672.944C805.791,-687.405 835.077,-704.508 864,-712.143 897.518,-720.992 907.748,-717.49 942,-712.143 1081.72,-690.333 1122.56,-681.856 1242,-606.143 1271.35,-587.537 1299.58,-559.919 1319.36,-538.419"/>
<polygon fill="black" stroke="black" points="1322.14,-540.565 1326.25,-530.802 1316.95,-535.869 1322.14,-540.565"/>
</g>
<!-- G016&#45;&gt;G021 -->
<g id="edge144" class="edge"><title>G016&#45;&gt;G021</title>
<path fill="none" stroke="#7f0063" stroke-width="4" d="M789.655,-634.763C811.124,-626.636 838.874,-616.636 864,-609.143 889.973,-601.398 957.819,-585.643 1004.73,-574.987"/>
<polygon fill="#7f0063" stroke="#7f0063" points="1005.71,-578.353 1014.69,-572.729 1004.17,-571.526 1005.71,-578.353"/>
</g>
<!-- G016&#45;&gt;G017 -->
<g id="edge140" class="edge"><title>G016&#45;&gt;G017</title>
<path fill="none" stroke="black" stroke-width="4" d="M791.629,-654.551C810.713,-657.223 833.943,-660.475 854.24,-663.317"/>
<polygon fill="black" stroke="black" points="853.853,-666.797 864.242,-664.717 854.824,-659.864 853.853,-666.797"/>
</g>
<!-- G020&#45;&gt;G022 -->
<g id="edge162" class="edge"><title>G020&#45;&gt;G022</title>
<path fill="none" stroke="#16007f" stroke-width="4" d="M941.912,-455.993C996.203,-450.202 1094.66,-439.699 1153.92,-433.378"/>
<polygon fill="#16007f" stroke="#16007f" points="1154.58,-436.828 1164.16,-432.287 1153.84,-429.867 1154.58,-436.828"/>
</g>
<!-- G020&#45;&gt;G0T -->
<g id="edge158" class="edge"><title>G020&#45;&gt;G0T</title>
<path fill="none" stroke="black" stroke-width="4" d="M942.013,-464.185C1024.99,-472.782 1218.43,-492.823 1304.45,-501.735"/>
<polygon fill="black" stroke="black" points="1304.33,-505.241 1314.64,-502.791 1305.05,-498.279 1304.33,-505.241"/>
</g>
<!-- G020&#45;&gt;G021 -->
<g id="edge160" class="edge"><title>G020&#45;&gt;G021</title>
<path fill="none" stroke="black" stroke-width="4" d="M935.179,-482.454C957.818,-498.151 988.286,-519.275 1012.57,-536.11"/>
<polygon fill="black" stroke="black" points="1010.66,-539.048 1020.87,-541.87 1014.65,-533.295 1010.66,-539.048"/>
</g>
<!-- G014&#45;&gt;G022 -->
<g id="edge80" class="edge"><title>G014&#45;&gt;G022</title>
<path fill="none" stroke="#7f00a6" stroke-width="4" d="M792.009,-511.057C830.421,-509.964 890.631,-507.813 942,-499.143 1018.35,-486.256 1104.28,-459.402 1156,-442.63"/>
<polygon fill="#7f00a6" stroke="#7f00a6" points="1157.13,-445.941 1165.56,-439.519 1154.96,-439.285 1157.13,-445.941"/>
</g>
<!-- G014&#45;&gt;G022 -->
<g id="edge82" class="edge"><title>G014&#45;&gt;G022</title>
<path fill="none" stroke="#90007f" stroke-width="4" d="M792.009,-516.395C830.421,-516.964 890.631,-514.813 942,-506.143 1019.01,-493.146 1105.75,-465.941 1157.32,-447.298"/>
<polygon fill="#90007f" stroke="#90007f" points="1158.65,-450.536 1166.84,-443.807 1156.24,-443.965 1158.65,-450.536"/>
</g>
<!-- G014&#45;&gt;G0T -->
<g id="edge76" class="edge"><title>G014&#45;&gt;G0T</title>
<path fill="none" stroke="black" stroke-width="4" d="M792.041,-513.581C813.314,-513.798 840.103,-514.036 864,-514.143 898.666,-514.299 907.335,-514.486 942,-514.143 1074.04,-512.839 1230.26,-509.144 1304.16,-507.267"/>
<polygon fill="black" stroke="black" points="1304.55,-510.759 1314.46,-507.004 1304.37,-503.761 1304.55,-510.759"/>
</g>
<!-- G014&#45;&gt;G021 -->
<g id="edge78" class="edge"><title>G014&#45;&gt;G021</title>
<path fill="none" stroke="#00797f" stroke-width="4" d="M791.168,-521.615C812.53,-526.214 839.682,-531.826 864,-536.143 911.317,-544.543 965.611,-552.404 1003.83,-557.645"/>
<polygon fill="#00797f" stroke="#00797f" points="1003.78,-561.17 1014.16,-559.052 1004.73,-554.234 1003.78,-561.17"/>
</g>
<!-- G014&#45;&gt;G020 -->
<g id="edge84" class="edge"><title>G014&#45;&gt;G020</title>
<path fill="none" stroke="#7f0063" stroke-width="4" d="M790.079,-500.042C810.166,-492.945 835.179,-484.107 856.554,-476.554"/>
<polygon fill="#7f0063" stroke="#7f0063" points="857.826,-479.817 866.088,-473.185 855.493,-473.217 857.826,-479.817"/>
</g>
<!-- G014&#45;&gt;G017 -->
<g id="edge74" class="edge"><title>G014&#45;&gt;G017</title>
<path fill="none" stroke="black" stroke-width="4" d="M780.164,-541.575C805.119,-567.694 842.201,-606.507 869.09,-634.651"/>
<polygon fill="black" stroke="black" points="866.599,-637.111 876.038,-641.923 871.661,-632.275 866.599,-637.111"/>
</g>
<!-- G017&#45;&gt;G022 -->
<g id="edge134" class="edge"><title>G017&#45;&gt;G022</title>
<path fill="none" stroke="#7f0063" stroke-width="4" d="M941.943,-664.585C983.077,-660.481 1047.95,-651.33 1092,-618.143 1140.1,-581.905 1170.41,-518.362 1186.98,-474.754"/>
<polygon fill="#7f0063" stroke="#7f0063" points="1190.32,-475.815 1190.5,-465.222 1183.75,-473.387 1190.32,-475.815"/>
</g>
<!-- G017&#45;&gt;G022 -->
<g id="edge136" class="edge"><title>G017&#45;&gt;G022</title>
<path fill="none" stroke="#90007f" stroke-width="4" d="M942.321,-669.741C983.474,-667.425 1048.09,-658.228 1092,-625.143 1141.8,-587.619 1172.54,-520.815 1188.69,-475.514"/>
<polygon fill="#90007f" stroke="#90007f" points="1192.05,-476.505 1192.01,-465.91 1185.44,-474.216 1192.05,-476.505"/>
</g>
<!-- G017&#45;&gt;G022 -->
<g id="edge138" class="edge"><title>G017&#45;&gt;G022</title>
<path fill="none" stroke="#00797f" stroke-width="4" d="M941.943,-674.938C983.077,-674.481 1047.95,-665.33 1092,-632.143 1143.66,-593.217 1174.81,-522.783 1190.44,-475.663"/>
<polygon fill="#00797f" stroke="#00797f" points="1193.83,-476.573 1193.54,-465.982 1187.16,-474.436 1193.83,-476.573"/>
</g>
<!-- G017&#45;&gt;G0T -->
<g id="edge128" class="edge"><title>G017&#45;&gt;G0T</title>
<path fill="none" stroke="black" stroke-width="4" d="M942.327,-671.18C981.239,-671.107 1042.05,-668.004 1092,-652.143 1177.59,-624.964 1266.05,-566.124 1312.96,-532.02"/>
<polygon fill="black" stroke="black" points="1315.24,-534.692 1321.23,-525.953 1311.09,-529.049 1315.24,-534.692"/>
</g>
<!-- G017&#45;&gt;G021 -->
<g id="edge130" class="edge"><title>G017&#45;&gt;G021</title>
<path fill="none" stroke="#16007f" stroke-width="4" d="M934.08,-646.316C956.571,-629.972 987.199,-608.272 1011.74,-591.267"/>
<polygon fill="#16007f" stroke="#16007f" points="1013.9,-594.027 1020.14,-585.465 1009.92,-588.267 1013.9,-594.027"/>
</g>
<!-- G017&#45;&gt;G021 -->
<g id="edge132" class="edge"><title>G017&#45;&gt;G021</title>
<path fill="none" stroke="black" stroke-width="4" d="M936.29,-649.161C959.298,-633.467 989.985,-611.823 1014.12,-594.287"/>
<polygon fill="black" stroke="black" points="1016.34,-596.995 1022.36,-588.272 1012.22,-591.341 1016.34,-596.995"/>
</g>
<!-- G013&#45;&gt;G022 -->
<g id="edge152" class="edge"><title>G013&#45;&gt;G022</title>
<path fill="none" stroke="#90007f" stroke-width="4" d="M641.611,-202.709C742.833,-220.363 1013.46,-270.537 1092,-315.143 1124.37,-333.525 1153.54,-364.058 1173.84,-388.754"/>
<polygon fill="#90007f" stroke="#90007f" points="1171.12,-390.951 1180.12,-396.544 1176.57,-386.561 1171.12,-390.951"/>
</g>
<!-- G013&#45;&gt;G0T -->
<g id="edge150" class="edge"><title>G013&#45;&gt;G0T</title>
<path fill="none" stroke="black" stroke-width="4" d="M641.666,-188.721C698.643,-178.447 808.614,-161.143 903,-161.143 903,-161.143 903,-161.143 1053,-161.143 1138.86,-161.143 1177.67,-144.277 1242,-201.143 1282.17,-236.656 1321,-389.698 1338.01,-464.57"/>
<polygon fill="black" stroke="black" points="1334.66,-465.607 1340.27,-474.596 1341.49,-464.072 1334.66,-465.607"/>
</g>
<!-- G013&#45;&gt;G020 -->
<g id="edge156" class="edge"><title>G013&#45;&gt;G020</title>
<path fill="none" stroke="#00797f" stroke-width="4" d="M634.984,-218.467C673.582,-245.938 739.798,-294.78 792,-342.143 820.005,-367.553 849.211,-398.82 870.632,-422.784"/>
<polygon fill="#00797f" stroke="#00797f" points="868.043,-425.14 877.301,-430.291 873.276,-420.491 868.043,-425.14"/>
</g>
<!-- G013&#45;&gt;G014 -->
<g id="edge154" class="edge"><title>G013&#45;&gt;G014</title>
<path fill="none" stroke="black" stroke-width="4" d="M619.77,-231.584C647.184,-289.519 701.551,-404.414 731.669,-468.063"/>
<polygon fill="black" stroke="black" points="728.667,-469.903 736.108,-477.445 734.995,-466.909 728.667,-469.903"/>
</g>
<!-- G010&#45;&gt;G018 -->
<g id="edge168" class="edge"><title>G010&#45;&gt;G018</title>
<path fill="none" stroke="#00797f" stroke-width="4" d="M479.128,-401.407C504.431,-429.746 542.88,-472.808 570.223,-503.433"/>
<polygon fill="#00797f" stroke="#00797f" points="567.649,-505.806 576.92,-510.934 572.871,-501.143 567.649,-505.806"/>
</g>
<!-- G010&#45;&gt;G0T -->
<g id="edge164" class="edge"><title>G010&#45;&gt;G0T</title>
<path fill="none" stroke="black" stroke-width="4" d="M474.148,-338.999C480.145,-329.193 486.526,-318.348 492,-308.143 527.712,-241.56 500.257,-194.707 564,-154.143 627.559,-113.696 1182.22,-115.29 1242,-161.143 1290.7,-198.501 1326.4,-381.015 1340.44,-464.418"/>
<polygon fill="black" stroke="black" points="1336.99,-465.028 1342.08,-474.32 1343.9,-463.881 1336.99,-465.028"/>
</g>
<!-- G010&#45;&gt;G020 -->
<g id="edge170" class="edge"><title>G010&#45;&gt;G020</title>
<path fill="none" stroke="#90007f" stroke-width="4" d="M492.039,-371.268C513.312,-370.835 540.101,-370.359 564,-370.143 598.665,-369.831 607.81,-364.414 642,-370.143 720.383,-383.278 806.724,-417.155 857.83,-439.394"/>
<polygon fill="#90007f" stroke="#90007f" points="856.697,-442.72 867.26,-443.541 859.515,-436.312 856.697,-442.72"/>
</g>
<!-- G010&#45;&gt;G014 -->
<g id="edge166" class="edge"><title>G010&#45;&gt;G014</title>
<path fill="none" stroke="black" stroke-width="4" d="M492.102,-370.865C539.624,-369.921 616.612,-370.53 642,-383.143 679.736,-401.892 709.758,-439.833 729.015,-469.91"/>
<polygon fill="black" stroke="black" points="726.144,-471.921 734.4,-478.561 732.087,-468.221 726.144,-471.921"/>
</g>
</g>
</svg>
