<?xml version="1.0" encoding="UTF-8" standalone="no"?>
<!DOCTYPE svg PUBLIC "-//W3C//DTD SVG 1.1//EN"
 "http://www.w3.org/Graphics/SVG/1.1/DTD/svg11.dtd">
<!-- Generated by graphviz version 2.26.3 (20100126.1600)
 -->
<!-- Title: _anonymous_0 Pages: 1 -->
<svg width="1364pt" height="644pt"
 viewBox="0.00 0.00 1364.00 644.22" xmlns="http://www.w3.org/2000/svg" xmlns:xlink="http://www.w3.org/1999/xlink">
<g id="graph1" class="graph" transform="scale(1 1) rotate(0) translate(4 640.218)">
<title>_anonymous_0</title>
<polygon fill="white" stroke="white" points="-4,5 -4,-640.218 1361,-640.218 1361,5 -4,5"/>
<!-- 14 -->
<g id="node1" class="node"><title>14</title>
<ellipse fill="none" stroke="black" stroke-width="2" cx="611" cy="-475.092" rx="24.2437" ry="24.7487"/>
<text text-anchor="middle" x="611" y="-471.492" font-family="Times Roman,serif" font-size="14.00">14</text>
</g>
<!-- T -->
<g id="node3" class="node"><title>T</title>
<ellipse fill="none" stroke="black" stroke-width="2" cx="1337" cy="-415.092" rx="17.8879" ry="18.3848"/>
<text text-anchor="middle" x="1337" y="-411.492" font-family="Times Roman,serif" font-size="14.00">T</text>
</g>
<!-- 14&#45;&gt;T -->
<g id="edge2" class="edge"><title>14&#45;&gt;T</title>
<path fill="none" stroke="black" stroke-width="4" d="M635.634,-473.537C664.983,-472.158 715.401,-471.284 758,-478.092 791.041,-483.373 797.094,-494.028 830,-500.092 894.4,-511.96 911.516,-510.092 977,-510.092 977,-510.092 977,-510.092 1099,-510.092 1164.48,-510.092 1185.93,-526.172 1246,-500.092 1276.71,-486.758 1303.57,-458.447 1320,-438.162"/>
<polygon fill="black" stroke="black" points="1322.96,-440.055 1326.38,-430.026 1317.45,-435.734 1322.96,-440.055"/>
</g>
<!-- 21 -->
<g id="node5" class="node"><title>21</title>
<ellipse fill="none" stroke="black" stroke-width="2" cx="855" cy="-399.092" rx="24.2437" ry="24.7487"/>
<text text-anchor="middle" x="855" y="-395.492" font-family="Times Roman,serif" font-size="14.00">21</text>
</g>
<!-- 14&#45;&gt;21 -->
<g id="edge4" class="edge"><title>14&#45;&gt;21</title>
<path fill="none" stroke="#7f007f" stroke-width="4" d="M624.11,-454.435C640.453,-430.834 670.815,-393.495 708,-378.092 745.448,-362.581 792.345,-374.044 822.96,-385.199"/>
<polygon fill="#7f007f" stroke="#7f007f" points="822.091,-388.614 832.681,-388.93 824.6,-382.079 822.091,-388.614"/>
</g>
<!-- 15 -->
<g id="node7" class="node"><title>15</title>
<ellipse fill="none" stroke="black" stroke-width="2" cx="733" cy="-505.092" rx="24.2437" ry="24.7487"/>
<text text-anchor="middle" x="733" y="-501.492" font-family="Times Roman,serif" font-size="14.00">15</text>
</g>
<!-- 14&#45;&gt;15 -->
<g id="edge6" class="edge"><title>14&#45;&gt;15</title>
<path fill="none" stroke="#007f7f" stroke-width="4" d="M634.812,-480.948C653.084,-485.441 678.553,-491.704 698.972,-496.725"/>
<polygon fill="#007f7f" stroke="#007f7f" points="698.284,-500.16 708.831,-499.149 699.956,-493.362 698.284,-500.16"/>
</g>
<!-- 21&#45;&gt;T -->
<g id="edge8" class="edge"><title>21&#45;&gt;T</title>
<path fill="none" stroke="black" stroke-width="4" d="M876.081,-411.539C895.165,-422.036 924.427,-436.255 952,-442.092 1083.37,-469.905 1245,-437.626 1309,-422.294"/>
<polygon fill="black" stroke="black" points="1310.23,-425.598 1319.11,-419.818 1308.56,-418.799 1310.23,-425.598"/>
</g>
<!-- 24 -->
<g id="node10" class="node"><title>24</title>
<ellipse fill="none" stroke="black" stroke-width="2" cx="977" cy="-415.092" rx="24.2437" ry="24.7487"/>
<text text-anchor="middle" x="977" y="-411.492" font-family="Times Roman,serif" font-size="14.00">24</text>
</g>
<!-- 21&#45;&gt;24 -->
<g id="edge10" class="edge"><title>21&#45;&gt;24</title>
<path fill="none" stroke="#007f7f" stroke-width="4" d="M879.395,-402.292C897.515,-404.668 922.473,-407.941 942.615,-410.583"/>
<polygon fill="#007f7f" stroke="#007f7f" points="942.277,-414.068 952.647,-411.898 943.187,-407.128 942.277,-414.068"/>
</g>
<!-- 26 -->
<g id="node12" class="node"><title>26</title>
<ellipse fill="none" stroke="black" stroke-width="2" cx="1099" cy="-213.092" rx="24.2437" ry="24.7487"/>
<text text-anchor="middle" x="1099" y="-209.492" font-family="Times Roman,serif" font-size="14.00">26</text>
</g>
<!-- 21&#45;&gt;26 -->
<g id="edge12" class="edge"><title>21&#45;&gt;26</title>
<path fill="none" stroke="#7f007f" stroke-width="4" d="M874.555,-384.186C917.744,-351.263 1021.38,-272.262 1071.26,-234.24"/>
<polygon fill="#7f007f" stroke="#7f007f" points="1073.52,-236.916 1079.35,-228.07 1069.28,-231.349 1073.52,-236.916"/>
</g>
<!-- 27 -->
<g id="node14" class="node"><title>27</title>
<ellipse fill="none" stroke="black" stroke-width="2" cx="1221" cy="-320.092" rx="24.2437" ry="24.7487"/>
<text text-anchor="middle" x="1221" y="-316.492" font-family="Times Roman,serif" font-size="14.00">27</text>
</g>
<!-- 21&#45;&gt;27 -->
<g id="edge14" class="edge"><title>21&#45;&gt;27</title>
<path fill="none" stroke="#7f7f00" stroke-width="4" d="M878.751,-392.284C925.638,-380.881 1033.41,-357.665 1124,-338.092 1144.65,-333.631 1167.77,-328.625 1186.26,-324.95"/>
<polygon fill="#7f7f00" stroke="#7f7f00" points="1187.13,-328.346 1196.28,-323.006 1185.8,-321.475 1187.13,-328.346"/>
</g>
<!-- 21&#45;&gt;27 -->
<g id="edge16" class="edge"><title>21&#45;&gt;27</title>
<path fill="none" stroke="#7f7f00" stroke-width="4" d="M879.481,-396.107C926.749,-387.642 1033.87,-364.564 1124,-345.092 1145.32,-340.487 1169.26,-335.303 1188.03,-330.754"/>
<polygon fill="#7f7f00" stroke="#7f7f00" points="1189.02,-334.115 1197.87,-328.3 1187.32,-327.323 1189.02,-334.115"/>
</g>
<!-- 15&#45;&gt;T -->
<g id="edge200" class="edge"><title>15&#45;&gt;T</title>
<path fill="none" stroke="black" stroke-width="4" d="M757.535,-508.44C801.456,-514.133 896.456,-525.092 977,-525.092 977,-525.092 977,-525.092 1099,-525.092 1164.48,-525.092 1187.04,-543.588 1246,-515.092 1279.92,-498.698 1307.08,-463.555 1322.62,-439.616"/>
<polygon fill="black" stroke="black" points="1325.64,-441.382 1327.99,-431.052 1319.71,-437.659 1325.64,-441.382"/>
</g>
<!-- 15&#45;&gt;21 -->
<g id="edge202" class="edge"><title>15&#45;&gt;21</title>
<path fill="none" stroke="#007f7f" stroke-width="4" d="M751.529,-488.993C772.041,-471.171 805.273,-442.298 828.525,-422.095"/>
<polygon fill="#007f7f" stroke="#007f7f" points="831.043,-424.544 836.296,-415.343 826.452,-419.26 831.043,-424.544"/>
</g>
<!-- 15&#45;&gt;24 -->
<g id="edge204" class="edge"><title>15&#45;&gt;24</title>
<path fill="none" stroke="#7f007f" stroke-width="4" d="M755.955,-496.625C799.553,-480.544 894.446,-445.542 944.536,-427.067"/>
<polygon fill="#7f007f" stroke="#7f007f" points="945.757,-430.347 953.928,-423.602 943.335,-423.779 945.757,-430.347"/>
</g>
<!-- 24&#45;&gt;T -->
<g id="edge118" class="edge"><title>24&#45;&gt;T</title>
<path fill="none" stroke="black" stroke-width="4" d="M1001.74,-415.092C1066.28,-415.092 1239.48,-415.092 1308.27,-415.092"/>
<polygon fill="black" stroke="black" points="1308.38,-418.592 1318.38,-415.092 1308.38,-411.592 1308.38,-418.592"/>
</g>
<!-- 24&#45;&gt;26 -->
<g id="edge120" class="edge"><title>24&#45;&gt;26</title>
<path fill="none" stroke="#007f7f" stroke-width="4" d="M989.597,-394.236C1011.39,-358.155 1056.18,-283.994 1081.16,-242.628"/>
<polygon fill="#007f7f" stroke="#007f7f" points="1084.3,-244.205 1086.47,-233.836 1078.31,-240.586 1084.3,-244.205"/>
</g>
<!-- 24&#45;&gt;27 -->
<g id="edge122" class="edge"><title>24&#45;&gt;27</title>
<path fill="none" stroke="#7f007f" stroke-width="4" d="M1000.45,-407.966C1029.7,-398.884 1081.09,-382.288 1124,-365.092 1146.41,-356.114 1171.08,-344.646 1189.93,-335.535"/>
<polygon fill="#7f007f" stroke="#7f007f" points="1191.49,-338.667 1198.95,-331.142 1188.43,-332.374 1191.49,-338.667"/>
</g>
<!-- 26&#45;&gt;T -->
<g id="edge68" class="edge"><title>26&#45;&gt;T</title>
<path fill="none" stroke="black" stroke-width="4" d="M1123.69,-211.992C1155.16,-211.854 1209.83,-216.005 1246,-243.092 1294.32,-279.277 1319.52,-348.754 1330.34,-387.413"/>
<polygon fill="black" stroke="black" points="1327.05,-388.686 1333.01,-397.447 1333.82,-386.882 1327.05,-388.686"/>
</g>
<!-- 26&#45;&gt;27 -->
<g id="edge70" class="edge"><title>26&#45;&gt;27</title>
<path fill="none" stroke="#007f7f" stroke-width="4" d="M1117.26,-229.111C1137.84,-247.155 1171.45,-276.631 1194.81,-297.123"/>
<polygon fill="#007f7f" stroke="#007f7f" points="1192.78,-300.001 1202.61,-303.964 1197.4,-294.739 1192.78,-300.001"/>
</g>
<!-- 27&#45;&gt;T -->
<g id="edge72" class="edge"><title>27&#45;&gt;T</title>
<path fill="none" stroke="black" stroke-width="4" d="M1239.9,-335.567C1260.3,-352.277 1292.79,-378.883 1314.5,-396.662"/>
<polygon fill="black" stroke="black" points="1312.56,-399.603 1322.52,-403.232 1317,-394.188 1312.56,-399.603"/>
</g>
<!-- 17 -->
<g id="node16" class="node"><title>17</title>
<ellipse fill="none" stroke="black" stroke-width="2" cx="733" cy="-138.092" rx="24.2437" ry="24.7487"/>
<text text-anchor="middle" x="733" y="-134.492" font-family="Times Roman,serif" font-size="14.00">17</text>
</g>
<!-- 17&#45;&gt;T -->
<g id="edge18" class="edge"><title>17&#45;&gt;T</title>
<path fill="none" stroke="black" stroke-width="4" d="M757.078,-132.313C800.669,-122.372 895.69,-103.092 977,-103.092 977,-103.092 977,-103.092 1099,-103.092 1168.45,-103.092 1197.09,-106.784 1246,-156.092 1310.39,-221.011 1329.38,-334.091 1334.85,-386.685"/>
<polygon fill="black" stroke="black" points="1331.4,-387.326 1335.83,-396.95 1338.37,-386.665 1331.4,-387.326"/>
</g>
<!-- 17&#45;&gt;21 -->
<g id="edge22" class="edge"><title>17&#45;&gt;21</title>
<path fill="none" stroke="black" stroke-width="4" d="M739.859,-161.487C753.202,-204.925 785.31,-300.074 830,-371.092 830.573,-372.002 831.175,-372.911 831.802,-373.816"/>
<polygon fill="black" stroke="black" points="829.032,-375.955 837.914,-381.732 834.573,-371.677 829.032,-375.955"/>
</g>
<!-- 25 -->
<g id="node19" class="node"><title>25</title>
<ellipse fill="none" stroke="black" stroke-width="2" cx="977" cy="-153.092" rx="24.2437" ry="24.7487"/>
<text text-anchor="middle" x="977" y="-149.492" font-family="Times Roman,serif" font-size="14.00">25</text>
</g>
<!-- 17&#45;&gt;25 -->
<g id="edge20" class="edge"><title>17&#45;&gt;25</title>
<path fill="none" stroke="#7f007f" stroke-width="4" d="M757.739,-139.613C801.399,-142.297 892.22,-147.88 942.185,-150.952"/>
<polygon fill="#7f007f" stroke="#7f007f" points="942,-154.447 952.196,-151.567 942.429,-147.46 942,-154.447"/>
</g>
<!-- 25&#45;&gt;T -->
<g id="edge24" class="edge"><title>25&#45;&gt;T</title>
<path fill="none" stroke="black" stroke-width="4" d="M1001.74,-151.411C1054.41,-149.275 1178.3,-152.144 1246,-219.092 1294.57,-267.122 1320.08,-345.975 1330.77,-387.512"/>
<polygon fill="black" stroke="black" points="1327.37,-388.359 1333.17,-397.227 1334.17,-386.679 1327.37,-388.359"/>
</g>
<!-- 25&#45;&gt;26 -->
<g id="edge26" class="edge"><title>25&#45;&gt;26</title>
<path fill="none" stroke="black" stroke-width="4" d="M999.093,-163.958C1018.35,-173.43 1046.5,-187.27 1068.01,-197.85"/>
<polygon fill="black" stroke="black" points="1066.55,-201.035 1077.07,-202.308 1069.64,-194.754 1066.55,-201.035"/>
</g>
<!-- 25&#45;&gt;27 -->
<g id="edge28" class="edge"><title>25&#45;&gt;27</title>
<path fill="none" stroke="#7f007f" stroke-width="4" d="M1001.69,-153.412C1032.68,-154.917 1086.32,-161.271 1124,-186.092 1162.58,-211.507 1190.97,-257.89 1206.75,-288.856"/>
<polygon fill="#7f007f" stroke="#7f007f" points="1203.67,-290.519 1211.24,-297.931 1209.94,-287.416 1203.67,-290.519"/>
</g>
<!-- 2 -->
<g id="node24" class="node"><title>2</title>
<ellipse fill="none" stroke="black" stroke-width="2" cx="245" cy="-512.092" rx="17.8879" ry="18.3848"/>
<text text-anchor="middle" x="245" y="-508.492" font-family="Times Roman,serif" font-size="14.00">2</text>
</g>
<!-- 2&#45;&gt;T -->
<g id="edge30" class="edge"><title>2&#45;&gt;T</title>
<path fill="none" stroke="black" stroke-width="4" d="M259.771,-523.311C296.438,-550.006 395.429,-615.092 489,-615.092 489,-615.092 489,-615.092 1099,-615.092 1164.77,-615.092 1192.18,-635.889 1246,-598.092 1298.76,-561.044 1322.46,-484.409 1331.78,-443.037"/>
<polygon fill="black" stroke="black" points="1335.24,-443.593 1333.9,-433.084 1328.4,-442.138 1335.24,-443.593"/>
</g>
<!-- 6 -->
<g id="node27" class="node"><title>6</title>
<ellipse fill="none" stroke="black" stroke-width="2" cx="367" cy="-505.092" rx="17.8879" ry="18.3848"/>
<text text-anchor="middle" x="367" y="-501.492" font-family="Times Roman,serif" font-size="14.00">6</text>
</g>
<!-- 2&#45;&gt;6 -->
<g id="edge32" class="edge"><title>2&#45;&gt;6</title>
<path fill="none" stroke="black" stroke-width="4" d="M263.529,-511.029C283.325,-509.893 314.966,-508.078 338.053,-506.753"/>
<polygon fill="black" stroke="black" points="338.513,-510.233 348.296,-506.165 338.112,-503.244 338.513,-510.233"/>
</g>
<!-- 8 -->
<g id="node29" class="node"><title>8</title>
<ellipse fill="none" stroke="black" stroke-width="2" cx="489" cy="-556.092" rx="17.8879" ry="18.3848"/>
<text text-anchor="middle" x="489" y="-552.492" font-family="Times Roman,serif" font-size="14.00">8</text>
</g>
<!-- 2&#45;&gt;8 -->
<g id="edge34" class="edge"><title>2&#45;&gt;8</title>
<path fill="none" stroke="#7f007f" stroke-width="4" d="M263.34,-515.399C305.659,-523.031 410.366,-541.912 460.868,-551.019"/>
<polygon fill="#7f007f" stroke="#7f007f" points="460.318,-554.476 470.78,-552.807 461.56,-547.588 460.318,-554.476"/>
</g>
<!-- 9 -->
<g id="node31" class="node"><title>9</title>
<ellipse fill="none" stroke="black" stroke-width="2" cx="489" cy="-455.092" rx="17.8879" ry="18.3848"/>
<text text-anchor="middle" x="489" y="-451.492" font-family="Times Roman,serif" font-size="14.00">9</text>
</g>
<!-- 2&#45;&gt;9 -->
<g id="edge36" class="edge"><title>2&#45;&gt;9</title>
<path fill="none" stroke="#7f7f00" stroke-width="4" d="M262.755,-506.467C282.112,-500.452 314.064,-490.867 342,-484.092 382.752,-474.21 430.47,-465.274 460.221,-460.012"/>
<polygon fill="#7f7f00" stroke="#7f7f00" points="461.077,-463.415 470.324,-458.244 459.87,-456.52 461.077,-463.415"/>
</g>
<!-- 6&#45;&gt;14 -->
<g id="edge78" class="edge"><title>6&#45;&gt;14</title>
<path fill="none" stroke="#7f007f" stroke-width="4" d="M385.583,-502.5C405.098,-499.802 436.687,-495.502 464,-492.092 502.371,-487.303 546.437,-482.268 576.238,-478.933"/>
<polygon fill="#7f007f" stroke="#7f007f" points="576.984,-482.372 586.534,-477.785 576.208,-475.415 576.984,-482.372"/>
</g>
<!-- 6&#45;&gt;T -->
<g id="edge74" class="edge"><title>6&#45;&gt;T</title>
<path fill="none" stroke="black" stroke-width="4" d="M379.62,-518.412C396.826,-535.56 429.479,-564.63 464,-577.092 525.542,-599.31 545.57,-585.092 611,-585.092 611,-585.092 611,-585.092 1099,-585.092 1164.77,-585.092 1190.8,-603.842 1246,-568.092 1291.45,-538.659 1317.31,-477.849 1329.11,-442.397"/>
<polygon fill="black" stroke="black" points="1332.5,-443.285 1332.2,-432.694 1325.83,-441.162 1332.5,-443.285"/>
</g>
<!-- 7 -->
<g id="node58" class="node"><title>7</title>
<ellipse fill="none" stroke="black" stroke-width="2" cx="489" cy="-513.092" rx="17.8879" ry="18.3848"/>
<text text-anchor="middle" x="489" y="-509.492" font-family="Times Roman,serif" font-size="14.00">7</text>
</g>
<!-- 6&#45;&gt;7 -->
<g id="edge76" class="edge"><title>6&#45;&gt;7</title>
<path fill="none" stroke="#007f7f" stroke-width="4" d="M385.529,-506.307C405.325,-507.605 436.966,-509.68 460.053,-511.194"/>
<polygon fill="#007f7f" stroke="#007f7f" points="460.089,-514.704 470.296,-511.866 460.547,-507.719 460.089,-514.704"/>
</g>
<!-- 8&#45;&gt;14 -->
<g id="edge216" class="edge"><title>8&#45;&gt;14</title>
<path fill="none" stroke="black" stroke-width="4" d="M504.451,-545.834C523.867,-532.943 557.586,-510.555 581.899,-494.414"/>
<polygon fill="black" stroke="black" points="583.991,-497.226 590.386,-488.778 580.119,-491.394 583.991,-497.226"/>
</g>
<!-- 8&#45;&gt;T -->
<g id="edge212" class="edge"><title>8&#45;&gt;T</title>
<path fill="none" stroke="black" stroke-width="4" d="M507.652,-557.894C548.464,-561.675 648.775,-570.092 733,-570.092 733,-570.092 733,-570.092 1099,-570.092 1164.72,-570.092 1189.97,-588.43 1246,-554.092 1288.35,-528.142 1314.9,-474.217 1327.74,-441.689"/>
<polygon fill="black" stroke="black" points="1331.02,-442.927 1331.29,-432.336 1324.47,-440.444 1331.02,-442.927"/>
</g>
<!-- 8&#45;&gt;15 -->
<g id="edge214" class="edge"><title>8&#45;&gt;15</title>
<path fill="none" stroke="#7f007f" stroke-width="4" d="M507.34,-552.259C548.07,-543.746 646.59,-523.153 698.956,-512.208"/>
<polygon fill="#7f007f" stroke="#7f007f" points="699.71,-515.626 708.782,-510.154 698.278,-508.774 699.71,-515.626"/>
</g>
<!-- 9&#45;&gt;14 -->
<g id="edge168" class="edge"><title>9&#45;&gt;14</title>
<path fill="none" stroke="black" stroke-width="4" d="M507.265,-458.086C525.595,-461.092 554.273,-465.793 576.835,-469.491"/>
<polygon fill="black" stroke="black" points="576.276,-472.947 586.711,-471.11 577.409,-466.039 576.276,-472.947"/>
</g>
<!-- 9&#45;&gt;T -->
<g id="edge162" class="edge"><title>9&#45;&gt;T</title>
<path fill="none" stroke="black" stroke-width="4" d="M505.022,-464.154C523.894,-474.518 556.427,-491.426 586,-502.092 699.58,-543.059 734.257,-540.092 855,-540.092 855,-540.092 855,-540.092 1099,-540.092 1164.59,-540.092 1188.08,-557.864 1246,-527.092 1282.26,-507.83 1309.39,-467.334 1324.21,-440.682"/>
<polygon fill="black" stroke="black" points="1327.47,-442.021 1329.12,-431.555 1321.3,-438.709 1327.47,-442.021"/>
</g>
<!-- 20 -->
<g id="node35" class="node"><title>20</title>
<ellipse fill="none" stroke="black" stroke-width="2" cx="733" cy="-251.092" rx="24.2437" ry="24.7487"/>
<text text-anchor="middle" x="733" y="-247.492" font-family="Times Roman,serif" font-size="14.00">20</text>
</g>
<!-- 9&#45;&gt;20 -->
<g id="edge164" class="edge"><title>9&#45;&gt;20</title>
<path fill="none" stroke="#7f7f00" stroke-width="4" d="M503.173,-443.243C542.757,-410.148 654.953,-316.345 706.503,-273.246"/>
<polygon fill="#7f7f00" stroke="#7f7f00" points="708.808,-275.88 714.235,-266.781 704.318,-270.51 708.808,-275.88"/>
</g>
<!-- 16 -->
<g id="node110" class="node"><title>16</title>
<ellipse fill="none" stroke="black" stroke-width="2" cx="733" cy="-405.092" rx="24.2437" ry="24.7487"/>
<text text-anchor="middle" x="733" y="-401.492" font-family="Times Roman,serif" font-size="14.00">16</text>
</g>
<!-- 9&#45;&gt;16 -->
<g id="edge166" class="edge"><title>9&#45;&gt;16</title>
<path fill="none" stroke="#7f007f" stroke-width="4" d="M507.34,-451.334C548.07,-442.988 646.59,-422.799 698.956,-412.069"/>
<polygon fill="#7f007f" stroke="#7f007f" points="699.689,-415.491 708.782,-410.055 698.283,-408.634 699.689,-415.491"/>
</g>
<!-- 13 -->
<g id="node32" class="node"><title>13</title>
<ellipse fill="none" stroke="black" stroke-width="2" cx="489" cy="-348.092" rx="24.2437" ry="24.7487"/>
<text text-anchor="middle" x="489" y="-344.492" font-family="Times Roman,serif" font-size="14.00">13</text>
</g>
<!-- 13&#45;&gt;14 -->
<g id="edge48" class="edge"><title>13&#45;&gt;14</title>
<path fill="none" stroke="black" stroke-width="4" d="M505.964,-365.751C527.087,-387.74 563.295,-425.432 587.19,-450.307"/>
<polygon fill="black" stroke="black" points="584.729,-452.796 594.18,-457.583 589.777,-447.947 584.729,-452.796"/>
</g>
<!-- 13&#45;&gt;T -->
<g id="edge38" class="edge"><title>13&#45;&gt;T</title>
<path fill="none" stroke="black" stroke-width="4" d="M511.283,-358.671C579.376,-389.994 791.373,-480.092 977,-480.092 977,-480.092 977,-480.092 1099,-480.092 1165.43,-480.092 1182.32,-471.998 1246,-453.092 1268.57,-446.39 1293.16,-435.922 1311.07,-427.668"/>
<polygon fill="black" stroke="black" points="1312.72,-430.763 1320.29,-423.349 1309.75,-424.424 1312.72,-430.763"/>
</g>
<!-- 13&#45;&gt;21 -->
<g id="edge42" class="edge"><title>13&#45;&gt;21</title>
<path fill="none" stroke="#7f7f00" stroke-width="4" d="M513.722,-348.197C561.401,-348.799 669.201,-352.113 758,-369.092 779.867,-373.273 803.768,-380.631 822.373,-387.013"/>
<polygon fill="#7f7f00" stroke="#7f7f00" points="821.254,-390.33 831.849,-390.336 823.57,-383.724 821.254,-390.33"/>
</g>
<!-- 13&#45;&gt;20 -->
<g id="edge40" class="edge"><title>13&#45;&gt;20</title>
<path fill="none" stroke="#7f7f00" stroke-width="4" d="M511.037,-336.797C530.5,-327.026 559.78,-312.82 586,-302.092 624.522,-286.33 669.926,-271.067 699.971,-261.411"/>
<polygon fill="#7f7f00" stroke="#7f7f00" points="701.076,-264.733 709.54,-258.359 698.949,-258.064 701.076,-264.733"/>
</g>
<!-- 22 -->
<g id="node38" class="node"><title>22</title>
<ellipse fill="none" stroke="black" stroke-width="2" cx="855" cy="-289.092" rx="24.2437" ry="24.7487"/>
<text text-anchor="middle" x="855" y="-285.492" font-family="Times Roman,serif" font-size="14.00">22</text>
</g>
<!-- 13&#45;&gt;22 -->
<g id="edge44" class="edge"><title>13&#45;&gt;22</title>
<path fill="none" stroke="#007f7f" stroke-width="4" d="M513.298,-344.175C576.602,-333.971 746.783,-306.537 820.343,-294.679"/>
<polygon fill="#007f7f" stroke="#007f7f" points="821.155,-298.093 830.471,-293.046 820.041,-291.183 821.155,-298.093"/>
</g>
<!-- 23 -->
<g id="node40" class="node"><title>23</title>
<ellipse fill="none" stroke="black" stroke-width="2" cx="855" cy="-344.092" rx="24.2437" ry="24.7487"/>
<text text-anchor="middle" x="855" y="-340.492" font-family="Times Roman,serif" font-size="14.00">23</text>
</g>
<!-- 13&#45;&gt;23 -->
<g id="edge46" class="edge"><title>13&#45;&gt;23</title>
<path fill="none" stroke="#7f007f" stroke-width="4" d="M513.583,-347.824C576.98,-347.131 746.192,-345.281 819.887,-344.476"/>
<polygon fill="#7f007f" stroke="#7f007f" points="820.081,-347.974 830.042,-344.365 820.005,-340.975 820.081,-347.974"/>
</g>
<!-- 20&#45;&gt;T -->
<g id="edge124" class="edge"><title>20&#45;&gt;T</title>
<path fill="none" stroke="black" stroke-width="4" d="M751.986,-235.602C788.191,-207.182 870.756,-147.646 952,-126.092 1016.37,-109.016 1196.2,-139.882 1246,-184.092 1306.83,-238.099 1327.43,-338.022 1334.05,-386.809"/>
<polygon fill="black" stroke="black" points="1330.61,-387.472 1335.33,-396.958 1337.55,-386.6 1330.61,-387.472"/>
</g>
<!-- 20&#45;&gt;21 -->
<g id="edge126" class="edge"><title>20&#45;&gt;21</title>
<path fill="none" stroke="black" stroke-width="4" d="M748.17,-270.45C767.023,-294.369 800.338,-336.184 830,-371.092 830.696,-371.912 831.407,-372.742 832.126,-373.578"/>
<polygon fill="black" stroke="black" points="829.514,-375.907 838.731,-381.132 834.784,-371.3 829.514,-375.907"/>
</g>
<!-- 20&#45;&gt;26 -->
<g id="edge128" class="edge"><title>20&#45;&gt;26</title>
<path fill="none" stroke="#7f7f00" stroke-width="4" d="M757.583,-248.54C821.132,-241.942 991.008,-224.305 1064.42,-216.683"/>
<polygon fill="#7f7f00" stroke="#7f7f00" points="1064.94,-220.148 1074.52,-215.633 1064.22,-213.185 1064.94,-220.148"/>
</g>
<!-- 20&#45;&gt;27 -->
<g id="edge130" class="edge"><title>20&#45;&gt;27</title>
<path fill="none" stroke="#7f7f00" stroke-width="4" d="M757.518,-250.086C786.756,-250.733 837.068,-253.847 880,-259.092 993.26,-272.931 1126.25,-298.179 1187.28,-311.502"/>
<polygon fill="#7f7f00" stroke="#7f7f00" points="1186.61,-314.939 1197.13,-313.69 1188.13,-308.106 1186.61,-314.939"/>
</g>
<!-- 20&#45;&gt;27 -->
<g id="edge132" class="edge"><title>20&#45;&gt;27</title>
<path fill="none" stroke="#007f7f" stroke-width="4" d="M757.259,-255.048C786.459,-257.715 836.941,-260.831 880,-266.092 992.697,-279.862 1124.92,-304.928 1186.37,-315.483"/>
<polygon fill="#007f7f" stroke="#007f7f" points="1185.86,-318.946 1196.3,-317.164 1187.02,-312.045 1185.86,-318.946"/>
</g>
<!-- 22&#45;&gt;T -->
<g id="edge106" class="edge"><title>22&#45;&gt;T</title>
<path fill="none" stroke="black" stroke-width="4" d="M878.721,-282.48C942.396,-266.111 1120.72,-229.442 1246,-293.092 1285.58,-313.201 1312.4,-359.461 1326.17,-388.887"/>
<polygon fill="black" stroke="black" points="1323.04,-390.472 1330.33,-398.159 1329.43,-387.603 1323.04,-390.472"/>
</g>
<!-- 22&#45;&gt;24 -->
<g id="edge108" class="edge"><title>22&#45;&gt;24</title>
<path fill="none" stroke="black" stroke-width="4" d="M871.964,-306.612C892.968,-328.305 928.889,-365.404 952.787,-390.085"/>
<polygon fill="black" stroke="black" points="950.317,-392.566 959.787,-397.315 955.346,-387.696 950.317,-392.566"/>
</g>
<!-- 22&#45;&gt;26 -->
<g id="edge110" class="edge"><title>22&#45;&gt;26</title>
<path fill="none" stroke="#7f007f" stroke-width="4" d="M878.396,-281.805C921.917,-268.249 1015.44,-239.119 1065.6,-223.496"/>
<polygon fill="#7f007f" stroke="#7f007f" points="1066.81,-226.785 1075.32,-220.469 1064.73,-220.101 1066.81,-226.785"/>
</g>
<!-- 22&#45;&gt;27 -->
<g id="edge112" class="edge"><title>22&#45;&gt;27</title>
<path fill="none" stroke="#7f7f00" stroke-width="4" d="M879.583,-288.378C943.132,-290.641 1113.01,-304.885 1186.42,-313.933"/>
<polygon fill="#7f7f00" stroke="#7f7f00" points="1186.16,-317.428 1196.52,-315.228 1187.05,-310.485 1186.16,-317.428"/>
</g>
<!-- 22&#45;&gt;27 -->
<g id="edge114" class="edge"><title>22&#45;&gt;27</title>
<path fill="none" stroke="#007f7f" stroke-width="4" d="M879.583,-291.174C943.132,-296.557 1113.01,-310.945 1186.42,-317.163"/>
<polygon fill="#007f7f" stroke="#007f7f" points="1186.26,-320.663 1196.52,-318.019 1186.86,-313.688 1186.26,-320.663"/>
</g>
<!-- 22&#45;&gt;27 -->
<g id="edge116" class="edge"><title>22&#45;&gt;27</title>
<path fill="none" stroke="#7f7f00" stroke-width="4" d="M879.014,-293.895C942.071,-302.38 1112.56,-316.976 1186.27,-320.387"/>
<polygon fill="#7f7f00" stroke="#7f7f00" points="1186.28,-323.89 1196.42,-320.807 1186.57,-316.896 1186.28,-323.89"/>
</g>
<!-- 23&#45;&gt;T -->
<g id="edge50" class="edge"><title>23&#45;&gt;T</title>
<path fill="none" stroke="black" stroke-width="4" d="M879.233,-347.662C960.324,-359.607 1221.95,-398.145 1308.73,-410.929"/>
<polygon fill="black" stroke="black" points="1308.25,-414.395 1318.66,-412.39 1309.27,-407.47 1308.25,-414.395"/>
</g>
<!-- 23&#45;&gt;24 -->
<g id="edge52" class="edge"><title>23&#45;&gt;24</title>
<path fill="none" stroke="black" stroke-width="4" d="M876.251,-356.46C895.725,-367.793 924.771,-384.697 946.68,-397.447"/>
<polygon fill="black" stroke="black" points="945.18,-400.624 955.583,-402.629 948.701,-394.574 945.18,-400.624"/>
</g>
<!-- 23&#45;&gt;27 -->
<g id="edge54" class="edge"><title>23&#45;&gt;27</title>
<path fill="none" stroke="#7f7f00" stroke-width="4" d="M879.014,-338.562C942.071,-329.935 1112.56,-318.533 1186.27,-317.746"/>
<polygon fill="#7f7f00" stroke="#7f7f00" points="1186.43,-321.246 1196.42,-317.709 1186.4,-314.246 1186.43,-321.246"/>
</g>
<!-- 23&#45;&gt;27 -->
<g id="edge56" class="edge"><title>23&#45;&gt;27</title>
<path fill="none" stroke="#007f7f" stroke-width="4" d="M879.583,-341.282C942.98,-335.791 1112.19,-324.63 1185.89,-321.002"/>
<polygon fill="#007f7f" stroke="#007f7f" points="1186.22,-324.49 1196.04,-320.522 1185.89,-317.498 1186.22,-324.49"/>
</g>
<!-- 23&#45;&gt;27 -->
<g id="edge58" class="edge"><title>23&#45;&gt;27</title>
<path fill="none" stroke="#7f007f" stroke-width="4" d="M879.583,-344.078C943.132,-341.694 1113.01,-330.637 1186.42,-324.206"/>
<polygon fill="#7f007f" stroke="#7f007f" points="1186.88,-327.679 1196.52,-323.292 1186.25,-320.707 1186.88,-327.679"/>
</g>
<!-- 23&#45;&gt;27 -->
<g id="edge60" class="edge"><title>23&#45;&gt;27</title>
<path fill="none" stroke="#7f7f00" stroke-width="4" d="M879.583,-346.875C943.285,-347.612 1113.83,-336.645 1186.95,-327.37"/>
<polygon fill="#7f7f00" stroke="#7f7f00" points="1187.56,-330.819 1197,-326.015 1186.62,-323.881 1187.56,-330.819"/>
</g>
<!-- 18 -->
<g id="node48" class="node"><title>18</title>
<ellipse fill="none" stroke="black" stroke-width="2" cx="489" cy="-199.092" rx="24.2437" ry="24.7487"/>
<text text-anchor="middle" x="489" y="-195.492" font-family="Times Roman,serif" font-size="14.00">18</text>
</g>
<!-- 18&#45;&gt;T -->
<g id="edge62" class="edge"><title>18&#45;&gt;T</title>
<path fill="none" stroke="black" stroke-width="4" d="M506.65,-182.36C544.74,-148.086 638.84,-73.0923 733,-73.0923 733,-73.0923 733,-73.0923 1099,-73.0923 1164.67,-73.0923 1195.79,-45.7581 1246,-88.0923 1292.39,-127.205 1323.03,-314.986 1333.24,-386.946"/>
<polygon fill="black" stroke="black" points="1329.81,-387.655 1334.65,-397.076 1336.74,-386.689 1329.81,-387.655"/>
</g>
<!-- 18&#45;&gt;26 -->
<g id="edge64" class="edge"><title>18&#45;&gt;26</title>
<path fill="none" stroke="#007f7f" stroke-width="4" d="M513.145,-193.336C532.666,-188.992 560.928,-183.399 586,-181.092 608.129,-179.056 613.791,-180.326 636,-181.092 796.354,-186.627 987.39,-202.914 1064.35,-209.876"/>
<polygon fill="#007f7f" stroke="#007f7f" points="1064.16,-213.373 1074.44,-210.795 1064.79,-206.402 1064.16,-213.373"/>
</g>
<!-- 19 -->
<g id="node52" class="node"><title>19</title>
<ellipse fill="none" stroke="black" stroke-width="2" cx="611" cy="-208.092" rx="24.2437" ry="24.7487"/>
<text text-anchor="middle" x="611" y="-204.492" font-family="Times Roman,serif" font-size="14.00">19</text>
</g>
<!-- 18&#45;&gt;19 -->
<g id="edge66" class="edge"><title>18&#45;&gt;19</title>
<path fill="none" stroke="black" stroke-width="4" d="M513.689,-200.914C531.63,-202.237 556.162,-204.047 576.105,-205.518"/>
<polygon fill="black" stroke="black" points="576.118,-209.028 586.348,-206.274 576.633,-202.047 576.118,-209.028"/>
</g>
<!-- 19&#45;&gt;T -->
<g id="edge188" class="edge"><title>19&#45;&gt;T</title>
<path fill="none" stroke="black" stroke-width="4" d="M624.862,-188.014C641.705,-165.332 672.333,-129.223 708,-111.092 766.949,-81.1259 788.872,-88.0923 855,-88.0923 855,-88.0923 855,-88.0923 1099,-88.0923 1165.59,-88.0923 1196.58,-72.4559 1246,-117.092 1286.78,-153.929 1320.15,-320.021 1332.19,-386.981"/>
<polygon fill="black" stroke="black" points="1328.81,-387.966 1334,-397.203 1335.7,-386.746 1328.81,-387.966"/>
</g>
<!-- 19&#45;&gt;26 -->
<g id="edge192" class="edge"><title>19&#45;&gt;26</title>
<path fill="none" stroke="#7f7f00" stroke-width="4" d="M635.534,-208.344C715.839,-209.166 971.015,-211.781 1064.36,-212.737"/>
<polygon fill="#7f7f00" stroke="#7f7f00" points="1064.38,-216.238 1074.42,-212.84 1064.45,-209.238 1064.38,-216.238"/>
</g>
<!-- 19&#45;&gt;20 -->
<g id="edge190" class="edge"><title>19&#45;&gt;20</title>
<path fill="none" stroke="black" stroke-width="4" d="M634.234,-216.281C652.89,-222.857 679.315,-232.171 700.138,-239.51"/>
<polygon fill="black" stroke="black" points="699.257,-242.91 709.852,-242.934 701.584,-236.308 699.257,-242.91"/>
</g>
<!-- 7&#45;&gt;14 -->
<g id="edge84" class="edge"><title>7&#45;&gt;14</title>
<path fill="none" stroke="#007f7f" stroke-width="4" d="M506.74,-507.567C525.277,-501.793 554.794,-492.599 577.698,-485.465"/>
<polygon fill="#007f7f" stroke="#007f7f" points="578.868,-488.767 587.374,-482.451 576.786,-482.083 578.868,-488.767"/>
</g>
<!-- 7&#45;&gt;T -->
<g id="edge80" class="edge"><title>7&#45;&gt;T</title>
<path fill="none" stroke="black" stroke-width="4" d="M506.878,-518.327C546.966,-529.586 647.247,-555.092 733,-555.092 733,-555.092 733,-555.092 1099,-555.092 1164.67,-555.092 1189.06,-572.815 1246,-540.092 1285.1,-517.621 1312.07,-470.807 1326,-441.279"/>
<polygon fill="black" stroke="black" points="1329.27,-442.541 1330.22,-431.989 1322.89,-439.646 1329.27,-442.541"/>
</g>
<!-- 7&#45;&gt;15 -->
<g id="edge82" class="edge"><title>7&#45;&gt;15</title>
<path fill="none" stroke="#7f007f" stroke-width="4" d="M507.741,-512.478C548.457,-511.143 645.537,-507.96 697.971,-506.241"/>
<polygon fill="#7f007f" stroke="#7f007f" points="698.259,-509.733 708.139,-505.907 698.03,-502.737 698.259,-509.733"/>
</g>
<!-- 5 -->
<g id="node63" class="node"><title>5</title>
<ellipse fill="none" stroke="black" stroke-width="2" cx="245" cy="-348.092" rx="17.8879" ry="18.3848"/>
<text text-anchor="middle" x="245" y="-344.492" font-family="Times Roman,serif" font-size="14.00">5</text>
</g>
<!-- 5&#45;&gt;T -->
<g id="edge86" class="edge"><title>5&#45;&gt;T</title>
<path fill="none" stroke="black" stroke-width="4" d="M263.077,-352.734C360.98,-377.722 828.746,-495.092 977,-495.092 977,-495.092 977,-495.092 1099,-495.092 1165.68,-495.092 1183.41,-488.074 1246,-465.092 1269.92,-456.31 1295.17,-441.981 1312.99,-430.909"/>
<polygon fill="black" stroke="black" points="1315.01,-433.772 1321.58,-425.462 1311.26,-427.859 1315.01,-433.772"/>
</g>
<!-- 5&#45;&gt;6 -->
<g id="edge96" class="edge"><title>5&#45;&gt;6</title>
<path fill="none" stroke="black" stroke-width="4" d="M256.259,-362.581C277.594,-390.037 324.047,-449.817 349.485,-482.553"/>
<polygon fill="black" stroke="black" points="346.869,-484.89 355.768,-490.639 352.396,-480.595 346.869,-484.89"/>
</g>
<!-- 5&#45;&gt;13 -->
<g id="edge88" class="edge"><title>5&#45;&gt;13</title>
<path fill="none" stroke="#7f007f" stroke-width="4" d="M263.741,-346.823C304.562,-345.648 402.035,-345.529 454.373,-346.465"/>
<polygon fill="#7f007f" stroke="#7f007f" points="454.445,-349.967 464.514,-346.673 454.589,-342.968 454.445,-349.967"/>
</g>
<!-- 5&#45;&gt;13 -->
<g id="edge90" class="edge"><title>5&#45;&gt;13</title>
<path fill="none" stroke="#7f7f00" stroke-width="4" d="M263.741,-349.785C304.562,-351.351 402.035,-351.51 454.373,-350.262"/>
<polygon fill="#7f7f00" stroke="#7f7f00" points="454.614,-353.757 464.514,-349.985 454.422,-346.76 454.614,-353.757"/>
</g>
<!-- 12 -->
<g id="node68" class="node"><title>12</title>
<ellipse fill="none" stroke="black" stroke-width="2" cx="367" cy="-260.092" rx="24.2437" ry="24.7487"/>
<text text-anchor="middle" x="367" y="-256.492" font-family="Times Roman,serif" font-size="14.00">12</text>
</g>
<!-- 5&#45;&gt;12 -->
<g id="edge92" class="edge"><title>5&#45;&gt;12</title>
<path fill="none" stroke="#007f7f" stroke-width="4" d="M259.474,-336.134C278.784,-321.403 313.408,-296.286 338.15,-278.957"/>
<polygon fill="#007f7f" stroke="#007f7f" points="340.24,-281.766 346.449,-273.181 336.241,-276.021 340.24,-281.766"/>
</g>
<!-- 5&#45;&gt;12 -->
<g id="edge94" class="edge"><title>5&#45;&gt;12</title>
<path fill="none" stroke="#7f7f00" stroke-width="4" d="M260.949,-338.691C281.056,-325.216 315.916,-300.215 340.157,-281.99"/>
<polygon fill="#7f7f00" stroke="#7f7f00" points="342.393,-284.687 348.247,-275.856 338.163,-279.109 342.393,-284.687"/>
</g>
<!-- 12&#45;&gt;T -->
<g id="edge98" class="edge"><title>12&#45;&gt;T</title>
<path fill="none" stroke="black" stroke-width="4" d="M376.651,-238.025C391.419,-206.457 422.351,-148.236 464,-112.092 518.509,-64.7885 538.827,-43.0923 611,-43.0923 611,-43.0923 611,-43.0923 1099,-43.0923 1131.76,-43.0923 1220.93,-33.0071 1246,-54.0923 1297.61,-97.5015 1325.55,-310.026 1334.11,-387.104"/>
<polygon fill="black" stroke="black" points="1330.63,-387.485 1335.19,-397.049 1337.59,-386.729 1330.63,-387.485"/>
</g>
<!-- 12&#45;&gt;13 -->
<g id="edge102" class="edge"><title>12&#45;&gt;13</title>
<path fill="none" stroke="black" stroke-width="4" d="M386.873,-274.427C406.99,-288.937 438.276,-311.505 460.921,-327.839"/>
<polygon fill="black" stroke="black" points="458.978,-330.752 469.136,-333.764 463.073,-325.075 458.978,-330.752"/>
</g>
<!-- 12&#45;&gt;20 -->
<g id="edge100" class="edge"><title>12&#45;&gt;20</title>
<path fill="none" stroke="#007f7f" stroke-width="4" d="M391.583,-259.488C454.98,-257.929 624.192,-253.768 697.887,-251.956"/>
<polygon fill="#007f7f" stroke="#007f7f" points="698.132,-255.451 708.042,-251.706 697.959,-248.453 698.132,-255.451"/>
</g>
<!-- 12&#45;&gt;19 -->
<g id="edge104" class="edge"><title>12&#45;&gt;19</title>
<path fill="none" stroke="#7f7f00" stroke-width="4" d="M391.288,-254.916C434.952,-245.611 526.807,-226.035 576.808,-215.379"/>
<polygon fill="#7f7f00" stroke="#7f7f00" points="577.76,-218.755 586.811,-213.247 576.301,-211.909 577.76,-218.755"/>
</g>
<!-- S -->
<g id="node89" class="node"><title>S</title>
<ellipse fill="none" stroke="black" stroke-width="2" cx="19" cy="-483.092" rx="17.8879" ry="18.3848"/>
<text text-anchor="middle" x="19" y="-479.492" font-family="Times Roman,serif" font-size="14.00">S</text>
</g>
<!-- S&#45;&gt;2 -->
<g id="edge136" class="edge"><title>S&#45;&gt;2</title>
<path fill="none" stroke="#7f7f00" stroke-width="4" d="M37.4945,-485.465C76.9089,-490.523 169.409,-502.393 216.449,-508.429"/>
<polygon fill="#7f7f00" stroke="#7f7f00" points="216.203,-511.926 226.567,-509.727 217.094,-504.983 216.203,-511.926"/>
</g>
<!-- S&#45;&gt;5 -->
<g id="edge144" class="edge"><title>S&#45;&gt;5</title>
<path fill="none" stroke="#7f007f" stroke-width="4" d="M34.8919,-473.599C73.7129,-450.41 173.597,-390.744 220.274,-362.862"/>
<polygon fill="#7f007f" stroke="#7f007f" points="222.336,-365.708 229.126,-357.575 218.746,-359.698 222.336,-365.708"/>
</g>
<!-- 4 -->
<g id="node91" class="node"><title>4</title>
<ellipse fill="none" stroke="black" stroke-width="2" cx="129" cy="-260.092" rx="17.8879" ry="18.3848"/>
<text text-anchor="middle" x="129" y="-256.492" font-family="Times Roman,serif" font-size="14.00">4</text>
</g>
<!-- S&#45;&gt;4 -->
<g id="edge134" class="edge"><title>S&#45;&gt;4</title>
<path fill="none" stroke="#007f7f" stroke-width="4" d="M27.0886,-466.695C46.0801,-428.194 93.6349,-331.787 116.43,-285.575"/>
<polygon fill="#007f7f" stroke="#007f7f" points="119.615,-287.031 120.9,-276.514 113.337,-283.934 119.615,-287.031"/>
</g>
<!-- 1 -->
<g id="node94" class="node"><title>1</title>
<ellipse fill="none" stroke="black" stroke-width="2" cx="245" cy="-555.092" rx="17.8879" ry="18.3848"/>
<text text-anchor="middle" x="245" y="-551.492" font-family="Times Roman,serif" font-size="14.00">1</text>
</g>
<!-- S&#45;&gt;1 -->
<g id="edge138" class="edge"><title>S&#45;&gt;1</title>
<path fill="none" stroke="#7f007f" stroke-width="4" d="M37.1125,-487.57C76.7458,-499.002 171.339,-529.061 218.013,-544.972"/>
<polygon fill="#7f007f" stroke="#7f007f" points="217.141,-548.374 227.735,-548.326 219.423,-541.756 217.141,-548.374"/>
</g>
<!-- S&#45;&gt;1 -->
<g id="edge140" class="edge"><title>S&#45;&gt;1</title>
<path fill="none" stroke="#007f7f" stroke-width="4" d="M36.3586,-490.315C75.2763,-504.326 169.789,-534.557 217.081,-548.255"/>
<polygon fill="#007f7f" stroke="#007f7f" points="216.38,-551.694 226.957,-551.064 218.296,-544.961 216.38,-551.694"/>
</g>
<!-- 3 -->
<g id="node97" class="node"><title>3</title>
<ellipse fill="none" stroke="black" stroke-width="2" cx="245" cy="-454.092" rx="17.8879" ry="18.3848"/>
<text text-anchor="middle" x="245" y="-450.492" font-family="Times Roman,serif" font-size="14.00">3</text>
</g>
<!-- S&#45;&gt;3 -->
<g id="edge142" class="edge"><title>S&#45;&gt;3</title>
<path fill="none" stroke="#7f7f00" stroke-width="4" d="M37.4945,-480.719C76.9089,-475.661 169.409,-463.792 216.449,-457.756"/>
<polygon fill="#7f7f00" stroke="#7f7f00" points="217.094,-461.202 226.567,-456.458 216.203,-454.259 217.094,-461.202"/>
</g>
<!-- 4&#45;&gt;T -->
<g id="edge170" class="edge"><title>4&#45;&gt;T</title>
<path fill="none" stroke="black" stroke-width="4" d="M135.507,-243.115C158.12,-187.311 238.968,-13.0923 367,-13.0923 367,-13.0923 367,-13.0923 1099,-13.0923 1164.43,-13.0923 1195.92,21.0134 1246,-21.0923 1302.57,-68.6521 1327.64,-304.491 1334.76,-386.739"/>
<polygon fill="black" stroke="black" points="1331.29,-387.186 1335.61,-396.857 1338.26,-386.599 1331.29,-387.186"/>
</g>
<!-- 4&#45;&gt;6 -->
<g id="edge178" class="edge"><title>4&#45;&gt;6</title>
<path fill="none" stroke="black" stroke-width="4" d="M131.023,-278.143C136.711,-319.867 156.796,-423.366 220,-475.092 229.09,-482.531 298.352,-494.381 338.478,-500.733"/>
<polygon fill="black" stroke="black" points="338.052,-504.209 348.473,-502.297 339.135,-497.293 338.052,-504.209"/>
</g>
<!-- 4&#45;&gt;13 -->
<g id="edge172" class="edge"><title>4&#45;&gt;13</title>
<path fill="none" stroke="#7f7f00" stroke-width="4" d="M147.347,-264.577C204.686,-278.593 381.107,-321.718 455.433,-339.887"/>
<polygon fill="#7f7f00" stroke="#7f7f00" points="454.675,-343.305 465.221,-342.28 456.338,-336.505 454.675,-343.305"/>
</g>
<!-- 4&#45;&gt;12 -->
<g id="edge174" class="edge"><title>4&#45;&gt;12</title>
<path fill="none" stroke="#7f7f00" stroke-width="4" d="M147.675,-260.092C187.472,-260.092 281.16,-260.092 332.265,-260.092"/>
<polygon fill="#7f7f00" stroke="#7f7f00" points="332.489,-263.592 342.489,-260.092 332.489,-256.592 332.489,-263.592"/>
</g>
<!-- 10 -->
<g id="node116" class="node"><title>10</title>
<ellipse fill="none" stroke="black" stroke-width="2" cx="489" cy="-139.092" rx="24.2437" ry="24.7487"/>
<text text-anchor="middle" x="489" y="-135.492" font-family="Times Roman,serif" font-size="14.00">10</text>
</g>
<!-- 4&#45;&gt;10 -->
<g id="edge176" class="edge"><title>4&#45;&gt;10</title>
<path fill="none" stroke="#7f007f" stroke-width="4" d="M141.813,-246.748C158.298,-230.431 188.574,-203.246 220,-189.092 298.811,-153.597 401.492,-143.3 454.292,-140.313"/>
<polygon fill="#7f007f" stroke="#7f007f" points="454.662,-143.799 464.47,-139.794 454.305,-136.808 454.662,-143.799"/>
</g>
<!-- 11 -->
<g id="node119" class="node"><title>11</title>
<ellipse fill="none" stroke="black" stroke-width="2" cx="245" cy="-216.092" rx="24.2437" ry="24.7487"/>
<text text-anchor="middle" x="245" y="-212.492" font-family="Times Roman,serif" font-size="14.00">11</text>
</g>
<!-- 4&#45;&gt;11 -->
<g id="edge180" class="edge"><title>4&#45;&gt;11</title>
<path fill="none" stroke="#007f7f" stroke-width="4" d="M146.366,-253.505C163.796,-246.894 191.063,-236.551 212.515,-228.414"/>
<polygon fill="#007f7f" stroke="#007f7f" points="213.797,-231.671 221.905,-224.852 211.314,-225.126 213.797,-231.671"/>
</g>
<!-- 1&#45;&gt;T -->
<g id="edge156" class="edge"><title>1&#45;&gt;T</title>
<path fill="none" stroke="black" stroke-width="4" d="M261.326,-563.842C299.81,-583.627 399.701,-630.092 489,-630.092 489,-630.092 489,-630.092 1099,-630.092 1164.77,-630.092 1192.76,-651.71 1246,-613.092 1302.58,-572.049 1324.89,-487.111 1332.93,-443.019"/>
<polygon fill="black" stroke="black" points="1336.41,-443.439 1334.63,-432.993 1329.5,-442.264 1336.41,-443.439"/>
</g>
<!-- 1&#45;&gt;6 -->
<g id="edge158" class="edge"><title>1&#45;&gt;6</title>
<path fill="none" stroke="#007f7f" stroke-width="4" d="M262.221,-548.035C282.566,-539.696 316.644,-525.73 340.392,-515.997"/>
<polygon fill="#007f7f" stroke="#007f7f" points="341.941,-519.145 349.867,-512.114 339.286,-512.668 341.941,-519.145"/>
</g>
<!-- 1&#45;&gt;7 -->
<g id="edge160" class="edge"><title>1&#45;&gt;7</title>
<path fill="none" stroke="#7f007f" stroke-width="4" d="M263.34,-551.935C305.659,-544.651 410.366,-526.628 460.868,-517.935"/>
<polygon fill="#7f007f" stroke="#7f007f" points="461.519,-521.374 470.78,-516.228 460.332,-514.476 461.519,-521.374"/>
</g>
<!-- 3&#45;&gt;T -->
<g id="edge146" class="edge"><title>3&#45;&gt;T</title>
<path fill="none" stroke="black" stroke-width="4" d="M259.181,-466.116C277.559,-481.374 310.936,-507.999 342,-527.092 393.479,-558.733 405.807,-570.822 464,-587.092 527.166,-604.753 545.412,-600.092 611,-600.092 611,-600.092 611,-600.092 1099,-600.092 1164.77,-600.092 1191.52,-619.943 1246,-583.092 1295.1,-549.88 1319.99,-481.174 1330.55,-442.71"/>
<polygon fill="black" stroke="black" points="1334.02,-443.278 1333.15,-432.718 1327.24,-441.511 1334.02,-443.278"/>
</g>
<!-- 3&#45;&gt;6 -->
<g id="edge152" class="edge"><title>3&#45;&gt;6</title>
<path fill="none" stroke="black" stroke-width="4" d="M262.221,-461.291C282.566,-469.796 316.644,-484.042 340.392,-493.969"/>
<polygon fill="black" stroke="black" points="339.291,-497.302 349.867,-497.93 341.99,-490.844 339.291,-497.302"/>
</g>
<!-- 3&#45;&gt;9 -->
<g id="edge154" class="edge"><title>3&#45;&gt;9</title>
<path fill="none" stroke="#7f007f" stroke-width="4" d="M263.741,-454.169C306.055,-454.342 409.241,-454.765 459.93,-454.973"/>
<polygon fill="#7f007f" stroke="#7f007f" points="460.181,-458.474 470.195,-455.015 460.209,-451.474 460.181,-458.474"/>
</g>
<!-- 3&#45;&gt;13 -->
<g id="edge148" class="edge"><title>3&#45;&gt;13</title>
<path fill="none" stroke="#7f7f00" stroke-width="4" d="M262.158,-446.639C302.615,-429.063 404.5,-384.801 456.851,-362.058"/>
<polygon fill="#7f7f00" stroke="#7f7f00" points="458.549,-365.137 466.327,-357.942 455.76,-358.717 458.549,-365.137"/>
</g>
<!-- 3&#45;&gt;12 -->
<g id="edge150" class="edge"><title>3&#45;&gt;12</title>
<path fill="none" stroke="#7f7f00" stroke-width="4" d="M254.778,-438.544C275.164,-406.127 322.488,-330.874 348.702,-289.19"/>
<polygon fill="#7f7f00" stroke="#7f7f00" points="351.751,-290.915 354.112,-280.586 345.826,-287.188 351.751,-290.915"/>
</g>
<!-- 16&#45;&gt;T -->
<g id="edge194" class="edge"><title>16&#45;&gt;T</title>
<path fill="none" stroke="black" stroke-width="4" d="M756.745,-412.223C776.278,-417.902 804.754,-425.759 830,-431.092 1010.98,-469.326 1064.98,-482.17 1246,-444.092 1267.94,-439.477 1292.09,-431.647 1310,-425.285"/>
<polygon fill="black" stroke="black" points="1311.29,-428.539 1319.5,-421.839 1308.9,-421.958 1311.29,-428.539"/>
</g>
<!-- 16&#45;&gt;21 -->
<g id="edge196" class="edge"><title>16&#45;&gt;21</title>
<path fill="none" stroke="black" stroke-width="4" d="M757.689,-403.878C775.63,-402.996 800.162,-401.789 820.105,-400.808"/>
<polygon fill="black" stroke="black" points="820.532,-404.292 830.348,-400.305 820.188,-397.3 820.532,-404.292"/>
</g>
<!-- 16&#45;&gt;24 -->
<g id="edge198" class="edge"><title>16&#45;&gt;24</title>
<path fill="none" stroke="#7f007f" stroke-width="4" d="M756.687,-411.703C776.185,-416.784 804.644,-423.379 830,-426.092 868.583,-430.221 913.029,-425.6 942.858,-421.146"/>
<polygon fill="#7f007f" stroke="#7f007f" points="943.429,-424.599 952.766,-419.592 942.344,-417.684 943.429,-424.599"/>
</g>
<!-- 10&#45;&gt;14 -->
<g id="edge210" class="edge"><title>10&#45;&gt;14</title>
<path fill="none" stroke="black" stroke-width="4" d="M504.703,-157.553C508.085,-162.11 511.416,-167.117 514,-172.092 561.698,-263.918 591.532,-383.613 604.103,-441.212"/>
<polygon fill="black" stroke="black" points="600.731,-442.18 606.25,-451.224 607.576,-440.713 600.731,-442.18"/>
</g>
<!-- 10&#45;&gt;T -->
<g id="edge206" class="edge"><title>10&#45;&gt;T</title>
<path fill="none" stroke="black" stroke-width="4" d="M510.407,-126.79C551.918,-104.131 646.856,-58.0923 733,-58.0923 733,-58.0923 733,-58.0923 1099,-58.0923 1131.72,-58.0923 1220.67,-45.3931 1246,-66.0923 1296.38,-107.252 1324.92,-311.508 1333.89,-386.992"/>
<polygon fill="black" stroke="black" points="1330.44,-387.631 1335.07,-397.16 1337.4,-386.823 1330.44,-387.631"/>
</g>
<!-- 10&#45;&gt;17 -->
<g id="edge208" class="edge"><title>10&#45;&gt;17</title>
<path fill="none" stroke="#7f007f" stroke-width="4" d="M513.739,-138.991C557.399,-138.812 648.22,-138.44 698.185,-138.235"/>
<polygon fill="#7f007f" stroke="#7f007f" points="698.21,-141.735 708.196,-138.194 698.181,-134.735 698.21,-141.735"/>
</g>
<!-- 11&#45;&gt;T -->
<g id="edge182" class="edge"><title>11&#45;&gt;T</title>
<path fill="none" stroke="black" stroke-width="4" d="M257.846,-195.615C290.181,-146.89 380.175,-28.0923 489,-28.0923 489,-28.0923 489,-28.0923 1099,-28.0923 1164.59,-28.0923 1196.27,1.66849 1246,-41.0923 1298.99,-86.6551 1326.14,-307.43 1334.3,-386.691"/>
<polygon fill="black" stroke="black" points="1330.84,-387.302 1335.32,-396.902 1337.81,-386.603 1330.84,-387.302"/>
</g>
<!-- 11&#45;&gt;18 -->
<g id="edge186" class="edge"><title>11&#45;&gt;18</title>
<path fill="none" stroke="#007f7f" stroke-width="4" d="M269.739,-214.369C313.513,-211.319 404.691,-204.966 454.573,-201.491"/>
<polygon fill="#007f7f" stroke="#007f7f" points="454.826,-204.982 464.558,-200.795 454.339,-197.999 454.826,-204.982"/>
</g>
<!-- 11&#45;&gt;12 -->
<g id="edge184" class="edge"><title>11&#45;&gt;12</title>
<path fill="none" stroke="black" stroke-width="4" d="M268.234,-224.472C286.975,-231.231 313.556,-240.817 334.422,-248.343"/>
<polygon fill="black" stroke="black" points="333.258,-251.644 343.852,-251.744 335.633,-245.059 333.258,-251.644"/>
</g>
</g>
</svg>
