<?xml version="1.0" encoding="UTF-8" standalone="no"?>
<!DOCTYPE svg PUBLIC "-//W3C//DTD SVG 1.1//EN"
 "http://www.w3.org/Graphics/SVG/1.1/DTD/svg11.dtd">
<!-- Generated by graphviz version 2.26.3 (20100126.1600)
 -->
<!-- Title: _anonymous_0 Pages: 1 -->
<svg width="764pt" height="257pt"
 viewBox="0.00 0.00 764.00 256.67" xmlns="http://www.w3.org/2000/svg" xmlns:xlink="http://www.w3.org/1999/xlink">
<g id="graph1" class="graph" transform="scale(1 1) rotate(0) translate(4 252.673)">
<title>_anonymous_0</title>
<polygon fill="white" stroke="white" points="-4,5 -4,-252.673 761,-252.673 761,5 -4,5"/>
<!-- G15 -->
<g id="node1" class="node"><title>G15</title>
<ellipse fill="none" stroke="black" stroke-width="2" cx="171" cy="-118.673" rx="32.0265" ry="32.5269"/>
<text text-anchor="middle" x="171" y="-115.073" font-family="Times Roman,serif" font-size="14.00">G15</text>
</g>
<!-- G16 -->
<g id="node3" class="node"><title>G16</title>
<ellipse fill="none" stroke="black" stroke-width="2" cx="585" cy="-118.673" rx="32.0265" ry="32.5269"/>
<text text-anchor="middle" x="585" y="-115.073" font-family="Times Roman,serif" font-size="14.00">G16</text>
</g>
<!-- G15&#45;&gt;G16 -->
<g id="edge2" class="edge"><title>G15&#45;&gt;G16</title>
<path fill="none" stroke="#547f00" stroke-width="4" d="M203.486,-117.392C277.611,-116.154 459.216,-116.103 542.278,-117.238"/>
<polygon fill="#547f00" stroke="#547f00" points="542.327,-120.739 552.379,-117.39 542.433,-113.74 542.327,-120.739"/>
</g>
<!-- G15&#45;&gt;G16 -->
<g id="edge4" class="edge"><title>G15&#45;&gt;G16</title>
<path fill="none" stroke="black" stroke-width="4" d="M203.486,-120.381C277.611,-122.032 459.216,-122.101 542.278,-120.587"/>
<polygon fill="black" stroke="black" points="542.451,-124.085 552.379,-120.384 542.311,-117.086 542.451,-124.085"/>
</g>
<!-- G1T -->
<g id="node6" class="node"><title>G1T</title>
<ellipse fill="none" stroke="black" stroke-width="2" cx="723" cy="-94.6734" rx="32.0265" ry="32.5269"/>
<text text-anchor="middle" x="723" y="-91.0734" font-family="Times Roman,serif" font-size="14.00">G1T</text>
</g>
<!-- G15&#45;&gt;G1T -->
<g id="edge6" class="edge"><title>G15&#45;&gt;G1T</title>
<path fill="none" stroke="black" stroke-width="4" d="M193.031,-94.8816C212.697,-75.4041 243.364,-49.1097 276,-36.6734 418.037,17.4511 472.127,6.04756 618,-36.6734 642.784,-43.9318 668.195,-57.7678 687.81,-70.1058"/>
<polygon fill="black" stroke="black" points="686.091,-73.1616 696.392,-75.6401 689.885,-67.2789 686.091,-73.1616"/>
</g>
<!-- G16&#45;&gt;G1T -->
<g id="edge8" class="edge"><title>G16&#45;&gt;G1T</title>
<path fill="none" stroke="black" stroke-width="4" d="M617.007,-113.107C635.943,-109.814 660.156,-105.603 680.658,-102.037"/>
<polygon fill="black" stroke="black" points="681.436,-105.454 690.689,-100.293 680.237,-98.558 681.436,-105.454"/>
</g>
<!-- G11 -->
<g id="node8" class="node"><title>G11</title>
<ellipse fill="none" stroke="black" stroke-width="2" cx="171" cy="-216.673" rx="32.0265" ry="32.5269"/>
<text text-anchor="middle" x="171" y="-213.073" font-family="Times Roman,serif" font-size="14.00">G11</text>
</g>
<!-- G11&#45;&gt;G16 -->
<g id="edge10" class="edge"><title>G11&#45;&gt;G16</title>
<path fill="none" stroke="#54007f" stroke-width="4" d="M203.814,-216.421C238.499,-215.59 294.632,-212.634 342,-202.673 415.968,-187.12 498.402,-155.39 545.739,-135.689"/>
<polygon fill="#54007f" stroke="#54007f" points="547.143,-138.895 555.009,-131.797 544.433,-132.441 547.143,-138.895"/>
</g>
<!-- G11&#45;&gt;G1T -->
<g id="edge14" class="edge"><title>G11&#45;&gt;G1T</title>
<path fill="none" stroke="black" stroke-width="4" d="M203.559,-218.671C279.308,-222.122 472.013,-223.958 618,-165.673 644.287,-155.178 670.666,-137.306 690.408,-122.119"/>
<polygon fill="black" stroke="black" points="692.743,-124.735 698.443,-115.804 688.418,-119.231 692.743,-124.735"/>
</g>
<!-- G13 -->
<g id="node11" class="node"><title>G13</title>
<ellipse fill="none" stroke="black" stroke-width="2" cx="309" cy="-167.673" rx="32.0265" ry="32.5269"/>
<text text-anchor="middle" x="309" y="-164.073" font-family="Times Roman,serif" font-size="14.00">G13</text>
</g>
<!-- G11&#45;&gt;G13 -->
<g id="edge12" class="edge"><title>G11&#45;&gt;G13</title>
<path fill="none" stroke="black" stroke-width="4" d="M201.627,-205.799C221.321,-198.806 247.13,-189.642 268.509,-182.051"/>
<polygon fill="black" stroke="black" points="269.729,-185.331 277.982,-178.687 267.387,-178.735 269.729,-185.331"/>
</g>
<!-- G13&#45;&gt;G16 -->
<g id="edge38" class="edge"><title>G13&#45;&gt;G16</title>
<path fill="none" stroke="#547f00" stroke-width="4" d="M341.273,-163.733C375.748,-159.343 431.929,-151.666 480,-142.673 501.033,-138.738 524.243,-133.526 543.481,-128.964"/>
<polygon fill="#547f00" stroke="#547f00" points="544.524,-132.313 553.433,-126.579 542.892,-125.506 544.524,-132.313"/>
</g>
<!-- G13&#45;&gt;G1T -->
<g id="edge42" class="edge"><title>G13&#45;&gt;G1T</title>
<path fill="none" stroke="black" stroke-width="4" d="M341.38,-171.243C398.536,-176.469 520.489,-182.776 618,-154.673 643.306,-147.38 669.022,-132.829 688.671,-119.883"/>
<polygon fill="black" stroke="black" points="690.65,-122.77 696.974,-114.27 686.729,-116.971 690.65,-122.77"/>
</g>
<!-- G14 -->
<g id="node25" class="node"><title>G14</title>
<ellipse fill="none" stroke="black" stroke-width="2" cx="447" cy="-67.6734" rx="32.0265" ry="32.5269"/>
<text text-anchor="middle" x="447" y="-64.0734" font-family="Times Roman,serif" font-size="14.00">G14</text>
</g>
<!-- G13&#45;&gt;G14 -->
<g id="edge40" class="edge"><title>G13&#45;&gt;G14</title>
<path fill="none" stroke="black" stroke-width="4" d="M335.282,-148.629C357.247,-132.712 388.735,-109.894 412.687,-92.5382"/>
<polygon fill="black" stroke="black" points="414.772,-95.349 420.816,-86.6471 410.665,-89.6808 414.772,-95.349"/>
</g>
<!-- G1S -->
<g id="node13" class="node"><title>G1S</title>
<ellipse fill="none" stroke="black" stroke-width="2" cx="33" cy="-167.673" rx="32.0265" ry="32.5269"/>
<text text-anchor="middle" x="33" y="-164.073" font-family="Times Roman,serif" font-size="14.00">G1S</text>
</g>
<!-- G1S&#45;&gt;G15 -->
<g id="edge16" class="edge"><title>G1S&#45;&gt;G15</title>
<path fill="none" stroke="#7f5500" stroke-width="4" d="M63.6267,-156.799C83.3206,-149.806 109.13,-140.642 130.509,-133.051"/>
<polygon fill="#7f5500" stroke="#7f5500" points="131.729,-136.331 139.982,-129.687 129.387,-129.735 131.729,-136.331"/>
</g>
<!-- G1S&#45;&gt;G11 -->
<g id="edge18" class="edge"><title>G1S&#45;&gt;G11</title>
<path fill="none" stroke="#00007f" stroke-width="4" d="M63.6267,-178.548C83.3206,-185.541 109.13,-194.705 130.509,-202.296"/>
<polygon fill="#00007f" stroke="#00007f" points="129.387,-205.612 139.982,-205.66 131.729,-199.015 129.387,-205.612"/>
</g>
<!-- G1S&#45;&gt;G13 -->
<g id="edge24" class="edge"><title>G1S&#45;&gt;G13</title>
<path fill="none" stroke="black" stroke-width="4" d="M65.4723,-164.143C115.405,-161.987 211.061,-161.858 266.464,-163.756"/>
<polygon fill="black" stroke="black" points="266.524,-167.261 276.651,-164.148 266.793,-160.266 266.524,-167.261"/>
</g>
<!-- G1S&#45;&gt;G13 -->
<g id="edge26" class="edge"><title>G1S&#45;&gt;G13</title>
<path fill="none" stroke="#54007f" stroke-width="4" d="M65.7447,-167.673C115.647,-167.673 210.759,-167.673 266.114,-167.673"/>
<polygon fill="#54007f" stroke="#54007f" points="266.298,-171.173 276.298,-167.673 266.298,-164.173 266.298,-171.173"/>
</g>
<!-- G1S&#45;&gt;G13 -->
<g id="edge28" class="edge"><title>G1S&#45;&gt;G13</title>
<path fill="none" stroke="#007f00" stroke-width="4" d="M65.4723,-171.204C115.405,-173.359 211.061,-173.488 266.464,-171.591"/>
<polygon fill="#007f00" stroke="#007f00" points="266.793,-175.081 276.651,-171.199 266.524,-168.086 266.793,-175.081"/>
</g>
<!-- G12 -->
<g id="node17" class="node"><title>G12</title>
<ellipse fill="none" stroke="black" stroke-width="2" cx="309" cy="-72.6734" rx="32.0265" ry="32.5269"/>
<text text-anchor="middle" x="309" y="-69.0734" font-family="Times Roman,serif" font-size="14.00">G12</text>
</g>
<!-- G1S&#45;&gt;G12 -->
<g id="edge22" class="edge"><title>G1S&#45;&gt;G12</title>
<path fill="none" stroke="#00557f" stroke-width="4" d="M53.3786,-142.533C72.883,-121.778 104.258,-93.741 138,-80.6734 179.661,-64.5393 231.289,-63.5491 266.854,-66.093"/>
<polygon fill="#00557f" stroke="#00557f" points="266.633,-69.5867 276.891,-66.9385 267.22,-62.6114 266.633,-69.5867"/>
</g>
<!-- G1S&#45;&gt;G12 -->
<g id="edge20" class="edge"><title>G1S&#45;&gt;G12</title>
<path fill="none" stroke="#007f55" stroke-width="4" d="M56.4922,-144.939C76.128,-125.924 105.999,-100.067 138,-87.6734 179.408,-71.637 230.663,-70.5616 266.205,-71.6596"/>
<polygon fill="#007f55" stroke="#007f55" points="266.122,-75.1588 276.247,-72.036 266.385,-68.1638 266.122,-75.1588"/>
</g>
<!-- G12&#45;&gt;G16 -->
<g id="edge30" class="edge"><title>G12&#45;&gt;G16</title>
<path fill="none" stroke="#00007f" stroke-width="4" d="M340.8,-80.8522C361.434,-86.9808 389.033,-94.9804 414,-99.6734 457.287,-107.81 507.555,-111.884 542.334,-114.451"/>
<polygon fill="#00007f" stroke="#00007f" points="542.377,-117.963 552.606,-115.202 542.888,-110.982 542.377,-117.963"/>
</g>
<!-- G12&#45;&gt;G16 -->
<g id="edge32" class="edge"><title>G12&#45;&gt;G16</title>
<path fill="none" stroke="#007f55" stroke-width="4" d="M338.971,-86.212C359.784,-93.5002 388.287,-101.84 414,-106.673 457.155,-114.785 507.247,-118.859 542.014,-120.095"/>
<polygon fill="#007f55" stroke="#007f55" points="542.191,-123.601 552.287,-120.388 542.391,-116.604 542.191,-123.601"/>
</g>
<!-- G12&#45;&gt;G1T -->
<g id="edge36" class="edge"><title>G12&#45;&gt;G1T</title>
<path fill="none" stroke="black" stroke-width="4" d="M338.485,-58.1178C359.081,-48.7884 387.525,-37.5455 414,-32.6734 511.36,-14.7567 625.445,-53.1338 683.984,-77.1829"/>
<polygon fill="black" stroke="black" points="682.656,-80.4211 693.232,-81.0539 685.359,-73.964 682.656,-80.4211"/>
</g>
<!-- G12&#45;&gt;G14 -->
<g id="edge34" class="edge"><title>G12&#45;&gt;G14</title>
<path fill="none" stroke="black" stroke-width="4" d="M341.704,-71.4885C360.301,-70.8146 383.816,-69.9627 403.904,-69.2348"/>
<polygon fill="black" stroke="black" points="404.186,-72.727 414.052,-68.8671 403.932,-65.7316 404.186,-72.727"/>
</g>
<!-- G14&#45;&gt;G16 -->
<g id="edge44" class="edge"><title>G14&#45;&gt;G16</title>
<path fill="none" stroke="#7f0000" stroke-width="4" d="M477.627,-78.9919C497.458,-86.321 523.491,-95.9419 544.957,-103.875"/>
<polygon fill="#7f0000" stroke="#7f0000" points="543.866,-107.203 554.459,-107.386 546.292,-100.637 543.866,-107.203"/>
</g>
<!-- G14&#45;&gt;G1T -->
<g id="edge46" class="edge"><title>G14&#45;&gt;G1T</title>
<path fill="none" stroke="black" stroke-width="4" d="M479.474,-70.6039C513.879,-73.734 569.784,-78.8922 618,-83.6734 638.468,-85.703 661.168,-88.067 680.21,-90.0821"/>
<polygon fill="black" stroke="black" points="680.061,-93.5859 690.375,-91.1614 680.8,-86.6251 680.061,-93.5859"/>
</g>
</g>
</svg>
