<?xml version="1.0" encoding="UTF-8" standalone="no"?>
<!DOCTYPE svg PUBLIC "-//W3C//DTD SVG 1.1//EN"
 "http://www.w3.org/Graphics/SVG/1.1/DTD/svg11.dtd">
<!-- Generated by graphviz version 2.26.3 (20100126.1600)
 -->
<!-- Title: _anonymous_0 Pages: 1 -->
<svg width="1122pt" height="672pt"
 viewBox="0.00 0.00 1122.00 672.00" xmlns="http://www.w3.org/2000/svg" xmlns:xlink="http://www.w3.org/1999/xlink">
<g id="graph1" class="graph" transform="scale(1 1) rotate(0) translate(4 668)">
<title>_anonymous_0</title>
<polygon fill="white" stroke="white" points="-4,5 -4,-668 1119,-668 1119,5 -4,5"/>
<!-- G02 -->
<g id="node1" class="node"><title>G02</title>
<ellipse fill="none" stroke="black" stroke-width="2" cx="281" cy="-632" rx="32.0265" ry="32.5269"/>
<text text-anchor="middle" x="281" y="-628.4" font-family="Times Roman,serif" font-size="14.00">G02</text>
</g>
<!-- G0T -->
<g id="node3" class="node"><title>G0T</title>
<ellipse fill="none" stroke="black" stroke-width="2" cx="971" cy="-471" rx="32.0265" ry="32.5269"/>
<text text-anchor="middle" x="971" y="-467.4" font-family="Times Roman,serif" font-size="14.00">G0T</text>
</g>
<!-- G02&#45;&gt;G0T -->
<g id="edge2" class="edge"><title>G02&#45;&gt;G0T</title>
<path fill="none" stroke="black" stroke-width="4" d="M313.653,-636.099C365.245,-642.21 468.819,-653 557,-653 557,-653 557,-653 695,-653 772.854,-653 800.866,-657.647 866,-615 905.75,-588.973 935.593,-542.356 953.112,-509.216"/>
<polygon fill="black" stroke="black" points="956.26,-510.748 957.724,-500.255 950.036,-507.545 956.26,-510.748"/>
</g>
<!-- G08 -->
<g id="node5" class="node"><title>G08</title>
<ellipse fill="none" stroke="black" stroke-width="2" cx="695" cy="-439" rx="32.0265" ry="32.5269"/>
<text text-anchor="middle" x="695" y="-435.4" font-family="Times Roman,serif" font-size="14.00">G08</text>
</g>
<!-- G02&#45;&gt;G08 -->
<g id="edge4" class="edge"><title>G02&#45;&gt;G08</title>
<path fill="none" stroke="black" stroke-width="4" d="M303.123,-608.089C306.779,-604.073 310.513,-599.934 314,-596 346.618,-559.205 346.714,-541.57 386,-512 439.868,-471.454 458.564,-465.245 524,-449 566.635,-438.416 617.003,-436.717 651.984,-437.173"/>
<polygon fill="black" stroke="black" points="652.254,-440.679 662.32,-437.376 652.391,-433.68 652.254,-440.679"/>
</g>
<!-- G09 -->
<g id="node7" class="node"><title>G09</title>
<ellipse fill="none" stroke="black" stroke-width="2" cx="833" cy="-551" rx="32.0265" ry="32.5269"/>
<text text-anchor="middle" x="833" y="-547.4" font-family="Times Roman,serif" font-size="14.00">G09</text>
</g>
<!-- G02&#45;&gt;G09 -->
<g id="edge6" class="edge"><title>G02&#45;&gt;G09</title>
<path fill="none" stroke="#547f00" stroke-width="4" d="M313.24,-626.319C387.143,-617.901 574.252,-602.99 728,-573 748.926,-568.918 771.785,-562.807 790.815,-557.844"/>
<polygon fill="#547f00" stroke="#547f00" points="791.865,-561.188 800.672,-555.297 790.114,-554.41 791.865,-561.188"/>
</g>
<!-- G02&#45;&gt;G09 -->
<g id="edge8" class="edge"><title>G02&#45;&gt;G09</title>
<path fill="none" stroke="#00557f" stroke-width="4" d="M313.517,-629.937C387.609,-624.864 574.444,-609.953 728,-580 749.497,-575.807 773.033,-569.472 792.364,-563.792"/>
<polygon fill="#00557f" stroke="#00557f" points="793.476,-567.113 802.056,-560.897 791.472,-560.406 793.476,-567.113"/>
</g>
<!-- G02&#45;&gt;G09 -->
<g id="edge10" class="edge"><title>G02&#45;&gt;G09</title>
<path fill="none" stroke="#54007f" stroke-width="4" d="M313.517,-633.587C387.609,-631.864 574.444,-616.953 728,-587 750.231,-582.664 774.642,-576.038 794.328,-569.496"/>
<polygon fill="#54007f" stroke="#54007f" points="795.56,-572.774 803.868,-566.2 793.273,-566.158 795.56,-572.774"/>
</g>
<!-- T -->
<g id="node11" class="node"><title>T</title>
<ellipse fill="none" stroke="black" stroke-width="2" cx="1095" cy="-138" rx="17.8879" ry="18.3848"/>
<text text-anchor="middle" x="1095" y="-134.4" font-family="Times Roman,serif" font-size="14.00">T</text>
</g>
<!-- G0T&#45;&gt;T -->
<g id="edge12" class="edge"><title>G0T&#45;&gt;T</title>
<path fill="none" stroke="black" stroke-width="4" d="M982.223,-440.861C1006.23,-376.389 1062.24,-225.977 1085.06,-164.698"/>
<polygon fill="black" stroke="black" points="1088.46,-165.584 1088.67,-154.991 1081.9,-163.141 1088.46,-165.584"/>
</g>
<!-- G08&#45;&gt;G0T -->
<g id="edge22" class="edge"><title>G08&#45;&gt;G0T</title>
<path fill="none" stroke="black" stroke-width="4" d="M727.472,-442.765C777.405,-448.554 873.061,-459.645 928.464,-466.068"/>
<polygon fill="black" stroke="black" points="928.315,-469.574 938.651,-467.249 929.121,-462.621 928.315,-469.574"/>
</g>
<!-- G08&#45;&gt;G09 -->
<g id="edge24" class="edge"><title>G08&#45;&gt;G09</title>
<path fill="none" stroke="#7f5500" stroke-width="4" d="M720.311,-459.543C742.682,-477.699 775.461,-504.302 799.906,-524.141"/>
<polygon fill="#7f5500" stroke="#7f5500" points="797.879,-527.004 807.849,-530.588 802.29,-521.568 797.879,-527.004"/>
</g>
<!-- G09&#45;&gt;G0T -->
<g id="edge62" class="edge"><title>G09&#45;&gt;G0T</title>
<path fill="none" stroke="black" stroke-width="4" d="M861.259,-534.618C882.283,-522.43 911.168,-505.685 934.026,-492.434"/>
<polygon fill="black" stroke="black" points="935.882,-495.404 942.778,-487.36 932.372,-489.348 935.882,-495.404"/>
</g>
<!-- G01 -->
<g id="node12" class="node"><title>G01</title>
<ellipse fill="none" stroke="black" stroke-width="2" cx="557" cy="-484" rx="32.0265" ry="32.5269"/>
<text text-anchor="middle" x="557" y="-480.4" font-family="Times Roman,serif" font-size="14.00">G01</text>
</g>
<!-- G01&#45;&gt;G0T -->
<g id="edge14" class="edge"><title>G01&#45;&gt;G0T</title>
<path fill="none" stroke="black" stroke-width="4" d="M589.486,-482.98C663.611,-480.652 845.216,-474.95 928.278,-472.342"/>
<polygon fill="black" stroke="black" points="928.494,-475.837 938.379,-472.024 928.274,-468.84 928.494,-475.837"/>
</g>
<!-- G01&#45;&gt;G08 -->
<g id="edge16" class="edge"><title>G01&#45;&gt;G08</title>
<path fill="none" stroke="black" stroke-width="4" d="M587.285,-472.225C606.737,-465.486 632.259,-457.103 653.577,-450.426"/>
<polygon fill="black" stroke="black" points="654.834,-453.7 663.348,-447.394 652.76,-447.014 654.834,-453.7"/>
</g>
<!-- G01&#45;&gt;G08 -->
<g id="edge18" class="edge"><title>G01&#45;&gt;G08</title>
<path fill="none" stroke="#547f00" stroke-width="4" d="M588.66,-476.245C608.444,-470.301 634.09,-461.998 655.238,-454.712"/>
<polygon fill="#547f00" stroke="#547f00" points="656.617,-457.938 664.907,-451.341 654.312,-451.329 656.617,-457.938"/>
</g>
<!-- G01&#45;&gt;G09 -->
<g id="edge20" class="edge"><title>G01&#45;&gt;G09</title>
<path fill="none" stroke="#7f0000" stroke-width="4" d="M588.945,-490.592C623.381,-497.816 679.751,-509.984 728,-522 749.097,-527.254 772.42,-533.637 791.716,-539.076"/>
<polygon fill="#7f0000" stroke="#7f0000" points="790.831,-542.463 801.406,-541.823 792.74,-535.728 790.831,-542.463"/>
</g>
<!-- G0S -->
<g id="node19" class="node"><title>G0S</title>
<ellipse fill="none" stroke="black" stroke-width="2" cx="143" cy="-444" rx="32.0265" ry="32.5269"/>
<text text-anchor="middle" x="143" y="-440.4" font-family="Times Roman,serif" font-size="14.00">G0S</text>
</g>
<!-- G0S&#45;&gt;G02 -->
<g id="edge26" class="edge"><title>G0S&#45;&gt;G02</title>
<path fill="none" stroke="#7f0054" stroke-width="4" d="M160.319,-471.436C180.302,-502.511 214.703,-554.25 248,-596 249.229,-597.541 250.507,-599.099 251.815,-600.659"/>
<polygon fill="#7f0054" stroke="#7f0054" points="249.322,-603.127 258.516,-608.392 254.613,-598.543 249.322,-603.127"/>
</g>
<!-- G0S&#45;&gt;G08 -->
<g id="edge30" class="edge"><title>G0S&#45;&gt;G08</title>
<path fill="none" stroke="#007f55" stroke-width="4" d="M162.2,-418.12C181.108,-394.949 212.286,-362.464 248,-348 388.885,-290.941 448.32,-291.946 590,-347 620.985,-359.04 648.908,-384.587 668.157,-405.712"/>
<polygon fill="#007f55" stroke="#007f55" points="665.594,-408.097 674.845,-413.261 670.834,-403.455 665.594,-408.097"/>
</g>
<!-- G0S&#45;&gt;G01 -->
<g id="edge28" class="edge"><title>G0S&#45;&gt;G01</title>
<path fill="none" stroke="#007f00" stroke-width="4" d="M175.486,-447.139C249.611,-454.301 431.216,-471.847 514.278,-479.872"/>
<polygon fill="#007f00" stroke="#007f00" points="514.089,-483.37 524.379,-480.848 514.762,-476.403 514.089,-483.37"/>
</g>
<!-- G06 -->
<g id="node24" class="node"><title>G06</title>
<ellipse fill="none" stroke="black" stroke-width="2" cx="419" cy="-547" rx="32.0265" ry="32.5269"/>
<text text-anchor="middle" x="419" y="-543.4" font-family="Times Roman,serif" font-size="14.00">G06</text>
</g>
<!-- G0S&#45;&gt;G06 -->
<g id="edge32" class="edge"><title>G0S&#45;&gt;G06</title>
<path fill="none" stroke="#00007f" stroke-width="4" d="M173.591,-455.416C223.639,-474.094 323.013,-511.179 378.728,-531.971"/>
<polygon fill="#00007f" stroke="#00007f" points="377.679,-535.315 388.272,-535.533 380.126,-528.757 377.679,-535.315"/>
</g>
<!-- G04 -->
<g id="node26" class="node"><title>G04</title>
<ellipse fill="none" stroke="black" stroke-width="2" cx="281" cy="-561" rx="32.0265" ry="32.5269"/>
<text text-anchor="middle" x="281" y="-557.4" font-family="Times Roman,serif" font-size="14.00">G04</text>
</g>
<!-- G0S&#45;&gt;G04 -->
<g id="edge34" class="edge"><title>G0S&#45;&gt;G04</title>
<path fill="none" stroke="#54007f" stroke-width="4" d="M167.672,-464.917C190.197,-484.015 223.654,-512.38 248.38,-533.344"/>
<polygon fill="#54007f" stroke="#54007f" points="246.186,-536.072 256.077,-539.869 250.712,-530.733 246.186,-536.072"/>
</g>
<!-- G03 -->
<g id="node28" class="node"><title>G03</title>
<ellipse fill="none" stroke="black" stroke-width="2" cx="281" cy="-383" rx="32.0265" ry="32.5269"/>
<text text-anchor="middle" x="281" y="-379.4" font-family="Times Roman,serif" font-size="14.00">G03</text>
</g>
<!-- G0S&#45;&gt;G03 -->
<g id="edge36" class="edge"><title>G0S&#45;&gt;G03</title>
<path fill="none" stroke="#00557f" stroke-width="4" d="M172.944,-430.764C193.107,-421.851 219.905,-410.006 241.77,-400.341"/>
<polygon fill="#00557f" stroke="#00557f" points="243.383,-403.454 251.114,-396.21 240.553,-397.052 243.383,-403.454"/>
</g>
<!-- G07 -->
<g id="node30" class="node"><title>G07</title>
<ellipse fill="none" stroke="black" stroke-width="2" cx="557" cy="-398" rx="32.0265" ry="32.5269"/>
<text text-anchor="middle" x="557" y="-394.4" font-family="Times Roman,serif" font-size="14.00">G07</text>
</g>
<!-- G0S&#45;&gt;G07 -->
<g id="edge38" class="edge"><title>G0S&#45;&gt;G07</title>
<path fill="none" stroke="black" stroke-width="4" d="M175.613,-440.802C232.119,-436.934 351.793,-430.026 452,-416 472.756,-413.095 495.594,-408.676 514.655,-404.896"/>
<polygon fill="black" stroke="black" points="515.407,-408.315 524.533,-402.932 514.042,-401.449 515.407,-408.315"/>
</g>
<!-- G0S&#45;&gt;G07 -->
<g id="edge40" class="edge"><title>G0S&#45;&gt;G07</title>
<path fill="none" stroke="#547f00" stroke-width="4" d="M175.613,-445.03C232.119,-443.934 351.793,-437.026 452,-423 473.224,-420.029 496.626,-415.476 515.939,-411.002"/>
<polygon fill="#547f00" stroke="#547f00" points="517.013,-414.344 525.92,-408.607 515.38,-407.537 517.013,-414.344"/>
</g>
<!-- G06&#45;&gt;G0T -->
<g id="edge42" class="edge"><title>G06&#45;&gt;G0T</title>
<path fill="none" stroke="black" stroke-width="4" d="M449.127,-559.364C523.611,-587.942 720.89,-651.379 866,-587 902.296,-570.897 931.377,-535.361 949.648,-507.836"/>
<polygon fill="black" stroke="black" points="952.727,-509.519 955.196,-499.216 946.841,-505.731 952.727,-509.519"/>
</g>
<!-- G06&#45;&gt;G09 -->
<g id="edge44" class="edge"><title>G06&#45;&gt;G09</title>
<path fill="none" stroke="#007f55" stroke-width="4" d="M451.486,-543.044C525.703,-539.628 707.664,-541.219 790.585,-545.819"/>
<polygon fill="#007f55" stroke="#007f55" points="790.473,-549.319 800.665,-546.426 790.893,-542.332 790.473,-549.319"/>
</g>
<!-- G06&#45;&gt;G09 -->
<g id="edge46" class="edge"><title>G06&#45;&gt;G09</title>
<path fill="none" stroke="#00557f" stroke-width="4" d="M451.486,-546.033C525.611,-545.511 707.216,-547.214 790.278,-549.152"/>
<polygon fill="#00557f" stroke="#00557f" points="790.296,-552.653 800.379,-549.402 790.469,-545.655 790.296,-552.653"/>
</g>
<!-- G06&#45;&gt;G09 -->
<g id="edge48" class="edge"><title>G06&#45;&gt;G09</title>
<path fill="none" stroke="#007f00" stroke-width="4" d="M451.486,-549.022C525.611,-551.389 707.216,-553.212 790.278,-552.501"/>
<polygon fill="#007f00" stroke="#007f00" points="790.416,-556 800.379,-552.396 790.343,-549 790.416,-556"/>
</g>
<!-- G06&#45;&gt;G09 -->
<g id="edge50" class="edge"><title>G06&#45;&gt;G09</title>
<path fill="none" stroke="#7f0054" stroke-width="4" d="M451.141,-551.986C525.111,-557.266 707.401,-559.219 790.493,-555.842"/>
<polygon fill="#7f0054" stroke="#7f0054" points="790.764,-559.333 800.594,-555.379 790.444,-552.34 790.764,-559.333"/>
</g>
<!-- G06&#45;&gt;G07 -->
<g id="edge52" class="edge"><title>G06&#45;&gt;G07</title>
<path fill="none" stroke="black" stroke-width="4" d="M441.172,-523.061C464.711,-497.645 502.018,-457.365 527.905,-429.414"/>
<polygon fill="black" stroke="black" points="530.656,-431.595 534.883,-421.88 525.52,-426.838 530.656,-431.595"/>
</g>
<!-- G04&#45;&gt;G0T -->
<g id="edge54" class="edge"><title>G04&#45;&gt;G0T</title>
<path fill="none" stroke="black" stroke-width="4" d="M311.888,-571.421C332.619,-578.018 360.67,-586.184 386,-591 490.812,-610.93 772.73,-652.802 866,-601 903.925,-579.937 933.369,-539.126 951.301,-508.824"/>
<polygon fill="black" stroke="black" points="954.544,-510.205 956.493,-499.791 948.475,-506.717 954.544,-510.205"/>
</g>
<!-- G04&#45;&gt;G09 -->
<g id="edge56" class="edge"><title>G04&#45;&gt;G09</title>
<path fill="none" stroke="#007f00" stroke-width="4" d="M313.385,-566.618C334.016,-570.991 361.395,-576.564 386,-579 534.357,-593.69 711.099,-569.013 790.584,-556.936"/>
<polygon fill="#007f00" stroke="#007f00" points="791.335,-560.362 800.691,-555.39 790.277,-553.442 791.335,-560.362"/>
</g>
<!-- G04&#45;&gt;G09 -->
<g id="edge58" class="edge"><title>G04&#45;&gt;G09</title>
<path fill="none" stroke="#007f55" stroke-width="4" d="M311.543,-572.155C332.366,-577.653 360.655,-583.49 386,-586 534.727,-600.727 711.982,-575.889 791.178,-560.887"/>
<polygon fill="#007f55" stroke="#007f55" points="792.093,-564.274 801.241,-558.93 790.757,-557.403 792.093,-564.274"/>
</g>
<!-- G05 -->
<g id="node42" class="node"><title>G05</title>
<ellipse fill="none" stroke="black" stroke-width="2" cx="419" cy="-383" rx="32.0265" ry="32.5269"/>
<text text-anchor="middle" x="419" y="-379.4" font-family="Times Roman,serif" font-size="14.00">G05</text>
</g>
<!-- G04&#45;&gt;G05 -->
<g id="edge60" class="edge"><title>G04&#45;&gt;G05</title>
<path fill="none" stroke="black" stroke-width="4" d="M300.772,-535.497C325.059,-504.171 366.324,-450.945 393.116,-416.386"/>
<polygon fill="black" stroke="black" points="395.904,-418.503 399.265,-408.456 390.371,-414.214 395.904,-418.503"/>
</g>
<!-- G03&#45;&gt;G0T -->
<g id="edge64" class="edge"><title>G03&#45;&gt;G0T</title>
<path fill="none" stroke="black" stroke-width="4" d="M309.453,-367.47C358.477,-342.207 462.7,-295 557,-295 557,-295 557,-295 695,-295 800.407,-295 897.957,-387.389 943.703,-438.291"/>
<polygon fill="black" stroke="black" points="941.084,-440.613 950.332,-445.783 946.327,-435.975 941.084,-440.613"/>
</g>
<!-- G03&#45;&gt;G08 -->
<g id="edge66" class="edge"><title>G03&#45;&gt;G08</title>
<path fill="none" stroke="#007f00" stroke-width="4" d="M311.128,-370.076C331.771,-361.944 360.015,-352.217 386,-348 428.834,-341.049 580.163,-351.267 590,-355 619.288,-366.115 646.721,-388.657 666.197,-407.593"/>
<polygon fill="#007f00" stroke="#007f00" points="663.97,-410.315 673.518,-414.908 668.918,-405.364 663.97,-410.315"/>
</g>
<!-- G03&#45;&gt;G09 -->
<g id="edge68" class="edge"><title>G03&#45;&gt;G09</title>
<path fill="none" stroke="#54007f" stroke-width="4" d="M307.031,-402.349C349.802,-432.998 438.735,-491.996 524,-519 572.516,-534.365 717.424,-544.467 790.242,-548.715"/>
<polygon fill="#54007f" stroke="#54007f" points="790.258,-552.221 800.442,-549.299 790.659,-545.233 790.258,-552.221"/>
</g>
<!-- G03&#45;&gt;G05 -->
<g id="edge70" class="edge"><title>G03&#45;&gt;G05</title>
<path fill="none" stroke="black" stroke-width="4" d="M313.704,-383C332.301,-383 355.816,-383 375.904,-383"/>
<polygon fill="black" stroke="black" points="376.052,-386.5 386.052,-383 376.052,-379.5 376.052,-386.5"/>
</g>
<!-- G07&#45;&gt;G0T -->
<g id="edge72" class="edge"><title>G07&#45;&gt;G0T</title>
<path fill="none" stroke="black" stroke-width="4" d="M589.675,-396.89C624.245,-396.241 680.285,-396.688 728,-404 800.894,-415.17 883.114,-440.666 930.798,-456.787"/>
<polygon fill="black" stroke="black" points="929.838,-460.158 940.433,-460.077 932.1,-453.533 929.838,-460.158"/>
</g>
<!-- G07&#45;&gt;G08 -->
<g id="edge74" class="edge"><title>G07&#45;&gt;G08</title>
<path fill="none" stroke="#7f0000" stroke-width="4" d="M588.66,-405.479C608.307,-410.938 633.734,-418.446 654.797,-424.99"/>
<polygon fill="#7f0000" stroke="#7f0000" points="653.847,-428.36 664.436,-428.014 655.943,-421.681 653.847,-428.36"/>
</g>
<!-- G07&#45;&gt;G08 -->
<g id="edge76" class="edge"><title>G07&#45;&gt;G08</title>
<path fill="none" stroke="black" stroke-width="4" d="M587.627,-409.641C606.958,-415.901 632.181,-423.474 653.322,-429.398"/>
<polygon fill="black" stroke="black" points="652.449,-432.788 663.02,-432.076 654.313,-426.04 652.449,-432.788"/>
</g>
<!-- G07&#45;&gt;G09 -->
<g id="edge78" class="edge"><title>G07&#45;&gt;G09</title>
<path fill="none" stroke="#547f00" stroke-width="4" d="M582.262,-418.925C602.899,-435.416 633.253,-458.331 662,-475 668.126,-478.552 745.245,-512.527 793.801,-533.831"/>
<polygon fill="#547f00" stroke="#547f00" points="792.538,-537.099 803.102,-537.91 795.349,-530.688 792.538,-537.099"/>
</g>
<!-- G05&#45;&gt;G0T -->
<g id="edge80" class="edge"><title>G05&#45;&gt;G0T</title>
<path fill="none" stroke="black" stroke-width="4" d="M449.815,-372.508C470.516,-366.028 498.559,-358.334 524,-355 553.085,-351.189 560.846,-351.766 590,-355 714.957,-368.862 747.812,-374.127 866,-417 889.456,-425.509 914.345,-438.134 934.001,-449.038"/>
<polygon fill="black" stroke="black" points="932.489,-452.204 942.919,-454.066 935.927,-446.106 932.489,-452.204"/>
</g>
<!-- G05&#45;&gt;G08 -->
<g id="edge82" class="edge"><title>G05&#45;&gt;G08</title>
<path fill="none" stroke="#547f00" stroke-width="4" d="M449.728,-371.752C484.561,-360.737 542.655,-347.664 590,-363 618.035,-372.081 644.865,-391.76 664.385,-408.817"/>
<polygon fill="#547f00" stroke="#547f00" points="662.245,-411.599 672.022,-415.683 666.926,-406.394 662.245,-411.599"/>
</g>
<!-- G05&#45;&gt;G07 -->
<g id="edge84" class="edge"><title>G05&#45;&gt;G07</title>
<path fill="none" stroke="black" stroke-width="4" d="M451.355,-386.517C470.165,-388.561 494.093,-391.162 514.418,-393.372"/>
<polygon fill="black" stroke="black" points="514.05,-396.852 524.37,-394.453 514.806,-389.893 514.05,-396.852"/>
</g>
<!-- G15 -->
<g id="node55" class="node"><title>G15</title>
<ellipse fill="none" stroke="black" stroke-width="2" cx="557" cy="-105" rx="32.0265" ry="32.5269"/>
<text text-anchor="middle" x="557" y="-101.4" font-family="Times Roman,serif" font-size="14.00">G15</text>
</g>
<!-- G16 -->
<g id="node57" class="node"><title>G16</title>
<ellipse fill="none" stroke="black" stroke-width="2" cx="695" cy="-157" rx="32.0265" ry="32.5269"/>
<text text-anchor="middle" x="695" y="-153.4" font-family="Times Roman,serif" font-size="14.00">G16</text>
</g>
<!-- G15&#45;&gt;G16 -->
<g id="edge86" class="edge"><title>G15&#45;&gt;G16</title>
<path fill="none" stroke="#007f55" stroke-width="4" d="M587.97,-114.756C607.955,-121.892 634.129,-131.707 655.591,-140.095"/>
<polygon fill="#007f55" stroke="#007f55" points="654.494,-143.425 665.081,-143.834 657.06,-136.912 654.494,-143.425"/>
</g>
<!-- G15&#45;&gt;G16 -->
<g id="edge88" class="edge"><title>G15&#45;&gt;G16</title>
<path fill="none" stroke="black" stroke-width="4" d="M586.604,-118.67C606.247,-126.618 632.294,-136.518 653.932,-144.295"/>
<polygon fill="black" stroke="black" points="652.93,-147.653 663.525,-147.704 655.275,-141.058 652.93,-147.653"/>
</g>
<!-- G1T -->
<g id="node60" class="node"><title>G1T</title>
<ellipse fill="none" stroke="black" stroke-width="2" cx="833" cy="-138" rx="32.0265" ry="32.5269"/>
<text text-anchor="middle" x="833" y="-134.4" font-family="Times Roman,serif" font-size="14.00">G1T</text>
</g>
<!-- G15&#45;&gt;G1T -->
<g id="edge90" class="edge"><title>G15&#45;&gt;G1T</title>
<path fill="none" stroke="black" stroke-width="4" d="M589.52,-107.725C623.963,-110.73 679.899,-115.948 728,-122 748.781,-124.614 771.792,-128.059 790.963,-131.082"/>
<polygon fill="black" stroke="black" points="790.466,-134.547 800.892,-132.664 791.567,-127.634 790.466,-134.547"/>
</g>
<!-- G16&#45;&gt;G1T -->
<g id="edge92" class="edge"><title>G16&#45;&gt;G1T</title>
<path fill="none" stroke="black" stroke-width="4" d="M727.355,-152.545C746.165,-149.956 770.093,-146.661 790.418,-143.863"/>
<polygon fill="black" stroke="black" points="790.941,-147.324 800.37,-142.493 789.986,-140.389 790.941,-147.324"/>
</g>
<!-- G1T&#45;&gt;T -->
<g id="edge132" class="edge"><title>G1T&#45;&gt;T</title>
<path fill="none" stroke="black" stroke-width="4" d="M865.653,-138C917.302,-138 1017.02,-138 1066.17,-138"/>
<polygon fill="black" stroke="black" points="1066.42,-141.5 1076.42,-138 1066.42,-134.5 1066.42,-141.5"/>
</g>
<!-- G11 -->
<g id="node62" class="node"><title>G11</title>
<ellipse fill="none" stroke="black" stroke-width="2" cx="281" cy="-132" rx="32.0265" ry="32.5269"/>
<text text-anchor="middle" x="281" y="-128.4" font-family="Times Roman,serif" font-size="14.00">G11</text>
</g>
<!-- G11&#45;&gt;G16 -->
<g id="edge94" class="edge"><title>G11&#45;&gt;G16</title>
<path fill="none" stroke="#7f5500" stroke-width="4" d="M313.486,-133.962C387.611,-138.438 569.216,-149.404 652.278,-154.42"/>
<polygon fill="#7f5500" stroke="#7f5500" points="652.186,-157.921 662.379,-155.03 652.608,-150.934 652.186,-157.921"/>
</g>
<!-- G11&#45;&gt;G1T -->
<g id="edge98" class="edge"><title>G11&#45;&gt;G1T</title>
<path fill="none" stroke="black" stroke-width="4" d="M310.396,-117.798C383.224,-84.6407 577.042,-8.83751 728,-62 755.796,-71.7889 782.631,-91.4508 802.214,-108.323"/>
<polygon fill="black" stroke="black" points="800.07,-111.1 809.879,-115.105 804.709,-105.857 800.07,-111.1"/>
</g>
<!-- G13 -->
<g id="node65" class="node"><title>G13</title>
<ellipse fill="none" stroke="black" stroke-width="2" cx="419" cy="-181" rx="32.0265" ry="32.5269"/>
<text text-anchor="middle" x="419" y="-177.4" font-family="Times Roman,serif" font-size="14.00">G13</text>
</g>
<!-- G11&#45;&gt;G13 -->
<g id="edge96" class="edge"><title>G11&#45;&gt;G13</title>
<path fill="none" stroke="black" stroke-width="4" d="M311.627,-142.875C331.321,-149.867 357.13,-159.032 378.509,-166.623"/>
<polygon fill="black" stroke="black" points="377.387,-169.938 387.982,-169.986 379.729,-163.342 377.387,-169.938"/>
</g>
<!-- G13&#45;&gt;G16 -->
<g id="edge122" class="edge"><title>G13&#45;&gt;G16</title>
<path fill="none" stroke="#007f55" stroke-width="4" d="M451.624,-177.781C472.347,-175.763 499.74,-173.148 524,-171 567.695,-167.131 617.705,-163.08 652.306,-160.337"/>
<polygon fill="#007f55" stroke="#007f55" points="652.832,-163.807 662.525,-159.53 652.281,-156.829 652.832,-163.807"/>
</g>
<!-- G13&#45;&gt;G1T -->
<g id="edge126" class="edge"><title>G13&#45;&gt;G1T</title>
<path fill="none" stroke="black" stroke-width="4" d="M435.609,-153.213C453.552,-126.193 484.895,-86.8375 524,-70 617.145,-29.894 736.653,-83.0028 796.054,-115.736"/>
<polygon fill="black" stroke="black" points="794.626,-118.948 805.058,-120.797 798.056,-112.846 794.626,-118.948"/>
</g>
<!-- G14 -->
<g id="node79" class="node"><title>G14</title>
<ellipse fill="none" stroke="black" stroke-width="2" cx="557" cy="-206" rx="32.0265" ry="32.5269"/>
<text text-anchor="middle" x="557" y="-202.4" font-family="Times Roman,serif" font-size="14.00">G14</text>
</g>
<!-- G13&#45;&gt;G14 -->
<g id="edge124" class="edge"><title>G13&#45;&gt;G14</title>
<path fill="none" stroke="black" stroke-width="4" d="M451.007,-186.798C469.943,-190.229 494.156,-194.615 514.658,-198.329"/>
<polygon fill="black" stroke="black" points="514.225,-201.808 524.689,-200.147 515.473,-194.92 514.225,-201.808"/>
</g>
<!-- G1S -->
<g id="node67" class="node"><title>G1S</title>
<ellipse fill="none" stroke="black" stroke-width="2" cx="143" cy="-181" rx="32.0265" ry="32.5269"/>
<text text-anchor="middle" x="143" y="-177.4" font-family="Times Roman,serif" font-size="14.00">G1S</text>
</g>
<!-- G1S&#45;&gt;G15 -->
<g id="edge100" class="edge"><title>G1S&#45;&gt;G15</title>
<path fill="none" stroke="#54007f" stroke-width="4" d="M164.329,-156.489C183.778,-136.156 214.516,-108.745 248,-97 338.952,-65.0958 454.383,-81.8975 515.174,-94.7656"/>
<polygon fill="#54007f" stroke="#54007f" points="514.643,-98.2322 525.16,-96.9492 516.139,-91.3938 514.643,-98.2322"/>
</g>
<!-- G1S&#45;&gt;G11 -->
<g id="edge102" class="edge"><title>G1S&#45;&gt;G11</title>
<path fill="none" stroke="#547f00" stroke-width="4" d="M173.627,-170.125C193.321,-163.133 219.13,-153.968 240.509,-146.377"/>
<polygon fill="#547f00" stroke="#547f00" points="241.729,-149.658 249.982,-143.014 239.387,-143.062 241.729,-149.658"/>
</g>
<!-- G1S&#45;&gt;G13 -->
<g id="edge108" class="edge"><title>G1S&#45;&gt;G13</title>
<path fill="none" stroke="black" stroke-width="4" d="M175.472,-177.469C225.405,-175.314 321.061,-175.185 376.464,-177.083"/>
<polygon fill="black" stroke="black" points="376.524,-180.587 386.651,-177.475 376.793,-173.593 376.524,-180.587"/>
</g>
<!-- G1S&#45;&gt;G13 -->
<g id="edge110" class="edge"><title>G1S&#45;&gt;G13</title>
<path fill="none" stroke="#7f5500" stroke-width="4" d="M175.745,-181C225.647,-181 320.759,-181 376.114,-181"/>
<polygon fill="#7f5500" stroke="#7f5500" points="376.298,-184.5 386.298,-181 376.298,-177.5 376.298,-184.5"/>
</g>
<!-- G1S&#45;&gt;G13 -->
<g id="edge112" class="edge"><title>G1S&#45;&gt;G13</title>
<path fill="none" stroke="#00557f" stroke-width="4" d="M175.472,-184.531C225.405,-186.686 321.061,-186.815 376.464,-184.917"/>
<polygon fill="#00557f" stroke="#00557f" points="376.793,-188.407 386.651,-184.525 376.524,-181.413 376.793,-188.407"/>
</g>
<!-- G12 -->
<g id="node71" class="node"><title>G12</title>
<ellipse fill="none" stroke="black" stroke-width="2" cx="419" cy="-252" rx="32.0265" ry="32.5269"/>
<text text-anchor="middle" x="419" y="-248.4" font-family="Times Roman,serif" font-size="14.00">G12</text>
</g>
<!-- G1S&#45;&gt;G12 -->
<g id="edge104" class="edge"><title>G1S&#45;&gt;G12</title>
<path fill="none" stroke="#007f00" stroke-width="4" d="M174.93,-187.711C225.158,-199.69 322.591,-224.703 377.953,-239.784"/>
<polygon fill="#007f00" stroke="#007f00" points="377.21,-243.21 387.78,-242.479 379.061,-236.459 377.21,-243.21"/>
</g>
<!-- G1S&#45;&gt;G12 -->
<g id="edge106" class="edge"><title>G1S&#45;&gt;G12</title>
<path fill="none" stroke="#7f0054" stroke-width="4" d="M174.124,-190.99C223.761,-205.026 320.929,-230.105 376.784,-243.372"/>
<polygon fill="#7f0054" stroke="#7f0054" points="376.177,-246.825 386.712,-245.707 377.779,-240.011 376.177,-246.825"/>
</g>
<!-- G12&#45;&gt;G16 -->
<g id="edge114" class="edge"><title>G12&#45;&gt;G16</title>
<path fill="none" stroke="#547f00" stroke-width="4" d="M451.753,-253.375C487.122,-255.178 544.504,-255.619 590,-238 618.443,-226.985 645.203,-205.333 664.59,-187.17"/>
<polygon fill="#547f00" stroke="#547f00" points="667.111,-189.601 671.907,-180.154 662.267,-184.548 667.111,-189.601"/>
</g>
<!-- G12&#45;&gt;G16 -->
<g id="edge116" class="edge"><title>G12&#45;&gt;G16</title>
<path fill="none" stroke="#007f00" stroke-width="4" d="M451.109,-258.467C486.421,-262.172 544.227,-262.727 590,-245 620.113,-233.338 648.34,-209.753 667.928,-189.905"/>
<polygon fill="#007f00" stroke="#007f00" points="670.615,-192.159 674.997,-182.513 665.556,-187.32 670.615,-192.159"/>
</g>
<!-- G12&#45;&gt;G1T -->
<g id="edge120" class="edge"><title>G12&#45;&gt;G1T</title>
<path fill="none" stroke="black" stroke-width="4" d="M451.463,-256.694C486.096,-260.79 542.407,-264.825 590,-256 669.76,-241.21 752.672,-192.537 798.065,-162.52"/>
<polygon fill="black" stroke="black" points="800.272,-165.255 806.631,-156.781 796.375,-159.439 800.272,-165.255"/>
</g>
<!-- G12&#45;&gt;G14 -->
<g id="edge118" class="edge"><title>G12&#45;&gt;G14</title>
<path fill="none" stroke="black" stroke-width="4" d="M449.97,-241.677C469.59,-235.137 495.176,-226.608 516.412,-219.529"/>
<polygon fill="black" stroke="black" points="517.753,-222.772 526.133,-216.289 515.54,-216.131 517.753,-222.772"/>
</g>
<!-- G14&#45;&gt;G16 -->
<g id="edge128" class="edge"><title>G14&#45;&gt;G16</title>
<path fill="none" stroke="#7f0000" stroke-width="4" d="M587.627,-195.125C607.321,-188.133 633.13,-178.968 654.509,-171.377"/>
<polygon fill="#7f0000" stroke="#7f0000" points="655.729,-174.658 663.982,-168.014 653.387,-168.062 655.729,-174.658"/>
</g>
<!-- G14&#45;&gt;G1T -->
<g id="edge130" class="edge"><title>G14&#45;&gt;G1T</title>
<path fill="none" stroke="black" stroke-width="4" d="M589.515,-207.389C624.433,-207.997 681.206,-206.415 728,-193 752.359,-186.017 777.579,-173.026 797.195,-161.422"/>
<polygon fill="black" stroke="black" points="799.051,-164.39 805.79,-156.215 795.424,-158.403 799.051,-164.39"/>
</g>
<!-- G2S -->
<g id="node87" class="node"><title>G2S</title>
<ellipse fill="none" stroke="black" stroke-width="2" cx="143" cy="-32" rx="32.0265" ry="32.5269"/>
<text text-anchor="middle" x="143" y="-28.4" font-family="Times Roman,serif" font-size="14.00">G2S</text>
</g>
<!-- G21 -->
<g id="node89" class="node"><title>G21</title>
<ellipse fill="none" stroke="black" stroke-width="2" cx="281" cy="-32" rx="32.0265" ry="32.5269"/>
<text text-anchor="middle" x="281" y="-28.4" font-family="Times Roman,serif" font-size="14.00">G21</text>
</g>
<!-- G2S&#45;&gt;G21 -->
<g id="edge134" class="edge"><title>G2S&#45;&gt;G21</title>
<path fill="none" stroke="#7f5500" stroke-width="4" d="M175.355,-27.473C194.079,-26.6555 217.874,-26.5313 238.14,-27.1003"/>
<polygon fill="#7f5500" stroke="#7f5500" points="238.253,-30.6063 248.37,-27.461 238.499,-23.6107 238.253,-30.6063"/>
</g>
<!-- G2S&#45;&gt;G21 -->
<g id="edge136" class="edge"><title>G2S&#45;&gt;G21</title>
<path fill="none" stroke="#54007f" stroke-width="4" d="M175.704,-32C194.301,-32 217.816,-32 237.904,-32"/>
<polygon fill="#54007f" stroke="#54007f" points="238.052,-35.5001 248.052,-32 238.052,-28.5001 238.052,-35.5001"/>
</g>
<!-- G2S&#45;&gt;G21 -->
<g id="edge138" class="edge"><title>G2S&#45;&gt;G21</title>
<path fill="none" stroke="#00007f" stroke-width="4" d="M175.355,-36.527C194.079,-37.3445 217.874,-37.4687 238.14,-36.8997"/>
<polygon fill="#00007f" stroke="#00007f" points="238.499,-40.3893 248.37,-36.539 238.253,-33.3937 238.499,-40.3893"/>
</g>
<!-- G2T -->
<g id="node93" class="node"><title>G2T</title>
<ellipse fill="none" stroke="black" stroke-width="2" cx="971" cy="-51" rx="32.0265" ry="32.5269"/>
<text text-anchor="middle" x="971" y="-47.4" font-family="Times Roman,serif" font-size="14.00">G2T</text>
</g>
<!-- G21&#45;&gt;G2T -->
<g id="edge140" class="edge"><title>G21&#45;&gt;G2T</title>
<path fill="none" stroke="black" stroke-width="4" d="M313.714,-32C365.389,-32 469.073,-32 557,-32 557,-32 557,-32 695,-32 777.627,-32 873.84,-40.58 928.067,-46.2086"/>
<polygon fill="black" stroke="black" points="928.024,-49.7234 938.336,-47.2915 928.758,-42.762 928.024,-49.7234"/>
</g>
<!-- G2T&#45;&gt;T -->
<g id="edge142" class="edge"><title>G2T&#45;&gt;T</title>
<path fill="none" stroke="black" stroke-width="4" d="M997.601,-69.6637C1019.52,-85.0417 1050.31,-106.647 1071.37,-121.423"/>
<polygon fill="black" stroke="black" points="1069.55,-124.421 1079.75,-127.299 1073.57,-118.691 1069.55,-124.421"/>
</g>
<!-- S -->
<g id="node95" class="node"><title>S</title>
<ellipse fill="none" stroke="black" stroke-width="2" cx="19" cy="-181" rx="17.8879" ry="18.3848"/>
<text text-anchor="middle" x="19" y="-177.4" font-family="Times Roman,serif" font-size="14.00">S</text>
</g>
<!-- S&#45;&gt;G0S -->
<g id="edge144" class="edge"><title>S&#45;&gt;G0S</title>
<path fill="none" stroke="black" stroke-width="4" d="M26.7568,-197.452C46.1937,-238.677 97.3897,-347.262 124.901,-405.613"/>
<polygon fill="black" stroke="black" points="121.836,-407.319 129.266,-414.871 128.167,-404.334 121.836,-407.319"/>
</g>
<!-- S&#45;&gt;G1S -->
<g id="edge146" class="edge"><title>S&#45;&gt;G1S</title>
<path fill="none" stroke="black" stroke-width="4" d="M37.5641,-181C54.0535,-181 78.7804,-181 100.145,-181"/>
<polygon fill="black" stroke="black" points="100.312,-184.5 110.312,-181 100.311,-177.5 100.312,-184.5"/>
</g>
<!-- S&#45;&gt;G2S -->
<g id="edge148" class="edge"><title>S&#45;&gt;G2S</title>
<path fill="none" stroke="black" stroke-width="4" d="M30.6656,-166.982C50.0072,-143.741 89.2141,-96.6298 115.798,-64.6863"/>
<polygon fill="black" stroke="black" points="118.558,-66.841 122.265,-56.9156 113.178,-62.3632 118.558,-66.841"/>
</g>
</g>
</svg>
