<?xml version="1.0" encoding="UTF-8" standalone="no"?>
<!DOCTYPE svg PUBLIC "-//W3C//DTD SVG 1.1//EN"
 "http://www.w3.org/Graphics/SVG/1.1/DTD/svg11.dtd">
<!-- Generated by graphviz version 2.26.3 (20100126.1600)
 -->
<!-- Title: _anonymous_0 Pages: 1 -->
<svg width="488pt" height="94pt"
 viewBox="0.00 0.00 488.00 94.00" xmlns="http://www.w3.org/2000/svg" xmlns:xlink="http://www.w3.org/1999/xlink">
<g id="graph1" class="graph" transform="scale(1 1) rotate(0) translate(4 90)">
<title>_anonymous_0</title>
<polygon fill="white" stroke="white" points="-4,5 -4,-90 485,-90 485,5 -4,5"/>
<!-- G01 -->
<g id="node1" class="node"><title>G01</title>
<ellipse fill="none" stroke="black" stroke-width="2" cx="171" cy="-32" rx="32.0265" ry="32.5269"/>
<text text-anchor="middle" x="171" y="-28.4" font-family="Times Roman,serif" font-size="14.00">G01</text>
</g>
<!-- G02 -->
<g id="node3" class="node"><title>G02</title>
<ellipse fill="none" stroke="black" stroke-width="2" cx="309" cy="-54" rx="32.0265" ry="32.5269"/>
<text text-anchor="middle" x="309" y="-50.4" font-family="Times Roman,serif" font-size="14.00">G02</text>
</g>
<!-- G01&#45;&gt;G02 -->
<g id="edge2" class="edge"><title>G01&#45;&gt;G02</title>
<path fill="none" stroke="#007f00" stroke-width="4" d="M203.355,-37.158C222.301,-40.1784 246.44,-44.0266 266.859,-47.2819"/>
<polygon fill="#007f00" stroke="#007f00" points="266.421,-50.7562 276.848,-48.8743 267.524,-43.8435 266.421,-50.7562"/>
</g>
<!-- G0T -->
<g id="node5" class="node"><title>G0T</title>
<ellipse fill="none" stroke="black" stroke-width="2" cx="447" cy="-32" rx="32.0265" ry="32.5269"/>
<text text-anchor="middle" x="447" y="-28.4" font-family="Times Roman,serif" font-size="14.00">G0T</text>
</g>
<!-- G01&#45;&gt;G0T -->
<g id="edge4" class="edge"><title>G01&#45;&gt;G0T</title>
<path fill="none" stroke="black" stroke-width="4" d="M203.539,-26.9221C224.228,-23.9538 251.616,-20.5037 276,-19 305.278,-17.1945 312.722,-17.1945 342,-19 362.574,-20.2688 385.286,-22.9232 404.31,-25.5047"/>
<polygon fill="black" stroke="black" points="404.074,-29.0056 414.461,-26.9221 405.042,-22.0728 404.074,-29.0056"/>
</g>
<!-- G02&#45;&gt;G0T -->
<g id="edge6" class="edge"><title>G02&#45;&gt;G0T</title>
<path fill="none" stroke="black" stroke-width="4" d="M341.355,-48.842C360.301,-45.8216 384.44,-41.9734 404.859,-38.7181"/>
<polygon fill="black" stroke="black" points="405.524,-42.1565 414.848,-37.1257 404.421,-35.2438 405.524,-42.1565"/>
</g>
<!-- G0S -->
<g id="node7" class="node"><title>G0S</title>
<ellipse fill="none" stroke="black" stroke-width="2" cx="33" cy="-32" rx="32.0265" ry="32.5269"/>
<text text-anchor="middle" x="33" y="-28.4" font-family="Times Roman,serif" font-size="14.00">G0S</text>
</g>
<!-- G0S&#45;&gt;G01 -->
<g id="edge8" class="edge"><title>G0S&#45;&gt;G01</title>
<path fill="none" stroke="#00007f" stroke-width="4" d="M65.3549,-27.473C84.0787,-26.6555 107.874,-26.5313 128.14,-27.1003"/>
<polygon fill="#00007f" stroke="#00007f" points="128.253,-30.6063 138.37,-27.461 128.499,-23.6107 128.253,-30.6063"/>
</g>
<!-- G0S&#45;&gt;G01 -->
<g id="edge10" class="edge"><title>G0S&#45;&gt;G01</title>
<path fill="none" stroke="#7f0000" stroke-width="4" d="M65.7041,-32C84.3013,-32 107.816,-32 127.904,-32"/>
<polygon fill="#7f0000" stroke="#7f0000" points="128.052,-35.5001 138.052,-32 128.052,-28.5001 128.052,-35.5001"/>
</g>
<!-- G0S&#45;&gt;G01 -->
<g id="edge12" class="edge"><title>G0S&#45;&gt;G01</title>
<path fill="none" stroke="black" stroke-width="4" d="M65.3549,-36.527C84.0787,-37.3445 107.874,-37.4687 128.14,-36.8997"/>
<polygon fill="black" stroke="black" points="128.499,-40.3893 138.37,-36.539 128.253,-33.3937 128.499,-40.3893"/>
</g>
</g>
</svg>
