<?xml version="1.0" encoding="UTF-8" standalone="no"?>
<!DOCTYPE svg PUBLIC "-//W3C//DTD SVG 1.1//EN"
 "http://www.w3.org/Graphics/SVG/1.1/DTD/svg11.dtd">
<!-- Generated by graphviz version 2.26.3 (20100126.1600)
 -->
<!-- Title: _anonymous_0 Pages: 1 -->
<svg width="1122pt" height="658pt"
 viewBox="0.00 0.00 1122.00 658.02" xmlns="http://www.w3.org/2000/svg" xmlns:xlink="http://www.w3.org/1999/xlink">
<g id="graph1" class="graph" transform="scale(1 1) rotate(0) translate(4 654.021)">
<title>_anonymous_0</title>
<polygon fill="white" stroke="white" points="-4,5 -4,-654.021 1119,-654.021 1119,5 -4,5"/>
<!-- G02 -->
<g id="node1" class="node"><title>G02</title>
<ellipse fill="none" stroke="black" stroke-width="2" cx="281" cy="-539" rx="32.0265" ry="32.5269"/>
<text text-anchor="middle" x="281" y="-535.4" font-family="Times Roman,serif" font-size="14.00">G02</text>
</g>
<!-- G0T -->
<g id="node3" class="node"><title>G0T</title>
<ellipse fill="none" stroke="black" stroke-width="2" cx="971" cy="-475" rx="32.0265" ry="32.5269"/>
<text text-anchor="middle" x="971" y="-471.4" font-family="Times Roman,serif" font-size="14.00">G0T</text>
</g>
<!-- G02&#45;&gt;G0T -->
<g id="edge2" class="edge"><title>G02&#45;&gt;G0T</title>
<path fill="none" stroke="black" stroke-width="4" d="M308.887,-555.722C357.482,-583.227 461.623,-635 557,-635 557,-635 557,-635 695,-635 773.937,-635 798.525,-627.967 866,-587 898.546,-567.24 927.464,-534.658 946.67,-509.717"/>
<polygon fill="black" stroke="black" points="949.578,-511.674 952.802,-501.581 943.988,-507.46 949.578,-511.674"/>
</g>
<!-- G08 -->
<g id="node5" class="node"><title>G08</title>
<ellipse fill="none" stroke="black" stroke-width="2" cx="695" cy="-401" rx="32.0265" ry="32.5269"/>
<text text-anchor="middle" x="695" y="-397.4" font-family="Times Roman,serif" font-size="14.00">G08</text>
</g>
<!-- G02&#45;&gt;G08 -->
<g id="edge4" class="edge"><title>G02&#45;&gt;G08</title>
<path fill="none" stroke="black" stroke-width="4" d="M296.204,-510.602C313.622,-481.251 345.111,-436.866 386,-416 431.255,-392.906 578.391,-395.754 652.101,-398.813"/>
<polygon fill="black" stroke="black" points="652.279,-402.324 662.422,-399.263 652.584,-395.331 652.279,-402.324"/>
</g>
<!-- G09 -->
<g id="node7" class="node"><title>G09</title>
<ellipse fill="none" stroke="black" stroke-width="2" cx="833" cy="-537" rx="32.0265" ry="32.5269"/>
<text text-anchor="middle" x="833" y="-533.4" font-family="Times Roman,serif" font-size="14.00">G09</text>
</g>
<!-- G02&#45;&gt;G09 -->
<g id="edge6" class="edge"><title>G02&#45;&gt;G09</title>
<path fill="none" stroke="#7f5500" stroke-width="4" d="M313.029,-545.846C333.52,-552.389 360.88,-561.146 386,-565 533.454,-587.626 710.645,-556.761 790.413,-542.75"/>
<polygon fill="#7f5500" stroke="#7f5500" points="791.312,-546.146 800.557,-540.971 790.103,-539.251 791.312,-546.146"/>
</g>
<!-- G02&#45;&gt;G09 -->
<g id="edge8" class="edge"><title>G02&#45;&gt;G09</title>
<path fill="none" stroke="#54007f" stroke-width="4" d="M311.199,-551.189C331.873,-558.858 360.125,-568.03 386,-572 534.007,-594.711 711.973,-563.529 791.306,-546.623"/>
<polygon fill="#54007f" stroke="#54007f" points="792.352,-549.978 801.383,-544.438 790.869,-543.137 792.352,-549.978"/>
</g>
<!-- G02&#45;&gt;G09 -->
<g id="edge10" class="edge"><title>G02&#45;&gt;G09</title>
<path fill="none" stroke="#547f00" stroke-width="4" d="M308.966,-556.161C329.807,-565.181 359.18,-574.885 386,-579 534.559,-601.795 713.302,-570.295 792.19,-550.431"/>
<polygon fill="#547f00" stroke="#547f00" points="793.4,-553.733 802.2,-547.832 791.641,-546.958 793.4,-553.733"/>
</g>
<!-- T -->
<g id="node11" class="node"><title>T</title>
<ellipse fill="none" stroke="black" stroke-width="2" cx="1095" cy="-147" rx="17.8879" ry="18.3848"/>
<text text-anchor="middle" x="1095" y="-143.4" font-family="Times Roman,serif" font-size="14.00">T</text>
</g>
<!-- G0T&#45;&gt;T -->
<g id="edge12" class="edge"><title>G0T&#45;&gt;T</title>
<path fill="none" stroke="black" stroke-width="4" d="M982.443,-444.73C1006.53,-381.015 1062.12,-233.971 1084.94,-173.604"/>
<polygon fill="black" stroke="black" points="1088.3,-174.621 1088.56,-164.03 1081.75,-172.146 1088.3,-174.621"/>
</g>
<!-- G08&#45;&gt;G0T -->
<g id="edge22" class="edge"><title>G08&#45;&gt;G0T</title>
<path fill="none" stroke="black" stroke-width="4" d="M726.392,-409.417C776.403,-422.826 874.177,-449.04 929.769,-463.945"/>
<polygon fill="black" stroke="black" points="929.072,-467.382 939.637,-466.591 930.885,-460.621 929.072,-467.382"/>
</g>
<!-- G08&#45;&gt;G09 -->
<g id="edge24" class="edge"><title>G08&#45;&gt;G09</title>
<path fill="none" stroke="#007f00" stroke-width="4" d="M718.098,-423.763C741.283,-446.613 777.123,-481.933 802.605,-507.046"/>
<polygon fill="#007f00" stroke="#007f00" points="800.247,-509.636 809.827,-514.162 805.161,-504.65 800.247,-509.636"/>
</g>
<!-- G09&#45;&gt;G0T -->
<g id="edge62" class="edge"><title>G09&#45;&gt;G0T</title>
<path fill="none" stroke="black" stroke-width="4" d="M862.604,-523.699C882.749,-514.649 909.631,-502.572 931.584,-492.709"/>
<polygon fill="black" stroke="black" points="933.281,-495.783 940.968,-488.492 930.412,-489.398 933.281,-495.783"/>
</g>
<!-- G01 -->
<g id="node12" class="node"><title>G01</title>
<ellipse fill="none" stroke="black" stroke-width="2" cx="557" cy="-320" rx="32.0265" ry="32.5269"/>
<text text-anchor="middle" x="557" y="-316.4" font-family="Times Roman,serif" font-size="14.00">G01</text>
</g>
<!-- G01&#45;&gt;G0T -->
<g id="edge14" class="edge"><title>G01&#45;&gt;G0T</title>
<path fill="none" stroke="black" stroke-width="4" d="M589.641,-318.458C624.665,-317.763 681.528,-319.434 728,-334 809.109,-359.422 892.397,-415.572 937.311,-448.835"/>
<polygon fill="black" stroke="black" points="935.403,-451.778 945.506,-454.966 939.596,-446.173 935.403,-451.778"/>
</g>
<!-- G01&#45;&gt;G08 -->
<g id="edge16" class="edge"><title>G01&#45;&gt;G08</title>
<path fill="none" stroke="black" stroke-width="4" d="M585.929,-335.109C607.14,-347.104 636.083,-364.047 658.823,-377.759"/>
<polygon fill="black" stroke="black" points="657.153,-380.84 667.519,-383.03 660.782,-374.854 657.153,-380.84"/>
</g>
<!-- G01&#45;&gt;G08 -->
<g id="edge18" class="edge"><title>G01&#45;&gt;G08</title>
<path fill="none" stroke="#7f5500" stroke-width="4" d="M583.935,-338.246C604.709,-351.082 633.709,-368.197 656.867,-381.333"/>
<polygon fill="#7f5500" stroke="#7f5500" points="655.316,-384.477 665.747,-386.334 658.751,-378.377 655.316,-384.477"/>
</g>
<!-- G01&#45;&gt;G09 -->
<g id="edge20" class="edge"><title>G01&#45;&gt;G09</title>
<path fill="none" stroke="#7f0054" stroke-width="4" d="M589.718,-321.675C626.629,-325.064 686.864,-335.28 728,-366 772.645,-399.341 802.491,-457.771 818.602,-496.925"/>
<polygon fill="#7f0054" stroke="#7f0054" points="815.442,-498.45 822.403,-506.437 821.942,-495.852 815.442,-498.45"/>
</g>
<!-- G0S -->
<g id="node19" class="node"><title>G0S</title>
<ellipse fill="none" stroke="black" stroke-width="2" cx="143" cy="-418" rx="32.0265" ry="32.5269"/>
<text text-anchor="middle" x="143" y="-414.4" font-family="Times Roman,serif" font-size="14.00">G0S</text>
</g>
<!-- G0S&#45;&gt;G02 -->
<g id="edge26" class="edge"><title>G0S&#45;&gt;G02</title>
<path fill="none" stroke="#7f0000" stroke-width="4" d="M167.354,-439.354C189.976,-459.189 223.818,-488.862 248.691,-510.671"/>
<polygon fill="#7f0000" stroke="#7f0000" points="246.599,-513.491 256.425,-517.453 251.214,-508.228 246.599,-513.491"/>
</g>
<!-- G0S&#45;&gt;G08 -->
<g id="edge32" class="edge"><title>G0S&#45;&gt;G08</title>
<path fill="none" stroke="#00007f" stroke-width="4" d="M164.895,-393.96C184.476,-374.383 215.095,-348.217 248,-337 322.905,-311.465 557.681,-366.012 653.576,-390.21"/>
<polygon fill="#00007f" stroke="#00007f" points="652.937,-393.659 663.491,-392.729 654.66,-386.874 652.937,-393.659"/>
</g>
<!-- G0S&#45;&gt;G01 -->
<g id="edge30" class="edge"><title>G0S&#45;&gt;G01</title>
<path fill="none" stroke="#007f55" stroke-width="4" d="M162.634,-392.08C181.626,-369.324 212.664,-337.769 248,-324 337.786,-289.014 453.687,-301.151 514.862,-311.51"/>
<polygon fill="#007f55" stroke="#007f55" points="514.459,-314.993 524.914,-313.281 515.673,-308.099 514.459,-314.993"/>
</g>
<!-- G04 -->
<g id="node22" class="node"><title>G04</title>
<ellipse fill="none" stroke="black" stroke-width="2" cx="281" cy="-610" rx="32.0265" ry="32.5269"/>
<text text-anchor="middle" x="281" y="-606.4" font-family="Times Roman,serif" font-size="14.00">G04</text>
</g>
<!-- G0S&#45;&gt;G04 -->
<g id="edge28" class="edge"><title>G0S&#45;&gt;G04</title>
<path fill="none" stroke="#547f00" stroke-width="4" d="M159.838,-445.639C179.654,-477.515 214.163,-531.043 248,-574 249.22,-575.549 250.49,-577.113 251.792,-578.677"/>
<polygon fill="#547f00" stroke="#547f00" points="249.293,-581.138 258.473,-586.426 254.594,-576.567 249.293,-581.138"/>
</g>
<!-- G06 -->
<g id="node26" class="node"><title>G06</title>
<ellipse fill="none" stroke="black" stroke-width="2" cx="419" cy="-537" rx="32.0265" ry="32.5269"/>
<text text-anchor="middle" x="419" y="-533.4" font-family="Times Roman,serif" font-size="14.00">G06</text>
</g>
<!-- G0S&#45;&gt;G06 -->
<g id="edge34" class="edge"><title>G0S&#45;&gt;G06</title>
<path fill="none" stroke="#00557f" stroke-width="4" d="M172.799,-430.848C222.87,-452.437 323.872,-495.985 379.691,-520.052"/>
<polygon fill="#00557f" stroke="#00557f" points="378.338,-523.28 388.907,-524.025 381.11,-516.852 378.338,-523.28"/>
</g>
<!-- G03 -->
<g id="node28" class="node"><title>G03</title>
<ellipse fill="none" stroke="black" stroke-width="2" cx="281" cy="-372" rx="32.0265" ry="32.5269"/>
<text text-anchor="middle" x="281" y="-368.4" font-family="Times Roman,serif" font-size="14.00">G03</text>
</g>
<!-- G0S&#45;&gt;G03 -->
<g id="edge36" class="edge"><title>G0S&#45;&gt;G03</title>
<path fill="none" stroke="#54007f" stroke-width="4" d="M173.97,-407.677C193.59,-401.137 219.176,-392.608 240.412,-385.529"/>
<polygon fill="#54007f" stroke="#54007f" points="241.753,-388.772 250.133,-382.289 239.54,-382.131 241.753,-388.772"/>
</g>
<!-- G07 -->
<g id="node30" class="node"><title>G07</title>
<ellipse fill="none" stroke="black" stroke-width="2" cx="557" cy="-451" rx="32.0265" ry="32.5269"/>
<text text-anchor="middle" x="557" y="-447.4" font-family="Times Roman,serif" font-size="14.00">G07</text>
</g>
<!-- G0S&#45;&gt;G07 -->
<g id="edge38" class="edge"><title>G0S&#45;&gt;G07</title>
<path fill="none" stroke="black" stroke-width="4" d="M175.582,-414.8C243.794,-410.327 399.641,-404.503 452,-413 474.716,-416.686 499.159,-424.584 518.741,-432.253"/>
<polygon fill="black" stroke="black" points="517.635,-435.581 528.218,-436.099 520.268,-429.095 517.635,-435.581"/>
</g>
<!-- G0S&#45;&gt;G07 -->
<g id="edge40" class="edge"><title>G0S&#45;&gt;G07</title>
<path fill="none" stroke="#7f5500" stroke-width="4" d="M175.582,-418.573C243.794,-417.327 399.641,-411.503 452,-420 473.805,-423.538 497.2,-430.957 516.361,-437.695"/>
<polygon fill="#7f5500" stroke="#7f5500" points="515.369,-441.057 525.964,-441.132 517.728,-434.467 515.369,-441.057"/>
</g>
<!-- G04&#45;&gt;G0T -->
<g id="edge54" class="edge"><title>G04&#45;&gt;G0T</title>
<path fill="none" stroke="black" stroke-width="4" d="M312.658,-617.618C363.743,-629.223 467.67,-650 557,-650 557,-650 557,-650 695,-650 773.259,-650 800.185,-650.341 866,-608 902.996,-584.199 932.596,-542.826 950.819,-512.529"/>
<polygon fill="black" stroke="black" points="954.066,-513.91 956.104,-503.514 948.027,-510.37 954.066,-513.91"/>
</g>
<!-- G04&#45;&gt;G09 -->
<g id="edge56" class="edge"><title>G04&#45;&gt;G09</title>
<path fill="none" stroke="#007f55" stroke-width="4" d="M313.717,-608.897C388.222,-607.843 575.85,-605.015 728,-571 749.684,-566.152 773.067,-558.197 792.251,-551.174"/>
<polygon fill="#007f55" stroke="#007f55" points="793.709,-554.367 801.869,-547.608 791.276,-547.803 793.709,-554.367"/>
</g>
<!-- G04&#45;&gt;G09 -->
<g id="edge58" class="edge"><title>G04&#45;&gt;G09</title>
<path fill="none" stroke="#00007f" stroke-width="4" d="M313.438,-612.538C387.754,-614.85 575.661,-612.058 728,-578 750.59,-572.95 775.025,-564.526 794.634,-556.582"/>
<polygon fill="#00007f" stroke="#00007f" points="796.25,-559.7 804.127,-552.615 793.551,-553.242 796.25,-559.7"/>
</g>
<!-- G05 -->
<g id="node42" class="node"><title>G05</title>
<ellipse fill="none" stroke="black" stroke-width="2" cx="419" cy="-451" rx="32.0265" ry="32.5269"/>
<text text-anchor="middle" x="419" y="-447.4" font-family="Times Roman,serif" font-size="14.00">G05</text>
</g>
<!-- G04&#45;&gt;G05 -->
<g id="edge60" class="edge"><title>G04&#45;&gt;G05</title>
<path fill="none" stroke="black" stroke-width="4" d="M303.13,-586.095C306.785,-582.079 310.517,-577.937 314,-574 340.859,-543.64 370.819,-508.403 391.839,-483.446"/>
<polygon fill="black" stroke="black" points="394.576,-485.629 398.335,-475.724 389.219,-481.123 394.576,-485.629"/>
</g>
<!-- G06&#45;&gt;G0T -->
<g id="edge42" class="edge"><title>G06&#45;&gt;G0T</title>
<path fill="none" stroke="black" stroke-width="4" d="M449.638,-548.443C524.044,-574.361 718.963,-630.956 866,-573 898.373,-560.24 926.652,-532.271 945.681,-509.466"/>
<polygon fill="black" stroke="black" points="948.44,-511.621 952.018,-501.649 943.002,-507.213 948.44,-511.621"/>
</g>
<!-- G06&#45;&gt;G09 -->
<g id="edge44" class="edge"><title>G06&#45;&gt;G09</title>
<path fill="none" stroke="#00007f" stroke-width="4" d="M451.486,-532.73C525.703,-528.597 707.664,-528.43 790.585,-532.229"/>
<polygon fill="#00007f" stroke="#00007f" points="790.501,-535.729 800.665,-532.738 790.854,-528.738 790.501,-535.729"/>
</g>
<!-- G06&#45;&gt;G09 -->
<g id="edge46" class="edge"><title>G06&#45;&gt;G09</title>
<path fill="none" stroke="#54007f" stroke-width="4" d="M451.486,-535.719C525.611,-534.481 707.216,-534.429 790.278,-535.565"/>
<polygon fill="#54007f" stroke="#54007f" points="790.327,-539.066 800.379,-535.717 790.433,-532.066 790.327,-539.066"/>
</g>
<!-- G06&#45;&gt;G09 -->
<g id="edge48" class="edge"><title>G06&#45;&gt;G09</title>
<path fill="none" stroke="#007f55" stroke-width="4" d="M451.486,-538.708C525.611,-540.359 707.216,-540.428 790.278,-538.914"/>
<polygon fill="#007f55" stroke="#007f55" points="790.451,-542.411 800.379,-538.711 790.311,-535.413 790.451,-542.411"/>
</g>
<!-- G06&#45;&gt;G09 -->
<g id="edge50" class="edge"><title>G06&#45;&gt;G09</title>
<path fill="none" stroke="#7f0000" stroke-width="4" d="M451.486,-541.697C525.703,-546.243 707.664,-546.427 790.585,-542.248"/>
<polygon fill="#7f0000" stroke="#7f0000" points="790.875,-545.737 800.665,-541.688 790.486,-538.748 790.875,-545.737"/>
</g>
<!-- G06&#45;&gt;G07 -->
<g id="edge52" class="edge"><title>G06&#45;&gt;G07</title>
<path fill="none" stroke="black" stroke-width="4" d="M446.595,-519.803C467.937,-506.503 497.666,-487.976 520.898,-473.498"/>
<polygon fill="black" stroke="black" points="522.817,-476.426 529.453,-468.167 519.115,-470.485 522.817,-476.426"/>
</g>
<!-- G03&#45;&gt;G0T -->
<g id="edge64" class="edge"><title>G03&#45;&gt;G0T</title>
<path fill="none" stroke="black" stroke-width="4" d="M309.372,-355.921C363.097,-327.31 483.819,-271.745 590,-285 716.61,-300.805 757.958,-296.126 866,-364 897.886,-384.031 926.695,-415.977 946.035,-440.466"/>
<polygon fill="black" stroke="black" points="943.332,-442.692 952.222,-448.456 948.867,-438.407 943.332,-442.692"/>
</g>
<!-- G03&#45;&gt;G08 -->
<g id="edge66" class="edge"><title>G03&#45;&gt;G08</title>
<path fill="none" stroke="#007f55" stroke-width="4" d="M313.529,-372.92C369.909,-374.685 489.397,-379.179 590,-388 610.534,-389.8 633.242,-392.52 652.272,-395.008"/>
<polygon fill="#007f55" stroke="#007f55" points="652.055,-398.51 662.429,-396.358 652.978,-391.571 652.055,-398.51"/>
</g>
<!-- G03&#45;&gt;G09 -->
<g id="edge68" class="edge"><title>G03&#45;&gt;G09</title>
<path fill="none" stroke="#547f00" stroke-width="4" d="M297.86,-399.591C316.001,-426.596 347.497,-466.44 386,-486 421.598,-504.084 685.509,-525.817 790.296,-533.832"/>
<polygon fill="#547f00" stroke="#547f00" points="790.277,-537.34 800.513,-534.608 790.807,-530.36 790.277,-537.34"/>
</g>
<!-- G03&#45;&gt;G05 -->
<g id="edge70" class="edge"><title>G03&#45;&gt;G05</title>
<path fill="none" stroke="black" stroke-width="4" d="M309.259,-388.177C330.283,-400.213 359.168,-416.748 382.026,-429.834"/>
<polygon fill="black" stroke="black" points="380.361,-432.913 390.778,-434.844 383.839,-426.838 380.361,-432.913"/>
</g>
<!-- G07&#45;&gt;G0T -->
<g id="edge72" class="edge"><title>G07&#45;&gt;G0T</title>
<path fill="none" stroke="black" stroke-width="4" d="M589.486,-452.883C663.611,-457.18 845.216,-467.708 928.278,-472.523"/>
<polygon fill="black" stroke="black" points="928.193,-476.024 938.379,-473.109 928.598,-469.036 928.193,-476.024"/>
</g>
<!-- G07&#45;&gt;G08 -->
<g id="edge74" class="edge"><title>G07&#45;&gt;G08</title>
<path fill="none" stroke="#7f0054" stroke-width="4" d="M586.944,-438.258C606.604,-430.73 632.573,-421.26 654.125,-413.735"/>
<polygon fill="#7f0054" stroke="#7f0054" points="655.373,-417.007 663.678,-410.428 653.083,-410.392 655.373,-417.007"/>
</g>
<!-- G07&#45;&gt;G08 -->
<g id="edge76" class="edge"><title>G07&#45;&gt;G08</title>
<path fill="none" stroke="black" stroke-width="4" d="M588.314,-442.215C608.313,-435.489 634.405,-426.094 655.779,-417.947"/>
<polygon fill="black" stroke="black" points="657.156,-421.167 665.229,-414.306 654.639,-414.635 657.156,-421.167"/>
</g>
<!-- G07&#45;&gt;G09 -->
<g id="edge78" class="edge"><title>G07&#45;&gt;G09</title>
<path fill="none" stroke="#7f5500" stroke-width="4" d="M588.215,-460.634C622.504,-471.227 679.194,-488.767 728,-504 749.125,-510.593 772.625,-517.975 792.029,-524.082"/>
<polygon fill="#7f5500" stroke="#7f5500" points="791.178,-527.484 801.768,-527.149 793.281,-520.807 791.178,-527.484"/>
</g>
<!-- G05&#45;&gt;G0T -->
<g id="edge80" class="edge"><title>G05&#45;&gt;G0T</title>
<path fill="none" stroke="black" stroke-width="4" d="M449.128,-463.924C469.771,-472.056 498.015,-481.783 524,-486 671.032,-509.86 848.784,-491.771 928.598,-481.214"/>
<polygon fill="black" stroke="black" points="929.303,-484.651 938.744,-479.842 928.365,-477.714 929.303,-484.651"/>
</g>
<!-- G05&#45;&gt;G08 -->
<g id="edge82" class="edge"><title>G05&#45;&gt;G08</title>
<path fill="none" stroke="#7f5500" stroke-width="4" d="M449.263,-438.81C469.966,-430.997 498.224,-421.349 524,-416 566.972,-407.082 617.091,-403.461 651.915,-401.993"/>
<polygon fill="#7f5500" stroke="#7f5500" points="652.346,-405.479 662.206,-401.603 652.081,-398.484 652.346,-405.479"/>
</g>
<!-- G05&#45;&gt;G07 -->
<g id="edge84" class="edge"><title>G05&#45;&gt;G07</title>
<path fill="none" stroke="black" stroke-width="4" d="M451.704,-451C470.301,-451 493.816,-451 513.904,-451"/>
<polygon fill="black" stroke="black" points="514.052,-454.5 524.052,-451 514.052,-447.5 514.052,-454.5"/>
</g>
<!-- G15 -->
<g id="node55" class="node"><title>G15</title>
<ellipse fill="none" stroke="black" stroke-width="2" cx="557" cy="-82" rx="32.0265" ry="32.5269"/>
<text text-anchor="middle" x="557" y="-78.4" font-family="Times Roman,serif" font-size="14.00">G15</text>
</g>
<!-- G16 -->
<g id="node57" class="node"><title>G16</title>
<ellipse fill="none" stroke="black" stroke-width="2" cx="695" cy="-125" rx="32.0265" ry="32.5269"/>
<text text-anchor="middle" x="695" y="-121.4" font-family="Times Roman,serif" font-size="14.00">G16</text>
</g>
<!-- G15&#45;&gt;G16 -->
<g id="edge86" class="edge"><title>G15&#45;&gt;G16</title>
<path fill="none" stroke="#00007f" stroke-width="4" d="M588.66,-89.9381C608.307,-95.682 633.734,-103.559 654.797,-110.407"/>
<polygon fill="#00007f" stroke="#00007f" points="653.843,-113.778 664.436,-113.571 656.027,-107.127 653.843,-113.778"/>
</g>
<!-- G15&#45;&gt;G16 -->
<g id="edge88" class="edge"><title>G15&#45;&gt;G16</title>
<path fill="none" stroke="black" stroke-width="4" d="M587.285,-93.9696C606.737,-100.558 632.259,-108.591 653.577,-114.869"/>
<polygon fill="black" stroke="black" points="652.769,-118.279 663.348,-117.707 654.721,-111.556 652.769,-118.279"/>
</g>
<!-- G1T -->
<g id="node60" class="node"><title>G1T</title>
<ellipse fill="none" stroke="black" stroke-width="2" cx="833" cy="-147" rx="32.0265" ry="32.5269"/>
<text text-anchor="middle" x="833" y="-143.4" font-family="Times Roman,serif" font-size="14.00">G1T</text>
</g>
<!-- G15&#45;&gt;G1T -->
<g id="edge90" class="edge"><title>G15&#45;&gt;G1T</title>
<path fill="none" stroke="black" stroke-width="4" d="M589.51,-79.2646C624.425,-77.3012 681.195,-76.9431 728,-90 752.776,-96.9115 778.187,-110.502 797.804,-122.679"/>
<polygon fill="black" stroke="black" points="796.071,-125.725 806.386,-128.145 799.832,-119.821 796.071,-125.725"/>
</g>
<!-- G16&#45;&gt;G1T -->
<g id="edge92" class="edge"><title>G16&#45;&gt;G1T</title>
<path fill="none" stroke="black" stroke-width="4" d="M727.355,-130.158C746.301,-133.178 770.44,-137.027 790.859,-140.282"/>
<polygon fill="black" stroke="black" points="790.421,-143.756 800.848,-141.874 791.524,-136.844 790.421,-143.756"/>
</g>
<!-- G1T&#45;&gt;T -->
<g id="edge132" class="edge"><title>G1T&#45;&gt;T</title>
<path fill="none" stroke="black" stroke-width="4" d="M865.653,-147C917.302,-147 1017.02,-147 1066.17,-147"/>
<polygon fill="black" stroke="black" points="1066.42,-150.5 1076.42,-147 1066.42,-143.5 1066.42,-150.5"/>
</g>
<!-- G11 -->
<g id="node62" class="node"><title>G11</title>
<ellipse fill="none" stroke="black" stroke-width="2" cx="281" cy="-125" rx="32.0265" ry="32.5269"/>
<text text-anchor="middle" x="281" y="-121.4" font-family="Times Roman,serif" font-size="14.00">G11</text>
</g>
<!-- G11&#45;&gt;G16 -->
<g id="edge94" class="edge"><title>G11&#45;&gt;G16</title>
<path fill="none" stroke="#007f00" stroke-width="4" d="M313.832,-125C388.203,-125 569.481,-125 652.371,-125"/>
<polygon fill="#007f00" stroke="#007f00" points="652.451,-128.5 662.451,-125 652.451,-121.5 652.451,-128.5"/>
</g>
<!-- G11&#45;&gt;G1T -->
<g id="edge98" class="edge"><title>G11&#45;&gt;G1T</title>
<path fill="none" stroke="black" stroke-width="4" d="M310.332,-110.214C364.656,-84.5021 484.967,-35.348 590,-47 652.479,-53.9311 670.129,-53.4525 728,-78 753.654,-88.8817 779.851,-106.086 799.662,-120.592"/>
<polygon fill="black" stroke="black" points="797.632,-123.445 807.74,-126.618 801.817,-117.833 797.632,-123.445"/>
</g>
<!-- G13 -->
<g id="node65" class="node"><title>G13</title>
<ellipse fill="none" stroke="black" stroke-width="2" cx="419" cy="-173" rx="32.0265" ry="32.5269"/>
<text text-anchor="middle" x="419" y="-169.4" font-family="Times Roman,serif" font-size="14.00">G13</text>
</g>
<!-- G11&#45;&gt;G13 -->
<g id="edge96" class="edge"><title>G11&#45;&gt;G13</title>
<path fill="none" stroke="black" stroke-width="4" d="M311.97,-135.772C331.59,-142.597 357.176,-151.496 378.412,-158.883"/>
<polygon fill="black" stroke="black" points="377.539,-162.284 388.133,-162.264 379.838,-155.673 377.539,-162.284"/>
</g>
<!-- G13&#45;&gt;G16 -->
<g id="edge122" class="edge"><title>G13&#45;&gt;G16</title>
<path fill="none" stroke="#00007f" stroke-width="4" d="M451.05,-165.365C471.784,-160.578 499.4,-154.487 524,-150 567.601,-142.048 617.82,-134.949 652.502,-130.366"/>
<polygon fill="#00007f" stroke="#00007f" points="653.281,-133.794 662.743,-129.027 652.373,-126.853 653.281,-133.794"/>
</g>
<!-- G13&#45;&gt;G1T -->
<g id="edge126" class="edge"><title>G13&#45;&gt;G1T</title>
<path fill="none" stroke="black" stroke-width="4" d="M451.584,-169.217C472.291,-166.982 499.682,-164.335 524,-163 614.54,-158.031 637.539,-166.247 728,-160 748.564,-158.58 771.275,-155.907 790.3,-153.352"/>
<polygon fill="black" stroke="black" points="791.024,-156.786 800.453,-151.954 790.069,-149.851 791.024,-156.786"/>
</g>
<!-- G14 -->
<g id="node79" class="node"><title>G14</title>
<ellipse fill="none" stroke="black" stroke-width="2" cx="557" cy="-198" rx="32.0265" ry="32.5269"/>
<text text-anchor="middle" x="557" y="-194.4" font-family="Times Roman,serif" font-size="14.00">G14</text>
</g>
<!-- G13&#45;&gt;G14 -->
<g id="edge124" class="edge"><title>G13&#45;&gt;G14</title>
<path fill="none" stroke="black" stroke-width="4" d="M451.007,-178.798C469.943,-182.229 494.156,-186.615 514.658,-190.329"/>
<polygon fill="black" stroke="black" points="514.225,-193.808 524.689,-192.147 515.473,-186.92 514.225,-193.808"/>
</g>
<!-- G1S -->
<g id="node67" class="node"><title>G1S</title>
<ellipse fill="none" stroke="black" stroke-width="2" cx="143" cy="-174" rx="32.0265" ry="32.5269"/>
<text text-anchor="middle" x="143" y="-170.4" font-family="Times Roman,serif" font-size="14.00">G1S</text>
</g>
<!-- G1S&#45;&gt;G15 -->
<g id="edge100" class="edge"><title>G1S&#45;&gt;G15</title>
<path fill="none" stroke="#547f00" stroke-width="4" d="M164.406,-149.704C183.904,-129.508 214.671,-102.178 248,-90 338.293,-57.0085 453.524,-66.2715 514.579,-74.8081"/>
<polygon fill="#547f00" stroke="#547f00" points="514.215,-78.292 524.616,-76.274 515.227,-71.3655 514.215,-78.292"/>
</g>
<!-- G1S&#45;&gt;G11 -->
<g id="edge102" class="edge"><title>G1S&#45;&gt;G11</title>
<path fill="none" stroke="#7f5500" stroke-width="4" d="M173.627,-163.125C193.321,-156.133 219.13,-146.968 240.509,-139.377"/>
<polygon fill="#7f5500" stroke="#7f5500" points="241.729,-142.658 249.982,-136.014 239.387,-136.062 241.729,-142.658"/>
</g>
<!-- G1S&#45;&gt;G13 -->
<g id="edge108" class="edge"><title>G1S&#45;&gt;G13</title>
<path fill="none" stroke="black" stroke-width="4" d="M175.472,-170.352C225.405,-168.015 321.061,-167.54 376.464,-169.237"/>
<polygon fill="black" stroke="black" points="376.535,-172.741 386.651,-169.592 376.779,-165.745 376.535,-172.741"/>
</g>
<!-- G1S&#45;&gt;G13 -->
<g id="edge110" class="edge"><title>G1S&#45;&gt;G13</title>
<path fill="none" stroke="#007f00" stroke-width="4" d="M175.745,-173.881C225.647,-173.701 320.759,-173.356 376.114,-173.155"/>
<polygon fill="#007f00" stroke="#007f00" points="376.311,-176.655 386.298,-173.118 376.285,-169.655 376.311,-176.655"/>
</g>
<!-- G1S&#45;&gt;G13 -->
<g id="edge112" class="edge"><title>G1S&#45;&gt;G13</title>
<path fill="none" stroke="#54007f" stroke-width="4" d="M175.472,-177.413C225.405,-179.387 321.061,-179.17 376.464,-177.072"/>
<polygon fill="#54007f" stroke="#54007f" points="376.807,-180.56 386.651,-176.643 376.513,-173.567 376.807,-180.56"/>
</g>
<!-- G12 -->
<g id="node71" class="node"><title>G12</title>
<ellipse fill="none" stroke="black" stroke-width="2" cx="419" cy="-244" rx="32.0265" ry="32.5269"/>
<text text-anchor="middle" x="419" y="-240.4" font-family="Times Roman,serif" font-size="14.00">G12</text>
</g>
<!-- G1S&#45;&gt;G12 -->
<g id="edge104" class="edge"><title>G1S&#45;&gt;G12</title>
<path fill="none" stroke="#007f55" stroke-width="4" d="M174.93,-180.595C225.158,-192.392 322.591,-217.052 377.953,-231.933"/>
<polygon fill="#007f55" stroke="#007f55" points="377.213,-235.358 387.78,-234.592 379.041,-228.601 377.213,-235.358"/>
</g>
<!-- G1S&#45;&gt;G12 -->
<g id="edge106" class="edge"><title>G1S&#45;&gt;G12</title>
<path fill="none" stroke="#7f0000" stroke-width="4" d="M174.124,-183.878C223.761,-197.733 320.929,-222.46 376.784,-235.525"/>
<polygon fill="#7f0000" stroke="#7f0000" points="376.18,-238.978 386.712,-237.824 377.76,-232.159 376.18,-238.978"/>
</g>
<!-- G12&#45;&gt;G16 -->
<g id="edge114" class="edge"><title>G12&#45;&gt;G16</title>
<path fill="none" stroke="#7f5500" stroke-width="4" d="M451.562,-246.41C487.27,-249.176 545.421,-250.545 590,-230 623.142,-214.726 651.352,-184.012 670.159,-159.717"/>
<polygon fill="#7f5500" stroke="#7f5500" points="673.185,-161.518 676.412,-151.426 667.596,-157.302 673.185,-161.518"/>
</g>
<!-- G12&#45;&gt;G16 -->
<g id="edge116" class="edge"><title>G12&#45;&gt;G16</title>
<path fill="none" stroke="#007f55" stroke-width="4" d="M450.915,-251.451C486.565,-256.159 545.151,-257.67 590,-237 624.781,-220.971 654.129,-187.938 672.879,-161.853"/>
<polygon fill="#007f55" stroke="#007f55" points="675.986,-163.515 678.824,-153.307 670.24,-159.517 675.986,-163.515"/>
</g>
<!-- G12&#45;&gt;G1T -->
<g id="edge120" class="edge"><title>G12&#45;&gt;G1T</title>
<path fill="none" stroke="black" stroke-width="4" d="M451.626,-245.563C472.349,-246.477 499.742,-247.538 524,-248 553.328,-248.558 561.234,-253.74 590,-248 666.496,-232.736 749.044,-192.906 795.546,-168.068"/>
<polygon fill="black" stroke="black" points="797.495,-170.994 804.63,-163.161 794.168,-164.835 797.495,-170.994"/>
</g>
<!-- G12&#45;&gt;G14 -->
<g id="edge118" class="edge"><title>G12&#45;&gt;G14</title>
<path fill="none" stroke="black" stroke-width="4" d="M449.97,-233.677C469.59,-227.137 495.176,-218.608 516.412,-211.529"/>
<polygon fill="black" stroke="black" points="517.753,-214.772 526.133,-208.289 515.54,-208.131 517.753,-214.772"/>
</g>
<!-- G14&#45;&gt;G16 -->
<g id="edge128" class="edge"><title>G14&#45;&gt;G16</title>
<path fill="none" stroke="#7f0054" stroke-width="4" d="M585.929,-182.697C606.63,-171.747 634.694,-156.901 657.17,-145.011"/>
<polygon fill="#7f0054" stroke="#7f0054" points="658.906,-148.053 666.109,-140.283 655.633,-141.865 658.906,-148.053"/>
</g>
<!-- G14&#45;&gt;G1T -->
<g id="edge130" class="edge"><title>G14&#45;&gt;G1T</title>
<path fill="none" stroke="black" stroke-width="4" d="M589.306,-194.231C623.808,-189.984 680.012,-182.426 728,-173 749.185,-168.839 772.517,-163.172 791.796,-158.19"/>
<polygon fill="black" stroke="black" points="792.686,-161.576 801.475,-155.66 790.915,-154.803 792.686,-161.576"/>
</g>
<!-- G2S -->
<g id="node87" class="node"><title>G2S</title>
<ellipse fill="none" stroke="black" stroke-width="2" cx="143" cy="-32" rx="32.0265" ry="32.5269"/>
<text text-anchor="middle" x="143" y="-28.4" font-family="Times Roman,serif" font-size="14.00">G2S</text>
</g>
<!-- G21 -->
<g id="node89" class="node"><title>G21</title>
<ellipse fill="none" stroke="black" stroke-width="2" cx="281" cy="-32" rx="32.0265" ry="32.5269"/>
<text text-anchor="middle" x="281" y="-28.4" font-family="Times Roman,serif" font-size="14.00">G21</text>
</g>
<!-- G2S&#45;&gt;G21 -->
<g id="edge134" class="edge"><title>G2S&#45;&gt;G21</title>
<path fill="none" stroke="#007f00" stroke-width="4" d="M175.355,-27.473C194.079,-26.6555 217.874,-26.5313 238.14,-27.1003"/>
<polygon fill="#007f00" stroke="#007f00" points="238.253,-30.6063 248.37,-27.461 238.499,-23.6107 238.253,-30.6063"/>
</g>
<!-- G2S&#45;&gt;G21 -->
<g id="edge136" class="edge"><title>G2S&#45;&gt;G21</title>
<path fill="none" stroke="#547f00" stroke-width="4" d="M175.704,-32C194.301,-32 217.816,-32 237.904,-32"/>
<polygon fill="#547f00" stroke="#547f00" points="238.052,-35.5001 248.052,-32 238.052,-28.5001 238.052,-35.5001"/>
</g>
<!-- G2S&#45;&gt;G21 -->
<g id="edge138" class="edge"><title>G2S&#45;&gt;G21</title>
<path fill="none" stroke="#00557f" stroke-width="4" d="M175.355,-36.527C194.079,-37.3445 217.874,-37.4687 238.14,-36.8997"/>
<polygon fill="#00557f" stroke="#00557f" points="238.499,-40.3893 248.37,-36.539 238.253,-33.3937 238.499,-40.3893"/>
</g>
<!-- G2T -->
<g id="node93" class="node"><title>G2T</title>
<ellipse fill="none" stroke="black" stroke-width="2" cx="971" cy="-54" rx="32.0265" ry="32.5269"/>
<text text-anchor="middle" x="971" y="-50.4" font-family="Times Roman,serif" font-size="14.00">G2T</text>
</g>
<!-- G21&#45;&gt;G2T -->
<g id="edge140" class="edge"><title>G21&#45;&gt;G2T</title>
<path fill="none" stroke="black" stroke-width="4" d="M313.706,-30.4385C365.368,-28.1104 469.036,-24 557,-24 557,-24 557,-24 695,-24 778.316,-24 874.956,-37.6781 928.939,-46.5626"/>
<polygon fill="black" stroke="black" points="928.39,-50.0193 938.83,-48.2157 929.544,-43.115 928.39,-50.0193"/>
</g>
<!-- G2T&#45;&gt;T -->
<g id="edge142" class="edge"><title>G2T&#45;&gt;T</title>
<path fill="none" stroke="black" stroke-width="4" d="M996.994,-73.4958C1019.22,-90.1613 1050.88,-113.909 1072.14,-129.858"/>
<polygon fill="black" stroke="black" points="1070.19,-132.768 1080.29,-135.968 1074.39,-127.168 1070.19,-132.768"/>
</g>
<!-- S -->
<g id="node95" class="node"><title>S</title>
<ellipse fill="none" stroke="black" stroke-width="2" cx="19" cy="-174" rx="17.8879" ry="18.3848"/>
<text text-anchor="middle" x="19" y="-170.4" font-family="Times Roman,serif" font-size="14.00">S</text>
</g>
<!-- S&#45;&gt;G0S -->
<g id="edge144" class="edge"><title>S&#45;&gt;G0S</title>
<path fill="none" stroke="black" stroke-width="4" d="M27.3285,-190.388C46.9373,-228.973 96.4255,-326.353 123.892,-380.399"/>
<polygon fill="black" stroke="black" points="120.776,-381.995 128.427,-389.325 127.017,-378.824 120.776,-381.995"/>
</g>
<!-- S&#45;&gt;G1S -->
<g id="edge146" class="edge"><title>S&#45;&gt;G1S</title>
<path fill="none" stroke="black" stroke-width="4" d="M37.5641,-174C54.0535,-174 78.7804,-174 100.145,-174"/>
<polygon fill="black" stroke="black" points="100.312,-177.5 110.312,-174 100.311,-170.5 100.312,-177.5"/>
</g>
<!-- S&#45;&gt;G2S -->
<g id="edge148" class="edge"><title>S&#45;&gt;G2S</title>
<path fill="none" stroke="black" stroke-width="4" d="M31.1154,-160.126C50.4153,-138.024 88.6471,-94.2428 115.006,-64.0579"/>
<polygon fill="black" stroke="black" points="117.824,-66.1512 121.766,-56.3167 112.552,-61.5469 117.824,-66.1512"/>
</g>
</g>
</svg>
