<?xml version="1.0" encoding="UTF-8" standalone="no"?>
<!DOCTYPE svg PUBLIC "-//W3C//DTD SVG 1.1//EN"
 "http://www.w3.org/Graphics/SVG/1.1/DTD/svg11.dtd">
<!-- Generated by graphviz version 2.26.3 (20100126.1600)
 -->
<!-- Title: _anonymous_0 Pages: 1 -->
<svg width="676pt" height="142pt"
 viewBox="0.00 0.00 676.00 142.00" xmlns="http://www.w3.org/2000/svg" xmlns:xlink="http://www.w3.org/1999/xlink">
<g id="graph1" class="graph" transform="scale(1 1) rotate(0) translate(4 138)">
<title>_anonymous_0</title>
<polygon fill="white" stroke="white" points="-4,5 -4,-138 673,-138 673,5 -4,5"/>
<!-- V2 -->
<g id="node1" class="node"><title>V2</title>
<ellipse fill="none" stroke="black" stroke-width="2" cx="257" cy="-74" rx="24.2437" ry="24.7487"/>
<text text-anchor="middle" x="257" y="-70.4" font-family="Times Roman,serif" font-size="14.00">V2</text>
</g>
<!-- V3 -->
<g id="node3" class="node"><title>V3</title>
<ellipse fill="none" stroke="black" stroke-width="2" cx="387" cy="-110" rx="24.2437" ry="24.7487"/>
<text text-anchor="middle" x="387" y="-106.4" font-family="Times Roman,serif" font-size="14.00">V3</text>
</g>
<!-- V2&#45;&gt;V3 -->
<g id="edge2" class="edge"><title>V2&#45;&gt;V3</title>
<path fill="none" stroke="#00007f" stroke-width="4" d="M280.844,-80.603C301.185,-86.2358 330.661,-94.3983 353.394,-100.694"/>
<polygon fill="#00007f" stroke="#00007f" points="352.736,-104.143 363.307,-103.439 354.604,-97.397 352.736,-104.143"/>
</g>
<!-- G1T -->
<g id="node5" class="node"><title>G1T</title>
<ellipse fill="none" stroke="black" stroke-width="2" cx="387" cy="-32" rx="32.0265" ry="32.5269"/>
<text text-anchor="middle" x="387" y="-28.4" font-family="Times Roman,serif" font-size="14.00">G1T</text>
</g>
<!-- V2&#45;&gt;G1T -->
<g id="edge4" class="edge"><title>V2&#45;&gt;G1T</title>
<path fill="none" stroke="black" stroke-width="4" d="M280.542,-66.3941C298.816,-60.4902 324.593,-52.1623 346.205,-45.18"/>
<polygon fill="black" stroke="black" points="347.36,-48.485 355.8,-42.0801 345.208,-41.824 347.36,-48.485"/>
</g>
<!-- G0T -->
<g id="node7" class="node"><title>G0T</title>
<ellipse fill="none" stroke="black" stroke-width="2" cx="525" cy="-75" rx="32.0265" ry="32.5269"/>
<text text-anchor="middle" x="525" y="-71.4" font-family="Times Roman,serif" font-size="14.00">G0T</text>
</g>
<!-- V2&#45;&gt;G0T -->
<g id="edge6" class="edge"><title>V2&#45;&gt;G0T</title>
<path fill="none" stroke="black" stroke-width="4" d="M281.732,-74.0923C327.356,-74.2625 425.27,-74.6279 481.983,-74.8395"/>
<polygon fill="black" stroke="black" points="482.058,-78.3397 492.071,-74.8771 482.084,-71.3397 482.058,-78.3397"/>
</g>
<!-- V3&#45;&gt;G0T -->
<g id="edge8" class="edge"><title>V3&#45;&gt;G0T</title>
<path fill="none" stroke="black" stroke-width="4" d="M410.723,-103.983C430.682,-98.9211 459.691,-91.5638 483.487,-85.5288"/>
<polygon fill="black" stroke="black" points="484.491,-88.8849 493.324,-83.0338 482.77,-82.0997 484.491,-88.8849"/>
</g>
<!-- T -->
<g id="node13" class="node"><title>T</title>
<ellipse fill="none" stroke="black" stroke-width="2" cx="649" cy="-53" rx="17.8879" ry="18.3848"/>
<text text-anchor="middle" x="649" y="-49.4" font-family="Times Roman,serif" font-size="14.00">T</text>
</g>
<!-- G1T&#45;&gt;T -->
<g id="edge14" class="edge"><title>G1T&#45;&gt;T</title>
<path fill="none" stroke="black" stroke-width="4" d="M419.529,-32.6017C453.978,-33.454 509.92,-35.4514 558,-40 579.019,-41.9885 602.615,-45.3934 620.513,-48.2199"/>
<polygon fill="black" stroke="black" points="620.157,-51.7077 630.587,-49.8445 621.272,-44.797 620.157,-51.7077"/>
</g>
<!-- G0T&#45;&gt;T -->
<g id="edge16" class="edge"><title>G0T&#45;&gt;T</title>
<path fill="none" stroke="black" stroke-width="4" d="M557.256,-69.2772C576.903,-65.7915 601.772,-61.3792 620.66,-58.0281"/>
<polygon fill="black" stroke="black" points="621.501,-61.4336 630.736,-56.2404 620.278,-54.5413 621.501,-61.4336"/>
</g>
<!-- V1 -->
<g id="node9" class="node"><title>V1</title>
<ellipse fill="none" stroke="black" stroke-width="2" cx="135" cy="-33" rx="24.2437" ry="24.7487"/>
<text text-anchor="middle" x="135" y="-29.4" font-family="Times Roman,serif" font-size="14.00">V1</text>
</g>
<!-- V1&#45;&gt;V2 -->
<g id="edge10" class="edge"><title>V1&#45;&gt;V2</title>
<path fill="none" stroke="#00007f" stroke-width="4" d="M158.234,-40.8083C176.771,-47.0379 202.979,-55.8454 223.74,-62.8224"/>
<polygon fill="#00007f" stroke="#00007f" points="222.843,-66.2131 233.437,-66.0811 225.072,-59.5778 222.843,-66.2131"/>
</g>
<!-- V1&#45;&gt;G1T -->
<g id="edge12" class="edge"><title>V1&#45;&gt;G1T</title>
<path fill="none" stroke="black" stroke-width="4" d="M159.622,-32.9023C202.465,-32.7323 291.215,-32.3801 344.279,-32.1695"/>
<polygon fill="black" stroke="black" points="344.405,-35.6692 354.391,-32.1294 344.377,-28.6692 344.405,-35.6692"/>
</g>
<!-- S -->
<g id="node15" class="node"><title>S</title>
<ellipse fill="none" stroke="black" stroke-width="2" cx="19" cy="-74" rx="17.8879" ry="18.3848"/>
<text text-anchor="middle" x="19" y="-70.4" font-family="Times Roman,serif" font-size="14.00">S</text>
</g>
<!-- S&#45;&gt;V2 -->
<g id="edge22" class="edge"><title>S&#45;&gt;V2</title>
<path fill="none" stroke="black" stroke-width="4" d="M37.2803,-71.038C76.8107,-68.3172 170.809,-68.023 222.116,-70.1555"/>
<polygon fill="black" stroke="black" points="222.226,-73.6647 232.382,-70.6474 222.561,-66.6727 222.226,-73.6647"/>
</g>
<!-- S&#45;&gt;V2 -->
<g id="edge18" class="edge"><title>S&#45;&gt;V2</title>
<path fill="none" stroke="#007f00" stroke-width="4" d="M37.6755,-74C77.4723,-74 171.16,-74 222.265,-74"/>
<polygon fill="#007f00" stroke="#007f00" points="222.489,-77.5001 232.489,-74 222.489,-70.5001 222.489,-77.5001"/>
</g>
<!-- S&#45;&gt;V2 -->
<g id="edge20" class="edge"><title>S&#45;&gt;V2</title>
<path fill="none" stroke="#7f0000" stroke-width="4" d="M37.2803,-76.962C76.8107,-79.6828 170.809,-79.977 222.116,-77.8445"/>
<polygon fill="#7f0000" stroke="#7f0000" points="222.561,-81.3273 232.382,-77.3526 222.226,-74.3353 222.561,-81.3273"/>
</g>
<!-- S&#45;&gt;V1 -->
<g id="edge24" class="edge"><title>S&#45;&gt;V1</title>
<path fill="none" stroke="#007f00" stroke-width="4" d="M36.1162,-66.2985C53.3084,-59.5974 80.2518,-49.9388 101.675,-42.7205"/>
<polygon fill="#007f00" stroke="#007f00" points="102.991,-45.9712 111.377,-39.496 100.784,-39.3285 102.991,-45.9712"/>
</g>
<!-- S&#45;&gt;V1 -->
<g id="edge26" class="edge"><title>S&#45;&gt;V1</title>
<path fill="none" stroke="black" stroke-width="4" d="M37.125,-69.8438C54.7278,-64.4314 81.8283,-55.0071 103.053,-47.0045"/>
<polygon fill="black" stroke="black" points="104.55,-50.1791 112.634,-43.331 102.044,-43.6431 104.55,-50.1791"/>
</g>
</g>
</svg>
