<?xml version="1.0" encoding="UTF-8" standalone="no"?>
<!DOCTYPE svg PUBLIC "-//W3C//DTD SVG 1.1//EN"
 "http://www.w3.org/Graphics/SVG/1.1/DTD/svg11.dtd">
<!-- Generated by graphviz version 2.26.3 (20100126.1600)
 -->
<!-- Title: _anonymous_0 Pages: 1 -->
<svg width="350pt" height="72pt"
 viewBox="0.00 0.00 350.00 72.00" xmlns="http://www.w3.org/2000/svg" xmlns:xlink="http://www.w3.org/1999/xlink">
<g id="graph1" class="graph" transform="scale(1 1) rotate(0) translate(4 68)">
<title>_anonymous_0</title>
<polygon fill="white" stroke="white" points="-4,5 -4,-68 347,-68 347,5 -4,5"/>
<!-- G2S -->
<g id="node1" class="node"><title>G2S</title>
<ellipse fill="none" stroke="black" stroke-width="2" cx="33" cy="-32" rx="32.0265" ry="32.5269"/>
<text text-anchor="middle" x="33" y="-28.4" font-family="Times Roman,serif" font-size="14.00">G2S</text>
</g>
<!-- G21 -->
<g id="node3" class="node"><title>G21</title>
<ellipse fill="none" stroke="black" stroke-width="2" cx="171" cy="-32" rx="32.0265" ry="32.5269"/>
<text text-anchor="middle" x="171" y="-28.4" font-family="Times Roman,serif" font-size="14.00">G21</text>
</g>
<!-- G2S&#45;&gt;G21 -->
<g id="edge2" class="edge"><title>G2S&#45;&gt;G21</title>
<path fill="none" stroke="#00557f" stroke-width="4" d="M65.3549,-27.473C84.0787,-26.6555 107.874,-26.5313 128.14,-27.1003"/>
<polygon fill="#00557f" stroke="#00557f" points="128.253,-30.6063 138.37,-27.461 128.499,-23.6107 128.253,-30.6063"/>
</g>
<!-- G2S&#45;&gt;G21 -->
<g id="edge4" class="edge"><title>G2S&#45;&gt;G21</title>
<path fill="none" stroke="#007f00" stroke-width="4" d="M65.7041,-32C84.3013,-32 107.816,-32 127.904,-32"/>
<polygon fill="#007f00" stroke="#007f00" points="128.052,-35.5001 138.052,-32 128.052,-28.5001 128.052,-35.5001"/>
</g>
<!-- G2S&#45;&gt;G21 -->
<g id="edge6" class="edge"><title>G2S&#45;&gt;G21</title>
<path fill="none" stroke="#7f0000" stroke-width="4" d="M65.3549,-36.527C84.0787,-37.3445 107.874,-37.4687 128.14,-36.8997"/>
<polygon fill="#7f0000" stroke="#7f0000" points="128.499,-40.3893 138.37,-36.539 128.253,-33.3937 128.499,-40.3893"/>
</g>
<!-- G2T -->
<g id="node7" class="node"><title>G2T</title>
<ellipse fill="none" stroke="black" stroke-width="2" cx="309" cy="-32" rx="32.0265" ry="32.5269"/>
<text text-anchor="middle" x="309" y="-28.4" font-family="Times Roman,serif" font-size="14.00">G2T</text>
</g>
<!-- G21&#45;&gt;G2T -->
<g id="edge8" class="edge"><title>G21&#45;&gt;G2T</title>
<path fill="none" stroke="black" stroke-width="4" d="M203.704,-32C222.301,-32 245.816,-32 265.904,-32"/>
<polygon fill="black" stroke="black" points="266.052,-35.5001 276.052,-32 266.052,-28.5001 266.052,-35.5001"/>
</g>
</g>
</svg>
