<?xml version="1.0" encoding="UTF-8" standalone="no"?>
<!DOCTYPE svg PUBLIC "-//W3C//DTD SVG 1.1//EN"
 "http://www.w3.org/Graphics/SVG/1.1/DTD/svg11.dtd">
<!-- Generated by graphviz version 2.26.3 (20100126.1600)
 -->
<!-- Title: _anonymous_0 Pages: 1 -->
<svg width="902pt" height="400pt"
 viewBox="0.00 0.00 902.00 400.00" xmlns="http://www.w3.org/2000/svg" xmlns:xlink="http://www.w3.org/1999/xlink">
<g id="graph1" class="graph" transform="scale(1 1) rotate(0) translate(4 396)">
<title>_anonymous_0</title>
<polygon fill="white" stroke="white" points="-4,5 -4,-396 899,-396 899,5 -4,5"/>
<!-- G02 -->
<g id="node1" class="node"><title>G02</title>
<ellipse fill="none" stroke="black" stroke-width="2" cx="171" cy="-32" rx="32.0265" ry="32.5269"/>
<text text-anchor="middle" x="171" y="-28.4" font-family="Times Roman,serif" font-size="14.00">G02</text>
</g>
<!-- G08 -->
<g id="node3" class="node"><title>G08</title>
<ellipse fill="none" stroke="black" stroke-width="2" cx="585" cy="-261" rx="32.0265" ry="32.5269"/>
<text text-anchor="middle" x="585" y="-257.4" font-family="Times Roman,serif" font-size="14.00">G08</text>
</g>
<!-- G02&#45;&gt;G08 -->
<g id="edge2" class="edge"><title>G02&#45;&gt;G08</title>
<path fill="none" stroke="black" stroke-width="4" d="M194.258,-54.7064C214.448,-73.3592 245.203,-99.3338 276,-116 359.93,-161.42 395.27,-139.091 480,-183 506.226,-196.591 532.91,-216.509 552.815,-232.815"/>
<polygon fill="black" stroke="black" points="550.711,-235.618 560.637,-239.323 555.188,-230.237 550.711,-235.618"/>
</g>
<!-- G09 -->
<g id="node5" class="node"><title>G09</title>
<ellipse fill="none" stroke="black" stroke-width="2" cx="723" cy="-131" rx="32.0265" ry="32.5269"/>
<text text-anchor="middle" x="723" y="-127.4" font-family="Times Roman,serif" font-size="14.00">G09</text>
</g>
<!-- G02&#45;&gt;G09 -->
<g id="edge4" class="edge"><title>G02&#45;&gt;G09</title>
<path fill="none" stroke="#7f5500" stroke-width="4" d="M203.3,-28.1234C237.798,-28.0318 293.997,-31.7158 342,-39 467.812,-58.0913 614.032,-94.9041 683.041,-115.934"/>
<polygon fill="#7f5500" stroke="#7f5500" points="682.062,-119.295 692.65,-118.918 684.138,-112.61 682.062,-119.295"/>
</g>
<!-- G02&#45;&gt;G09 -->
<g id="edge6" class="edge"><title>G02&#45;&gt;G09</title>
<path fill="none" stroke="#00557f" stroke-width="4" d="M203.618,-33.3323C238.142,-35.0545 294.144,-38.7381 342,-46 467.174,-64.9944 612.548,-101.531 681.984,-119.892"/>
<polygon fill="#00557f" stroke="#00557f" points="681.103,-123.28 691.666,-122.465 682.9,-116.514 681.103,-123.28"/>
</g>
<!-- G02&#45;&gt;G09 -->
<g id="edge8" class="edge"><title>G02&#45;&gt;G09</title>
<path fill="none" stroke="#7f0054" stroke-width="4" d="M202.983,-38.4772C237.453,-42.0093 293.85,-45.6935 342,-53 466.28,-71.8588 610.473,-108.01 680.485,-123.834"/>
<polygon fill="#7f0054" stroke="#7f0054" points="680.146,-127.344 690.668,-126.105 681.669,-120.512 680.146,-127.344"/>
</g>
<!-- G0T -->
<g id="node9" class="node"><title>G0T</title>
<ellipse fill="none" stroke="black" stroke-width="2" cx="861" cy="-218" rx="32.0265" ry="32.5269"/>
<text text-anchor="middle" x="861" y="-214.4" font-family="Times Roman,serif" font-size="14.00">G0T</text>
</g>
<!-- G02&#45;&gt;G0T -->
<g id="edge10" class="edge"><title>G02&#45;&gt;G0T</title>
<path fill="none" stroke="black" stroke-width="4" d="M203.653,-27.9011C255.245,-21.7898 358.819,-11 447,-11 447,-11 447,-11 585,-11 665.543,-11 691.59,-22.6422 756,-71 794.4,-99.83 824.425,-146.755 842.358,-179.819"/>
<polygon fill="black" stroke="black" points="839.317,-181.554 847.092,-188.751 845.501,-178.276 839.317,-181.554"/>
</g>
<!-- G08&#45;&gt;G09 -->
<g id="edge20" class="edge"><title>G08&#45;&gt;G09</title>
<path fill="none" stroke="#7f0000" stroke-width="4" d="M608.723,-238.652C631.63,-217.073 666.457,-184.265 691.642,-160.54"/>
<polygon fill="#7f0000" stroke="#7f0000" points="694.246,-162.896 699.125,-153.491 689.446,-157.801 694.246,-162.896"/>
</g>
<!-- G08&#45;&gt;G0T -->
<g id="edge22" class="edge"><title>G08&#45;&gt;G0T</title>
<path fill="none" stroke="black" stroke-width="4" d="M617.201,-255.983C667.03,-248.22 762.851,-233.291 818.369,-224.642"/>
<polygon fill="black" stroke="black" points="819.236,-228.049 828.578,-223.051 818.158,-221.133 819.236,-228.049"/>
</g>
<!-- G09&#45;&gt;G0T -->
<g id="edge60" class="edge"><title>G09&#45;&gt;G0T</title>
<path fill="none" stroke="black" stroke-width="4" d="M750.595,-148.397C771.937,-161.852 801.666,-180.594 824.898,-195.24"/>
<polygon fill="black" stroke="black" points="823.127,-198.261 833.453,-200.634 826.86,-192.34 823.127,-198.261"/>
</g>
<!-- G01 -->
<g id="node10" class="node"><title>G01</title>
<ellipse fill="none" stroke="black" stroke-width="2" cx="447" cy="-334" rx="32.0265" ry="32.5269"/>
<text text-anchor="middle" x="447" y="-330.4" font-family="Times Roman,serif" font-size="14.00">G01</text>
</g>
<!-- G01&#45;&gt;G08 -->
<g id="edge12" class="edge"><title>G01&#45;&gt;G08</title>
<path fill="none" stroke="black" stroke-width="4" d="M474.926,-317.378C495.416,-306.082 523.502,-291.159 546.175,-279.491"/>
<polygon fill="black" stroke="black" points="547.896,-282.542 555.205,-274.872 544.708,-276.31 547.896,-282.542"/>
</g>
<!-- G01&#45;&gt;G08 -->
<g id="edge14" class="edge"><title>G01&#45;&gt;G08</title>
<path fill="none" stroke="#7f5500" stroke-width="4" d="M476.944,-320.684C497.985,-310.131 526.251,-295.231 548.595,-282.938"/>
<polygon fill="#7f5500" stroke="#7f5500" points="550.411,-285.933 557.46,-278.023 547.017,-279.811 550.411,-285.933"/>
</g>
<!-- G01&#45;&gt;G09 -->
<g id="edge16" class="edge"><title>G01&#45;&gt;G09</title>
<path fill="none" stroke="#007f55" stroke-width="4" d="M479.508,-330.003C522.656,-324.191 595.966,-312.398 618,-297 662.579,-265.847 692.365,-209.083 708.489,-170.71"/>
<polygon fill="#007f55" stroke="#007f55" points="711.759,-171.958 712.294,-161.377 705.278,-169.315 711.759,-171.958"/>
</g>
<!-- G01&#45;&gt;G0T -->
<g id="edge18" class="edge"><title>G01&#45;&gt;G0T</title>
<path fill="none" stroke="black" stroke-width="4" d="M479.582,-332.151C514.315,-329.639 570.71,-324.001 618,-312 692.448,-293.107 775.043,-257.922 822.224,-236.369"/>
<polygon fill="black" stroke="black" points="823.837,-239.479 831.457,-232.118 820.91,-233.121 823.837,-239.479"/>
</g>
<!-- G0S -->
<g id="node17" class="node"><title>G0S</title>
<ellipse fill="none" stroke="black" stroke-width="2" cx="33" cy="-188" rx="32.0265" ry="32.5269"/>
<text text-anchor="middle" x="33" y="-184.4" font-family="Times Roman,serif" font-size="14.00">G0S</text>
</g>
<!-- G0S&#45;&gt;G02 -->
<g id="edge36" class="edge"><title>G0S&#45;&gt;G02</title>
<path fill="none" stroke="#547f00" stroke-width="4" d="M54.5625,-163.625C78.3613,-136.722 116.753,-93.3227 142.894,-63.7724"/>
<polygon fill="#547f00" stroke="#547f00" points="145.585,-66.0128 149.589,-56.2038 140.342,-61.3748 145.585,-66.0128"/>
</g>
<!-- G0S&#45;&gt;G08 -->
<g id="edge30" class="edge"><title>G0S&#45;&gt;G08</title>
<path fill="none" stroke="#54007f" stroke-width="4" d="M65.1137,-193.57C85.873,-197.079 113.493,-201.576 138,-205 228.414,-217.632 252.897,-209.128 342,-229 374.922,-236.342 380.84,-246.82 414,-253 457.026,-261.019 507.138,-262.459 541.944,-262.236"/>
<polygon fill="#54007f" stroke="#54007f" points="542.271,-265.733 552.23,-262.119 542.191,-258.733 542.271,-265.733"/>
</g>
<!-- G0S&#45;&gt;G01 -->
<g id="edge28" class="edge"><title>G0S&#45;&gt;G01</title>
<path fill="none" stroke="#007f00" stroke-width="4" d="M50.1309,-215.392C68.3768,-241.947 99.8566,-280.93 138,-300 224.702,-343.348 341.847,-342.606 404.038,-338.304"/>
<polygon fill="#007f00" stroke="#007f00" points="404.557,-341.775 414.264,-337.529 404.028,-334.795 404.557,-341.775"/>
</g>
<!-- G07 -->
<g id="node19" class="node"><title>G07</title>
<ellipse fill="none" stroke="black" stroke-width="2" cx="447" cy="-218" rx="32.0265" ry="32.5269"/>
<text text-anchor="middle" x="447" y="-214.4" font-family="Times Roman,serif" font-size="14.00">G07</text>
</g>
<!-- G0S&#45;&gt;G07 -->
<g id="edge24" class="edge"><title>G0S&#45;&gt;G07</title>
<path fill="none" stroke="black" stroke-width="4" d="M65.4859,-189.073C139.703,-193.211 321.664,-206.347 404.585,-213.495"/>
<polygon fill="black" stroke="black" points="404.398,-216.992 414.665,-214.378 405.009,-210.019 404.398,-216.992"/>
</g>
<!-- G0S&#45;&gt;G07 -->
<g id="edge26" class="edge"><title>G0S&#45;&gt;G07</title>
<path fill="none" stroke="#7f5500" stroke-width="4" d="M65.4859,-192.062C139.611,-199.085 321.216,-212.313 404.278,-216.818"/>
<polygon fill="#7f5500" stroke="#7f5500" points="404.21,-220.319 414.379,-217.347 404.576,-213.329 404.21,-220.319"/>
</g>
<!-- G06 -->
<g id="node24" class="node"><title>G06</title>
<ellipse fill="none" stroke="black" stroke-width="2" cx="309" cy="-81" rx="32.0265" ry="32.5269"/>
<text text-anchor="middle" x="309" y="-77.4" font-family="Times Roman,serif" font-size="14.00">G06</text>
</g>
<!-- G0S&#45;&gt;G06 -->
<g id="edge32" class="edge"><title>G0S&#45;&gt;G06</title>
<path fill="none" stroke="#00007f" stroke-width="4" d="M55.7654,-164.821C75.6544,-146.051 106.245,-120.575 138,-107 179.34,-89.3273 230.815,-83.433 266.429,-81.5849"/>
<polygon fill="#00007f" stroke="#00007f" points="266.649,-85.0788 276.488,-81.1485 266.345,-78.0854 266.649,-85.0788"/>
</g>
<!-- G04 -->
<g id="node26" class="node"><title>G04</title>
<ellipse fill="none" stroke="black" stroke-width="2" cx="171" cy="-142" rx="32.0265" ry="32.5269"/>
<text text-anchor="middle" x="171" y="-138.4" font-family="Times Roman,serif" font-size="14.00">G04</text>
</g>
<!-- G0S&#45;&gt;G04 -->
<g id="edge34" class="edge"><title>G0S&#45;&gt;G04</title>
<path fill="none" stroke="#7f0054" stroke-width="4" d="M63.9699,-177.677C83.5901,-171.137 109.176,-162.608 130.412,-155.529"/>
<polygon fill="#7f0054" stroke="#7f0054" points="131.753,-158.772 140.133,-152.289 129.54,-152.131 131.753,-158.772"/>
</g>
<!-- G03 -->
<g id="node29" class="node"><title>G03</title>
<ellipse fill="none" stroke="black" stroke-width="2" cx="171" cy="-264" rx="32.0265" ry="32.5269"/>
<text text-anchor="middle" x="171" y="-260.4" font-family="Times Roman,serif" font-size="14.00">G03</text>
</g>
<!-- G0S&#45;&gt;G03 -->
<g id="edge38" class="edge"><title>G0S&#45;&gt;G03</title>
<path fill="none" stroke="#00557f" stroke-width="4" d="M61.5937,-203.747C82.4099,-215.211 110.802,-230.847 133.446,-243.318"/>
<polygon fill="#00557f" stroke="#00557f" points="131.995,-246.515 142.443,-248.273 135.372,-240.383 131.995,-246.515"/>
</g>
<!-- G07&#45;&gt;G08 -->
<g id="edge70" class="edge"><title>G07&#45;&gt;G08</title>
<path fill="none" stroke="#007f55" stroke-width="4" d="M478.66,-225.938C498.307,-231.682 523.734,-239.559 544.797,-246.407"/>
<polygon fill="#007f55" stroke="#007f55" points="543.843,-249.778 554.436,-249.571 546.027,-243.127 543.843,-249.778"/>
</g>
<!-- G07&#45;&gt;G08 -->
<g id="edge72" class="edge"><title>G07&#45;&gt;G08</title>
<path fill="none" stroke="black" stroke-width="4" d="M477.285,-229.97C496.737,-236.558 522.259,-244.591 543.577,-250.869"/>
<polygon fill="black" stroke="black" points="542.769,-254.279 553.348,-253.707 544.721,-247.556 542.769,-254.279"/>
</g>
<!-- G07&#45;&gt;G09 -->
<g id="edge74" class="edge"><title>G07&#45;&gt;G09</title>
<path fill="none" stroke="#7f5500" stroke-width="4" d="M478.823,-210.546C513.395,-202.193 570.102,-187.742 618,-172 639.948,-164.787 663.983,-155.507 683.512,-147.601"/>
<polygon fill="#7f5500" stroke="#7f5500" points="685.059,-150.75 692.993,-143.728 682.412,-144.27 685.059,-150.75"/>
</g>
<!-- G07&#45;&gt;G0T -->
<g id="edge76" class="edge"><title>G07&#45;&gt;G0T</title>
<path fill="none" stroke="black" stroke-width="4" d="M479.832,-218C554.203,-218 735.481,-218 818.371,-218"/>
<polygon fill="black" stroke="black" points="818.451,-221.5 828.451,-218 818.451,-214.5 818.451,-221.5"/>
</g>
<!-- G06&#45;&gt;G09 -->
<g id="edge42" class="edge"><title>G06&#45;&gt;G09</title>
<path fill="none" stroke="#54007f" stroke-width="4" d="M341.832,-80.676C416.478,-85.5655 598.824,-107.438 681.287,-121.224"/>
<polygon fill="#54007f" stroke="#54007f" points="680.855,-124.701 691.304,-122.946 682.042,-117.802 680.855,-124.701"/>
</g>
<!-- G06&#45;&gt;G09 -->
<g id="edge44" class="edge"><title>G06&#45;&gt;G09</title>
<path fill="none" stroke="#00557f" stroke-width="4" d="M341.486,-83.6424C415.703,-91.366 597.664,-113.292 680.585,-124.446"/>
<polygon fill="#00557f" stroke="#00557f" points="680.285,-127.937 690.665,-125.816 681.228,-121.001 680.285,-127.937"/>
</g>
<!-- G06&#45;&gt;G09 -->
<g id="edge46" class="edge"><title>G06&#45;&gt;G09</title>
<path fill="none" stroke="#007f00" stroke-width="4" d="M341.141,-86.5821C415.02,-97.1625 596.952,-119.207 680.185,-127.745"/>
<polygon fill="#007f00" stroke="#007f00" points="680.007,-131.244 690.307,-128.764 680.708,-124.28 680.007,-131.244"/>
</g>
<!-- G06&#45;&gt;G09 -->
<g id="edge48" class="edge"><title>G06&#45;&gt;G09</title>
<path fill="none" stroke="#547f00" stroke-width="4" d="M340.457,-89.4325C413.926,-102.908 596.872,-125.213 680.308,-131.106"/>
<polygon fill="#547f00" stroke="#547f00" points="680.243,-134.609 690.451,-131.77 680.701,-127.624 680.243,-134.609"/>
</g>
<!-- G06&#45;&gt;G0T -->
<g id="edge50" class="edge"><title>G06&#45;&gt;G0T</title>
<path fill="none" stroke="black" stroke-width="4" d="M340.829,-73.789C417.042,-58.2152 614.202,-28.0542 756,-96 793.341,-113.893 822.632,-151.944 840.682,-180.824"/>
<polygon fill="black" stroke="black" points="837.741,-182.724 845.919,-189.459 843.726,-179.094 837.741,-182.724"/>
</g>
<!-- G06&#45;&gt;G07 -->
<g id="edge40" class="edge"><title>G06&#45;&gt;G07</title>
<path fill="none" stroke="black" stroke-width="4" d="M332.098,-103.931C355.283,-126.948 391.123,-162.528 416.605,-187.826"/>
<polygon fill="black" stroke="black" points="414.264,-190.433 423.827,-194.994 419.196,-185.465 414.264,-190.433"/>
</g>
<!-- G04&#45;&gt;G09 -->
<g id="edge54" class="edge"><title>G04&#45;&gt;G09</title>
<path fill="none" stroke="#007f00" stroke-width="4" d="M203.469,-140.222C298.075,-136.894 573.521,-131.358 680.147,-130.579"/>
<polygon fill="#007f00" stroke="#007f00" points="680.246,-134.078 690.224,-130.517 680.203,-127.078 680.246,-134.078"/>
</g>
<!-- G04&#45;&gt;G09 -->
<g id="edge56" class="edge"><title>G04&#45;&gt;G09</title>
<path fill="none" stroke="#54007f" stroke-width="4" d="M203.877,-142.862C298.892,-142.883 573.832,-137.465 680.239,-133.551"/>
<polygon fill="#54007f" stroke="#54007f" points="680.437,-137.046 690.295,-133.165 680.168,-130.051 680.437,-137.046"/>
</g>
<!-- G04&#45;&gt;G0T -->
<g id="edge58" class="edge"><title>G04&#45;&gt;G0T</title>
<path fill="none" stroke="black" stroke-width="4" d="M203.355,-145.564C315.956,-157.966 690.743,-199.247 818.166,-213.282"/>
<polygon fill="black" stroke="black" points="817.992,-216.784 828.315,-214.4 818.758,-209.826 817.992,-216.784"/>
</g>
<!-- G05 -->
<g id="node37" class="node"><title>G05</title>
<ellipse fill="none" stroke="black" stroke-width="2" cx="309" cy="-264" rx="32.0265" ry="32.5269"/>
<text text-anchor="middle" x="309" y="-260.4" font-family="Times Roman,serif" font-size="14.00">G05</text>
</g>
<!-- G04&#45;&gt;G05 -->
<g id="edge52" class="edge"><title>G04&#45;&gt;G05</title>
<path fill="none" stroke="black" stroke-width="4" d="M195.354,-163.53C217.976,-183.529 251.818,-213.448 276.691,-235.437"/>
<polygon fill="black" stroke="black" points="274.615,-238.273 284.425,-242.275 279.251,-233.029 274.615,-238.273"/>
</g>
<!-- G03&#45;&gt;G08 -->
<g id="edge64" class="edge"><title>G03&#45;&gt;G08</title>
<path fill="none" stroke="#007f00" stroke-width="4" d="M201.128,-276.924C221.771,-285.056 250.015,-294.783 276,-299 304.955,-303.699 312.755,-301.273 342,-299 412.994,-293.483 494.611,-279.028 542.885,-269.622"/>
<polygon fill="#007f00" stroke="#007f00" points="543.82,-273.005 552.955,-267.638 542.467,-266.137 543.82,-273.005"/>
</g>
<!-- G03&#45;&gt;G09 -->
<g id="edge66" class="edge"><title>G03&#45;&gt;G09</title>
<path fill="none" stroke="#7f0054" stroke-width="4" d="M201.239,-252.228C246.764,-234.896 335.899,-202.464 414,-183 507.865,-159.608 620.421,-143.623 680.412,-136.042"/>
<polygon fill="#7f0054" stroke="#7f0054" points="681.144,-139.478 690.634,-134.767 680.278,-132.531 681.144,-139.478"/>
</g>
<!-- G03&#45;&gt;G0T -->
<g id="edge68" class="edge"><title>G03&#45;&gt;G0T</title>
<path fill="none" stroke="black" stroke-width="4" d="M196.197,-284.85C242.677,-321.121 346.38,-392 447,-392 447,-392 447,-392 585,-392 689.847,-392 787.365,-301.036 833.341,-250.648"/>
<polygon fill="black" stroke="black" points="836.194,-252.709 840.27,-242.93 830.985,-248.033 836.194,-252.709"/>
</g>
<!-- G03&#45;&gt;G05 -->
<g id="edge62" class="edge"><title>G03&#45;&gt;G05</title>
<path fill="none" stroke="black" stroke-width="4" d="M203.704,-264C222.301,-264 245.816,-264 265.904,-264"/>
<polygon fill="black" stroke="black" points="266.052,-267.5 276.052,-264 266.052,-260.5 266.052,-267.5"/>
</g>
<!-- G05&#45;&gt;G08 -->
<g id="edge80" class="edge"><title>G05&#45;&gt;G08</title>
<path fill="none" stroke="#7f5500" stroke-width="4" d="M341.786,-265.074C376.211,-266.039 431.917,-267.144 480,-266 500.474,-265.513 523.174,-264.492 542.215,-263.499"/>
<polygon fill="#7f5500" stroke="#7f5500" points="542.581,-266.984 552.38,-262.954 542.206,-259.994 542.581,-266.984"/>
</g>
<!-- G05&#45;&gt;G0T -->
<g id="edge82" class="edge"><title>G05&#45;&gt;G0T</title>
<path fill="none" stroke="black" stroke-width="4" d="M326.49,-291.044C344.797,-316.608 376.13,-353.314 414,-369 441.1,-380.225 451.001,-373.413 480,-369 607.021,-349.669 639.116,-336.349 756,-283 780.465,-271.834 806.164,-256.004 826.015,-242.762"/>
<polygon fill="black" stroke="black" points="828.098,-245.579 834.42,-237.077 824.176,-239.781 828.098,-245.579"/>
</g>
<!-- G05&#45;&gt;G07 -->
<g id="edge78" class="edge"><title>G05&#45;&gt;G07</title>
<path fill="none" stroke="black" stroke-width="4" d="M339.97,-253.677C359.59,-247.137 385.176,-238.608 406.412,-231.529"/>
<polygon fill="black" stroke="black" points="407.753,-234.772 416.133,-228.289 405.54,-228.131 407.753,-234.772"/>
</g>
</g>
</svg>
