<?xml version="1.0" encoding="UTF-8" standalone="no"?>
<!DOCTYPE svg PUBLIC "-//W3C//DTD SVG 1.1//EN"
 "http://www.w3.org/Graphics/SVG/1.1/DTD/svg11.dtd">
<!-- Generated by graphviz version 2.26.3 (20100126.1600)
 -->
<!-- Title: _anonymous_0 Pages: 1 -->
<svg width="376pt" height="58pt"
 viewBox="0.00 0.00 376.00 58.00" xmlns="http://www.w3.org/2000/svg" xmlns:xlink="http://www.w3.org/1999/xlink">
<g id="graph1" class="graph" transform="scale(1 1) rotate(0) translate(4 54)">
<title>_anonymous_0</title>
<polygon fill="white" stroke="white" points="-4,5 -4,-54 373,-54 373,5 -4,5"/>
<!-- 1 -->
<g id="node1" class="node"><title>1</title>
<ellipse fill="none" stroke="black" stroke-width="2" cx="129" cy="-18" rx="17.8879" ry="18.3848"/>
<text text-anchor="middle" x="129" y="-14.4" font-family="Times Roman,serif" font-size="14.00">1</text>
</g>
<!-- T -->
<g id="node3" class="node"><title>T</title>
<ellipse fill="none" stroke="black" stroke-width="2" cx="349" cy="-32" rx="17.8879" ry="18.3848"/>
<text text-anchor="middle" x="349" y="-28.4" font-family="Times Roman,serif" font-size="14.00">T</text>
</g>
<!-- 1&#45;&gt;T -->
<g id="edge2" class="edge"><title>1&#45;&gt;T</title>
<path fill="none" stroke="black" stroke-width="4" d="M146.919,-23.4061C165.121,-28.5952 194.224,-36.0645 220,-39 254.472,-42.9259 294.384,-39.5516 320.577,-36.2659"/>
<polygon fill="black" stroke="black" points="321.122,-39.7242 330.571,-34.9322 320.196,-32.7857 321.122,-39.7242"/>
</g>
<!-- 2 -->
<g id="node5" class="node"><title>2</title>
<ellipse fill="none" stroke="black" stroke-width="2" cx="239" cy="-18" rx="17.8879" ry="18.3848"/>
<text text-anchor="middle" x="239" y="-14.4" font-family="Times Roman,serif" font-size="14.00">2</text>
</g>
<!-- 1&#45;&gt;2 -->
<g id="edge4" class="edge"><title>1&#45;&gt;2</title>
<path fill="none" stroke="#007f7f" stroke-width="4" d="M145.231,-8.63983C163.125,-4.75523 192.157,-4.20932 213.182,-7.0021"/>
<polygon fill="#007f7f" stroke="#007f7f" points="212.611,-10.4552 223.06,-8.70353 213.799,-3.55682 212.611,-10.4552"/>
</g>
<!-- 1&#45;&gt;2 -->
<g id="edge6" class="edge"><title>1&#45;&gt;2</title>
<path fill="none" stroke="#7f7f00" stroke-width="4" d="M146.673,-12.3169C164.073,-10.262 190.911,-9.95016 211.175,-11.3814"/>
<polygon fill="#7f7f00" stroke="#7f7f00" points="211.091,-14.8885 221.37,-12.322 211.734,-7.91812 211.091,-14.8885"/>
</g>
<!-- 1&#45;&gt;2 -->
<g id="edge8" class="edge"><title>1&#45;&gt;2</title>
<path fill="none" stroke="#007f7f" stroke-width="4" d="M147.66,-16.261C164.806,-15.6843 190.481,-15.5957 210.247,-15.9952"/>
<polygon fill="#007f7f" stroke="#007f7f" points="210.16,-19.4941 220.248,-16.2579 210.344,-12.4965 210.16,-19.4941"/>
</g>
<!-- 1&#45;&gt;2 -->
<g id="edge10" class="edge"><title>1&#45;&gt;2</title>
<path fill="none" stroke="#7f7f00" stroke-width="4" d="M147.66,-20.3187C164.91,-21.0922 190.792,-21.2071 210.606,-20.6633"/>
<polygon fill="#7f7f00" stroke="#7f7f00" points="210.747,-24.1606 220.616,-20.3062 210.497,-17.165 210.747,-24.1606"/>
</g>
<!-- 1&#45;&gt;2 -->
<g id="edge12" class="edge"><title>1&#45;&gt;2</title>
<path fill="none" stroke="#7f007f" stroke-width="4" d="M146.673,-24.2514C164.073,-26.5118 190.911,-26.8548 211.175,-25.2804"/>
<polygon fill="#7f007f" stroke="#7f007f" points="211.775,-28.7376 221.37,-24.2457 211.068,-21.7733 211.775,-28.7376"/>
</g>
<!-- 1&#45;&gt;2 -->
<g id="edge14" class="edge"><title>1&#45;&gt;2</title>
<path fill="none" stroke="#7f007f" stroke-width="4" d="M144.76,-27.8012C162.649,-32.0221 192.094,-32.6305 213.313,-29.6263"/>
<polygon fill="#7f007f" stroke="#7f007f" points="214.068,-33.0464 223.269,-27.7943 212.801,-26.162 214.068,-33.0464"/>
</g>
<!-- 2&#45;&gt;T -->
<g id="edge16" class="edge"><title>2&#45;&gt;T</title>
<path fill="none" stroke="black" stroke-width="4" d="M257.66,-20.3749C274.91,-22.5704 300.792,-25.8645 320.606,-28.3862"/>
<polygon fill="black" stroke="black" points="320.254,-31.8695 330.616,-29.6602 321.138,-24.9255 320.254,-31.8695"/>
</g>
<!-- S -->
<g id="node12" class="node"><title>S</title>
<ellipse fill="none" stroke="black" stroke-width="2" cx="19" cy="-18" rx="17.8879" ry="18.3848"/>
<text text-anchor="middle" x="19" y="-14.4" font-family="Times Roman,serif" font-size="14.00">S</text>
</g>
<!-- S&#45;&gt;1 -->
<g id="edge22" class="edge"><title>S&#45;&gt;1</title>
<path fill="none" stroke="#7f007f" stroke-width="4" d="M35.2309,-8.63983C53.1246,-4.75523 82.1575,-4.20932 103.182,-7.0021"/>
<polygon fill="#7f007f" stroke="#7f007f" points="102.611,-10.4552 113.06,-8.70353 103.799,-3.55682 102.611,-10.4552"/>
</g>
<!-- S&#45;&gt;1 -->
<g id="edge24" class="edge"><title>S&#45;&gt;1</title>
<path fill="none" stroke="#7f7f00" stroke-width="4" d="M37.66,-20.3187C54.91,-21.0922 80.7924,-21.2071 100.606,-20.6633"/>
<polygon fill="#7f7f00" stroke="#7f7f00" points="100.747,-24.1606 110.616,-20.3062 100.497,-17.165 100.747,-24.1606"/>
</g>
<!-- S&#45;&gt;1 -->
<g id="edge26" class="edge"><title>S&#45;&gt;1</title>
<path fill="none" stroke="#007f7f" stroke-width="4" d="M36.6734,-24.2514C54.0734,-26.5118 80.9106,-26.8548 101.175,-25.2804"/>
<polygon fill="#007f7f" stroke="#007f7f" points="101.775,-28.7376 111.37,-24.2457 101.068,-21.7733 101.775,-28.7376"/>
</g>
<!-- S&#45;&gt;1 -->
<g id="edge28" class="edge"><title>S&#45;&gt;1</title>
<path fill="none" stroke="#7f007f" stroke-width="4" d="M34.7603,-27.8012C52.649,-32.0221 82.0935,-32.6305 103.313,-29.6263"/>
<polygon fill="#7f007f" stroke="#7f007f" points="104.068,-33.0464 113.269,-27.7943 102.801,-26.162 104.068,-33.0464"/>
</g>
<!-- S&#45;&gt;1 -->
<g id="edge18" class="edge"><title>S&#45;&gt;1</title>
<path fill="none" stroke="#7f7f00" stroke-width="4" d="M36.6734,-12.3169C54.0734,-10.262 80.9106,-9.95016 101.175,-11.3814"/>
<polygon fill="#7f7f00" stroke="#7f7f00" points="101.091,-14.8885 111.37,-12.322 101.734,-7.91812 101.091,-14.8885"/>
</g>
<!-- S&#45;&gt;1 -->
<g id="edge20" class="edge"><title>S&#45;&gt;1</title>
<path fill="none" stroke="#007f7f" stroke-width="4" d="M37.66,-16.261C54.8061,-15.6843 80.4809,-15.5957 100.247,-15.9952"/>
<polygon fill="#007f7f" stroke="#007f7f" points="100.16,-19.4941 110.248,-16.2579 100.344,-12.4965 100.16,-19.4941"/>
</g>
</g>
</svg>
