<?xml version="1.0" encoding="UTF-8" standalone="no"?>
<!DOCTYPE svg PUBLIC "-//W3C//DTD SVG 1.1//EN"
 "http://www.w3.org/Graphics/SVG/1.1/DTD/svg11.dtd">
<!-- Generated by graphviz version 2.26.3 (20100126.1600)
 -->
<!-- Title: _anonymous_0 Pages: 1 -->
<svg width="488pt" height="115pt"
 viewBox="0.00 0.00 488.00 115.00" xmlns="http://www.w3.org/2000/svg" xmlns:xlink="http://www.w3.org/1999/xlink">
<g id="graph1" class="graph" transform="scale(1 1) rotate(0) translate(4 111)">
<title>_anonymous_0</title>
<polygon fill="white" stroke="white" points="-4,5 -4,-111 485,-111 485,5 -4,5"/>
<!-- G1S -->
<g id="node1" class="node"><title>G1S</title>
<ellipse fill="none" stroke="black" stroke-width="2" cx="33" cy="-32" rx="32.0265" ry="32.5269"/>
<text text-anchor="middle" x="33" y="-28.4" font-family="Times Roman,serif" font-size="14.00">G1S</text>
</g>
<!-- G12 -->
<g id="node3" class="node"><title>G12</title>
<ellipse fill="none" stroke="black" stroke-width="2" cx="309" cy="-75" rx="32.0265" ry="32.5269"/>
<text text-anchor="middle" x="309" y="-71.4" font-family="Times Roman,serif" font-size="14.00">G12</text>
</g>
<!-- G1S&#45;&gt;G12 -->
<g id="edge2" class="edge"><title>G1S&#45;&gt;G12</title>
<path fill="none" stroke="#7f0000" stroke-width="4" d="M63.196,-44.5309C83.8692,-52.4924 112.121,-62.177 138,-67 181.026,-75.0186 231.138,-76.459 265.944,-76.2361"/>
<polygon fill="#7f0000" stroke="#7f0000" points="266.271,-79.7327 276.23,-76.1189 266.191,-72.7331 266.271,-79.7327"/>
</g>
<!-- G11 -->
<g id="node5" class="node"><title>G11</title>
<ellipse fill="none" stroke="black" stroke-width="2" cx="171" cy="-32" rx="32.0265" ry="32.5269"/>
<text text-anchor="middle" x="171" y="-28.4" font-family="Times Roman,serif" font-size="14.00">G11</text>
</g>
<!-- G1S&#45;&gt;G11 -->
<g id="edge4" class="edge"><title>G1S&#45;&gt;G11</title>
<path fill="none" stroke="black" stroke-width="4" d="M65.7041,-30.0534C84.437,-29.7077 108.16,-29.6574 128.344,-29.9026"/>
<polygon fill="black" stroke="black" points="128.479,-33.4049 138.531,-30.0577 128.585,-26.4058 128.479,-33.4049"/>
</g>
<!-- G1S&#45;&gt;G11 -->
<g id="edge6" class="edge"><title>G1S&#45;&gt;G11</title>
<path fill="none" stroke="#00007f" stroke-width="4" d="M65.7041,-34.5955C84.437,-35.0564 108.16,-35.1234 128.344,-34.7966"/>
<polygon fill="#00007f" stroke="#00007f" points="128.604,-38.2921 138.531,-34.5897 128.462,-31.2935 128.604,-38.2921"/>
</g>
<!-- G1T -->
<g id="node9" class="node"><title>G1T</title>
<ellipse fill="none" stroke="black" stroke-width="2" cx="447" cy="-53" rx="32.0265" ry="32.5269"/>
<text text-anchor="middle" x="447" y="-49.4" font-family="Times Roman,serif" font-size="14.00">G1T</text>
</g>
<!-- G12&#45;&gt;G1T -->
<g id="edge12" class="edge"><title>G12&#45;&gt;G1T</title>
<path fill="none" stroke="black" stroke-width="4" d="M341.355,-69.842C360.301,-66.8216 384.44,-62.9734 404.859,-59.7181"/>
<polygon fill="black" stroke="black" points="405.524,-63.1565 414.848,-58.1257 404.421,-56.2438 405.524,-63.1565"/>
</g>
<!-- G11&#45;&gt;G12 -->
<g id="edge8" class="edge"><title>G11&#45;&gt;G12</title>
<path fill="none" stroke="#007f00" stroke-width="4" d="M202.314,-41.7574C221.811,-47.8325 247.099,-55.7119 268.161,-62.2747"/>
<polygon fill="#007f00" stroke="#007f00" points="267.221,-65.6479 277.81,-65.2812 269.304,-58.9648 267.221,-65.6479"/>
</g>
<!-- G11&#45;&gt;G1T -->
<g id="edge10" class="edge"><title>G11&#45;&gt;G1T</title>
<path fill="none" stroke="black" stroke-width="4" d="M203.512,-32.7818C237.949,-33.7828 293.879,-35.9015 342,-40 362.538,-41.7493 385.247,-44.463 404.276,-46.9594"/>
<polygon fill="black" stroke="black" points="404.057,-50.4611 414.433,-48.3165 404.984,-43.5228 404.057,-50.4611"/>
</g>
</g>
</svg>
