<?xml version="1.0" encoding="UTF-8" standalone="no"?>
<!DOCTYPE svg PUBLIC "-//W3C//DTD SVG 1.1//EN"
 "http://www.w3.org/Graphics/SVG/1.1/DTD/svg11.dtd">
<!-- Generated by graphviz version 2.26.3 (20100126.1600)
 -->
<!-- Title: _anonymous_0 Pages: 1 -->
<svg width="1388pt" height="1027pt"
 viewBox="0.00 0.00 1388.00 1026.91" xmlns="http://www.w3.org/2000/svg" xmlns:xlink="http://www.w3.org/1999/xlink">
<g id="graph1" class="graph" transform="scale(1 1) rotate(0) translate(4 1022.91)">
<title>_anonymous_0</title>
<polygon fill="white" stroke="white" points="-4,5 -4,-1022.91 1385,-1022.91 1385,5 -4,5"/>
<!-- G0S -->
<g id="node1" class="node"><title>G0S</title>
<ellipse fill="none" stroke="black" stroke-width="2" cx="33" cy="-475.691" rx="32.0265" ry="32.5269"/>
<text text-anchor="middle" x="33" y="-472.091" font-family="Times Roman,serif" font-size="14.00">G0S</text>
</g>
<!-- G02 -->
<g id="node3" class="node"><title>G02</title>
<ellipse fill="none" stroke="black" stroke-width="2" cx="309" cy="-604.691" rx="32.0265" ry="32.5269"/>
<text text-anchor="middle" x="309" y="-601.091" font-family="Times Roman,serif" font-size="14.00">G02</text>
</g>
<!-- G0S&#45;&gt;G02 -->
<g id="edge2" class="edge"><title>G0S&#45;&gt;G02</title>
<path fill="none" stroke="#00377f" stroke-width="4" d="M63.0622,-488.274C113.646,-510.922 215.67,-558.56 271.09,-585.364"/>
<polygon fill="#00377f" stroke="#00377f" points="269.697,-588.579 280.221,-589.798 272.754,-582.282 269.697,-588.579"/>
</g>
<!-- G0S&#45;&gt;G02 -->
<g id="edge4" class="edge"><title>G0S&#45;&gt;G02</title>
<path fill="none" stroke="#00797f" stroke-width="4" d="M61.7558,-491.052C111.352,-515.579 213.059,-563.202 269.341,-588.335"/>
<polygon fill="#00797f" stroke="#00797f" points="268.075,-591.602 278.634,-592.462 270.916,-585.205 268.075,-591.602"/>
</g>
<!-- G011 -->
<g id="node6" class="node"><title>G011</title>
<ellipse fill="none" stroke="black" stroke-width="2" cx="603" cy="-598.691" rx="38.8909" ry="38.8909"/>
<text text-anchor="middle" x="603" y="-595.091" font-family="Times Roman,serif" font-size="14.00">G011</text>
</g>
<!-- G0S&#45;&gt;G011 -->
<g id="edge6" class="edge"><title>G0S&#45;&gt;G011</title>
<path fill="none" stroke="#007f00" stroke-width="4" d="M56.5005,-497.967C97.3506,-535.105 185.757,-608.654 276,-639.691 366.899,-670.953 398.173,-671.579 492,-650.691 515.778,-645.397 540.484,-634.441 560.535,-623.944"/>
<polygon fill="#007f00" stroke="#007f00" points="562.251,-626.995 569.4,-619.176 558.935,-620.831 562.251,-626.995"/>
</g>
<!-- G03 -->
<g id="node8" class="node"><title>G03</title>
<ellipse fill="none" stroke="black" stroke-width="2" cx="171" cy="-756.691" rx="32.0265" ry="32.5269"/>
<text text-anchor="middle" x="171" y="-753.091" font-family="Times Roman,serif" font-size="14.00">G03</text>
</g>
<!-- G0S&#45;&gt;G03 -->
<g id="edge8" class="edge"><title>G0S&#45;&gt;G03</title>
<path fill="none" stroke="#7f2100" stroke-width="4" d="M47.2487,-504.704C72.3634,-555.844 124.488,-661.98 152.401,-718.819"/>
<polygon fill="#7f2100" stroke="#7f2100" points="149.279,-720.402 156.829,-727.835 155.562,-717.316 149.279,-720.402"/>
</g>
<!-- G022 -->
<g id="node10" class="node"><title>G022</title>
<ellipse fill="none" stroke="black" stroke-width="2" cx="1203" cy="-574.691" rx="38.8909" ry="38.8909"/>
<text text-anchor="middle" x="1203" y="-571.091" font-family="Times Roman,serif" font-size="14.00">G022</text>
</g>
<!-- G0S&#45;&gt;G022 -->
<g id="edge10" class="edge"><title>G0S&#45;&gt;G022</title>
<path fill="none" stroke="#d2007f" stroke-width="4" d="M35.5015,-507.863C45.7382,-618.027 94.7633,-972.691 309,-972.691 309,-972.691 309,-972.691 453,-972.691 747.932,-972.691 866.967,-984.335 1092,-793.691 1145.05,-748.751 1175.02,-672.422 1190.12,-622.729"/>
<polygon fill="#d2007f" stroke="#d2007f" points="1193.56,-623.438 1193.03,-612.856 1186.85,-621.458 1193.56,-623.438"/>
</g>
<!-- G0S&#45;&gt;G022 -->
<g id="edge12" class="edge"><title>G0S&#45;&gt;G022</title>
<path fill="none" stroke="#16007f" stroke-width="4" d="M35.2589,-507.985C44.9501,-619.223 93.0174,-979.691 309,-979.691 309,-979.691 309,-979.691 453,-979.691 747.932,-979.691 866.967,-991.335 1092,-800.691 1146.88,-754.201 1177.06,-674.116 1191.63,-622.824"/>
<polygon fill="#16007f" stroke="#16007f" points="1195.07,-623.537 1194.34,-612.967 1188.32,-621.683 1195.07,-623.537"/>
</g>
<!-- G0S&#45;&gt;G022 -->
<g id="edge14" class="edge"><title>G0S&#45;&gt;G022</title>
<path fill="none" stroke="#d27f00" stroke-width="4" d="M35.0313,-507.999C44.184,-620.372 91.2716,-986.691 309,-986.691 309,-986.691 309,-986.691 453,-986.691 747.932,-986.691 866.967,-998.335 1092,-807.691 1148.56,-759.776 1178.89,-676.179 1192.93,-623.158"/>
<polygon fill="#d27f00" stroke="#d27f00" points="1196.36,-623.861 1195.44,-613.306 1189.58,-622.13 1196.36,-623.861"/>
</g>
<!-- G012 -->
<g id="node14" class="node"><title>G012</title>
<ellipse fill="none" stroke="black" stroke-width="2" cx="453" cy="-893.691" rx="38.8909" ry="38.8909"/>
<text text-anchor="middle" x="453" y="-890.091" font-family="Times Roman,serif" font-size="14.00">G012</text>
</g>
<!-- G0S&#45;&gt;G012 -->
<g id="edge16" class="edge"><title>G0S&#45;&gt;G012</title>
<path fill="none" stroke="#7fa600" stroke-width="4" d="M39.6078,-507.086C55.2785,-578.795 96.5006,-751.587 138,-792.691 210.77,-864.767 335.028,-885.437 403.718,-891.345"/>
<polygon fill="#7fa600" stroke="#7fa600" points="403.598,-894.846 413.842,-892.143 404.148,-887.868 403.598,-894.846"/>
</g>
<!-- G05 -->
<g id="node16" class="node"><title>G05</title>
<ellipse fill="none" stroke="black" stroke-width="2" cx="453" cy="-180.691" rx="32.0265" ry="32.5269"/>
<text text-anchor="middle" x="453" y="-177.091" font-family="Times Roman,serif" font-size="14.00">G05</text>
</g>
<!-- G0S&#45;&gt;G05 -->
<g id="edge18" class="edge"><title>G0S&#45;&gt;G05</title>
<path fill="none" stroke="#0b7f00" stroke-width="4" d="M35.7122,-443.441C42.3777,-387.098 64.7969,-271.513 138,-215.691 218.452,-154.341 345.612,-161.464 411.042,-171.493"/>
<polygon fill="#0b7f00" stroke="#0b7f00" points="410.564,-174.962 420.997,-173.118 411.691,-168.053 410.564,-174.962"/>
</g>
<!-- G0S&#45;&gt;G05 -->
<g id="edge20" class="edge"><title>G0S&#45;&gt;G05</title>
<path fill="none" stroke="#007f37" stroke-width="4" d="M36.21,-443.655C43.4622,-388.685 66.5215,-277.198 138,-222.691 218.244,-161.499 344.956,-168.427 410.534,-175.85"/>
<polygon fill="#007f37" stroke="#007f37" points="410.175,-179.332 420.518,-177.036 411,-172.381 410.175,-179.332"/>
</g>
<!-- G08 -->
<g id="node19" class="node"><title>G08</title>
<ellipse fill="none" stroke="black" stroke-width="2" cx="453" cy="-530.691" rx="32.0265" ry="32.5269"/>
<text text-anchor="middle" x="453" y="-527.091" font-family="Times Roman,serif" font-size="14.00">G08</text>
</g>
<!-- G0S&#45;&gt;G08 -->
<g id="edge22" class="edge"><title>G0S&#45;&gt;G08</title>
<path fill="none" stroke="#7f00a6" stroke-width="4" d="M65.5825,-477.263C133.796,-480.693 289.647,-489.3 342,-498.691 365.75,-502.951 391.694,-510.275 412.523,-516.842"/>
<polygon fill="#7f00a6" stroke="#7f00a6" points="411.714,-520.258 422.305,-519.988 413.857,-513.594 411.714,-520.258"/>
</g>
<!-- G01 -->
<g id="node21" class="node"><title>G01</title>
<ellipse fill="none" stroke="black" stroke-width="2" cx="309" cy="-352.691" rx="32.0265" ry="32.5269"/>
<text text-anchor="middle" x="309" y="-349.091" font-family="Times Roman,serif" font-size="14.00">G01</text>
</g>
<!-- G0S&#45;&gt;G01 -->
<g id="edge24" class="edge"><title>G0S&#45;&gt;G01</title>
<path fill="none" stroke="#7f6300" stroke-width="4" d="M54.9032,-451.97C74.9586,-432.926 106.266,-406.979 138,-391.691 179.234,-371.825 230.726,-360.831 266.374,-355.725"/>
<polygon fill="#7f6300" stroke="#7f6300" points="266.993,-359.174 276.443,-354.383 266.068,-352.235 266.993,-359.174"/>
</g>
<!-- G0S&#45;&gt;G01 -->
<g id="edge26" class="edge"><title>G0S&#45;&gt;G01</title>
<path fill="none" stroke="#00f37f" stroke-width="4" d="M58.1399,-454.657C78.2337,-437.242 107.925,-413.18 138,-398.691 179.484,-378.705 231.353,-367.697 267.023,-361.207"/>
<polygon fill="#00f37f" stroke="#00f37f" points="267.856,-364.614 277.087,-359.413 266.628,-357.722 267.856,-364.614"/>
</g>
<!-- G06 -->
<g id="node24" class="node"><title>G06</title>
<ellipse fill="none" stroke="black" stroke-width="2" cx="453" cy="-397.691" rx="32.0265" ry="32.5269"/>
<text text-anchor="middle" x="453" y="-394.091" font-family="Times Roman,serif" font-size="14.00">G06</text>
</g>
<!-- G0S&#45;&gt;G06 -->
<g id="edge28" class="edge"><title>G0S&#45;&gt;G06</title>
<path fill="none" stroke="#907f00" stroke-width="4" d="M63.9789,-465.717C84.7493,-459.309 112.809,-451.186 138,-445.691 234.564,-424.628 349.771,-409.585 410.565,-402.419"/>
<polygon fill="#907f00" stroke="#907f00" points="411.028,-405.889 420.556,-401.255 410.218,-398.936 411.028,-405.889"/>
</g>
<!-- G07 -->
<g id="node26" class="node"><title>G07</title>
<ellipse fill="none" stroke="black" stroke-width="2" cx="453" cy="-326.691" rx="32.0265" ry="32.5269"/>
<text text-anchor="middle" x="453" y="-323.091" font-family="Times Roman,serif" font-size="14.00">G07</text>
</g>
<!-- G0S&#45;&gt;G07 -->
<g id="edge30" class="edge"><title>G0S&#45;&gt;G07</title>
<path fill="none" stroke="#007fbc" stroke-width="4" d="M62.8222,-461.874C83.5688,-452.661 112.054,-440.799 138,-432.691 226.62,-404.996 255.099,-420.381 342,-387.691 368.292,-377.8 395.985,-362.59 417.134,-349.833"/>
<polygon fill="#007fbc" stroke="#007fbc" points="419.076,-352.748 425.773,-344.539 415.418,-346.779 419.076,-352.748"/>
</g>
<!-- G04 -->
<g id="node28" class="node"><title>G04</title>
<ellipse fill="none" stroke="black" stroke-width="2" cx="309" cy="-533.691" rx="32.0265" ry="32.5269"/>
<text text-anchor="middle" x="309" y="-530.091" font-family="Times Roman,serif" font-size="14.00">G04</text>
</g>
<!-- G0S&#45;&gt;G04 -->
<g id="edge32" class="edge"><title>G0S&#45;&gt;G04</title>
<path fill="none" stroke="#4d007f" stroke-width="4" d="M64.9303,-482.401C114.891,-492.9 211.556,-513.213 267.066,-524.878"/>
<polygon fill="#4d007f" stroke="#4d007f" points="266.425,-528.32 276.931,-526.952 267.865,-521.47 266.425,-528.32"/>
</g>
<!-- G015 -->
<g id="node30" class="node"><title>G015</title>
<ellipse fill="none" stroke="black" stroke-width="2" cx="603" cy="-96.6907" rx="38.8909" ry="38.8909"/>
<text text-anchor="middle" x="603" y="-93.0907" font-family="Times Roman,serif" font-size="14.00">G015</text>
</g>
<!-- G0S&#45;&gt;G015 -->
<g id="edge34" class="edge"><title>G0S&#45;&gt;G015</title>
<path fill="none" stroke="#7fe800" stroke-width="4" d="M35.2806,-443.425C41.269,-383.586 62.663,-255.106 138,-184.691 254.146,-76.1322 460.371,-81.4059 554.148,-90.4525"/>
<polygon fill="#7fe800" stroke="#7fe800" points="553.906,-93.9459 564.21,-91.48 554.617,-86.9821 553.906,-93.9459"/>
</g>
<!-- G018 -->
<g id="node32" class="node"><title>G018</title>
<ellipse fill="none" stroke="black" stroke-width="2" cx="603" cy="-447.691" rx="38.8909" ry="38.8909"/>
<text text-anchor="middle" x="603" y="-444.091" font-family="Times Roman,serif" font-size="14.00">G018</text>
</g>
<!-- G0S&#45;&gt;G018 -->
<g id="edge36" class="edge"><title>G0S&#45;&gt;G018</title>
<path fill="none" stroke="#00bc7f" stroke-width="4" d="M65.6929,-472.966C161.122,-466.846 439.729,-453.088 553.619,-448.781"/>
<polygon fill="#00bc7f" stroke="#00bc7f" points="553.929,-452.272 563.794,-448.406 553.671,-445.277 553.929,-452.272"/>
</g>
<!-- G0S&#45;&gt;G018 -->
<g id="edge38" class="edge"><title>G0S&#45;&gt;G018</title>
<path fill="none" stroke="#90007f" stroke-width="4" d="M65.6929,-475.577C161.122,-472.798 439.729,-459.209 553.619,-451.897"/>
<polygon fill="#90007f" stroke="#90007f" points="554.043,-455.377 563.794,-451.231 553.586,-448.392 554.043,-455.377"/>
</g>
<!-- G019 -->
<g id="node35" class="node"><title>G019</title>
<ellipse fill="none" stroke="black" stroke-width="2" cx="753" cy="-447.691" rx="38.8909" ry="38.8909"/>
<text text-anchor="middle" x="753" y="-444.091" font-family="Times Roman,serif" font-size="14.00">G019</text>
</g>
<!-- G0S&#45;&gt;G019 -->
<g id="edge40" class="edge"><title>G0S&#45;&gt;G019</title>
<path fill="none" stroke="#7f0063" stroke-width="4" d="M65.5242,-477.21C183.546,-482.616 585.303,-500.059 642,-489.691 664.469,-485.582 688.294,-477.156 708.086,-468.922"/>
<polygon fill="#7f0063" stroke="#7f0063" points="709.637,-472.065 717.455,-464.915 706.884,-465.629 709.637,-472.065"/>
</g>
<!-- G09 -->
<g id="node37" class="node"><title>G09</title>
<ellipse fill="none" stroke="black" stroke-width="2" cx="603" cy="-210.691" rx="32.0265" ry="32.5269"/>
<text text-anchor="middle" x="603" y="-207.091" font-family="Times Roman,serif" font-size="14.00">G09</text>
</g>
<!-- G0S&#45;&gt;G09 -->
<g id="edge42" class="edge"><title>G0S&#45;&gt;G09</title>
<path fill="none" stroke="black" stroke-width="4" d="M54.0751,-450.766C74.0599,-428.177 105.749,-394.96 138,-371.691 249.543,-291.211 282.2,-271.028 414,-231.691 462.58,-217.191 520.885,-212.531 559.768,-211.122"/>
<polygon fill="black" stroke="black" points="560.306,-214.608 570.195,-210.806 560.094,-207.611 560.306,-214.608"/>
</g>
<!-- G02&#45;&gt;G012 -->
<g id="edge204" class="edge"><title>G02&#45;&gt;G012</title>
<path fill="none" stroke="#00797f" stroke-width="4" d="M323.334,-633.458C348.521,-684.007 400.88,-789.088 430.786,-849.109"/>
<polygon fill="#00797f" stroke="#00797f" points="427.793,-850.95 435.386,-858.339 434.058,-847.828 427.793,-850.95"/>
</g>
<!-- G02&#45;&gt;G08 -->
<g id="edge206" class="edge"><title>G02&#45;&gt;G08</title>
<path fill="none" stroke="#7f6300" stroke-width="4" d="M338.141,-589.716C360.196,-578.382 390.688,-562.712 414.712,-550.366"/>
<polygon fill="#7f6300" stroke="#7f6300" points="416.608,-553.327 423.903,-545.643 413.409,-547.101 416.608,-553.327"/>
</g>
<!-- G02&#45;&gt;G07 -->
<g id="edge208" class="edge"><title>G02&#45;&gt;G07</title>
<path fill="none" stroke="#007f37" stroke-width="4" d="M332.143,-582.174C335.759,-577.926 339.214,-573.347 342,-568.691 391.789,-485.459 360.783,-443.773 414,-362.691 415.871,-359.84 418.015,-357.062 420.316,-354.394"/>
<polygon fill="#007f37" stroke="#007f37" points="423.216,-356.423 427.565,-346.762 418.141,-351.602 423.216,-356.423"/>
</g>
<!-- G02&#45;&gt;G09 -->
<g id="edge212" class="edge"><title>G02&#45;&gt;G09</title>
<path fill="none" stroke="black" stroke-width="4" d="M332.472,-582.362C336.052,-578.093 339.41,-573.459 342,-568.691 402.931,-456.542 329.557,-386.395 414,-290.691 438.681,-262.718 457.597,-274.115 492,-259.691 516.091,-249.59 542.888,-237.778 564.117,-228.281"/>
<polygon fill="black" stroke="black" points="565.757,-231.382 573.449,-224.096 562.893,-224.995 565.757,-231.382"/>
</g>
<!-- G0T -->
<g id="node39" class="node"><title>G0T</title>
<ellipse fill="none" stroke="black" stroke-width="2" cx="1347" cy="-522.691" rx="32.0265" ry="32.5269"/>
<text text-anchor="middle" x="1347" y="-519.091" font-family="Times Roman,serif" font-size="14.00">G0T</text>
</g>
<!-- G02&#45;&gt;G0T -->
<g id="edge202" class="edge"><title>G02&#45;&gt;G0T</title>
<path fill="none" stroke="black" stroke-width="4" d="M314.347,-636.529C327.922,-713.448 366.069,-906.124 414,-947.691 471.604,-997.646 676.752,-1000.69 753,-1000.69 753,-1000.69 753,-1000.69 1053,-1000.69 1108.7,-1000.69 1201.7,-981.111 1242,-936.691 1292,-881.575 1328.15,-658.368 1341.42,-564.55"/>
<polygon fill="black" stroke="black" points="1344.9,-564.948 1342.82,-554.56 1337.97,-563.979 1344.9,-564.948"/>
</g>
<!-- G010 -->
<g id="node75" class="node"><title>G010</title>
<ellipse fill="none" stroke="black" stroke-width="2" cx="453" cy="-608.691" rx="38.8909" ry="38.8909"/>
<text text-anchor="middle" x="453" y="-605.091" font-family="Times Roman,serif" font-size="14.00">G010</text>
</g>
<!-- G02&#45;&gt;G010 -->
<g id="edge210" class="edge"><title>G02&#45;&gt;G010</title>
<path fill="none" stroke="#00f37f" stroke-width="4" d="M341.676,-605.598C359.991,-606.107 383.202,-606.752 403.685,-607.321"/>
<polygon fill="#00f37f" stroke="#00f37f" points="403.704,-610.823 413.797,-607.602 403.898,-603.825 403.704,-610.823"/>
</g>
<!-- G011&#45;&gt;G022 -->
<g id="edge216" class="edge"><title>G011&#45;&gt;G022</title>
<path fill="none" stroke="#00797f" stroke-width="4" d="M641.672,-591.861C724.332,-584.213 924.352,-576.723 1092,-569.691 1112.42,-568.834 1134.95,-567.83 1154.35,-567.656"/>
<polygon fill="#00797f" stroke="#00797f" points="1154.48,-571.156 1164.47,-567.649 1154.47,-564.156 1154.48,-571.156"/>
</g>
<!-- G011&#45;&gt;G022 -->
<g id="edge218" class="edge"><title>G011&#45;&gt;G022</title>
<path fill="none" stroke="#7f2100" stroke-width="4" d="M641.986,-595.63C724.839,-591.194 924.564,-583.715 1092,-576.691 1112.26,-575.841 1134.59,-574.846 1153.88,-574.176"/>
<polygon fill="#7f2100" stroke="#7f2100" points="1154.08,-577.672 1163.96,-573.849 1153.85,-570.675 1154.08,-577.672"/>
</g>
<!-- G011&#45;&gt;G022 -->
<g id="edge220" class="edge"><title>G011&#45;&gt;G022</title>
<path fill="none" stroke="#00f37f" stroke-width="4" d="M642.302,-599.423C725.345,-598.176 924.776,-590.706 1092,-583.691 1112.34,-582.837 1134.77,-581.838 1154.12,-580.678"/>
<polygon fill="#00f37f" stroke="#00f37f" points="1154.46,-584.163 1164.22,-580.036 1154.02,-577.177 1154.46,-584.163"/>
</g>
<!-- G011&#45;&gt;G022 -->
<g id="edge222" class="edge"><title>G011&#45;&gt;G022</title>
<path fill="none" stroke="#00377f" stroke-width="4" d="M641.986,-603.226C724.839,-605.194 924.564,-597.715 1092,-590.691 1112.75,-589.82 1135.68,-588.798 1155.28,-587.087"/>
<polygon fill="#00377f" stroke="#00377f" points="1155.88,-590.545 1165.5,-586.095 1155.2,-583.578 1155.88,-590.545"/>
</g>
<!-- G011&#45;&gt;G019 -->
<g id="edge226" class="edge"><title>G011&#45;&gt;G019</title>
<path fill="none" stroke="#007f37" stroke-width="4" d="M630.512,-570.995C655.174,-546.169 691.473,-509.628 718.155,-482.768"/>
<polygon fill="#007f37" stroke="#007f37" points="720.844,-485.027 725.409,-475.466 715.878,-480.094 720.844,-485.027"/>
</g>
<!-- G011&#45;&gt;G0T -->
<g id="edge214" class="edge"><title>G011&#45;&gt;G0T</title>
<path fill="none" stroke="black" stroke-width="4" d="M642.003,-602.437C663.265,-604.332 690.056,-606.482 714,-607.691 831.201,-613.609 1132.38,-658.589 1242,-616.691 1273.55,-604.632 1301.61,-578.244 1320.76,-556.488"/>
<polygon fill="black" stroke="black" points="1323.57,-558.592 1327.41,-548.717 1318.25,-554.043 1323.57,-558.592"/>
</g>
<!-- G021 -->
<g id="node50" class="node"><title>G021</title>
<ellipse fill="none" stroke="black" stroke-width="2" cx="1053" cy="-347.691" rx="38.8909" ry="38.8909"/>
<text text-anchor="middle" x="1053" y="-344.091" font-family="Times Roman,serif" font-size="14.00">G021</text>
</g>
<!-- G011&#45;&gt;G021 -->
<g id="edge228" class="edge"><title>G011&#45;&gt;G021</title>
<path fill="none" stroke="#7f6300" stroke-width="4" d="M641.714,-593.554C729.355,-581.864 935.844,-553.956 942,-549.691 994.97,-512.988 1025.22,-442.523 1040.38,-395.299"/>
<polygon fill="#7f6300" stroke="#7f6300" points="1043.77,-396.183 1043.38,-385.595 1037.08,-394.111 1043.77,-396.183"/>
</g>
<!-- G014 -->
<g id="node56" class="node"><title>G014</title>
<ellipse fill="none" stroke="black" stroke-width="2" cx="753" cy="-739.691" rx="38.8909" ry="38.8909"/>
<text text-anchor="middle" x="753" y="-736.091" font-family="Times Roman,serif" font-size="14.00">G014</text>
</g>
<!-- G011&#45;&gt;G014 -->
<g id="edge224" class="edge"><title>G011&#45;&gt;G014</title>
<path fill="none" stroke="black" stroke-width="4" d="M631.567,-625.544C655.86,-648.379 690.867,-681.286 717.059,-705.907"/>
<polygon fill="black" stroke="black" points="714.856,-708.639 724.539,-712.938 719.65,-703.538 714.856,-708.639"/>
</g>
<!-- G03&#45;&gt;G012 -->
<g id="edge66" class="edge"><title>G03&#45;&gt;G012</title>
<path fill="none" stroke="#00f37f" stroke-width="4" d="M200.381,-770.964C249.824,-794.985 349.953,-843.629 408.205,-871.929"/>
<polygon fill="#00f37f" stroke="#00f37f" points="407.005,-875.237 417.529,-876.458 410.064,-868.94 407.005,-875.237"/>
</g>
<!-- G03&#45;&gt;G04 -->
<g id="edge68" class="edge"><title>G03&#45;&gt;G04</title>
<path fill="none" stroke="black" stroke-width="4" d="M184.721,-727.574C203.149,-689.694 238,-622.161 276,-569.691 277.156,-568.094 278.375,-566.491 279.634,-564.895"/>
<polygon fill="black" stroke="black" points="282.465,-566.965 286.181,-557.044 277.089,-562.482 282.465,-566.965"/>
</g>
<!-- G03&#45;&gt;G0T -->
<g id="edge64" class="edge"><title>G03&#45;&gt;G0T</title>
<path fill="none" stroke="black" stroke-width="4" d="M191.877,-781.732C230.699,-826.544 318.751,-920.19 414,-967.691 550.175,-1035.6 600.831,-1015.69 753,-1015.69 753,-1015.69 753,-1015.69 1053,-1015.69 1101.68,-1015.69 1186.92,-1020.98 1242,-963.691 1297.26,-906.215 1330.82,-663.465 1342.42,-564.724"/>
<polygon fill="black" stroke="black" points="1345.92,-564.856 1343.6,-554.52 1338.97,-564.052 1345.92,-564.856"/>
</g>
<!-- G03&#45;&gt;G014 -->
<g id="edge70" class="edge"><title>G03&#45;&gt;G014</title>
<path fill="none" stroke="#00797f" stroke-width="4" d="M203.538,-754.634C300.456,-750.354 587.665,-741.893 703.621,-739.809"/>
<polygon fill="#00797f" stroke="#00797f" points="704.031,-743.303 713.969,-739.633 703.911,-736.304 704.031,-743.303"/>
</g>
<!-- G03&#45;&gt;G014 -->
<g id="edge72" class="edge"><title>G03&#45;&gt;G014</title>
<path fill="none" stroke="#00377f" stroke-width="4" d="M203.538,-757.216C300.554,-756.315 588.243,-748.006 703.971,-742.883"/>
<polygon fill="#00377f" stroke="#00377f" points="704.139,-746.379 713.969,-742.428 703.821,-739.386 704.139,-746.379"/>
</g>
<!-- G022&#45;&gt;G0T -->
<g id="edge92" class="edge"><title>G022&#45;&gt;G0T</title>
<path fill="none" stroke="black" stroke-width="4" d="M1239.71,-561.434C1260.14,-554.057 1285.6,-544.861 1306.6,-537.28"/>
<polygon fill="black" stroke="black" points="1307.98,-540.502 1316.2,-533.813 1305.61,-533.918 1307.98,-540.502"/>
</g>
<!-- G012&#45;&gt;G022 -->
<g id="edge192" class="edge"><title>G012&#45;&gt;G022</title>
<path fill="none" stroke="#00797f" stroke-width="4" d="M491.925,-890.669C530.274,-890.649 590.438,-891.507 642,-884.691 693.189,-877.924 1051.19,-800.319 1092,-768.691 1140.58,-731.042 1170.91,-665.831 1187.35,-621.445"/>
<polygon fill="#00797f" stroke="#00797f" points="1190.64,-622.624 1190.74,-612.03 1184.06,-620.249 1190.64,-622.624"/>
</g>
<!-- G012&#45;&gt;G022 -->
<g id="edge194" class="edge"><title>G012&#45;&gt;G022</title>
<path fill="none" stroke="#00f37f" stroke-width="4" d="M492.289,-896.023C530.653,-897.655 590.601,-898.485 642,-891.691 693.189,-884.924 1051.19,-807.319 1092,-775.691 1142.35,-736.677 1173.09,-668.066 1189.08,-622"/>
<polygon fill="#00f37f" stroke="#00f37f" points="1192.49,-622.838 1192.37,-612.244 1185.86,-620.604 1192.49,-622.838"/>
</g>
<!-- G012&#45;&gt;G022 -->
<g id="edge196" class="edge"><title>G012&#45;&gt;G022</title>
<path fill="none" stroke="#00377f" stroke-width="4" d="M491.563,-901.315C529.894,-904.644 590.275,-905.528 642,-898.691 693.189,-891.924 1051.19,-814.319 1092,-782.691 1144.07,-742.342 1175.17,-670.334 1190.67,-622.467"/>
<polygon fill="#00377f" stroke="#00377f" points="1194.1,-623.229 1193.75,-612.64 1187.42,-621.139 1194.1,-623.229"/>
</g>
<!-- G012&#45;&gt;G0T -->
<g id="edge190" class="edge"><title>G012&#45;&gt;G0T</title>
<path fill="none" stroke="black" stroke-width="4" d="M490.932,-902.92C590.601,-925.704 867.661,-979.55 1092,-933.691 1163.01,-919.174 1193.63,-923.669 1242,-869.691 1283.04,-823.897 1322.6,-645.86 1339.03,-564.128"/>
<polygon fill="black" stroke="black" points="1342.49,-564.679 1341.01,-554.188 1335.63,-563.311 1342.49,-564.679"/>
</g>
<!-- G012&#45;&gt;G021 -->
<g id="edge200" class="edge"><title>G012&#45;&gt;G021</title>
<path fill="none" stroke="#7f6300" stroke-width="4" d="M460.405,-855.399C476.612,-775.685 517.513,-596.042 564,-556.691 573.781,-548.411 779.647,-525.1 792,-521.691 861.375,-502.544 882.21,-500.748 942,-460.691 972.584,-440.201 1001.53,-410.241 1022.2,-386.318"/>
<polygon fill="#7f6300" stroke="#7f6300" points="1025.07,-388.345 1028.88,-378.459 1019.73,-383.811 1025.07,-388.345"/>
</g>
<!-- G013 -->
<g id="node72" class="node"><title>G013</title>
<ellipse fill="none" stroke="black" stroke-width="2" cx="603" cy="-836.691" rx="38.8909" ry="38.8909"/>
<text text-anchor="middle" x="603" y="-833.091" font-family="Times Roman,serif" font-size="14.00">G013</text>
</g>
<!-- G012&#45;&gt;G013 -->
<g id="edge198" class="edge"><title>G012&#45;&gt;G013</title>
<path fill="none" stroke="black" stroke-width="4" d="M489.694,-879.747C509.927,-872.059 535.243,-862.438 556.811,-854.243"/>
<polygon fill="black" stroke="black" points="558.32,-857.413 566.425,-850.589 555.834,-850.87 558.32,-857.413"/>
</g>
<!-- G05&#45;&gt;G011 -->
<g id="edge250" class="edge"><title>G05&#45;&gt;G011</title>
<path fill="none" stroke="#7f6300" stroke-width="4" d="M463.908,-211.089C489.875,-283.448 555.485,-466.283 586.4,-552.433"/>
<polygon fill="#7f6300" stroke="#7f6300" points="583.144,-553.721 589.816,-561.951 589.732,-551.356 583.144,-553.721"/>
</g>
<!-- G05&#45;&gt;G018 -->
<g id="edge262" class="edge"><title>G05&#45;&gt;G018</title>
<path fill="none" stroke="#4d007f" stroke-width="4" d="M468.769,-208.76C494.99,-255.433 547.729,-349.308 578.722,-404.476"/>
<polygon fill="#4d007f" stroke="#4d007f" points="575.738,-406.311 583.688,-413.315 581.841,-402.882 575.738,-406.311"/>
</g>
<!-- G05&#45;&gt;G09 -->
<g id="edge264" class="edge"><title>G05&#45;&gt;G09</title>
<path fill="none" stroke="#007f37" stroke-width="4" d="M485.179,-185.241C507.474,-189.272 537.363,-195.199 561.457,-200.344"/>
<polygon fill="#007f37" stroke="#007f37" points="560.875,-203.799 571.389,-202.494 562.356,-196.958 560.875,-203.799"/>
</g>
<!-- G05&#45;&gt;G09 -->
<g id="edge266" class="edge"><title>G05&#45;&gt;G09</title>
<path fill="none" stroke="black" stroke-width="4" d="M484.445,-189.475C506.545,-194.476 536.366,-200.52 560.57,-204.938"/>
<polygon fill="black" stroke="black" points="560.101,-208.409 570.56,-206.724 561.333,-201.518 560.101,-208.409"/>
</g>
<!-- G05&#45;&gt;G0T -->
<g id="edge254" class="edge"><title>G05&#45;&gt;G0T</title>
<path fill="none" stroke="black" stroke-width="4" d="M466.354,-151.517C483.573,-117.764 516.994,-63.7517 564,-39.6907 601.42,-20.5365 710.962,-31.6907 753,-31.6907 753,-31.6907 753,-31.6907 1053,-31.6907 1095.1,-31.6907 1210.12,-17.1973 1242,-44.6907 1308.08,-101.679 1335.72,-374.959 1344.06,-480.744"/>
<polygon fill="black" stroke="black" points="1340.57,-481.038 1344.83,-490.74 1347.55,-480.501 1340.57,-481.038"/>
</g>
<!-- G016 -->
<g id="node41" class="node"><title>G016</title>
<ellipse fill="none" stroke="black" stroke-width="2" cx="753" cy="-197.691" rx="38.8909" ry="38.8909"/>
<text text-anchor="middle" x="753" y="-194.091" font-family="Times Roman,serif" font-size="14.00">G016</text>
</g>
<!-- G05&#45;&gt;G016 -->
<g id="edge256" class="edge"><title>G05&#45;&gt;G016</title>
<path fill="none" stroke="#00797f" stroke-width="4" d="M484.239,-170.874C521.829,-161.838 586.781,-151.191 642,-159.691 664.311,-163.125 688.289,-170.227 708.229,-177.392"/>
<polygon fill="#00797f" stroke="#00797f" points="707.076,-180.697 717.669,-180.898 709.513,-174.135 707.076,-180.697"/>
</g>
<!-- G05&#45;&gt;G016 -->
<g id="edge258" class="edge"><title>G05&#45;&gt;G016</title>
<path fill="none" stroke="#00377f" stroke-width="4" d="M485.244,-175.655C522.978,-168.651 587.27,-158.267 642,-166.691 663.526,-170.004 686.604,-176.732 706.11,-183.114"/>
<polygon fill="#00377f" stroke="#00377f" points="705.073,-186.457 715.666,-186.3 707.287,-179.816 705.073,-186.457"/>
</g>
<!-- G05&#45;&gt;G014 -->
<g id="edge260" class="edge"><title>G05&#45;&gt;G014</title>
<path fill="none" stroke="#00f37f" stroke-width="4" d="M464.896,-210.68C473.278,-232.596 484.33,-263.17 492,-290.691 534.636,-443.673 468.448,-513.839 564,-640.691 582.634,-665.429 657.568,-700.09 707.299,-721.156"/>
<polygon fill="#00f37f" stroke="#00f37f" points="706.004,-724.408 716.579,-725.053 708.714,-717.954 706.004,-724.408"/>
</g>
<!-- G017 -->
<g id="node59" class="node"><title>G017</title>
<ellipse fill="none" stroke="black" stroke-width="2" cx="903" cy="-283.691" rx="38.8909" ry="38.8909"/>
<text text-anchor="middle" x="903" y="-280.091" font-family="Times Roman,serif" font-size="14.00">G017</text>
</g>
<!-- G05&#45;&gt;G017 -->
<g id="edge252" class="edge"><title>G05&#45;&gt;G017</title>
<path fill="none" stroke="#7f2100" stroke-width="4" d="M485.529,-178.839C507.647,-177.676 537.579,-176.285 564,-175.691 598.658,-174.911 609.596,-163.371 642,-175.691 682.02,-190.906 675.721,-220.511 714,-239.691 745.639,-255.543 757.501,-247.805 792,-255.691 812.789,-260.442 835.65,-266.13 855.195,-271.133"/>
<polygon fill="#7f2100" stroke="#7f2100" points="854.528,-274.576 865.085,-273.679 856.273,-267.797 854.528,-274.576"/>
</g>
<!-- G08&#45;&gt;G022 -->
<g id="edge272" class="edge"><title>G08&#45;&gt;G022</title>
<path fill="none" stroke="#7f2100" stroke-width="4" d="M481.191,-547.36C485.076,-551.201 488.818,-555.397 492,-559.691 535.79,-618.782 511.075,-657.619 564,-708.691 616.411,-759.267 642.724,-759.703 714,-774.691 883.732,-810.381 945.893,-771.153 1092,-677.691 1120.83,-659.251 1148.19,-632.279 1168.54,-610.497"/>
<polygon fill="#7f2100" stroke="#7f2100" points="1171.22,-612.752 1175.43,-603.031 1166.08,-608.002 1171.22,-612.752"/>
</g>
<!-- G08&#45;&gt;G022 -->
<g id="edge274" class="edge"><title>G08&#45;&gt;G022</title>
<path fill="none" stroke="#0b7f00" stroke-width="4" d="M478.359,-551.489C483.237,-556.181 488.05,-561.36 492,-566.691 535.79,-625.782 511.075,-664.619 564,-715.691 616.411,-766.267 642.724,-766.703 714,-781.691 883.732,-817.381 945.893,-778.153 1092,-684.691 1122.39,-665.251 1151.16,-636.329 1171.79,-613.02"/>
<polygon fill="#0b7f00" stroke="#0b7f00" points="1174.54,-615.193 1178.46,-605.352 1169.26,-610.596 1174.54,-615.193"/>
</g>
<!-- G08&#45;&gt;G022 -->
<g id="edge276" class="edge"><title>G08&#45;&gt;G022</title>
<path fill="none" stroke="#4d007f" stroke-width="4" d="M474.7,-554.762C480.776,-560.6 487.062,-567.028 492,-573.691 535.79,-632.782 511.075,-671.619 564,-722.691 616.411,-773.267 642.724,-773.703 714,-788.691 883.732,-824.381 945.893,-785.153 1092,-691.691 1123.97,-671.243 1154.13,-640.304 1174.93,-615.3"/>
<polygon fill="#4d007f" stroke="#4d007f" points="1177.75,-617.379 1181.34,-607.411 1172.32,-612.963 1177.75,-617.379"/>
</g>
<!-- G08&#45;&gt;G018 -->
<g id="edge280" class="edge"><title>G08&#45;&gt;G018</title>
<path fill="none" stroke="#7f6300" stroke-width="4" d="M481.567,-514.884C503.673,-502.652 534.651,-485.51 559.786,-471.602"/>
<polygon fill="#7f6300" stroke="#7f6300" points="561.699,-474.544 568.754,-466.64 558.31,-468.419 561.699,-474.544"/>
</g>
<!-- G08&#45;&gt;G09 -->
<g id="edge282" class="edge"><title>G08&#45;&gt;G09</title>
<path fill="none" stroke="black" stroke-width="4" d="M466.709,-501.445C493.882,-443.476 554.565,-314.018 584.946,-249.205"/>
<polygon fill="black" stroke="black" points="588.302,-250.293 589.377,-239.753 581.963,-247.322 588.302,-250.293"/>
</g>
<!-- G08&#45;&gt;G0T -->
<g id="edge270" class="edge"><title>G08&#45;&gt;G0T</title>
<path fill="none" stroke="black" stroke-width="4" d="M478.916,-550.464C483.873,-555.298 488.576,-560.794 492,-566.691 563.462,-689.758 454.529,-787.759 564,-878.691 596.337,-905.551 710.962,-886.691 753,-886.691 753,-886.691 753,-886.691 1053,-886.691 1122.25,-886.691 1223.14,-818.964 1242,-797.691 1302.45,-729.513 1329.63,-622.91 1340.56,-564.475"/>
<polygon fill="black" stroke="black" points="1344.03,-564.951 1342.36,-554.49 1337.14,-563.712 1344.03,-564.951"/>
</g>
<!-- G020 -->
<g id="node45" class="node"><title>G020</title>
<ellipse fill="none" stroke="black" stroke-width="2" cx="903" cy="-672.691" rx="38.8909" ry="38.8909"/>
<text text-anchor="middle" x="903" y="-669.091" font-family="Times Roman,serif" font-size="14.00">G020</text>
</g>
<!-- G08&#45;&gt;G020 -->
<g id="edge278" class="edge"><title>G08&#45;&gt;G020</title>
<path fill="none" stroke="#00f37f" stroke-width="4" d="M477.7,-552.02C482.626,-556.673 487.625,-561.703 492,-566.691 528.59,-608.407 514.883,-642.872 564,-668.691 588.932,-681.796 766.118,-677.539 853.926,-674.557"/>
<polygon fill="#00f37f" stroke="#00f37f" points="854.048,-678.055 863.92,-674.21 853.805,-671.06 854.048,-678.055"/>
</g>
<!-- G08&#45;&gt;G021 -->
<g id="edge284" class="edge"><title>G08&#45;&gt;G021</title>
<path fill="none" stroke="#00797f" stroke-width="4" d="M485.81,-531.474C547.556,-533.842 684.486,-536.618 792,-500.691 877.194,-472.222 964.443,-412.679 1013.38,-376.828"/>
<polygon fill="#00797f" stroke="#00797f" points="1015.51,-379.607 1021.48,-370.854 1011.35,-373.973 1015.51,-379.607"/>
</g>
<!-- G08&#45;&gt;G021 -->
<g id="edge286" class="edge"><title>G08&#45;&gt;G021</title>
<path fill="none" stroke="#00377f" stroke-width="4" d="M485.329,-535.479C546.842,-540.827 684.206,-543.711 792,-507.691 878.614,-478.748 967.352,-417.685 1015.79,-379.895"/>
<polygon fill="#00377f" stroke="#00377f" points="1018.11,-382.526 1023.79,-373.581 1013.77,-377.033 1018.11,-382.526"/>
</g>
<!-- G08&#45;&gt;G017 -->
<g id="edge268" class="edge"><title>G08&#45;&gt;G017</title>
<path fill="none" stroke="#007f37" stroke-width="4" d="M485.598,-528.454C565.6,-522.724 766.959,-506.766 792,-489.691 846.481,-452.541 876.499,-379.684 891.173,-331.336"/>
<polygon fill="#007f37" stroke="#007f37" points="894.54,-332.292 893.99,-321.712 887.822,-330.326 894.54,-332.292"/>
</g>
<!-- G01&#45;&gt;G06 -->
<g id="edge184" class="edge"><title>G01&#45;&gt;G06</title>
<path fill="none" stroke="#007f37" stroke-width="4" d="M340.246,-362.455C361.286,-369.03 389.249,-377.769 412.064,-384.898"/>
<polygon fill="#007f37" stroke="#007f37" points="411.226,-388.303 421.815,-387.945 413.314,-381.622 411.226,-388.303"/>
</g>
<!-- G01&#45;&gt;G07 -->
<g id="edge186" class="edge"><title>G01&#45;&gt;G07</title>
<path fill="none" stroke="#7f6300" stroke-width="4" d="M341.316,-346.856C361.882,-343.142 388.73,-338.295 410.948,-334.283"/>
<polygon fill="#7f6300" stroke="#7f6300" points="411.572,-337.727 420.791,-332.506 410.329,-330.839 411.572,-337.727"/>
</g>
<!-- G01&#45;&gt;G09 -->
<g id="edge188" class="edge"><title>G01&#45;&gt;G09</title>
<path fill="none" stroke="black" stroke-width="4" d="M328.013,-326.558C347.011,-302.456 378.448,-267.631 414,-248.691 426.808,-241.867 509.011,-226.848 560.701,-217.87"/>
<polygon fill="black" stroke="black" points="561.345,-221.31 570.603,-216.159 560.153,-214.412 561.345,-221.31"/>
</g>
<!-- G01&#45;&gt;G0T -->
<g id="edge182" class="edge"><title>G01&#45;&gt;G0T</title>
<path fill="none" stroke="black" stroke-width="4" d="M315.147,-321.245C326.536,-270.323 355.297,-169.133 414,-105.691 477.058,-37.5415 510.153,-16.6907 603,-16.6907 603,-16.6907 603,-16.6907 1053,-16.6907 1137.14,-16.6907 1178.19,27.1531 1242,-27.6907 1310.67,-86.7077 1336.83,-371.628 1344.42,-480.383"/>
<polygon fill="black" stroke="black" points="1340.94,-480.907 1345.11,-490.647 1347.93,-480.433 1340.94,-480.907"/>
</g>
<!-- G06&#45;&gt;G018 -->
<g id="edge238" class="edge"><title>G06&#45;&gt;G018</title>
<path fill="none" stroke="#00f37f" stroke-width="4" d="M484.08,-408.051C504.879,-414.984 532.635,-424.236 556.101,-432.058"/>
<polygon fill="#00f37f" stroke="#00f37f" points="555.269,-435.47 565.863,-435.312 557.483,-428.829 555.269,-435.47"/>
</g>
<!-- G06&#45;&gt;G019 -->
<g id="edge240" class="edge"><title>G06&#45;&gt;G019</title>
<path fill="none" stroke="#00377f" stroke-width="4" d="M485.484,-393.8C523.444,-391.634 587.948,-391.62 642,-402.691 664.827,-407.366 689.148,-416.107 709.188,-424.668"/>
<polygon fill="#00377f" stroke="#00377f" points="707.801,-427.881 718.364,-428.704 710.62,-421.474 707.801,-427.881"/>
</g>
<!-- G06&#45;&gt;G019 -->
<g id="edge242" class="edge"><title>G06&#45;&gt;G019</title>
<path fill="none" stroke="#00797f" stroke-width="4" d="M485.484,-398.822C523.444,-398.634 587.948,-398.62 642,-409.691 664.03,-414.203 687.451,-422.501 707.073,-430.228"/>
<polygon fill="#00797f" stroke="#00797f" points="705.793,-433.485 716.378,-433.956 708.397,-426.988 705.793,-433.485"/>
</g>
<!-- G06&#45;&gt;G09 -->
<g id="edge244" class="edge"><title>G06&#45;&gt;G09</title>
<path fill="none" stroke="black" stroke-width="4" d="M477.626,-376.296C482.558,-371.647 487.577,-366.636 492,-361.691 525.206,-324.558 558.397,-277.831 579.712,-246.267"/>
<polygon fill="black" stroke="black" points="582.736,-248.041 585.4,-237.787 576.923,-244.142 582.736,-248.041"/>
</g>
<!-- G06&#45;&gt;G0T -->
<g id="edge232" class="edge"><title>G06&#45;&gt;G0T</title>
<path fill="none" stroke="black" stroke-width="4" d="M478.9,-377.908C483.858,-373.074 488.565,-367.581 492,-361.691 562.591,-240.621 456.035,-144.047 564,-54.6907 596.385,-27.8879 710.962,-46.6907 753,-46.6907 753,-46.6907 753,-46.6907 1053,-46.6907 1095.17,-46.6907 1210.24,-35.9543 1242,-63.6907 1304.88,-118.597 1334.26,-378.039 1343.57,-480.714"/>
<polygon fill="black" stroke="black" points="1340.09,-481.072 1344.46,-490.724 1347.06,-480.453 1340.09,-481.072"/>
</g>
<!-- G06&#45;&gt;G020 -->
<g id="edge234" class="edge"><title>G06&#45;&gt;G020</title>
<path fill="none" stroke="#7f2100" stroke-width="4" d="M464.985,-427.591C491.593,-493.648 554.041,-646.747 564,-653.691 587.169,-669.844 765.661,-672.46 853.916,-672.754"/>
<polygon fill="#7f2100" stroke="#7f2100" points="853.951,-676.254 863.96,-672.779 853.968,-669.254 853.951,-676.254"/>
</g>
<!-- G06&#45;&gt;G021 -->
<g id="edge246" class="edge"><title>G06&#45;&gt;G021</title>
<path fill="none" stroke="#4d007f" stroke-width="4" d="M485.685,-393.873C585.147,-384.118 884.589,-359.093 1003.52,-350.506"/>
<polygon fill="#4d007f" stroke="#4d007f" points="1004.06,-353.976 1013.79,-349.774 1003.57,-346.994 1004.06,-353.976"/>
</g>
<!-- G06&#45;&gt;G021 -->
<g id="edge248" class="edge"><title>G06&#45;&gt;G021</title>
<path fill="none" stroke="#0b7f00" stroke-width="4" d="M485.685,-396.426C585.265,-390.085 885.304,-365.175 1003.95,-353.516"/>
<polygon fill="#0b7f00" stroke="#0b7f00" points="1004.58,-356.971 1014.19,-352.498 1003.89,-350.005 1004.58,-356.971"/>
</g>
<!-- G06&#45;&gt;G014 -->
<g id="edge236" class="edge"><title>G06&#45;&gt;G014</title>
<path fill="none" stroke="#007f37" stroke-width="4" d="M465.456,-427.708C473.285,-446.805 483.478,-472.105 492,-494.691 525.941,-584.649 491.878,-635.107 564,-698.691 584.456,-716.725 655.054,-728.381 703.921,-734.492"/>
<polygon fill="#007f37" stroke="#007f37" points="703.644,-737.984 713.993,-735.712 704.486,-731.034 703.644,-737.984"/>
</g>
<!-- G06&#45;&gt;G017 -->
<g id="edge230" class="edge"><title>G06&#45;&gt;G017</title>
<path fill="none" stroke="#7f6300" stroke-width="4" d="M482.53,-383.219C504.547,-372.918 535.592,-359.411 564,-350.691 664.985,-319.692 787.428,-299.639 854.037,-290.14"/>
<polygon fill="#7f6300" stroke="#7f6300" points="854.821,-293.564 864.236,-288.706 853.846,-286.632 854.821,-293.564"/>
</g>
<!-- G07&#45;&gt;G022 -->
<g id="edge48" class="edge"><title>G07&#45;&gt;G022</title>
<path fill="none" stroke="#0b7f00" stroke-width="4" d="M485.573,-330.443C523.344,-336.605 587.409,-348.937 642,-361.691 848.269,-409.88 897.62,-434.516 1092,-518.691 1114.6,-528.478 1139.37,-540.204 1159.76,-550.41"/>
<polygon fill="#0b7f00" stroke="#0b7f00" points="1158.3,-553.591 1168.8,-554.98 1161.46,-547.344 1158.3,-553.591"/>
</g>
<!-- G07&#45;&gt;G022 -->
<g id="edge50" class="edge"><title>G07&#45;&gt;G022</title>
<path fill="none" stroke="#4d007f" stroke-width="4" d="M484.564,-335.265C522.196,-343.384 586.92,-355.823 642,-368.691 848.269,-416.88 897.62,-441.516 1092,-525.691 1113.82,-535.141 1137.66,-546.399 1157.64,-555.774"/>
<polygon fill="#4d007f" stroke="#4d007f" points="1156.27,-559 1166.81,-560.072 1159.24,-552.661 1156.27,-559"/>
</g>
<!-- G07&#45;&gt;G018 -->
<g id="edge54" class="edge"><title>G07&#45;&gt;G018</title>
<path fill="none" stroke="#7f6300" stroke-width="4" d="M478.445,-347.217C502.003,-366.22 537.368,-394.748 564.402,-416.555"/>
<polygon fill="#7f6300" stroke="#7f6300" points="562.522,-419.535 572.503,-423.089 566.917,-414.087 562.522,-419.535"/>
</g>
<!-- G07&#45;&gt;G019 -->
<g id="edge56" class="edge"><title>G07&#45;&gt;G019</title>
<path fill="none" stroke="#00f37f" stroke-width="4" d="M484.094,-337.1C521.816,-349.944 587.169,-372.891 642,-395.691 664.222,-404.931 688.472,-416.155 708.622,-425.807"/>
<polygon fill="#00f37f" stroke="#00f37f" points="707.334,-429.072 717.862,-430.261 710.373,-422.766 707.334,-429.072"/>
</g>
<!-- G07&#45;&gt;G09 -->
<g id="edge58" class="edge"><title>G07&#45;&gt;G09</title>
<path fill="none" stroke="black" stroke-width="4" d="M478.786,-306.75C503.685,-287.494 541.54,-258.22 568.915,-237.05"/>
<polygon fill="black" stroke="black" points="571.279,-239.646 577.049,-230.76 566.997,-234.109 571.279,-239.646"/>
</g>
<!-- G07&#45;&gt;G0T -->
<g id="edge44" class="edge"><title>G07&#45;&gt;G0T</title>
<path fill="none" stroke="black" stroke-width="4" d="M479.562,-307.764C501.297,-293.129 533.347,-273.44 564,-261.691 597.044,-249.025 611.865,-264.244 642,-245.691 685.916,-218.652 670.375,-182.198 714,-154.691 786.87,-108.743 816.853,-111.691 903,-111.691 903,-111.691 903,-111.691 1053,-111.691 1233.42,-111.691 1313.7,-376.923 1338.29,-481.251"/>
<polygon fill="black" stroke="black" points="1334.91,-482.163 1340.57,-491.123 1341.73,-480.592 1334.91,-482.163"/>
</g>
<!-- G07&#45;&gt;G016 -->
<g id="edge46" class="edge"><title>G07&#45;&gt;G016</title>
<path fill="none" stroke="#007f37" stroke-width="4" d="M484.364,-317.08C522.351,-305.061 587.966,-283.076 642,-258.691 665.22,-248.211 690.158,-234.724 710.502,-223.097"/>
<polygon fill="#007f37" stroke="#007f37" points="712.298,-226.101 719.211,-218.073 708.8,-220.038 712.298,-226.101"/>
</g>
<!-- G07&#45;&gt;G020 -->
<g id="edge52" class="edge"><title>G07&#45;&gt;G020</title>
<path fill="none" stroke="#00797f" stroke-width="4" d="M478.797,-346.534C483.762,-351.364 488.498,-356.84 492,-362.691 557.555,-472.201 466.855,-557.908 564,-640.691 574.872,-649.955 762.605,-663.473 853.912,-669.54"/>
<polygon fill="#00797f" stroke="#00797f" points="853.814,-673.041 864.023,-670.207 854.275,-666.056 853.814,-673.041"/>
</g>
<!-- G07&#45;&gt;G021 -->
<g id="edge60" class="edge"><title>G07&#45;&gt;G021</title>
<path fill="none" stroke="#00377f" stroke-width="4" d="M485.741,-324.574C546.251,-322.803 679.669,-322.324 792,-326.691 866.036,-329.569 951.694,-336.087 1004.1,-341.215"/>
<polygon fill="#00377f" stroke="#00377f" points="1003.83,-344.705 1014.13,-342.22 1004.53,-337.74 1003.83,-344.705"/>
</g>
<!-- G07&#45;&gt;G021 -->
<g id="edge62" class="edge"><title>G07&#45;&gt;G021</title>
<path fill="none" stroke="#7f2100" stroke-width="4" d="M485.741,-328.667C546.251,-329.803 679.669,-329.324 792,-333.691 865.823,-336.56 951.202,-343.05 1003.65,-346.375"/>
<polygon fill="#7f2100" stroke="#7f2100" points="1003.49,-349.872 1013.69,-346.996 1003.92,-342.885 1003.49,-349.872"/>
</g>
<!-- G04&#45;&gt;G08 -->
<g id="edge100" class="edge"><title>G04&#45;&gt;G08</title>
<path fill="none" stroke="#007f37" stroke-width="4" d="M341.676,-533.01C362.02,-532.586 388.407,-532.036 410.385,-531.579"/>
<polygon fill="#007f37" stroke="#007f37" points="410.529,-535.076 420.453,-531.369 410.383,-528.078 410.529,-535.076"/>
</g>
<!-- G04&#45;&gt;G015 -->
<g id="edge104" class="edge"><title>G04&#45;&gt;G015</title>
<path fill="none" stroke="#00797f" stroke-width="4" d="M316.221,-502.383C337.751,-411.719 400.826,-154.67 414,-141.691 450.873,-105.364 511.117,-95.3078 553.664,-93.7388"/>
<polygon fill="#00797f" stroke="#00797f" points="553.884,-97.2348 563.804,-93.5138 553.729,-90.2365 553.884,-97.2348"/>
</g>
<!-- G04&#45;&gt;G015 -->
<g id="edge106" class="edge"><title>G04&#45;&gt;G015</title>
<path fill="none" stroke="#00377f" stroke-width="4" d="M316.922,-502.611C339.088,-413.277 400.966,-161.532 414,-148.691 450.873,-112.364 511.117,-102.308 553.664,-99.2475"/>
<polygon fill="#00377f" stroke="#00377f" points="554.039,-102.731 563.804,-98.6224 553.608,-95.7444 554.039,-102.731"/>
</g>
<!-- G04&#45;&gt;G09 -->
<g id="edge108" class="edge"><title>G04&#45;&gt;G09</title>
<path fill="none" stroke="black" stroke-width="4" d="M317.191,-502.443C334.554,-438.521 376.539,-296.109 414,-263.691 440.903,-240.41 457.675,-255.047 492,-245.691 515.561,-239.268 541.616,-231.109 562.558,-224.284"/>
<polygon fill="black" stroke="black" points="563.684,-227.599 572.093,-221.154 561.5,-220.948 563.684,-227.599"/>
</g>
<!-- G04&#45;&gt;G0T -->
<g id="edge96" class="edge"><title>G04&#45;&gt;G0T</title>
<path fill="none" stroke="black" stroke-width="4" d="M332.712,-555.894C336.265,-560.177 339.552,-564.848 342,-569.691 416.8,-717.642 291.487,-823.999 414,-935.691 434.181,-954.089 875.692,-985.691 903,-985.691 903,-985.691 903,-985.691 1053,-985.691 1145.47,-985.691 1182.01,-969.067 1242,-898.691 1285.46,-847.7 1324.42,-651.198 1339.91,-564.36"/>
<polygon fill="black" stroke="black" points="1343.39,-564.787 1341.68,-554.331 1336.49,-563.57 1343.39,-564.787"/>
</g>
<!-- G04&#45;&gt;G017 -->
<g id="edge94" class="edge"><title>G04&#45;&gt;G017</title>
<path fill="none" stroke="#7f2100" stroke-width="4" d="M317.855,-502.785C335.595,-443.27 376.964,-316.429 414,-291.691 449.853,-267.742 736.657,-276.761 853.614,-281.508"/>
<polygon fill="#7f2100" stroke="#7f2100" points="853.593,-285.01 863.728,-281.925 853.881,-278.016 853.593,-285.01"/>
</g>
<!-- G04&#45;&gt;G013 -->
<g id="edge98" class="edge"><title>G04&#45;&gt;G013</title>
<path fill="none" stroke="#00f37f" stroke-width="4" d="M331.062,-557.656C334.726,-561.665 338.478,-565.789 342,-569.691 374.275,-605.445 380.816,-615.779 414,-650.691 465.886,-705.28 528.64,-766.057 567.183,-802.82"/>
<polygon fill="#00f37f" stroke="#00f37f" points="564.903,-805.482 574.558,-809.844 569.73,-800.413 564.903,-805.482"/>
</g>
<!-- G04&#45;&gt;G010 -->
<g id="edge102" class="edge"><title>G04&#45;&gt;G010</title>
<path fill="none" stroke="#7f6300" stroke-width="4" d="M337.794,-548.688C358.228,-559.33 386.028,-573.809 409.199,-585.878"/>
<polygon fill="#7f6300" stroke="#7f6300" points="407.669,-589.027 418.155,-590.542 410.902,-582.818 407.669,-589.027"/>
</g>
<!-- G015&#45;&gt;G022 -->
<g id="edge176" class="edge"><title>G015&#45;&gt;G022</title>
<path fill="none" stroke="#00f37f" stroke-width="4" d="M642.09,-93.4909C733.796,-90.3143 964.61,-99.2929 1092,-222.691 1135.82,-265.137 1176.32,-440.058 1193.85,-526.256"/>
<polygon fill="#00f37f" stroke="#00f37f" points="1190.42,-526.95 1195.82,-536.063 1197.28,-525.569 1190.42,-526.95"/>
</g>
<!-- G015&#45;&gt;G022 -->
<g id="edge178" class="edge"><title>G015&#45;&gt;G022</title>
<path fill="none" stroke="#7f6300" stroke-width="4" d="M642.09,-97.0519C733.796,-97.3143 964.61,-106.293 1092,-229.691 1135.17,-271.509 1175.12,-441.914 1193.06,-526.555"/>
<polygon fill="#7f6300" stroke="#7f6300" points="1189.65,-527.371 1195.13,-536.437 1196.5,-525.931 1189.65,-527.371"/>
</g>
<!-- G015&#45;&gt;G0T -->
<g id="edge172" class="edge"><title>G015&#45;&gt;G0T</title>
<path fill="none" stroke="black" stroke-width="4" d="M642.281,-93.4728C699.563,-89.0653 809.394,-81.6907 903,-81.6907 903,-81.6907 903,-81.6907 1053,-81.6907 1137.1,-81.6907 1177.14,-37.1627 1242,-90.6907 1302.24,-140.403 1332.85,-381.491 1343.04,-480.31"/>
<polygon fill="black" stroke="black" points="1339.58,-480.932 1344.07,-490.53 1346.55,-480.229 1339.58,-480.932"/>
</g>
<!-- G015&#45;&gt;G016 -->
<g id="edge174" class="edge"><title>G015&#45;&gt;G016</title>
<path fill="none" stroke="black" stroke-width="4" d="M635.548,-118.606C657.956,-133.694 687.903,-153.859 711.949,-170.049"/>
<polygon fill="black" stroke="black" points="710.266,-173.136 720.516,-175.818 714.176,-167.329 710.266,-173.136"/>
</g>
<!-- G015&#45;&gt;G021 -->
<g id="edge180" class="edge"><title>G015&#45;&gt;G021</title>
<path fill="none" stroke="#007f37" stroke-width="4" d="M639.604,-111.545C661.055,-119.914 688.805,-130.164 714,-137.691 748.089,-147.875 758.298,-144.29 792,-155.691 861.337,-179.147 882.99,-180.381 942,-223.691 974.086,-247.24 1003.78,-281.348 1024.37,-307.835"/>
<polygon fill="#007f37" stroke="#007f37" points="1021.6,-309.976 1030.46,-315.79 1027.16,-305.721 1021.6,-309.976"/>
</g>
<!-- G018&#45;&gt;G022 -->
<g id="edge124" class="edge"><title>G018&#45;&gt;G022</title>
<path fill="none" stroke="#007f37" stroke-width="4" d="M638.92,-463.269C660.377,-472.07 688.362,-482.68 714,-489.691 872.105,-532.923 1065.23,-558.838 1154.05,-569.302"/>
<polygon fill="#007f37" stroke="#007f37" points="1153.76,-572.792 1164.1,-570.472 1154.57,-565.839 1153.76,-572.792"/>
</g>
<!-- G018&#45;&gt;G019 -->
<g id="edge126" class="edge"><title>G018&#45;&gt;G019</title>
<path fill="none" stroke="black" stroke-width="4" d="M642.019,-447.691C660.869,-447.691 683.692,-447.691 703.728,-447.691"/>
<polygon fill="black" stroke="black" points="703.916,-451.191 713.916,-447.691 703.916,-444.191 703.916,-451.191"/>
</g>
<!-- G018&#45;&gt;G0T -->
<g id="edge122" class="edge"><title>G018&#45;&gt;G0T</title>
<path fill="none" stroke="black" stroke-width="4" d="M638.624,-430.874C659.979,-421.647 687.961,-411.024 714,-405.691 796.365,-388.821 818.925,-397.691 903,-397.691 903,-397.691 903,-397.691 1053,-397.691 1153.87,-397.691 1259.81,-460.783 1312.7,-497.32"/>
<polygon fill="black" stroke="black" points="1310.83,-500.285 1321.03,-503.159 1314.85,-494.553 1310.83,-500.285"/>
</g>
<!-- G019&#45;&gt;G022 -->
<g id="edge88" class="edge"><title>G019&#45;&gt;G022</title>
<path fill="none" stroke="#4d7f00" stroke-width="4" d="M790.593,-458.3C872.238,-481.342 1065.64,-535.924 1155.54,-561.295"/>
<polygon fill="#4d7f00" stroke="#4d7f00" points="1154.62,-564.674 1165.2,-564.022 1156.52,-557.937 1154.62,-564.674"/>
</g>
<!-- G019&#45;&gt;G0T -->
<g id="edge86" class="edge"><title>G019&#45;&gt;G0T</title>
<path fill="none" stroke="black" stroke-width="4" d="M791.974,-452.612C898.49,-466.061 1193.89,-503.358 1304.48,-517.322"/>
<polygon fill="black" stroke="black" points="1304.23,-520.818 1314.59,-518.598 1305.11,-513.873 1304.23,-520.818"/>
</g>
<!-- G019&#45;&gt;G020 -->
<g id="edge90" class="edge"><title>G019&#45;&gt;G020</title>
<path fill="none" stroke="black" stroke-width="4" d="M774.811,-480.408C801.473,-520.4 846.61,-588.106 875.592,-631.578"/>
<polygon fill="black" stroke="black" points="872.703,-633.555 881.162,-639.934 878.528,-629.672 872.703,-633.555"/>
</g>
<!-- G09&#45;&gt;G019 -->
<g id="edge116" class="edge"><title>G09&#45;&gt;G019</title>
<path fill="none" stroke="#007f37" stroke-width="4" d="M620.207,-237.878C646.214,-278.97 695.748,-357.232 726.416,-405.689"/>
<polygon fill="#007f37" stroke="#007f37" points="723.608,-407.796 731.913,-414.374 729.523,-404.052 723.608,-407.796"/>
</g>
<!-- G09&#45;&gt;G0T -->
<g id="edge114" class="edge"><title>G09&#45;&gt;G0T</title>
<path fill="none" stroke="black" stroke-width="4" d="M622.095,-184.302C641.909,-159.284 675.373,-123.152 714,-106.691 791.383,-73.7126 818.883,-96.6907 903,-96.6907 903,-96.6907 903,-96.6907 1053,-96.6907 1095.06,-96.6907 1209.51,-79.9769 1242,-106.691 1299.95,-154.344 1331.72,-384.597 1342.62,-480.563"/>
<polygon fill="black" stroke="black" points="1339.17,-481.223 1343.76,-490.773 1346.13,-480.446 1339.17,-481.223"/>
</g>
<!-- G09&#45;&gt;G017 -->
<g id="edge110" class="edge"><title>G09&#45;&gt;G017</title>
<path fill="none" stroke="#4d7f00" stroke-width="4" d="M633.557,-221.632C655.555,-230.355 686.14,-242.215 714,-249.691 760.874,-262.268 815.735,-270.581 854.239,-275.959"/>
<polygon fill="#4d7f00" stroke="#4d7f00" points="853.767,-279.427 864.152,-277.332 854.727,-272.493 853.767,-279.427"/>
</g>
<!-- G09&#45;&gt;G017 -->
<g id="edge112" class="edge"><title>G09&#45;&gt;G017</title>
<path fill="none" stroke="black" stroke-width="4" d="M631.693,-226.646C653.805,-236.674 685.344,-249.001 714,-256.691 760.528,-269.175 814.925,-277.458 853.383,-281.571"/>
<polygon fill="black" stroke="black" points="853.487,-285.099 863.788,-282.62 854.19,-278.134 853.487,-285.099"/>
</g>
<!-- G016&#45;&gt;G022 -->
<g id="edge144" class="edge"><title>G016&#45;&gt;G022</title>
<path fill="none" stroke="#7f6300" stroke-width="4" d="M791.916,-192.867C862.13,-188.385 1010.28,-192.39 1092,-273.691 1161.56,-342.9 1188.04,-459.657 1197.73,-525.579"/>
<polygon fill="#7f6300" stroke="#7f6300" points="1194.29,-526.287 1199.14,-535.707 1201.22,-525.319 1194.29,-526.287"/>
</g>
<!-- G016&#45;&gt;G022 -->
<g id="edge146" class="edge"><title>G016&#45;&gt;G022</title>
<path fill="none" stroke="#007f37" stroke-width="4" d="M792.193,-196.965C862.518,-195.396 1010.39,-199.496 1092,-280.691 1159.99,-348.329 1186.82,-461.382 1197.04,-525.826"/>
<polygon fill="#007f37" stroke="#007f37" points="1193.58,-526.374 1198.54,-535.737 1200.5,-525.325 1193.58,-526.374"/>
</g>
<!-- G016&#45;&gt;G0T -->
<g id="edge142" class="edge"><title>G016&#45;&gt;G0T</title>
<path fill="none" stroke="black" stroke-width="4" d="M792.071,-193.904C883.233,-187.334 1112.09,-184.275 1242,-301.691 1295.81,-350.322 1324.55,-432.388 1337.72,-481.659"/>
<polygon fill="black" stroke="black" points="1334.34,-482.547 1340.23,-491.354 1341.11,-480.796 1334.34,-482.547"/>
</g>
<!-- G016&#45;&gt;G021 -->
<g id="edge148" class="edge"><title>G016&#45;&gt;G021</title>
<path fill="none" stroke="#4d7f00" stroke-width="4" d="M791.321,-205.858C844.606,-217.295 935.339,-237.091 942,-240.691 973.313,-257.609 1002.04,-285.82 1022.43,-309.027"/>
<polygon fill="#4d7f00" stroke="#4d7f00" points="1019.84,-311.383 1029.01,-316.682 1025.14,-306.819 1019.84,-311.383"/>
</g>
<!-- G016&#45;&gt;G017 -->
<g id="edge140" class="edge"><title>G016&#45;&gt;G017</title>
<path fill="none" stroke="black" stroke-width="4" d="M787.037,-217.205C808.709,-229.63 836.963,-245.829 860.156,-259.127"/>
<polygon fill="black" stroke="black" points="858.681,-262.316 869.097,-264.253 862.163,-256.243 858.681,-262.316"/>
</g>
<!-- G020&#45;&gt;G022 -->
<g id="edge160" class="edge"><title>G020&#45;&gt;G022</title>
<path fill="none" stroke="#7f0021" stroke-width="4" d="M940.375,-661.097C978.56,-649.189 1039.53,-629.999 1092,-612.691 1113.18,-605.704 1136.55,-597.742 1156.36,-590.917"/>
<polygon fill="#7f0021" stroke="#7f0021" points="1157.76,-594.137 1166.07,-587.565 1155.48,-587.52 1157.76,-594.137"/>
</g>
<!-- G020&#45;&gt;G0T -->
<g id="edge158" class="edge"><title>G020&#45;&gt;G0T</title>
<path fill="none" stroke="black" stroke-width="4" d="M941.947,-675.748C1007.54,-679.211 1142.62,-678.992 1242,-629.691 1275.1,-613.272 1303.77,-582.162 1322.76,-557.702"/>
<polygon fill="black" stroke="black" points="1325.57,-559.779 1328.81,-549.692 1319.99,-555.556 1325.57,-559.779"/>
</g>
<!-- G020&#45;&gt;G021 -->
<g id="edge162" class="edge"><title>G020&#45;&gt;G021</title>
<path fill="none" stroke="black" stroke-width="4" d="M919.482,-636.98C946.974,-577.415 1002.14,-457.898 1032.24,-392.675"/>
<polygon fill="black" stroke="black" points="1035.48,-394.006 1036.49,-383.46 1029.12,-391.073 1035.48,-394.006"/>
</g>
<!-- G021&#45;&gt;G022 -->
<g id="edge120" class="edge"><title>G021&#45;&gt;G022</title>
<path fill="none" stroke="#007f79" stroke-width="4" d="M1074.81,-380.698C1101.55,-421.161 1146.87,-489.744 1175.84,-533.588"/>
<polygon fill="#007f79" stroke="#007f79" points="1172.97,-535.598 1181.41,-542.011 1178.81,-531.739 1172.97,-535.598"/>
</g>
<!-- G021&#45;&gt;G0T -->
<g id="edge118" class="edge"><title>G021&#45;&gt;G0T</title>
<path fill="none" stroke="black" stroke-width="4" d="M1092.04,-349.649C1132.37,-353.268 1195.78,-363.547 1242,-392.691 1278.47,-415.688 1307.99,-455.8 1326.33,-485.403"/>
<polygon fill="black" stroke="black" points="1323.49,-487.473 1331.66,-494.222 1329.48,-483.853 1323.49,-487.473"/>
</g>
<!-- G014&#45;&gt;G022 -->
<g id="edge78" class="edge"><title>G014&#45;&gt;G022</title>
<path fill="none" stroke="#00f37f" stroke-width="4" d="M792.31,-739.838C831.209,-740.342 892.01,-739.046 942,-723.691 1027.05,-697.565 1114.02,-639.293 1163,-603.842"/>
<polygon fill="#00f37f" stroke="#00f37f" points="1165.09,-606.648 1171.11,-597.929 1160.97,-600.991 1165.09,-606.648"/>
</g>
<!-- G014&#45;&gt;G022 -->
<g id="edge80" class="edge"><title>G014&#45;&gt;G022</title>
<path fill="none" stroke="#7f6300" stroke-width="4" d="M791.944,-745.14C830.826,-747.35 891.853,-746.094 942,-730.691 1028.48,-704.128 1116.93,-644.337 1165.43,-606.941"/>
<polygon fill="#7f6300" stroke="#7f6300" points="1167.71,-609.601 1173.43,-600.687 1163.4,-604.084 1167.71,-609.601"/>
</g>
<!-- G014&#45;&gt;G0T -->
<g id="edge76" class="edge"><title>G014&#45;&gt;G0T</title>
<path fill="none" stroke="black" stroke-width="4" d="M792.041,-740.128C813.314,-740.345 840.103,-740.583 864,-740.691 1036.9,-741.47 1098.02,-744.429 1242,-648.691 1276.92,-625.472 1306.41,-587.271 1325.16,-559.008"/>
<polygon fill="black" stroke="black" points="1328.12,-560.877 1330.63,-550.584 1322.25,-557.065 1328.12,-560.877"/>
</g>
<!-- G014&#45;&gt;G020 -->
<g id="edge82" class="edge"><title>G014&#45;&gt;G020</title>
<path fill="none" stroke="#4d7f00" stroke-width="4" d="M788.929,-723.643C809.708,-714.361 836.04,-702.6 858.167,-692.716"/>
<polygon fill="#4d7f00" stroke="#4d7f00" points="859.661,-695.882 867.364,-688.608 856.806,-689.491 859.661,-695.882"/>
</g>
<!-- G014&#45;&gt;G021 -->
<g id="edge84" class="edge"><title>G014&#45;&gt;G021</title>
<path fill="none" stroke="#007f37" stroke-width="4" d="M792.258,-736.763C844.274,-732.542 930.807,-724.201 942,-714.691 990.906,-673.137 1029.11,-485.977 1044.99,-396.126"/>
<polygon fill="#007f37" stroke="#007f37" points="1048.45,-396.638 1046.73,-386.185 1041.56,-395.434 1048.45,-396.638"/>
</g>
<!-- G014&#45;&gt;G017 -->
<g id="edge74" class="edge"><title>G014&#45;&gt;G017</title>
<path fill="none" stroke="black" stroke-width="4" d="M765.275,-702.374C792.454,-619.751 857.665,-421.51 887.557,-330.638"/>
<polygon fill="black" stroke="black" points="890.966,-331.476 890.766,-320.883 884.316,-329.289 890.966,-331.476"/>
</g>
<!-- G017&#45;&gt;G022 -->
<g id="edge130" class="edge"><title>G017&#45;&gt;G022</title>
<path fill="none" stroke="#4d7f00" stroke-width="4" d="M940.425,-272.333C981.755,-265.673 1048.23,-264.712 1092,-297.691 1164.09,-352.004 1189.59,-461.411 1198.44,-525.334"/>
<polygon fill="#4d7f00" stroke="#4d7f00" points="1195.02,-526.103 1199.77,-535.569 1201.96,-525.202 1195.02,-526.103"/>
</g>
<!-- G017&#45;&gt;G022 -->
<g id="edge132" class="edge"><title>G017&#45;&gt;G022</title>
<path fill="none" stroke="#7f6300" stroke-width="4" d="M941.551,-277.296C982.954,-272.658 1048.62,-272.01 1092,-304.691 1162.36,-357.704 1188.35,-463.205 1197.78,-525.475"/>
<polygon fill="#7f6300" stroke="#7f6300" points="1194.33,-526.052 1199.21,-535.457 1201.26,-525.062 1194.33,-526.052"/>
</g>
<!-- G017&#45;&gt;G022 -->
<g id="edge134" class="edge"><title>G017&#45;&gt;G022</title>
<path fill="none" stroke="#007f37" stroke-width="4" d="M942.309,-282.389C983.752,-279.651 1048.89,-279.209 1092,-311.691 1160.49,-363.297 1186.94,-464.643 1196.99,-525.407"/>
<polygon fill="#007f37" stroke="#007f37" points="1193.57,-526.191 1198.58,-535.528 1200.49,-525.107 1193.57,-526.191"/>
</g>
<!-- G017&#45;&gt;G0T -->
<g id="edge128" class="edge"><title>G017&#45;&gt;G0T</title>
<path fill="none" stroke="black" stroke-width="4" d="M941.369,-275.826C980.072,-269.38 1041.2,-263.298 1092,-276.691 1166.09,-296.225 1186.15,-309.223 1242,-361.691 1279.95,-397.348 1310.65,-449.36 1328.84,-484.537"/>
<polygon fill="black" stroke="black" points="1325.76,-486.209 1333.41,-493.541 1332,-483.04 1325.76,-486.209"/>
</g>
<!-- G017&#45;&gt;G021 -->
<g id="edge136" class="edge"><title>G017&#45;&gt;G021</title>
<path fill="none" stroke="#7f0021" stroke-width="4" d="M939.694,-297.381C960.396,-305.877 986.419,-316.943 1008.3,-326.542"/>
<polygon fill="#7f0021" stroke="#7f0021" points="1007.16,-329.861 1017.72,-330.695 1009.98,-323.457 1007.16,-329.861"/>
</g>
<!-- G017&#45;&gt;G021 -->
<g id="edge138" class="edge"><title>G017&#45;&gt;G021</title>
<path fill="none" stroke="black" stroke-width="4" d="M938.168,-301.283C958.61,-310.474 984.613,-321.638 1006.7,-330.733"/>
<polygon fill="black" stroke="black" points="1005.64,-334.08 1016.22,-334.622 1008.29,-327.6 1005.64,-334.08"/>
</g>
<!-- G013&#45;&gt;G022 -->
<g id="edge152" class="edge"><title>G013&#45;&gt;G022</title>
<path fill="none" stroke="#7f6300" stroke-width="4" d="M641.696,-831.788C754.042,-817.43 1073.47,-775.667 1092,-762.691 1105.4,-753.306 1151.2,-671.085 1179.62,-618.53"/>
<polygon fill="#7f6300" stroke="#7f6300" points="1182.87,-619.87 1184.53,-609.407 1176.71,-616.548 1182.87,-619.87"/>
</g>
<!-- G013&#45;&gt;G0T -->
<g id="edge150" class="edge"><title>G013&#45;&gt;G0T</title>
<path fill="none" stroke="black" stroke-width="4" d="M641.666,-844.113C698.643,-854.387 808.614,-871.691 903,-871.691 903,-871.691 903,-871.691 1053,-871.691 1212.76,-871.691 1303.25,-655.144 1334.48,-563.2"/>
<polygon fill="black" stroke="black" points="1337.81,-564.256 1337.65,-553.662 1331.17,-562.043 1337.81,-564.256"/>
</g>
<!-- G013&#45;&gt;G020 -->
<g id="edge154" class="edge"><title>G013&#45;&gt;G020</title>
<path fill="none" stroke="#007f37" stroke-width="4" d="M641.805,-831.43C681.666,-824.737 744.437,-810.532 792,-782.691 823.133,-764.466 851.871,-735.497 872.302,-711.862"/>
<polygon fill="#007f37" stroke="#007f37" points="875.108,-713.966 878.904,-704.074 869.768,-709.439 875.108,-713.966"/>
</g>
<!-- G013&#45;&gt;G014 -->
<g id="edge156" class="edge"><title>G013&#45;&gt;G014</title>
<path fill="none" stroke="black" stroke-width="4" d="M635.918,-815.404C658.192,-801 687.788,-781.861 711.651,-766.43"/>
<polygon fill="black" stroke="black" points="713.662,-769.297 720.159,-760.928 709.861,-763.419 713.662,-769.297"/>
</g>
<!-- G010&#45;&gt;G018 -->
<g id="edge170" class="edge"><title>G010&#45;&gt;G018</title>
<path fill="none" stroke="#007f37" stroke-width="4" d="M479.817,-579.907C504.803,-553.089 542.161,-512.991 569.183,-483.988"/>
<polygon fill="#007f37" stroke="#007f37" points="571.907,-486.199 576.163,-476.496 566.785,-481.427 571.907,-486.199"/>
</g>
<!-- G010&#45;&gt;G0T -->
<g id="edge164" class="edge"><title>G010&#45;&gt;G0T</title>
<path fill="none" stroke="black" stroke-width="4" d="M456.019,-647.82C463.109,-710.26 486.627,-831.416 564,-890.691 624.176,-936.791 827.195,-928.691 903,-928.691 903,-928.691 903,-928.691 1053,-928.691 1148.03,-928.691 1180.25,-900.925 1242,-828.691 1308.55,-750.844 1333.57,-628.643 1342.45,-564.771"/>
<polygon fill="black" stroke="black" points="1345.95,-565.037 1343.79,-554.664 1339.01,-564.118 1345.95,-565.037"/>
</g>
<!-- G010&#45;&gt;G020 -->
<g id="edge166" class="edge"><title>G010&#45;&gt;G020</title>
<path fill="none" stroke="#7f6300" stroke-width="4" d="M481.993,-635.438C503.021,-652.929 533.089,-674.227 564,-683.691 616.606,-699.797 773.03,-686.53 853.686,-678.189"/>
<polygon fill="#7f6300" stroke="#7f6300" points="854.496,-681.623 864.076,-677.098 853.765,-674.661 854.496,-681.623"/>
</g>
<!-- G010&#45;&gt;G014 -->
<g id="edge168" class="edge"><title>G010&#45;&gt;G014</title>
<path fill="none" stroke="black" stroke-width="4" d="M473.38,-642.331C492.758,-670.906 524.738,-710.148 564,-728.691 608.154,-749.544 664.714,-749.898 704.409,-746.523"/>
<polygon fill="black" stroke="black" points="704.753,-750.006 714.373,-745.568 704.084,-743.038 704.753,-750.006"/>
</g>
</g>
</svg>
