<?xml version="1.0" encoding="UTF-8" standalone="no"?>
<!DOCTYPE svg PUBLIC "-//W3C//DTD SVG 1.1//EN"
 "http://www.w3.org/Graphics/SVG/1.1/DTD/svg11.dtd">
<!-- Generated by graphviz version 2.26.3 (20100126.1600)
 -->
<!-- Title: _anonymous_0 Pages: 1 -->
<svg width="1070pt" height="610pt"
 viewBox="0.00 0.00 1070.00 610.00" xmlns="http://www.w3.org/2000/svg" xmlns:xlink="http://www.w3.org/1999/xlink">
<g id="graph1" class="graph" transform="scale(1 1) rotate(0) translate(4 606)">
<title>_anonymous_0</title>
<polygon fill="white" stroke="white" points="-4,5 -4,-606 1067,-606 1067,5 -4,5"/>
<!-- V4 -->
<g id="node1" class="node"><title>V4</title>
<ellipse fill="none" stroke="black" stroke-width="2" cx="257" cy="-365" rx="24.2437" ry="24.7487"/>
<text text-anchor="middle" x="257" y="-361.4" font-family="Times Roman,serif" font-size="14.00">V4</text>
</g>
<!-- G0T -->
<g id="node3" class="node"><title>G0T</title>
<ellipse fill="none" stroke="black" stroke-width="2" cx="919" cy="-277" rx="32.0265" ry="32.5269"/>
<text text-anchor="middle" x="919" y="-273.4" font-family="Times Roman,serif" font-size="14.00">G0T</text>
</g>
<!-- V4&#45;&gt;G0T -->
<g id="edge2" class="edge"><title>V4&#45;&gt;G0T</title>
<path fill="none" stroke="black" stroke-width="4" d="M281.59,-365.542C360.345,-366.719 612.938,-366.14 814,-317 836.371,-311.533 860.438,-302.601 879.88,-294.564"/>
<polygon fill="black" stroke="black" points="881.454,-297.699 889.308,-290.587 878.733,-291.249 881.454,-297.699"/>
</g>
<!-- V5 -->
<g id="node5" class="node"><title>V5</title>
<ellipse fill="none" stroke="black" stroke-width="2" cx="379" cy="-489" rx="24.2437" ry="24.7487"/>
<text text-anchor="middle" x="379" y="-485.4" font-family="Times Roman,serif" font-size="14.00">V5</text>
</g>
<!-- V4&#45;&gt;V5 -->
<g id="edge4" class="edge"><title>V4&#45;&gt;V5</title>
<path fill="none" stroke="black" stroke-width="4" d="M274.221,-382.503C295.202,-403.828 330.787,-439.996 354.587,-464.187"/>
<polygon fill="black" stroke="black" points="352.358,-466.912 361.867,-471.586 357.348,-462.003 352.358,-466.912"/>
</g>
<!-- G1T -->
<g id="node7" class="node"><title>G1T</title>
<ellipse fill="none" stroke="black" stroke-width="2" cx="643" cy="-424" rx="32.0265" ry="32.5269"/>
<text text-anchor="middle" x="643" y="-420.4" font-family="Times Roman,serif" font-size="14.00">G1T</text>
</g>
<!-- V4&#45;&gt;G1T -->
<g id="edge6" class="edge"><title>V4&#45;&gt;G1T</title>
<path fill="none" stroke="black" stroke-width="4" d="M281.439,-368.735C345.594,-378.542 519.43,-405.112 600.414,-417.491"/>
<polygon fill="black" stroke="black" points="600.328,-421.018 610.742,-419.069 601.385,-414.098 600.328,-421.018"/>
</g>
<!-- V11 -->
<g id="node9" class="node"><title>V11</title>
<ellipse fill="none" stroke="black" stroke-width="2" cx="643" cy="-235" rx="31.1127" ry="31.1127"/>
<text text-anchor="middle" x="643" y="-231.4" font-family="Times Roman,serif" font-size="14.00">V11</text>
</g>
<!-- V4&#45;&gt;V11 -->
<g id="edge8" class="edge"><title>V4&#45;&gt;V11</title>
<path fill="none" stroke="#00557f" stroke-width="4" d="M280.277,-357.161C344.364,-335.577 523.929,-275.102 603.818,-248.196"/>
<polygon fill="#00557f" stroke="#00557f" points="605.145,-251.442 613.505,-244.933 602.911,-244.808 605.145,-251.442"/>
</g>
<!-- V7 -->
<g id="node11" class="node"><title>V7</title>
<ellipse fill="none" stroke="black" stroke-width="2" cx="379" cy="-257" rx="24.2437" ry="24.7487"/>
<text text-anchor="middle" x="379" y="-253.4" font-family="Times Roman,serif" font-size="14.00">V7</text>
</g>
<!-- V4&#45;&gt;V7 -->
<g id="edge10" class="edge"><title>V4&#45;&gt;V7</title>
<path fill="none" stroke="black" stroke-width="4" d="M275.265,-348.831C295.928,-330.539 329.74,-300.607 353.117,-279.913"/>
<polygon fill="black" stroke="black" points="355.443,-282.528 360.611,-273.279 350.803,-277.287 355.443,-282.528"/>
</g>
<!-- V12 -->
<g id="node13" class="node"><title>V12</title>
<ellipse fill="none" stroke="black" stroke-width="2" cx="781" cy="-235" rx="31.1127" ry="31.1127"/>
<text text-anchor="middle" x="781" y="-231.4" font-family="Times Roman,serif" font-size="14.00">V12</text>
</g>
<!-- V4&#45;&gt;V12 -->
<g id="edge12" class="edge"><title>V4&#45;&gt;V12</title>
<path fill="none" stroke="#7f5500" stroke-width="4" d="M281.572,-362.101C346.941,-353.97 530.083,-328.454 676,-282 699.224,-274.606 724.166,-263.582 743.911,-254.068"/>
<polygon fill="#7f5500" stroke="#7f5500" points="745.713,-257.083 753.156,-249.542 742.635,-250.796 745.713,-257.083"/>
</g>
<!-- V8 -->
<g id="node15" class="node"><title>V8</title>
<ellipse fill="none" stroke="black" stroke-width="2" cx="507" cy="-459" rx="24.2437" ry="24.7487"/>
<text text-anchor="middle" x="507" y="-455.4" font-family="Times Roman,serif" font-size="14.00">V8</text>
</g>
<!-- V4&#45;&gt;V8 -->
<g id="edge14" class="edge"><title>V4&#45;&gt;V8</title>
<path fill="none" stroke="#007f00" stroke-width="4" d="M278.437,-377.254C297.754,-387.948 327.16,-403.376 354,-414 393.898,-429.793 441.563,-442.957 472.968,-450.886"/>
<polygon fill="#007f00" stroke="#007f00" points="472.411,-454.354 482.96,-453.371 474.1,-447.561 472.411,-454.354"/>
</g>
<!-- T -->
<g id="node17" class="node"><title>T</title>
<ellipse fill="none" stroke="black" stroke-width="2" cx="1043" cy="-277" rx="17.8879" ry="18.3848"/>
<text text-anchor="middle" x="1043" y="-273.4" font-family="Times Roman,serif" font-size="14.00">T</text>
</g>
<!-- G0T&#45;&gt;T -->
<g id="edge16" class="edge"><title>G0T&#45;&gt;T</title>
<path fill="none" stroke="black" stroke-width="4" d="M951.58,-277C971.105,-277 995.698,-277 1014.46,-277"/>
<polygon fill="black" stroke="black" points="1014.48,-280.5 1024.48,-277 1014.48,-273.5 1014.48,-280.5"/>
</g>
<!-- V5&#45;&gt;G1T -->
<g id="edge18" class="edge"><title>V5&#45;&gt;G1T</title>
<path fill="none" stroke="black" stroke-width="4" d="M403.266,-492.552C434.942,-496.324 491.789,-500.113 538,-487 563.832,-479.67 589.734,-464.236 609.349,-450.48"/>
<polygon fill="black" stroke="black" points="611.558,-453.203 617.623,-444.515 607.464,-447.524 611.558,-453.203"/>
</g>
<!-- V5&#45;&gt;V8 -->
<g id="edge20" class="edge"><title>V5&#45;&gt;V8</title>
<path fill="none" stroke="#7f0054" stroke-width="4" d="M403.076,-483.357C422.831,-478.727 451.038,-472.116 473.081,-466.95"/>
<polygon fill="#7f0054" stroke="#7f0054" points="474.095,-470.307 483.032,-464.617 472.497,-463.492 474.095,-470.307"/>
</g>
<!-- G1T&#45;&gt;T -->
<g id="edge22" class="edge"><title>G1T&#45;&gt;T</title>
<path fill="none" stroke="black" stroke-width="4" d="M674.48,-415.155C708.999,-405.246 765.885,-388.293 814,-371 888.509,-344.221 974.375,-307.303 1016.66,-288.707"/>
<polygon fill="black" stroke="black" points="1018.23,-291.842 1025.97,-284.603 1015.4,-285.438 1018.23,-291.842"/>
</g>
<!-- V11&#45;&gt;G0T -->
<g id="edge42" class="edge"><title>V11&#45;&gt;G0T</title>
<path fill="none" stroke="black" stroke-width="4" d="M671.882,-246.659C692.679,-254.48 721.608,-264.199 748,-269 791.061,-276.834 841.167,-278.302 875.963,-278.136"/>
<polygon fill="black" stroke="black" points="876.279,-281.633 886.245,-278.037 876.212,-274.634 876.279,-281.633"/>
</g>
<!-- V11&#45;&gt;V12 -->
<g id="edge44" class="edge"><title>V11&#45;&gt;V12</title>
<path fill="none" stroke="#007f55" stroke-width="4" d="M674.314,-235C693.635,-235 718.641,-235 739.588,-235"/>
<polygon fill="#007f55" stroke="#007f55" points="739.81,-238.5 749.81,-235 739.81,-231.5 739.81,-238.5"/>
</g>
<!-- V7&#45;&gt;G0T -->
<g id="edge98" class="edge"><title>V7&#45;&gt;G0T</title>
<path fill="none" stroke="black" stroke-width="4" d="M403.595,-258.824C462.831,-263.11 618.125,-273.708 748,-277 791.571,-278.104 841.407,-277.942 875.992,-277.603"/>
<polygon fill="black" stroke="black" points="876.25,-281.1 886.212,-277.493 876.175,-274.101 876.25,-281.1"/>
</g>
<!-- V7&#45;&gt;V11 -->
<g id="edge100" class="edge"><title>V7&#45;&gt;V11</title>
<path fill="none" stroke="#54007f" stroke-width="4" d="M403.577,-257.208C434.872,-257.248 490.579,-256.565 538,-252 559.346,-249.945 582.933,-246.256 602.334,-242.839"/>
<polygon fill="#54007f" stroke="#54007f" points="603.132,-246.251 612.352,-241.033 601.89,-239.362 603.132,-246.251"/>
</g>
<!-- V10 -->
<g id="node47" class="node"><title>V10</title>
<ellipse fill="none" stroke="black" stroke-width="2" cx="507" cy="-205" rx="31.1127" ry="31.1127"/>
<text text-anchor="middle" x="507" y="-201.4" font-family="Times Roman,serif" font-size="14.00">V10</text>
</g>
<!-- V7&#45;&gt;V10 -->
<g id="edge102" class="edge"><title>V7&#45;&gt;V10</title>
<path fill="none" stroke="black" stroke-width="4" d="M401.884,-247.703C420.425,-240.171 446.95,-229.395 468.716,-220.553"/>
<polygon fill="black" stroke="black" points="470.077,-223.778 478.025,-216.771 467.443,-217.292 470.077,-223.778"/>
</g>
<!-- V12&#45;&gt;G0T -->
<g id="edge112" class="edge"><title>V12&#45;&gt;G0T</title>
<path fill="none" stroke="black" stroke-width="4" d="M810.944,-244.113C830.516,-250.07 856.339,-257.929 877.833,-264.471"/>
<polygon fill="black" stroke="black" points="877.092,-267.904 887.678,-267.467 879.13,-261.207 877.092,-267.904"/>
</g>
<!-- V8&#45;&gt;G1T -->
<g id="edge120" class="edge"><title>V8&#45;&gt;G1T</title>
<path fill="none" stroke="black" stroke-width="4" d="M531.001,-452.823C550.464,-447.814 578.354,-440.637 601.433,-434.697"/>
<polygon fill="black" stroke="black" points="602.508,-438.035 611.32,-432.153 600.763,-431.256 602.508,-438.035"/>
</g>
<!-- V3 -->
<g id="node21" class="node"><title>V3</title>
<ellipse fill="none" stroke="black" stroke-width="2" cx="257" cy="-545" rx="24.2437" ry="24.7487"/>
<text text-anchor="middle" x="257" y="-541.4" font-family="Times Roman,serif" font-size="14.00">V3</text>
</g>
<!-- V3&#45;&gt;G0T -->
<g id="edge24" class="edge"><title>V3&#45;&gt;G0T</title>
<path fill="none" stroke="black" stroke-width="4" d="M280.037,-553.906C323.639,-569.938 421.528,-602 507,-602 507,-602 507,-602 643,-602 790.723,-602 875.853,-404.509 906.21,-317.427"/>
<polygon fill="black" stroke="black" points="909.554,-318.463 909.476,-307.868 902.93,-316.199 909.554,-318.463"/>
</g>
<!-- V3&#45;&gt;V5 -->
<g id="edge26" class="edge"><title>V3&#45;&gt;V5</title>
<path fill="none" stroke="black" stroke-width="4" d="M279.377,-534.729C298.466,-525.966 326.128,-513.269 347.462,-503.477"/>
<polygon fill="black" stroke="black" points="349.137,-506.559 356.765,-499.206 346.217,-500.197 349.137,-506.559"/>
</g>
<!-- V3&#45;&gt;G1T -->
<g id="edge28" class="edge"><title>V3&#45;&gt;G1T</title>
<path fill="none" stroke="black" stroke-width="4" d="M281.194,-549.112C310.543,-553.348 361.383,-558.264 404,-550 483.815,-534.523 565.112,-482.243 609.296,-450.091"/>
<polygon fill="black" stroke="black" points="611.394,-452.892 617.366,-444.141 607.24,-447.258 611.394,-452.892"/>
</g>
<!-- V3&#45;&gt;V11 -->
<g id="edge30" class="edge"><title>V3&#45;&gt;V11</title>
<path fill="none" stroke="black" stroke-width="4" d="M281.734,-547.631C335.701,-551.918 465.015,-554.079 538,-487 599.796,-430.204 626.342,-331.4 636.835,-275.883"/>
<polygon fill="black" stroke="black" points="640.339,-276.173 638.669,-265.711 633.45,-274.931 640.339,-276.173"/>
</g>
<!-- V3&#45;&gt;V12 -->
<g id="edge32" class="edge"><title>V3&#45;&gt;V12</title>
<path fill="none" stroke="#7f5500" stroke-width="4" d="M281.557,-545.397C310.833,-549.021 361.181,-556.255 404,-550 530.998,-531.449 583.23,-541.693 676,-453 727.924,-403.358 756.741,-323.002 770.531,-274.886"/>
<polygon fill="#7f5500" stroke="#7f5500" points="773.937,-275.703 773.249,-265.131 767.194,-273.825 773.937,-275.703"/>
</g>
<!-- V3&#45;&gt;V12 -->
<g id="edge34" class="edge"><title>V3&#45;&gt;V12</title>
<path fill="none" stroke="#7f0000" stroke-width="4" d="M281.04,-550.283C310.237,-555.935 360.927,-563.292 404,-557 530.998,-538.449 583.23,-548.693 676,-460 729.635,-408.722 758.616,-324.67 771.847,-275.106"/>
<polygon fill="#7f0000" stroke="#7f0000" points="775.248,-275.933 774.36,-265.375 768.47,-274.182 775.248,-275.933"/>
</g>
<!-- V3&#45;&gt;V12 -->
<g id="edge36" class="edge"><title>V3&#45;&gt;V12</title>
<path fill="none" stroke="#54007f" stroke-width="4" d="M279.514,-554.825C308.445,-562.672 360.167,-570.403 404,-564 530.998,-545.449 583.23,-555.693 676,-467 731.208,-414.218 760.294,-326.713 772.97,-275.516"/>
<polygon fill="#54007f" stroke="#54007f" points="776.376,-276.321 775.289,-265.782 769.567,-274.699 776.376,-276.321"/>
</g>
<!-- V3&#45;&gt;V8 -->
<g id="edge38" class="edge"><title>V3&#45;&gt;V8</title>
<path fill="none" stroke="#00557f" stroke-width="4" d="M281.297,-540.433C310.966,-536.025 362.339,-528.213 404,-513 429.804,-503.577 456.907,-488.336 476.83,-476.417"/>
<polygon fill="#00557f" stroke="#00557f" points="478.701,-479.376 485.448,-471.208 475.08,-473.386 478.701,-479.376"/>
</g>
<!-- V3&#45;&gt;V8 -->
<g id="edge40" class="edge"><title>V3&#45;&gt;V8</title>
<path fill="none" stroke="#54007f" stroke-width="4" d="M281.559,-545.345C311.267,-542.98 362.461,-535.168 404,-520 431.091,-510.107 459.613,-493.801 479.756,-480.488"/>
<polygon fill="#54007f" stroke="#54007f" points="481.814,-483.321 488.116,-474.805 477.879,-477.532 481.814,-483.321"/>
</g>
<!-- S -->
<g id="node33" class="node"><title>S</title>
<ellipse fill="none" stroke="black" stroke-width="2" cx="19" cy="-252" rx="17.8879" ry="18.3848"/>
<text text-anchor="middle" x="19" y="-248.4" font-family="Times Roman,serif" font-size="14.00">S</text>
</g>
<!-- S&#45;&gt;V4 -->
<g id="edge46" class="edge"><title>S&#45;&gt;V4</title>
<path fill="none" stroke="#007f55" stroke-width="4" d="M36.8887,-257.559C77.5124,-274.008 177.074,-321.05 227.176,-347.22"/>
<polygon fill="#007f55" stroke="#007f55" points="225.742,-350.421 236.218,-352.006 229.017,-344.235 225.742,-350.421"/>
</g>
<!-- S&#45;&gt;V4 -->
<g id="edge48" class="edge"><title>S&#45;&gt;V4</title>
<path fill="none" stroke="black" stroke-width="4" d="M35.7357,-259.946C75.1983,-278.682 174.578,-325.867 225.642,-350.112"/>
<polygon fill="black" stroke="black" points="224.349,-353.372 234.884,-354.5 227.352,-347.049 224.349,-353.372"/>
</g>
<!-- S&#45;&gt;V4 -->
<g id="edge50" class="edge"><title>S&#45;&gt;V4</title>
<path fill="none" stroke="#7f0000" stroke-width="4" d="M34.6158,-262.183C72.8944,-283.293 172.054,-330.703 224.062,-353.123"/>
<polygon fill="#7f0000" stroke="#7f0000" points="222.929,-356.444 233.501,-357.132 225.665,-350.001 222.929,-356.444"/>
</g>
<!-- S&#45;&gt;V11 -->
<g id="edge56" class="edge"><title>S&#45;&gt;V11</title>
<path fill="none" stroke="#007f00" stroke-width="4" d="M37.4368,-249.386C92.8886,-241.859 263.01,-221.222 404,-230 436.187,-232.004 443.813,-236.996 476,-239 503.502,-240.712 510.449,-239.525 538,-239 559.026,-238.6 582.408,-237.749 601.76,-236.934"/>
<polygon fill="#007f00" stroke="#007f00" points="601.927,-240.43 611.767,-236.501 601.625,-233.437 601.927,-240.43"/>
</g>
<!-- S&#45;&gt;V3 -->
<g id="edge52" class="edge"><title>S&#45;&gt;V3</title>
<path fill="none" stroke="#00007f" stroke-width="4" d="M26.2789,-268.829C39.619,-300.293 70.2998,-369.107 110,-418 145.205,-461.356 197.164,-500.995 228.952,-524.1"/>
<polygon fill="#00007f" stroke="#00007f" points="227.197,-527.15 237.353,-530.168 231.296,-521.476 227.197,-527.15"/>
</g>
<!-- S&#45;&gt;V3 -->
<g id="edge54" class="edge"><title>S&#45;&gt;V3</title>
<path fill="none" stroke="#00557f" stroke-width="4" d="M24.8685,-269.348C37.3588,-302.168 68.8294,-374.296 110,-425 144.435,-467.409 194.901,-506.26 226.839,-527.734"/>
<polygon fill="#00557f" stroke="#00557f" points="225.05,-530.746 235.328,-533.319 228.897,-524.898 225.05,-530.746"/>
</g>
<!-- V9 -->
<g id="node41" class="node"><title>V9</title>
<ellipse fill="none" stroke="black" stroke-width="2" cx="379" cy="-154" rx="24.2437" ry="24.7487"/>
<text text-anchor="middle" x="379" y="-150.4" font-family="Times Roman,serif" font-size="14.00">V9</text>
</g>
<!-- S&#45;&gt;V9 -->
<g id="edge58" class="edge"><title>S&#45;&gt;V9</title>
<path fill="none" stroke="#007f55" stroke-width="4" d="M30.8482,-237.852C47.4847,-222.781 79.1934,-200.36 110,-189 190.49,-159.32 292.06,-150.614 344.362,-150.554"/>
<polygon fill="#007f55" stroke="#007f55" points="344.411,-154.055 354.447,-150.661 344.485,-147.055 344.411,-154.055"/>
</g>
<!-- S&#45;&gt;V9 -->
<g id="edge60" class="edge"><title>S&#45;&gt;V9</title>
<path fill="none" stroke="#547f00" stroke-width="4" d="M33.5007,-240.52C50.707,-227.53 80.7598,-206.782 110,-196 190.49,-166.32 292.06,-157.614 344.362,-155.06"/>
<polygon fill="#547f00" stroke="#547f00" points="344.611,-158.552 354.447,-154.615 344.303,-151.559 344.611,-158.552"/>
</g>
<!-- S&#45;&gt;V9 -->
<g id="edge62" class="edge"><title>S&#45;&gt;V9</title>
<path fill="none" stroke="#7f5500" stroke-width="4" d="M35.7174,-244.116C53.21,-232.818 81.9782,-213.333 110,-203 190.698,-173.244 292.583,-164.569 344.765,-159.526"/>
<polygon fill="#7f5500" stroke="#7f5500" points="345.213,-162.999 354.82,-158.53 344.523,-156.033 345.213,-162.999"/>
</g>
<!-- V2 -->
<g id="node45" class="node"><title>V2</title>
<ellipse fill="none" stroke="black" stroke-width="2" cx="507" cy="-110" rx="24.2437" ry="24.7487"/>
<text text-anchor="middle" x="507" y="-106.4" font-family="Times Roman,serif" font-size="14.00">V2</text>
</g>
<!-- S&#45;&gt;V2 -->
<g id="edge64" class="edge"><title>S&#45;&gt;V2</title>
<path fill="none" stroke="#00557f" stroke-width="4" d="M31.8543,-238.635C48.3825,-222.261 78.703,-194.871 110,-180 233.862,-121.146 400.692,-111.377 472.153,-110.033"/>
<polygon fill="#00557f" stroke="#00557f" points="472.436,-113.529 482.385,-109.887 472.336,-106.53 472.436,-113.529"/>
</g>
<!-- S&#45;&gt;V10 -->
<g id="edge66" class="edge"><title>S&#45;&gt;V10</title>
<path fill="none" stroke="#54007f" stroke-width="4" d="M34.6199,-241.939C52.369,-232.616 82.4543,-219.546 110,-214 237.893,-188.248 393.585,-194.006 466.133,-199.975"/>
<polygon fill="#54007f" stroke="#54007f" points="465.954,-203.473 476.22,-200.854 466.562,-196.499 465.954,-203.473"/>
</g>
<!-- S&#45;&gt;V10 -->
<g id="edge68" class="edge"><title>S&#45;&gt;V10</title>
<path fill="none" stroke="black" stroke-width="4" d="M36.5921,-246.205C54.5405,-238.681 83.4499,-226.346 110,-221 237.732,-195.281 393.193,-200.991 465.858,-204.138"/>
<polygon fill="black" stroke="black" points="465.822,-207.639 475.966,-204.579 466.128,-200.646 465.822,-207.639"/>
</g>
<!-- V1 -->
<g id="node50" class="node"><title>V1</title>
<ellipse fill="none" stroke="black" stroke-width="2" cx="135" cy="-393" rx="24.2437" ry="24.7487"/>
<text text-anchor="middle" x="135" y="-389.4" font-family="Times Roman,serif" font-size="14.00">V1</text>
</g>
<!-- S&#45;&gt;V1 -->
<g id="edge70" class="edge"><title>S&#45;&gt;V1</title>
<path fill="none" stroke="#54007f" stroke-width="4" d="M30.7611,-266.296C50.0306,-289.718 88.6227,-336.628 113.059,-366.331"/>
<polygon fill="#54007f" stroke="#54007f" points="110.492,-368.719 119.548,-374.218 115.898,-364.272 110.492,-368.719"/>
</g>
<!-- V6 -->
<g id="node52" class="node"><title>V6</title>
<ellipse fill="none" stroke="black" stroke-width="2" cx="257" cy="-310" rx="24.2437" ry="24.7487"/>
<text text-anchor="middle" x="257" y="-306.4" font-family="Times Roman,serif" font-size="14.00">V6</text>
</g>
<!-- S&#45;&gt;V6 -->
<g id="edge72" class="edge"><title>S&#45;&gt;V6</title>
<path fill="none" stroke="#7f5500" stroke-width="4" d="M37.2803,-256.455C77.0971,-266.158 172.173,-289.328 223.225,-301.769"/>
<polygon fill="#7f5500" stroke="#7f5500" points="222.572,-305.212 233.117,-304.18 224.23,-298.411 222.572,-305.212"/>
</g>
<!-- V9&#45;&gt;G0T -->
<g id="edge74" class="edge"><title>V9&#45;&gt;G0T</title>
<path fill="none" stroke="black" stroke-width="4" d="M395.966,-136.237C413.931,-118.83 444.063,-93.4394 476,-83 502.192,-74.4385 510.68,-79.4012 538,-83 663.911,-99.5865 706.195,-89.8671 814,-157 848.139,-178.259 877.345,-214.035 896.223,-241.005"/>
<polygon fill="black" stroke="black" points="893.447,-243.146 901.983,-249.422 899.225,-239.193 893.447,-243.146"/>
</g>
<!-- V9&#45;&gt;V12 -->
<g id="edge80" class="edge"><title>V9&#45;&gt;V12</title>
<path fill="none" stroke="#007f00" stroke-width="4" d="M403.299,-149.758C454.546,-148.201 577.121,-157.838 676,-185 700.358,-191.691 726.94,-201.848 747.263,-211.546"/>
<polygon fill="#007f00" stroke="#007f00" points="745.903,-214.778 756.414,-216.104 749.023,-208.513 745.903,-214.778"/>
</g>
<!-- V9&#45;&gt;V12 -->
<g id="edge82" class="edge"><title>V9&#45;&gt;V12</title>
<path fill="none" stroke="#7f0000" stroke-width="4" d="M403.69,-153.581C455.168,-155.25 577.372,-164.907 676,-192 699.116,-198.35 724.235,-207.821 744.107,-216.285"/>
<polygon fill="#7f0000" stroke="#7f0000" points="742.844,-219.553 753.409,-220.341 745.642,-213.136 742.844,-219.553"/>
</g>
<!-- V9&#45;&gt;V12 -->
<g id="edge84" class="edge"><title>V9&#45;&gt;V12</title>
<path fill="none" stroke="#00557f" stroke-width="4" d="M403.299,-157.378C454.546,-162.201 577.121,-171.838 676,-199 698.206,-205.1 722.261,-214.08 741.737,-221.595"/>
<polygon fill="#00557f" stroke="#00557f" points="740.596,-224.907 751.185,-225.257 743.126,-218.38 740.596,-224.907"/>
</g>
<!-- V9&#45;&gt;V12 -->
<g id="edge86" class="edge"><title>V9&#45;&gt;V12</title>
<path fill="none" stroke="#00007f" stroke-width="4" d="M402.524,-161.067C453.301,-169.103 576.619,-178.7 676,-206 697.625,-211.94 721.002,-220.612 740.197,-227.367"/>
<polygon fill="#00007f" stroke="#00007f" points="739.227,-230.736 749.822,-230.701 741.518,-224.121 739.227,-230.736"/>
</g>
<!-- V9&#45;&gt;V10 -->
<g id="edge78" class="edge"><title>V9&#45;&gt;V10</title>
<path fill="none" stroke="black" stroke-width="4" d="M401.884,-163.118C420.425,-170.505 446.95,-181.074 468.716,-189.746"/>
<polygon fill="black" stroke="black" points="467.44,-193.005 478.025,-193.455 470.031,-186.502 467.44,-193.005"/>
</g>
<!-- G2T -->
<g id="node55" class="node"><title>G2T</title>
<ellipse fill="none" stroke="black" stroke-width="2" cx="781" cy="-32" rx="32.0265" ry="32.5269"/>
<text text-anchor="middle" x="781" y="-28.4" font-family="Times Roman,serif" font-size="14.00">G2T</text>
</g>
<!-- V9&#45;&gt;G2T -->
<g id="edge76" class="edge"><title>V9&#45;&gt;G2T</title>
<path fill="none" stroke="black" stroke-width="4" d="M394.647,-135.008C412.202,-115.153 442.623,-84.8581 476,-70 563.096,-31.2279 677.18,-28.0656 738.159,-29.6933"/>
<polygon fill="black" stroke="black" points="738.086,-33.1927 748.194,-30.018 738.312,-26.1964 738.086,-33.1927"/>
</g>
<!-- V2&#45;&gt;G0T -->
<g id="edge90" class="edge"><title>V2&#45;&gt;G0T</title>
<path fill="none" stroke="black" stroke-width="4" d="M531.475,-112.007C585.355,-117.247 717.132,-134.624 814,-185 843.172,-200.171 870.914,-225.1 890.548,-245.184"/>
<polygon fill="black" stroke="black" points="888.218,-247.812 897.662,-252.614 893.274,-242.971 888.218,-247.812"/>
</g>
<!-- V2&#45;&gt;V11 -->
<g id="edge92" class="edge"><title>V2&#45;&gt;V11</title>
<path fill="none" stroke="#54007f" stroke-width="4" d="M525.91,-125.766C548.496,-145.787 586.553,-180.671 613.129,-205.645"/>
<polygon fill="#54007f" stroke="#54007f" points="610.961,-208.412 620.638,-212.727 615.764,-203.319 610.961,-208.412"/>
</g>
<!-- V2&#45;&gt;V11 -->
<g id="edge94" class="edge"><title>V2&#45;&gt;V11</title>
<path fill="none" stroke="black" stroke-width="4" d="M523.95,-127.643C545.725,-148.697 583.96,-184.012 611.223,-208.378"/>
<polygon fill="black" stroke="black" points="609.152,-211.219 618.95,-215.249 613.803,-205.988 609.152,-211.219"/>
</g>
<!-- V2&#45;&gt;V12 -->
<g id="edge96" class="edge"><title>V2&#45;&gt;V12</title>
<path fill="none" stroke="#7f0054" stroke-width="4" d="M531.663,-112.356C565.646,-116.36 628.097,-126.477 676,-150 704.435,-163.963 732.095,-186.854 751.881,-205.365"/>
<polygon fill="#7f0054" stroke="#7f0054" points="749.678,-208.101 759.328,-212.474 754.511,-203.037 749.678,-208.101"/>
</g>
<!-- V10&#45;&gt;G0T -->
<g id="edge104" class="edge"><title>V10&#45;&gt;G0T</title>
<path fill="none" stroke="black" stroke-width="4" d="M537.286,-197.975C593.633,-186.328 717.598,-167.442 814,-201 841.831,-210.688 868.665,-230.353 888.239,-247.251"/>
<polygon fill="black" stroke="black" points="886.096,-250.028 895.9,-254.045 890.741,-244.791 886.096,-250.028"/>
</g>
<!-- V10&#45;&gt;V11 -->
<g id="edge106" class="edge"><title>V10&#45;&gt;V11</title>
<path fill="none" stroke="#7f0054" stroke-width="4" d="M537.861,-209.887C557.123,-213.755 582.12,-219.218 602.907,-224.084"/>
<polygon fill="#7f0054" stroke="#7f0054" points="602.192,-227.511 612.73,-226.414 603.808,-220.7 602.192,-227.511"/>
</g>
<!-- V10&#45;&gt;V11 -->
<g id="edge108" class="edge"><title>V10&#45;&gt;V11</title>
<path fill="none" stroke="black" stroke-width="4" d="M536.846,-214.117C556.064,-218.884 581.293,-224.529 602.334,-228.803"/>
<polygon fill="black" stroke="black" points="601.791,-232.263 612.282,-230.78 603.156,-225.398 601.791,-232.263"/>
</g>
<!-- V10&#45;&gt;V12 -->
<g id="edge110" class="edge"><title>V10&#45;&gt;V12</title>
<path fill="none" stroke="#54007f" stroke-width="4" d="M537.75,-200.981C571.788,-197.293 628.167,-193.449 676,-201 698.668,-204.579 723.107,-212.25 742.699,-219.402"/>
<polygon fill="#54007f" stroke="#54007f" points="741.59,-222.724 752.183,-222.96 744.049,-216.17 741.59,-222.724"/>
</g>
<!-- V1&#45;&gt;V4 -->
<g id="edge114" class="edge"><title>V1&#45;&gt;V4</title>
<path fill="none" stroke="black" stroke-width="4" d="M159.103,-387.468C177.4,-383.269 202.791,-377.441 223.13,-372.774"/>
<polygon fill="black" stroke="black" points="223.983,-376.169 232.947,-370.52 222.417,-369.346 223.983,-376.169"/>
</g>
<!-- V1&#45;&gt;G1T -->
<g id="edge116" class="edge"><title>V1&#45;&gt;G1T</title>
<path fill="none" stroke="black" stroke-width="4" d="M159.502,-394.495C240.171,-399.418 498.137,-415.16 600.531,-421.408"/>
<polygon fill="black" stroke="black" points="600.322,-424.902 610.516,-422.018 600.748,-417.915 600.322,-424.902"/>
</g>
<!-- V1&#45;&gt;V8 -->
<g id="edge118" class="edge"><title>V1&#45;&gt;V8</title>
<path fill="none" stroke="#007f55" stroke-width="4" d="M157.632,-403.218C176.983,-411.51 205.778,-422.804 232,-429 316.83,-449.043 419.602,-455.745 472.236,-457.949"/>
<polygon fill="#007f55" stroke="#007f55" points="472.25,-461.452 482.378,-458.343 472.522,-454.457 472.25,-461.452"/>
</g>
<!-- V6&#45;&gt;G0T -->
<g id="edge122" class="edge"><title>V6&#45;&gt;G0T</title>
<path fill="none" stroke="black" stroke-width="4" d="M281.443,-312.932C326.144,-318.033 424.104,-328 507,-328 507,-328 507,-328 643,-328 727.688,-328 824.597,-304.494 878.1,-289.398"/>
<polygon fill="black" stroke="black" points="879.24,-292.712 887.889,-286.593 877.311,-285.983 879.24,-292.712"/>
</g>
<!-- V6&#45;&gt;G1T -->
<g id="edge124" class="edge"><title>V6&#45;&gt;G1T</title>
<path fill="none" stroke="black" stroke-width="4" d="M280.565,-316.96C344.374,-335.805 521.121,-388.005 601.838,-411.843"/>
<polygon fill="black" stroke="black" points="601.07,-415.266 611.652,-414.742 603.053,-408.553 601.07,-415.266"/>
</g>
<!-- V6&#45;&gt;V7 -->
<g id="edge126" class="edge"><title>V6&#45;&gt;V7</title>
<path fill="none" stroke="black" stroke-width="4" d="M279.661,-300.155C298.664,-291.9 326.015,-280.018 347.208,-270.811"/>
<polygon fill="black" stroke="black" points="348.683,-273.987 356.46,-266.792 345.894,-267.566 348.683,-273.987"/>
</g>
<!-- V6&#45;&gt;V12 -->
<g id="edge128" class="edge"><title>V6&#45;&gt;V12</title>
<path fill="none" stroke="#00557f" stroke-width="4" d="M281.838,-307.996C347.109,-304.541 528.597,-296.702 676,-266 698.044,-261.409 721.976,-253.868 741.417,-247.343"/>
<polygon fill="#00557f" stroke="#00557f" points="742.794,-250.572 751.14,-244.045 740.545,-243.943 742.794,-250.572"/>
</g>
<!-- V6&#45;&gt;V12 -->
<g id="edge130" class="edge"><title>V6&#45;&gt;V12</title>
<path fill="none" stroke="#007f00" stroke-width="4" d="M281.838,-311.348C347.109,-311.541 528.597,-303.702 676,-273 698.948,-268.22 723.94,-260.245 743.784,-252.783"/>
<polygon fill="#007f00" stroke="#007f00" points="745.311,-255.945 753.366,-249.062 742.777,-249.419 745.311,-255.945"/>
</g>
<!-- V6&#45;&gt;V8 -->
<g id="edge132" class="edge"><title>V6&#45;&gt;V8</title>
<path fill="none" stroke="black" stroke-width="4" d="M278.749,-321.624C323.8,-347.317 427.335,-408.969 478.003,-440.213"/>
<polygon fill="black" stroke="black" points="476.189,-443.207 486.533,-445.498 479.875,-437.256 476.189,-443.207"/>
</g>
<!-- V6&#45;&gt;V8 -->
<g id="edge134" class="edge"><title>V6&#45;&gt;V8</title>
<path fill="none" stroke="#007f00" stroke-width="4" d="M277.459,-323.932C321.353,-351.664 424.766,-413.402 476.463,-442.848"/>
<polygon fill="#007f00" stroke="#007f00" points="474.765,-445.908 485.192,-447.788 478.213,-439.816 474.765,-445.908"/>
</g>
<!-- G2T&#45;&gt;T -->
<g id="edge88" class="edge"><title>G2T&#45;&gt;T</title>
<path fill="none" stroke="black" stroke-width="4" d="M804.713,-54.1742C855.544,-101.707 974.271,-212.73 1022.29,-257.636"/>
<polygon fill="black" stroke="black" points="1019.94,-260.225 1029.63,-264.499 1024.72,-255.112 1019.94,-260.225"/>
</g>
</g>
</svg>
