<?xml version="1.0" encoding="UTF-8" standalone="no"?>
<!DOCTYPE svg PUBLIC "-//W3C//DTD SVG 1.1//EN"
 "http://www.w3.org/Graphics/SVG/1.1/DTD/svg11.dtd">
<!-- Generated by graphviz version 2.26.3 (20100126.1600)
 -->
<!-- Title: _anonymous_0 Pages: 1 -->
<svg width="708pt" height="201pt"
 viewBox="0.00 0.00 708.00 201.00" xmlns="http://www.w3.org/2000/svg" xmlns:xlink="http://www.w3.org/1999/xlink">
<g id="graph1" class="graph" transform="scale(1 1) rotate(0) translate(4 197)">
<title>_anonymous_0</title>
<polygon fill="white" stroke="white" points="-4,5 -4,-197 705,-197 705,5 -4,5"/>
<!-- G01 -->
<g id="node1" class="node"><title>G01</title>
<ellipse fill="none" stroke="black" stroke-width="2" cx="281" cy="-118" rx="32.0265" ry="32.5269"/>
<text text-anchor="middle" x="281" y="-114.4" font-family="Times Roman,serif" font-size="14.00">G01</text>
</g>
<!-- G02 -->
<g id="node3" class="node"><title>G02</title>
<ellipse fill="none" stroke="black" stroke-width="2" cx="419" cy="-161" rx="32.0265" ry="32.5269"/>
<text text-anchor="middle" x="419" y="-157.4" font-family="Times Roman,serif" font-size="14.00">G02</text>
</g>
<!-- G01&#45;&gt;G02 -->
<g id="edge2" class="edge"><title>G01&#45;&gt;G02</title>
<path fill="none" stroke="#00007f" stroke-width="4" d="M312.314,-127.757C331.811,-133.832 357.099,-141.712 378.161,-148.275"/>
<polygon fill="#00007f" stroke="#00007f" points="377.221,-151.648 387.81,-151.281 379.304,-144.965 377.221,-151.648"/>
</g>
<!-- G0T -->
<g id="node5" class="node"><title>G0T</title>
<ellipse fill="none" stroke="black" stroke-width="2" cx="557" cy="-132" rx="32.0265" ry="32.5269"/>
<text text-anchor="middle" x="557" y="-128.4" font-family="Times Roman,serif" font-size="14.00">G0T</text>
</g>
<!-- G01&#45;&gt;G0T -->
<g id="edge4" class="edge"><title>G01&#45;&gt;G0T</title>
<path fill="none" stroke="black" stroke-width="4" d="M313.469,-119.419C347.869,-120.946 403.77,-123.494 452,-126 472.462,-127.063 495.161,-128.347 514.204,-129.454"/>
<polygon fill="black" stroke="black" points="514.183,-132.959 524.37,-130.048 514.591,-125.971 514.183,-132.959"/>
</g>
<!-- G02&#45;&gt;G0T -->
<g id="edge6" class="edge"><title>G02&#45;&gt;G0T</title>
<path fill="none" stroke="black" stroke-width="4" d="M451.007,-154.274C470.079,-150.266 494.504,-145.133 515.1,-140.805"/>
<polygon fill="black" stroke="black" points="516.1,-144.171 525.167,-138.69 514.661,-137.321 516.1,-144.171"/>
</g>
<!-- T -->
<g id="node8" class="node"><title>T</title>
<ellipse fill="none" stroke="black" stroke-width="2" cx="681" cy="-96" rx="17.8879" ry="18.3848"/>
<text text-anchor="middle" x="681" y="-92.4" font-family="Times Roman,serif" font-size="14.00">T</text>
</g>
<!-- G0T&#45;&gt;T -->
<g id="edge8" class="edge"><title>G0T&#45;&gt;T</title>
<path fill="none" stroke="black" stroke-width="4" d="M588.29,-122.916C608.36,-117.089 634.172,-109.595 653.462,-103.995"/>
<polygon fill="black" stroke="black" points="654.532,-107.329 663.16,-101.179 652.58,-100.606 654.532,-107.329"/>
</g>
<!-- G0S -->
<g id="node9" class="node"><title>G0S</title>
<ellipse fill="none" stroke="black" stroke-width="2" cx="143" cy="-118" rx="32.0265" ry="32.5269"/>
<text text-anchor="middle" x="143" y="-114.4" font-family="Times Roman,serif" font-size="14.00">G0S</text>
</g>
<!-- G0S&#45;&gt;G01 -->
<g id="edge10" class="edge"><title>G0S&#45;&gt;G01</title>
<path fill="none" stroke="#7f0000" stroke-width="4" d="M175.355,-113.473C194.079,-112.656 217.874,-112.531 238.14,-113.1"/>
<polygon fill="#7f0000" stroke="#7f0000" points="238.253,-116.606 248.37,-113.461 238.499,-109.611 238.253,-116.606"/>
</g>
<!-- G0S&#45;&gt;G01 -->
<g id="edge12" class="edge"><title>G0S&#45;&gt;G01</title>
<path fill="none" stroke="#007f00" stroke-width="4" d="M175.704,-118C194.301,-118 217.816,-118 237.904,-118"/>
<polygon fill="#007f00" stroke="#007f00" points="238.052,-121.5 248.052,-118 238.052,-114.5 238.052,-121.5"/>
</g>
<!-- G0S&#45;&gt;G01 -->
<g id="edge14" class="edge"><title>G0S&#45;&gt;G01</title>
<path fill="none" stroke="black" stroke-width="4" d="M175.355,-122.527C194.079,-123.344 217.874,-123.469 238.14,-122.9"/>
<polygon fill="black" stroke="black" points="238.499,-126.389 248.37,-122.539 238.253,-119.394 238.499,-126.389"/>
</g>
<!-- G1S -->
<g id="node13" class="node"><title>G1S</title>
<ellipse fill="none" stroke="black" stroke-width="2" cx="143" cy="-40" rx="32.0265" ry="32.5269"/>
<text text-anchor="middle" x="143" y="-36.4" font-family="Times Roman,serif" font-size="14.00">G1S</text>
</g>
<!-- G11 -->
<g id="node15" class="node"><title>G11</title>
<ellipse fill="none" stroke="black" stroke-width="2" cx="281" cy="-32" rx="32.0265" ry="32.5269"/>
<text text-anchor="middle" x="281" y="-28.4" font-family="Times Roman,serif" font-size="14.00">G11</text>
</g>
<!-- G1S&#45;&gt;G11 -->
<g id="edge16" class="edge"><title>G1S&#45;&gt;G11</title>
<path fill="none" stroke="black" stroke-width="4" d="M175.355,-36.1842C194.079,-34.7484 217.874,-33.3157 238.14,-32.3848"/>
<polygon fill="black" stroke="black" points="238.529,-35.8714 248.37,-31.9463 238.229,-28.8778 238.529,-35.8714"/>
</g>
<!-- G1S&#45;&gt;G11 -->
<g id="edge18" class="edge"><title>G1S&#45;&gt;G11</title>
<path fill="none" stroke="#7f0000" stroke-width="4" d="M175.704,-40.6996C194.437,-40.0746 218.16,-38.7663 238.344,-37.2694"/>
<polygon fill="#7f0000" stroke="#7f0000" points="238.834,-40.7418 248.531,-36.472 238.288,-33.7631 238.834,-40.7418"/>
</g>
<!-- G12 -->
<g id="node18" class="node"><title>G12</title>
<ellipse fill="none" stroke="black" stroke-width="2" cx="419" cy="-75" rx="32.0265" ry="32.5269"/>
<text text-anchor="middle" x="419" y="-71.4" font-family="Times Roman,serif" font-size="14.00">G12</text>
</g>
<!-- G1S&#45;&gt;G12 -->
<g id="edge20" class="edge"><title>G1S&#45;&gt;G12</title>
<path fill="none" stroke="#007f00" stroke-width="4" d="M174.357,-49.8619C195.047,-55.9205 222.872,-63.2224 248,-67 291.281,-73.5067 341.354,-75.1747 376.082,-75.4178"/>
<polygon fill="#007f00" stroke="#007f00" points="376.331,-78.9186 386.343,-75.4513 376.354,-71.9186 376.331,-78.9186"/>
</g>
<!-- G11&#45;&gt;G12 -->
<g id="edge22" class="edge"><title>G11&#45;&gt;G12</title>
<path fill="none" stroke="#00007f" stroke-width="4" d="M312.314,-41.7574C331.811,-47.8325 357.099,-55.7119 378.161,-62.2747"/>
<polygon fill="#00007f" stroke="#00007f" points="377.221,-65.6479 387.81,-65.2812 379.304,-58.9648 377.221,-65.6479"/>
</g>
<!-- G1T -->
<g id="node21" class="node"><title>G1T</title>
<ellipse fill="none" stroke="black" stroke-width="2" cx="557" cy="-61" rx="32.0265" ry="32.5269"/>
<text text-anchor="middle" x="557" y="-57.4" font-family="Times Roman,serif" font-size="14.00">G1T</text>
</g>
<!-- G11&#45;&gt;G1T -->
<g id="edge24" class="edge"><title>G11&#45;&gt;G1T</title>
<path fill="none" stroke="black" stroke-width="4" d="M313.586,-32.0685C348.084,-32.4808 404.064,-34.1191 452,-40 472.959,-42.5713 495.99,-46.995 515.128,-51.1211"/>
<polygon fill="black" stroke="black" points="514.516,-54.5702 525.035,-53.3045 516.023,-47.7342 514.516,-54.5702"/>
</g>
<!-- G12&#45;&gt;G1T -->
<g id="edge26" class="edge"><title>G12&#45;&gt;G1T</title>
<path fill="none" stroke="black" stroke-width="4" d="M451.355,-71.7176C470.165,-69.8094 494.093,-67.3819 514.418,-65.3199"/>
<polygon fill="black" stroke="black" points="514.774,-68.8019 524.37,-64.3103 514.067,-61.8376 514.774,-68.8019"/>
</g>
<!-- G1T&#45;&gt;T -->
<g id="edge28" class="edge"><title>G1T&#45;&gt;T</title>
<path fill="none" stroke="black" stroke-width="4" d="M588.29,-69.832C608.36,-75.4967 634.172,-82.7825 653.462,-88.2273"/>
<polygon fill="black" stroke="black" points="652.585,-91.6163 663.16,-90.9644 654.486,-84.8795 652.585,-91.6163"/>
</g>
<!-- S -->
<g id="node24" class="node"><title>S</title>
<ellipse fill="none" stroke="black" stroke-width="2" cx="19" cy="-79" rx="17.8879" ry="18.3848"/>
<text text-anchor="middle" x="19" y="-75.4" font-family="Times Roman,serif" font-size="14.00">S</text>
</g>
<!-- S&#45;&gt;G0S -->
<g id="edge30" class="edge"><title>S&#45;&gt;G0S</title>
<path fill="none" stroke="black" stroke-width="4" d="M36.7662,-84.5877C53.7235,-89.9211 79.8922,-98.1516 102.013,-105.109"/>
<polygon fill="black" stroke="black" points="101.255,-108.54 111.845,-108.201 103.355,-101.862 101.255,-108.54"/>
</g>
<!-- S&#45;&gt;G1S -->
<g id="edge32" class="edge"><title>S&#45;&gt;G1S</title>
<path fill="none" stroke="black" stroke-width="4" d="M36.7662,-73.4123C53.7235,-68.0789 79.8922,-59.8484 102.013,-52.891"/>
<polygon fill="black" stroke="black" points="103.355,-56.138 111.845,-49.7989 101.255,-49.4604 103.355,-56.138"/>
</g>
</g>
</svg>
