<?xml version="1.0" encoding="UTF-8" standalone="no"?>
<!DOCTYPE svg PUBLIC "-//W3C//DTD SVG 1.1//EN"
 "http://www.w3.org/Graphics/SVG/1.1/DTD/svg11.dtd">
<!-- Generated by graphviz version 2.26.3 (20100126.1600)
 -->
<!-- Title: _anonymous_0 Pages: 1 -->
<svg width="902pt" height="399pt"
 viewBox="0.00 0.00 902.00 399.13" xmlns="http://www.w3.org/2000/svg" xmlns:xlink="http://www.w3.org/1999/xlink">
<g id="graph1" class="graph" transform="scale(1 1) rotate(0) translate(4 395.128)">
<title>_anonymous_0</title>
<polygon fill="white" stroke="white" points="-4,5 -4,-395.128 899,-395.128 899,5 -4,5"/>
<!-- G02 -->
<g id="node1" class="node"><title>G02</title>
<ellipse fill="none" stroke="black" stroke-width="2" cx="171" cy="-103" rx="32.0265" ry="32.5269"/>
<text text-anchor="middle" x="171" y="-99.4" font-family="Times Roman,serif" font-size="14.00">G02</text>
</g>
<!-- G08 -->
<g id="node3" class="node"><title>G08</title>
<ellipse fill="none" stroke="black" stroke-width="2" cx="585" cy="-281" rx="32.0265" ry="32.5269"/>
<text text-anchor="middle" x="585" y="-277.4" font-family="Times Roman,serif" font-size="14.00">G08</text>
</g>
<!-- G02&#45;&gt;G08 -->
<g id="edge2" class="edge"><title>G02&#45;&gt;G08</title>
<path fill="none" stroke="black" stroke-width="4" d="M180.404,-133.932C194.24,-173.415 224.213,-240.173 276,-270 320.059,-295.376 468.11,-289.22 542.125,-284.303"/>
<polygon fill="black" stroke="black" points="542.75,-287.768 552.487,-283.59 542.27,-280.785 542.75,-287.768"/>
</g>
<!-- G09 -->
<g id="node5" class="node"><title>G09</title>
<ellipse fill="none" stroke="black" stroke-width="2" cx="723" cy="-128" rx="32.0265" ry="32.5269"/>
<text text-anchor="middle" x="723" y="-124.4" font-family="Times Roman,serif" font-size="14.00">G09</text>
</g>
<!-- G02&#45;&gt;G09 -->
<g id="edge4" class="edge"><title>G02&#45;&gt;G09</title>
<path fill="none" stroke="#7f0000" stroke-width="4" d="M202.187,-93.2967C223.045,-89.9303 251.124,-87.1819 276,-86 425.57,-78.8937 602.75,-102.229 681.595,-117.24"/>
<polygon fill="#7f0000" stroke="#7f0000" points="681.122,-120.713 691.609,-119.208 682.472,-113.845 681.122,-120.713"/>
</g>
<!-- G02&#45;&gt;G09 -->
<g id="edge6" class="edge"><title>G02&#45;&gt;G09</title>
<path fill="none" stroke="#007f55" stroke-width="4" d="M203.578,-99.0933C224.282,-96.8098 251.673,-94.1558 276,-93 425.012,-85.9202 601.429,-109.055 680.709,-121.134"/>
<polygon fill="#007f55" stroke="#007f55" points="680.372,-124.624 690.789,-122.691 681.44,-117.706 680.372,-124.624"/>
</g>
<!-- G02&#45;&gt;G09 -->
<g id="edge8" class="edge"><title>G02&#45;&gt;G09</title>
<path fill="none" stroke="#00557f" stroke-width="4" d="M203.578,-105.112C224.282,-103.81 251.673,-101.156 276,-100 424.826,-92.929 600.988,-115.998 680.411,-125.163"/>
<polygon fill="#00557f" stroke="#00557f" points="680.182,-128.66 690.513,-126.31 680.971,-121.704 680.182,-128.66"/>
</g>
<!-- G0T -->
<g id="node9" class="node"><title>G0T</title>
<ellipse fill="none" stroke="black" stroke-width="2" cx="861" cy="-195" rx="32.0265" ry="32.5269"/>
<text text-anchor="middle" x="861" y="-191.4" font-family="Times Roman,serif" font-size="14.00">G0T</text>
</g>
<!-- G02&#45;&gt;G0T -->
<g id="edge10" class="edge"><title>G02&#45;&gt;G0T</title>
<path fill="none" stroke="black" stroke-width="4" d="M201.684,-91.5051C292.251,-59.5676 564.09,21.8494 756,-73 793.12,-91.3462 822.446,-129.326 840.564,-158.065"/>
<polygon fill="black" stroke="black" points="837.617,-159.954 845.824,-166.655 843.587,-156.299 837.617,-159.954"/>
</g>
<!-- G08&#45;&gt;G09 -->
<g id="edge20" class="edge"><title>G08&#45;&gt;G09</title>
<path fill="none" stroke="#007f00" stroke-width="4" d="M606.867,-256.757C630.486,-230.57 668.22,-188.734 694.232,-159.895"/>
<polygon fill="#007f00" stroke="#007f00" points="697.137,-161.9 701.236,-152.13 691.939,-157.211 697.137,-161.9"/>
</g>
<!-- G08&#45;&gt;G0T -->
<g id="edge22" class="edge"><title>G08&#45;&gt;G0T</title>
<path fill="none" stroke="black" stroke-width="4" d="M617.379,-275.897C652.183,-269.93 708.86,-258.817 756,-243 778.862,-235.329 803.427,-224.266 823.044,-214.694"/>
<polygon fill="black" stroke="black" points="824.84,-217.711 832.248,-210.137 821.733,-211.438 824.84,-217.711"/>
</g>
<!-- G09&#45;&gt;G0T -->
<g id="edge60" class="edge"><title>G09&#45;&gt;G0T</title>
<path fill="none" stroke="black" stroke-width="4" d="M752.266,-142.209C772.758,-152.158 800.342,-165.55 822.599,-176.356"/>
<polygon fill="black" stroke="black" points="821.251,-179.592 831.776,-180.812 824.309,-173.295 821.251,-179.592"/>
</g>
<!-- G01 -->
<g id="node10" class="node"><title>G01</title>
<ellipse fill="none" stroke="black" stroke-width="2" cx="447" cy="-351" rx="32.0265" ry="32.5269"/>
<text text-anchor="middle" x="447" y="-347.4" font-family="Times Roman,serif" font-size="14.00">G01</text>
</g>
<!-- G01&#45;&gt;G08 -->
<g id="edge12" class="edge"><title>G01&#45;&gt;G08</title>
<path fill="none" stroke="black" stroke-width="4" d="M475.259,-334.809C495.774,-323.951 523.774,-309.686 546.356,-298.558"/>
<polygon fill="black" stroke="black" points="547.907,-301.696 555.348,-294.154 544.828,-295.409 547.907,-301.696"/>
</g>
<!-- G01&#45;&gt;G08 -->
<g id="edge14" class="edge"><title>G01&#45;&gt;G08</title>
<path fill="none" stroke="#7f0000" stroke-width="4" d="M476.944,-338.335C497.846,-328.306 525.877,-314.143 548.151,-302.381"/>
<polygon fill="#7f0000" stroke="#7f0000" points="549.813,-305.462 556.996,-297.673 546.524,-299.282 549.813,-305.462"/>
</g>
<!-- G01&#45;&gt;G09 -->
<g id="edge16" class="edge"><title>G01&#45;&gt;G09</title>
<path fill="none" stroke="#7f5500" stroke-width="4" d="M479.619,-347.794C522.895,-342.994 596.355,-332.782 618,-317 668.087,-280.482 697.247,-212.432 711.636,-168.726"/>
<polygon fill="#7f5500" stroke="#7f5500" points="715.04,-169.573 714.733,-158.983 708.369,-167.453 715.04,-169.573"/>
</g>
<!-- G01&#45;&gt;G0T -->
<g id="edge18" class="edge"><title>G01&#45;&gt;G0T</title>
<path fill="none" stroke="black" stroke-width="4" d="M479.593,-351.081C514.577,-350.323 571.405,-346.63 618,-332 698.306,-306.785 781.573,-252.663 826.766,-220.505"/>
<polygon fill="black" stroke="black" points="828.941,-223.253 835.019,-214.575 824.856,-217.568 828.941,-223.253"/>
</g>
<!-- G0S -->
<g id="node17" class="node"><title>G0S</title>
<ellipse fill="none" stroke="black" stroke-width="2" cx="33" cy="-174" rx="32.0265" ry="32.5269"/>
<text text-anchor="middle" x="33" y="-170.4" font-family="Times Roman,serif" font-size="14.00">G0S</text>
</g>
<!-- G0S&#45;&gt;G02 -->
<g id="edge38" class="edge"><title>G0S&#45;&gt;G02</title>
<path fill="none" stroke="#547f00" stroke-width="4" d="M61.9293,-159.116C82.6298,-148.466 110.694,-134.027 133.17,-122.463"/>
<polygon fill="#547f00" stroke="#547f00" points="134.818,-125.552 142.109,-117.864 131.615,-119.327 134.818,-125.552"/>
</g>
<!-- G0S&#45;&gt;G08 -->
<g id="edge24" class="edge"><title>G0S&#45;&gt;G08</title>
<path fill="none" stroke="#00007f" stroke-width="4" d="M52.9483,-199.594C72.1559,-222.281 103.336,-254.323 138,-271 274.005,-336.432 461.269,-308.24 543.474,-290.896"/>
<polygon fill="#00007f" stroke="#00007f" points="544.401,-294.277 553.433,-288.738 542.919,-287.435 544.401,-294.277"/>
</g>
<!-- G0S&#45;&gt;G01 -->
<g id="edge32" class="edge"><title>G0S&#45;&gt;G01</title>
<path fill="none" stroke="#54007f" stroke-width="4" d="M44.0563,-204.194C59.1439,-240.576 89.9317,-300.265 138,-328 222.523,-376.77 342.413,-367.972 405.108,-358.703"/>
<polygon fill="#54007f" stroke="#54007f" points="405.687,-362.155 415.031,-357.16 404.612,-355.238 405.687,-362.155"/>
</g>
<!-- G04 -->
<g id="node20" class="node"><title>G04</title>
<ellipse fill="none" stroke="black" stroke-width="2" cx="171" cy="-32" rx="32.0265" ry="32.5269"/>
<text text-anchor="middle" x="171" y="-28.4" font-family="Times Roman,serif" font-size="14.00">G04</text>
</g>
<!-- G0S&#45;&gt;G04 -->
<g id="edge26" class="edge"><title>G0S&#45;&gt;G04</title>
<path fill="none" stroke="#00557f" stroke-width="4" d="M55.4792,-150.869C78.8356,-126.836 115.504,-89.105 141.249,-62.6135"/>
<polygon fill="#00557f" stroke="#00557f" points="144.071,-64.7315 148.53,-55.1209 139.051,-59.853 144.071,-64.7315"/>
</g>
<!-- G03 -->
<g id="node22" class="node"><title>G03</title>
<ellipse fill="none" stroke="black" stroke-width="2" cx="171" cy="-235" rx="32.0265" ry="32.5269"/>
<text text-anchor="middle" x="171" y="-231.4" font-family="Times Roman,serif" font-size="14.00">G03</text>
</g>
<!-- G0S&#45;&gt;G03 -->
<g id="edge28" class="edge"><title>G0S&#45;&gt;G03</title>
<path fill="none" stroke="#007f55" stroke-width="4" d="M62.9439,-187.236C83.1073,-196.149 109.905,-207.994 131.77,-217.659"/>
<polygon fill="#007f55" stroke="#007f55" points="130.553,-220.948 141.114,-221.79 133.383,-214.546 130.553,-220.948"/>
</g>
<!-- G06 -->
<g id="node24" class="node"><title>G06</title>
<ellipse fill="none" stroke="black" stroke-width="2" cx="309" cy="-128" rx="32.0265" ry="32.5269"/>
<text text-anchor="middle" x="309" y="-124.4" font-family="Times Roman,serif" font-size="14.00">G06</text>
</g>
<!-- G0S&#45;&gt;G06 -->
<g id="edge30" class="edge"><title>G0S&#45;&gt;G06</title>
<path fill="none" stroke="#7f0054" stroke-width="4" d="M65.2009,-168.633C115.03,-160.328 210.851,-144.358 266.369,-135.105"/>
<polygon fill="#7f0054" stroke="#7f0054" points="267.289,-138.5 276.578,-133.404 266.138,-131.595 267.289,-138.5"/>
</g>
<!-- G07 -->
<g id="node27" class="node"><title>G07</title>
<ellipse fill="none" stroke="black" stroke-width="2" cx="447" cy="-195" rx="32.0265" ry="32.5269"/>
<text text-anchor="middle" x="447" y="-191.4" font-family="Times Roman,serif" font-size="14.00">G07</text>
</g>
<!-- G0S&#45;&gt;G07 -->
<g id="edge34" class="edge"><title>G0S&#45;&gt;G07</title>
<path fill="none" stroke="black" stroke-width="4" d="M65.8319,-174.379C140.203,-176.918 321.481,-186.064 404.371,-191.404"/>
<polygon fill="black" stroke="black" points="404.243,-194.903 414.451,-192.067 404.703,-187.918 404.243,-194.903"/>
</g>
<!-- G0S&#45;&gt;G07 -->
<g id="edge36" class="edge"><title>G0S&#45;&gt;G07</title>
<path fill="none" stroke="#7f0000" stroke-width="4" d="M65.4859,-177.356C139.611,-182.767 321.216,-192.047 404.278,-194.747"/>
<polygon fill="#7f0000" stroke="#7f0000" points="404.277,-198.248 414.379,-195.056 404.491,-191.252 404.277,-198.248"/>
</g>
<!-- G04&#45;&gt;G09 -->
<g id="edge52" class="edge"><title>G04&#45;&gt;G09</title>
<path fill="none" stroke="#54007f" stroke-width="4" d="M203.404,-34.7191C277.264,-43.2346 463.651,-69.4132 618,-100 639.288,-104.219 662.804,-109.737 682.175,-114.793"/>
<polygon fill="#54007f" stroke="#54007f" points="681.33,-118.19 691.894,-117.386 683.134,-111.426 681.33,-118.19"/>
</g>
<!-- G04&#45;&gt;G09 -->
<g id="edge54" class="edge"><title>G04&#45;&gt;G09</title>
<path fill="none" stroke="#00007f" stroke-width="4" d="M203.128,-38.3244C276.799,-50.1693 463.458,-76.375 618,-107 638.723,-111.107 661.557,-116.445 680.624,-120.792"/>
<polygon fill="#00007f" stroke="#00007f" points="679.98,-124.234 690.505,-123.026 681.524,-117.407 679.98,-124.234"/>
</g>
<!-- G04&#45;&gt;G0T -->
<g id="edge58" class="edge"><title>G04&#45;&gt;G0T</title>
<path fill="none" stroke="black" stroke-width="4" d="M203.67,-28.4867C255.284,-23.2484 358.886,-14 447,-14 447,-14 447,-14 585,-14 662.488,-14 690.906,-5.96301 756,-48 796.579,-74.2052 826.337,-122.088 843.606,-156.078"/>
<polygon fill="black" stroke="black" points="840.578,-157.851 848.144,-165.267 846.854,-154.751 840.578,-157.851"/>
</g>
<!-- G05 -->
<g id="node39" class="node"><title>G05</title>
<ellipse fill="none" stroke="black" stroke-width="2" cx="309" cy="-235" rx="32.0265" ry="32.5269"/>
<text text-anchor="middle" x="309" y="-231.4" font-family="Times Roman,serif" font-size="14.00">G05</text>
</g>
<!-- G04&#45;&gt;G05 -->
<g id="edge56" class="edge"><title>G04&#45;&gt;G05</title>
<path fill="none" stroke="black" stroke-width="4" d="M193.638,-55.4872C197.233,-59.5537 200.812,-63.8204 204,-68 236.413,-110.494 268.327,-163.237 288.305,-197.943"/>
<polygon fill="black" stroke="black" points="285.364,-199.852 293.367,-206.795 291.441,-196.377 285.364,-199.852"/>
</g>
<!-- G03&#45;&gt;G08 -->
<g id="edge62" class="edge"><title>G03&#45;&gt;G08</title>
<path fill="none" stroke="#54007f" stroke-width="4" d="M198.812,-251.716C219.337,-263.037 248.385,-276.987 276,-283 369.213,-303.296 482.023,-294.431 542.229,-287.124"/>
<polygon fill="#54007f" stroke="#54007f" points="543.006,-290.554 552.49,-285.831 542.13,-283.609 543.006,-290.554"/>
</g>
<!-- G03&#45;&gt;G09 -->
<g id="edge64" class="edge"><title>G03&#45;&gt;G09</title>
<path fill="none" stroke="#00557f" stroke-width="4" d="M201.679,-224.417C222.562,-217.302 250.866,-207.828 276,-200 336.969,-181.011 351.233,-171.751 414,-160 503.465,-143.252 527.534,-152.017 618,-142 638.512,-139.729 661.217,-136.759 680.251,-134.139"/>
<polygon fill="#00557f" stroke="#00557f" points="680.988,-137.57 690.411,-132.726 680.024,-130.637 680.988,-137.57"/>
</g>
<!-- G03&#45;&gt;G0T -->
<g id="edge68" class="edge"><title>G03&#45;&gt;G0T</title>
<path fill="none" stroke="black" stroke-width="4" d="M195.31,-256.724C236.666,-292.056 324.924,-360.578 414,-386 442.207,-394.05 451.001,-390.413 480,-386 608.542,-366.437 645.261,-357.136 756,-289 784.271,-271.605 812.067,-246.247 831.951,-226.252"/>
<polygon fill="black" stroke="black" points="834.674,-228.473 839.169,-218.879 829.672,-223.576 834.674,-228.473"/>
</g>
<!-- G03&#45;&gt;G05 -->
<g id="edge66" class="edge"><title>G03&#45;&gt;G05</title>
<path fill="none" stroke="black" stroke-width="4" d="M203.704,-235C222.301,-235 245.816,-235 265.904,-235"/>
<polygon fill="black" stroke="black" points="266.052,-238.5 276.052,-235 266.052,-231.5 266.052,-238.5"/>
</g>
<!-- G06&#45;&gt;G09 -->
<g id="edge40" class="edge"><title>G06&#45;&gt;G09</title>
<path fill="none" stroke="#00007f" stroke-width="4" d="M341.486,-123.73C415.703,-119.597 597.664,-119.43 680.585,-123.229"/>
<polygon fill="#00007f" stroke="#00007f" points="680.501,-126.729 690.665,-123.738 680.854,-119.738 680.501,-126.729"/>
</g>
<!-- G06&#45;&gt;G09 -->
<g id="edge42" class="edge"><title>G06&#45;&gt;G09</title>
<path fill="none" stroke="#007f55" stroke-width="4" d="M341.486,-126.719C415.611,-125.481 597.216,-125.429 680.278,-126.565"/>
<polygon fill="#007f55" stroke="#007f55" points="680.327,-130.066 690.379,-126.717 680.433,-123.066 680.327,-130.066"/>
</g>
<!-- G06&#45;&gt;G09 -->
<g id="edge44" class="edge"><title>G06&#45;&gt;G09</title>
<path fill="none" stroke="#54007f" stroke-width="4" d="M341.486,-129.708C415.611,-131.359 597.216,-131.428 680.278,-129.914"/>
<polygon fill="#54007f" stroke="#54007f" points="680.451,-133.411 690.379,-129.711 680.311,-126.413 680.451,-133.411"/>
</g>
<!-- G06&#45;&gt;G09 -->
<g id="edge46" class="edge"><title>G06&#45;&gt;G09</title>
<path fill="none" stroke="#547f00" stroke-width="4" d="M341.486,-132.697C415.703,-137.243 597.664,-137.427 680.585,-133.248"/>
<polygon fill="#547f00" stroke="#547f00" points="680.875,-136.737 690.665,-132.688 680.486,-129.748 680.875,-136.737"/>
</g>
<!-- G06&#45;&gt;G0T -->
<g id="edge48" class="edge"><title>G06&#45;&gt;G0T</title>
<path fill="none" stroke="black" stroke-width="4" d="M339.442,-116.577C413.817,-90.5479 609.395,-33.5151 756,-93 789.284,-106.505 817.821,-136.188 836.707,-160.07"/>
<polygon fill="black" stroke="black" points="834.112,-162.437 842.977,-168.239 839.665,-158.175 834.112,-162.437"/>
</g>
<!-- G06&#45;&gt;G07 -->
<g id="edge50" class="edge"><title>G06&#45;&gt;G07</title>
<path fill="none" stroke="black" stroke-width="4" d="M338.266,-142.209C358.758,-152.158 386.342,-165.55 408.599,-176.356"/>
<polygon fill="black" stroke="black" points="407.251,-179.592 417.776,-180.812 410.309,-173.295 407.251,-179.592"/>
</g>
<!-- G07&#45;&gt;G08 -->
<g id="edge70" class="edge"><title>G07&#45;&gt;G08</title>
<path fill="none" stroke="#7f5500" stroke-width="4" d="M475.594,-210.955C497.155,-223.923 526.844,-242.383 549.854,-257.108"/>
<polygon fill="#7f5500" stroke="#7f5500" points="548.011,-260.084 558.316,-262.549 551.798,-254.197 548.011,-260.084"/>
</g>
<!-- G07&#45;&gt;G08 -->
<g id="edge72" class="edge"><title>G07&#45;&gt;G08</title>
<path fill="none" stroke="black" stroke-width="4" d="M473.608,-214.007C494.582,-227.736 524.088,-246.216 547.463,-260.311"/>
<polygon fill="black" stroke="black" points="545.714,-263.343 556.092,-265.479 549.311,-257.338 545.714,-263.343"/>
</g>
<!-- G07&#45;&gt;G09 -->
<g id="edge74" class="edge"><title>G07&#45;&gt;G09</title>
<path fill="none" stroke="#7f0000" stroke-width="4" d="M478.945,-188.408C513.381,-181.184 569.751,-169.016 618,-157 639.097,-151.746 662.42,-145.363 681.716,-139.924"/>
<polygon fill="#7f0000" stroke="#7f0000" points="682.74,-143.272 691.406,-137.177 680.831,-136.537 682.74,-143.272"/>
</g>
<!-- G07&#45;&gt;G0T -->
<g id="edge76" class="edge"><title>G07&#45;&gt;G0T</title>
<path fill="none" stroke="black" stroke-width="4" d="M479.832,-195C554.203,-195 735.481,-195 818.371,-195"/>
<polygon fill="black" stroke="black" points="818.451,-198.5 828.451,-195 818.451,-191.5 818.451,-198.5"/>
</g>
<!-- G05&#45;&gt;G08 -->
<g id="edge78" class="edge"><title>G05&#45;&gt;G08</title>
<path fill="none" stroke="#7f0000" stroke-width="4" d="M341.201,-240.367C391.03,-248.672 486.851,-264.642 542.369,-273.895"/>
<polygon fill="#7f0000" stroke="#7f0000" points="542.138,-277.405 552.578,-275.596 543.289,-270.5 542.138,-277.405"/>
</g>
<!-- G05&#45;&gt;G0T -->
<g id="edge80" class="edge"><title>G05&#45;&gt;G0T</title>
<path fill="none" stroke="black" stroke-width="4" d="M341.809,-234.648C376.253,-234.136 431.973,-232.905 480,-230 603.136,-222.551 748.127,-207.49 818.459,-199.781"/>
<polygon fill="black" stroke="black" points="819.131,-203.229 828.687,-198.654 818.364,-196.271 819.131,-203.229"/>
</g>
<!-- G05&#45;&gt;G07 -->
<g id="edge82" class="edge"><title>G05&#45;&gt;G07</title>
<path fill="none" stroke="black" stroke-width="4" d="M340.314,-225.923C359.811,-220.272 385.099,-212.942 406.161,-206.838"/>
<polygon fill="black" stroke="black" points="407.179,-210.186 415.81,-204.041 405.231,-203.463 407.179,-210.186"/>
</g>
</g>
</svg>
