<?xml version="1.0" encoding="UTF-8" standalone="no"?>
<!DOCTYPE svg PUBLIC "-//W3C//DTD SVG 1.1//EN"
 "http://www.w3.org/Graphics/SVG/1.1/DTD/svg11.dtd">
<!-- Generated by graphviz version 2.26.3 (20100126.1600)
 -->
<!-- Title: _anonymous_0 Pages: 1 -->
<svg width="708pt" height="179pt"
 viewBox="0.00 0.00 708.00 178.52" xmlns="http://www.w3.org/2000/svg" xmlns:xlink="http://www.w3.org/1999/xlink">
<g id="graph1" class="graph" transform="scale(1 1) rotate(0) translate(4 174.524)">
<title>_anonymous_0</title>
<polygon fill="white" stroke="white" points="-4,5 -4,-174.524 705,-174.524 705,5 -4,5"/>
<!-- G01 -->
<g id="node1" class="node"><title>G01</title>
<ellipse fill="none" stroke="black" stroke-width="2" cx="281" cy="-132" rx="32.0265" ry="32.5269"/>
<text text-anchor="middle" x="281" y="-128.4" font-family="Times Roman,serif" font-size="14.00">G01</text>
</g>
<!-- G0T -->
<g id="node3" class="node"><title>G0T</title>
<ellipse fill="none" stroke="black" stroke-width="2" cx="557" cy="-132" rx="32.0265" ry="32.5269"/>
<text text-anchor="middle" x="557" y="-128.4" font-family="Times Roman,serif" font-size="14.00">G0T</text>
</g>
<!-- G01&#45;&gt;G0T -->
<g id="edge2" class="edge"><title>G01&#45;&gt;G0T</title>
<path fill="none" stroke="black" stroke-width="4" d="M311.128,-144.924C331.771,-153.056 360.015,-162.783 386,-167 414.955,-171.699 423.045,-171.699 452,-167 474.229,-163.393 498.112,-155.753 517.475,-148.528"/>
<polygon fill="black" stroke="black" points="518.789,-151.773 526.872,-144.924 516.282,-145.237 518.789,-151.773"/>
</g>
<!-- G02 -->
<g id="node5" class="node"><title>G02</title>
<ellipse fill="none" stroke="black" stroke-width="2" cx="419" cy="-132" rx="32.0265" ry="32.5269"/>
<text text-anchor="middle" x="419" y="-128.4" font-family="Times Roman,serif" font-size="14.00">G02</text>
</g>
<!-- G01&#45;&gt;G02 -->
<g id="edge4" class="edge"><title>G01&#45;&gt;G02</title>
<path fill="none" stroke="#7f0000" stroke-width="4" d="M313.704,-132C332.301,-132 355.816,-132 375.904,-132"/>
<polygon fill="#7f0000" stroke="#7f0000" points="376.052,-135.5 386.052,-132 376.052,-128.5 376.052,-135.5"/>
</g>
<!-- T -->
<g id="node8" class="node"><title>T</title>
<ellipse fill="none" stroke="black" stroke-width="2" cx="681" cy="-96" rx="17.8879" ry="18.3848"/>
<text text-anchor="middle" x="681" y="-92.4" font-family="Times Roman,serif" font-size="14.00">T</text>
</g>
<!-- G0T&#45;&gt;T -->
<g id="edge8" class="edge"><title>G0T&#45;&gt;T</title>
<path fill="none" stroke="black" stroke-width="4" d="M588.29,-122.916C608.36,-117.089 634.172,-109.595 653.462,-103.995"/>
<polygon fill="black" stroke="black" points="654.532,-107.329 663.16,-101.179 652.58,-100.606 654.532,-107.329"/>
</g>
<!-- G02&#45;&gt;G0T -->
<g id="edge6" class="edge"><title>G02&#45;&gt;G0T</title>
<path fill="none" stroke="black" stroke-width="4" d="M451.704,-132C470.301,-132 493.816,-132 513.904,-132"/>
<polygon fill="black" stroke="black" points="514.052,-135.5 524.052,-132 514.052,-128.5 514.052,-135.5"/>
</g>
<!-- G0S -->
<g id="node9" class="node"><title>G0S</title>
<ellipse fill="none" stroke="black" stroke-width="2" cx="143" cy="-132" rx="32.0265" ry="32.5269"/>
<text text-anchor="middle" x="143" y="-128.4" font-family="Times Roman,serif" font-size="14.00">G0S</text>
</g>
<!-- G0S&#45;&gt;G01 -->
<g id="edge10" class="edge"><title>G0S&#45;&gt;G01</title>
<path fill="none" stroke="#007f00" stroke-width="4" d="M175.355,-127.473C194.079,-126.656 217.874,-126.531 238.14,-127.1"/>
<polygon fill="#007f00" stroke="#007f00" points="238.253,-130.606 248.37,-127.461 238.499,-123.611 238.253,-130.606"/>
</g>
<!-- G0S&#45;&gt;G01 -->
<g id="edge12" class="edge"><title>G0S&#45;&gt;G01</title>
<path fill="none" stroke="#00007f" stroke-width="4" d="M175.704,-132C194.301,-132 217.816,-132 237.904,-132"/>
<polygon fill="#00007f" stroke="#00007f" points="238.052,-135.5 248.052,-132 238.052,-128.5 238.052,-135.5"/>
</g>
<!-- G0S&#45;&gt;G01 -->
<g id="edge14" class="edge"><title>G0S&#45;&gt;G01</title>
<path fill="none" stroke="black" stroke-width="4" d="M175.355,-136.527C194.079,-137.344 217.874,-137.469 238.14,-136.9"/>
<polygon fill="black" stroke="black" points="238.499,-140.389 248.37,-136.539 238.253,-133.394 238.499,-140.389"/>
</g>
<!-- G1S -->
<g id="node13" class="node"><title>G1S</title>
<ellipse fill="none" stroke="black" stroke-width="2" cx="143" cy="-47" rx="32.0265" ry="32.5269"/>
<text text-anchor="middle" x="143" y="-43.4" font-family="Times Roman,serif" font-size="14.00">G1S</text>
</g>
<!-- G11 -->
<g id="node15" class="node"><title>G11</title>
<ellipse fill="none" stroke="black" stroke-width="2" cx="281" cy="-32" rx="32.0265" ry="32.5269"/>
<text text-anchor="middle" x="281" y="-28.4" font-family="Times Roman,serif" font-size="14.00">G11</text>
</g>
<!-- G1S&#45;&gt;G11 -->
<g id="edge16" class="edge"><title>G1S&#45;&gt;G11</title>
<path fill="none" stroke="black" stroke-width="4" d="M175.355,-41.543C194.079,-39.1575 217.874,-36.5178 238.14,-34.5589"/>
<polygon fill="black" stroke="black" points="238.739,-38.0181 248.37,-33.6015 238.087,-31.0486 238.739,-38.0181"/>
</g>
<!-- G1S&#45;&gt;G11 -->
<g id="edge18" class="edge"><title>G1S&#45;&gt;G11</title>
<path fill="none" stroke="#007f00" stroke-width="4" d="M175.704,-46.0407C194.659,-44.4467 218.723,-41.8942 239.061,-39.3434"/>
<polygon fill="#007f00" stroke="#007f00" points="239.539,-42.8107 249.007,-38.0553 238.64,-35.8687 239.539,-42.8107"/>
</g>
<!-- G12 -->
<g id="node18" class="node"><title>G12</title>
<ellipse fill="none" stroke="black" stroke-width="2" cx="419" cy="-61" rx="32.0265" ry="32.5269"/>
<text text-anchor="middle" x="419" y="-57.4" font-family="Times Roman,serif" font-size="14.00">G12</text>
</g>
<!-- G1S&#45;&gt;G12 -->
<g id="edge20" class="edge"><title>G1S&#45;&gt;G12</title>
<path fill="none" stroke="#00007f" stroke-width="4" d="M174.944,-54.7053C195.636,-59.2931 223.244,-64.6633 248,-67 291.553,-71.1109 341.585,-68.5067 376.229,-65.5527"/>
<polygon fill="#00007f" stroke="#00007f" points="376.817,-69.0141 386.463,-64.6318 376.189,-62.0423 376.817,-69.0141"/>
</g>
<!-- G11&#45;&gt;G12 -->
<g id="edge22" class="edge"><title>G11&#45;&gt;G12</title>
<path fill="none" stroke="#7f0000" stroke-width="4" d="M313.007,-38.7261C332.079,-42.734 356.504,-47.8669 377.1,-52.1949"/>
<polygon fill="#7f0000" stroke="#7f0000" points="376.661,-55.679 387.167,-54.3104 378.1,-48.8286 376.661,-55.679"/>
</g>
<!-- G1T -->
<g id="node21" class="node"><title>G1T</title>
<ellipse fill="none" stroke="black" stroke-width="2" cx="557" cy="-61" rx="32.0265" ry="32.5269"/>
<text text-anchor="middle" x="557" y="-57.4" font-family="Times Roman,serif" font-size="14.00">G1T</text>
</g>
<!-- G11&#45;&gt;G1T -->
<g id="edge24" class="edge"><title>G11&#45;&gt;G1T</title>
<path fill="none" stroke="black" stroke-width="4" d="M313.383,-27.129C347.949,-22.7972 404.205,-18.2439 452,-26 474.229,-29.6073 498.112,-37.2473 517.475,-44.4716"/>
<polygon fill="black" stroke="black" points="516.282,-47.7627 526.872,-48.0761 518.789,-41.2269 516.282,-47.7627"/>
</g>
<!-- G12&#45;&gt;G1T -->
<g id="edge26" class="edge"><title>G12&#45;&gt;G1T</title>
<path fill="none" stroke="black" stroke-width="4" d="M451.704,-61C470.301,-61 493.816,-61 513.904,-61"/>
<polygon fill="black" stroke="black" points="514.052,-64.5001 524.052,-61 514.052,-57.5001 514.052,-64.5001"/>
</g>
<!-- G1T&#45;&gt;T -->
<g id="edge28" class="edge"><title>G1T&#45;&gt;T</title>
<path fill="none" stroke="black" stroke-width="4" d="M588.29,-69.832C608.36,-75.4967 634.172,-82.7825 653.462,-88.2273"/>
<polygon fill="black" stroke="black" points="652.585,-91.6163 663.16,-90.9644 654.486,-84.8795 652.585,-91.6163"/>
</g>
<!-- S -->
<g id="node24" class="node"><title>S</title>
<ellipse fill="none" stroke="black" stroke-width="2" cx="19" cy="-89" rx="17.8879" ry="18.3848"/>
<text text-anchor="middle" x="19" y="-85.4" font-family="Times Roman,serif" font-size="14.00">S</text>
</g>
<!-- S&#45;&gt;G0S -->
<g id="edge32" class="edge"><title>S&#45;&gt;G0S</title>
<path fill="none" stroke="black" stroke-width="4" d="M36.5032,-95.0696C53.6003,-100.998 80.2388,-110.236 102.596,-117.989"/>
<polygon fill="black" stroke="black" points="101.6,-121.348 112.195,-121.318 103.894,-114.734 101.6,-121.348"/>
</g>
<!-- S&#45;&gt;G1S -->
<g id="edge30" class="edge"><title>S&#45;&gt;G1S</title>
<path fill="none" stroke="black" stroke-width="4" d="M36.5032,-83.0715C53.6003,-77.2805 80.2388,-68.2578 102.596,-60.6852"/>
<polygon fill="black" stroke="black" points="103.847,-63.957 112.195,-57.4339 101.601,-57.327 103.847,-63.957"/>
</g>
</g>
</svg>
