<?xml version="1.0" encoding="UTF-8" standalone="no"?>
<!DOCTYPE svg PUBLIC "-//W3C//DTD SVG 1.1//EN"
 "http://www.w3.org/Graphics/SVG/1.1/DTD/svg11.dtd">
<!-- Generated by graphviz version 2.26.3 (20100126.1600)
 -->
<!-- Title: _anonymous_0 Pages: 1 -->
<svg width="488pt" height="93pt"
 viewBox="0.00 0.00 488.00 93.00" xmlns="http://www.w3.org/2000/svg" xmlns:xlink="http://www.w3.org/1999/xlink">
<g id="graph1" class="graph" transform="scale(1 1) rotate(0) translate(4 89)">
<title>_anonymous_0</title>
<polygon fill="white" stroke="white" points="-4,5 -4,-89 485,-89 485,5 -4,5"/>
<!-- G01 -->
<g id="node1" class="node"><title>G01</title>
<ellipse fill="none" stroke="black" stroke-width="2" cx="171" cy="-53" rx="32.0265" ry="32.5269"/>
<text text-anchor="middle" x="171" y="-49.4" font-family="Times Roman,serif" font-size="14.00">G01</text>
</g>
<!-- G0T -->
<g id="node3" class="node"><title>G0T</title>
<ellipse fill="none" stroke="black" stroke-width="2" cx="447" cy="-53" rx="32.0265" ry="32.5269"/>
<text text-anchor="middle" x="447" y="-49.4" font-family="Times Roman,serif" font-size="14.00">G0T</text>
</g>
<!-- G01&#45;&gt;G0T -->
<g id="edge2" class="edge"><title>G01&#45;&gt;G0T</title>
<path fill="none" stroke="black" stroke-width="4" d="M203.058,-58.3962C223.795,-61.6086 251.411,-65.3679 276,-67 305.269,-68.9427 312.731,-68.9427 342,-67 362.843,-65.6166 385.861,-62.7047 405.021,-59.893"/>
<polygon fill="black" stroke="black" points="405.576,-63.3489 414.942,-58.3962 404.532,-56.4272 405.576,-63.3489"/>
</g>
<!-- G02 -->
<g id="node5" class="node"><title>G02</title>
<ellipse fill="none" stroke="black" stroke-width="2" cx="309" cy="-32" rx="32.0265" ry="32.5269"/>
<text text-anchor="middle" x="309" y="-28.4" font-family="Times Roman,serif" font-size="14.00">G02</text>
</g>
<!-- G01&#45;&gt;G02 -->
<g id="edge4" class="edge"><title>G01&#45;&gt;G02</title>
<path fill="none" stroke="#7f0000" stroke-width="4" d="M203.355,-48.0764C222.301,-45.1933 246.44,-41.5201 266.859,-38.4127"/>
<polygon fill="#7f0000" stroke="#7f0000" points="267.488,-41.8574 276.848,-36.8927 266.435,-34.9371 267.488,-41.8574"/>
</g>
<!-- G02&#45;&gt;G0T -->
<g id="edge6" class="edge"><title>G02&#45;&gt;G0T</title>
<path fill="none" stroke="black" stroke-width="4" d="M341.355,-36.9236C360.301,-39.8067 384.44,-43.4799 404.859,-46.5873"/>
<polygon fill="black" stroke="black" points="404.435,-50.0629 414.848,-48.1073 405.488,-43.1426 404.435,-50.0629"/>
</g>
<!-- G0S -->
<g id="node7" class="node"><title>G0S</title>
<ellipse fill="none" stroke="black" stroke-width="2" cx="33" cy="-53" rx="32.0265" ry="32.5269"/>
<text text-anchor="middle" x="33" y="-49.4" font-family="Times Roman,serif" font-size="14.00">G0S</text>
</g>
<!-- G0S&#45;&gt;G01 -->
<g id="edge8" class="edge"><title>G0S&#45;&gt;G01</title>
<path fill="none" stroke="#007f00" stroke-width="4" d="M65.3549,-48.473C84.0787,-47.6555 107.874,-47.5313 128.14,-48.1003"/>
<polygon fill="#007f00" stroke="#007f00" points="128.253,-51.6063 138.37,-48.461 128.499,-44.6107 128.253,-51.6063"/>
</g>
<!-- G0S&#45;&gt;G01 -->
<g id="edge10" class="edge"><title>G0S&#45;&gt;G01</title>
<path fill="none" stroke="#00007f" stroke-width="4" d="M65.7041,-53C84.3013,-53 107.816,-53 127.904,-53"/>
<polygon fill="#00007f" stroke="#00007f" points="128.052,-56.5001 138.052,-53 128.052,-49.5001 128.052,-56.5001"/>
</g>
<!-- G0S&#45;&gt;G01 -->
<g id="edge12" class="edge"><title>G0S&#45;&gt;G01</title>
<path fill="none" stroke="black" stroke-width="4" d="M65.3549,-57.527C84.0787,-58.3445 107.874,-58.4687 128.14,-57.8997"/>
<polygon fill="black" stroke="black" points="128.499,-61.3893 138.37,-57.539 128.253,-54.3937 128.499,-61.3893"/>
</g>
</g>
</svg>
