<?xml version="1.0" encoding="UTF-8" standalone="no"?>
<!DOCTYPE svg PUBLIC "-//W3C//DTD SVG 1.1//EN"
 "http://www.w3.org/Graphics/SVG/1.1/DTD/svg11.dtd">
<!-- Generated by graphviz version 2.36.0 (20140111.2315)
 -->
<!-- Title: %3 Pages: 1 -->
<svg width="566pt" height="99pt"
 viewBox="0.00 0.00 566.00 98.86" xmlns="http://www.w3.org/2000/svg" xmlns:xlink="http://www.w3.org/1999/xlink">
<g id="graph0" class="graph" transform="scale(1 1) rotate(0) translate(4 94.8551)">
<title>%3</title>
<polygon fill="white" stroke="none" points="-4,4 -4,-94.8551 562,-94.8551 562,4 -4,4"/>
<!-- 0 -->
<g id="node1" class="node"><title>0</title>
<ellipse fill="none" stroke="black" stroke-width="2" cx="27" cy="-44.8551" rx="27" ry="18"/>
<text text-anchor="middle" x="27" y="-41.1551" font-family="Times,serif" font-size="14.00">0</text>
</g>
<!-- 1 -->
<g id="node2" class="node"><title>1</title>
<ellipse fill="none" stroke="black" stroke-width="2" cx="153" cy="-44.8551" rx="27" ry="18"/>
<text text-anchor="middle" x="153" y="-41.1551" font-family="Times,serif" font-size="14.00">1</text>
</g>
<!-- 0&#45;&gt;1 -->
<g id="edge1" class="edge"><title>0&#45;&gt;1</title>
<path fill="none" stroke="black" stroke-width="2" stroke-dasharray="5,2" d="M53.9945,-42.9836C71.9335,-42.5556 96.0268,-42.4905 115.835,-42.7885"/>
<polygon fill="black" stroke="black" stroke-width="2" points="115.974,-46.2918 126.04,-42.9844 116.109,-39.2931 115.974,-46.2918"/>
</g>
<!-- 0&#45;&gt;1 -->
<g id="edge2" class="edge"><title>0&#45;&gt;1</title>
<path fill="none" stroke="#7f7f00" stroke-width="2" d="M53.9945,-47.3504C71.9335,-47.9211 96.0268,-48.0078 115.835,-47.6104"/>
<polygon fill="#7f7f00" stroke="#7f7f00" stroke-width="2" points="116.133,-51.1041 126.04,-47.3493 115.953,-44.1064 116.133,-51.1041"/>
</g>
<!-- 2 -->
<g id="node3" class="node"><title>2</title>
<ellipse fill="none" stroke="black" stroke-width="2" cx="279" cy="-68.8551" rx="27" ry="18"/>
<text text-anchor="middle" x="279" y="-65.1551" font-family="Times,serif" font-size="14.00">2</text>
</g>
<!-- 0&#45;&gt;2 -->
<g id="edge3" class="edge"><title>0&#45;&gt;2</title>
<path fill="none" stroke="#7f0000" stroke-width="2" d="M52.3513,-51.4324C72.0502,-56.4225 100.592,-62.9095 126,-65.8551 165.284,-70.4092 210.653,-70.6601 241.526,-70.0849"/>
<polygon fill="#7f0000" stroke="#7f0000" stroke-width="2" points="241.89,-73.5777 251.808,-69.8527 241.732,-66.5795 241.89,-73.5777"/>
</g>
<!-- 4 -->
<g id="node4" class="node"><title>4</title>
<ellipse fill="none" stroke="black" stroke-width="2" cx="405" cy="-29.8551" rx="27" ry="18"/>
<text text-anchor="middle" x="405" y="-26.1551" font-family="Times,serif" font-size="14.00">4</text>
</g>
<!-- 0&#45;&gt;4 -->
<g id="edge4" class="edge"><title>0&#45;&gt;4</title>
<path fill="none" stroke="black" stroke-width="2" stroke-dasharray="5,2" d="M62.1685,-35.6795C80.8688,-31.1287 104.539,-26.1287 126,-23.8551 218.412,-14.0649 329.036,-22.3908 378.229,-27.1236"/>
<polygon fill="black" stroke="black" stroke-width="2" points="61.1866,-32.3172 52.3362,-38.1413 62.8869,-39.1076 61.1866,-32.3172"/>
</g>
<!-- 5 -->
<g id="node5" class="node"><title>5</title>
<ellipse fill="none" stroke="black" stroke-width="2" cx="531" cy="-29.8551" rx="27" ry="18"/>
<text text-anchor="middle" x="531" y="-26.1551" font-family="Times,serif" font-size="14.00">5</text>
</g>
<!-- 0&#45;&gt;5 -->
<g id="edge5" class="edge"><title>0&#45;&gt;5</title>
<path fill="none" stroke="black" stroke-width="2" stroke-dasharray="5,2" d="M61.0469,-34.146C79.8702,-28.5389 104.016,-22.1663 126,-18.8551 260.555,1.41165 296.685,5.48029 432,-8.85507 457.436,-11.5498 485.973,-18.074 505.664,-23.1413"/>
<polygon fill="black" stroke="black" stroke-width="2" points="59.9999,-30.8061 51.4571,-37.0729 62.0433,-37.5013 59.9999,-30.8061"/>
</g>
<!-- 1&#45;&gt;2 -->
<g id="edge6" class="edge"><title>1&#45;&gt;2</title>
<path fill="none" stroke="#00ff7f" stroke-width="2" d="M179.093,-49.7118C197.497,-53.2739 222.723,-58.1563 243.092,-62.0987"/>
<polygon fill="#00ff7f" stroke="#00ff7f" stroke-width="2" points="242.461,-65.5415 252.944,-64.0055 243.791,-58.669 242.461,-65.5415"/>
</g>
<!-- 1&#45;&gt;4 -->
<g id="edge7" class="edge"><title>1&#45;&gt;4</title>
<path fill="none" stroke="black" stroke-width="2" stroke-dasharray="5,2" d="M180.282,-43.2782C225.225,-40.5816 316.913,-35.0803 367.851,-32.024"/>
<polygon fill="black" stroke="black" stroke-width="2" points="368.298,-35.5036 378.07,-31.4109 367.879,-28.5162 368.298,-35.5036"/>
</g>
<!-- 2&#45;&gt;4 -->
<g id="edge8" class="edge"><title>2&#45;&gt;4</title>
<path fill="none" stroke="black" stroke-width="2" stroke-dasharray="5,2" d="M303.615,-61.4277C322.542,-55.475 349.336,-47.0479 370.482,-40.397"/>
<polygon fill="black" stroke="black" stroke-width="2" points="371.561,-43.7268 380.05,-37.3877 369.461,-37.0492 371.561,-43.7268"/>
</g>
<!-- 3 -->
<g id="node6" class="node"><title>3</title>
<ellipse fill="none" stroke="black" stroke-width="2" cx="405" cy="-72.8551" rx="27" ry="18"/>
<text text-anchor="middle" x="405" y="-69.1551" font-family="Times,serif" font-size="14.00">3</text>
</g>
<!-- 2&#45;&gt;3 -->
<g id="edge9" class="edge"><title>2&#45;&gt;3</title>
<path fill="none" stroke="#00ff7f" stroke-width="2" d="M305.994,-69.6936C323.813,-70.2684 347.704,-71.0391 367.436,-71.6756"/>
<polygon fill="#00ff7f" stroke="#00ff7f" stroke-width="2" points="367.505,-75.1795 377.613,-72.0039 367.731,-68.1832 367.505,-75.1795"/>
</g>
<!-- 4&#45;&gt;5 -->
<g id="edge10" class="edge"><title>4&#45;&gt;5</title>
<path fill="none" stroke="black" stroke-width="2" stroke-dasharray="5,2" d="M432.297,-29.8551C450.135,-29.8551 473.953,-29.8551 493.607,-29.8551"/>
<polygon fill="black" stroke="black" stroke-width="2" points="493.741,-33.3552 503.741,-29.8551 493.741,-26.3552 493.741,-33.3552"/>
</g>
<!-- 3&#45;&gt;5 -->
<g id="edge11" class="edge"><title>3&#45;&gt;5</title>
<path fill="none" stroke="black" stroke-width="2" stroke-dasharray="5,2" d="M429.323,-64.7671C448.462,-58.1304 475.786,-48.655 497.141,-41.2498"/>
<polygon fill="black" stroke="black" stroke-width="2" points="498.48,-44.49 506.781,-37.9068 496.186,-37.8764 498.48,-44.49"/>
</g>
</g>
</svg>
