<?xml version="1.0" encoding="UTF-8" standalone="no"?>
<!DOCTYPE svg PUBLIC "-//W3C//DTD SVG 1.1//EN"
 "http://www.w3.org/Graphics/SVG/1.1/DTD/svg11.dtd">
<!-- Generated by graphviz version 2.36.0 (20140111.2315)
 -->
<!-- Title: %3 Pages: 1 -->
<svg width="576pt" height="143pt"
 viewBox="0.00 0.00 576.00 143.44" xmlns="http://www.w3.org/2000/svg" xmlns:xlink="http://www.w3.org/1999/xlink">
<g id="graph0" class="graph" transform="scale(0.75 0.75) rotate(0) translate(4 187.257)">
<title>%3</title>
<polygon fill="white" stroke="none" points="-4,4 -4,-187.257 764,-187.257 764,4 -4,4"/>
<!-- 1:
L(40,15)
U(50,25) -->
<g id="node1" class="node"><title>1:
L(40,15)
U(50,25)</title>
<ellipse fill="none" stroke="black" stroke-width="2" cx="195" cy="-79.2567" rx="46.8387" ry="37.4533"/>
<text text-anchor="middle" x="195" y="-90.5567" font-family="Times,serif" font-size="14.00">1:</text>
<text text-anchor="middle" x="195" y="-75.5567" font-family="Times,serif" font-size="14.00">L(40,15)</text>
<text text-anchor="middle" x="195" y="-60.5567" font-family="Times,serif" font-size="14.00">U(50,25)</text>
</g>
<!-- 2:
L(75,50)
U(75,50) -->
<g id="node2" class="node"><title>2:
L(75,50)
U(75,50)</title>
<ellipse fill="none" stroke="black" stroke-width="2" cx="361" cy="-123.257" rx="46.8387" ry="37.4533"/>
<text text-anchor="middle" x="361" y="-134.557" font-family="Times,serif" font-size="14.00">2:</text>
<text text-anchor="middle" x="361" y="-119.557" font-family="Times,serif" font-size="14.00">L(75,50)</text>
<text text-anchor="middle" x="361" y="-104.557" font-family="Times,serif" font-size="14.00">U(75,50)</text>
</g>
<!-- 1:
L(40,15)
U(50,25)&#45;&gt;2:
L(75,50)
U(75,50) -->
<g id="edge1" class="edge"><title>1:
L(40,15)
U(50,25)&#45;&gt;2:
L(75,50)
U(75,50)</title>
<path fill="none" stroke="#00ff7f" stroke-width="2" d="M239.518,-90.9324C260.173,-96.474 285.041,-103.146 306.807,-108.985"/>
<polygon fill="#00ff7f" stroke="#00ff7f" stroke-width="2" points="305.998,-112.392 316.563,-111.603 307.812,-105.631 305.998,-112.392"/>
</g>
<!-- T2:
L(75,50)
U(75,50) -->
<g id="node3" class="node"><title>T2:
L(75,50)
U(75,50)</title>
<ellipse fill="none" stroke="black" stroke-width="2" cx="532" cy="-64.2567" rx="46.8387" ry="37.4533"/>
<text text-anchor="middle" x="532" y="-75.5567" font-family="Times,serif" font-size="14.00">T2:</text>
<text text-anchor="middle" x="532" y="-60.5567" font-family="Times,serif" font-size="14.00">L(75,50)</text>
<text text-anchor="middle" x="532" y="-45.5567" font-family="Times,serif" font-size="14.00">U(75,50)</text>
</g>
<!-- 1:
L(40,15)
U(50,25)&#45;&gt;T2:
L(75,50)
U(75,50) -->
<g id="edge2" class="edge"><title>1:
L(40,15)
U(50,25)&#45;&gt;T2:
L(75,50)
U(75,50)</title>
<path fill="none" stroke="black" stroke-width="2" stroke-dasharray="5,2" d="M241.878,-77.2025C302.602,-74.4835 409.596,-69.6927 475.012,-66.7636"/>
<polygon fill="black" stroke="black" stroke-width="2" points="475.306,-70.254 485.14,-66.3101 474.993,-63.261 475.306,-70.254"/>
</g>
<!-- 2:
L(75,50)
U(75,50)&#45;&gt;T2:
L(75,50)
U(75,50) -->
<g id="edge3" class="edge"><title>2:
L(75,50)
U(75,50)&#45;&gt;T2:
L(75,50)
U(75,50)</title>
<path fill="none" stroke="black" stroke-width="2" stroke-dasharray="5,2" d="M404.21,-108.521C426.981,-100.571 455.272,-90.6943 479.349,-82.2886"/>
<polygon fill="black" stroke="black" stroke-width="2" points="480.748,-85.5075 489.036,-78.907 478.441,-78.8987 480.748,-85.5075"/>
</g>
<!-- 3:
L(100,75)
U(100,75) -->
<g id="node4" class="node"><title>3:
L(100,75)
U(100,75)</title>
<ellipse fill="none" stroke="black" stroke-width="2" cx="532" cy="-146.257" rx="51.7379" ry="37.4533"/>
<text text-anchor="middle" x="532" y="-157.557" font-family="Times,serif" font-size="14.00">3:</text>
<text text-anchor="middle" x="532" y="-142.557" font-family="Times,serif" font-size="14.00">L(100,75)</text>
<text text-anchor="middle" x="532" y="-127.557" font-family="Times,serif" font-size="14.00">U(100,75)</text>
</g>
<!-- 2:
L(75,50)
U(75,50)&#45;&gt;3:
L(100,75)
U(100,75) -->
<g id="edge4" class="edge"><title>2:
L(75,50)
U(75,50)&#45;&gt;3:
L(100,75)
U(100,75)</title>
<path fill="none" stroke="#00ff7f" stroke-width="2" d="M407.289,-129.42C426.866,-132.085 450.052,-135.24 471.03,-138.095"/>
<polygon fill="#00ff7f" stroke="#00ff7f" stroke-width="2" points="470.744,-141.588 481.125,-139.469 471.688,-134.652 470.744,-141.588"/>
</g>
<!-- T1:
L(100,75)
U(100,75) -->
<g id="node5" class="node"><title>T1:
L(100,75)
U(100,75)</title>
<ellipse fill="none" stroke="black" stroke-width="2" cx="708" cy="-64.2567" rx="51.7379" ry="37.4533"/>
<text text-anchor="middle" x="708" y="-75.5567" font-family="Times,serif" font-size="14.00">T1:</text>
<text text-anchor="middle" x="708" y="-60.5567" font-family="Times,serif" font-size="14.00">L(100,75)</text>
<text text-anchor="middle" x="708" y="-45.5567" font-family="Times,serif" font-size="14.00">U(100,75)</text>
</g>
<!-- T2:
L(75,50)
U(75,50)&#45;&gt;T1:
L(100,75)
U(100,75) -->
<g id="edge5" class="edge"><title>T2:
L(75,50)
U(75,50)&#45;&gt;T1:
L(100,75)
U(100,75)</title>
<path fill="none" stroke="black" stroke-width="2" stroke-dasharray="5,2" d="M578.716,-64.2567C599.23,-64.2567 623.731,-64.2567 645.797,-64.2567"/>
<polygon fill="black" stroke="black" stroke-width="2" points="646.073,-67.7568 656.072,-64.2567 646.072,-60.7568 646.073,-67.7568"/>
</g>
<!-- 3:
L(100,75)
U(100,75)&#45;&gt;T1:
L(100,75)
U(100,75) -->
<g id="edge6" class="edge"><title>3:
L(100,75)
U(100,75)&#45;&gt;T1:
L(100,75)
U(100,75)</title>
<path fill="none" stroke="black" stroke-width="2" stroke-dasharray="5,2" d="M575.565,-126.197C599.58,-114.88 629.768,-100.653 655.156,-88.6891"/>
<polygon fill="black" stroke="black" stroke-width="2" points="656.717,-91.8223 664.271,-84.3933 653.733,-85.4902 656.717,-91.8223"/>
</g>
<!-- S:
L(0,0)
U(0,0) -->
<g id="node6" class="node"><title>S:
L(0,0)
U(0,0)</title>
<ellipse fill="none" stroke="black" stroke-width="2" cx="38" cy="-79.2567" rx="37.4533" ry="37.4533"/>
<text text-anchor="middle" x="38" y="-90.5567" font-family="Times,serif" font-size="14.00">S:</text>
<text text-anchor="middle" x="38" y="-75.5567" font-family="Times,serif" font-size="14.00">L(0,0)</text>
<text text-anchor="middle" x="38" y="-60.5567" font-family="Times,serif" font-size="14.00">U(0,0)</text>
</g>
<!-- S:
L(0,0)
U(0,0)&#45;&gt;1:
L(40,15)
U(50,25) -->
<g id="edge7" class="edge"><title>S:
L(0,0)
U(0,0)&#45;&gt;1:
L(40,15)
U(50,25)</title>
<path fill="none" stroke="black" stroke-width="2" stroke-dasharray="5,2" d="M75.7328,-77.3101C94.4277,-77.0029 117.547,-76.929 138.371,-77.0883"/>
<polygon fill="black" stroke="black" stroke-width="2" points="138.347,-80.5881 148.381,-77.1852 138.415,-73.5885 138.347,-80.5881"/>
</g>
<!-- S:
L(0,0)
U(0,0)&#45;&gt;1:
L(40,15)
U(50,25) -->
<g id="edge8" class="edge"><title>S:
L(0,0)
U(0,0)&#45;&gt;1:
L(40,15)
U(50,25)</title>
<path fill="none" stroke="#7f7f00" stroke-width="2" d="M75.7328,-81.8522C94.4277,-82.2617 117.547,-82.3603 138.371,-82.1479"/>
<polygon fill="#7f7f00" stroke="#7f7f00" stroke-width="2" points="138.427,-85.6476 148.381,-82.0186 138.336,-78.6481 138.427,-85.6476"/>
</g>
<!-- S:
L(0,0)
U(0,0)&#45;&gt;2:
L(75,50)
U(75,50) -->
<g id="edge9" class="edge"><title>S:
L(0,0)
U(0,0)&#45;&gt;2:
L(75,50)
U(75,50)</title>
<path fill="none" stroke="#7f0000" stroke-width="2" d="M72.5385,-94.8692C93.685,-103.873 121.847,-114.355 148,-119.257 200.422,-129.083 261.412,-129.068 304.48,-127.204"/>
<polygon fill="#7f0000" stroke="#7f0000" stroke-width="2" points="304.659,-130.699 314.48,-126.724 304.323,-123.707 304.659,-130.699"/>
</g>
<!-- S:
L(0,0)
U(0,0)&#45;&gt;T2:
L(75,50)
U(75,50) -->
<g id="edge10" class="edge"><title>S:
L(0,0)
U(0,0)&#45;&gt;T2:
L(75,50)
U(75,50)</title>
<path fill="none" stroke="black" stroke-width="2" stroke-dasharray="5,2" d="M81.8147,-59.5802C101.523,-51.5664 125.486,-43.2572 148,-39.2567 269.209,-17.7188 414.944,-40.2884 486.678,-54.5199"/>
<polygon fill="black" stroke="black" stroke-width="2" points="80.3837,-56.3849 72.5067,-63.4704 83.083,-62.8435 80.3837,-56.3849"/>
</g>
<!-- S:
L(0,0)
U(0,0)&#45;&gt;T1:
L(100,75)
U(100,75) -->
<g id="edge11" class="edge"><title>S:
L(0,0)
U(0,0)&#45;&gt;T1:
L(100,75)
U(100,75)</title>
<path fill="none" stroke="black" stroke-width="2" stroke-dasharray="5,2" d="M79.791,-56.1796C99.702,-46.168 124.404,-35.5399 148,-30.2567 337.114,12.0867 392.594,6.08424 584,-24.2567 610.835,-28.5105 639.782,-37.6793 662.848,-46.1666"/>
<polygon fill="black" stroke="black" stroke-width="2" points="77.9945,-53.1681 70.715,-60.8661 81.2062,-59.3878 77.9945,-53.1681"/>
</g>
</g>
</svg>
